<?xml version="1.0" encoding="utf-8" standalone="no"?>
<!DOCTYPE svg PUBLIC "-//W3C//DTD SVG 1.1//EN"
  "http://www.w3.org/Graphics/SVG/1.1/DTD/svg11.dtd">
<svg height="180.550469pt" version="1.1" viewBox="0 0 243.178125 180.550469" width="243.178125pt" xmlns="http://www.w3.org/2000/svg" xmlns:xlink="http://www.w3.org/1999/xlink">
 <metadata>
  <rdf:RDF xmlns:cc="http://creativecommons.org/ns#" xmlns:dc="http://purl.org/dc/elements/1.1/" xmlns:rdf="http://www.w3.org/1999/02/22-rdf-syntax-ns#">
   <cc:Work>
    <dc:type rdf:resource="http://purl.org/dc/dcmitype/StillImage"/>
    <dc:date>2023-04-24T13:39:56.075210</dc:date>
    <dc:format>image/svg+xml</dc:format>
    <dc:creator>
     <cc:Agent>
      <dc:title>Matplotlib v3.4.3, https://matplotlib.org/</dc:title>
     </cc:Agent>
    </dc:creator>
   </cc:Work>
  </rdf:RDF>
 </metadata>
 <defs>
  <style type="text/css">*{stroke-linecap:butt;stroke-linejoin:round;}</style>
 </defs>
 <g id="figure_1">
  <g id="patch_1">
   <path d="M 0 180.550469 
L 243.178125 180.550469 
L 243.178125 0 
L 0 0 
z
" style="fill:none;"/>
  </g>
  <g id="axes_1">
   <g id="patch_2">
    <path d="M 44.278125 150.094219 
L 239.578125 150.094219 
L 239.578125 7.399219 
L 44.278125 7.399219 
z
" style="fill:#ffffff;"/>
   </g>
   <g id="PolyCollection_1">
    <path clip-path="url(#pd85986ecb9)" d="M 53.155398 35.999079 
L 53.155398 41.880566 
L 54.315826 43.547197 
L 55.476253 43.844352 
L 56.636681 44.062208 
L 57.797109 44.267646 
L 58.957537 44.419533 
L 60.117965 44.560039 
L 61.278392 44.690018 
L 62.43882 44.78645 
L 63.599248 44.899859 
L 64.759676 45.073885 
L 65.920104 45.259945 
L 67.080531 45.414115 
L 68.240959 45.552518 
L 69.401387 45.680144 
L 70.561815 45.850068 
L 71.722243 45.989728 
L 72.88267 46.126721 
L 74.043098 46.249448 
L 75.203526 46.355884 
L 76.363954 46.436574 
L 77.524382 46.574636 
L 78.684809 46.672007 
L 79.845237 46.757911 
L 81.005665 46.825574 
L 82.166093 46.931048 
L 83.326521 47.050809 
L 84.486949 47.150331 
L 85.647376 47.26746 
L 86.807804 47.340708 
L 87.968232 47.420476 
L 89.12866 47.489537 
L 90.289088 47.564737 
L 91.449515 47.660432 
L 92.609943 47.736693 
L 93.770371 47.836334 
L 94.930799 47.925466 
L 96.091227 48.010086 
L 97.251654 48.105013 
L 98.412082 48.170155 
L 99.57251 48.248754 
L 100.732938 48.326272 
L 101.893366 48.411817 
L 103.053793 48.480517 
L 104.214221 48.565416 
L 105.374649 48.645085 
L 106.535077 48.715968 
L 107.695505 48.81231 
L 108.855932 48.889364 
L 110.01636 48.988064 
L 111.176788 49.093291 
L 112.337216 49.169065 
L 113.497644 49.26303 
L 114.658072 49.383395 
L 115.818499 49.476506 
L 116.978927 49.564622 
L 118.139355 49.644508 
L 119.299783 49.754134 
L 120.460211 49.841372 
L 121.620638 49.925967 
L 122.781066 50.016085 
L 123.941494 50.10774 
L 125.101922 50.194005 
L 126.26235 50.288965 
L 127.422777 50.374882 
L 128.583205 50.466962 
L 129.743633 50.559639 
L 130.904061 50.638557 
L 132.064489 50.737937 
L 133.224916 50.852394 
L 134.385344 50.953807 
L 135.545772 51.051212 
L 136.7062 51.164192 
L 137.866628 51.257628 
L 139.027055 51.348925 
L 140.187483 51.442127 
L 141.347911 51.534432 
L 142.508339 51.641494 
L 143.668767 51.735923 
L 144.829195 51.83125 
L 145.989622 51.949352 
L 147.15005 52.074037 
L 148.310478 52.179793 
L 149.470906 52.260679 
L 150.631334 52.352731 
L 151.791761 52.448579 
L 152.952189 52.549531 
L 154.112617 52.66586 
L 155.273045 52.752768 
L 156.433473 52.827094 
L 157.5939 52.916418 
L 158.754328 53.005678 
L 159.914756 53.110175 
L 161.075184 53.236107 
L 162.235612 53.315696 
L 163.396039 53.40794 
L 164.556467 53.508274 
L 165.716895 53.62123 
L 166.877323 53.705838 
L 168.037751 53.808774 
L 169.198178 53.922773 
L 170.358606 54.022346 
L 171.519034 54.121195 
L 172.679462 54.218067 
L 173.83989 54.348145 
L 175.000318 54.436612 
L 176.160745 54.53976 
L 177.321173 54.636709 
L 178.481601 54.742299 
L 179.642029 54.851053 
L 180.802457 54.958797 
L 181.962884 55.058693 
L 183.123312 55.175517 
L 184.28374 55.288942 
L 185.444168 55.418869 
L 186.604596 55.512458 
L 187.765023 55.641303 
L 188.925451 55.72924 
L 190.085879 55.840087 
L 191.246307 55.950763 
L 192.406735 56.057187 
L 193.567162 56.156112 
L 194.72759 56.251809 
L 195.888018 56.335533 
L 197.048446 56.461393 
L 198.208874 56.568391 
L 199.369301 56.665732 
L 200.529729 56.7648 
L 201.690157 56.860999 
L 202.850585 56.957367 
L 204.011013 57.061215 
L 205.171441 57.169167 
L 206.331868 57.255073 
L 207.492296 57.354298 
L 208.652724 57.461832 
L 209.813152 57.585112 
L 210.97358 57.708345 
L 212.134007 57.862253 
L 213.294435 58.001593 
L 214.454863 58.211125 
L 215.615291 58.397917 
L 216.775719 58.716823 
L 217.936146 59.163209 
L 219.096574 59.723464 
L 220.257002 60.333129 
L 221.41743 61.041738 
L 222.577858 62.322006 
L 223.738285 63.507066 
L 224.898713 66.845026 
L 226.059141 70.17339 
L 227.219569 76.177495 
L 228.379997 81.404511 
L 229.540424 1272.635896 
L 230.700852 28517.860219 
L 230.700852 28517.860219 
L 230.700852 28517.860219 
L 229.540424 284.307337 
L 228.379997 67.91732 
L 227.219569 61.41009 
L 226.059141 58.10489 
L 224.898713 55.711384 
L 223.738285 54.327189 
L 222.577858 53.643664 
L 221.41743 53.063697 
L 220.257002 52.73895 
L 219.096574 52.480976 
L 217.936146 52.249308 
L 216.775719 52.101591 
L 215.615291 51.913617 
L 214.454863 51.784171 
L 213.294435 51.667038 
L 212.134007 51.544981 
L 210.97358 51.413851 
L 209.813152 51.307476 
L 208.652724 51.208396 
L 207.492296 51.122493 
L 206.331868 51.032752 
L 205.171441 50.93307 
L 204.011013 50.834856 
L 202.850585 50.746432 
L 201.690157 50.655685 
L 200.529729 50.566767 
L 199.369301 50.472717 
L 198.208874 50.385262 
L 197.048446 50.303758 
L 195.888018 50.215415 
L 194.72759 50.135849 
L 193.567162 50.055141 
L 192.406735 49.975679 
L 191.246307 49.891891 
L 190.085879 49.803491 
L 188.925451 49.717994 
L 187.765023 49.636371 
L 186.604596 49.547586 
L 185.444168 49.472505 
L 184.28374 49.357728 
L 183.123312 49.264766 
L 181.962884 49.178177 
L 180.802457 49.094775 
L 179.642029 49.016847 
L 178.481601 48.92296 
L 177.321173 48.831478 
L 176.160745 48.736293 
L 175.000318 48.638077 
L 173.83989 48.541255 
L 172.679462 48.464411 
L 171.519034 48.398025 
L 170.358606 48.3022 
L 169.198178 48.207002 
L 168.037751 48.129348 
L 166.877323 48.043092 
L 165.716895 47.969243 
L 164.556467 47.886918 
L 163.396039 47.821649 
L 162.235612 47.75017 
L 161.075184 47.667873 
L 159.914756 47.582484 
L 158.754328 47.485891 
L 157.5939 47.411226 
L 156.433473 47.330517 
L 155.273045 47.24701 
L 154.112617 47.170165 
L 152.952189 47.076633 
L 151.791761 46.999155 
L 150.631334 46.909992 
L 149.470906 46.817232 
L 148.310478 46.746801 
L 147.15005 46.671828 
L 145.989622 46.612965 
L 144.829195 46.530824 
L 143.668767 46.44696 
L 142.508339 46.372267 
L 141.347911 46.291406 
L 140.187483 46.209472 
L 139.027055 46.13691 
L 137.866628 46.056365 
L 136.7062 45.977347 
L 135.545772 45.91063 
L 134.385344 45.826088 
L 133.224916 45.754084 
L 132.064489 45.667854 
L 130.904061 45.593136 
L 129.743633 45.531296 
L 128.583205 45.455428 
L 127.422777 45.370687 
L 126.26235 45.293439 
L 125.101922 45.201953 
L 123.941494 45.125689 
L 122.781066 45.043596 
L 121.620638 44.979501 
L 120.460211 44.904443 
L 119.299783 44.831928 
L 118.139355 44.759943 
L 116.978927 44.685339 
L 115.818499 44.602276 
L 114.658072 44.5269 
L 113.497644 44.439196 
L 112.337216 44.365723 
L 111.176788 44.295529 
L 110.01636 44.227415 
L 108.855932 44.146821 
L 107.695505 44.067179 
L 106.535077 43.991011 
L 105.374649 43.923047 
L 104.214221 43.840788 
L 103.053793 43.756002 
L 101.893366 43.6848 
L 100.732938 43.602365 
L 99.57251 43.53703 
L 98.412082 43.468776 
L 97.251654 43.387043 
L 96.091227 43.315378 
L 94.930799 43.24062 
L 93.770371 43.168191 
L 92.609943 43.077065 
L 91.449515 42.999659 
L 90.289088 42.920583 
L 89.12866 42.845304 
L 87.968232 42.781944 
L 86.807804 42.718684 
L 85.647376 42.622343 
L 84.486949 42.538011 
L 83.326521 42.452286 
L 82.166093 42.367359 
L 81.005665 42.273621 
L 79.845237 42.194435 
L 78.684809 42.10339 
L 77.524382 42.022705 
L 76.363954 41.925444 
L 75.203526 41.836476 
L 74.043098 41.731854 
L 72.88267 41.626937 
L 71.722243 41.511201 
L 70.561815 41.354323 
L 69.401387 41.222054 
L 68.240959 41.09159 
L 67.080531 40.887835 
L 65.920104 40.691972 
L 64.759676 40.514995 
L 63.599248 40.298623 
L 62.43882 40.111147 
L 61.278392 39.912903 
L 60.117965 39.728455 
L 58.957537 39.532744 
L 57.797109 39.316265 
L 56.636681 38.976405 
L 55.476253 38.638243 
L 54.315826 38.003085 
L 53.155398 35.999079 
z
" style="fill:#0c5da5;fill-opacity:0.15;"/>
   </g>
   <g id="PolyCollection_2">
    <path clip-path="url(#pd85986ecb9)" d="M 53.155398 49.384135 
L 53.155398 54.981704 
L 54.315826 58.014874 
L 55.476253 59.410042 
L 56.636681 61.484164 
L 57.797109 62.911701 
L 58.957537 64.490084 
L 60.117965 65.742394 
L 61.278392 66.879509 
L 62.43882 67.908472 
L 63.599248 68.780764 
L 64.759676 70.058365 
L 65.920104 71.087568 
L 67.080531 72.2235 
L 68.240959 73.212538 
L 69.401387 74.518379 
L 70.561815 75.414176 
L 71.722243 76.432228 
L 72.88267 77.74251 
L 74.043098 79.008037 
L 75.203526 80.01761 
L 76.363954 80.939945 
L 77.524382 81.865384 
L 78.684809 83.002362 
L 79.845237 83.829392 
L 81.005665 84.662919 
L 82.166093 86.087617 
L 83.326521 87.639407 
L 84.486949 88.452436 
L 85.647376 89.97786 
L 86.807804 91.496058 
L 87.968232 92.608053 
L 89.12866 93.688709 
L 90.289088 94.473555 
L 91.449515 95.188251 
L 92.609943 96.575959 
L 93.770371 98.84973 
L 94.930799 100.047922 
L 96.091227 101.212187 
L 97.251654 103.029487 
L 98.412082 103.873148 
L 99.57251 105.99066 
L 100.732938 107.136766 
L 101.893366 107.807252 
L 103.053793 108.823329 
L 104.214221 109.77766 
L 105.374649 111.206424 
L 106.535077 112.490769 
L 107.695505 114.143759 
L 108.855932 116.213246 
L 110.01636 117.686905 
L 111.176788 120.320533 
L 112.337216 122.997445 
L 113.497644 125.182099 
L 114.658072 127.20356 
L 115.818499 128.688023 
L 116.978927 129.407571 
L 118.139355 129.996843 
L 119.299783 131.147263 
L 120.460211 131.923774 
L 121.620638 133.395039 
L 122.781066 134.298712 
L 123.941494 135.454562 
L 125.101922 136.418636 
L 126.26235 137.29754 
L 127.422777 138.055296 
L 128.583205 139.039132 
L 129.743633 139.570388 
L 130.904061 140.705536 
L 132.064489 141.139712 
L 133.224916 141.618641 
L 134.385344 142.053895 
L 135.545772 142.691874 
L 136.7062 143.417748 
L 137.866628 143.919045 
L 139.027055 144.457431 
L 140.187483 145.005035 
L 141.347911 145.793999 
L 142.508339 146.310534 
L 143.668767 146.933081 
L 144.829195 147.303014 
L 145.989622 148.107646 
L 147.15005 148.921557 
L 148.310478 149.971942 
L 149.470906 150.877816 
L 150.631334 151.74211 
L 151.791761 152.24134 
L 152.952189 152.789777 
L 154.112617 153.681011 
L 155.273045 154.291754 
L 156.433473 155.432825 
L 157.5939 156.310662 
L 158.754328 157.352402 
L 159.914756 158.386695 
L 161.075184 159.328877 
L 162.235612 160.381714 
L 163.396039 161.560844 
L 164.556467 162.939359 
L 165.716895 165.306726 
L 166.877323 166.78137 
L 168.037751 167.71901 
L 169.198178 168.580816 
L 170.358606 170.283139 
L 171.519034 171.039636 
L 172.679462 172.066893 
L 173.83989 173.834329 
L 175.000318 174.436903 
L 176.160745 175.248358 
L 177.321173 175.980798 
L 178.481601 176.229768 
L 179.642029 176.931001 
L 180.802457 177.537109 
L 181.962884 177.930543 
L 183.123312 179.798857 
L 184.28374 180.744451 
L 185.444168 180.901229 
L 186.604596 181.052097 
L 187.765023 181.429903 
L 188.925451 183.67368 
L 190.085879 184.408991 
L 191.246307 185.391241 
L 192.406735 187.108281 
L 193.567162 191.468074 
L 194.72759 193.012182 
L 195.888018 198.52844 
L 197.048446 200.16015 
L 198.208874 211.558748 
L 199.369301 211.751357 
L 200.529729 219.650325 
L 201.690157 224.905848 
L 202.850585 230.743275 
L 204.011013 232.205855 
L 205.171441 237.453485 
L 206.331868 251.632425 
L 207.492296 257.312446 
L 208.652724 263.81774 
L 209.813152 270.181186 
L 210.97358 273.860059 
L 212.134007 281.060555 
L 213.294435 302.907139 
L 214.454863 319.844909 
L 215.615291 332.070536 
L 216.775719 386.705415 
L 217.936146 401.353136 
L 219.096574 414.219846 
L 220.257002 461.828498 
L 221.41743 530.262716 
L 222.577858 578.826079 
L 223.738285 618.303434 
L 224.898713 723.091156 
L 226.059141 741.597119 
L 227.219569 760.778506 
L 228.379997 818.657654 
L 229.540424 2519.510949 
L 230.700852 28517.860219 
L 230.700852 28517.860219 
L 230.700852 28517.860219 
L 229.540424 1562.118977 
L 228.379997 675.776222 
L 227.219569 593.1993 
L 226.059141 532.989764 
L 224.898713 488.627886 
L 223.738285 487.864816 
L 222.577858 313.846902 
L 221.41743 292.443668 
L 220.257002 254.855344 
L 219.096574 227.579289 
L 217.936146 221.322619 
L 216.775719 216.810768 
L 215.615291 207.86867 
L 214.454863 196.018173 
L 213.294435 180.09344 
L 212.134007 175.625325 
L 210.97358 174.462323 
L 209.813152 172.668744 
L 208.652724 169.074486 
L 207.492296 168.053869 
L 206.331868 165.426906 
L 205.171441 163.480971 
L 204.011013 161.247768 
L 202.850585 160.249947 
L 201.690157 158.538314 
L 200.529729 156.553999 
L 199.369301 154.70819 
L 198.208874 153.650408 
L 197.048446 152.190102 
L 195.888018 150.982044 
L 194.72759 150.163948 
L 193.567162 149.000837 
L 192.406735 148.063718 
L 191.246307 147.168665 
L 190.085879 146.419606 
L 188.925451 145.441151 
L 187.765023 144.508345 
L 186.604596 143.800935 
L 185.444168 143.153237 
L 184.28374 142.468355 
L 183.123312 141.533986 
L 181.962884 140.844341 
L 180.802457 140.339994 
L 179.642029 139.797111 
L 178.481601 139.180623 
L 177.321173 138.693057 
L 176.160745 138.258045 
L 175.000318 137.690509 
L 173.83989 137.311155 
L 172.679462 136.786412 
L 171.519034 136.310616 
L 170.358606 135.87857 
L 169.198178 135.523564 
L 168.037751 135.237497 
L 166.877323 134.716167 
L 165.716895 134.394443 
L 164.556467 134.048584 
L 163.396039 133.742783 
L 162.235612 133.354549 
L 161.075184 133.012727 
L 159.914756 132.653207 
L 158.754328 132.236608 
L 157.5939 131.881353 
L 156.433473 131.516632 
L 155.273045 131.234678 
L 154.112617 130.828665 
L 152.952189 130.518049 
L 151.791761 130.138278 
L 150.631334 129.864561 
L 149.470906 129.615453 
L 148.310478 128.772097 
L 147.15005 128.412195 
L 145.989622 127.948105 
L 144.829195 127.630248 
L 143.668767 127.316326 
L 142.508339 126.854972 
L 141.347911 126.308789 
L 140.187483 125.799508 
L 139.027055 125.243449 
L 137.866628 124.416666 
L 136.7062 123.104025 
L 135.545772 122.74154 
L 134.385344 122.107856 
L 133.224916 120.697197 
L 132.064489 119.783937 
L 130.904061 119.455125 
L 129.743633 118.649061 
L 128.583205 118.291068 
L 127.422777 117.571324 
L 126.26235 117.157191 
L 125.101922 116.285138 
L 123.941494 115.716137 
L 122.781066 114.811469 
L 121.620638 114.405992 
L 120.460211 113.840018 
L 119.299783 113.295571 
L 118.139355 112.169384 
L 116.978927 111.593493 
L 115.818499 110.539177 
L 114.658072 109.630274 
L 113.497644 107.863575 
L 112.337216 106.710593 
L 111.176788 105.348648 
L 110.01636 104.212487 
L 108.855932 103.056818 
L 107.695505 101.774546 
L 106.535077 100.845474 
L 105.374649 99.506463 
L 104.214221 98.299649 
L 103.053793 97.33081 
L 101.893366 96.189783 
L 100.732938 95.343494 
L 99.57251 94.373496 
L 98.412082 92.917293 
L 97.251654 91.840027 
L 96.091227 90.393088 
L 94.930799 89.331704 
L 93.770371 88.13747 
L 92.609943 86.484134 
L 91.449515 85.292327 
L 90.289088 84.626308 
L 89.12866 83.594521 
L 87.968232 82.505926 
L 86.807804 81.502996 
L 85.647376 80.390272 
L 84.486949 79.361823 
L 83.326521 78.270302 
L 82.166093 77.167026 
L 81.005665 76.147441 
L 79.845237 75.402234 
L 78.684809 74.665388 
L 77.524382 73.778123 
L 76.363954 72.820489 
L 75.203526 72.110559 
L 74.043098 71.219333 
L 72.88267 70.203827 
L 71.722243 69.154039 
L 70.561815 68.270403 
L 69.401387 67.352864 
L 68.240959 66.479772 
L 67.080531 65.400881 
L 65.920104 64.363475 
L 64.759676 63.530721 
L 63.599248 62.490216 
L 62.43882 61.537584 
L 61.278392 60.663333 
L 60.117965 59.470512 
L 58.957537 58.306323 
L 57.797109 56.826577 
L 56.636681 55.446873 
L 55.476253 53.478077 
L 54.315826 52.150468 
L 53.155398 49.384135 
z
" style="fill:#ff9500;fill-opacity:0.15;"/>
   </g>
   <g id="PolyCollection_3">
    <path clip-path="url(#pd85986ecb9)" d="M 53.155398 13.343568 
L 53.155398 16.52154 
L 54.315826 28.177358 
L 55.476253 35.762811 
L 56.636681 39.956193 
L 57.797109 44.488572 
L 58.957537 46.638521 
L 60.117965 48.362087 
L 61.278392 49.24272 
L 62.43882 49.896508 
L 63.599248 50.292484 
L 64.759676 50.787951 
L 65.920104 51.135073 
L 67.080531 51.413575 
L 68.240959 51.738251 
L 69.401387 52.064839 
L 70.561815 52.329878 
L 71.722243 52.65389 
L 72.88267 52.93889 
L 74.043098 53.163002 
L 75.203526 53.370665 
L 76.363954 53.60636 
L 77.524382 53.82976 
L 78.684809 54.069049 
L 79.845237 54.245091 
L 81.005665 54.411646 
L 82.166093 54.599443 
L 83.326521 54.736639 
L 84.486949 54.887273 
L 85.647376 55.053643 
L 86.807804 55.232001 
L 87.968232 55.410147 
L 89.12866 55.591421 
L 90.289088 55.739782 
L 91.449515 55.920155 
L 92.609943 56.08787 
L 93.770371 56.213844 
L 94.930799 56.370683 
L 96.091227 56.532729 
L 97.251654 56.656079 
L 98.412082 56.821164 
L 99.57251 56.968694 
L 100.732938 57.101948 
L 101.893366 57.220556 
L 103.053793 57.356537 
L 104.214221 57.488681 
L 105.374649 57.628078 
L 106.535077 57.774245 
L 107.695505 57.916972 
L 108.855932 58.080314 
L 110.01636 58.240133 
L 111.176788 58.436561 
L 112.337216 58.583 
L 113.497644 58.73316 
L 114.658072 58.880885 
L 115.818499 59.01908 
L 116.978927 59.158002 
L 118.139355 59.299121 
L 119.299783 59.44329 
L 120.460211 59.605693 
L 121.620638 59.733127 
L 122.781066 59.878638 
L 123.941494 60.001376 
L 125.101922 60.172498 
L 126.26235 60.297616 
L 127.422777 60.439346 
L 128.583205 60.540561 
L 129.743633 60.679258 
L 130.904061 60.78219 
L 132.064489 60.909257 
L 133.224916 61.039428 
L 134.385344 61.179137 
L 135.545772 61.307879 
L 136.7062 61.417998 
L 137.866628 61.554093 
L 139.027055 61.679619 
L 140.187483 61.814616 
L 141.347911 61.952924 
L 142.508339 62.071565 
L 143.668767 62.222049 
L 144.829195 62.353988 
L 145.989622 62.487337 
L 147.15005 62.618947 
L 148.310478 62.756339 
L 149.470906 62.8857 
L 150.631334 63.018033 
L 151.791761 63.160519 
L 152.952189 63.270162 
L 154.112617 63.390757 
L 155.273045 63.522018 
L 156.433473 63.660489 
L 157.5939 63.787047 
L 158.754328 63.945688 
L 159.914756 64.112796 
L 161.075184 64.251532 
L 162.235612 64.39865 
L 163.396039 64.576333 
L 164.556467 64.746676 
L 165.716895 64.898288 
L 166.877323 65.046372 
L 168.037751 65.214799 
L 169.198178 65.390279 
L 170.358606 65.567739 
L 171.519034 65.757105 
L 172.679462 65.921143 
L 173.83989 66.087809 
L 175.000318 66.29943 
L 176.160745 66.495796 
L 177.321173 66.7176 
L 178.481601 66.943812 
L 179.642029 67.212123 
L 180.802457 67.415474 
L 181.962884 67.651886 
L 183.123312 67.911254 
L 184.28374 68.102126 
L 185.444168 68.305842 
L 186.604596 68.530522 
L 187.765023 68.79011 
L 188.925451 69.018324 
L 190.085879 69.266456 
L 191.246307 69.526228 
L 192.406735 69.743702 
L 193.567162 69.999086 
L 194.72759 70.317388 
L 195.888018 70.619657 
L 197.048446 70.88859 
L 198.208874 71.232031 
L 199.369301 71.572953 
L 200.529729 71.893237 
L 201.690157 72.167578 
L 202.850585 72.555675 
L 204.011013 72.942227 
L 205.171441 73.380268 
L 206.331868 73.734235 
L 207.492296 74.105509 
L 208.652724 74.474834 
L 209.813152 74.90384 
L 210.97358 75.436846 
L 212.134007 75.89569 
L 213.294435 76.406501 
L 214.454863 76.940917 
L 215.615291 77.406965 
L 216.775719 78.005283 
L 217.936146 78.76157 
L 219.096574 79.583214 
L 220.257002 80.367408 
L 221.41743 81.294764 
L 222.577858 82.422372 
L 223.738285 84.387884 
L 224.898713 86.762808 
L 226.059141 89.781264 
L 227.219569 93.321501 
L 228.379997 102.740494 
L 229.540424 138.460829 
L 230.700852 28517.860219 
L 230.700852 28517.860219 
L 230.700852 28517.860219 
L 229.540424 135.314928 
L 228.379997 88.192337 
L 227.219569 81.389032 
L 226.059141 78.718327 
L 224.898713 76.202844 
L 223.738285 74.903581 
L 222.577858 73.815371 
L 221.41743 72.990429 
L 220.257002 72.352759 
L 219.096574 71.844216 
L 217.936146 71.350037 
L 216.775719 70.88014 
L 215.615291 70.511971 
L 214.454863 70.121027 
L 213.294435 69.656682 
L 212.134007 69.294206 
L 210.97358 68.923295 
L 209.813152 68.575221 
L 208.652724 68.304804 
L 207.492296 67.967455 
L 206.331868 67.668875 
L 205.171441 67.332461 
L 204.011013 67.017187 
L 202.850585 66.723143 
L 201.690157 66.446155 
L 200.529729 66.156713 
L 199.369301 65.901077 
L 198.208874 65.649397 
L 197.048446 65.433615 
L 195.888018 65.216987 
L 194.72759 65.001424 
L 193.567162 64.805264 
L 192.406735 64.561527 
L 191.246307 64.364867 
L 190.085879 64.176619 
L 188.925451 63.970281 
L 187.765023 63.797139 
L 186.604596 63.564568 
L 185.444168 63.355582 
L 184.28374 63.162142 
L 183.123312 62.982354 
L 181.962884 62.783776 
L 180.802457 62.602331 
L 179.642029 62.424921 
L 178.481601 62.236106 
L 177.321173 62.039591 
L 176.160745 61.869458 
L 175.000318 61.702896 
L 173.83989 61.541428 
L 172.679462 61.376429 
L 171.519034 61.201907 
L 170.358606 61.051087 
L 169.198178 60.898202 
L 168.037751 60.747177 
L 166.877323 60.597676 
L 165.716895 60.444592 
L 164.556467 60.279348 
L 163.396039 60.128684 
L 162.235612 59.990294 
L 161.075184 59.851809 
L 159.914756 59.727797 
L 158.754328 59.58957 
L 157.5939 59.459863 
L 156.433473 59.325788 
L 155.273045 59.20609 
L 154.112617 59.091555 
L 152.952189 58.968841 
L 151.791761 58.854203 
L 150.631334 58.726165 
L 149.470906 58.604842 
L 148.310478 58.498753 
L 147.15005 58.397261 
L 145.989622 58.273285 
L 144.829195 58.154573 
L 143.668767 58.050348 
L 142.508339 57.932723 
L 141.347911 57.795841 
L 140.187483 57.66687 
L 139.027055 57.545573 
L 137.866628 57.4318 
L 136.7062 57.315813 
L 135.545772 57.193612 
L 134.385344 57.088459 
L 133.224916 56.973942 
L 132.064489 56.867676 
L 130.904061 56.73472 
L 129.743633 56.602327 
L 128.583205 56.500085 
L 127.422777 56.381551 
L 126.26235 56.259195 
L 125.101922 56.146499 
L 123.941494 56.000366 
L 122.781066 55.871026 
L 121.620638 55.744608 
L 120.460211 55.602251 
L 119.299783 55.473457 
L 118.139355 55.363015 
L 116.978927 55.227001 
L 115.818499 55.096996 
L 114.658072 54.95456 
L 113.497644 54.842612 
L 112.337216 54.684789 
L 111.176788 54.554672 
L 110.01636 54.422737 
L 108.855932 54.29308 
L 107.695505 54.142633 
L 106.535077 54.006295 
L 105.374649 53.889538 
L 104.214221 53.770288 
L 103.053793 53.62981 
L 101.893366 53.487166 
L 100.732938 53.367786 
L 99.57251 53.244381 
L 98.412082 53.101647 
L 97.251654 52.955868 
L 96.091227 52.811019 
L 94.930799 52.651254 
L 93.770371 52.481533 
L 92.609943 52.34022 
L 91.449515 52.178257 
L 90.289088 52.020179 
L 89.12866 51.878749 
L 87.968232 51.732475 
L 86.807804 51.578597 
L 85.647376 51.425908 
L 84.486949 51.26498 
L 83.326521 51.118411 
L 82.166093 50.964889 
L 81.005665 50.789403 
L 79.845237 50.609388 
L 78.684809 50.431616 
L 77.524382 50.214963 
L 76.363954 50.007453 
L 75.203526 49.787496 
L 74.043098 49.593908 
L 72.88267 49.344676 
L 71.722243 49.080366 
L 70.561815 48.84228 
L 69.401387 48.547063 
L 68.240959 48.278094 
L 67.080531 48.021362 
L 65.920104 47.717657 
L 64.759676 47.333104 
L 63.599248 46.811812 
L 62.43882 46.356312 
L 61.278392 45.449004 
L 60.117965 44.482834 
L 58.957537 43.015069 
L 57.797109 40.575333 
L 56.636681 36.109263 
L 55.476253 31.718744 
L 54.315826 24.491326 
L 53.155398 13.343568 
z
" style="fill:#00b945;fill-opacity:0.15;"/>
   </g>
   <g id="PolyCollection_4">
    <path clip-path="url(#pd85986ecb9)" d="M 53.155398 38.717007 
L 53.155398 45.749432 
L 54.315826 53.940938 
L 55.476253 58.009821 
L 56.636681 60.763618 
L 57.797109 62.406691 
L 58.957537 63.574401 
L 60.117965 64.389892 
L 61.278392 64.881401 
L 62.43882 65.47075 
L 63.599248 65.865681 
L 64.759676 66.195158 
L 65.920104 66.63687 
L 67.080531 67.090943 
L 68.240959 67.482925 
L 69.401387 67.792624 
L 70.561815 68.161268 
L 71.722243 68.520622 
L 72.88267 68.96763 
L 74.043098 69.319657 
L 75.203526 69.717677 
L 76.363954 70.019263 
L 77.524382 70.356389 
L 78.684809 70.731744 
L 79.845237 71.114623 
L 81.005665 71.466669 
L 82.166093 71.787992 
L 83.326521 72.194624 
L 84.486949 72.585429 
L 85.647376 72.914008 
L 86.807804 73.263485 
L 87.968232 73.662072 
L 89.12866 73.973289 
L 90.289088 74.334133 
L 91.449515 74.653353 
L 92.609943 75.067987 
L 93.770371 75.446323 
L 94.930799 75.859896 
L 96.091227 76.224635 
L 97.251654 76.680241 
L 98.412082 77.051348 
L 99.57251 77.461417 
L 100.732938 77.890255 
L 101.893366 78.353064 
L 103.053793 78.766353 
L 104.214221 79.28018 
L 105.374649 79.817263 
L 106.535077 80.211304 
L 107.695505 80.760888 
L 108.855932 81.222028 
L 110.01636 81.611651 
L 111.176788 82.137591 
L 112.337216 82.707049 
L 113.497644 83.187594 
L 114.658072 83.833784 
L 115.818499 84.481602 
L 116.978927 85.079346 
L 118.139355 85.681911 
L 119.299783 86.274314 
L 120.460211 86.857097 
L 121.620638 87.588527 
L 122.781066 88.363959 
L 123.941494 89.085676 
L 125.101922 89.682388 
L 126.26235 90.318621 
L 127.422777 90.844558 
L 128.583205 91.639973 
L 129.743633 92.385425 
L 130.904061 93.296159 
L 132.064489 94.187854 
L 133.224916 95.074854 
L 134.385344 95.610595 
L 135.545772 96.628931 
L 136.7062 97.254929 
L 137.866628 98.171323 
L 139.027055 99.031328 
L 140.187483 99.872674 
L 141.347911 100.567714 
L 142.508339 101.823831 
L 143.668767 102.716321 
L 144.829195 103.968609 
L 145.989622 105.285808 
L 147.15005 106.062583 
L 148.310478 106.866611 
L 149.470906 107.923813 
L 150.631334 108.889566 
L 151.791761 110.429159 
L 152.952189 111.146894 
L 154.112617 112.22014 
L 155.273045 113.51107 
L 156.433473 114.455903 
L 157.5939 115.81225 
L 158.754328 117.062892 
L 159.914756 118.025853 
L 161.075184 119.285861 
L 162.235612 120.99354 
L 163.396039 122.053729 
L 164.556467 123.042604 
L 165.716895 124.342171 
L 166.877323 125.814187 
L 168.037751 127.0018 
L 169.198178 128.168686 
L 170.358606 129.019772 
L 171.519034 130.007813 
L 172.679462 130.652284 
L 173.83989 131.259075 
L 175.000318 131.901644 
L 176.160745 132.768798 
L 177.321173 133.659245 
L 178.481601 134.506564 
L 179.642029 135.216494 
L 180.802457 135.686162 
L 181.962884 136.462113 
L 183.123312 137.239553 
L 184.28374 137.97814 
L 185.444168 138.656876 
L 186.604596 139.669622 
L 187.765023 140.081967 
L 188.925451 141.103551 
L 190.085879 142.373186 
L 191.246307 143.357984 
L 192.406735 144.683909 
L 193.567162 145.480337 
L 194.72759 146.557382 
L 195.888018 147.360281 
L 197.048446 147.658756 
L 198.208874 148.319483 
L 199.369301 148.902831 
L 200.529729 149.584237 
L 201.690157 150.671045 
L 202.850585 151.813588 
L 204.011013 152.363713 
L 205.171441 153.005928 
L 206.331868 154.095296 
L 207.492296 154.502238 
L 208.652724 155.562957 
L 209.813152 156.939457 
L 210.97358 157.362772 
L 212.134007 158.385642 
L 213.294435 161.911241 
L 214.454863 162.711309 
L 215.615291 163.098087 
L 216.775719 164.081046 
L 217.936146 165.508533 
L 219.096574 166.488551 
L 220.257002 168.083723 
L 221.41743 170.251007 
L 222.577858 180.704519 
L 223.738285 182.382483 
L 224.898713 188.163616 
L 226.059141 228.039249 
L 227.219569 436.911153 
L 228.379997 508.437691 
L 229.540424 1249.958012 
L 230.700852 28517.860219 
L 230.700852 28517.860219 
L 230.700852 28517.860219 
L 229.540424 944.629657 
L 228.379997 139.859597 
L 227.219569 117.385574 
L 226.059141 113.555112 
L 224.898713 108.47371 
L 223.738285 107.455338 
L 222.577858 106.791494 
L 221.41743 105.049001 
L 220.257002 104.310974 
L 219.096574 102.904812 
L 217.936146 102.401943 
L 216.775719 101.917393 
L 215.615291 101.471599 
L 214.454863 100.933338 
L 213.294435 100.311361 
L 212.134007 99.822468 
L 210.97358 99.428549 
L 209.813152 99.055997 
L 208.652724 98.616361 
L 207.492296 98.198089 
L 206.331868 97.85097 
L 205.171441 97.274932 
L 204.011013 96.67433 
L 202.850585 96.326715 
L 201.690157 95.880988 
L 200.529729 95.388804 
L 199.369301 95.10093 
L 198.208874 94.746372 
L 197.048446 94.29263 
L 195.888018 93.891362 
L 194.72759 93.37491 
L 193.567162 93.042852 
L 192.406735 92.725365 
L 191.246307 92.437674 
L 190.085879 92.117817 
L 188.925451 91.785932 
L 187.765023 91.414333 
L 186.604596 90.975099 
L 185.444168 90.615686 
L 184.28374 90.158637 
L 183.123312 89.895482 
L 181.962884 89.478303 
L 180.802457 89.147177 
L 179.642029 88.790549 
L 178.481601 88.267779 
L 177.321173 87.878429 
L 176.160745 87.525741 
L 175.000318 87.0631 
L 173.83989 86.573144 
L 172.679462 86.229082 
L 171.519034 85.796041 
L 170.358606 85.444398 
L 169.198178 85.110633 
L 168.037751 84.829173 
L 166.877323 84.465783 
L 165.716895 84.04306 
L 164.556467 83.747486 
L 163.396039 83.30297 
L 162.235612 82.955635 
L 161.075184 82.591614 
L 159.914756 82.140717 
L 158.754328 81.738723 
L 157.5939 81.398149 
L 156.433473 81.000171 
L 155.273045 80.677111 
L 154.112617 80.330729 
L 152.952189 79.8469 
L 151.791761 79.428565 
L 150.631334 79.127612 
L 149.470906 78.652601 
L 148.310478 78.338544 
L 147.15005 78.079277 
L 145.989622 77.716847 
L 144.829195 77.365069 
L 143.668767 77.035655 
L 142.508339 76.752222 
L 141.347911 76.516633 
L 140.187483 76.274217 
L 139.027055 76.015664 
L 137.866628 75.762932 
L 136.7062 75.524151 
L 135.545772 75.20768 
L 134.385344 74.939266 
L 133.224916 74.696931 
L 132.064489 74.502917 
L 130.904061 74.259114 
L 129.743633 74.00577 
L 128.583205 73.776214 
L 127.422777 73.548967 
L 126.26235 73.313629 
L 125.101922 73.090066 
L 123.941494 72.85494 
L 122.781066 72.607665 
L 121.620638 72.354573 
L 120.460211 72.071609 
L 119.299783 71.813246 
L 118.139355 71.553243 
L 116.978927 71.287325 
L 115.818499 71.033745 
L 114.658072 70.795858 
L 113.497644 70.532297 
L 112.337216 70.288614 
L 111.176788 70.038033 
L 110.01636 69.790931 
L 108.855932 69.553383 
L 107.695505 69.353156 
L 106.535077 69.099893 
L 105.374649 68.833706 
L 104.214221 68.609009 
L 103.053793 68.35792 
L 101.893366 68.090591 
L 100.732938 67.832844 
L 99.57251 67.567064 
L 98.412082 67.313731 
L 97.251654 67.098274 
L 96.091227 66.875932 
L 94.930799 66.684368 
L 93.770371 66.434129 
L 92.609943 66.242415 
L 91.449515 66.024872 
L 90.289088 65.760641 
L 89.12866 65.53796 
L 87.968232 65.31254 
L 86.807804 65.085779 
L 85.647376 64.843984 
L 84.486949 64.625931 
L 83.326521 64.421272 
L 82.166093 64.164488 
L 81.005665 63.919604 
L 79.845237 63.627545 
L 78.684809 63.399808 
L 77.524382 63.147483 
L 76.363954 62.918051 
L 75.203526 62.689516 
L 74.043098 62.406564 
L 72.88267 62.146896 
L 71.722243 61.92403 
L 70.561815 61.654851 
L 69.401387 61.369449 
L 68.240959 61.078406 
L 67.080531 60.705945 
L 65.920104 60.363675 
L 64.759676 59.953335 
L 63.599248 59.513859 
L 62.43882 58.979685 
L 61.278392 58.351449 
L 60.117965 57.46808 
L 58.957537 56.356029 
L 57.797109 54.708742 
L 56.636681 53.025125 
L 55.476253 50.190105 
L 54.315826 46.476894 
L 53.155398 38.717007 
z
" style="fill:#ff2c00;fill-opacity:0.15;"/>
   </g>
   <g id="PolyCollection_5">
    <path clip-path="url(#pd85986ecb9)" d="M 53.155398 2.213581 
L 53.155398 7.426671 
L 54.315826 11.756963 
L 55.476253 15.674418 
L 56.636681 18.513401 
L 57.797109 21.63203 
L 58.957537 24.188511 
L 60.117965 26.292065 
L 61.278392 28.039783 
L 62.43882 29.911733 
L 63.599248 31.927322 
L 64.759676 33.601297 
L 65.920104 34.651493 
L 67.080531 35.467941 
L 68.240959 36.150217 
L 69.401387 36.768054 
L 70.561815 37.250353 
L 71.722243 37.654381 
L 72.88267 38.01228 
L 74.043098 38.376554 
L 75.203526 38.72282 
L 76.363954 38.917121 
L 77.524382 39.121555 
L 78.684809 39.317269 
L 79.845237 39.450977 
L 81.005665 39.570066 
L 82.166093 39.658962 
L 83.326521 39.785896 
L 84.486949 39.90321 
L 85.647376 39.999934 
L 86.807804 40.092368 
L 87.968232 40.194606 
L 89.12866 40.283576 
L 90.289088 40.381563 
L 91.449515 40.459397 
L 92.609943 40.542009 
L 93.770371 40.624402 
L 94.930799 40.704868 
L 96.091227 40.780854 
L 97.251654 40.840606 
L 98.412082 40.902976 
L 99.57251 40.97899 
L 100.732938 41.05744 
L 101.893366 41.133348 
L 103.053793 41.195089 
L 104.214221 41.259722 
L 105.374649 41.331412 
L 106.535077 41.394728 
L 107.695505 41.458202 
L 108.855932 41.522331 
L 110.01636 41.586042 
L 111.176788 41.647065 
L 112.337216 41.722247 
L 113.497644 41.794801 
L 114.658072 41.855409 
L 115.818499 41.910324 
L 116.978927 41.98388 
L 118.139355 42.044696 
L 119.299783 42.114049 
L 120.460211 42.165612 
L 121.620638 42.217228 
L 122.781066 42.2965 
L 123.941494 42.365928 
L 125.101922 42.425275 
L 126.26235 42.487777 
L 127.422777 42.563095 
L 128.583205 42.62766 
L 129.743633 42.678001 
L 130.904061 42.737219 
L 132.064489 42.793002 
L 133.224916 42.85024 
L 134.385344 42.899257 
L 135.545772 42.957704 
L 136.7062 43.022648 
L 137.866628 43.090445 
L 139.027055 43.154938 
L 140.187483 43.236882 
L 141.347911 43.321769 
L 142.508339 43.387212 
L 143.668767 43.467472 
L 144.829195 43.534121 
L 145.989622 43.617578 
L 147.15005 43.684203 
L 148.310478 43.763365 
L 149.470906 43.834633 
L 150.631334 43.903793 
L 151.791761 43.96903 
L 152.952189 44.040776 
L 154.112617 44.111005 
L 155.273045 44.182697 
L 156.433473 44.25404 
L 157.5939 44.337378 
L 158.754328 44.430417 
L 159.914756 44.50263 
L 161.075184 44.576704 
L 162.235612 44.667838 
L 163.396039 44.765235 
L 164.556467 44.870546 
L 165.716895 44.947153 
L 166.877323 45.05292 
L 168.037751 45.160455 
L 169.198178 45.261258 
L 170.358606 45.359959 
L 171.519034 45.442355 
L 172.679462 45.544112 
L 173.83989 45.652979 
L 175.000318 45.752968 
L 176.160745 45.83311 
L 177.321173 45.930476 
L 178.481601 46.01754 
L 179.642029 46.108754 
L 180.802457 46.205855 
L 181.962884 46.294269 
L 183.123312 46.394782 
L 184.28374 46.476791 
L 185.444168 46.582005 
L 186.604596 46.668638 
L 187.765023 46.770918 
L 188.925451 46.859423 
L 190.085879 46.957371 
L 191.246307 47.049153 
L 192.406735 47.171073 
L 193.567162 47.26414 
L 194.72759 47.372893 
L 195.888018 47.474568 
L 197.048446 47.568191 
L 198.208874 47.657449 
L 199.369301 47.768055 
L 200.529729 47.883931 
L 201.690157 47.988756 
L 202.850585 48.119286 
L 204.011013 48.244083 
L 205.171441 48.359945 
L 206.331868 48.484247 
L 207.492296 48.606754 
L 208.652724 48.778382 
L 209.813152 48.941178 
L 210.97358 49.105706 
L 212.134007 49.262488 
L 213.294435 49.44364 
L 214.454863 49.688701 
L 215.615291 49.925748 
L 216.775719 50.170572 
L 217.936146 50.445345 
L 219.096574 50.74716 
L 220.257002 51.085913 
L 221.41743 51.469044 
L 222.577858 52.116514 
L 223.738285 52.813464 
L 224.898713 53.626819 
L 226.059141 55.317898 
L 227.219569 57.879316 
L 228.379997 64.706802 
L 229.540424 114.608393 
L 230.700852 28517.860219 
L 230.700852 28517.860219 
L 230.700852 28517.860219 
L 229.540424 112.240543 
L 228.379997 60.553464 
L 227.219569 53.540152 
L 226.059141 50.882554 
L 224.898713 49.410238 
L 223.738285 48.712289 
L 222.577858 47.966446 
L 221.41743 47.353653 
L 220.257002 46.939303 
L 219.096574 46.636048 
L 217.936146 46.361168 
L 216.775719 46.13861 
L 215.615291 45.916242 
L 214.454863 45.706625 
L 213.294435 45.526881 
L 212.134007 45.351161 
L 210.97358 45.196065 
L 209.813152 45.066177 
L 208.652724 44.94212 
L 207.492296 44.806309 
L 206.331868 44.649726 
L 205.171441 44.528909 
L 204.011013 44.413175 
L 202.850585 44.294368 
L 201.690157 44.164344 
L 200.529729 44.045704 
L 199.369301 43.951086 
L 198.208874 43.872019 
L 197.048446 43.772713 
L 195.888018 43.670956 
L 194.72759 43.583101 
L 193.567162 43.50107 
L 192.406735 43.409122 
L 191.246307 43.301544 
L 190.085879 43.202713 
L 188.925451 43.104171 
L 187.765023 43.006425 
L 186.604596 42.91139 
L 185.444168 42.793743 
L 184.28374 42.708333 
L 183.123312 42.587698 
L 181.962884 42.496565 
L 180.802457 42.402924 
L 179.642029 42.31047 
L 178.481601 42.20567 
L 177.321173 42.124931 
L 176.160745 42.038757 
L 175.000318 41.941489 
L 173.83989 41.830551 
L 172.679462 41.73743 
L 171.519034 41.629316 
L 170.358606 41.531416 
L 169.198178 41.430254 
L 168.037751 41.323594 
L 166.877323 41.220302 
L 165.716895 41.136036 
L 164.556467 41.010982 
L 163.396039 40.919197 
L 162.235612 40.823952 
L 161.075184 40.726766 
L 159.914756 40.614591 
L 158.754328 40.505819 
L 157.5939 40.415734 
L 156.433473 40.341042 
L 155.273045 40.245401 
L 154.112617 40.156728 
L 152.952189 40.070285 
L 151.791761 39.992297 
L 150.631334 39.91611 
L 149.470906 39.82263 
L 148.310478 39.748182 
L 147.15005 39.662926 
L 145.989622 39.589036 
L 144.829195 39.505126 
L 143.668767 39.436725 
L 142.508339 39.368415 
L 141.347911 39.289289 
L 140.187483 39.208302 
L 139.027055 39.118405 
L 137.866628 39.039036 
L 136.7062 38.965647 
L 135.545772 38.90159 
L 134.385344 38.839186 
L 133.224916 38.777524 
L 132.064489 38.710725 
L 130.904061 38.649485 
L 129.743633 38.588939 
L 128.583205 38.524722 
L 127.422777 38.451588 
L 126.26235 38.375376 
L 125.101922 38.306339 
L 123.941494 38.245513 
L 122.781066 38.187384 
L 121.620638 38.118053 
L 120.460211 38.052528 
L 119.299783 37.980201 
L 118.139355 37.921891 
L 116.978927 37.861414 
L 115.818499 37.802291 
L 114.658072 37.732493 
L 113.497644 37.673457 
L 112.337216 37.603743 
L 111.176788 37.533117 
L 110.01636 37.474697 
L 108.855932 37.410274 
L 107.695505 37.346535 
L 106.535077 37.27845 
L 105.374649 37.216966 
L 104.214221 37.146735 
L 103.053793 37.084539 
L 101.893366 37.031751 
L 100.732938 36.957257 
L 99.57251 36.899013 
L 98.412082 36.81804 
L 97.251654 36.753944 
L 96.091227 36.677847 
L 94.930799 36.615304 
L 93.770371 36.545153 
L 92.609943 36.460552 
L 91.449515 36.393435 
L 90.289088 36.30779 
L 89.12866 36.212028 
L 87.968232 36.134119 
L 86.807804 36.04464 
L 85.647376 35.958501 
L 84.486949 35.855463 
L 83.326521 35.739155 
L 82.166093 35.627567 
L 81.005665 35.522196 
L 79.845237 35.382095 
L 78.684809 35.245808 
L 77.524382 35.065309 
L 76.363954 34.904401 
L 75.203526 34.670042 
L 74.043098 34.378001 
L 72.88267 34.057494 
L 71.722243 33.647149 
L 70.561815 33.2486 
L 69.401387 32.808678 
L 68.240959 32.113591 
L 67.080531 31.473588 
L 65.920104 30.839355 
L 64.759676 29.788755 
L 63.599248 27.908272 
L 62.43882 25.896528 
L 61.278392 23.911357 
L 60.117965 22.079734 
L 58.957537 19.819712 
L 57.797109 17.206528 
L 56.636681 13.969418 
L 55.476253 10.952159 
L 54.315826 6.727444 
L 53.155398 2.213581 
z
" style="fill:#845b97;fill-opacity:0.15;"/>
   </g>
   <g id="matplotlib.axis_1">
    <g id="xtick_1">
     <g id="line2d_1">
      <defs>
       <path d="M 0 0 
L 0 -3 
" id="m33c4c88703" style="stroke:#000000;stroke-width:0.5;"/>
      </defs>
      <g>
       <use style="stroke:#000000;stroke-width:0.5;" x="53.155398" xlink:href="#m33c4c88703" y="150.094219"/>
      </g>
     </g>
     <g id="line2d_2">
      <defs>
       <path d="M 0 0 
L 0 3 
" id="m4588da4203" style="stroke:#000000;stroke-width:0.5;"/>
      </defs>
      <g>
       <use style="stroke:#000000;stroke-width:0.5;" x="53.155398" xlink:href="#m4588da4203" y="7.399219"/>
      </g>
     </g>
     <g id="text_1">
      <!-- 0 -->
      <g transform="translate(49.974148 161.192656)scale(0.1 -0.1)">
       <defs>
        <path d="M 2034 4250 
Q 1547 4250 1301 3770 
Q 1056 3291 1056 2328 
Q 1056 1369 1301 889 
Q 1547 409 2034 409 
Q 2525 409 2770 889 
Q 3016 1369 3016 2328 
Q 3016 3291 2770 3770 
Q 2525 4250 2034 4250 
z
M 2034 4750 
Q 2819 4750 3233 4129 
Q 3647 3509 3647 2328 
Q 3647 1150 3233 529 
Q 2819 -91 2034 -91 
Q 1250 -91 836 529 
Q 422 1150 422 2328 
Q 422 3509 836 4129 
Q 1250 4750 2034 4750 
z
" id="DejaVuSans-30" transform="scale(0.015625)"/>
       </defs>
       <use xlink:href="#DejaVuSans-30"/>
      </g>
     </g>
    </g>
    <g id="xtick_2">
     <g id="line2d_3">
      <g>
       <use style="stroke:#000000;stroke-width:0.5;" x="111.176788" xlink:href="#m33c4c88703" y="150.094219"/>
      </g>
     </g>
     <g id="line2d_4">
      <g>
       <use style="stroke:#000000;stroke-width:0.5;" x="111.176788" xlink:href="#m4588da4203" y="7.399219"/>
      </g>
     </g>
     <g id="text_2">
      <!-- 50 -->
      <g transform="translate(104.814288 161.192656)scale(0.1 -0.1)">
       <defs>
        <path d="M 691 4666 
L 3169 4666 
L 3169 4134 
L 1269 4134 
L 1269 2991 
Q 1406 3038 1543 3061 
Q 1681 3084 1819 3084 
Q 2600 3084 3056 2656 
Q 3513 2228 3513 1497 
Q 3513 744 3044 326 
Q 2575 -91 1722 -91 
Q 1428 -91 1123 -41 
Q 819 9 494 109 
L 494 744 
Q 775 591 1075 516 
Q 1375 441 1709 441 
Q 2250 441 2565 725 
Q 2881 1009 2881 1497 
Q 2881 1984 2565 2268 
Q 2250 2553 1709 2553 
Q 1456 2553 1204 2497 
Q 953 2441 691 2322 
L 691 4666 
z
" id="DejaVuSans-35" transform="scale(0.015625)"/>
       </defs>
       <use xlink:href="#DejaVuSans-35"/>
       <use x="63.623047" xlink:href="#DejaVuSans-30"/>
      </g>
     </g>
    </g>
    <g id="xtick_3">
     <g id="line2d_5">
      <g>
       <use style="stroke:#000000;stroke-width:0.5;" x="169.198178" xlink:href="#m33c4c88703" y="150.094219"/>
      </g>
     </g>
     <g id="line2d_6">
      <g>
       <use style="stroke:#000000;stroke-width:0.5;" x="169.198178" xlink:href="#m4588da4203" y="7.399219"/>
      </g>
     </g>
     <g id="text_3">
      <!-- 100 -->
      <g transform="translate(159.654428 161.192656)scale(0.1 -0.1)">
       <defs>
        <path d="M 794 531 
L 1825 531 
L 1825 4091 
L 703 3866 
L 703 4441 
L 1819 4666 
L 2450 4666 
L 2450 531 
L 3481 531 
L 3481 0 
L 794 0 
L 794 531 
z
" id="DejaVuSans-31" transform="scale(0.015625)"/>
       </defs>
       <use xlink:href="#DejaVuSans-31"/>
       <use x="63.623047" xlink:href="#DejaVuSans-30"/>
       <use x="127.246094" xlink:href="#DejaVuSans-30"/>
      </g>
     </g>
    </g>
    <g id="xtick_4">
     <g id="line2d_7">
      <g>
       <use style="stroke:#000000;stroke-width:0.5;" x="227.219569" xlink:href="#m33c4c88703" y="150.094219"/>
      </g>
     </g>
     <g id="line2d_8">
      <g>
       <use style="stroke:#000000;stroke-width:0.5;" x="227.219569" xlink:href="#m4588da4203" y="7.399219"/>
      </g>
     </g>
     <g id="text_4">
      <!-- 150 -->
      <g transform="translate(217.675819 161.192656)scale(0.1 -0.1)">
       <use xlink:href="#DejaVuSans-31"/>
       <use x="63.623047" xlink:href="#DejaVuSans-35"/>
       <use x="127.246094" xlink:href="#DejaVuSans-30"/>
      </g>
     </g>
    </g>
    <g id="xtick_5">
     <g id="line2d_9">
      <defs>
       <path d="M 0 0 
L 0 -1.5 
" id="m0d982e696b" style="stroke:#000000;stroke-width:0.5;"/>
      </defs>
      <g>
       <use style="stroke:#000000;stroke-width:0.5;" x="64.759676" xlink:href="#m0d982e696b" y="150.094219"/>
      </g>
     </g>
     <g id="line2d_10">
      <defs>
       <path d="M 0 0 
L 0 1.5 
" id="m8b3c4e26ab" style="stroke:#000000;stroke-width:0.5;"/>
      </defs>
      <g>
       <use style="stroke:#000000;stroke-width:0.5;" x="64.759676" xlink:href="#m8b3c4e26ab" y="7.399219"/>
      </g>
     </g>
    </g>
    <g id="xtick_6">
     <g id="line2d_11">
      <g>
       <use style="stroke:#000000;stroke-width:0.5;" x="76.363954" xlink:href="#m0d982e696b" y="150.094219"/>
      </g>
     </g>
     <g id="line2d_12">
      <g>
       <use style="stroke:#000000;stroke-width:0.5;" x="76.363954" xlink:href="#m8b3c4e26ab" y="7.399219"/>
      </g>
     </g>
    </g>
    <g id="xtick_7">
     <g id="line2d_13">
      <g>
       <use style="stroke:#000000;stroke-width:0.5;" x="87.968232" xlink:href="#m0d982e696b" y="150.094219"/>
      </g>
     </g>
     <g id="line2d_14">
      <g>
       <use style="stroke:#000000;stroke-width:0.5;" x="87.968232" xlink:href="#m8b3c4e26ab" y="7.399219"/>
      </g>
     </g>
    </g>
    <g id="xtick_8">
     <g id="line2d_15">
      <g>
       <use style="stroke:#000000;stroke-width:0.5;" x="99.57251" xlink:href="#m0d982e696b" y="150.094219"/>
      </g>
     </g>
     <g id="line2d_16">
      <g>
       <use style="stroke:#000000;stroke-width:0.5;" x="99.57251" xlink:href="#m8b3c4e26ab" y="7.399219"/>
      </g>
     </g>
    </g>
    <g id="xtick_9">
     <g id="line2d_17">
      <g>
       <use style="stroke:#000000;stroke-width:0.5;" x="122.781066" xlink:href="#m0d982e696b" y="150.094219"/>
      </g>
     </g>
     <g id="line2d_18">
      <g>
       <use style="stroke:#000000;stroke-width:0.5;" x="122.781066" xlink:href="#m8b3c4e26ab" y="7.399219"/>
      </g>
     </g>
    </g>
    <g id="xtick_10">
     <g id="line2d_19">
      <g>
       <use style="stroke:#000000;stroke-width:0.5;" x="134.385344" xlink:href="#m0d982e696b" y="150.094219"/>
      </g>
     </g>
     <g id="line2d_20">
      <g>
       <use style="stroke:#000000;stroke-width:0.5;" x="134.385344" xlink:href="#m8b3c4e26ab" y="7.399219"/>
      </g>
     </g>
    </g>
    <g id="xtick_11">
     <g id="line2d_21">
      <g>
       <use style="stroke:#000000;stroke-width:0.5;" x="145.989622" xlink:href="#m0d982e696b" y="150.094219"/>
      </g>
     </g>
     <g id="line2d_22">
      <g>
       <use style="stroke:#000000;stroke-width:0.5;" x="145.989622" xlink:href="#m8b3c4e26ab" y="7.399219"/>
      </g>
     </g>
    </g>
    <g id="xtick_12">
     <g id="line2d_23">
      <g>
       <use style="stroke:#000000;stroke-width:0.5;" x="157.5939" xlink:href="#m0d982e696b" y="150.094219"/>
      </g>
     </g>
     <g id="line2d_24">
      <g>
       <use style="stroke:#000000;stroke-width:0.5;" x="157.5939" xlink:href="#m8b3c4e26ab" y="7.399219"/>
      </g>
     </g>
    </g>
    <g id="xtick_13">
     <g id="line2d_25">
      <g>
       <use style="stroke:#000000;stroke-width:0.5;" x="180.802457" xlink:href="#m0d982e696b" y="150.094219"/>
      </g>
     </g>
     <g id="line2d_26">
      <g>
       <use style="stroke:#000000;stroke-width:0.5;" x="180.802457" xlink:href="#m8b3c4e26ab" y="7.399219"/>
      </g>
     </g>
    </g>
    <g id="xtick_14">
     <g id="line2d_27">
      <g>
       <use style="stroke:#000000;stroke-width:0.5;" x="192.406735" xlink:href="#m0d982e696b" y="150.094219"/>
      </g>
     </g>
     <g id="line2d_28">
      <g>
       <use style="stroke:#000000;stroke-width:0.5;" x="192.406735" xlink:href="#m8b3c4e26ab" y="7.399219"/>
      </g>
     </g>
    </g>
    <g id="xtick_15">
     <g id="line2d_29">
      <g>
       <use style="stroke:#000000;stroke-width:0.5;" x="204.011013" xlink:href="#m0d982e696b" y="150.094219"/>
      </g>
     </g>
     <g id="line2d_30">
      <g>
       <use style="stroke:#000000;stroke-width:0.5;" x="204.011013" xlink:href="#m8b3c4e26ab" y="7.399219"/>
      </g>
     </g>
    </g>
    <g id="xtick_16">
     <g id="line2d_31">
      <g>
       <use style="stroke:#000000;stroke-width:0.5;" x="215.615291" xlink:href="#m0d982e696b" y="150.094219"/>
      </g>
     </g>
     <g id="line2d_32">
      <g>
       <use style="stroke:#000000;stroke-width:0.5;" x="215.615291" xlink:href="#m8b3c4e26ab" y="7.399219"/>
      </g>
     </g>
    </g>
    <g id="xtick_17">
     <g id="line2d_33">
      <g>
       <use style="stroke:#000000;stroke-width:0.5;" x="238.823847" xlink:href="#m0d982e696b" y="150.094219"/>
      </g>
     </g>
     <g id="line2d_34">
      <g>
       <use style="stroke:#000000;stroke-width:0.5;" x="238.823847" xlink:href="#m8b3c4e26ab" y="7.399219"/>
      </g>
     </g>
    </g>
    <g id="text_5">
     <!-- # Magnets -->
     <g transform="translate(114.786719 174.870781)scale(0.1 -0.1)">
      <defs>
       <path d="M 3272 2816 
L 2363 2816 
L 2100 1772 
L 3016 1772 
L 3272 2816 
z
M 2803 4594 
L 2478 3297 
L 3391 3297 
L 3719 4594 
L 4219 4594 
L 3897 3297 
L 4872 3297 
L 4872 2816 
L 3775 2816 
L 3519 1772 
L 4513 1772 
L 4513 1294 
L 3397 1294 
L 3072 0 
L 2572 0 
L 2894 1294 
L 1978 1294 
L 1656 0 
L 1153 0 
L 1478 1294 
L 494 1294 
L 494 1772 
L 1594 1772 
L 1856 2816 
L 850 2816 
L 850 3297 
L 1978 3297 
L 2297 4594 
L 2803 4594 
z
" id="DejaVuSans-23" transform="scale(0.015625)"/>
       <path id="DejaVuSans-20" transform="scale(0.015625)"/>
       <path d="M 628 4666 
L 1569 4666 
L 2759 1491 
L 3956 4666 
L 4897 4666 
L 4897 0 
L 4281 0 
L 4281 4097 
L 3078 897 
L 2444 897 
L 1241 4097 
L 1241 0 
L 628 0 
L 628 4666 
z
" id="DejaVuSans-4d" transform="scale(0.015625)"/>
       <path d="M 2194 1759 
Q 1497 1759 1228 1600 
Q 959 1441 959 1056 
Q 959 750 1161 570 
Q 1363 391 1709 391 
Q 2188 391 2477 730 
Q 2766 1069 2766 1631 
L 2766 1759 
L 2194 1759 
z
M 3341 1997 
L 3341 0 
L 2766 0 
L 2766 531 
Q 2569 213 2275 61 
Q 1981 -91 1556 -91 
Q 1019 -91 701 211 
Q 384 513 384 1019 
Q 384 1609 779 1909 
Q 1175 2209 1959 2209 
L 2766 2209 
L 2766 2266 
Q 2766 2663 2505 2880 
Q 2244 3097 1772 3097 
Q 1472 3097 1187 3025 
Q 903 2953 641 2809 
L 641 3341 
Q 956 3463 1253 3523 
Q 1550 3584 1831 3584 
Q 2591 3584 2966 3190 
Q 3341 2797 3341 1997 
z
" id="DejaVuSans-61" transform="scale(0.015625)"/>
       <path d="M 2906 1791 
Q 2906 2416 2648 2759 
Q 2391 3103 1925 3103 
Q 1463 3103 1205 2759 
Q 947 2416 947 1791 
Q 947 1169 1205 825 
Q 1463 481 1925 481 
Q 2391 481 2648 825 
Q 2906 1169 2906 1791 
z
M 3481 434 
Q 3481 -459 3084 -895 
Q 2688 -1331 1869 -1331 
Q 1566 -1331 1297 -1286 
Q 1028 -1241 775 -1147 
L 775 -588 
Q 1028 -725 1275 -790 
Q 1522 -856 1778 -856 
Q 2344 -856 2625 -561 
Q 2906 -266 2906 331 
L 2906 616 
Q 2728 306 2450 153 
Q 2172 0 1784 0 
Q 1141 0 747 490 
Q 353 981 353 1791 
Q 353 2603 747 3093 
Q 1141 3584 1784 3584 
Q 2172 3584 2450 3431 
Q 2728 3278 2906 2969 
L 2906 3500 
L 3481 3500 
L 3481 434 
z
" id="DejaVuSans-67" transform="scale(0.015625)"/>
       <path d="M 3513 2113 
L 3513 0 
L 2938 0 
L 2938 2094 
Q 2938 2591 2744 2837 
Q 2550 3084 2163 3084 
Q 1697 3084 1428 2787 
Q 1159 2491 1159 1978 
L 1159 0 
L 581 0 
L 581 3500 
L 1159 3500 
L 1159 2956 
Q 1366 3272 1645 3428 
Q 1925 3584 2291 3584 
Q 2894 3584 3203 3211 
Q 3513 2838 3513 2113 
z
" id="DejaVuSans-6e" transform="scale(0.015625)"/>
       <path d="M 3597 1894 
L 3597 1613 
L 953 1613 
Q 991 1019 1311 708 
Q 1631 397 2203 397 
Q 2534 397 2845 478 
Q 3156 559 3463 722 
L 3463 178 
Q 3153 47 2828 -22 
Q 2503 -91 2169 -91 
Q 1331 -91 842 396 
Q 353 884 353 1716 
Q 353 2575 817 3079 
Q 1281 3584 2069 3584 
Q 2775 3584 3186 3129 
Q 3597 2675 3597 1894 
z
M 3022 2063 
Q 3016 2534 2758 2815 
Q 2500 3097 2075 3097 
Q 1594 3097 1305 2825 
Q 1016 2553 972 2059 
L 3022 2063 
z
" id="DejaVuSans-65" transform="scale(0.015625)"/>
       <path d="M 1172 4494 
L 1172 3500 
L 2356 3500 
L 2356 3053 
L 1172 3053 
L 1172 1153 
Q 1172 725 1289 603 
Q 1406 481 1766 481 
L 2356 481 
L 2356 0 
L 1766 0 
Q 1100 0 847 248 
Q 594 497 594 1153 
L 594 3053 
L 172 3053 
L 172 3500 
L 594 3500 
L 594 4494 
L 1172 4494 
z
" id="DejaVuSans-74" transform="scale(0.015625)"/>
       <path d="M 2834 3397 
L 2834 2853 
Q 2591 2978 2328 3040 
Q 2066 3103 1784 3103 
Q 1356 3103 1142 2972 
Q 928 2841 928 2578 
Q 928 2378 1081 2264 
Q 1234 2150 1697 2047 
L 1894 2003 
Q 2506 1872 2764 1633 
Q 3022 1394 3022 966 
Q 3022 478 2636 193 
Q 2250 -91 1575 -91 
Q 1294 -91 989 -36 
Q 684 19 347 128 
L 347 722 
Q 666 556 975 473 
Q 1284 391 1588 391 
Q 1994 391 2212 530 
Q 2431 669 2431 922 
Q 2431 1156 2273 1281 
Q 2116 1406 1581 1522 
L 1381 1569 
Q 847 1681 609 1914 
Q 372 2147 372 2553 
Q 372 3047 722 3315 
Q 1072 3584 1716 3584 
Q 2034 3584 2315 3537 
Q 2597 3491 2834 3397 
z
" id="DejaVuSans-73" transform="scale(0.015625)"/>
      </defs>
      <use xlink:href="#DejaVuSans-23"/>
      <use x="83.789062" xlink:href="#DejaVuSans-20"/>
      <use x="115.576172" xlink:href="#DejaVuSans-4d"/>
      <use x="201.855469" xlink:href="#DejaVuSans-61"/>
      <use x="263.134766" xlink:href="#DejaVuSans-67"/>
      <use x="326.611328" xlink:href="#DejaVuSans-6e"/>
      <use x="389.990234" xlink:href="#DejaVuSans-65"/>
      <use x="451.513672" xlink:href="#DejaVuSans-74"/>
      <use x="490.722656" xlink:href="#DejaVuSans-73"/>
     </g>
    </g>
   </g>
   <g id="matplotlib.axis_2">
    <g id="ytick_1">
     <g id="line2d_35">
      <defs>
       <path d="M 0 0 
L 3 0 
" id="m8fa8e32e6e" style="stroke:#000000;stroke-width:0.5;"/>
      </defs>
      <g>
       <use style="stroke:#000000;stroke-width:0.5;" x="44.278125" xlink:href="#m8fa8e32e6e" y="150.094219"/>
      </g>
     </g>
     <g id="line2d_36">
      <defs>
       <path d="M 0 0 
L -3 0 
" id="m2bd1e30bcd" style="stroke:#000000;stroke-width:0.5;"/>
      </defs>
      <g>
       <use style="stroke:#000000;stroke-width:0.5;" x="239.578125" xlink:href="#m2bd1e30bcd" y="150.094219"/>
      </g>
     </g>
     <g id="text_6">
      <!-- $\mathdefault{10^{-6}}$ -->
      <g transform="translate(17.278125 153.893437)scale(0.1 -0.1)">
       <defs>
        <path d="M 678 2272 
L 4684 2272 
L 4684 1741 
L 678 1741 
L 678 2272 
z
" id="DejaVuSans-2212" transform="scale(0.015625)"/>
        <path d="M 2113 2584 
Q 1688 2584 1439 2293 
Q 1191 2003 1191 1497 
Q 1191 994 1439 701 
Q 1688 409 2113 409 
Q 2538 409 2786 701 
Q 3034 994 3034 1497 
Q 3034 2003 2786 2293 
Q 2538 2584 2113 2584 
z
M 3366 4563 
L 3366 3988 
Q 3128 4100 2886 4159 
Q 2644 4219 2406 4219 
Q 1781 4219 1451 3797 
Q 1122 3375 1075 2522 
Q 1259 2794 1537 2939 
Q 1816 3084 2150 3084 
Q 2853 3084 3261 2657 
Q 3669 2231 3669 1497 
Q 3669 778 3244 343 
Q 2819 -91 2113 -91 
Q 1303 -91 875 529 
Q 447 1150 447 2328 
Q 447 3434 972 4092 
Q 1497 4750 2381 4750 
Q 2619 4750 2861 4703 
Q 3103 4656 3366 4563 
z
" id="DejaVuSans-36" transform="scale(0.015625)"/>
       </defs>
       <use transform="translate(0 0.765625)" xlink:href="#DejaVuSans-31"/>
       <use transform="translate(63.623047 0.765625)" xlink:href="#DejaVuSans-30"/>
       <use transform="translate(128.203125 39.046875)scale(0.7)" xlink:href="#DejaVuSans-2212"/>
       <use transform="translate(186.855469 39.046875)scale(0.7)" xlink:href="#DejaVuSans-36"/>
      </g>
     </g>
    </g>
    <g id="ytick_2">
     <g id="line2d_37">
      <g>
       <use style="stroke:#000000;stroke-width:0.5;" x="44.278125" xlink:href="#m8fa8e32e6e" y="121.555219"/>
      </g>
     </g>
     <g id="line2d_38">
      <g>
       <use style="stroke:#000000;stroke-width:0.5;" x="239.578125" xlink:href="#m2bd1e30bcd" y="121.555219"/>
      </g>
     </g>
     <g id="text_7">
      <!-- $\mathdefault{10^{-5}}$ -->
      <g transform="translate(17.278125 125.354437)scale(0.1 -0.1)">
       <use transform="translate(0 0.684375)" xlink:href="#DejaVuSans-31"/>
       <use transform="translate(63.623047 0.684375)" xlink:href="#DejaVuSans-30"/>
       <use transform="translate(128.203125 38.965625)scale(0.7)" xlink:href="#DejaVuSans-2212"/>
       <use transform="translate(186.855469 38.965625)scale(0.7)" xlink:href="#DejaVuSans-35"/>
      </g>
     </g>
    </g>
    <g id="ytick_3">
     <g id="line2d_39">
      <g>
       <use style="stroke:#000000;stroke-width:0.5;" x="44.278125" xlink:href="#m8fa8e32e6e" y="93.016219"/>
      </g>
     </g>
     <g id="line2d_40">
      <g>
       <use style="stroke:#000000;stroke-width:0.5;" x="239.578125" xlink:href="#m2bd1e30bcd" y="93.016219"/>
      </g>
     </g>
     <g id="text_8">
      <!-- $\mathdefault{10^{-4}}$ -->
      <g transform="translate(17.278125 96.815437)scale(0.1 -0.1)">
       <defs>
        <path d="M 2419 4116 
L 825 1625 
L 2419 1625 
L 2419 4116 
z
M 2253 4666 
L 3047 4666 
L 3047 1625 
L 3713 1625 
L 3713 1100 
L 3047 1100 
L 3047 0 
L 2419 0 
L 2419 1100 
L 313 1100 
L 313 1709 
L 2253 4666 
z
" id="DejaVuSans-34" transform="scale(0.015625)"/>
       </defs>
       <use transform="translate(0 0.684375)" xlink:href="#DejaVuSans-31"/>
       <use transform="translate(63.623047 0.684375)" xlink:href="#DejaVuSans-30"/>
       <use transform="translate(128.203125 38.965625)scale(0.7)" xlink:href="#DejaVuSans-2212"/>
       <use transform="translate(186.855469 38.965625)scale(0.7)" xlink:href="#DejaVuSans-34"/>
      </g>
     </g>
    </g>
    <g id="ytick_4">
     <g id="line2d_41">
      <g>
       <use style="stroke:#000000;stroke-width:0.5;" x="44.278125" xlink:href="#m8fa8e32e6e" y="64.477219"/>
      </g>
     </g>
     <g id="line2d_42">
      <g>
       <use style="stroke:#000000;stroke-width:0.5;" x="239.578125" xlink:href="#m2bd1e30bcd" y="64.477219"/>
      </g>
     </g>
     <g id="text_9">
      <!-- $\mathdefault{10^{-3}}$ -->
      <g transform="translate(17.278125 68.276437)scale(0.1 -0.1)">
       <defs>
        <path d="M 2597 2516 
Q 3050 2419 3304 2112 
Q 3559 1806 3559 1356 
Q 3559 666 3084 287 
Q 2609 -91 1734 -91 
Q 1441 -91 1130 -33 
Q 819 25 488 141 
L 488 750 
Q 750 597 1062 519 
Q 1375 441 1716 441 
Q 2309 441 2620 675 
Q 2931 909 2931 1356 
Q 2931 1769 2642 2001 
Q 2353 2234 1838 2234 
L 1294 2234 
L 1294 2753 
L 1863 2753 
Q 2328 2753 2575 2939 
Q 2822 3125 2822 3475 
Q 2822 3834 2567 4026 
Q 2313 4219 1838 4219 
Q 1578 4219 1281 4162 
Q 984 4106 628 3988 
L 628 4550 
Q 988 4650 1302 4700 
Q 1616 4750 1894 4750 
Q 2613 4750 3031 4423 
Q 3450 4097 3450 3541 
Q 3450 3153 3228 2886 
Q 3006 2619 2597 2516 
z
" id="DejaVuSans-33" transform="scale(0.015625)"/>
       </defs>
       <use transform="translate(0 0.765625)" xlink:href="#DejaVuSans-31"/>
       <use transform="translate(63.623047 0.765625)" xlink:href="#DejaVuSans-30"/>
       <use transform="translate(128.203125 39.046875)scale(0.7)" xlink:href="#DejaVuSans-2212"/>
       <use transform="translate(186.855469 39.046875)scale(0.7)" xlink:href="#DejaVuSans-33"/>
      </g>
     </g>
    </g>
    <g id="ytick_5">
     <g id="line2d_43">
      <g>
       <use style="stroke:#000000;stroke-width:0.5;" x="44.278125" xlink:href="#m8fa8e32e6e" y="35.938219"/>
      </g>
     </g>
     <g id="line2d_44">
      <g>
       <use style="stroke:#000000;stroke-width:0.5;" x="239.578125" xlink:href="#m2bd1e30bcd" y="35.938219"/>
      </g>
     </g>
     <g id="text_10">
      <!-- $\mathdefault{10^{-2}}$ -->
      <g transform="translate(17.278125 39.737437)scale(0.1 -0.1)">
       <defs>
        <path d="M 1228 531 
L 3431 531 
L 3431 0 
L 469 0 
L 469 531 
Q 828 903 1448 1529 
Q 2069 2156 2228 2338 
Q 2531 2678 2651 2914 
Q 2772 3150 2772 3378 
Q 2772 3750 2511 3984 
Q 2250 4219 1831 4219 
Q 1534 4219 1204 4116 
Q 875 4013 500 3803 
L 500 4441 
Q 881 4594 1212 4672 
Q 1544 4750 1819 4750 
Q 2544 4750 2975 4387 
Q 3406 4025 3406 3419 
Q 3406 3131 3298 2873 
Q 3191 2616 2906 2266 
Q 2828 2175 2409 1742 
Q 1991 1309 1228 531 
z
" id="DejaVuSans-32" transform="scale(0.015625)"/>
       </defs>
       <use transform="translate(0 0.765625)" xlink:href="#DejaVuSans-31"/>
       <use transform="translate(63.623047 0.765625)" xlink:href="#DejaVuSans-30"/>
       <use transform="translate(128.203125 39.046875)scale(0.7)" xlink:href="#DejaVuSans-2212"/>
       <use transform="translate(186.855469 39.046875)scale(0.7)" xlink:href="#DejaVuSans-32"/>
      </g>
     </g>
    </g>
    <g id="ytick_6">
     <g id="line2d_45">
      <g>
       <use style="stroke:#000000;stroke-width:0.5;" x="44.278125" xlink:href="#m8fa8e32e6e" y="7.399219"/>
      </g>
     </g>
     <g id="line2d_46">
      <g>
       <use style="stroke:#000000;stroke-width:0.5;" x="239.578125" xlink:href="#m2bd1e30bcd" y="7.399219"/>
      </g>
     </g>
     <g id="text_11">
      <!-- $\mathdefault{10^{-1}}$ -->
      <g transform="translate(17.278125 11.198437)scale(0.1 -0.1)">
       <use transform="translate(0 0.684375)" xlink:href="#DejaVuSans-31"/>
       <use transform="translate(63.623047 0.684375)" xlink:href="#DejaVuSans-30"/>
       <use transform="translate(128.203125 38.965625)scale(0.7)" xlink:href="#DejaVuSans-2212"/>
       <use transform="translate(186.855469 38.965625)scale(0.7)" xlink:href="#DejaVuSans-31"/>
      </g>
     </g>
    </g>
    <g id="ytick_7">
     <g id="line2d_47">
      <defs>
       <path d="M 0 0 
L 1.5 0 
" id="m2798a48a19" style="stroke:#000000;stroke-width:0.5;"/>
      </defs>
      <g>
       <use style="stroke:#000000;stroke-width:0.5;" x="44.278125" xlink:href="#m2798a48a19" y="141.503124"/>
      </g>
     </g>
     <g id="line2d_48">
      <defs>
       <path d="M 0 0 
L -1.5 0 
" id="mbfbb6b9eed" style="stroke:#000000;stroke-width:0.5;"/>
      </defs>
      <g>
       <use style="stroke:#000000;stroke-width:0.5;" x="239.578125" xlink:href="#mbfbb6b9eed" y="141.503124"/>
      </g>
     </g>
    </g>
    <g id="ytick_8">
     <g id="line2d_49">
      <g>
       <use style="stroke:#000000;stroke-width:0.5;" x="44.278125" xlink:href="#m2798a48a19" y="136.477655"/>
      </g>
     </g>
     <g id="line2d_50">
      <g>
       <use style="stroke:#000000;stroke-width:0.5;" x="239.578125" xlink:href="#mbfbb6b9eed" y="136.477655"/>
      </g>
     </g>
    </g>
    <g id="ytick_9">
     <g id="line2d_51">
      <g>
       <use style="stroke:#000000;stroke-width:0.5;" x="44.278125" xlink:href="#m2798a48a19" y="132.912029"/>
      </g>
     </g>
     <g id="line2d_52">
      <g>
       <use style="stroke:#000000;stroke-width:0.5;" x="239.578125" xlink:href="#mbfbb6b9eed" y="132.912029"/>
      </g>
     </g>
    </g>
    <g id="ytick_10">
     <g id="line2d_53">
      <g>
       <use style="stroke:#000000;stroke-width:0.5;" x="44.278125" xlink:href="#m2798a48a19" y="130.146314"/>
      </g>
     </g>
     <g id="line2d_54">
      <g>
       <use style="stroke:#000000;stroke-width:0.5;" x="239.578125" xlink:href="#mbfbb6b9eed" y="130.146314"/>
      </g>
     </g>
    </g>
    <g id="ytick_11">
     <g id="line2d_55">
      <g>
       <use style="stroke:#000000;stroke-width:0.5;" x="44.278125" xlink:href="#m2798a48a19" y="127.88656"/>
      </g>
     </g>
     <g id="line2d_56">
      <g>
       <use style="stroke:#000000;stroke-width:0.5;" x="239.578125" xlink:href="#mbfbb6b9eed" y="127.88656"/>
      </g>
     </g>
    </g>
    <g id="ytick_12">
     <g id="line2d_57">
      <g>
       <use style="stroke:#000000;stroke-width:0.5;" x="44.278125" xlink:href="#m2798a48a19" y="125.975966"/>
      </g>
     </g>
     <g id="line2d_58">
      <g>
       <use style="stroke:#000000;stroke-width:0.5;" x="239.578125" xlink:href="#mbfbb6b9eed" y="125.975966"/>
      </g>
     </g>
    </g>
    <g id="ytick_13">
     <g id="line2d_59">
      <g>
       <use style="stroke:#000000;stroke-width:0.5;" x="44.278125" xlink:href="#m2798a48a19" y="124.320934"/>
      </g>
     </g>
     <g id="line2d_60">
      <g>
       <use style="stroke:#000000;stroke-width:0.5;" x="239.578125" xlink:href="#mbfbb6b9eed" y="124.320934"/>
      </g>
     </g>
    </g>
    <g id="ytick_14">
     <g id="line2d_61">
      <g>
       <use style="stroke:#000000;stroke-width:0.5;" x="44.278125" xlink:href="#m2798a48a19" y="122.861092"/>
      </g>
     </g>
     <g id="line2d_62">
      <g>
       <use style="stroke:#000000;stroke-width:0.5;" x="239.578125" xlink:href="#mbfbb6b9eed" y="122.861092"/>
      </g>
     </g>
    </g>
    <g id="ytick_15">
     <g id="line2d_63">
      <g>
       <use style="stroke:#000000;stroke-width:0.5;" x="44.278125" xlink:href="#m2798a48a19" y="112.964124"/>
      </g>
     </g>
     <g id="line2d_64">
      <g>
       <use style="stroke:#000000;stroke-width:0.5;" x="239.578125" xlink:href="#mbfbb6b9eed" y="112.964124"/>
      </g>
     </g>
    </g>
    <g id="ytick_16">
     <g id="line2d_65">
      <g>
       <use style="stroke:#000000;stroke-width:0.5;" x="44.278125" xlink:href="#m2798a48a19" y="107.938655"/>
      </g>
     </g>
     <g id="line2d_66">
      <g>
       <use style="stroke:#000000;stroke-width:0.5;" x="239.578125" xlink:href="#mbfbb6b9eed" y="107.938655"/>
      </g>
     </g>
    </g>
    <g id="ytick_17">
     <g id="line2d_67">
      <g>
       <use style="stroke:#000000;stroke-width:0.5;" x="44.278125" xlink:href="#m2798a48a19" y="104.373029"/>
      </g>
     </g>
     <g id="line2d_68">
      <g>
       <use style="stroke:#000000;stroke-width:0.5;" x="239.578125" xlink:href="#mbfbb6b9eed" y="104.373029"/>
      </g>
     </g>
    </g>
    <g id="ytick_18">
     <g id="line2d_69">
      <g>
       <use style="stroke:#000000;stroke-width:0.5;" x="44.278125" xlink:href="#m2798a48a19" y="101.607314"/>
      </g>
     </g>
     <g id="line2d_70">
      <g>
       <use style="stroke:#000000;stroke-width:0.5;" x="239.578125" xlink:href="#mbfbb6b9eed" y="101.607314"/>
      </g>
     </g>
    </g>
    <g id="ytick_19">
     <g id="line2d_71">
      <g>
       <use style="stroke:#000000;stroke-width:0.5;" x="44.278125" xlink:href="#m2798a48a19" y="99.34756"/>
      </g>
     </g>
     <g id="line2d_72">
      <g>
       <use style="stroke:#000000;stroke-width:0.5;" x="239.578125" xlink:href="#mbfbb6b9eed" y="99.34756"/>
      </g>
     </g>
    </g>
    <g id="ytick_20">
     <g id="line2d_73">
      <g>
       <use style="stroke:#000000;stroke-width:0.5;" x="44.278125" xlink:href="#m2798a48a19" y="97.436966"/>
      </g>
     </g>
     <g id="line2d_74">
      <g>
       <use style="stroke:#000000;stroke-width:0.5;" x="239.578125" xlink:href="#mbfbb6b9eed" y="97.436966"/>
      </g>
     </g>
    </g>
    <g id="ytick_21">
     <g id="line2d_75">
      <g>
       <use style="stroke:#000000;stroke-width:0.5;" x="44.278125" xlink:href="#m2798a48a19" y="95.781934"/>
      </g>
     </g>
     <g id="line2d_76">
      <g>
       <use style="stroke:#000000;stroke-width:0.5;" x="239.578125" xlink:href="#mbfbb6b9eed" y="95.781934"/>
      </g>
     </g>
    </g>
    <g id="ytick_22">
     <g id="line2d_77">
      <g>
       <use style="stroke:#000000;stroke-width:0.5;" x="44.278125" xlink:href="#m2798a48a19" y="94.322092"/>
      </g>
     </g>
     <g id="line2d_78">
      <g>
       <use style="stroke:#000000;stroke-width:0.5;" x="239.578125" xlink:href="#mbfbb6b9eed" y="94.322092"/>
      </g>
     </g>
    </g>
    <g id="ytick_23">
     <g id="line2d_79">
      <g>
       <use style="stroke:#000000;stroke-width:0.5;" x="44.278125" xlink:href="#m2798a48a19" y="84.425124"/>
      </g>
     </g>
     <g id="line2d_80">
      <g>
       <use style="stroke:#000000;stroke-width:0.5;" x="239.578125" xlink:href="#mbfbb6b9eed" y="84.425124"/>
      </g>
     </g>
    </g>
    <g id="ytick_24">
     <g id="line2d_81">
      <g>
       <use style="stroke:#000000;stroke-width:0.5;" x="44.278125" xlink:href="#m2798a48a19" y="79.399655"/>
      </g>
     </g>
     <g id="line2d_82">
      <g>
       <use style="stroke:#000000;stroke-width:0.5;" x="239.578125" xlink:href="#mbfbb6b9eed" y="79.399655"/>
      </g>
     </g>
    </g>
    <g id="ytick_25">
     <g id="line2d_83">
      <g>
       <use style="stroke:#000000;stroke-width:0.5;" x="44.278125" xlink:href="#m2798a48a19" y="75.834029"/>
      </g>
     </g>
     <g id="line2d_84">
      <g>
       <use style="stroke:#000000;stroke-width:0.5;" x="239.578125" xlink:href="#mbfbb6b9eed" y="75.834029"/>
      </g>
     </g>
    </g>
    <g id="ytick_26">
     <g id="line2d_85">
      <g>
       <use style="stroke:#000000;stroke-width:0.5;" x="44.278125" xlink:href="#m2798a48a19" y="73.068314"/>
      </g>
     </g>
     <g id="line2d_86">
      <g>
       <use style="stroke:#000000;stroke-width:0.5;" x="239.578125" xlink:href="#mbfbb6b9eed" y="73.068314"/>
      </g>
     </g>
    </g>
    <g id="ytick_27">
     <g id="line2d_87">
      <g>
       <use style="stroke:#000000;stroke-width:0.5;" x="44.278125" xlink:href="#m2798a48a19" y="70.80856"/>
      </g>
     </g>
     <g id="line2d_88">
      <g>
       <use style="stroke:#000000;stroke-width:0.5;" x="239.578125" xlink:href="#mbfbb6b9eed" y="70.80856"/>
      </g>
     </g>
    </g>
    <g id="ytick_28">
     <g id="line2d_89">
      <g>
       <use style="stroke:#000000;stroke-width:0.5;" x="44.278125" xlink:href="#m2798a48a19" y="68.897966"/>
      </g>
     </g>
     <g id="line2d_90">
      <g>
       <use style="stroke:#000000;stroke-width:0.5;" x="239.578125" xlink:href="#mbfbb6b9eed" y="68.897966"/>
      </g>
     </g>
    </g>
    <g id="ytick_29">
     <g id="line2d_91">
      <g>
       <use style="stroke:#000000;stroke-width:0.5;" x="44.278125" xlink:href="#m2798a48a19" y="67.242934"/>
      </g>
     </g>
     <g id="line2d_92">
      <g>
       <use style="stroke:#000000;stroke-width:0.5;" x="239.578125" xlink:href="#mbfbb6b9eed" y="67.242934"/>
      </g>
     </g>
    </g>
    <g id="ytick_30">
     <g id="line2d_93">
      <g>
       <use style="stroke:#000000;stroke-width:0.5;" x="44.278125" xlink:href="#m2798a48a19" y="65.783092"/>
      </g>
     </g>
     <g id="line2d_94">
      <g>
       <use style="stroke:#000000;stroke-width:0.5;" x="239.578125" xlink:href="#mbfbb6b9eed" y="65.783092"/>
      </g>
     </g>
    </g>
    <g id="ytick_31">
     <g id="line2d_95">
      <g>
       <use style="stroke:#000000;stroke-width:0.5;" x="44.278125" xlink:href="#m2798a48a19" y="55.886124"/>
      </g>
     </g>
     <g id="line2d_96">
      <g>
       <use style="stroke:#000000;stroke-width:0.5;" x="239.578125" xlink:href="#mbfbb6b9eed" y="55.886124"/>
      </g>
     </g>
    </g>
    <g id="ytick_32">
     <g id="line2d_97">
      <g>
       <use style="stroke:#000000;stroke-width:0.5;" x="44.278125" xlink:href="#m2798a48a19" y="50.860655"/>
      </g>
     </g>
     <g id="line2d_98">
      <g>
       <use style="stroke:#000000;stroke-width:0.5;" x="239.578125" xlink:href="#mbfbb6b9eed" y="50.860655"/>
      </g>
     </g>
    </g>
    <g id="ytick_33">
     <g id="line2d_99">
      <g>
       <use style="stroke:#000000;stroke-width:0.5;" x="44.278125" xlink:href="#m2798a48a19" y="47.295029"/>
      </g>
     </g>
     <g id="line2d_100">
      <g>
       <use style="stroke:#000000;stroke-width:0.5;" x="239.578125" xlink:href="#mbfbb6b9eed" y="47.295029"/>
      </g>
     </g>
    </g>
    <g id="ytick_34">
     <g id="line2d_101">
      <g>
       <use style="stroke:#000000;stroke-width:0.5;" x="44.278125" xlink:href="#m2798a48a19" y="44.529314"/>
      </g>
     </g>
     <g id="line2d_102">
      <g>
       <use style="stroke:#000000;stroke-width:0.5;" x="239.578125" xlink:href="#mbfbb6b9eed" y="44.529314"/>
      </g>
     </g>
    </g>
    <g id="ytick_35">
     <g id="line2d_103">
      <g>
       <use style="stroke:#000000;stroke-width:0.5;" x="44.278125" xlink:href="#m2798a48a19" y="42.26956"/>
      </g>
     </g>
     <g id="line2d_104">
      <g>
       <use style="stroke:#000000;stroke-width:0.5;" x="239.578125" xlink:href="#mbfbb6b9eed" y="42.26956"/>
      </g>
     </g>
    </g>
    <g id="ytick_36">
     <g id="line2d_105">
      <g>
       <use style="stroke:#000000;stroke-width:0.5;" x="44.278125" xlink:href="#m2798a48a19" y="40.358966"/>
      </g>
     </g>
     <g id="line2d_106">
      <g>
       <use style="stroke:#000000;stroke-width:0.5;" x="239.578125" xlink:href="#mbfbb6b9eed" y="40.358966"/>
      </g>
     </g>
    </g>
    <g id="ytick_37">
     <g id="line2d_107">
      <g>
       <use style="stroke:#000000;stroke-width:0.5;" x="44.278125" xlink:href="#m2798a48a19" y="38.703934"/>
      </g>
     </g>
     <g id="line2d_108">
      <g>
       <use style="stroke:#000000;stroke-width:0.5;" x="239.578125" xlink:href="#mbfbb6b9eed" y="38.703934"/>
      </g>
     </g>
    </g>
    <g id="ytick_38">
     <g id="line2d_109">
      <g>
       <use style="stroke:#000000;stroke-width:0.5;" x="44.278125" xlink:href="#m2798a48a19" y="37.244092"/>
      </g>
     </g>
     <g id="line2d_110">
      <g>
       <use style="stroke:#000000;stroke-width:0.5;" x="239.578125" xlink:href="#mbfbb6b9eed" y="37.244092"/>
      </g>
     </g>
    </g>
    <g id="ytick_39">
     <g id="line2d_111">
      <g>
       <use style="stroke:#000000;stroke-width:0.5;" x="44.278125" xlink:href="#m2798a48a19" y="27.347124"/>
      </g>
     </g>
     <g id="line2d_112">
      <g>
       <use style="stroke:#000000;stroke-width:0.5;" x="239.578125" xlink:href="#mbfbb6b9eed" y="27.347124"/>
      </g>
     </g>
    </g>
    <g id="ytick_40">
     <g id="line2d_113">
      <g>
       <use style="stroke:#000000;stroke-width:0.5;" x="44.278125" xlink:href="#m2798a48a19" y="22.321655"/>
      </g>
     </g>
     <g id="line2d_114">
      <g>
       <use style="stroke:#000000;stroke-width:0.5;" x="239.578125" xlink:href="#mbfbb6b9eed" y="22.321655"/>
      </g>
     </g>
    </g>
    <g id="ytick_41">
     <g id="line2d_115">
      <g>
       <use style="stroke:#000000;stroke-width:0.5;" x="44.278125" xlink:href="#m2798a48a19" y="18.756029"/>
      </g>
     </g>
     <g id="line2d_116">
      <g>
       <use style="stroke:#000000;stroke-width:0.5;" x="239.578125" xlink:href="#mbfbb6b9eed" y="18.756029"/>
      </g>
     </g>
    </g>
    <g id="ytick_42">
     <g id="line2d_117">
      <g>
       <use style="stroke:#000000;stroke-width:0.5;" x="44.278125" xlink:href="#m2798a48a19" y="15.990314"/>
      </g>
     </g>
     <g id="line2d_118">
      <g>
       <use style="stroke:#000000;stroke-width:0.5;" x="239.578125" xlink:href="#mbfbb6b9eed" y="15.990314"/>
      </g>
     </g>
    </g>
    <g id="ytick_43">
     <g id="line2d_119">
      <g>
       <use style="stroke:#000000;stroke-width:0.5;" x="44.278125" xlink:href="#m2798a48a19" y="13.73056"/>
      </g>
     </g>
     <g id="line2d_120">
      <g>
       <use style="stroke:#000000;stroke-width:0.5;" x="239.578125" xlink:href="#mbfbb6b9eed" y="13.73056"/>
      </g>
     </g>
    </g>
    <g id="ytick_44">
     <g id="line2d_121">
      <g>
       <use style="stroke:#000000;stroke-width:0.5;" x="44.278125" xlink:href="#m2798a48a19" y="11.819966"/>
      </g>
     </g>
     <g id="line2d_122">
      <g>
       <use style="stroke:#000000;stroke-width:0.5;" x="239.578125" xlink:href="#mbfbb6b9eed" y="11.819966"/>
      </g>
     </g>
    </g>
    <g id="ytick_45">
     <g id="line2d_123">
      <g>
       <use style="stroke:#000000;stroke-width:0.5;" x="44.278125" xlink:href="#m2798a48a19" y="10.164934"/>
      </g>
     </g>
     <g id="line2d_124">
      <g>
       <use style="stroke:#000000;stroke-width:0.5;" x="239.578125" xlink:href="#mbfbb6b9eed" y="10.164934"/>
      </g>
     </g>
    </g>
    <g id="ytick_46">
     <g id="line2d_125">
      <g>
       <use style="stroke:#000000;stroke-width:0.5;" x="44.278125" xlink:href="#m2798a48a19" y="8.705092"/>
      </g>
     </g>
     <g id="line2d_126">
      <g>
       <use style="stroke:#000000;stroke-width:0.5;" x="239.578125" xlink:href="#mbfbb6b9eed" y="8.705092"/>
      </g>
     </g>
    </g>
    <g id="text_12">
     <!-- Voltage / V -->
     <g transform="translate(11.198438 105.785781)rotate(-90)scale(0.1 -0.1)">
      <defs>
       <path d="M 1831 0 
L 50 4666 
L 709 4666 
L 2188 738 
L 3669 4666 
L 4325 4666 
L 2547 0 
L 1831 0 
z
" id="DejaVuSans-56" transform="scale(0.015625)"/>
       <path d="M 1959 3097 
Q 1497 3097 1228 2736 
Q 959 2375 959 1747 
Q 959 1119 1226 758 
Q 1494 397 1959 397 
Q 2419 397 2687 759 
Q 2956 1122 2956 1747 
Q 2956 2369 2687 2733 
Q 2419 3097 1959 3097 
z
M 1959 3584 
Q 2709 3584 3137 3096 
Q 3566 2609 3566 1747 
Q 3566 888 3137 398 
Q 2709 -91 1959 -91 
Q 1206 -91 779 398 
Q 353 888 353 1747 
Q 353 2609 779 3096 
Q 1206 3584 1959 3584 
z
" id="DejaVuSans-6f" transform="scale(0.015625)"/>
       <path d="M 603 4863 
L 1178 4863 
L 1178 0 
L 603 0 
L 603 4863 
z
" id="DejaVuSans-6c" transform="scale(0.015625)"/>
       <path d="M 1625 4666 
L 2156 4666 
L 531 -594 
L 0 -594 
L 1625 4666 
z
" id="DejaVuSans-2f" transform="scale(0.015625)"/>
      </defs>
      <use xlink:href="#DejaVuSans-56"/>
      <use x="60.658203" xlink:href="#DejaVuSans-6f"/>
      <use x="121.839844" xlink:href="#DejaVuSans-6c"/>
      <use x="149.623047" xlink:href="#DejaVuSans-74"/>
      <use x="188.832031" xlink:href="#DejaVuSans-61"/>
      <use x="250.111328" xlink:href="#DejaVuSans-67"/>
      <use x="313.587891" xlink:href="#DejaVuSans-65"/>
      <use x="375.111328" xlink:href="#DejaVuSans-20"/>
      <use x="406.898438" xlink:href="#DejaVuSans-2f"/>
      <use x="440.589844" xlink:href="#DejaVuSans-20"/>
      <use x="472.376953" xlink:href="#DejaVuSans-56"/>
     </g>
    </g>
   </g>
   <g id="line2d_127">
    <path clip-path="url(#pd85986ecb9)" d="M 53.155398 39.048922 
L 54.315826 40.849529 
L 55.476253 41.367722 
L 57.797109 41.927757 
L 61.278392 42.377897 
L 65.920104 42.966591 
L 69.401387 43.421937 
L 76.363954 44.152526 
L 89.12866 45.160679 
L 100.732938 45.910495 
L 194.72759 53.121911 
L 206.331868 53.956512 
L 215.615291 54.879533 
L 219.096574 55.607472 
L 221.41743 56.566427 
L 222.577858 57.215113 
L 223.738285 58.14167 
L 224.898713 60.117057 
L 226.059141 62.75884 
L 227.219569 67.014954 
L 228.379997 73.922342 
L 228.592469 181.550469 
L 228.592469 181.550469 
" style="fill:none;stroke:#0c5da5;stroke-linecap:square;"/>
   </g>
   <g id="line2d_128">
    <path clip-path="url(#pd85986ecb9)" d="M 53.155398 51.844678 
L 54.315826 54.600028 
L 55.476253 55.927882 
L 56.636681 57.901089 
L 60.117965 62.196924 
L 61.278392 63.451934 
L 64.759676 66.426745 
L 68.240959 69.506893 
L 69.401387 70.70158 
L 70.561815 71.696964 
L 71.722243 72.512529 
L 74.043098 74.875643 
L 75.203526 75.875164 
L 77.524382 77.430675 
L 78.684809 78.577279 
L 82.166093 81.383255 
L 83.326521 82.96665 
L 84.486949 83.824277 
L 86.807804 86.577303 
L 90.289088 89.372607 
L 91.449515 90.174528 
L 92.609943 91.379681 
L 93.770371 93.180711 
L 96.091227 95.681559 
L 97.251654 97.223493 
L 98.412082 98.431499 
L 99.57251 100.148518 
L 104.214221 104.007469 
L 106.535077 107.147424 
L 107.695505 108.37835 
L 108.855932 110.042658 
L 110.01636 111.406829 
L 111.176788 113.15708 
L 112.337216 115.18791 
L 113.497644 116.401404 
L 114.658072 118.191871 
L 116.978927 119.96026 
L 118.139355 120.768842 
L 119.299783 122.129019 
L 120.460211 122.586165 
L 121.620638 123.366689 
L 122.781066 124.458382 
L 125.101922 126.054242 
L 126.26235 127.157271 
L 128.583205 128.189098 
L 130.904061 130.345188 
L 132.064489 130.977136 
L 133.224916 131.356393 
L 134.385344 132.312022 
L 135.545772 132.683887 
L 136.7062 133.35918 
L 137.866628 134.837325 
L 140.187483 136.078338 
L 143.668767 137.494602 
L 144.829195 137.819722 
L 149.470906 139.802708 
L 154.112617 142.099648 
L 158.754328 144.177118 
L 161.075184 145.12993 
L 164.556467 147.815152 
L 165.716895 148.483745 
L 166.877323 149.719713 
L 169.198178 151.317442 
L 173.83989 155.786013 
L 175.000318 156.892324 
L 176.160745 157.667967 
L 177.321173 158.66883 
L 178.481601 159.395156 
L 179.642029 160.718759 
L 181.962884 162.528157 
L 183.123312 163.736281 
L 185.444168 166.655956 
L 186.604596 168.68082 
L 187.765023 169.811277 
L 188.925451 171.129495 
L 192.406735 173.203993 
L 193.567162 174.161142 
L 194.72759 176.162384 
L 195.888018 180.484657 
L 196.399424 181.550469 
L 196.399424 181.550469 
" style="fill:none;stroke:#ff9500;stroke-linecap:square;"/>
   </g>
   <g id="line2d_129">
    <path clip-path="url(#pd85986ecb9)" d="M 53.155398 14.972382 
L 54.315826 26.336266 
L 55.476253 33.721862 
L 57.797109 42.57177 
L 58.957537 44.90803 
L 60.117965 46.399001 
L 62.43882 48.183723 
L 65.920104 49.402772 
L 72.88267 51.166922 
L 81.005665 52.5776 
L 104.214221 55.673545 
L 110.01636 56.398394 
L 115.818499 57.086046 
L 134.385344 59.132379 
L 145.989622 60.350915 
L 150.631334 60.84887 
L 157.5939 61.615711 
L 173.83989 63.722033 
L 192.406735 67.022075 
L 200.529729 68.794274 
L 204.011013 69.740628 
L 207.492296 70.809649 
L 209.813152 71.47002 
L 212.134007 72.256817 
L 214.454863 73.089652 
L 217.936146 74.398489 
L 220.257002 75.692806 
L 221.41743 76.38399 
L 223.738285 78.434608 
L 224.898713 80.306282 
L 227.219569 86.078028 
L 228.379997 93.769968 
L 229.540424 137.75778 
L 229.542215 181.550469 
L 229.542215 181.550469 
" style="fill:none;stroke:#00b945;stroke-linecap:square;"/>
   </g>
   <g id="line2d_130">
    <path clip-path="url(#pd85986ecb9)" d="M 53.155398 42.350299 
L 54.315826 50.169255 
L 55.476253 53.760134 
L 56.636681 56.674684 
L 57.797109 58.317916 
L 58.957537 59.66275 
L 60.117965 60.686188 
L 61.278392 61.440006 
L 64.759676 62.874621 
L 69.401387 64.350175 
L 96.091227 71.254574 
L 99.57251 72.180294 
L 106.535077 74.124418 
L 110.01636 75.134314 
L 116.978927 77.17381 
L 121.620638 78.975956 
L 125.101922 80.177826 
L 135.545772 83.73267 
L 137.866628 84.470017 
L 142.508339 86.014431 
L 143.668767 86.503378 
L 148.310478 88.047668 
L 150.631334 88.828829 
L 152.952189 89.994039 
L 164.556467 94.760032 
L 168.037751 95.872978 
L 169.198178 96.393488 
L 171.519034 97.173309 
L 172.679462 97.855303 
L 175.000318 98.936162 
L 176.160745 99.4991 
L 178.481601 100.380185 
L 187.765023 105.333343 
L 192.406735 106.814918 
L 195.888018 108.5669 
L 197.048446 108.958906 
L 198.208874 109.490873 
L 199.369301 109.896459 
L 201.690157 111.213974 
L 202.850585 111.682087 
L 204.011013 112.482169 
L 205.171441 113.119387 
L 209.813152 115.109974 
L 210.97358 115.928422 
L 212.134007 116.389858 
L 213.294435 117.06803 
L 214.454863 118.108559 
L 216.775719 119.561011 
L 217.936146 120.429141 
L 219.096574 122.603305 
L 220.257002 125.820584 
L 221.41743 127.150245 
L 222.577858 129.690846 
L 223.738285 131.103514 
L 224.898713 133.250893 
L 226.059141 134.79666 
L 227.219569 140.628726 
L 227.934221 181.550469 
L 227.934221 181.550469 
" style="fill:none;stroke:#ff2c00;stroke-linecap:square;"/>
   </g>
   <g id="line2d_131">
    <path clip-path="url(#pd85986ecb9)" d="M 53.155398 4.980135 
L 55.476253 13.380136 
L 56.636681 16.257771 
L 57.797109 19.438834 
L 58.957537 22.027165 
L 60.117965 24.157936 
L 64.759676 31.592832 
L 65.920104 32.598367 
L 67.080531 33.385816 
L 69.401387 34.640315 
L 70.561815 35.134369 
L 75.203526 36.537969 
L 78.684809 37.137135 
L 85.647376 37.859739 
L 120.460211 39.990992 
L 157.5939 42.292195 
L 165.716895 42.966814 
L 171.519034 43.454294 
L 177.321173 43.940701 
L 185.444168 44.599129 
L 191.246307 45.103911 
L 208.652724 46.706309 
L 213.294435 47.330815 
L 216.775719 47.984679 
L 219.096574 48.558535 
L 221.41743 49.274976 
L 223.738285 50.614206 
L 224.898713 51.351881 
L 226.059141 52.964202 
L 227.219569 55.558665 
L 228.379997 62.521052 
L 229.540424 113.177239 
L 229.543218 181.550469 
L 229.543218 181.550469 
" style="fill:none;stroke:#845b97;stroke-linecap:square;"/>
   </g>
   <g id="patch_3">
    <path d="M 44.278125 150.094219 
L 44.278125 7.399219 
" style="fill:none;stroke:#000000;stroke-linecap:square;stroke-linejoin:miter;stroke-width:0.5;"/>
   </g>
   <g id="patch_4">
    <path d="M 239.578125 150.094219 
L 239.578125 7.399219 
" style="fill:none;stroke:#000000;stroke-linecap:square;stroke-linejoin:miter;stroke-width:0.5;"/>
   </g>
   <g id="patch_5">
    <path d="M 44.278125 150.094219 
L 239.578125 150.094219 
" style="fill:none;stroke:#000000;stroke-linecap:square;stroke-linejoin:miter;stroke-width:0.5;"/>
   </g>
   <g id="patch_6">
    <path d="M 44.278125 7.399219 
L 239.578125 7.399219 
" style="fill:none;stroke:#000000;stroke-linecap:square;stroke-linejoin:miter;stroke-width:0.5;"/>
   </g>
  </g>
 </g>
 <defs>
  <clipPath id="pd85986ecb9">
   <rect height="142.695" width="195.3" x="44.278125" y="7.399219"/>
  </clipPath>
 </defs>
</svg>
