<?xml version="1.0" encoding="utf-8" standalone="no"?>
<!DOCTYPE svg PUBLIC "-//W3C//DTD SVG 1.1//EN"
  "http://www.w3.org/Graphics/SVG/1.1/DTD/svg11.dtd">
<svg height="180.550469pt" version="1.1" viewBox="0 0 243.178125 180.550469" width="243.178125pt" xmlns="http://www.w3.org/2000/svg" xmlns:xlink="http://www.w3.org/1999/xlink">
 <metadata>
  <rdf:RDF xmlns:cc="http://creativecommons.org/ns#" xmlns:dc="http://purl.org/dc/elements/1.1/" xmlns:rdf="http://www.w3.org/1999/02/22-rdf-syntax-ns#">
   <cc:Work>
    <dc:type rdf:resource="http://purl.org/dc/dcmitype/StillImage"/>
    <dc:date>2023-04-24T13:37:59.694404</dc:date>
    <dc:format>image/svg+xml</dc:format>
    <dc:creator>
     <cc:Agent>
      <dc:title>Matplotlib v3.4.3, https://matplotlib.org/</dc:title>
     </cc:Agent>
    </dc:creator>
   </cc:Work>
  </rdf:RDF>
 </metadata>
 <defs>
  <style type="text/css">*{stroke-linecap:butt;stroke-linejoin:round;}</style>
 </defs>
 <g id="figure_1">
  <g id="patch_1">
   <path d="M 0 180.550469 
L 243.178125 180.550469 
L 243.178125 0 
L 0 0 
z
" style="fill:none;"/>
  </g>
  <g id="axes_1">
   <g id="patch_2">
    <path d="M 44.278125 150.094219 
L 239.578125 150.094219 
L 239.578125 7.399219 
L 44.278125 7.399219 
z
" style="fill:#ffffff;"/>
   </g>
   <g id="PolyCollection_1">
    <path clip-path="url(#pc876f6e606)" d="M 53.155398 96.840483 
L 53.155398 102.046795 
L 56.932961 103.654112 
L 60.710523 105.463338 
L 64.488086 107.226829 
L 68.265649 107.717309 
L 72.043212 107.781159 
L 75.820775 108.519133 
L 79.598338 108.825353 
L 83.375901 109.086268 
L 87.153463 109.180934 
L 90.931026 109.698998 
L 94.708589 110.246913 
L 98.486152 110.812128 
L 102.263715 110.873649 
L 106.041278 110.935672 
L 109.818841 110.981373 
L 113.596404 113.138994 
L 117.373966 114.153226 
L 121.151529 114.20588 
L 124.929092 114.349146 
L 128.706655 115.1597 
L 132.484218 115.202524 
L 136.261781 115.761592 
L 140.039344 116.196958 
L 143.816906 117.963042 
L 147.594469 118.10559 
L 151.372032 118.346976 
L 155.149595 119.54821 
L 158.927158 119.918155 
L 162.704721 120.16602 
L 166.482284 120.817556 
L 170.259846 120.934687 
L 174.037409 121.201862 
L 177.814972 121.608765 
L 181.592535 122.13647 
L 185.370098 122.346749 
L 189.147661 123.104655 
L 192.925224 123.127796 
L 196.702787 123.881831 
L 200.480349 124.214192 
L 204.257912 124.968539 
L 208.035475 125.643681 
L 211.813038 125.765437 
L 215.590601 126.065353 
L 219.368164 126.767261 
L 223.145727 127.407694 
L 226.923289 127.532445 
L 230.700852 127.575961 
L 230.700852 123.823493 
L 230.700852 123.823493 
L 226.923289 121.924625 
L 223.145727 121.403954 
L 219.368164 120.814568 
L 215.590601 120.422793 
L 211.813038 120.089241 
L 208.035475 119.673258 
L 204.257912 119.444352 
L 200.480349 119.197346 
L 196.702787 118.302187 
L 192.925224 117.566574 
L 189.147661 117.551344 
L 185.370098 117.435576 
L 181.592535 117.186648 
L 177.814972 116.907783 
L 174.037409 116.891102 
L 170.259846 116.541985 
L 166.482284 115.917459 
L 162.704721 115.907741 
L 158.927158 115.591602 
L 155.149595 115.523824 
L 151.372032 115.35502 
L 147.594469 112.318194 
L 143.816906 112.161532 
L 140.039344 111.810444 
L 136.261781 110.527223 
L 132.484218 109.924521 
L 128.706655 109.919896 
L 124.929092 109.865667 
L 121.151529 109.438152 
L 117.373966 109.133998 
L 113.596404 108.874504 
L 109.818841 106.703614 
L 106.041278 106.249842 
L 102.263715 105.239005 
L 98.486152 104.836021 
L 94.708589 104.609611 
L 90.931026 104.506308 
L 87.153463 103.859973 
L 83.375901 103.790436 
L 79.598338 102.783408 
L 75.820775 102.401593 
L 72.043212 102.313195 
L 68.265649 101.295147 
L 64.488086 99.295377 
L 60.710523 98.865996 
L 56.932961 98.42955 
L 53.155398 96.840483 
z
" style="fill:#0c5da5;fill-opacity:0.15;"/>
   </g>
   <g id="PolyCollection_2">
    <path clip-path="url(#pc876f6e606)" d="M 53.155398 105.43663 
L 53.155398 110.745859 
L 56.932961 110.747532 
L 60.710523 112.568857 
L 64.488086 117.526835 
L 68.265649 118.164088 
L 72.043212 118.408281 
L 75.820775 118.76295 
L 79.598338 119.071497 
L 83.375901 119.109843 
L 87.153463 119.538637 
L 90.931026 119.573938 
L 94.708589 119.668946 
L 98.486152 119.741471 
L 102.263715 119.99498 
L 106.041278 120.053889 
L 109.818841 120.294561 
L 113.596404 120.310856 
L 117.373966 120.424558 
L 121.151529 120.605208 
L 124.929092 120.968135 
L 128.706655 120.984898 
L 132.484218 121.297417 
L 136.261781 121.621573 
L 140.039344 121.635568 
L 143.816906 122.748535 
L 147.594469 122.786946 
L 151.372032 122.96737 
L 155.149595 123.339563 
L 158.927158 123.586671 
L 162.704721 123.612891 
L 166.482284 123.624929 
L 170.259846 123.779768 
L 174.037409 124.019103 
L 177.814972 124.067677 
L 181.592535 124.074731 
L 185.370098 124.462221 
L 189.147661 124.901263 
L 192.925224 124.966853 
L 196.702787 125.088416 
L 200.480349 125.243189 
L 204.257912 125.262786 
L 208.035475 125.298412 
L 211.813038 125.411544 
L 215.590601 125.687646 
L 219.368164 125.737627 
L 223.145727 125.959524 
L 226.923289 126.166749 
L 230.700852 126.744002 
L 230.700852 124.019508 
L 230.700852 124.019508 
L 226.923289 123.96573 
L 223.145727 123.859364 
L 219.368164 123.634865 
L 215.590601 123.458183 
L 211.813038 123.199511 
L 208.035475 123.169323 
L 204.257912 123.07277 
L 200.480349 123.005571 
L 196.702787 122.620486 
L 192.925224 122.521499 
L 189.147661 122.409633 
L 185.370098 122.161653 
L 181.592535 122.139472 
L 177.814972 121.96717 
L 174.037409 121.895853 
L 170.259846 121.813834 
L 166.482284 121.692007 
L 162.704721 121.578518 
L 158.927158 121.446689 
L 155.149595 121.293838 
L 151.372032 121.219402 
L 147.594469 121.185126 
L 143.816906 120.770216 
L 140.039344 119.691655 
L 136.261781 119.328651 
L 132.484218 118.742065 
L 128.706655 118.695988 
L 124.929092 118.554425 
L 121.151529 118.427385 
L 117.373966 118.261869 
L 113.596404 118.19163 
L 109.818841 118.026773 
L 106.041278 117.826217 
L 102.263715 117.73446 
L 98.486152 117.690032 
L 94.708589 117.601964 
L 90.931026 117.191248 
L 87.153463 116.999159 
L 83.375901 116.935376 
L 79.598338 116.599864 
L 75.820775 116.314363 
L 72.043212 116.169529 
L 68.265649 116.136526 
L 64.488086 115.394988 
L 60.710523 109.181784 
L 56.932961 107.159529 
L 53.155398 105.43663 
z
" style="fill:#ff9500;fill-opacity:0.15;"/>
   </g>
   <g id="PolyCollection_3">
    <path clip-path="url(#pc876f6e606)" d="M 53.155398 92.805854 
L 53.155398 95.953436 
L 56.932961 96.185417 
L 60.710523 96.593745 
L 64.488086 97.518567 
L 68.265649 97.614755 
L 72.043212 97.80713 
L 75.820775 97.907535 
L 79.598338 98.242898 
L 83.375901 98.591184 
L 87.153463 98.995992 
L 90.931026 99.064856 
L 94.708589 99.15901 
L 98.486152 99.915951 
L 102.263715 100.40177 
L 106.041278 100.82301 
L 109.818841 102.465267 
L 113.596404 103.673659 
L 117.373966 105.278232 
L 121.151529 106.599744 
L 124.929092 106.999704 
L 128.706655 107.04597 
L 132.484218 107.946333 
L 136.261781 108.023691 
L 140.039344 108.697496 
L 143.816906 109.332684 
L 147.594469 109.513253 
L 151.372032 109.586991 
L 155.149595 110.058007 
L 158.927158 110.133225 
L 162.704721 110.163573 
L 166.482284 110.392775 
L 170.259846 111.077007 
L 174.037409 111.109176 
L 177.814972 111.252883 
L 181.592535 111.424073 
L 185.370098 112.025276 
L 189.147661 113.807859 
L 192.925224 117.626101 
L 196.702787 118.142687 
L 200.480349 118.813493 
L 204.257912 119.541658 
L 208.035475 120.183669 
L 211.813038 120.798833 
L 215.590601 121.595756 
L 219.368164 121.665742 
L 223.145727 122.978323 
L 226.923289 123.153358 
L 230.700852 123.995182 
L 230.700852 120.506485 
L 230.700852 120.506485 
L 226.923289 120.463833 
L 223.145727 119.127325 
L 219.368164 118.710806 
L 215.590601 118.116841 
L 211.813038 117.8432 
L 208.035475 117.344838 
L 204.257912 116.294954 
L 200.480349 115.936087 
L 196.702787 114.979364 
L 192.925224 113.972572 
L 189.147661 110.987131 
L 185.370098 108.641964 
L 181.592535 108.601121 
L 177.814972 108.535504 
L 174.037409 108.450042 
L 170.259846 108.390385 
L 166.482284 108.169064 
L 162.704721 107.833247 
L 158.927158 107.004022 
L 155.149595 106.482881 
L 151.372032 106.458249 
L 147.594469 106.394734 
L 143.816906 106.061113 
L 140.039344 104.721283 
L 136.261781 104.321357 
L 132.484218 104.140284 
L 128.706655 103.805521 
L 124.929092 103.724875 
L 121.151529 103.328346 
L 117.373966 101.203293 
L 113.596404 100.86588 
L 109.818841 99.407111 
L 106.041278 97.907221 
L 102.263715 97.216335 
L 98.486152 96.919999 
L 94.708589 96.599863 
L 90.931026 96.175735 
L 87.153463 95.941367 
L 83.375901 95.595018 
L 79.598338 95.232432 
L 75.820775 94.586898 
L 72.043212 94.451704 
L 68.265649 94.19523 
L 64.488086 93.858639 
L 60.710523 93.549974 
L 56.932961 93.223793 
L 53.155398 92.805854 
z
" style="fill:#00b945;fill-opacity:0.15;"/>
   </g>
   <g id="PolyCollection_4">
    <path clip-path="url(#pc876f6e606)" d="M 53.155398 120.167451 
L 53.155398 128.937998 
L 56.932961 135.420211 
L 60.710523 136.268443 
L 64.488086 137.951905 
L 68.265649 138.968168 
L 72.043212 140.758436 
L 75.820775 142.580559 
L 79.598338 144.264273 
L 83.375901 145.095055 
L 87.153463 145.660307 
L 90.931026 145.803446 
L 94.708589 147.690104 
L 98.486152 148.492355 
L 102.263715 149.025353 
L 106.041278 149.417594 
L 109.818841 151.65344 
L 113.596404 152.375107 
L 117.373966 152.495068 
L 121.151529 153.732432 
L 124.929092 154.691345 
L 128.706655 155.312156 
L 132.484218 156.268871 
L 136.261781 157.779856 
L 140.039344 158.85974 
L 143.816906 160.702954 
L 147.594469 162.519424 
L 151.372032 162.90022 
L 155.149595 163.512592 
L 158.927158 165.174645 
L 162.704721 166.604941 
L 166.482284 167.015493 
L 170.259846 170.286512 
L 174.037409 171.24488 
L 177.814972 174.828015 
L 181.592535 177.451616 
L 185.370098 178.135605 
L 189.147661 178.475248 
L 192.925224 178.830884 
L 196.702787 180.24798 
L 200.480349 182.736824 
L 204.257912 183.502044 
L 208.035475 186.671729 
L 211.813038 192.632 
L 215.590601 193.783613 
L 219.368164 197.19982 
L 223.145727 212.152814 
L 226.923289 230.415255 
L 230.700852 242.667495 
L 230.700852 145.680174 
L 230.700852 145.680174 
L 226.923289 139.354006 
L 223.145727 139.320099 
L 219.368164 139.09445 
L 215.590601 138.853725 
L 211.813038 137.549001 
L 208.035475 136.979699 
L 204.257912 136.709565 
L 200.480349 136.521231 
L 196.702787 135.412043 
L 192.925224 135.094411 
L 189.147661 134.585595 
L 185.370098 134.332776 
L 181.592535 134.088397 
L 177.814972 133.789462 
L 174.037409 133.647171 
L 170.259846 133.354698 
L 166.482284 132.301428 
L 162.704721 132.237379 
L 158.927158 132.082822 
L 155.149595 132.081243 
L 151.372032 131.938474 
L 147.594469 131.762597 
L 143.816906 131.725534 
L 140.039344 131.381106 
L 136.261781 130.851617 
L 132.484218 130.02797 
L 128.706655 128.724539 
L 124.929092 128.385023 
L 121.151529 128.378507 
L 117.373966 127.886902 
L 113.596404 127.245626 
L 109.818841 126.400463 
L 106.041278 126.316442 
L 102.263715 126.243613 
L 98.486152 126.243231 
L 94.708589 126.034034 
L 90.931026 125.882313 
L 87.153463 124.630503 
L 83.375901 124.425814 
L 79.598338 124.340696 
L 75.820775 124.14297 
L 72.043212 124.103531 
L 68.265649 124.100623 
L 64.488086 123.795664 
L 60.710523 123.643978 
L 56.932961 123.54004 
L 53.155398 120.167451 
z
" style="fill:#ff2c00;fill-opacity:0.15;"/>
   </g>
   <g id="PolyCollection_5">
    <path clip-path="url(#pc876f6e606)" d="M 53.155398 70.686239 
L 53.155398 74.447509 
L 56.932961 75.685722 
L 60.710523 76.064787 
L 64.488086 76.122548 
L 68.265649 76.465825 
L 72.043212 76.857181 
L 75.820775 77.11446 
L 79.598338 77.237815 
L 83.375901 77.450782 
L 87.153463 77.459306 
L 90.931026 77.613027 
L 94.708589 77.900782 
L 98.486152 77.9029 
L 102.263715 77.93162 
L 106.041278 78.455654 
L 109.818841 79.511434 
L 113.596404 79.532271 
L 117.373966 79.85493 
L 121.151529 80.027755 
L 124.929092 80.034923 
L 128.706655 80.736653 
L 132.484218 81.943689 
L 136.261781 82.54219 
L 140.039344 82.79568 
L 143.816906 82.835001 
L 147.594469 84.857157 
L 151.372032 84.92424 
L 155.149595 85.282018 
L 158.927158 85.852935 
L 162.704721 86.269089 
L 166.482284 86.623305 
L 170.259846 86.787016 
L 174.037409 86.850573 
L 177.814972 87.323885 
L 181.592535 87.328244 
L 185.370098 87.385462 
L 189.147661 87.603342 
L 192.925224 87.816053 
L 196.702787 88.055207 
L 200.480349 89.011659 
L 204.257912 89.271462 
L 208.035475 90.141003 
L 211.813038 90.352061 
L 215.590601 90.528587 
L 219.368164 91.054924 
L 223.145727 92.804591 
L 226.923289 92.880909 
L 230.700852 98.404319 
L 230.700852 95.72052 
L 230.700852 95.72052 
L 226.923289 90.159102 
L 223.145727 89.925341 
L 219.368164 88.678033 
L 215.590601 87.637492 
L 211.813038 87.567362 
L 208.035475 87.543751 
L 204.257912 86.504961 
L 200.480349 86.454445 
L 196.702787 85.795969 
L 192.925224 85.16109 
L 189.147661 85.056982 
L 185.370098 84.547536 
L 181.592535 84.545646 
L 177.814972 84.204656 
L 174.037409 84.178899 
L 170.259846 83.970194 
L 166.482284 83.80921 
L 162.704721 83.563752 
L 158.927158 83.128603 
L 155.149595 82.547433 
L 151.372032 82.386498 
L 147.594469 82.223004 
L 143.816906 80.36679 
L 140.039344 80.094612 
L 136.261781 79.588038 
L 132.484218 79.37517 
L 128.706655 78.044576 
L 124.929092 77.386548 
L 121.151529 77.188841 
L 117.373966 76.846024 
L 113.596404 76.802823 
L 109.818841 75.997622 
L 106.041278 75.060744 
L 102.263715 74.968002 
L 98.486152 74.96668 
L 94.708589 74.875661 
L 90.931026 74.561586 
L 87.153463 74.265397 
L 83.375901 74.099 
L 79.598338 74.061224 
L 75.820775 73.969644 
L 72.043212 73.768317 
L 68.265649 73.50748 
L 64.488086 73.428261 
L 60.710523 72.023473 
L 56.932961 71.721736 
L 53.155398 70.686239 
z
" style="fill:#845b97;fill-opacity:0.15;"/>
   </g>
   <g id="matplotlib.axis_1">
    <g id="xtick_1">
     <g id="line2d_1">
      <defs>
       <path d="M 0 0 
L 0 -3 
" id="m3eea314ca1" style="stroke:#000000;stroke-width:0.5;"/>
      </defs>
      <g>
       <use style="stroke:#000000;stroke-width:0.5;" x="53.155398" xlink:href="#m3eea314ca1" y="150.094219"/>
      </g>
     </g>
     <g id="line2d_2">
      <defs>
       <path d="M 0 0 
L 0 3 
" id="m5c04ff4ecd" style="stroke:#000000;stroke-width:0.5;"/>
      </defs>
      <g>
       <use style="stroke:#000000;stroke-width:0.5;" x="53.155398" xlink:href="#m5c04ff4ecd" y="7.399219"/>
      </g>
     </g>
     <g id="text_1">
      <!-- 0 -->
      <g transform="translate(49.974148 161.192656)scale(0.1 -0.1)">
       <defs>
        <path d="M 2034 4250 
Q 1547 4250 1301 3770 
Q 1056 3291 1056 2328 
Q 1056 1369 1301 889 
Q 1547 409 2034 409 
Q 2525 409 2770 889 
Q 3016 1369 3016 2328 
Q 3016 3291 2770 3770 
Q 2525 4250 2034 4250 
z
M 2034 4750 
Q 2819 4750 3233 4129 
Q 3647 3509 3647 2328 
Q 3647 1150 3233 529 
Q 2819 -91 2034 -91 
Q 1250 -91 836 529 
Q 422 1150 422 2328 
Q 422 3509 836 4129 
Q 1250 4750 2034 4750 
z
" id="DejaVuSans-30" transform="scale(0.015625)"/>
       </defs>
       <use xlink:href="#DejaVuSans-30"/>
      </g>
     </g>
    </g>
    <g id="xtick_2">
     <g id="line2d_3">
      <g>
       <use style="stroke:#000000;stroke-width:0.5;" x="90.931026" xlink:href="#m3eea314ca1" y="150.094219"/>
      </g>
     </g>
     <g id="line2d_4">
      <g>
       <use style="stroke:#000000;stroke-width:0.5;" x="90.931026" xlink:href="#m5c04ff4ecd" y="7.399219"/>
      </g>
     </g>
     <g id="text_2">
      <!-- 10 -->
      <g transform="translate(84.568526 161.192656)scale(0.1 -0.1)">
       <defs>
        <path d="M 794 531 
L 1825 531 
L 1825 4091 
L 703 3866 
L 703 4441 
L 1819 4666 
L 2450 4666 
L 2450 531 
L 3481 531 
L 3481 0 
L 794 0 
L 794 531 
z
" id="DejaVuSans-31" transform="scale(0.015625)"/>
       </defs>
       <use xlink:href="#DejaVuSans-31"/>
       <use x="63.623047" xlink:href="#DejaVuSans-30"/>
      </g>
     </g>
    </g>
    <g id="xtick_3">
     <g id="line2d_5">
      <g>
       <use style="stroke:#000000;stroke-width:0.5;" x="128.706655" xlink:href="#m3eea314ca1" y="150.094219"/>
      </g>
     </g>
     <g id="line2d_6">
      <g>
       <use style="stroke:#000000;stroke-width:0.5;" x="128.706655" xlink:href="#m5c04ff4ecd" y="7.399219"/>
      </g>
     </g>
     <g id="text_3">
      <!-- 20 -->
      <g transform="translate(122.344155 161.192656)scale(0.1 -0.1)">
       <defs>
        <path d="M 1228 531 
L 3431 531 
L 3431 0 
L 469 0 
L 469 531 
Q 828 903 1448 1529 
Q 2069 2156 2228 2338 
Q 2531 2678 2651 2914 
Q 2772 3150 2772 3378 
Q 2772 3750 2511 3984 
Q 2250 4219 1831 4219 
Q 1534 4219 1204 4116 
Q 875 4013 500 3803 
L 500 4441 
Q 881 4594 1212 4672 
Q 1544 4750 1819 4750 
Q 2544 4750 2975 4387 
Q 3406 4025 3406 3419 
Q 3406 3131 3298 2873 
Q 3191 2616 2906 2266 
Q 2828 2175 2409 1742 
Q 1991 1309 1228 531 
z
" id="DejaVuSans-32" transform="scale(0.015625)"/>
       </defs>
       <use xlink:href="#DejaVuSans-32"/>
       <use x="63.623047" xlink:href="#DejaVuSans-30"/>
      </g>
     </g>
    </g>
    <g id="xtick_4">
     <g id="line2d_7">
      <g>
       <use style="stroke:#000000;stroke-width:0.5;" x="166.482284" xlink:href="#m3eea314ca1" y="150.094219"/>
      </g>
     </g>
     <g id="line2d_8">
      <g>
       <use style="stroke:#000000;stroke-width:0.5;" x="166.482284" xlink:href="#m5c04ff4ecd" y="7.399219"/>
      </g>
     </g>
     <g id="text_4">
      <!-- 30 -->
      <g transform="translate(160.119784 161.192656)scale(0.1 -0.1)">
       <defs>
        <path d="M 2597 2516 
Q 3050 2419 3304 2112 
Q 3559 1806 3559 1356 
Q 3559 666 3084 287 
Q 2609 -91 1734 -91 
Q 1441 -91 1130 -33 
Q 819 25 488 141 
L 488 750 
Q 750 597 1062 519 
Q 1375 441 1716 441 
Q 2309 441 2620 675 
Q 2931 909 2931 1356 
Q 2931 1769 2642 2001 
Q 2353 2234 1838 2234 
L 1294 2234 
L 1294 2753 
L 1863 2753 
Q 2328 2753 2575 2939 
Q 2822 3125 2822 3475 
Q 2822 3834 2567 4026 
Q 2313 4219 1838 4219 
Q 1578 4219 1281 4162 
Q 984 4106 628 3988 
L 628 4550 
Q 988 4650 1302 4700 
Q 1616 4750 1894 4750 
Q 2613 4750 3031 4423 
Q 3450 4097 3450 3541 
Q 3450 3153 3228 2886 
Q 3006 2619 2597 2516 
z
" id="DejaVuSans-33" transform="scale(0.015625)"/>
       </defs>
       <use xlink:href="#DejaVuSans-33"/>
       <use x="63.623047" xlink:href="#DejaVuSans-30"/>
      </g>
     </g>
    </g>
    <g id="xtick_5">
     <g id="line2d_9">
      <g>
       <use style="stroke:#000000;stroke-width:0.5;" x="204.257912" xlink:href="#m3eea314ca1" y="150.094219"/>
      </g>
     </g>
     <g id="line2d_10">
      <g>
       <use style="stroke:#000000;stroke-width:0.5;" x="204.257912" xlink:href="#m5c04ff4ecd" y="7.399219"/>
      </g>
     </g>
     <g id="text_5">
      <!-- 40 -->
      <g transform="translate(197.895412 161.192656)scale(0.1 -0.1)">
       <defs>
        <path d="M 2419 4116 
L 825 1625 
L 2419 1625 
L 2419 4116 
z
M 2253 4666 
L 3047 4666 
L 3047 1625 
L 3713 1625 
L 3713 1100 
L 3047 1100 
L 3047 0 
L 2419 0 
L 2419 1100 
L 313 1100 
L 313 1709 
L 2253 4666 
z
" id="DejaVuSans-34" transform="scale(0.015625)"/>
       </defs>
       <use xlink:href="#DejaVuSans-34"/>
       <use x="63.623047" xlink:href="#DejaVuSans-30"/>
      </g>
     </g>
    </g>
    <g id="xtick_6">
     <g id="line2d_11">
      <defs>
       <path d="M 0 0 
L 0 -1.5 
" id="m9c6f5b8538" style="stroke:#000000;stroke-width:0.5;"/>
      </defs>
      <g>
       <use style="stroke:#000000;stroke-width:0.5;" x="45.600272" xlink:href="#m9c6f5b8538" y="150.094219"/>
      </g>
     </g>
     <g id="line2d_12">
      <defs>
       <path d="M 0 0 
L 0 1.5 
" id="mecb42e184e" style="stroke:#000000;stroke-width:0.5;"/>
      </defs>
      <g>
       <use style="stroke:#000000;stroke-width:0.5;" x="45.600272" xlink:href="#mecb42e184e" y="7.399219"/>
      </g>
     </g>
    </g>
    <g id="xtick_7">
     <g id="line2d_13">
      <g>
       <use style="stroke:#000000;stroke-width:0.5;" x="60.710523" xlink:href="#m9c6f5b8538" y="150.094219"/>
      </g>
     </g>
     <g id="line2d_14">
      <g>
       <use style="stroke:#000000;stroke-width:0.5;" x="60.710523" xlink:href="#mecb42e184e" y="7.399219"/>
      </g>
     </g>
    </g>
    <g id="xtick_8">
     <g id="line2d_15">
      <g>
       <use style="stroke:#000000;stroke-width:0.5;" x="68.265649" xlink:href="#m9c6f5b8538" y="150.094219"/>
      </g>
     </g>
     <g id="line2d_16">
      <g>
       <use style="stroke:#000000;stroke-width:0.5;" x="68.265649" xlink:href="#mecb42e184e" y="7.399219"/>
      </g>
     </g>
    </g>
    <g id="xtick_9">
     <g id="line2d_17">
      <g>
       <use style="stroke:#000000;stroke-width:0.5;" x="75.820775" xlink:href="#m9c6f5b8538" y="150.094219"/>
      </g>
     </g>
     <g id="line2d_18">
      <g>
       <use style="stroke:#000000;stroke-width:0.5;" x="75.820775" xlink:href="#mecb42e184e" y="7.399219"/>
      </g>
     </g>
    </g>
    <g id="xtick_10">
     <g id="line2d_19">
      <g>
       <use style="stroke:#000000;stroke-width:0.5;" x="83.375901" xlink:href="#m9c6f5b8538" y="150.094219"/>
      </g>
     </g>
     <g id="line2d_20">
      <g>
       <use style="stroke:#000000;stroke-width:0.5;" x="83.375901" xlink:href="#mecb42e184e" y="7.399219"/>
      </g>
     </g>
    </g>
    <g id="xtick_11">
     <g id="line2d_21">
      <g>
       <use style="stroke:#000000;stroke-width:0.5;" x="98.486152" xlink:href="#m9c6f5b8538" y="150.094219"/>
      </g>
     </g>
     <g id="line2d_22">
      <g>
       <use style="stroke:#000000;stroke-width:0.5;" x="98.486152" xlink:href="#mecb42e184e" y="7.399219"/>
      </g>
     </g>
    </g>
    <g id="xtick_12">
     <g id="line2d_23">
      <g>
       <use style="stroke:#000000;stroke-width:0.5;" x="106.041278" xlink:href="#m9c6f5b8538" y="150.094219"/>
      </g>
     </g>
     <g id="line2d_24">
      <g>
       <use style="stroke:#000000;stroke-width:0.5;" x="106.041278" xlink:href="#mecb42e184e" y="7.399219"/>
      </g>
     </g>
    </g>
    <g id="xtick_13">
     <g id="line2d_25">
      <g>
       <use style="stroke:#000000;stroke-width:0.5;" x="113.596404" xlink:href="#m9c6f5b8538" y="150.094219"/>
      </g>
     </g>
     <g id="line2d_26">
      <g>
       <use style="stroke:#000000;stroke-width:0.5;" x="113.596404" xlink:href="#mecb42e184e" y="7.399219"/>
      </g>
     </g>
    </g>
    <g id="xtick_14">
     <g id="line2d_27">
      <g>
       <use style="stroke:#000000;stroke-width:0.5;" x="121.151529" xlink:href="#m9c6f5b8538" y="150.094219"/>
      </g>
     </g>
     <g id="line2d_28">
      <g>
       <use style="stroke:#000000;stroke-width:0.5;" x="121.151529" xlink:href="#mecb42e184e" y="7.399219"/>
      </g>
     </g>
    </g>
    <g id="xtick_15">
     <g id="line2d_29">
      <g>
       <use style="stroke:#000000;stroke-width:0.5;" x="136.261781" xlink:href="#m9c6f5b8538" y="150.094219"/>
      </g>
     </g>
     <g id="line2d_30">
      <g>
       <use style="stroke:#000000;stroke-width:0.5;" x="136.261781" xlink:href="#mecb42e184e" y="7.399219"/>
      </g>
     </g>
    </g>
    <g id="xtick_16">
     <g id="line2d_31">
      <g>
       <use style="stroke:#000000;stroke-width:0.5;" x="143.816906" xlink:href="#m9c6f5b8538" y="150.094219"/>
      </g>
     </g>
     <g id="line2d_32">
      <g>
       <use style="stroke:#000000;stroke-width:0.5;" x="143.816906" xlink:href="#mecb42e184e" y="7.399219"/>
      </g>
     </g>
    </g>
    <g id="xtick_17">
     <g id="line2d_33">
      <g>
       <use style="stroke:#000000;stroke-width:0.5;" x="151.372032" xlink:href="#m9c6f5b8538" y="150.094219"/>
      </g>
     </g>
     <g id="line2d_34">
      <g>
       <use style="stroke:#000000;stroke-width:0.5;" x="151.372032" xlink:href="#mecb42e184e" y="7.399219"/>
      </g>
     </g>
    </g>
    <g id="xtick_18">
     <g id="line2d_35">
      <g>
       <use style="stroke:#000000;stroke-width:0.5;" x="158.927158" xlink:href="#m9c6f5b8538" y="150.094219"/>
      </g>
     </g>
     <g id="line2d_36">
      <g>
       <use style="stroke:#000000;stroke-width:0.5;" x="158.927158" xlink:href="#mecb42e184e" y="7.399219"/>
      </g>
     </g>
    </g>
    <g id="xtick_19">
     <g id="line2d_37">
      <g>
       <use style="stroke:#000000;stroke-width:0.5;" x="174.037409" xlink:href="#m9c6f5b8538" y="150.094219"/>
      </g>
     </g>
     <g id="line2d_38">
      <g>
       <use style="stroke:#000000;stroke-width:0.5;" x="174.037409" xlink:href="#mecb42e184e" y="7.399219"/>
      </g>
     </g>
    </g>
    <g id="xtick_20">
     <g id="line2d_39">
      <g>
       <use style="stroke:#000000;stroke-width:0.5;" x="181.592535" xlink:href="#m9c6f5b8538" y="150.094219"/>
      </g>
     </g>
     <g id="line2d_40">
      <g>
       <use style="stroke:#000000;stroke-width:0.5;" x="181.592535" xlink:href="#mecb42e184e" y="7.399219"/>
      </g>
     </g>
    </g>
    <g id="xtick_21">
     <g id="line2d_41">
      <g>
       <use style="stroke:#000000;stroke-width:0.5;" x="189.147661" xlink:href="#m9c6f5b8538" y="150.094219"/>
      </g>
     </g>
     <g id="line2d_42">
      <g>
       <use style="stroke:#000000;stroke-width:0.5;" x="189.147661" xlink:href="#mecb42e184e" y="7.399219"/>
      </g>
     </g>
    </g>
    <g id="xtick_22">
     <g id="line2d_43">
      <g>
       <use style="stroke:#000000;stroke-width:0.5;" x="196.702787" xlink:href="#m9c6f5b8538" y="150.094219"/>
      </g>
     </g>
     <g id="line2d_44">
      <g>
       <use style="stroke:#000000;stroke-width:0.5;" x="196.702787" xlink:href="#mecb42e184e" y="7.399219"/>
      </g>
     </g>
    </g>
    <g id="xtick_23">
     <g id="line2d_45">
      <g>
       <use style="stroke:#000000;stroke-width:0.5;" x="211.813038" xlink:href="#m9c6f5b8538" y="150.094219"/>
      </g>
     </g>
     <g id="line2d_46">
      <g>
       <use style="stroke:#000000;stroke-width:0.5;" x="211.813038" xlink:href="#mecb42e184e" y="7.399219"/>
      </g>
     </g>
    </g>
    <g id="xtick_24">
     <g id="line2d_47">
      <g>
       <use style="stroke:#000000;stroke-width:0.5;" x="219.368164" xlink:href="#m9c6f5b8538" y="150.094219"/>
      </g>
     </g>
     <g id="line2d_48">
      <g>
       <use style="stroke:#000000;stroke-width:0.5;" x="219.368164" xlink:href="#mecb42e184e" y="7.399219"/>
      </g>
     </g>
    </g>
    <g id="xtick_25">
     <g id="line2d_49">
      <g>
       <use style="stroke:#000000;stroke-width:0.5;" x="226.923289" xlink:href="#m9c6f5b8538" y="150.094219"/>
      </g>
     </g>
     <g id="line2d_50">
      <g>
       <use style="stroke:#000000;stroke-width:0.5;" x="226.923289" xlink:href="#mecb42e184e" y="7.399219"/>
      </g>
     </g>
    </g>
    <g id="xtick_26">
     <g id="line2d_51">
      <g>
       <use style="stroke:#000000;stroke-width:0.5;" x="234.478415" xlink:href="#m9c6f5b8538" y="150.094219"/>
      </g>
     </g>
     <g id="line2d_52">
      <g>
       <use style="stroke:#000000;stroke-width:0.5;" x="234.478415" xlink:href="#mecb42e184e" y="7.399219"/>
      </g>
     </g>
    </g>
    <g id="text_6">
     <!-- # Events -->
     <g transform="translate(119.220313 174.870781)scale(0.1 -0.1)">
      <defs>
       <path d="M 3272 2816 
L 2363 2816 
L 2100 1772 
L 3016 1772 
L 3272 2816 
z
M 2803 4594 
L 2478 3297 
L 3391 3297 
L 3719 4594 
L 4219 4594 
L 3897 3297 
L 4872 3297 
L 4872 2816 
L 3775 2816 
L 3519 1772 
L 4513 1772 
L 4513 1294 
L 3397 1294 
L 3072 0 
L 2572 0 
L 2894 1294 
L 1978 1294 
L 1656 0 
L 1153 0 
L 1478 1294 
L 494 1294 
L 494 1772 
L 1594 1772 
L 1856 2816 
L 850 2816 
L 850 3297 
L 1978 3297 
L 2297 4594 
L 2803 4594 
z
" id="DejaVuSans-23" transform="scale(0.015625)"/>
       <path id="DejaVuSans-20" transform="scale(0.015625)"/>
       <path d="M 628 4666 
L 3578 4666 
L 3578 4134 
L 1259 4134 
L 1259 2753 
L 3481 2753 
L 3481 2222 
L 1259 2222 
L 1259 531 
L 3634 531 
L 3634 0 
L 628 0 
L 628 4666 
z
" id="DejaVuSans-45" transform="scale(0.015625)"/>
       <path d="M 191 3500 
L 800 3500 
L 1894 563 
L 2988 3500 
L 3597 3500 
L 2284 0 
L 1503 0 
L 191 3500 
z
" id="DejaVuSans-76" transform="scale(0.015625)"/>
       <path d="M 3597 1894 
L 3597 1613 
L 953 1613 
Q 991 1019 1311 708 
Q 1631 397 2203 397 
Q 2534 397 2845 478 
Q 3156 559 3463 722 
L 3463 178 
Q 3153 47 2828 -22 
Q 2503 -91 2169 -91 
Q 1331 -91 842 396 
Q 353 884 353 1716 
Q 353 2575 817 3079 
Q 1281 3584 2069 3584 
Q 2775 3584 3186 3129 
Q 3597 2675 3597 1894 
z
M 3022 2063 
Q 3016 2534 2758 2815 
Q 2500 3097 2075 3097 
Q 1594 3097 1305 2825 
Q 1016 2553 972 2059 
L 3022 2063 
z
" id="DejaVuSans-65" transform="scale(0.015625)"/>
       <path d="M 3513 2113 
L 3513 0 
L 2938 0 
L 2938 2094 
Q 2938 2591 2744 2837 
Q 2550 3084 2163 3084 
Q 1697 3084 1428 2787 
Q 1159 2491 1159 1978 
L 1159 0 
L 581 0 
L 581 3500 
L 1159 3500 
L 1159 2956 
Q 1366 3272 1645 3428 
Q 1925 3584 2291 3584 
Q 2894 3584 3203 3211 
Q 3513 2838 3513 2113 
z
" id="DejaVuSans-6e" transform="scale(0.015625)"/>
       <path d="M 1172 4494 
L 1172 3500 
L 2356 3500 
L 2356 3053 
L 1172 3053 
L 1172 1153 
Q 1172 725 1289 603 
Q 1406 481 1766 481 
L 2356 481 
L 2356 0 
L 1766 0 
Q 1100 0 847 248 
Q 594 497 594 1153 
L 594 3053 
L 172 3053 
L 172 3500 
L 594 3500 
L 594 4494 
L 1172 4494 
z
" id="DejaVuSans-74" transform="scale(0.015625)"/>
       <path d="M 2834 3397 
L 2834 2853 
Q 2591 2978 2328 3040 
Q 2066 3103 1784 3103 
Q 1356 3103 1142 2972 
Q 928 2841 928 2578 
Q 928 2378 1081 2264 
Q 1234 2150 1697 2047 
L 1894 2003 
Q 2506 1872 2764 1633 
Q 3022 1394 3022 966 
Q 3022 478 2636 193 
Q 2250 -91 1575 -91 
Q 1294 -91 989 -36 
Q 684 19 347 128 
L 347 722 
Q 666 556 975 473 
Q 1284 391 1588 391 
Q 1994 391 2212 530 
Q 2431 669 2431 922 
Q 2431 1156 2273 1281 
Q 2116 1406 1581 1522 
L 1381 1569 
Q 847 1681 609 1914 
Q 372 2147 372 2553 
Q 372 3047 722 3315 
Q 1072 3584 1716 3584 
Q 2034 3584 2315 3537 
Q 2597 3491 2834 3397 
z
" id="DejaVuSans-73" transform="scale(0.015625)"/>
      </defs>
      <use xlink:href="#DejaVuSans-23"/>
      <use x="83.789062" xlink:href="#DejaVuSans-20"/>
      <use x="115.576172" xlink:href="#DejaVuSans-45"/>
      <use x="178.759766" xlink:href="#DejaVuSans-76"/>
      <use x="237.939453" xlink:href="#DejaVuSans-65"/>
      <use x="299.462891" xlink:href="#DejaVuSans-6e"/>
      <use x="362.841797" xlink:href="#DejaVuSans-74"/>
      <use x="402.050781" xlink:href="#DejaVuSans-73"/>
     </g>
    </g>
   </g>
   <g id="matplotlib.axis_2">
    <g id="ytick_1">
     <g id="line2d_53">
      <defs>
       <path d="M 0 0 
L 3 0 
" id="mf071e3d587" style="stroke:#000000;stroke-width:0.5;"/>
      </defs>
      <g>
       <use style="stroke:#000000;stroke-width:0.5;" x="44.278125" xlink:href="#mf071e3d587" y="150.094219"/>
      </g>
     </g>
     <g id="line2d_54">
      <defs>
       <path d="M 0 0 
L -3 0 
" id="mfe0344f3b2" style="stroke:#000000;stroke-width:0.5;"/>
      </defs>
      <g>
       <use style="stroke:#000000;stroke-width:0.5;" x="239.578125" xlink:href="#mfe0344f3b2" y="150.094219"/>
      </g>
     </g>
     <g id="text_7">
      <!-- $\mathdefault{10^{-5}}$ -->
      <g transform="translate(17.278125 153.893437)scale(0.1 -0.1)">
       <defs>
        <path d="M 678 2272 
L 4684 2272 
L 4684 1741 
L 678 1741 
L 678 2272 
z
" id="DejaVuSans-2212" transform="scale(0.015625)"/>
        <path d="M 691 4666 
L 3169 4666 
L 3169 4134 
L 1269 4134 
L 1269 2991 
Q 1406 3038 1543 3061 
Q 1681 3084 1819 3084 
Q 2600 3084 3056 2656 
Q 3513 2228 3513 1497 
Q 3513 744 3044 326 
Q 2575 -91 1722 -91 
Q 1428 -91 1123 -41 
Q 819 9 494 109 
L 494 744 
Q 775 591 1075 516 
Q 1375 441 1709 441 
Q 2250 441 2565 725 
Q 2881 1009 2881 1497 
Q 2881 1984 2565 2268 
Q 2250 2553 1709 2553 
Q 1456 2553 1204 2497 
Q 953 2441 691 2322 
L 691 4666 
z
" id="DejaVuSans-35" transform="scale(0.015625)"/>
       </defs>
       <use transform="translate(0 0.684375)" xlink:href="#DejaVuSans-31"/>
       <use transform="translate(63.623047 0.684375)" xlink:href="#DejaVuSans-30"/>
       <use transform="translate(128.203125 38.965625)scale(0.7)" xlink:href="#DejaVuSans-2212"/>
       <use transform="translate(186.855469 38.965625)scale(0.7)" xlink:href="#DejaVuSans-35"/>
      </g>
     </g>
    </g>
    <g id="ytick_2">
     <g id="line2d_55">
      <g>
       <use style="stroke:#000000;stroke-width:0.5;" x="44.278125" xlink:href="#mf071e3d587" y="121.555219"/>
      </g>
     </g>
     <g id="line2d_56">
      <g>
       <use style="stroke:#000000;stroke-width:0.5;" x="239.578125" xlink:href="#mfe0344f3b2" y="121.555219"/>
      </g>
     </g>
     <g id="text_8">
      <!-- $\mathdefault{10^{-4}}$ -->
      <g transform="translate(17.278125 125.354437)scale(0.1 -0.1)">
       <use transform="translate(0 0.684375)" xlink:href="#DejaVuSans-31"/>
       <use transform="translate(63.623047 0.684375)" xlink:href="#DejaVuSans-30"/>
       <use transform="translate(128.203125 38.965625)scale(0.7)" xlink:href="#DejaVuSans-2212"/>
       <use transform="translate(186.855469 38.965625)scale(0.7)" xlink:href="#DejaVuSans-34"/>
      </g>
     </g>
    </g>
    <g id="ytick_3">
     <g id="line2d_57">
      <g>
       <use style="stroke:#000000;stroke-width:0.5;" x="44.278125" xlink:href="#mf071e3d587" y="93.016219"/>
      </g>
     </g>
     <g id="line2d_58">
      <g>
       <use style="stroke:#000000;stroke-width:0.5;" x="239.578125" xlink:href="#mfe0344f3b2" y="93.016219"/>
      </g>
     </g>
     <g id="text_9">
      <!-- $\mathdefault{10^{-3}}$ -->
      <g transform="translate(17.278125 96.815437)scale(0.1 -0.1)">
       <use transform="translate(0 0.765625)" xlink:href="#DejaVuSans-31"/>
       <use transform="translate(63.623047 0.765625)" xlink:href="#DejaVuSans-30"/>
       <use transform="translate(128.203125 39.046875)scale(0.7)" xlink:href="#DejaVuSans-2212"/>
       <use transform="translate(186.855469 39.046875)scale(0.7)" xlink:href="#DejaVuSans-33"/>
      </g>
     </g>
    </g>
    <g id="ytick_4">
     <g id="line2d_59">
      <g>
       <use style="stroke:#000000;stroke-width:0.5;" x="44.278125" xlink:href="#mf071e3d587" y="64.477219"/>
      </g>
     </g>
     <g id="line2d_60">
      <g>
       <use style="stroke:#000000;stroke-width:0.5;" x="239.578125" xlink:href="#mfe0344f3b2" y="64.477219"/>
      </g>
     </g>
     <g id="text_10">
      <!-- $\mathdefault{10^{-2}}$ -->
      <g transform="translate(17.278125 68.276437)scale(0.1 -0.1)">
       <use transform="translate(0 0.765625)" xlink:href="#DejaVuSans-31"/>
       <use transform="translate(63.623047 0.765625)" xlink:href="#DejaVuSans-30"/>
       <use transform="translate(128.203125 39.046875)scale(0.7)" xlink:href="#DejaVuSans-2212"/>
       <use transform="translate(186.855469 39.046875)scale(0.7)" xlink:href="#DejaVuSans-32"/>
      </g>
     </g>
    </g>
    <g id="ytick_5">
     <g id="line2d_61">
      <g>
       <use style="stroke:#000000;stroke-width:0.5;" x="44.278125" xlink:href="#mf071e3d587" y="35.938219"/>
      </g>
     </g>
     <g id="line2d_62">
      <g>
       <use style="stroke:#000000;stroke-width:0.5;" x="239.578125" xlink:href="#mfe0344f3b2" y="35.938219"/>
      </g>
     </g>
     <g id="text_11">
      <!-- $\mathdefault{10^{-1}}$ -->
      <g transform="translate(17.278125 39.737437)scale(0.1 -0.1)">
       <use transform="translate(0 0.684375)" xlink:href="#DejaVuSans-31"/>
       <use transform="translate(63.623047 0.684375)" xlink:href="#DejaVuSans-30"/>
       <use transform="translate(128.203125 38.965625)scale(0.7)" xlink:href="#DejaVuSans-2212"/>
       <use transform="translate(186.855469 38.965625)scale(0.7)" xlink:href="#DejaVuSans-31"/>
      </g>
     </g>
    </g>
    <g id="ytick_6">
     <g id="line2d_63">
      <g>
       <use style="stroke:#000000;stroke-width:0.5;" x="44.278125" xlink:href="#mf071e3d587" y="7.399219"/>
      </g>
     </g>
     <g id="line2d_64">
      <g>
       <use style="stroke:#000000;stroke-width:0.5;" x="239.578125" xlink:href="#mfe0344f3b2" y="7.399219"/>
      </g>
     </g>
     <g id="text_12">
      <!-- $\mathdefault{10^{0}}$ -->
      <g transform="translate(23.178125 11.198437)scale(0.1 -0.1)">
       <use transform="translate(0 0.765625)" xlink:href="#DejaVuSans-31"/>
       <use transform="translate(63.623047 0.765625)" xlink:href="#DejaVuSans-30"/>
       <use transform="translate(128.203125 39.046875)scale(0.7)" xlink:href="#DejaVuSans-30"/>
      </g>
     </g>
    </g>
    <g id="ytick_7">
     <g id="line2d_65">
      <defs>
       <path d="M 0 0 
L 1.5 0 
" id="mde35c43c2e" style="stroke:#000000;stroke-width:0.5;"/>
      </defs>
      <g>
       <use style="stroke:#000000;stroke-width:0.5;" x="44.278125" xlink:href="#mde35c43c2e" y="141.503124"/>
      </g>
     </g>
     <g id="line2d_66">
      <defs>
       <path d="M 0 0 
L -1.5 0 
" id="ma312b2ba67" style="stroke:#000000;stroke-width:0.5;"/>
      </defs>
      <g>
       <use style="stroke:#000000;stroke-width:0.5;" x="239.578125" xlink:href="#ma312b2ba67" y="141.503124"/>
      </g>
     </g>
    </g>
    <g id="ytick_8">
     <g id="line2d_67">
      <g>
       <use style="stroke:#000000;stroke-width:0.5;" x="44.278125" xlink:href="#mde35c43c2e" y="136.477655"/>
      </g>
     </g>
     <g id="line2d_68">
      <g>
       <use style="stroke:#000000;stroke-width:0.5;" x="239.578125" xlink:href="#ma312b2ba67" y="136.477655"/>
      </g>
     </g>
    </g>
    <g id="ytick_9">
     <g id="line2d_69">
      <g>
       <use style="stroke:#000000;stroke-width:0.5;" x="44.278125" xlink:href="#mde35c43c2e" y="132.912029"/>
      </g>
     </g>
     <g id="line2d_70">
      <g>
       <use style="stroke:#000000;stroke-width:0.5;" x="239.578125" xlink:href="#ma312b2ba67" y="132.912029"/>
      </g>
     </g>
    </g>
    <g id="ytick_10">
     <g id="line2d_71">
      <g>
       <use style="stroke:#000000;stroke-width:0.5;" x="44.278125" xlink:href="#mde35c43c2e" y="130.146314"/>
      </g>
     </g>
     <g id="line2d_72">
      <g>
       <use style="stroke:#000000;stroke-width:0.5;" x="239.578125" xlink:href="#ma312b2ba67" y="130.146314"/>
      </g>
     </g>
    </g>
    <g id="ytick_11">
     <g id="line2d_73">
      <g>
       <use style="stroke:#000000;stroke-width:0.5;" x="44.278125" xlink:href="#mde35c43c2e" y="127.88656"/>
      </g>
     </g>
     <g id="line2d_74">
      <g>
       <use style="stroke:#000000;stroke-width:0.5;" x="239.578125" xlink:href="#ma312b2ba67" y="127.88656"/>
      </g>
     </g>
    </g>
    <g id="ytick_12">
     <g id="line2d_75">
      <g>
       <use style="stroke:#000000;stroke-width:0.5;" x="44.278125" xlink:href="#mde35c43c2e" y="125.975966"/>
      </g>
     </g>
     <g id="line2d_76">
      <g>
       <use style="stroke:#000000;stroke-width:0.5;" x="239.578125" xlink:href="#ma312b2ba67" y="125.975966"/>
      </g>
     </g>
    </g>
    <g id="ytick_13">
     <g id="line2d_77">
      <g>
       <use style="stroke:#000000;stroke-width:0.5;" x="44.278125" xlink:href="#mde35c43c2e" y="124.320934"/>
      </g>
     </g>
     <g id="line2d_78">
      <g>
       <use style="stroke:#000000;stroke-width:0.5;" x="239.578125" xlink:href="#ma312b2ba67" y="124.320934"/>
      </g>
     </g>
    </g>
    <g id="ytick_14">
     <g id="line2d_79">
      <g>
       <use style="stroke:#000000;stroke-width:0.5;" x="44.278125" xlink:href="#mde35c43c2e" y="122.861092"/>
      </g>
     </g>
     <g id="line2d_80">
      <g>
       <use style="stroke:#000000;stroke-width:0.5;" x="239.578125" xlink:href="#ma312b2ba67" y="122.861092"/>
      </g>
     </g>
    </g>
    <g id="ytick_15">
     <g id="line2d_81">
      <g>
       <use style="stroke:#000000;stroke-width:0.5;" x="44.278125" xlink:href="#mde35c43c2e" y="112.964124"/>
      </g>
     </g>
     <g id="line2d_82">
      <g>
       <use style="stroke:#000000;stroke-width:0.5;" x="239.578125" xlink:href="#ma312b2ba67" y="112.964124"/>
      </g>
     </g>
    </g>
    <g id="ytick_16">
     <g id="line2d_83">
      <g>
       <use style="stroke:#000000;stroke-width:0.5;" x="44.278125" xlink:href="#mde35c43c2e" y="107.938655"/>
      </g>
     </g>
     <g id="line2d_84">
      <g>
       <use style="stroke:#000000;stroke-width:0.5;" x="239.578125" xlink:href="#ma312b2ba67" y="107.938655"/>
      </g>
     </g>
    </g>
    <g id="ytick_17">
     <g id="line2d_85">
      <g>
       <use style="stroke:#000000;stroke-width:0.5;" x="44.278125" xlink:href="#mde35c43c2e" y="104.373029"/>
      </g>
     </g>
     <g id="line2d_86">
      <g>
       <use style="stroke:#000000;stroke-width:0.5;" x="239.578125" xlink:href="#ma312b2ba67" y="104.373029"/>
      </g>
     </g>
    </g>
    <g id="ytick_18">
     <g id="line2d_87">
      <g>
       <use style="stroke:#000000;stroke-width:0.5;" x="44.278125" xlink:href="#mde35c43c2e" y="101.607314"/>
      </g>
     </g>
     <g id="line2d_88">
      <g>
       <use style="stroke:#000000;stroke-width:0.5;" x="239.578125" xlink:href="#ma312b2ba67" y="101.607314"/>
      </g>
     </g>
    </g>
    <g id="ytick_19">
     <g id="line2d_89">
      <g>
       <use style="stroke:#000000;stroke-width:0.5;" x="44.278125" xlink:href="#mde35c43c2e" y="99.34756"/>
      </g>
     </g>
     <g id="line2d_90">
      <g>
       <use style="stroke:#000000;stroke-width:0.5;" x="239.578125" xlink:href="#ma312b2ba67" y="99.34756"/>
      </g>
     </g>
    </g>
    <g id="ytick_20">
     <g id="line2d_91">
      <g>
       <use style="stroke:#000000;stroke-width:0.5;" x="44.278125" xlink:href="#mde35c43c2e" y="97.436966"/>
      </g>
     </g>
     <g id="line2d_92">
      <g>
       <use style="stroke:#000000;stroke-width:0.5;" x="239.578125" xlink:href="#ma312b2ba67" y="97.436966"/>
      </g>
     </g>
    </g>
    <g id="ytick_21">
     <g id="line2d_93">
      <g>
       <use style="stroke:#000000;stroke-width:0.5;" x="44.278125" xlink:href="#mde35c43c2e" y="95.781934"/>
      </g>
     </g>
     <g id="line2d_94">
      <g>
       <use style="stroke:#000000;stroke-width:0.5;" x="239.578125" xlink:href="#ma312b2ba67" y="95.781934"/>
      </g>
     </g>
    </g>
    <g id="ytick_22">
     <g id="line2d_95">
      <g>
       <use style="stroke:#000000;stroke-width:0.5;" x="44.278125" xlink:href="#mde35c43c2e" y="94.322092"/>
      </g>
     </g>
     <g id="line2d_96">
      <g>
       <use style="stroke:#000000;stroke-width:0.5;" x="239.578125" xlink:href="#ma312b2ba67" y="94.322092"/>
      </g>
     </g>
    </g>
    <g id="ytick_23">
     <g id="line2d_97">
      <g>
       <use style="stroke:#000000;stroke-width:0.5;" x="44.278125" xlink:href="#mde35c43c2e" y="84.425124"/>
      </g>
     </g>
     <g id="line2d_98">
      <g>
       <use style="stroke:#000000;stroke-width:0.5;" x="239.578125" xlink:href="#ma312b2ba67" y="84.425124"/>
      </g>
     </g>
    </g>
    <g id="ytick_24">
     <g id="line2d_99">
      <g>
       <use style="stroke:#000000;stroke-width:0.5;" x="44.278125" xlink:href="#mde35c43c2e" y="79.399655"/>
      </g>
     </g>
     <g id="line2d_100">
      <g>
       <use style="stroke:#000000;stroke-width:0.5;" x="239.578125" xlink:href="#ma312b2ba67" y="79.399655"/>
      </g>
     </g>
    </g>
    <g id="ytick_25">
     <g id="line2d_101">
      <g>
       <use style="stroke:#000000;stroke-width:0.5;" x="44.278125" xlink:href="#mde35c43c2e" y="75.834029"/>
      </g>
     </g>
     <g id="line2d_102">
      <g>
       <use style="stroke:#000000;stroke-width:0.5;" x="239.578125" xlink:href="#ma312b2ba67" y="75.834029"/>
      </g>
     </g>
    </g>
    <g id="ytick_26">
     <g id="line2d_103">
      <g>
       <use style="stroke:#000000;stroke-width:0.5;" x="44.278125" xlink:href="#mde35c43c2e" y="73.068314"/>
      </g>
     </g>
     <g id="line2d_104">
      <g>
       <use style="stroke:#000000;stroke-width:0.5;" x="239.578125" xlink:href="#ma312b2ba67" y="73.068314"/>
      </g>
     </g>
    </g>
    <g id="ytick_27">
     <g id="line2d_105">
      <g>
       <use style="stroke:#000000;stroke-width:0.5;" x="44.278125" xlink:href="#mde35c43c2e" y="70.80856"/>
      </g>
     </g>
     <g id="line2d_106">
      <g>
       <use style="stroke:#000000;stroke-width:0.5;" x="239.578125" xlink:href="#ma312b2ba67" y="70.80856"/>
      </g>
     </g>
    </g>
    <g id="ytick_28">
     <g id="line2d_107">
      <g>
       <use style="stroke:#000000;stroke-width:0.5;" x="44.278125" xlink:href="#mde35c43c2e" y="68.897966"/>
      </g>
     </g>
     <g id="line2d_108">
      <g>
       <use style="stroke:#000000;stroke-width:0.5;" x="239.578125" xlink:href="#ma312b2ba67" y="68.897966"/>
      </g>
     </g>
    </g>
    <g id="ytick_29">
     <g id="line2d_109">
      <g>
       <use style="stroke:#000000;stroke-width:0.5;" x="44.278125" xlink:href="#mde35c43c2e" y="67.242934"/>
      </g>
     </g>
     <g id="line2d_110">
      <g>
       <use style="stroke:#000000;stroke-width:0.5;" x="239.578125" xlink:href="#ma312b2ba67" y="67.242934"/>
      </g>
     </g>
    </g>
    <g id="ytick_30">
     <g id="line2d_111">
      <g>
       <use style="stroke:#000000;stroke-width:0.5;" x="44.278125" xlink:href="#mde35c43c2e" y="65.783092"/>
      </g>
     </g>
     <g id="line2d_112">
      <g>
       <use style="stroke:#000000;stroke-width:0.5;" x="239.578125" xlink:href="#ma312b2ba67" y="65.783092"/>
      </g>
     </g>
    </g>
    <g id="ytick_31">
     <g id="line2d_113">
      <g>
       <use style="stroke:#000000;stroke-width:0.5;" x="44.278125" xlink:href="#mde35c43c2e" y="55.886124"/>
      </g>
     </g>
     <g id="line2d_114">
      <g>
       <use style="stroke:#000000;stroke-width:0.5;" x="239.578125" xlink:href="#ma312b2ba67" y="55.886124"/>
      </g>
     </g>
    </g>
    <g id="ytick_32">
     <g id="line2d_115">
      <g>
       <use style="stroke:#000000;stroke-width:0.5;" x="44.278125" xlink:href="#mde35c43c2e" y="50.860655"/>
      </g>
     </g>
     <g id="line2d_116">
      <g>
       <use style="stroke:#000000;stroke-width:0.5;" x="239.578125" xlink:href="#ma312b2ba67" y="50.860655"/>
      </g>
     </g>
    </g>
    <g id="ytick_33">
     <g id="line2d_117">
      <g>
       <use style="stroke:#000000;stroke-width:0.5;" x="44.278125" xlink:href="#mde35c43c2e" y="47.295029"/>
      </g>
     </g>
     <g id="line2d_118">
      <g>
       <use style="stroke:#000000;stroke-width:0.5;" x="239.578125" xlink:href="#ma312b2ba67" y="47.295029"/>
      </g>
     </g>
    </g>
    <g id="ytick_34">
     <g id="line2d_119">
      <g>
       <use style="stroke:#000000;stroke-width:0.5;" x="44.278125" xlink:href="#mde35c43c2e" y="44.529314"/>
      </g>
     </g>
     <g id="line2d_120">
      <g>
       <use style="stroke:#000000;stroke-width:0.5;" x="239.578125" xlink:href="#ma312b2ba67" y="44.529314"/>
      </g>
     </g>
    </g>
    <g id="ytick_35">
     <g id="line2d_121">
      <g>
       <use style="stroke:#000000;stroke-width:0.5;" x="44.278125" xlink:href="#mde35c43c2e" y="42.26956"/>
      </g>
     </g>
     <g id="line2d_122">
      <g>
       <use style="stroke:#000000;stroke-width:0.5;" x="239.578125" xlink:href="#ma312b2ba67" y="42.26956"/>
      </g>
     </g>
    </g>
    <g id="ytick_36">
     <g id="line2d_123">
      <g>
       <use style="stroke:#000000;stroke-width:0.5;" x="44.278125" xlink:href="#mde35c43c2e" y="40.358966"/>
      </g>
     </g>
     <g id="line2d_124">
      <g>
       <use style="stroke:#000000;stroke-width:0.5;" x="239.578125" xlink:href="#ma312b2ba67" y="40.358966"/>
      </g>
     </g>
    </g>
    <g id="ytick_37">
     <g id="line2d_125">
      <g>
       <use style="stroke:#000000;stroke-width:0.5;" x="44.278125" xlink:href="#mde35c43c2e" y="38.703934"/>
      </g>
     </g>
     <g id="line2d_126">
      <g>
       <use style="stroke:#000000;stroke-width:0.5;" x="239.578125" xlink:href="#ma312b2ba67" y="38.703934"/>
      </g>
     </g>
    </g>
    <g id="ytick_38">
     <g id="line2d_127">
      <g>
       <use style="stroke:#000000;stroke-width:0.5;" x="44.278125" xlink:href="#mde35c43c2e" y="37.244092"/>
      </g>
     </g>
     <g id="line2d_128">
      <g>
       <use style="stroke:#000000;stroke-width:0.5;" x="239.578125" xlink:href="#ma312b2ba67" y="37.244092"/>
      </g>
     </g>
    </g>
    <g id="ytick_39">
     <g id="line2d_129">
      <g>
       <use style="stroke:#000000;stroke-width:0.5;" x="44.278125" xlink:href="#mde35c43c2e" y="27.347124"/>
      </g>
     </g>
     <g id="line2d_130">
      <g>
       <use style="stroke:#000000;stroke-width:0.5;" x="239.578125" xlink:href="#ma312b2ba67" y="27.347124"/>
      </g>
     </g>
    </g>
    <g id="ytick_40">
     <g id="line2d_131">
      <g>
       <use style="stroke:#000000;stroke-width:0.5;" x="44.278125" xlink:href="#mde35c43c2e" y="22.321655"/>
      </g>
     </g>
     <g id="line2d_132">
      <g>
       <use style="stroke:#000000;stroke-width:0.5;" x="239.578125" xlink:href="#ma312b2ba67" y="22.321655"/>
      </g>
     </g>
    </g>
    <g id="ytick_41">
     <g id="line2d_133">
      <g>
       <use style="stroke:#000000;stroke-width:0.5;" x="44.278125" xlink:href="#mde35c43c2e" y="18.756029"/>
      </g>
     </g>
     <g id="line2d_134">
      <g>
       <use style="stroke:#000000;stroke-width:0.5;" x="239.578125" xlink:href="#ma312b2ba67" y="18.756029"/>
      </g>
     </g>
    </g>
    <g id="ytick_42">
     <g id="line2d_135">
      <g>
       <use style="stroke:#000000;stroke-width:0.5;" x="44.278125" xlink:href="#mde35c43c2e" y="15.990314"/>
      </g>
     </g>
     <g id="line2d_136">
      <g>
       <use style="stroke:#000000;stroke-width:0.5;" x="239.578125" xlink:href="#ma312b2ba67" y="15.990314"/>
      </g>
     </g>
    </g>
    <g id="ytick_43">
     <g id="line2d_137">
      <g>
       <use style="stroke:#000000;stroke-width:0.5;" x="44.278125" xlink:href="#mde35c43c2e" y="13.73056"/>
      </g>
     </g>
     <g id="line2d_138">
      <g>
       <use style="stroke:#000000;stroke-width:0.5;" x="239.578125" xlink:href="#ma312b2ba67" y="13.73056"/>
      </g>
     </g>
    </g>
    <g id="ytick_44">
     <g id="line2d_139">
      <g>
       <use style="stroke:#000000;stroke-width:0.5;" x="44.278125" xlink:href="#mde35c43c2e" y="11.819966"/>
      </g>
     </g>
     <g id="line2d_140">
      <g>
       <use style="stroke:#000000;stroke-width:0.5;" x="239.578125" xlink:href="#ma312b2ba67" y="11.819966"/>
      </g>
     </g>
    </g>
    <g id="ytick_45">
     <g id="line2d_141">
      <g>
       <use style="stroke:#000000;stroke-width:0.5;" x="44.278125" xlink:href="#mde35c43c2e" y="10.164934"/>
      </g>
     </g>
     <g id="line2d_142">
      <g>
       <use style="stroke:#000000;stroke-width:0.5;" x="239.578125" xlink:href="#ma312b2ba67" y="10.164934"/>
      </g>
     </g>
    </g>
    <g id="ytick_46">
     <g id="line2d_143">
      <g>
       <use style="stroke:#000000;stroke-width:0.5;" x="44.278125" xlink:href="#mde35c43c2e" y="8.705092"/>
      </g>
     </g>
     <g id="line2d_144">
      <g>
       <use style="stroke:#000000;stroke-width:0.5;" x="239.578125" xlink:href="#ma312b2ba67" y="8.705092"/>
      </g>
     </g>
    </g>
    <g id="text_13">
     <!-- Voltage / V -->
     <g transform="translate(11.198438 105.785781)rotate(-90)scale(0.1 -0.1)">
      <defs>
       <path d="M 1831 0 
L 50 4666 
L 709 4666 
L 2188 738 
L 3669 4666 
L 4325 4666 
L 2547 0 
L 1831 0 
z
" id="DejaVuSans-56" transform="scale(0.015625)"/>
       <path d="M 1959 3097 
Q 1497 3097 1228 2736 
Q 959 2375 959 1747 
Q 959 1119 1226 758 
Q 1494 397 1959 397 
Q 2419 397 2687 759 
Q 2956 1122 2956 1747 
Q 2956 2369 2687 2733 
Q 2419 3097 1959 3097 
z
M 1959 3584 
Q 2709 3584 3137 3096 
Q 3566 2609 3566 1747 
Q 3566 888 3137 398 
Q 2709 -91 1959 -91 
Q 1206 -91 779 398 
Q 353 888 353 1747 
Q 353 2609 779 3096 
Q 1206 3584 1959 3584 
z
" id="DejaVuSans-6f" transform="scale(0.015625)"/>
       <path d="M 603 4863 
L 1178 4863 
L 1178 0 
L 603 0 
L 603 4863 
z
" id="DejaVuSans-6c" transform="scale(0.015625)"/>
       <path d="M 2194 1759 
Q 1497 1759 1228 1600 
Q 959 1441 959 1056 
Q 959 750 1161 570 
Q 1363 391 1709 391 
Q 2188 391 2477 730 
Q 2766 1069 2766 1631 
L 2766 1759 
L 2194 1759 
z
M 3341 1997 
L 3341 0 
L 2766 0 
L 2766 531 
Q 2569 213 2275 61 
Q 1981 -91 1556 -91 
Q 1019 -91 701 211 
Q 384 513 384 1019 
Q 384 1609 779 1909 
Q 1175 2209 1959 2209 
L 2766 2209 
L 2766 2266 
Q 2766 2663 2505 2880 
Q 2244 3097 1772 3097 
Q 1472 3097 1187 3025 
Q 903 2953 641 2809 
L 641 3341 
Q 956 3463 1253 3523 
Q 1550 3584 1831 3584 
Q 2591 3584 2966 3190 
Q 3341 2797 3341 1997 
z
" id="DejaVuSans-61" transform="scale(0.015625)"/>
       <path d="M 2906 1791 
Q 2906 2416 2648 2759 
Q 2391 3103 1925 3103 
Q 1463 3103 1205 2759 
Q 947 2416 947 1791 
Q 947 1169 1205 825 
Q 1463 481 1925 481 
Q 2391 481 2648 825 
Q 2906 1169 2906 1791 
z
M 3481 434 
Q 3481 -459 3084 -895 
Q 2688 -1331 1869 -1331 
Q 1566 -1331 1297 -1286 
Q 1028 -1241 775 -1147 
L 775 -588 
Q 1028 -725 1275 -790 
Q 1522 -856 1778 -856 
Q 2344 -856 2625 -561 
Q 2906 -266 2906 331 
L 2906 616 
Q 2728 306 2450 153 
Q 2172 0 1784 0 
Q 1141 0 747 490 
Q 353 981 353 1791 
Q 353 2603 747 3093 
Q 1141 3584 1784 3584 
Q 2172 3584 2450 3431 
Q 2728 3278 2906 2969 
L 2906 3500 
L 3481 3500 
L 3481 434 
z
" id="DejaVuSans-67" transform="scale(0.015625)"/>
       <path d="M 1625 4666 
L 2156 4666 
L 531 -594 
L 0 -594 
L 1625 4666 
z
" id="DejaVuSans-2f" transform="scale(0.015625)"/>
      </defs>
      <use xlink:href="#DejaVuSans-56"/>
      <use x="60.658203" xlink:href="#DejaVuSans-6f"/>
      <use x="121.839844" xlink:href="#DejaVuSans-6c"/>
      <use x="149.623047" xlink:href="#DejaVuSans-74"/>
      <use x="188.832031" xlink:href="#DejaVuSans-61"/>
      <use x="250.111328" xlink:href="#DejaVuSans-67"/>
      <use x="313.587891" xlink:href="#DejaVuSans-65"/>
      <use x="375.111328" xlink:href="#DejaVuSans-20"/>
      <use x="406.898438" xlink:href="#DejaVuSans-2f"/>
      <use x="440.589844" xlink:href="#DejaVuSans-20"/>
      <use x="472.376953" xlink:href="#DejaVuSans-56"/>
     </g>
    </g>
   </g>
   <g id="line2d_145">
    <path clip-path="url(#pc876f6e606)" d="M 53.155398 98.662701 
L 56.932961 100.436463 
L 60.710523 102.73876 
L 64.488086 102.967015 
L 68.265649 104.881493 
L 72.043212 105.058949 
L 75.820775 106.097256 
L 79.598338 106.684745 
L 83.375901 107.416787 
L 87.153463 107.748493 
L 90.931026 107.929762 
L 94.708589 107.943866 
L 98.486152 108.051386 
L 102.263715 108.137848 
L 106.041278 108.23679 
L 109.818841 109.33951 
L 113.596404 111.776578 
L 117.373966 112.207617 
L 121.151529 112.951881 
L 124.929092 113.036625 
L 128.706655 113.146139 
L 132.484218 113.798009 
L 136.261781 113.862367 
L 140.039344 114.429825 
L 143.816906 115.005085 
L 147.594469 115.156291 
L 151.372032 117.408377 
L 155.149595 118.124377 
L 158.927158 118.181921 
L 162.704721 118.854886 
L 166.482284 119.41202 
L 170.259846 119.550547 
L 174.037409 119.962849 
L 177.814972 120.104904 
L 181.592535 120.164167 
L 185.370098 121.712384 
L 189.147661 122.466228 
L 192.925224 122.513205 
L 196.702787 122.953252 
L 200.480349 123.401281 
L 204.257912 123.494292 
L 208.035475 124.011297 
L 211.813038 124.339933 
L 215.590601 124.646618 
L 219.368164 125.211609 
L 223.145727 125.502103 
L 226.923289 125.965707 
L 230.700852 127.163818 
" style="fill:none;stroke:#0c5da5;stroke-linecap:square;"/>
   </g>
   <g id="line2d_146">
    <path clip-path="url(#pc876f6e606)" d="M 53.155398 107.139458 
L 56.932961 108.464559 
L 60.710523 109.677806 
L 64.488086 117.266438 
L 68.265649 117.545711 
L 72.043212 117.547165 
L 75.820775 118.278266 
L 79.598338 118.331909 
L 83.375901 118.35365 
L 87.153463 118.377336 
L 90.931026 118.439063 
L 94.708589 118.460089 
L 98.486152 118.461954 
L 102.263715 119.044156 
L 106.041278 119.125243 
L 109.818841 119.276023 
L 113.596404 119.504047 
L 117.373966 119.512934 
L 121.151529 119.54945 
L 124.929092 119.708608 
L 128.706655 120.292246 
L 132.484218 120.342261 
L 136.261781 120.529335 
L 140.039344 120.538368 
L 143.816906 121.953413 
L 147.594469 122.024367 
L 151.372032 122.119104 
L 155.149595 122.756617 
L 158.927158 122.766729 
L 162.704721 122.929657 
L 166.482284 122.931897 
L 170.259846 123.100235 
L 174.037409 123.152499 
L 177.814972 123.177824 
L 181.592535 123.249016 
L 185.370098 123.313109 
L 189.147661 123.839056 
L 192.925224 123.882665 
L 196.702787 124.300522 
L 200.480349 124.326405 
L 204.257912 124.492722 
L 208.035475 124.632948 
L 211.813038 124.694815 
L 215.590601 124.799149 
L 219.368164 124.952439 
L 223.145727 125.182857 
L 226.923289 125.35358 
L 230.700852 125.830903 
" style="fill:none;stroke:#ff9500;stroke-linecap:square;"/>
   </g>
   <g id="line2d_147">
    <path clip-path="url(#pc876f6e606)" d="M 53.155398 94.2686 
L 56.932961 94.36315 
L 60.710523 95.147842 
L 64.488086 95.150118 
L 68.265649 95.670145 
L 72.043212 96.027728 
L 75.820775 96.122365 
L 79.598338 96.394417 
L 83.375901 96.846434 
L 87.153463 97.10461 
L 90.931026 97.186272 
L 94.708589 97.809335 
L 98.486152 98.188636 
L 102.263715 98.705801 
L 106.041278 99.17102 
L 109.818841 100.955521 
L 113.596404 101.824603 
L 117.373966 103.188534 
L 121.151529 104.810524 
L 124.929092 105.091859 
L 128.706655 105.34168 
L 132.484218 105.825795 
L 136.261781 105.882769 
L 140.039344 106.31867 
L 143.816906 107.455524 
L 147.594469 107.807479 
L 151.372032 107.896917 
L 155.149595 107.922549 
L 158.927158 108.526236 
L 162.704721 108.87684 
L 166.482284 109.074833 
L 170.259846 109.689256 
L 174.037409 109.755904 
L 177.814972 109.838345 
L 181.592535 109.881646 
L 185.370098 110.074898 
L 189.147661 112.338074 
L 192.925224 115.993724 
L 196.702787 116.318006 
L 200.480349 117.411059 
L 204.257912 117.654248 
L 208.035475 119.070195 
L 211.813038 119.531302 
L 215.590601 119.850817 
L 219.368164 120.288777 
L 223.145727 120.657437 
L 226.923289 121.837306 
L 230.700852 122.070568 
" style="fill:none;stroke:#00b945;stroke-linecap:square;"/>
   </g>
   <g id="line2d_148">
    <path clip-path="url(#pc876f6e606)" d="M 53.155398 125.569224 
L 56.932961 126.582028 
L 60.710523 129.210374 
L 64.488086 129.601757 
L 68.265649 130.621234 
L 72.043212 130.84789 
L 75.820775 131.889282 
L 79.598338 132.103697 
L 83.375901 132.263691 
L 87.153463 133.165782 
L 90.931026 134.948928 
L 94.708589 135.037011 
L 98.486152 135.253847 
L 102.263715 135.385571 
L 106.041278 135.412219 
L 109.818841 135.466281 
L 113.596404 135.697225 
L 117.373966 135.775492 
L 121.151529 135.785007 
L 124.929092 136.098748 
L 128.706655 136.151788 
L 132.484218 136.422047 
L 136.261781 137.624111 
L 140.039344 138.401139 
L 143.816906 138.611607 
L 147.594469 138.689253 
L 151.372032 139.186017 
L 155.149595 139.233679 
L 158.927158 139.34046 
L 162.704721 139.794445 
L 166.482284 140.191948 
L 170.259846 141.574072 
L 174.037409 142.956814 
L 177.814972 143.020325 
L 181.592535 143.040686 
L 185.370098 143.946801 
L 189.147661 146.038858 
L 192.925224 146.185322 
L 196.702787 146.475395 
L 200.480349 146.917493 
L 204.257912 147.106444 
L 208.035475 147.297759 
L 211.813038 147.838966 
L 215.590601 149.474487 
L 219.368164 149.958094 
L 223.145727 151.307788 
L 226.923289 154.715607 
L 230.700852 155.762277 
" style="fill:none;stroke:#ff2c00;stroke-linecap:square;"/>
   </g>
   <g id="line2d_149">
    <path clip-path="url(#pc876f6e606)" d="M 53.155398 72.192411 
L 56.932961 73.169301 
L 60.710523 73.575425 
L 64.488086 74.49196 
L 68.265649 74.761026 
L 72.043212 74.846576 
L 75.820775 75.150411 
L 79.598338 75.294951 
L 83.375901 75.330085 
L 87.153463 75.68036 
L 90.931026 75.742933 
L 94.708589 75.934233 
L 98.486152 76.110289 
L 102.263715 76.341085 
L 106.041278 76.439788 
L 109.818841 77.220038 
L 113.596404 77.561533 
L 117.373966 77.683154 
L 121.151529 77.87142 
L 124.929092 78.581977 
L 128.706655 79.151043 
L 132.484218 80.050964 
L 136.261781 80.637789 
L 140.039344 80.826925 
L 143.816906 81.752217 
L 147.594469 83.126559 
L 151.372032 83.189976 
L 155.149595 83.513807 
L 158.927158 84.3766 
L 162.704721 84.49112 
L 166.482284 84.545024 
L 170.259846 84.827133 
L 174.037409 84.850394 
L 177.814972 84.886965 
L 181.592535 85.118579 
L 185.370098 85.416798 
L 189.147661 85.761172 
L 192.925224 85.817815 
L 196.702787 86.329623 
L 200.480349 87.380313 
L 204.257912 87.396714 
L 208.035475 88.137881 
L 211.813038 88.583369 
L 215.590601 88.65704 
L 219.368164 89.873885 
L 223.145727 90.548068 
L 226.923289 91.381662 
L 230.700852 97.212536 
" style="fill:none;stroke:#845b97;stroke-linecap:square;"/>
   </g>
   <g id="patch_3">
    <path d="M 44.278125 150.094219 
L 44.278125 7.399219 
" style="fill:none;stroke:#000000;stroke-linecap:square;stroke-linejoin:miter;stroke-width:0.5;"/>
   </g>
   <g id="patch_4">
    <path d="M 239.578125 150.094219 
L 239.578125 7.399219 
" style="fill:none;stroke:#000000;stroke-linecap:square;stroke-linejoin:miter;stroke-width:0.5;"/>
   </g>
   <g id="patch_5">
    <path d="M 44.278125 150.094219 
L 239.578125 150.094219 
" style="fill:none;stroke:#000000;stroke-linecap:square;stroke-linejoin:miter;stroke-width:0.5;"/>
   </g>
   <g id="patch_6">
    <path d="M 44.278125 7.399219 
L 239.578125 7.399219 
" style="fill:none;stroke:#000000;stroke-linecap:square;stroke-linejoin:miter;stroke-width:0.5;"/>
   </g>
  </g>
 </g>
 <defs>
  <clipPath id="pc876f6e606">
   <rect height="142.695" width="195.3" x="44.278125" y="7.399219"/>
  </clipPath>
 </defs>
</svg>
