<?xml version="1.0" encoding="utf-8" standalone="no"?>
<!DOCTYPE svg PUBLIC "-//W3C//DTD SVG 1.1//EN"
  "http://www.w3.org/Graphics/SVG/1.1/DTD/svg11.dtd">
<svg height="180.550469pt" version="1.1" viewBox="0 0 243.178125 180.550469" width="243.178125pt" xmlns="http://www.w3.org/2000/svg" xmlns:xlink="http://www.w3.org/1999/xlink">
 <metadata>
  <rdf:RDF xmlns:cc="http://creativecommons.org/ns#" xmlns:dc="http://purl.org/dc/elements/1.1/" xmlns:rdf="http://www.w3.org/1999/02/22-rdf-syntax-ns#">
   <cc:Work>
    <dc:type rdf:resource="http://purl.org/dc/dcmitype/StillImage"/>
    <dc:date>2023-04-24T13:39:55.173366</dc:date>
    <dc:format>image/svg+xml</dc:format>
    <dc:creator>
     <cc:Agent>
      <dc:title>Matplotlib v3.4.3, https://matplotlib.org/</dc:title>
     </cc:Agent>
    </dc:creator>
   </cc:Work>
  </rdf:RDF>
 </metadata>
 <defs>
  <style type="text/css">*{stroke-linecap:butt;stroke-linejoin:round;}</style>
 </defs>
 <g id="figure_1">
  <g id="patch_1">
   <path d="M 0 180.550469 
L 243.178125 180.550469 
L 243.178125 0 
L 0 0 
z
" style="fill:none;"/>
  </g>
  <g id="axes_1">
   <g id="patch_2">
    <path d="M 44.278125 150.094219 
L 239.578125 150.094219 
L 239.578125 7.399219 
L 44.278125 7.399219 
z
" style="fill:#ffffff;"/>
   </g>
   <g id="PolyCollection_1">
    <path clip-path="url(#pd857bd50cd)" d="M 53.155398 50.059475 
L 53.155398 60.434055 
L 54.315826 69.422062 
L 55.476253 73.857015 
L 56.636681 75.30503 
L 57.797109 76.290032 
L 58.957537 77.671604 
L 60.117965 78.482643 
L 61.278392 78.878847 
L 62.43882 80.076202 
L 63.599248 80.327275 
L 64.759676 80.829132 
L 65.920104 81.371783 
L 67.080531 81.570613 
L 68.240959 81.777985 
L 69.401387 82.039006 
L 70.561815 82.242083 
L 71.722243 82.438851 
L 72.88267 82.605205 
L 74.043098 82.765808 
L 75.203526 82.934412 
L 76.363954 83.096033 
L 77.524382 83.237703 
L 78.684809 83.377365 
L 79.845237 83.526242 
L 81.005665 83.677373 
L 82.166093 83.827375 
L 83.326521 83.994961 
L 84.486949 84.15226 
L 85.647376 84.287577 
L 86.807804 84.441269 
L 87.968232 84.612871 
L 89.12866 84.757037 
L 90.289088 84.893071 
L 91.449515 85.045369 
L 92.609943 85.193217 
L 93.770371 85.334732 
L 94.930799 85.49685 
L 96.091227 85.660258 
L 97.251654 85.844467 
L 98.412082 85.998588 
L 99.57251 86.160858 
L 100.732938 86.32459 
L 101.893366 86.467668 
L 103.053793 86.626422 
L 104.214221 86.788864 
L 105.374649 86.963867 
L 106.535077 87.126909 
L 107.695505 87.290805 
L 108.855932 87.457625 
L 110.01636 87.649134 
L 111.176788 87.829442 
L 112.337216 88.008507 
L 113.497644 88.173269 
L 114.658072 88.342189 
L 115.818499 88.500149 
L 116.978927 88.686268 
L 118.139355 88.878349 
L 119.299783 89.087993 
L 120.460211 89.285108 
L 121.620638 89.463333 
L 122.781066 89.665621 
L 123.941494 89.900765 
L 125.101922 90.074504 
L 126.26235 90.277364 
L 127.422777 90.477243 
L 128.583205 90.650278 
L 129.743633 90.872561 
L 130.904061 91.088138 
L 132.064489 91.268138 
L 133.224916 91.493184 
L 134.385344 91.685539 
L 135.545772 91.923548 
L 136.7062 92.160484 
L 137.866628 92.356923 
L 139.027055 92.54005 
L 140.187483 92.790133 
L 141.347911 93.008271 
L 142.508339 93.249089 
L 143.668767 93.509773 
L 144.829195 93.729844 
L 145.989622 93.969583 
L 147.15005 94.205498 
L 148.310478 94.440955 
L 149.470906 94.704548 
L 150.631334 94.983825 
L 151.791761 95.227874 
L 152.952189 95.499029 
L 154.112617 95.746649 
L 155.273045 96.007516 
L 156.433473 96.275827 
L 157.5939 96.551491 
L 158.754328 96.825401 
L 159.914756 97.120737 
L 161.075184 97.432047 
L 162.235612 97.735698 
L 163.396039 98.04081 
L 164.556467 98.379853 
L 165.716895 98.701475 
L 166.877323 99.048644 
L 168.037751 99.407706 
L 169.198178 99.73837 
L 170.358606 100.101672 
L 171.519034 100.469921 
L 172.679462 100.870795 
L 173.83989 101.207164 
L 175.000318 101.508516 
L 176.160745 101.857001 
L 177.321173 102.282197 
L 178.481601 102.674897 
L 179.642029 103.033162 
L 180.802457 103.415763 
L 181.962884 103.808766 
L 183.123312 104.18429 
L 184.28374 104.509078 
L 185.444168 104.83809 
L 186.604596 105.22595 
L 187.765023 105.596583 
L 188.925451 105.947942 
L 190.085879 106.381307 
L 191.246307 106.767872 
L 192.406735 107.241213 
L 193.567162 107.723561 
L 194.72759 108.143287 
L 195.888018 108.551063 
L 197.048446 108.956256 
L 198.208874 109.335991 
L 199.369301 109.791269 
L 200.529729 110.21277 
L 201.690157 110.688265 
L 202.850585 111.05995 
L 204.011013 111.379572 
L 205.171441 111.726953 
L 206.331868 112.113409 
L 207.492296 112.435779 
L 208.652724 112.704577 
L 209.813152 113.206932 
L 210.97358 113.590966 
L 212.134007 113.990383 
L 213.294435 114.277659 
L 214.454863 114.589889 
L 215.615291 115.23886 
L 216.775719 115.589818 
L 217.936146 115.908358 
L 219.096574 116.343637 
L 220.257002 116.735549 
L 221.41743 119.982078 
L 222.577858 121.74552 
L 223.738285 125.167428 
L 224.898713 125.550499 
L 226.059141 125.968174 
L 227.219569 127.689394 
L 228.379997 128.474273 
L 229.540424 132.717887 
L 230.700852 28517.860219 
L 230.700852 28517.860219 
L 230.700852 28517.860219 
L 229.540424 116.656293 
L 228.379997 111.532459 
L 227.219569 106.272637 
L 226.059141 104.416054 
L 224.898713 102.695467 
L 223.738285 101.728835 
L 222.577858 100.865144 
L 221.41743 100.012089 
L 220.257002 99.305632 
L 219.096574 98.602407 
L 217.936146 98.043792 
L 216.775719 97.453314 
L 215.615291 96.886526 
L 214.454863 96.356034 
L 213.294435 95.719355 
L 212.134007 95.160677 
L 210.97358 94.700523 
L 209.813152 94.225753 
L 208.652724 93.760227 
L 207.492296 93.312109 
L 206.331868 92.897745 
L 205.171441 92.477307 
L 204.011013 92.082776 
L 202.850585 91.709397 
L 201.690157 91.274577 
L 200.529729 90.862699 
L 199.369301 90.525134 
L 198.208874 90.13993 
L 197.048446 89.794104 
L 195.888018 89.365377 
L 194.72759 89.034466 
L 193.567162 88.718032 
L 192.406735 88.380059 
L 191.246307 88.072434 
L 190.085879 87.763533 
L 188.925451 87.455642 
L 187.765023 87.195332 
L 186.604596 86.922658 
L 185.444168 86.639767 
L 184.28374 86.376684 
L 183.123312 86.131468 
L 181.962884 85.889786 
L 180.802457 85.647478 
L 179.642029 85.420009 
L 178.481601 85.207555 
L 177.321173 85.00452 
L 176.160745 84.799831 
L 175.000318 84.599062 
L 173.83989 84.415106 
L 172.679462 84.230212 
L 171.519034 84.056395 
L 170.358606 83.87886 
L 169.198178 83.694245 
L 168.037751 83.517466 
L 166.877323 83.365286 
L 165.716895 83.201929 
L 164.556467 83.045967 
L 163.396039 82.887397 
L 162.235612 82.725996 
L 161.075184 82.56018 
L 159.914756 82.395899 
L 158.754328 82.251418 
L 157.5939 82.080356 
L 156.433473 81.930477 
L 155.273045 81.782687 
L 154.112617 81.623003 
L 152.952189 81.475961 
L 151.791761 81.344366 
L 150.631334 81.212728 
L 149.470906 81.069864 
L 148.310478 80.925278 
L 147.15005 80.797424 
L 145.989622 80.666488 
L 144.829195 80.530447 
L 143.668767 80.416329 
L 142.508339 80.291627 
L 141.347911 80.162792 
L 140.187483 80.038972 
L 139.027055 79.909797 
L 137.866628 79.783449 
L 136.7062 79.6629 
L 135.545772 79.550142 
L 134.385344 79.426757 
L 133.224916 79.313294 
L 132.064489 79.209867 
L 130.904061 79.101469 
L 129.743633 78.983788 
L 128.583205 78.880907 
L 127.422777 78.769017 
L 126.26235 78.657391 
L 125.101922 78.541974 
L 123.941494 78.432178 
L 122.781066 78.309478 
L 121.620638 78.201493 
L 120.460211 78.097053 
L 119.299783 77.997702 
L 118.139355 77.894614 
L 116.978927 77.799838 
L 115.818499 77.697605 
L 114.658072 77.596495 
L 113.497644 77.506353 
L 112.337216 77.409963 
L 111.176788 77.311165 
L 110.01636 77.208588 
L 108.855932 77.10255 
L 107.695505 77.0116 
L 106.535077 76.916991 
L 105.374649 76.823875 
L 104.214221 76.712799 
L 103.053793 76.616287 
L 101.893366 76.515473 
L 100.732938 76.418016 
L 99.57251 76.318334 
L 98.412082 76.231516 
L 97.251654 76.136393 
L 96.091227 76.049452 
L 94.930799 75.97364 
L 93.770371 75.879231 
L 92.609943 75.789291 
L 91.449515 75.704996 
L 90.289088 75.61481 
L 89.12866 75.529811 
L 87.968232 75.451231 
L 86.807804 75.361103 
L 85.647376 75.251419 
L 84.486949 75.164158 
L 83.326521 75.058304 
L 82.166093 74.955375 
L 81.005665 74.866603 
L 79.845237 74.768815 
L 78.684809 74.670474 
L 77.524382 74.580008 
L 76.363954 74.4805 
L 75.203526 74.375371 
L 74.043098 74.272234 
L 72.88267 74.16622 
L 71.722243 74.063226 
L 70.561815 73.963361 
L 69.401387 73.84159 
L 68.240959 73.643477 
L 67.080531 73.505012 
L 65.920104 73.34355 
L 64.759676 72.894586 
L 63.599248 72.477431 
L 62.43882 72.263039 
L 61.278392 71.249731 
L 60.117965 70.871548 
L 58.957537 70.04495 
L 57.797109 68.57376 
L 56.636681 66.069646 
L 55.476253 62.20058 
L 54.315826 57.101036 
L 53.155398 50.059475 
z
" style="fill:#0c5da5;fill-opacity:0.15;"/>
   </g>
   <g id="PolyCollection_2">
    <path clip-path="url(#pd857bd50cd)" d="M 53.155398 81.593595 
L 53.155398 86.637816 
L 54.315826 90.067059 
L 55.476253 92.400529 
L 56.636681 94.086188 
L 57.797109 95.039852 
L 58.957537 95.66933 
L 60.117965 96.284498 
L 61.278392 96.746873 
L 62.43882 97.263672 
L 63.599248 97.725341 
L 64.759676 98.135119 
L 65.920104 98.608547 
L 67.080531 98.889388 
L 68.240959 99.378125 
L 69.401387 99.72453 
L 70.561815 100.040632 
L 71.722243 100.35136 
L 72.88267 100.662973 
L 74.043098 100.955681 
L 75.203526 101.217666 
L 76.363954 101.614211 
L 77.524382 102.041153 
L 78.684809 102.302587 
L 79.845237 102.491142 
L 81.005665 102.760047 
L 82.166093 103.060653 
L 83.326521 103.320506 
L 84.486949 103.490622 
L 85.647376 103.704888 
L 86.807804 104.018297 
L 87.968232 104.298843 
L 89.12866 104.502573 
L 90.289088 104.757581 
L 91.449515 105.002002 
L 92.609943 105.254629 
L 93.770371 105.467553 
L 94.930799 105.666156 
L 96.091227 105.952468 
L 97.251654 106.261462 
L 98.412082 106.527853 
L 99.57251 106.779394 
L 100.732938 106.972939 
L 101.893366 107.130299 
L 103.053793 107.340261 
L 104.214221 107.543209 
L 105.374649 107.794803 
L 106.535077 108.006847 
L 107.695505 108.308661 
L 108.855932 108.500787 
L 110.01636 108.723105 
L 111.176788 108.948824 
L 112.337216 109.1789 
L 113.497644 109.363044 
L 114.658072 109.603796 
L 115.818499 109.806993 
L 116.978927 110.016726 
L 118.139355 110.241138 
L 119.299783 110.439437 
L 120.460211 110.684087 
L 121.620638 110.910612 
L 122.781066 111.150053 
L 123.941494 111.391387 
L 125.101922 111.601755 
L 126.26235 111.82422 
L 127.422777 112.074436 
L 128.583205 112.312694 
L 129.743633 112.522891 
L 130.904061 112.773711 
L 132.064489 113.042692 
L 133.224916 113.309814 
L 134.385344 113.575701 
L 135.545772 113.826957 
L 136.7062 114.08411 
L 137.866628 114.37694 
L 139.027055 114.666042 
L 140.187483 114.945039 
L 141.347911 115.214926 
L 142.508339 115.497089 
L 143.668767 115.790604 
L 144.829195 116.064196 
L 145.989622 116.347999 
L 147.15005 116.662361 
L 148.310478 116.990947 
L 149.470906 117.338379 
L 150.631334 117.669514 
L 151.791761 118.037889 
L 152.952189 118.421382 
L 154.112617 118.780757 
L 155.273045 119.137282 
L 156.433473 119.546052 
L 157.5939 119.938406 
L 158.754328 120.336885 
L 159.914756 120.785829 
L 161.075184 121.227496 
L 162.235612 121.663685 
L 163.396039 122.160767 
L 164.556467 122.651497 
L 165.716895 123.129289 
L 166.877323 123.651136 
L 168.037751 124.199564 
L 169.198178 124.731718 
L 170.358606 125.259491 
L 171.519034 125.826485 
L 172.679462 126.404813 
L 173.83989 127.053033 
L 175.000318 127.737244 
L 176.160745 128.453296 
L 177.321173 129.094197 
L 178.481601 129.846799 
L 179.642029 130.736038 
L 180.802457 131.527244 
L 181.962884 132.345443 
L 183.123312 133.193743 
L 184.28374 133.972538 
L 185.444168 134.9069 
L 186.604596 135.911718 
L 187.765023 136.984494 
L 188.925451 138.001126 
L 190.085879 139.073564 
L 191.246307 140.361263 
L 192.406735 141.589969 
L 193.567162 142.646881 
L 194.72759 144.251365 
L 195.888018 145.81807 
L 197.048446 147.232203 
L 198.208874 148.522725 
L 199.369301 150.000842 
L 200.529729 151.410178 
L 201.690157 153.141289 
L 202.850585 154.658888 
L 204.011013 156.497715 
L 205.171441 158.051806 
L 206.331868 159.807901 
L 207.492296 160.90315 
L 208.652724 161.978744 
L 209.813152 163.291037 
L 210.97358 164.440017 
L 212.134007 165.240651 
L 213.294435 165.957451 
L 214.454863 166.547735 
L 215.615291 166.768423 
L 216.775719 167.870593 
L 217.936146 168.034841 
L 219.096574 168.25656 
L 220.257002 168.766436 
L 221.41743 168.902465 
L 222.577858 170.11903 
L 223.738285 171.542577 
L 224.898713 174.602633 
L 226.059141 174.954406 
L 227.219569 181.560438 
L 228.379997 211.714861 
L 229.540424 586.313038 
L 230.700852 28517.860219 
L 230.700852 28517.860219 
L 230.700852 28517.860219 
L 229.540424 290.968759 
L 228.379997 198.523723 
L 227.219569 175.485743 
L 226.059141 173.412907 
L 224.898713 171.520503 
L 223.738285 166.537054 
L 222.577858 164.480402 
L 221.41743 161.305989 
L 220.257002 157.911382 
L 219.096574 154.37622 
L 217.936146 151.111573 
L 216.775719 147.871411 
L 215.615291 144.650057 
L 214.454863 142.015454 
L 213.294435 139.237433 
L 212.134007 136.956277 
L 210.97358 134.823491 
L 209.813152 132.936469 
L 208.652724 131.448728 
L 207.492296 129.822996 
L 206.331868 128.499751 
L 205.171441 127.169174 
L 204.011013 125.982155 
L 202.850585 125.001176 
L 201.690157 123.981957 
L 200.529729 123.029264 
L 199.369301 122.17634 
L 198.208874 121.405722 
L 197.048446 120.651528 
L 195.888018 119.939711 
L 194.72759 119.309728 
L 193.567162 118.690175 
L 192.406735 118.103072 
L 191.246307 117.57169 
L 190.085879 117.052496 
L 188.925451 116.564472 
L 187.765023 116.107558 
L 186.604596 115.656527 
L 185.444168 115.202819 
L 184.28374 114.78352 
L 183.123312 114.363871 
L 181.962884 113.964068 
L 180.802457 113.613702 
L 179.642029 113.248526 
L 178.481601 112.912267 
L 177.321173 112.50666 
L 176.160745 112.180292 
L 175.000318 111.84073 
L 173.83989 111.544712 
L 172.679462 111.234409 
L 171.519034 110.97342 
L 170.358606 110.707178 
L 169.198178 110.463922 
L 168.037751 110.212411 
L 166.877323 109.98563 
L 165.716895 109.698932 
L 164.556467 109.497037 
L 163.396039 109.289332 
L 162.235612 109.078211 
L 161.075184 108.871119 
L 159.914756 108.671862 
L 158.754328 108.441371 
L 157.5939 108.246194 
L 156.433473 108.089481 
L 155.273045 107.903722 
L 154.112617 107.725487 
L 152.952189 107.554871 
L 151.791761 107.404649 
L 150.631334 107.246116 
L 149.470906 107.090054 
L 148.310478 106.941979 
L 147.15005 106.801487 
L 145.989622 106.655195 
L 144.829195 106.515126 
L 143.668767 106.365683 
L 142.508339 106.209935 
L 141.347911 106.068219 
L 140.187483 105.930043 
L 139.027055 105.790669 
L 137.866628 105.647492 
L 136.7062 105.500984 
L 135.545772 105.368198 
L 134.385344 105.233757 
L 133.224916 105.08759 
L 132.064489 104.956552 
L 130.904061 104.843533 
L 129.743633 104.718361 
L 128.583205 104.594322 
L 127.422777 104.464468 
L 126.26235 104.351096 
L 125.101922 104.239916 
L 123.941494 104.098912 
L 122.781066 103.964801 
L 121.620638 103.835925 
L 120.460211 103.714852 
L 119.299783 103.584584 
L 118.139355 103.455834 
L 116.978927 103.344979 
L 115.818499 103.21116 
L 114.658072 103.095039 
L 113.497644 102.982197 
L 112.337216 102.831285 
L 111.176788 102.685754 
L 110.01636 102.563363 
L 108.855932 102.421573 
L 107.695505 102.295323 
L 106.535077 102.159279 
L 105.374649 101.987755 
L 104.214221 101.859066 
L 103.053793 101.750004 
L 101.893366 101.627842 
L 100.732938 101.506223 
L 99.57251 101.333163 
L 98.412082 101.167331 
L 97.251654 100.985888 
L 96.091227 100.808485 
L 94.930799 100.594766 
L 93.770371 100.455713 
L 92.609943 100.316604 
L 91.449515 100.087415 
L 90.289088 99.898784 
L 89.12866 99.643977 
L 87.968232 99.487704 
L 86.807804 99.284619 
L 85.647376 99.060288 
L 84.486949 98.913705 
L 83.326521 98.736844 
L 82.166093 98.532557 
L 81.005665 98.271197 
L 79.845237 98.03251 
L 78.684809 97.75379 
L 77.524382 97.478131 
L 76.363954 97.196925 
L 75.203526 96.795994 
L 74.043098 96.576049 
L 72.88267 96.289169 
L 71.722243 96.069375 
L 70.561815 95.703681 
L 69.401387 95.353217 
L 68.240959 94.939042 
L 67.080531 94.591691 
L 65.920104 94.238935 
L 64.759676 93.841371 
L 63.599248 93.465865 
L 62.43882 92.876838 
L 61.278392 92.38981 
L 60.117965 91.867804 
L 58.957537 91.121955 
L 57.797109 90.395696 
L 56.636681 89.257878 
L 55.476253 88.135967 
L 54.315826 86.082159 
L 53.155398 81.593595 
z
" style="fill:#ff9500;fill-opacity:0.15;"/>
   </g>
   <g id="PolyCollection_3">
    <path clip-path="url(#pd857bd50cd)" d="M 53.155398 12.862055 
L 53.155398 15.769112 
L 54.315826 26.999605 
L 55.476253 38.222459 
L 56.636681 45.796194 
L 57.797109 51.370784 
L 58.957537 53.175397 
L 60.117965 53.763386 
L 61.278392 54.141294 
L 62.43882 54.429789 
L 63.599248 54.709229 
L 64.759676 54.962787 
L 65.920104 55.205881 
L 67.080531 55.469843 
L 68.240959 55.705696 
L 69.401387 55.938831 
L 70.561815 56.175382 
L 71.722243 56.401445 
L 72.88267 56.619736 
L 74.043098 56.858802 
L 75.203526 57.084186 
L 76.363954 57.325577 
L 77.524382 57.51184 
L 78.684809 57.705234 
L 79.845237 57.889733 
L 81.005665 58.053095 
L 82.166093 58.216203 
L 83.326521 58.376944 
L 84.486949 58.534471 
L 85.647376 58.682475 
L 86.807804 58.826334 
L 87.968232 58.984394 
L 89.12866 59.116377 
L 90.289088 59.256465 
L 91.449515 59.393092 
L 92.609943 59.532749 
L 93.770371 59.670737 
L 94.930799 59.796939 
L 96.091227 59.942222 
L 97.251654 60.068363 
L 98.412082 60.198993 
L 99.57251 60.341434 
L 100.732938 60.468264 
L 101.893366 60.607081 
L 103.053793 60.728133 
L 104.214221 60.853716 
L 105.374649 60.990929 
L 106.535077 61.122811 
L 107.695505 61.246841 
L 108.855932 61.382726 
L 110.01636 61.50882 
L 111.176788 61.632702 
L 112.337216 61.752768 
L 113.497644 61.888068 
L 114.658072 62.002797 
L 115.818499 62.12935 
L 116.978927 62.260576 
L 118.139355 62.377891 
L 119.299783 62.499457 
L 120.460211 62.618817 
L 121.620638 62.750358 
L 122.781066 62.879977 
L 123.941494 63.004374 
L 125.101922 63.13963 
L 126.26235 63.260047 
L 127.422777 63.401025 
L 128.583205 63.523226 
L 129.743633 63.648783 
L 130.904061 63.771575 
L 132.064489 63.903734 
L 133.224916 64.028025 
L 134.385344 64.157873 
L 135.545772 64.281788 
L 136.7062 64.407494 
L 137.866628 64.543689 
L 139.027055 64.666752 
L 140.187483 64.791382 
L 141.347911 64.917222 
L 142.508339 65.043221 
L 143.668767 65.169571 
L 144.829195 65.291738 
L 145.989622 65.419761 
L 147.15005 65.545301 
L 148.310478 65.667844 
L 149.470906 65.780888 
L 150.631334 65.887259 
L 151.791761 66.003561 
L 152.952189 66.122231 
L 154.112617 66.240535 
L 155.273045 66.370196 
L 156.433473 66.488758 
L 157.5939 66.612994 
L 158.754328 66.731106 
L 159.914756 66.857091 
L 161.075184 66.979161 
L 162.235612 67.109146 
L 163.396039 67.235931 
L 164.556467 67.36257 
L 165.716895 67.488329 
L 166.877323 67.614468 
L 168.037751 67.754212 
L 169.198178 67.884948 
L 170.358606 68.013751 
L 171.519034 68.150927 
L 172.679462 68.289561 
L 173.83989 68.421079 
L 175.000318 68.565962 
L 176.160745 68.707739 
L 177.321173 68.845368 
L 178.481601 69.006655 
L 179.642029 69.166167 
L 180.802457 69.311124 
L 181.962884 69.465052 
L 183.123312 69.624747 
L 184.28374 69.762851 
L 185.444168 69.939933 
L 186.604596 70.115098 
L 187.765023 70.272451 
L 188.925451 70.459353 
L 190.085879 70.634395 
L 191.246307 70.811491 
L 192.406735 70.992612 
L 193.567162 71.181833 
L 194.72759 71.372167 
L 195.888018 71.551952 
L 197.048446 71.74497 
L 198.208874 71.953755 
L 199.369301 72.179694 
L 200.529729 72.397235 
L 201.690157 72.631954 
L 202.850585 72.871116 
L 204.011013 73.120553 
L 205.171441 73.354286 
L 206.331868 73.604248 
L 207.492296 73.889299 
L 208.652724 74.159856 
L 209.813152 74.456962 
L 210.97358 74.727467 
L 212.134007 75.028542 
L 213.294435 75.339803 
L 214.454863 75.679579 
L 215.615291 76.022129 
L 216.775719 76.414384 
L 217.936146 76.799644 
L 219.096574 77.235942 
L 220.257002 77.706349 
L 221.41743 78.240326 
L 222.577858 78.849246 
L 223.738285 79.54471 
L 224.898713 80.329034 
L 226.059141 81.592915 
L 227.219569 83.022966 
L 228.379997 85.16208 
L 229.540424 89.0898 
L 230.700852 28517.860219 
L 230.700852 28517.860219 
L 230.700852 28517.860219 
L 229.540424 82.499965 
L 228.379997 79.755056 
L 227.219569 78.33797 
L 226.059141 77.230013 
L 224.898713 76.418594 
L 223.738285 75.727339 
L 222.577858 75.242044 
L 221.41743 74.742551 
L 220.257002 74.279786 
L 219.096574 73.862329 
L 217.936146 73.464939 
L 216.775719 73.10184 
L 215.615291 72.764275 
L 214.454863 72.461656 
L 213.294435 72.166731 
L 212.134007 71.878122 
L 210.97358 71.589876 
L 209.813152 71.332037 
L 208.652724 71.061685 
L 207.492296 70.810436 
L 206.331868 70.566426 
L 205.171441 70.342039 
L 204.011013 70.102786 
L 202.850585 69.872573 
L 201.690157 69.648425 
L 200.529729 69.422435 
L 199.369301 69.209147 
L 198.208874 69.006917 
L 197.048446 68.837219 
L 195.888018 68.642555 
L 194.72759 68.464785 
L 193.567162 68.308799 
L 192.406735 68.120645 
L 191.246307 67.943216 
L 190.085879 67.780424 
L 188.925451 67.606045 
L 187.765023 67.439585 
L 186.604596 67.287663 
L 185.444168 67.130696 
L 184.28374 66.969861 
L 183.123312 66.812043 
L 181.962884 66.652706 
L 180.802457 66.505777 
L 179.642029 66.3553 
L 178.481601 66.211137 
L 177.321173 66.072438 
L 176.160745 65.936724 
L 175.000318 65.799488 
L 173.83989 65.654732 
L 172.679462 65.520899 
L 171.519034 65.387842 
L 170.358606 65.258838 
L 169.198178 65.138305 
L 168.037751 65.006796 
L 166.877323 64.88226 
L 165.716895 64.766377 
L 164.556467 64.647913 
L 163.396039 64.511092 
L 162.235612 64.387724 
L 161.075184 64.25346 
L 159.914756 64.130773 
L 158.754328 64.007201 
L 157.5939 63.887641 
L 156.433473 63.764455 
L 155.273045 63.645985 
L 154.112617 63.514611 
L 152.952189 63.39511 
L 151.791761 63.270301 
L 150.631334 63.149915 
L 149.470906 63.026896 
L 148.310478 62.913873 
L 147.15005 62.792632 
L 145.989622 62.670292 
L 144.829195 62.554006 
L 143.668767 62.43452 
L 142.508339 62.313696 
L 141.347911 62.186497 
L 140.187483 62.061594 
L 139.027055 61.943926 
L 137.866628 61.818612 
L 136.7062 61.702765 
L 135.545772 61.562007 
L 134.385344 61.430964 
L 133.224916 61.304862 
L 132.064489 61.174468 
L 130.904061 61.035868 
L 129.743633 60.912523 
L 128.583205 60.796321 
L 127.422777 60.65811 
L 126.26235 60.522974 
L 125.101922 60.40715 
L 123.941494 60.290933 
L 122.781066 60.161905 
L 121.620638 60.025325 
L 120.460211 59.901039 
L 119.299783 59.783806 
L 118.139355 59.663099 
L 116.978927 59.533867 
L 115.818499 59.416371 
L 114.658072 59.298414 
L 113.497644 59.175149 
L 112.337216 59.041412 
L 111.176788 58.917126 
L 110.01636 58.797976 
L 108.855932 58.675806 
L 107.695505 58.540664 
L 106.535077 58.414007 
L 105.374649 58.27852 
L 104.214221 58.154251 
L 103.053793 58.023453 
L 101.893366 57.888189 
L 100.732938 57.736431 
L 99.57251 57.617576 
L 98.412082 57.476821 
L 97.251654 57.342415 
L 96.091227 57.203791 
L 94.930799 57.086588 
L 93.770371 56.956384 
L 92.609943 56.820338 
L 91.449515 56.678367 
L 90.289088 56.543689 
L 89.12866 56.416325 
L 87.968232 56.282522 
L 86.807804 56.131143 
L 85.647376 55.993775 
L 84.486949 55.832446 
L 83.326521 55.680697 
L 82.166093 55.528545 
L 81.005665 55.369436 
L 79.845237 55.199121 
L 78.684809 55.001283 
L 77.524382 54.809678 
L 76.363954 54.611573 
L 75.203526 54.380881 
L 74.043098 54.144198 
L 72.88267 53.941872 
L 71.722243 53.723684 
L 70.561815 53.496816 
L 69.401387 53.255043 
L 68.240959 53.037288 
L 67.080531 52.809587 
L 65.920104 52.544072 
L 64.759676 52.302014 
L 63.599248 52.023146 
L 62.43882 51.731503 
L 61.278392 51.440479 
L 60.117965 51.040797 
L 58.957537 50.234545 
L 57.797109 47.846284 
L 56.636681 42.141387 
L 55.476253 34.254655 
L 54.315826 23.699716 
L 53.155398 12.862055 
z
" style="fill:#00b945;fill-opacity:0.15;"/>
   </g>
   <g id="PolyCollection_4">
    <path clip-path="url(#pd857bd50cd)" d="M 53.155398 40.531558 
L 53.155398 47.13222 
L 54.315826 58.241634 
L 55.476253 67.850504 
L 56.636681 73.020074 
L 57.797109 77.363604 
L 58.957537 79.684134 
L 60.117965 80.766825 
L 61.278392 81.554382 
L 62.43882 82.266376 
L 63.599248 82.960455 
L 64.759676 83.64154 
L 65.920104 84.274018 
L 67.080531 84.813223 
L 68.240959 85.318618 
L 69.401387 85.9115 
L 70.561815 86.38622 
L 71.722243 86.88125 
L 72.88267 87.379615 
L 74.043098 87.897276 
L 75.203526 88.39428 
L 76.363954 88.904005 
L 77.524382 89.419043 
L 78.684809 89.919512 
L 79.845237 90.445133 
L 81.005665 90.946325 
L 82.166093 91.416421 
L 83.326521 91.910892 
L 84.486949 92.372838 
L 85.647376 92.860282 
L 86.807804 93.335511 
L 87.968232 93.839513 
L 89.12866 94.322778 
L 90.289088 94.844011 
L 91.449515 95.30398 
L 92.609943 95.790212 
L 93.770371 96.255475 
L 94.930799 96.706603 
L 96.091227 97.240335 
L 97.251654 97.697981 
L 98.412082 98.159998 
L 99.57251 98.648602 
L 100.732938 99.093631 
L 101.893366 99.6014 
L 103.053793 100.109701 
L 104.214221 100.575 
L 105.374649 101.066784 
L 106.535077 101.598454 
L 107.695505 102.098118 
L 108.855932 102.614596 
L 110.01636 103.111745 
L 111.176788 103.669541 
L 112.337216 104.177161 
L 113.497644 104.700262 
L 114.658072 105.268359 
L 115.818499 105.741174 
L 116.978927 106.264947 
L 118.139355 106.809576 
L 119.299783 107.368464 
L 120.460211 107.863449 
L 121.620638 108.454917 
L 122.781066 108.977856 
L 123.941494 109.548585 
L 125.101922 110.027919 
L 126.26235 110.492115 
L 127.422777 111.040892 
L 128.583205 111.583674 
L 129.743633 112.14329 
L 130.904061 112.744667 
L 132.064489 113.300108 
L 133.224916 113.777665 
L 134.385344 114.370697 
L 135.545772 114.886525 
L 136.7062 115.376168 
L 137.866628 115.8018 
L 139.027055 116.389183 
L 140.187483 116.898702 
L 141.347911 117.417832 
L 142.508339 117.905003 
L 143.668767 118.412326 
L 144.829195 118.968333 
L 145.989622 119.584989 
L 147.15005 120.082289 
L 148.310478 120.598647 
L 149.470906 121.047375 
L 150.631334 121.645845 
L 151.791761 122.136937 
L 152.952189 122.660226 
L 154.112617 123.193768 
L 155.273045 123.888384 
L 156.433473 124.404267 
L 157.5939 125.172234 
L 158.754328 125.640881 
L 159.914756 126.252599 
L 161.075184 126.817699 
L 162.235612 127.361891 
L 163.396039 127.859177 
L 164.556467 128.471388 
L 165.716895 128.996888 
L 166.877323 129.441421 
L 168.037751 129.979059 
L 169.198178 130.636695 
L 170.358606 131.077047 
L 171.519034 131.431389 
L 172.679462 132.168918 
L 173.83989 132.680158 
L 175.000318 133.141283 
L 176.160745 133.78922 
L 177.321173 134.227028 
L 178.481601 134.957415 
L 179.642029 135.515001 
L 180.802457 136.044491 
L 181.962884 136.591316 
L 183.123312 137.262254 
L 184.28374 137.897475 
L 185.444168 138.687516 
L 186.604596 139.492195 
L 187.765023 140.355958 
L 188.925451 141.190055 
L 190.085879 142.124515 
L 191.246307 143.100329 
L 192.406735 143.661041 
L 193.567162 144.415613 
L 194.72759 145.180292 
L 195.888018 145.932717 
L 197.048446 146.569502 
L 198.208874 147.279626 
L 199.369301 148.22209 
L 200.529729 149.172544 
L 201.690157 150.101272 
L 202.850585 150.877033 
L 204.011013 152.000912 
L 205.171441 153.080651 
L 206.331868 154.636463 
L 207.492296 156.072334 
L 208.652724 157.407506 
L 209.813152 159.330296 
L 210.97358 160.9009 
L 212.134007 163.491606 
L 213.294435 165.675574 
L 214.454863 166.668025 
L 215.615291 169.032738 
L 216.775719 170.346564 
L 217.936146 175.835801 
L 219.096574 176.830042 
L 220.257002 180.337881 
L 221.41743 185.900957 
L 222.577858 188.642611 
L 223.738285 200.231946 
L 224.898713 202.377996 
L 226.059141 209.605012 
L 227.219569 234.064008 
L 228.379997 256.359396 
L 229.540424 265.824153 
L 230.700852 28517.860219 
L 230.700852 28517.860219 
L 230.700852 28517.860219 
L 229.540424 154.953275 
L 228.379997 148.915596 
L 227.219569 143.359124 
L 226.059141 139.834075 
L 224.898713 137.335832 
L 223.738285 135.282172 
L 222.577858 133.841461 
L 221.41743 132.253308 
L 220.257002 129.875213 
L 219.096574 128.727178 
L 217.936146 127.404063 
L 216.775719 126.451666 
L 215.615291 125.589505 
L 214.454863 124.786543 
L 213.294435 123.969463 
L 212.134007 123.127057 
L 210.97358 122.43232 
L 209.813152 121.850918 
L 208.652724 120.977643 
L 207.492296 120.198681 
L 206.331868 119.580478 
L 205.171441 118.967277 
L 204.011013 118.389145 
L 202.850585 117.696206 
L 201.690157 117.103538 
L 200.529729 116.456864 
L 199.369301 116.009148 
L 198.208874 115.568562 
L 197.048446 115.082565 
L 195.888018 114.575649 
L 194.72759 114.097739 
L 193.567162 113.542523 
L 192.406735 113.115069 
L 191.246307 112.69612 
L 190.085879 112.193375 
L 188.925451 111.769934 
L 187.765023 111.312924 
L 186.604596 110.877712 
L 185.444168 110.477158 
L 184.28374 110.069046 
L 183.123312 109.665384 
L 181.962884 109.299208 
L 180.802457 108.844203 
L 179.642029 108.453838 
L 178.481601 108.044841 
L 177.321173 107.62555 
L 176.160745 107.228225 
L 175.000318 106.855992 
L 173.83989 106.515021 
L 172.679462 106.152917 
L 171.519034 105.809306 
L 170.358606 105.484054 
L 169.198178 105.094281 
L 168.037751 104.746261 
L 166.877323 104.387344 
L 165.716895 104.064259 
L 164.556467 103.684743 
L 163.396039 103.351676 
L 162.235612 103.000369 
L 161.075184 102.656692 
L 159.914756 102.358243 
L 158.754328 102.023109 
L 157.5939 101.721582 
L 156.433473 101.400386 
L 155.273045 101.098356 
L 154.112617 100.800175 
L 152.952189 100.499399 
L 151.791761 100.193726 
L 150.631334 99.919429 
L 149.470906 99.623891 
L 148.310478 99.303406 
L 147.15005 98.966728 
L 145.989622 98.685572 
L 144.829195 98.404553 
L 143.668767 98.122213 
L 142.508339 97.844226 
L 141.347911 97.53806 
L 140.187483 97.22729 
L 139.027055 96.960965 
L 137.866628 96.659768 
L 136.7062 96.386673 
L 135.545772 96.137842 
L 134.385344 95.871474 
L 133.224916 95.576148 
L 132.064489 95.305984 
L 130.904061 95.020781 
L 129.743633 94.741882 
L 128.583205 94.475711 
L 127.422777 94.181574 
L 126.26235 93.889524 
L 125.101922 93.637125 
L 123.941494 93.347678 
L 122.781066 93.05541 
L 121.620638 92.774658 
L 120.460211 92.49272 
L 119.299783 92.178306 
L 118.139355 91.93345 
L 116.978927 91.641081 
L 115.818499 91.34229 
L 114.658072 91.09831 
L 113.497644 90.79568 
L 112.337216 90.47601 
L 111.176788 90.204874 
L 110.01636 89.928331 
L 108.855932 89.642831 
L 107.695505 89.359377 
L 106.535077 89.062304 
L 105.374649 88.761122 
L 104.214221 88.46425 
L 103.053793 88.160673 
L 101.893366 87.879498 
L 100.732938 87.593163 
L 99.57251 87.262201 
L 98.412082 86.952835 
L 97.251654 86.6332 
L 96.091227 86.336603 
L 94.930799 86.014301 
L 93.770371 85.709638 
L 92.609943 85.378005 
L 91.449515 85.055642 
L 90.289088 84.731441 
L 89.12866 84.436944 
L 87.968232 84.123799 
L 86.807804 83.768781 
L 85.647376 83.458463 
L 84.486949 83.139419 
L 83.326521 82.803052 
L 82.166093 82.477543 
L 81.005665 82.13021 
L 79.845237 81.76928 
L 78.684809 81.436663 
L 77.524382 81.078973 
L 76.363954 80.731547 
L 75.203526 80.358072 
L 74.043098 80.02892 
L 72.88267 79.666279 
L 71.722243 79.290414 
L 70.561815 78.915893 
L 69.401387 78.494609 
L 68.240959 78.083421 
L 67.080531 77.640277 
L 65.920104 77.159699 
L 64.759676 76.656091 
L 63.599248 76.121969 
L 62.43882 75.537032 
L 61.278392 74.625765 
L 60.117965 73.486186 
L 58.957537 71.338066 
L 57.797109 67.854128 
L 56.636681 63.099697 
L 55.476253 58.102228 
L 54.315826 50.347327 
L 53.155398 40.531558 
z
" style="fill:#ff2c00;fill-opacity:0.15;"/>
   </g>
   <g id="PolyCollection_5">
    <path clip-path="url(#pd857bd50cd)" d="M 53.155398 13.096707 
L 53.155398 18.270673 
L 54.315826 20.963235 
L 55.476253 23.865244 
L 56.636681 26.623058 
L 57.797109 29.78759 
L 58.957537 33.117061 
L 60.117965 36.14129 
L 61.278392 38.976106 
L 62.43882 41.710392 
L 63.599248 43.87721 
L 64.759676 45.626142 
L 65.920104 47.003041 
L 67.080531 47.465301 
L 68.240959 47.836343 
L 69.401387 48.106427 
L 70.561815 48.338486 
L 71.722243 48.566824 
L 72.88267 48.794157 
L 74.043098 48.984366 
L 75.203526 49.178472 
L 76.363954 49.359597 
L 77.524382 49.548284 
L 78.684809 49.711934 
L 79.845237 49.89082 
L 81.005665 50.051395 
L 82.166093 50.225546 
L 83.326521 50.382032 
L 84.486949 50.527918 
L 85.647376 50.68559 
L 86.807804 50.823468 
L 87.968232 50.970011 
L 89.12866 51.112673 
L 90.289088 51.248156 
L 91.449515 51.382449 
L 92.609943 51.514567 
L 93.770371 51.643677 
L 94.930799 51.779808 
L 96.091227 51.906778 
L 97.251654 52.036833 
L 98.412082 52.15575 
L 99.57251 52.281231 
L 100.732938 52.422157 
L 101.893366 52.551916 
L 103.053793 52.684643 
L 104.214221 52.816545 
L 105.374649 52.955162 
L 106.535077 53.087559 
L 107.695505 53.227804 
L 108.855932 53.357281 
L 110.01636 53.48771 
L 111.176788 53.630125 
L 112.337216 53.765085 
L 113.497644 53.893768 
L 114.658072 54.029655 
L 115.818499 54.152348 
L 116.978927 54.282777 
L 118.139355 54.419287 
L 119.299783 54.557218 
L 120.460211 54.700158 
L 121.620638 54.826667 
L 122.781066 54.968904 
L 123.941494 55.108143 
L 125.101922 55.234733 
L 126.26235 55.366503 
L 127.422777 55.491149 
L 128.583205 55.619455 
L 129.743633 55.744606 
L 130.904061 55.872874 
L 132.064489 56.006447 
L 133.224916 56.120245 
L 134.385344 56.244537 
L 135.545772 56.360003 
L 136.7062 56.467838 
L 137.866628 56.575763 
L 139.027055 56.681424 
L 140.187483 56.787472 
L 141.347911 56.885574 
L 142.508339 56.999652 
L 143.668767 57.109343 
L 144.829195 57.221556 
L 145.989622 57.325095 
L 147.15005 57.437437 
L 148.310478 57.532015 
L 149.470906 57.640848 
L 150.631334 57.745513 
L 151.791761 57.856211 
L 152.952189 57.959456 
L 154.112617 58.067764 
L 155.273045 58.184861 
L 156.433473 58.298403 
L 157.5939 58.406455 
L 158.754328 58.519536 
L 159.914756 58.642645 
L 161.075184 58.748305 
L 162.235612 58.855028 
L 163.396039 58.973866 
L 164.556467 59.096811 
L 165.716895 59.216245 
L 166.877323 59.3374 
L 168.037751 59.457323 
L 169.198178 59.584881 
L 170.358606 59.706504 
L 171.519034 59.824478 
L 172.679462 59.94194 
L 173.83989 60.065185 
L 175.000318 60.18434 
L 176.160745 60.293447 
L 177.321173 60.417007 
L 178.481601 60.53203 
L 179.642029 60.644259 
L 180.802457 60.761861 
L 181.962884 60.880221 
L 183.123312 61.018224 
L 184.28374 61.134157 
L 185.444168 61.255731 
L 186.604596 61.384338 
L 187.765023 61.50492 
L 188.925451 61.63216 
L 190.085879 61.771103 
L 191.246307 61.899237 
L 192.406735 62.018267 
L 193.567162 62.147288 
L 194.72759 62.276605 
L 195.888018 62.410178 
L 197.048446 62.559767 
L 198.208874 62.698635 
L 199.369301 62.846166 
L 200.529729 63.008016 
L 201.690157 63.136763 
L 202.850585 63.277328 
L 204.011013 63.444247 
L 205.171441 63.604561 
L 206.331868 63.75274 
L 207.492296 63.918494 
L 208.652724 64.077407 
L 209.813152 64.246986 
L 210.97358 64.42398 
L 212.134007 64.597014 
L 213.294435 64.798671 
L 214.454863 65.008632 
L 215.615291 65.212927 
L 216.775719 65.46182 
L 217.936146 65.747777 
L 219.096574 66.065446 
L 220.257002 66.42675 
L 221.41743 66.977911 
L 222.577858 67.579134 
L 223.738285 68.309436 
L 224.898713 69.478735 
L 226.059141 71.194779 
L 227.219569 73.163021 
L 228.379997 76.260048 
L 229.540424 81.179559 
L 230.700852 28517.860219 
L 230.700852 28517.860219 
L 230.700852 28517.860219 
L 229.540424 77.806376 
L 228.379997 72.82671 
L 227.219569 69.771089 
L 226.059141 67.818138 
L 224.898713 66.094062 
L 223.738285 64.848545 
L 222.577858 64.128891 
L 221.41743 63.431072 
L 220.257002 62.856582 
L 219.096574 62.380263 
L 217.936146 62.054301 
L 216.775719 61.740237 
L 215.615291 61.482078 
L 214.454863 61.282381 
L 213.294435 61.07576 
L 212.134007 60.883004 
L 210.97358 60.698329 
L 209.813152 60.532786 
L 208.652724 60.380629 
L 207.492296 60.225554 
L 206.331868 60.087612 
L 205.171441 59.941503 
L 204.011013 59.793713 
L 202.850585 59.645233 
L 201.690157 59.500882 
L 200.529729 59.354032 
L 199.369301 59.209083 
L 198.208874 59.078509 
L 197.048446 58.950255 
L 195.888018 58.818911 
L 194.72759 58.698398 
L 193.567162 58.568244 
L 192.406735 58.450682 
L 191.246307 58.327233 
L 190.085879 58.207615 
L 188.925451 58.082087 
L 187.765023 57.959313 
L 186.604596 57.838395 
L 185.444168 57.713796 
L 184.28374 57.603487 
L 183.123312 57.486275 
L 181.962884 57.359752 
L 180.802457 57.245143 
L 179.642029 57.132922 
L 178.481601 57.022498 
L 177.321173 56.904607 
L 176.160745 56.78339 
L 175.000318 56.67151 
L 173.83989 56.559673 
L 172.679462 56.449256 
L 171.519034 56.329335 
L 170.358606 56.221778 
L 169.198178 56.101283 
L 168.037751 55.986519 
L 166.877323 55.880329 
L 165.716895 55.76808 
L 164.556467 55.644562 
L 163.396039 55.522769 
L 162.235612 55.410884 
L 161.075184 55.298788 
L 159.914756 55.188456 
L 158.754328 55.08704 
L 157.5939 54.97384 
L 156.433473 54.85461 
L 155.273045 54.749756 
L 154.112617 54.638547 
L 152.952189 54.520769 
L 151.791761 54.400684 
L 150.631334 54.288565 
L 149.470906 54.180287 
L 148.310478 54.070308 
L 147.15005 53.96163 
L 145.989622 53.854984 
L 144.829195 53.739452 
L 143.668767 53.624268 
L 142.508339 53.526651 
L 141.347911 53.421866 
L 140.187483 53.312608 
L 139.027055 53.2061 
L 137.866628 53.104769 
L 136.7062 52.992705 
L 135.545772 52.875164 
L 134.385344 52.754741 
L 133.224916 52.636147 
L 132.064489 52.524267 
L 130.904061 52.39054 
L 129.743633 52.274993 
L 128.583205 52.151101 
L 127.422777 52.036521 
L 126.26235 51.917666 
L 125.101922 51.790148 
L 123.941494 51.666203 
L 122.781066 51.527642 
L 121.620638 51.401645 
L 120.460211 51.269721 
L 119.299783 51.132021 
L 118.139355 50.993881 
L 116.978927 50.853545 
L 115.818499 50.719197 
L 114.658072 50.581299 
L 113.497644 50.45606 
L 112.337216 50.338782 
L 111.176788 50.200499 
L 110.01636 50.073564 
L 108.855932 49.950902 
L 107.695505 49.815596 
L 106.535077 49.685876 
L 105.374649 49.546955 
L 104.214221 49.413736 
L 103.053793 49.288229 
L 101.893366 49.16476 
L 100.732938 49.034087 
L 99.57251 48.903066 
L 98.412082 48.777298 
L 97.251654 48.647877 
L 96.091227 48.520993 
L 94.930799 48.389151 
L 93.770371 48.267859 
L 92.609943 48.135167 
L 91.449515 47.99314 
L 90.289088 47.866328 
L 89.12866 47.724912 
L 87.968232 47.587298 
L 86.807804 47.434566 
L 85.647376 47.293509 
L 84.486949 47.136005 
L 83.326521 46.979374 
L 82.166093 46.809352 
L 81.005665 46.628201 
L 79.845237 46.457666 
L 78.684809 46.273109 
L 77.524382 46.0595 
L 76.363954 45.856576 
L 75.203526 45.61767 
L 74.043098 45.39101 
L 72.88267 45.173957 
L 71.722243 44.917274 
L 70.561815 44.661355 
L 69.401387 44.377424 
L 68.240959 44.090803 
L 67.080531 43.703035 
L 65.920104 43.235335 
L 64.759676 41.765227 
L 63.599248 39.906893 
L 62.43882 37.52724 
L 61.278392 34.728539 
L 60.117965 31.786544 
L 58.957537 28.369537 
L 57.797109 25.074215 
L 56.636681 21.708865 
L 55.476253 18.659619 
L 54.315826 15.916129 
L 53.155398 13.096707 
z
" style="fill:#845b97;fill-opacity:0.15;"/>
   </g>
   <g id="matplotlib.axis_1">
    <g id="xtick_1">
     <g id="line2d_1">
      <defs>
       <path d="M 0 0 
L 0 -3 
" id="m239055717d" style="stroke:#000000;stroke-width:0.5;"/>
      </defs>
      <g>
       <use style="stroke:#000000;stroke-width:0.5;" x="53.155398" xlink:href="#m239055717d" y="150.094219"/>
      </g>
     </g>
     <g id="line2d_2">
      <defs>
       <path d="M 0 0 
L 0 3 
" id="me39023248d" style="stroke:#000000;stroke-width:0.5;"/>
      </defs>
      <g>
       <use style="stroke:#000000;stroke-width:0.5;" x="53.155398" xlink:href="#me39023248d" y="7.399219"/>
      </g>
     </g>
     <g id="text_1">
      <!-- 0 -->
      <g transform="translate(49.974148 161.192656)scale(0.1 -0.1)">
       <defs>
        <path d="M 2034 4250 
Q 1547 4250 1301 3770 
Q 1056 3291 1056 2328 
Q 1056 1369 1301 889 
Q 1547 409 2034 409 
Q 2525 409 2770 889 
Q 3016 1369 3016 2328 
Q 3016 3291 2770 3770 
Q 2525 4250 2034 4250 
z
M 2034 4750 
Q 2819 4750 3233 4129 
Q 3647 3509 3647 2328 
Q 3647 1150 3233 529 
Q 2819 -91 2034 -91 
Q 1250 -91 836 529 
Q 422 1150 422 2328 
Q 422 3509 836 4129 
Q 1250 4750 2034 4750 
z
" id="DejaVuSans-30" transform="scale(0.015625)"/>
       </defs>
       <use xlink:href="#DejaVuSans-30"/>
      </g>
     </g>
    </g>
    <g id="xtick_2">
     <g id="line2d_3">
      <g>
       <use style="stroke:#000000;stroke-width:0.5;" x="111.176788" xlink:href="#m239055717d" y="150.094219"/>
      </g>
     </g>
     <g id="line2d_4">
      <g>
       <use style="stroke:#000000;stroke-width:0.5;" x="111.176788" xlink:href="#me39023248d" y="7.399219"/>
      </g>
     </g>
     <g id="text_2">
      <!-- 50 -->
      <g transform="translate(104.814288 161.192656)scale(0.1 -0.1)">
       <defs>
        <path d="M 691 4666 
L 3169 4666 
L 3169 4134 
L 1269 4134 
L 1269 2991 
Q 1406 3038 1543 3061 
Q 1681 3084 1819 3084 
Q 2600 3084 3056 2656 
Q 3513 2228 3513 1497 
Q 3513 744 3044 326 
Q 2575 -91 1722 -91 
Q 1428 -91 1123 -41 
Q 819 9 494 109 
L 494 744 
Q 775 591 1075 516 
Q 1375 441 1709 441 
Q 2250 441 2565 725 
Q 2881 1009 2881 1497 
Q 2881 1984 2565 2268 
Q 2250 2553 1709 2553 
Q 1456 2553 1204 2497 
Q 953 2441 691 2322 
L 691 4666 
z
" id="DejaVuSans-35" transform="scale(0.015625)"/>
       </defs>
       <use xlink:href="#DejaVuSans-35"/>
       <use x="63.623047" xlink:href="#DejaVuSans-30"/>
      </g>
     </g>
    </g>
    <g id="xtick_3">
     <g id="line2d_5">
      <g>
       <use style="stroke:#000000;stroke-width:0.5;" x="169.198178" xlink:href="#m239055717d" y="150.094219"/>
      </g>
     </g>
     <g id="line2d_6">
      <g>
       <use style="stroke:#000000;stroke-width:0.5;" x="169.198178" xlink:href="#me39023248d" y="7.399219"/>
      </g>
     </g>
     <g id="text_3">
      <!-- 100 -->
      <g transform="translate(159.654428 161.192656)scale(0.1 -0.1)">
       <defs>
        <path d="M 794 531 
L 1825 531 
L 1825 4091 
L 703 3866 
L 703 4441 
L 1819 4666 
L 2450 4666 
L 2450 531 
L 3481 531 
L 3481 0 
L 794 0 
L 794 531 
z
" id="DejaVuSans-31" transform="scale(0.015625)"/>
       </defs>
       <use xlink:href="#DejaVuSans-31"/>
       <use x="63.623047" xlink:href="#DejaVuSans-30"/>
       <use x="127.246094" xlink:href="#DejaVuSans-30"/>
      </g>
     </g>
    </g>
    <g id="xtick_4">
     <g id="line2d_7">
      <g>
       <use style="stroke:#000000;stroke-width:0.5;" x="227.219569" xlink:href="#m239055717d" y="150.094219"/>
      </g>
     </g>
     <g id="line2d_8">
      <g>
       <use style="stroke:#000000;stroke-width:0.5;" x="227.219569" xlink:href="#me39023248d" y="7.399219"/>
      </g>
     </g>
     <g id="text_4">
      <!-- 150 -->
      <g transform="translate(217.675819 161.192656)scale(0.1 -0.1)">
       <use xlink:href="#DejaVuSans-31"/>
       <use x="63.623047" xlink:href="#DejaVuSans-35"/>
       <use x="127.246094" xlink:href="#DejaVuSans-30"/>
      </g>
     </g>
    </g>
    <g id="xtick_5">
     <g id="line2d_9">
      <defs>
       <path d="M 0 0 
L 0 -1.5 
" id="mfaa16d162d" style="stroke:#000000;stroke-width:0.5;"/>
      </defs>
      <g>
       <use style="stroke:#000000;stroke-width:0.5;" x="64.759676" xlink:href="#mfaa16d162d" y="150.094219"/>
      </g>
     </g>
     <g id="line2d_10">
      <defs>
       <path d="M 0 0 
L 0 1.5 
" id="m60d211ed0c" style="stroke:#000000;stroke-width:0.5;"/>
      </defs>
      <g>
       <use style="stroke:#000000;stroke-width:0.5;" x="64.759676" xlink:href="#m60d211ed0c" y="7.399219"/>
      </g>
     </g>
    </g>
    <g id="xtick_6">
     <g id="line2d_11">
      <g>
       <use style="stroke:#000000;stroke-width:0.5;" x="76.363954" xlink:href="#mfaa16d162d" y="150.094219"/>
      </g>
     </g>
     <g id="line2d_12">
      <g>
       <use style="stroke:#000000;stroke-width:0.5;" x="76.363954" xlink:href="#m60d211ed0c" y="7.399219"/>
      </g>
     </g>
    </g>
    <g id="xtick_7">
     <g id="line2d_13">
      <g>
       <use style="stroke:#000000;stroke-width:0.5;" x="87.968232" xlink:href="#mfaa16d162d" y="150.094219"/>
      </g>
     </g>
     <g id="line2d_14">
      <g>
       <use style="stroke:#000000;stroke-width:0.5;" x="87.968232" xlink:href="#m60d211ed0c" y="7.399219"/>
      </g>
     </g>
    </g>
    <g id="xtick_8">
     <g id="line2d_15">
      <g>
       <use style="stroke:#000000;stroke-width:0.5;" x="99.57251" xlink:href="#mfaa16d162d" y="150.094219"/>
      </g>
     </g>
     <g id="line2d_16">
      <g>
       <use style="stroke:#000000;stroke-width:0.5;" x="99.57251" xlink:href="#m60d211ed0c" y="7.399219"/>
      </g>
     </g>
    </g>
    <g id="xtick_9">
     <g id="line2d_17">
      <g>
       <use style="stroke:#000000;stroke-width:0.5;" x="122.781066" xlink:href="#mfaa16d162d" y="150.094219"/>
      </g>
     </g>
     <g id="line2d_18">
      <g>
       <use style="stroke:#000000;stroke-width:0.5;" x="122.781066" xlink:href="#m60d211ed0c" y="7.399219"/>
      </g>
     </g>
    </g>
    <g id="xtick_10">
     <g id="line2d_19">
      <g>
       <use style="stroke:#000000;stroke-width:0.5;" x="134.385344" xlink:href="#mfaa16d162d" y="150.094219"/>
      </g>
     </g>
     <g id="line2d_20">
      <g>
       <use style="stroke:#000000;stroke-width:0.5;" x="134.385344" xlink:href="#m60d211ed0c" y="7.399219"/>
      </g>
     </g>
    </g>
    <g id="xtick_11">
     <g id="line2d_21">
      <g>
       <use style="stroke:#000000;stroke-width:0.5;" x="145.989622" xlink:href="#mfaa16d162d" y="150.094219"/>
      </g>
     </g>
     <g id="line2d_22">
      <g>
       <use style="stroke:#000000;stroke-width:0.5;" x="145.989622" xlink:href="#m60d211ed0c" y="7.399219"/>
      </g>
     </g>
    </g>
    <g id="xtick_12">
     <g id="line2d_23">
      <g>
       <use style="stroke:#000000;stroke-width:0.5;" x="157.5939" xlink:href="#mfaa16d162d" y="150.094219"/>
      </g>
     </g>
     <g id="line2d_24">
      <g>
       <use style="stroke:#000000;stroke-width:0.5;" x="157.5939" xlink:href="#m60d211ed0c" y="7.399219"/>
      </g>
     </g>
    </g>
    <g id="xtick_13">
     <g id="line2d_25">
      <g>
       <use style="stroke:#000000;stroke-width:0.5;" x="180.802457" xlink:href="#mfaa16d162d" y="150.094219"/>
      </g>
     </g>
     <g id="line2d_26">
      <g>
       <use style="stroke:#000000;stroke-width:0.5;" x="180.802457" xlink:href="#m60d211ed0c" y="7.399219"/>
      </g>
     </g>
    </g>
    <g id="xtick_14">
     <g id="line2d_27">
      <g>
       <use style="stroke:#000000;stroke-width:0.5;" x="192.406735" xlink:href="#mfaa16d162d" y="150.094219"/>
      </g>
     </g>
     <g id="line2d_28">
      <g>
       <use style="stroke:#000000;stroke-width:0.5;" x="192.406735" xlink:href="#m60d211ed0c" y="7.399219"/>
      </g>
     </g>
    </g>
    <g id="xtick_15">
     <g id="line2d_29">
      <g>
       <use style="stroke:#000000;stroke-width:0.5;" x="204.011013" xlink:href="#mfaa16d162d" y="150.094219"/>
      </g>
     </g>
     <g id="line2d_30">
      <g>
       <use style="stroke:#000000;stroke-width:0.5;" x="204.011013" xlink:href="#m60d211ed0c" y="7.399219"/>
      </g>
     </g>
    </g>
    <g id="xtick_16">
     <g id="line2d_31">
      <g>
       <use style="stroke:#000000;stroke-width:0.5;" x="215.615291" xlink:href="#mfaa16d162d" y="150.094219"/>
      </g>
     </g>
     <g id="line2d_32">
      <g>
       <use style="stroke:#000000;stroke-width:0.5;" x="215.615291" xlink:href="#m60d211ed0c" y="7.399219"/>
      </g>
     </g>
    </g>
    <g id="xtick_17">
     <g id="line2d_33">
      <g>
       <use style="stroke:#000000;stroke-width:0.5;" x="238.823847" xlink:href="#mfaa16d162d" y="150.094219"/>
      </g>
     </g>
     <g id="line2d_34">
      <g>
       <use style="stroke:#000000;stroke-width:0.5;" x="238.823847" xlink:href="#m60d211ed0c" y="7.399219"/>
      </g>
     </g>
    </g>
    <g id="text_5">
     <!-- # Magnets -->
     <g transform="translate(114.786719 174.870781)scale(0.1 -0.1)">
      <defs>
       <path d="M 3272 2816 
L 2363 2816 
L 2100 1772 
L 3016 1772 
L 3272 2816 
z
M 2803 4594 
L 2478 3297 
L 3391 3297 
L 3719 4594 
L 4219 4594 
L 3897 3297 
L 4872 3297 
L 4872 2816 
L 3775 2816 
L 3519 1772 
L 4513 1772 
L 4513 1294 
L 3397 1294 
L 3072 0 
L 2572 0 
L 2894 1294 
L 1978 1294 
L 1656 0 
L 1153 0 
L 1478 1294 
L 494 1294 
L 494 1772 
L 1594 1772 
L 1856 2816 
L 850 2816 
L 850 3297 
L 1978 3297 
L 2297 4594 
L 2803 4594 
z
" id="DejaVuSans-23" transform="scale(0.015625)"/>
       <path id="DejaVuSans-20" transform="scale(0.015625)"/>
       <path d="M 628 4666 
L 1569 4666 
L 2759 1491 
L 3956 4666 
L 4897 4666 
L 4897 0 
L 4281 0 
L 4281 4097 
L 3078 897 
L 2444 897 
L 1241 4097 
L 1241 0 
L 628 0 
L 628 4666 
z
" id="DejaVuSans-4d" transform="scale(0.015625)"/>
       <path d="M 2194 1759 
Q 1497 1759 1228 1600 
Q 959 1441 959 1056 
Q 959 750 1161 570 
Q 1363 391 1709 391 
Q 2188 391 2477 730 
Q 2766 1069 2766 1631 
L 2766 1759 
L 2194 1759 
z
M 3341 1997 
L 3341 0 
L 2766 0 
L 2766 531 
Q 2569 213 2275 61 
Q 1981 -91 1556 -91 
Q 1019 -91 701 211 
Q 384 513 384 1019 
Q 384 1609 779 1909 
Q 1175 2209 1959 2209 
L 2766 2209 
L 2766 2266 
Q 2766 2663 2505 2880 
Q 2244 3097 1772 3097 
Q 1472 3097 1187 3025 
Q 903 2953 641 2809 
L 641 3341 
Q 956 3463 1253 3523 
Q 1550 3584 1831 3584 
Q 2591 3584 2966 3190 
Q 3341 2797 3341 1997 
z
" id="DejaVuSans-61" transform="scale(0.015625)"/>
       <path d="M 2906 1791 
Q 2906 2416 2648 2759 
Q 2391 3103 1925 3103 
Q 1463 3103 1205 2759 
Q 947 2416 947 1791 
Q 947 1169 1205 825 
Q 1463 481 1925 481 
Q 2391 481 2648 825 
Q 2906 1169 2906 1791 
z
M 3481 434 
Q 3481 -459 3084 -895 
Q 2688 -1331 1869 -1331 
Q 1566 -1331 1297 -1286 
Q 1028 -1241 775 -1147 
L 775 -588 
Q 1028 -725 1275 -790 
Q 1522 -856 1778 -856 
Q 2344 -856 2625 -561 
Q 2906 -266 2906 331 
L 2906 616 
Q 2728 306 2450 153 
Q 2172 0 1784 0 
Q 1141 0 747 490 
Q 353 981 353 1791 
Q 353 2603 747 3093 
Q 1141 3584 1784 3584 
Q 2172 3584 2450 3431 
Q 2728 3278 2906 2969 
L 2906 3500 
L 3481 3500 
L 3481 434 
z
" id="DejaVuSans-67" transform="scale(0.015625)"/>
       <path d="M 3513 2113 
L 3513 0 
L 2938 0 
L 2938 2094 
Q 2938 2591 2744 2837 
Q 2550 3084 2163 3084 
Q 1697 3084 1428 2787 
Q 1159 2491 1159 1978 
L 1159 0 
L 581 0 
L 581 3500 
L 1159 3500 
L 1159 2956 
Q 1366 3272 1645 3428 
Q 1925 3584 2291 3584 
Q 2894 3584 3203 3211 
Q 3513 2838 3513 2113 
z
" id="DejaVuSans-6e" transform="scale(0.015625)"/>
       <path d="M 3597 1894 
L 3597 1613 
L 953 1613 
Q 991 1019 1311 708 
Q 1631 397 2203 397 
Q 2534 397 2845 478 
Q 3156 559 3463 722 
L 3463 178 
Q 3153 47 2828 -22 
Q 2503 -91 2169 -91 
Q 1331 -91 842 396 
Q 353 884 353 1716 
Q 353 2575 817 3079 
Q 1281 3584 2069 3584 
Q 2775 3584 3186 3129 
Q 3597 2675 3597 1894 
z
M 3022 2063 
Q 3016 2534 2758 2815 
Q 2500 3097 2075 3097 
Q 1594 3097 1305 2825 
Q 1016 2553 972 2059 
L 3022 2063 
z
" id="DejaVuSans-65" transform="scale(0.015625)"/>
       <path d="M 1172 4494 
L 1172 3500 
L 2356 3500 
L 2356 3053 
L 1172 3053 
L 1172 1153 
Q 1172 725 1289 603 
Q 1406 481 1766 481 
L 2356 481 
L 2356 0 
L 1766 0 
Q 1100 0 847 248 
Q 594 497 594 1153 
L 594 3053 
L 172 3053 
L 172 3500 
L 594 3500 
L 594 4494 
L 1172 4494 
z
" id="DejaVuSans-74" transform="scale(0.015625)"/>
       <path d="M 2834 3397 
L 2834 2853 
Q 2591 2978 2328 3040 
Q 2066 3103 1784 3103 
Q 1356 3103 1142 2972 
Q 928 2841 928 2578 
Q 928 2378 1081 2264 
Q 1234 2150 1697 2047 
L 1894 2003 
Q 2506 1872 2764 1633 
Q 3022 1394 3022 966 
Q 3022 478 2636 193 
Q 2250 -91 1575 -91 
Q 1294 -91 989 -36 
Q 684 19 347 128 
L 347 722 
Q 666 556 975 473 
Q 1284 391 1588 391 
Q 1994 391 2212 530 
Q 2431 669 2431 922 
Q 2431 1156 2273 1281 
Q 2116 1406 1581 1522 
L 1381 1569 
Q 847 1681 609 1914 
Q 372 2147 372 2553 
Q 372 3047 722 3315 
Q 1072 3584 1716 3584 
Q 2034 3584 2315 3537 
Q 2597 3491 2834 3397 
z
" id="DejaVuSans-73" transform="scale(0.015625)"/>
      </defs>
      <use xlink:href="#DejaVuSans-23"/>
      <use x="83.789062" xlink:href="#DejaVuSans-20"/>
      <use x="115.576172" xlink:href="#DejaVuSans-4d"/>
      <use x="201.855469" xlink:href="#DejaVuSans-61"/>
      <use x="263.134766" xlink:href="#DejaVuSans-67"/>
      <use x="326.611328" xlink:href="#DejaVuSans-6e"/>
      <use x="389.990234" xlink:href="#DejaVuSans-65"/>
      <use x="451.513672" xlink:href="#DejaVuSans-74"/>
      <use x="490.722656" xlink:href="#DejaVuSans-73"/>
     </g>
    </g>
   </g>
   <g id="matplotlib.axis_2">
    <g id="ytick_1">
     <g id="line2d_35">
      <defs>
       <path d="M 0 0 
L 3 0 
" id="m28503106ab" style="stroke:#000000;stroke-width:0.5;"/>
      </defs>
      <g>
       <use style="stroke:#000000;stroke-width:0.5;" x="44.278125" xlink:href="#m28503106ab" y="150.094219"/>
      </g>
     </g>
     <g id="line2d_36">
      <defs>
       <path d="M 0 0 
L -3 0 
" id="mb13fc257ee" style="stroke:#000000;stroke-width:0.5;"/>
      </defs>
      <g>
       <use style="stroke:#000000;stroke-width:0.5;" x="239.578125" xlink:href="#mb13fc257ee" y="150.094219"/>
      </g>
     </g>
     <g id="text_6">
      <!-- $\mathdefault{10^{-6}}$ -->
      <g transform="translate(17.278125 153.893437)scale(0.1 -0.1)">
       <defs>
        <path d="M 678 2272 
L 4684 2272 
L 4684 1741 
L 678 1741 
L 678 2272 
z
" id="DejaVuSans-2212" transform="scale(0.015625)"/>
        <path d="M 2113 2584 
Q 1688 2584 1439 2293 
Q 1191 2003 1191 1497 
Q 1191 994 1439 701 
Q 1688 409 2113 409 
Q 2538 409 2786 701 
Q 3034 994 3034 1497 
Q 3034 2003 2786 2293 
Q 2538 2584 2113 2584 
z
M 3366 4563 
L 3366 3988 
Q 3128 4100 2886 4159 
Q 2644 4219 2406 4219 
Q 1781 4219 1451 3797 
Q 1122 3375 1075 2522 
Q 1259 2794 1537 2939 
Q 1816 3084 2150 3084 
Q 2853 3084 3261 2657 
Q 3669 2231 3669 1497 
Q 3669 778 3244 343 
Q 2819 -91 2113 -91 
Q 1303 -91 875 529 
Q 447 1150 447 2328 
Q 447 3434 972 4092 
Q 1497 4750 2381 4750 
Q 2619 4750 2861 4703 
Q 3103 4656 3366 4563 
z
" id="DejaVuSans-36" transform="scale(0.015625)"/>
       </defs>
       <use transform="translate(0 0.765625)" xlink:href="#DejaVuSans-31"/>
       <use transform="translate(63.623047 0.765625)" xlink:href="#DejaVuSans-30"/>
       <use transform="translate(128.203125 39.046875)scale(0.7)" xlink:href="#DejaVuSans-2212"/>
       <use transform="translate(186.855469 39.046875)scale(0.7)" xlink:href="#DejaVuSans-36"/>
      </g>
     </g>
    </g>
    <g id="ytick_2">
     <g id="line2d_37">
      <g>
       <use style="stroke:#000000;stroke-width:0.5;" x="44.278125" xlink:href="#m28503106ab" y="121.555219"/>
      </g>
     </g>
     <g id="line2d_38">
      <g>
       <use style="stroke:#000000;stroke-width:0.5;" x="239.578125" xlink:href="#mb13fc257ee" y="121.555219"/>
      </g>
     </g>
     <g id="text_7">
      <!-- $\mathdefault{10^{-5}}$ -->
      <g transform="translate(17.278125 125.354437)scale(0.1 -0.1)">
       <use transform="translate(0 0.684375)" xlink:href="#DejaVuSans-31"/>
       <use transform="translate(63.623047 0.684375)" xlink:href="#DejaVuSans-30"/>
       <use transform="translate(128.203125 38.965625)scale(0.7)" xlink:href="#DejaVuSans-2212"/>
       <use transform="translate(186.855469 38.965625)scale(0.7)" xlink:href="#DejaVuSans-35"/>
      </g>
     </g>
    </g>
    <g id="ytick_3">
     <g id="line2d_39">
      <g>
       <use style="stroke:#000000;stroke-width:0.5;" x="44.278125" xlink:href="#m28503106ab" y="93.016219"/>
      </g>
     </g>
     <g id="line2d_40">
      <g>
       <use style="stroke:#000000;stroke-width:0.5;" x="239.578125" xlink:href="#mb13fc257ee" y="93.016219"/>
      </g>
     </g>
     <g id="text_8">
      <!-- $\mathdefault{10^{-4}}$ -->
      <g transform="translate(17.278125 96.815437)scale(0.1 -0.1)">
       <defs>
        <path d="M 2419 4116 
L 825 1625 
L 2419 1625 
L 2419 4116 
z
M 2253 4666 
L 3047 4666 
L 3047 1625 
L 3713 1625 
L 3713 1100 
L 3047 1100 
L 3047 0 
L 2419 0 
L 2419 1100 
L 313 1100 
L 313 1709 
L 2253 4666 
z
" id="DejaVuSans-34" transform="scale(0.015625)"/>
       </defs>
       <use transform="translate(0 0.684375)" xlink:href="#DejaVuSans-31"/>
       <use transform="translate(63.623047 0.684375)" xlink:href="#DejaVuSans-30"/>
       <use transform="translate(128.203125 38.965625)scale(0.7)" xlink:href="#DejaVuSans-2212"/>
       <use transform="translate(186.855469 38.965625)scale(0.7)" xlink:href="#DejaVuSans-34"/>
      </g>
     </g>
    </g>
    <g id="ytick_4">
     <g id="line2d_41">
      <g>
       <use style="stroke:#000000;stroke-width:0.5;" x="44.278125" xlink:href="#m28503106ab" y="64.477219"/>
      </g>
     </g>
     <g id="line2d_42">
      <g>
       <use style="stroke:#000000;stroke-width:0.5;" x="239.578125" xlink:href="#mb13fc257ee" y="64.477219"/>
      </g>
     </g>
     <g id="text_9">
      <!-- $\mathdefault{10^{-3}}$ -->
      <g transform="translate(17.278125 68.276437)scale(0.1 -0.1)">
       <defs>
        <path d="M 2597 2516 
Q 3050 2419 3304 2112 
Q 3559 1806 3559 1356 
Q 3559 666 3084 287 
Q 2609 -91 1734 -91 
Q 1441 -91 1130 -33 
Q 819 25 488 141 
L 488 750 
Q 750 597 1062 519 
Q 1375 441 1716 441 
Q 2309 441 2620 675 
Q 2931 909 2931 1356 
Q 2931 1769 2642 2001 
Q 2353 2234 1838 2234 
L 1294 2234 
L 1294 2753 
L 1863 2753 
Q 2328 2753 2575 2939 
Q 2822 3125 2822 3475 
Q 2822 3834 2567 4026 
Q 2313 4219 1838 4219 
Q 1578 4219 1281 4162 
Q 984 4106 628 3988 
L 628 4550 
Q 988 4650 1302 4700 
Q 1616 4750 1894 4750 
Q 2613 4750 3031 4423 
Q 3450 4097 3450 3541 
Q 3450 3153 3228 2886 
Q 3006 2619 2597 2516 
z
" id="DejaVuSans-33" transform="scale(0.015625)"/>
       </defs>
       <use transform="translate(0 0.765625)" xlink:href="#DejaVuSans-31"/>
       <use transform="translate(63.623047 0.765625)" xlink:href="#DejaVuSans-30"/>
       <use transform="translate(128.203125 39.046875)scale(0.7)" xlink:href="#DejaVuSans-2212"/>
       <use transform="translate(186.855469 39.046875)scale(0.7)" xlink:href="#DejaVuSans-33"/>
      </g>
     </g>
    </g>
    <g id="ytick_5">
     <g id="line2d_43">
      <g>
       <use style="stroke:#000000;stroke-width:0.5;" x="44.278125" xlink:href="#m28503106ab" y="35.938219"/>
      </g>
     </g>
     <g id="line2d_44">
      <g>
       <use style="stroke:#000000;stroke-width:0.5;" x="239.578125" xlink:href="#mb13fc257ee" y="35.938219"/>
      </g>
     </g>
     <g id="text_10">
      <!-- $\mathdefault{10^{-2}}$ -->
      <g transform="translate(17.278125 39.737437)scale(0.1 -0.1)">
       <defs>
        <path d="M 1228 531 
L 3431 531 
L 3431 0 
L 469 0 
L 469 531 
Q 828 903 1448 1529 
Q 2069 2156 2228 2338 
Q 2531 2678 2651 2914 
Q 2772 3150 2772 3378 
Q 2772 3750 2511 3984 
Q 2250 4219 1831 4219 
Q 1534 4219 1204 4116 
Q 875 4013 500 3803 
L 500 4441 
Q 881 4594 1212 4672 
Q 1544 4750 1819 4750 
Q 2544 4750 2975 4387 
Q 3406 4025 3406 3419 
Q 3406 3131 3298 2873 
Q 3191 2616 2906 2266 
Q 2828 2175 2409 1742 
Q 1991 1309 1228 531 
z
" id="DejaVuSans-32" transform="scale(0.015625)"/>
       </defs>
       <use transform="translate(0 0.765625)" xlink:href="#DejaVuSans-31"/>
       <use transform="translate(63.623047 0.765625)" xlink:href="#DejaVuSans-30"/>
       <use transform="translate(128.203125 39.046875)scale(0.7)" xlink:href="#DejaVuSans-2212"/>
       <use transform="translate(186.855469 39.046875)scale(0.7)" xlink:href="#DejaVuSans-32"/>
      </g>
     </g>
    </g>
    <g id="ytick_6">
     <g id="line2d_45">
      <g>
       <use style="stroke:#000000;stroke-width:0.5;" x="44.278125" xlink:href="#m28503106ab" y="7.399219"/>
      </g>
     </g>
     <g id="line2d_46">
      <g>
       <use style="stroke:#000000;stroke-width:0.5;" x="239.578125" xlink:href="#mb13fc257ee" y="7.399219"/>
      </g>
     </g>
     <g id="text_11">
      <!-- $\mathdefault{10^{-1}}$ -->
      <g transform="translate(17.278125 11.198437)scale(0.1 -0.1)">
       <use transform="translate(0 0.684375)" xlink:href="#DejaVuSans-31"/>
       <use transform="translate(63.623047 0.684375)" xlink:href="#DejaVuSans-30"/>
       <use transform="translate(128.203125 38.965625)scale(0.7)" xlink:href="#DejaVuSans-2212"/>
       <use transform="translate(186.855469 38.965625)scale(0.7)" xlink:href="#DejaVuSans-31"/>
      </g>
     </g>
    </g>
    <g id="ytick_7">
     <g id="line2d_47">
      <defs>
       <path d="M 0 0 
L 1.5 0 
" id="ma552076bdf" style="stroke:#000000;stroke-width:0.5;"/>
      </defs>
      <g>
       <use style="stroke:#000000;stroke-width:0.5;" x="44.278125" xlink:href="#ma552076bdf" y="141.503124"/>
      </g>
     </g>
     <g id="line2d_48">
      <defs>
       <path d="M 0 0 
L -1.5 0 
" id="mba895ff2c9" style="stroke:#000000;stroke-width:0.5;"/>
      </defs>
      <g>
       <use style="stroke:#000000;stroke-width:0.5;" x="239.578125" xlink:href="#mba895ff2c9" y="141.503124"/>
      </g>
     </g>
    </g>
    <g id="ytick_8">
     <g id="line2d_49">
      <g>
       <use style="stroke:#000000;stroke-width:0.5;" x="44.278125" xlink:href="#ma552076bdf" y="136.477655"/>
      </g>
     </g>
     <g id="line2d_50">
      <g>
       <use style="stroke:#000000;stroke-width:0.5;" x="239.578125" xlink:href="#mba895ff2c9" y="136.477655"/>
      </g>
     </g>
    </g>
    <g id="ytick_9">
     <g id="line2d_51">
      <g>
       <use style="stroke:#000000;stroke-width:0.5;" x="44.278125" xlink:href="#ma552076bdf" y="132.912029"/>
      </g>
     </g>
     <g id="line2d_52">
      <g>
       <use style="stroke:#000000;stroke-width:0.5;" x="239.578125" xlink:href="#mba895ff2c9" y="132.912029"/>
      </g>
     </g>
    </g>
    <g id="ytick_10">
     <g id="line2d_53">
      <g>
       <use style="stroke:#000000;stroke-width:0.5;" x="44.278125" xlink:href="#ma552076bdf" y="130.146314"/>
      </g>
     </g>
     <g id="line2d_54">
      <g>
       <use style="stroke:#000000;stroke-width:0.5;" x="239.578125" xlink:href="#mba895ff2c9" y="130.146314"/>
      </g>
     </g>
    </g>
    <g id="ytick_11">
     <g id="line2d_55">
      <g>
       <use style="stroke:#000000;stroke-width:0.5;" x="44.278125" xlink:href="#ma552076bdf" y="127.88656"/>
      </g>
     </g>
     <g id="line2d_56">
      <g>
       <use style="stroke:#000000;stroke-width:0.5;" x="239.578125" xlink:href="#mba895ff2c9" y="127.88656"/>
      </g>
     </g>
    </g>
    <g id="ytick_12">
     <g id="line2d_57">
      <g>
       <use style="stroke:#000000;stroke-width:0.5;" x="44.278125" xlink:href="#ma552076bdf" y="125.975966"/>
      </g>
     </g>
     <g id="line2d_58">
      <g>
       <use style="stroke:#000000;stroke-width:0.5;" x="239.578125" xlink:href="#mba895ff2c9" y="125.975966"/>
      </g>
     </g>
    </g>
    <g id="ytick_13">
     <g id="line2d_59">
      <g>
       <use style="stroke:#000000;stroke-width:0.5;" x="44.278125" xlink:href="#ma552076bdf" y="124.320934"/>
      </g>
     </g>
     <g id="line2d_60">
      <g>
       <use style="stroke:#000000;stroke-width:0.5;" x="239.578125" xlink:href="#mba895ff2c9" y="124.320934"/>
      </g>
     </g>
    </g>
    <g id="ytick_14">
     <g id="line2d_61">
      <g>
       <use style="stroke:#000000;stroke-width:0.5;" x="44.278125" xlink:href="#ma552076bdf" y="122.861092"/>
      </g>
     </g>
     <g id="line2d_62">
      <g>
       <use style="stroke:#000000;stroke-width:0.5;" x="239.578125" xlink:href="#mba895ff2c9" y="122.861092"/>
      </g>
     </g>
    </g>
    <g id="ytick_15">
     <g id="line2d_63">
      <g>
       <use style="stroke:#000000;stroke-width:0.5;" x="44.278125" xlink:href="#ma552076bdf" y="112.964124"/>
      </g>
     </g>
     <g id="line2d_64">
      <g>
       <use style="stroke:#000000;stroke-width:0.5;" x="239.578125" xlink:href="#mba895ff2c9" y="112.964124"/>
      </g>
     </g>
    </g>
    <g id="ytick_16">
     <g id="line2d_65">
      <g>
       <use style="stroke:#000000;stroke-width:0.5;" x="44.278125" xlink:href="#ma552076bdf" y="107.938655"/>
      </g>
     </g>
     <g id="line2d_66">
      <g>
       <use style="stroke:#000000;stroke-width:0.5;" x="239.578125" xlink:href="#mba895ff2c9" y="107.938655"/>
      </g>
     </g>
    </g>
    <g id="ytick_17">
     <g id="line2d_67">
      <g>
       <use style="stroke:#000000;stroke-width:0.5;" x="44.278125" xlink:href="#ma552076bdf" y="104.373029"/>
      </g>
     </g>
     <g id="line2d_68">
      <g>
       <use style="stroke:#000000;stroke-width:0.5;" x="239.578125" xlink:href="#mba895ff2c9" y="104.373029"/>
      </g>
     </g>
    </g>
    <g id="ytick_18">
     <g id="line2d_69">
      <g>
       <use style="stroke:#000000;stroke-width:0.5;" x="44.278125" xlink:href="#ma552076bdf" y="101.607314"/>
      </g>
     </g>
     <g id="line2d_70">
      <g>
       <use style="stroke:#000000;stroke-width:0.5;" x="239.578125" xlink:href="#mba895ff2c9" y="101.607314"/>
      </g>
     </g>
    </g>
    <g id="ytick_19">
     <g id="line2d_71">
      <g>
       <use style="stroke:#000000;stroke-width:0.5;" x="44.278125" xlink:href="#ma552076bdf" y="99.34756"/>
      </g>
     </g>
     <g id="line2d_72">
      <g>
       <use style="stroke:#000000;stroke-width:0.5;" x="239.578125" xlink:href="#mba895ff2c9" y="99.34756"/>
      </g>
     </g>
    </g>
    <g id="ytick_20">
     <g id="line2d_73">
      <g>
       <use style="stroke:#000000;stroke-width:0.5;" x="44.278125" xlink:href="#ma552076bdf" y="97.436966"/>
      </g>
     </g>
     <g id="line2d_74">
      <g>
       <use style="stroke:#000000;stroke-width:0.5;" x="239.578125" xlink:href="#mba895ff2c9" y="97.436966"/>
      </g>
     </g>
    </g>
    <g id="ytick_21">
     <g id="line2d_75">
      <g>
       <use style="stroke:#000000;stroke-width:0.5;" x="44.278125" xlink:href="#ma552076bdf" y="95.781934"/>
      </g>
     </g>
     <g id="line2d_76">
      <g>
       <use style="stroke:#000000;stroke-width:0.5;" x="239.578125" xlink:href="#mba895ff2c9" y="95.781934"/>
      </g>
     </g>
    </g>
    <g id="ytick_22">
     <g id="line2d_77">
      <g>
       <use style="stroke:#000000;stroke-width:0.5;" x="44.278125" xlink:href="#ma552076bdf" y="94.322092"/>
      </g>
     </g>
     <g id="line2d_78">
      <g>
       <use style="stroke:#000000;stroke-width:0.5;" x="239.578125" xlink:href="#mba895ff2c9" y="94.322092"/>
      </g>
     </g>
    </g>
    <g id="ytick_23">
     <g id="line2d_79">
      <g>
       <use style="stroke:#000000;stroke-width:0.5;" x="44.278125" xlink:href="#ma552076bdf" y="84.425124"/>
      </g>
     </g>
     <g id="line2d_80">
      <g>
       <use style="stroke:#000000;stroke-width:0.5;" x="239.578125" xlink:href="#mba895ff2c9" y="84.425124"/>
      </g>
     </g>
    </g>
    <g id="ytick_24">
     <g id="line2d_81">
      <g>
       <use style="stroke:#000000;stroke-width:0.5;" x="44.278125" xlink:href="#ma552076bdf" y="79.399655"/>
      </g>
     </g>
     <g id="line2d_82">
      <g>
       <use style="stroke:#000000;stroke-width:0.5;" x="239.578125" xlink:href="#mba895ff2c9" y="79.399655"/>
      </g>
     </g>
    </g>
    <g id="ytick_25">
     <g id="line2d_83">
      <g>
       <use style="stroke:#000000;stroke-width:0.5;" x="44.278125" xlink:href="#ma552076bdf" y="75.834029"/>
      </g>
     </g>
     <g id="line2d_84">
      <g>
       <use style="stroke:#000000;stroke-width:0.5;" x="239.578125" xlink:href="#mba895ff2c9" y="75.834029"/>
      </g>
     </g>
    </g>
    <g id="ytick_26">
     <g id="line2d_85">
      <g>
       <use style="stroke:#000000;stroke-width:0.5;" x="44.278125" xlink:href="#ma552076bdf" y="73.068314"/>
      </g>
     </g>
     <g id="line2d_86">
      <g>
       <use style="stroke:#000000;stroke-width:0.5;" x="239.578125" xlink:href="#mba895ff2c9" y="73.068314"/>
      </g>
     </g>
    </g>
    <g id="ytick_27">
     <g id="line2d_87">
      <g>
       <use style="stroke:#000000;stroke-width:0.5;" x="44.278125" xlink:href="#ma552076bdf" y="70.80856"/>
      </g>
     </g>
     <g id="line2d_88">
      <g>
       <use style="stroke:#000000;stroke-width:0.5;" x="239.578125" xlink:href="#mba895ff2c9" y="70.80856"/>
      </g>
     </g>
    </g>
    <g id="ytick_28">
     <g id="line2d_89">
      <g>
       <use style="stroke:#000000;stroke-width:0.5;" x="44.278125" xlink:href="#ma552076bdf" y="68.897966"/>
      </g>
     </g>
     <g id="line2d_90">
      <g>
       <use style="stroke:#000000;stroke-width:0.5;" x="239.578125" xlink:href="#mba895ff2c9" y="68.897966"/>
      </g>
     </g>
    </g>
    <g id="ytick_29">
     <g id="line2d_91">
      <g>
       <use style="stroke:#000000;stroke-width:0.5;" x="44.278125" xlink:href="#ma552076bdf" y="67.242934"/>
      </g>
     </g>
     <g id="line2d_92">
      <g>
       <use style="stroke:#000000;stroke-width:0.5;" x="239.578125" xlink:href="#mba895ff2c9" y="67.242934"/>
      </g>
     </g>
    </g>
    <g id="ytick_30">
     <g id="line2d_93">
      <g>
       <use style="stroke:#000000;stroke-width:0.5;" x="44.278125" xlink:href="#ma552076bdf" y="65.783092"/>
      </g>
     </g>
     <g id="line2d_94">
      <g>
       <use style="stroke:#000000;stroke-width:0.5;" x="239.578125" xlink:href="#mba895ff2c9" y="65.783092"/>
      </g>
     </g>
    </g>
    <g id="ytick_31">
     <g id="line2d_95">
      <g>
       <use style="stroke:#000000;stroke-width:0.5;" x="44.278125" xlink:href="#ma552076bdf" y="55.886124"/>
      </g>
     </g>
     <g id="line2d_96">
      <g>
       <use style="stroke:#000000;stroke-width:0.5;" x="239.578125" xlink:href="#mba895ff2c9" y="55.886124"/>
      </g>
     </g>
    </g>
    <g id="ytick_32">
     <g id="line2d_97">
      <g>
       <use style="stroke:#000000;stroke-width:0.5;" x="44.278125" xlink:href="#ma552076bdf" y="50.860655"/>
      </g>
     </g>
     <g id="line2d_98">
      <g>
       <use style="stroke:#000000;stroke-width:0.5;" x="239.578125" xlink:href="#mba895ff2c9" y="50.860655"/>
      </g>
     </g>
    </g>
    <g id="ytick_33">
     <g id="line2d_99">
      <g>
       <use style="stroke:#000000;stroke-width:0.5;" x="44.278125" xlink:href="#ma552076bdf" y="47.295029"/>
      </g>
     </g>
     <g id="line2d_100">
      <g>
       <use style="stroke:#000000;stroke-width:0.5;" x="239.578125" xlink:href="#mba895ff2c9" y="47.295029"/>
      </g>
     </g>
    </g>
    <g id="ytick_34">
     <g id="line2d_101">
      <g>
       <use style="stroke:#000000;stroke-width:0.5;" x="44.278125" xlink:href="#ma552076bdf" y="44.529314"/>
      </g>
     </g>
     <g id="line2d_102">
      <g>
       <use style="stroke:#000000;stroke-width:0.5;" x="239.578125" xlink:href="#mba895ff2c9" y="44.529314"/>
      </g>
     </g>
    </g>
    <g id="ytick_35">
     <g id="line2d_103">
      <g>
       <use style="stroke:#000000;stroke-width:0.5;" x="44.278125" xlink:href="#ma552076bdf" y="42.26956"/>
      </g>
     </g>
     <g id="line2d_104">
      <g>
       <use style="stroke:#000000;stroke-width:0.5;" x="239.578125" xlink:href="#mba895ff2c9" y="42.26956"/>
      </g>
     </g>
    </g>
    <g id="ytick_36">
     <g id="line2d_105">
      <g>
       <use style="stroke:#000000;stroke-width:0.5;" x="44.278125" xlink:href="#ma552076bdf" y="40.358966"/>
      </g>
     </g>
     <g id="line2d_106">
      <g>
       <use style="stroke:#000000;stroke-width:0.5;" x="239.578125" xlink:href="#mba895ff2c9" y="40.358966"/>
      </g>
     </g>
    </g>
    <g id="ytick_37">
     <g id="line2d_107">
      <g>
       <use style="stroke:#000000;stroke-width:0.5;" x="44.278125" xlink:href="#ma552076bdf" y="38.703934"/>
      </g>
     </g>
     <g id="line2d_108">
      <g>
       <use style="stroke:#000000;stroke-width:0.5;" x="239.578125" xlink:href="#mba895ff2c9" y="38.703934"/>
      </g>
     </g>
    </g>
    <g id="ytick_38">
     <g id="line2d_109">
      <g>
       <use style="stroke:#000000;stroke-width:0.5;" x="44.278125" xlink:href="#ma552076bdf" y="37.244092"/>
      </g>
     </g>
     <g id="line2d_110">
      <g>
       <use style="stroke:#000000;stroke-width:0.5;" x="239.578125" xlink:href="#mba895ff2c9" y="37.244092"/>
      </g>
     </g>
    </g>
    <g id="ytick_39">
     <g id="line2d_111">
      <g>
       <use style="stroke:#000000;stroke-width:0.5;" x="44.278125" xlink:href="#ma552076bdf" y="27.347124"/>
      </g>
     </g>
     <g id="line2d_112">
      <g>
       <use style="stroke:#000000;stroke-width:0.5;" x="239.578125" xlink:href="#mba895ff2c9" y="27.347124"/>
      </g>
     </g>
    </g>
    <g id="ytick_40">
     <g id="line2d_113">
      <g>
       <use style="stroke:#000000;stroke-width:0.5;" x="44.278125" xlink:href="#ma552076bdf" y="22.321655"/>
      </g>
     </g>
     <g id="line2d_114">
      <g>
       <use style="stroke:#000000;stroke-width:0.5;" x="239.578125" xlink:href="#mba895ff2c9" y="22.321655"/>
      </g>
     </g>
    </g>
    <g id="ytick_41">
     <g id="line2d_115">
      <g>
       <use style="stroke:#000000;stroke-width:0.5;" x="44.278125" xlink:href="#ma552076bdf" y="18.756029"/>
      </g>
     </g>
     <g id="line2d_116">
      <g>
       <use style="stroke:#000000;stroke-width:0.5;" x="239.578125" xlink:href="#mba895ff2c9" y="18.756029"/>
      </g>
     </g>
    </g>
    <g id="ytick_42">
     <g id="line2d_117">
      <g>
       <use style="stroke:#000000;stroke-width:0.5;" x="44.278125" xlink:href="#ma552076bdf" y="15.990314"/>
      </g>
     </g>
     <g id="line2d_118">
      <g>
       <use style="stroke:#000000;stroke-width:0.5;" x="239.578125" xlink:href="#mba895ff2c9" y="15.990314"/>
      </g>
     </g>
    </g>
    <g id="ytick_43">
     <g id="line2d_119">
      <g>
       <use style="stroke:#000000;stroke-width:0.5;" x="44.278125" xlink:href="#ma552076bdf" y="13.73056"/>
      </g>
     </g>
     <g id="line2d_120">
      <g>
       <use style="stroke:#000000;stroke-width:0.5;" x="239.578125" xlink:href="#mba895ff2c9" y="13.73056"/>
      </g>
     </g>
    </g>
    <g id="ytick_44">
     <g id="line2d_121">
      <g>
       <use style="stroke:#000000;stroke-width:0.5;" x="44.278125" xlink:href="#ma552076bdf" y="11.819966"/>
      </g>
     </g>
     <g id="line2d_122">
      <g>
       <use style="stroke:#000000;stroke-width:0.5;" x="239.578125" xlink:href="#mba895ff2c9" y="11.819966"/>
      </g>
     </g>
    </g>
    <g id="ytick_45">
     <g id="line2d_123">
      <g>
       <use style="stroke:#000000;stroke-width:0.5;" x="44.278125" xlink:href="#ma552076bdf" y="10.164934"/>
      </g>
     </g>
     <g id="line2d_124">
      <g>
       <use style="stroke:#000000;stroke-width:0.5;" x="239.578125" xlink:href="#mba895ff2c9" y="10.164934"/>
      </g>
     </g>
    </g>
    <g id="ytick_46">
     <g id="line2d_125">
      <g>
       <use style="stroke:#000000;stroke-width:0.5;" x="44.278125" xlink:href="#ma552076bdf" y="8.705092"/>
      </g>
     </g>
     <g id="line2d_126">
      <g>
       <use style="stroke:#000000;stroke-width:0.5;" x="239.578125" xlink:href="#mba895ff2c9" y="8.705092"/>
      </g>
     </g>
    </g>
    <g id="text_12">
     <!-- Voltage / V -->
     <g transform="translate(11.198438 105.785781)rotate(-90)scale(0.1 -0.1)">
      <defs>
       <path d="M 1831 0 
L 50 4666 
L 709 4666 
L 2188 738 
L 3669 4666 
L 4325 4666 
L 2547 0 
L 1831 0 
z
" id="DejaVuSans-56" transform="scale(0.015625)"/>
       <path d="M 1959 3097 
Q 1497 3097 1228 2736 
Q 959 2375 959 1747 
Q 959 1119 1226 758 
Q 1494 397 1959 397 
Q 2419 397 2687 759 
Q 2956 1122 2956 1747 
Q 2956 2369 2687 2733 
Q 2419 3097 1959 3097 
z
M 1959 3584 
Q 2709 3584 3137 3096 
Q 3566 2609 3566 1747 
Q 3566 888 3137 398 
Q 2709 -91 1959 -91 
Q 1206 -91 779 398 
Q 353 888 353 1747 
Q 353 2609 779 3096 
Q 1206 3584 1959 3584 
z
" id="DejaVuSans-6f" transform="scale(0.015625)"/>
       <path d="M 603 4863 
L 1178 4863 
L 1178 0 
L 603 0 
L 603 4863 
z
" id="DejaVuSans-6c" transform="scale(0.015625)"/>
       <path d="M 1625 4666 
L 2156 4666 
L 531 -594 
L 0 -594 
L 1625 4666 
z
" id="DejaVuSans-2f" transform="scale(0.015625)"/>
      </defs>
      <use xlink:href="#DejaVuSans-56"/>
      <use x="60.658203" xlink:href="#DejaVuSans-6f"/>
      <use x="121.839844" xlink:href="#DejaVuSans-6c"/>
      <use x="149.623047" xlink:href="#DejaVuSans-74"/>
      <use x="188.832031" xlink:href="#DejaVuSans-61"/>
      <use x="250.111328" xlink:href="#DejaVuSans-67"/>
      <use x="313.587891" xlink:href="#DejaVuSans-65"/>
      <use x="375.111328" xlink:href="#DejaVuSans-20"/>
      <use x="406.898438" xlink:href="#DejaVuSans-2f"/>
      <use x="440.589844" xlink:href="#DejaVuSans-20"/>
      <use x="472.376953" xlink:href="#DejaVuSans-56"/>
     </g>
    </g>
   </g>
   <g id="line2d_127">
    <path clip-path="url(#pd857bd50cd)" d="M 53.155398 55.318156 
L 54.315826 63.408762 
L 55.476253 68.069167 
L 56.636681 70.470183 
L 57.797109 72.243297 
L 58.957537 73.662767 
L 60.117965 74.385835 
L 61.278392 74.64904 
L 62.43882 75.665795 
L 63.599248 75.895649 
L 65.920104 76.832036 
L 68.240959 77.142624 
L 70.561815 77.515739 
L 77.524382 78.252215 
L 85.647376 79.03625 
L 104.214221 80.894743 
L 128.583205 83.657492 
L 154.112617 87.208711 
L 164.556467 89.117305 
L 172.679462 90.799619 
L 183.123312 93.512241 
L 188.925451 95.245828 
L 192.406735 96.479945 
L 199.369301 99.135797 
L 205.171441 101.598196 
L 208.652724 103.082911 
L 210.97358 104.348484 
L 213.294435 105.471007 
L 214.454863 106.188677 
L 215.615291 106.682344 
L 220.257002 109.67422 
L 221.41743 110.574412 
L 222.577858 111.312678 
L 223.738285 112.672701 
L 224.898713 114.63197 
L 226.059141 115.928332 
L 227.219569 120.381106 
L 228.379997 122.636895 
L 229.540424 126.100607 
L 229.542691 181.550469 
L 229.542691 181.550469 
" style="fill:none;stroke:#0c5da5;stroke-linecap:square;"/>
   </g>
   <g id="line2d_128">
    <path clip-path="url(#pd857bd50cd)" d="M 53.155398 84.947957 
L 54.315826 88.260052 
L 55.476253 90.532911 
L 56.636681 92.151723 
L 57.797109 93.153773 
L 61.278392 94.856459 
L 63.599248 95.919313 
L 69.401387 97.752354 
L 71.722243 98.398314 
L 75.203526 99.170119 
L 78.684809 100.124486 
L 100.732938 104.243403 
L 104.214221 104.679738 
L 111.176788 105.768194 
L 122.781066 107.520683 
L 129.743633 108.479889 
L 136.7062 109.616428 
L 140.187483 110.268613 
L 152.952189 112.828839 
L 157.5939 113.982126 
L 162.235612 115.24396 
L 165.716895 116.369216 
L 169.198178 117.697333 
L 173.83989 119.535389 
L 178.481601 121.744185 
L 180.802457 122.84954 
L 185.444168 125.602098 
L 188.925451 127.904189 
L 193.567162 131.531479 
L 197.048446 135.05441 
L 200.529729 138.81697 
L 204.011013 143.985461 
L 207.492296 149.441937 
L 209.813152 152.838536 
L 210.97358 155.088254 
L 212.134007 157.035057 
L 214.454863 161.878891 
L 215.615291 163.022456 
L 216.775719 164.603628 
L 217.936146 165.677717 
L 219.096574 166.56367 
L 221.41743 167.477107 
L 222.577858 169.089554 
L 223.738285 169.740033 
L 224.898713 173.438107 
L 226.059141 174.014204 
L 227.219569 177.360563 
L 227.431369 181.550469 
L 227.431369 181.550469 
" style="fill:none;stroke:#ff9500;stroke-linecap:square;"/>
   </g>
   <g id="line2d_129">
    <path clip-path="url(#pd857bd50cd)" d="M 53.155398 14.356174 
L 55.476253 36.268252 
L 56.636681 44.044574 
L 57.797109 49.668929 
L 58.957537 51.763848 
L 60.117965 52.459015 
L 62.43882 53.138825 
L 67.080531 54.185039 
L 76.363954 56.003948 
L 83.326521 57.075423 
L 87.968232 57.685436 
L 147.15005 64.164013 
L 162.235612 65.740626 
L 179.642029 67.73233 
L 192.406735 69.52661 
L 204.011013 71.545646 
L 210.97358 73.116165 
L 216.775719 74.673843 
L 220.257002 75.870626 
L 222.577858 76.905444 
L 223.738285 77.468811 
L 224.898713 78.187521 
L 226.059141 79.090242 
L 227.219569 80.274844 
L 228.379997 82.002363 
L 229.540424 85.106546 
L 229.544361 181.550469 
L 229.544361 181.550469 
" style="fill:none;stroke:#00b945;stroke-linecap:square;"/>
   </g>
   <g id="line2d_130">
    <path clip-path="url(#pd857bd50cd)" d="M 53.155398 43.87087 
L 54.315826 54.050243 
L 55.476253 62.518524 
L 56.636681 67.519162 
L 57.797109 71.974245 
L 58.957537 74.836647 
L 60.117965 76.597524 
L 62.43882 78.332292 
L 65.920104 80.066379 
L 69.401387 81.485037 
L 75.203526 83.530246 
L 93.770371 89.755029 
L 98.412082 91.199776 
L 105.374649 93.394605 
L 111.176788 95.210675 
L 113.497644 96.03168 
L 123.941494 99.290749 
L 128.583205 100.777038 
L 148.310478 107.126482 
L 163.396039 112.417812 
L 165.716895 113.286461 
L 169.198178 114.521788 
L 180.802457 118.981762 
L 188.925451 122.347046 
L 190.085879 122.795223 
L 192.406735 123.973589 
L 199.369301 127.1601 
L 204.011013 129.527163 
L 205.171441 130.319111 
L 206.331868 131.360321 
L 207.492296 132.110619 
L 208.652724 133.191958 
L 209.813152 133.810824 
L 210.97358 134.600827 
L 212.134007 135.737683 
L 214.454863 137.602477 
L 216.775719 139.746549 
L 217.936146 141.532245 
L 219.096574 142.653349 
L 220.257002 144.936647 
L 221.41743 147.579559 
L 222.577858 149.363097 
L 223.738285 151.488945 
L 224.898713 154.18825 
L 227.219569 161.22461 
L 228.379997 163.550215 
L 229.540424 169.861723 
L 229.540903 181.550469 
L 229.540903 181.550469 
" style="fill:none;stroke:#ff2c00;stroke-linecap:square;"/>
   </g>
   <g id="line2d_131">
    <path clip-path="url(#pd857bd50cd)" d="M 53.155398 15.855991 
L 55.476253 21.373634 
L 56.636681 24.250749 
L 60.117965 33.942026 
L 62.43882 39.545099 
L 63.599248 41.810899 
L 64.759676 43.674781 
L 65.920104 45.081992 
L 68.240959 45.912529 
L 72.88267 46.951823 
L 81.005665 48.360067 
L 87.968232 49.319519 
L 115.818499 52.542105 
L 142.508339 55.400498 
L 156.433473 56.703959 
L 204.011013 61.639586 
L 214.454863 63.107911 
L 217.936146 63.836508 
L 220.257002 64.560422 
L 222.577858 65.746456 
L 223.738285 66.48509 
L 224.898713 67.63651 
L 226.059141 69.335239 
L 227.219569 71.250531 
L 228.379997 74.349204 
L 229.540424 79.254042 
L 229.544599 181.550469 
L 229.544599 181.550469 
" style="fill:none;stroke:#845b97;stroke-linecap:square;"/>
   </g>
   <g id="patch_3">
    <path d="M 44.278125 150.094219 
L 44.278125 7.399219 
" style="fill:none;stroke:#000000;stroke-linecap:square;stroke-linejoin:miter;stroke-width:0.5;"/>
   </g>
   <g id="patch_4">
    <path d="M 239.578125 150.094219 
L 239.578125 7.399219 
" style="fill:none;stroke:#000000;stroke-linecap:square;stroke-linejoin:miter;stroke-width:0.5;"/>
   </g>
   <g id="patch_5">
    <path d="M 44.278125 150.094219 
L 239.578125 150.094219 
" style="fill:none;stroke:#000000;stroke-linecap:square;stroke-linejoin:miter;stroke-width:0.5;"/>
   </g>
   <g id="patch_6">
    <path d="M 44.278125 7.399219 
L 239.578125 7.399219 
" style="fill:none;stroke:#000000;stroke-linecap:square;stroke-linejoin:miter;stroke-width:0.5;"/>
   </g>
  </g>
 </g>
 <defs>
  <clipPath id="pd857bd50cd">
   <rect height="142.695" width="195.3" x="44.278125" y="7.399219"/>
  </clipPath>
 </defs>
</svg>
