<?xml version="1.0" encoding="utf-8" standalone="no"?>
<!DOCTYPE svg PUBLIC "-//W3C//DTD SVG 1.1//EN"
  "http://www.w3.org/Graphics/SVG/1.1/DTD/svg11.dtd">
<svg height="180.550469pt" version="1.1" viewBox="0 0 243.178125 180.550469" width="243.178125pt" xmlns="http://www.w3.org/2000/svg" xmlns:xlink="http://www.w3.org/1999/xlink">
 <metadata>
  <rdf:RDF xmlns:cc="http://creativecommons.org/ns#" xmlns:dc="http://purl.org/dc/elements/1.1/" xmlns:rdf="http://www.w3.org/1999/02/22-rdf-syntax-ns#">
   <cc:Work>
    <dc:type rdf:resource="http://purl.org/dc/dcmitype/StillImage"/>
    <dc:date>2023-04-24T13:37:58.780665</dc:date>
    <dc:format>image/svg+xml</dc:format>
    <dc:creator>
     <cc:Agent>
      <dc:title>Matplotlib v3.4.3, https://matplotlib.org/</dc:title>
     </cc:Agent>
    </dc:creator>
   </cc:Work>
  </rdf:RDF>
 </metadata>
 <defs>
  <style type="text/css">*{stroke-linecap:butt;stroke-linejoin:round;}</style>
 </defs>
 <g id="figure_1">
  <g id="patch_1">
   <path d="M 0 180.550469 
L 243.178125 180.550469 
L 243.178125 0 
L 0 0 
z
" style="fill:none;"/>
  </g>
  <g id="axes_1">
   <g id="patch_2">
    <path d="M 44.278125 150.094219 
L 239.578125 150.094219 
L 239.578125 7.399219 
L 44.278125 7.399219 
z
" style="fill:#ffffff;"/>
   </g>
   <g id="PolyCollection_1">
    <path clip-path="url(#p9423aa621d)" d="M 53.155398 49.750522 
L 53.155398 52.845251 
L 54.29351 54.588788 
L 55.431622 54.630121 
L 56.569733 54.909795 
L 57.707845 55.716726 
L 58.845957 55.834846 
L 59.984069 56.158162 
L 61.122181 57.008166 
L 62.260293 57.304178 
L 63.398405 57.394933 
L 64.536517 58.103118 
L 65.674628 58.194108 
L 66.81274 58.506763 
L 67.950852 58.64096 
L 69.088964 58.641428 
L 70.227076 58.733231 
L 71.365188 59.199726 
L 72.5033 59.27497 
L 73.641412 59.47939 
L 74.779524 59.995027 
L 75.917635 60.136693 
L 77.055747 60.424303 
L 78.193859 60.625432 
L 79.331971 60.958618 
L 80.470083 61.201986 
L 81.608195 61.285411 
L 82.746307 61.356053 
L 83.884419 62.498275 
L 85.022531 62.943644 
L 86.160642 63.253574 
L 87.298754 63.65745 
L 88.436866 63.803802 
L 89.574978 63.835309 
L 90.71309 63.891982 
L 91.851202 64.015102 
L 92.989314 64.782768 
L 94.127426 65.019378 
L 95.265538 65.051816 
L 96.403649 65.11279 
L 97.541761 65.386637 
L 98.679873 65.562501 
L 99.817985 65.773686 
L 100.956097 65.920969 
L 102.094209 65.927238 
L 103.232321 66.067774 
L 104.370433 66.302169 
L 105.508545 66.514107 
L 106.646656 66.796766 
L 107.784768 67.008141 
L 108.92288 67.022361 
L 110.060992 67.583636 
L 111.199104 68.06184 
L 112.337216 68.263871 
L 113.475328 68.278206 
L 114.61344 68.405495 
L 115.751552 68.724515 
L 116.889663 68.88504 
L 118.027775 68.886265 
L 119.165887 69.668665 
L 120.303999 69.729279 
L 121.442111 70.329593 
L 122.580223 70.601995 
L 123.718335 70.97792 
L 124.856447 71.361579 
L 125.994559 72.017557 
L 127.13267 72.053307 
L 128.270782 72.17798 
L 129.408894 72.393632 
L 130.547006 72.503078 
L 131.685118 72.524831 
L 132.82323 72.693331 
L 133.961342 73.206259 
L 135.099454 73.508941 
L 136.237566 73.805232 
L 137.375677 73.821437 
L 138.513789 74.057541 
L 139.651901 74.256089 
L 140.790013 74.791647 
L 141.928125 74.912144 
L 143.066237 75.283359 
L 144.204349 75.427381 
L 145.342461 75.573174 
L 146.480573 75.602402 
L 147.618684 75.619124 
L 148.756796 76.640393 
L 149.894908 76.879373 
L 151.03302 77.43417 
L 152.171132 77.783251 
L 153.309244 78.755116 
L 154.447356 79.002387 
L 155.585468 79.453508 
L 156.72358 79.865172 
L 157.861691 80.20107 
L 158.999803 80.444036 
L 160.137915 81.362559 
L 161.276027 81.376713 
L 162.414139 81.405735 
L 163.552251 82.225477 
L 164.690363 82.664955 
L 165.828475 82.924098 
L 166.966587 83.20234 
L 168.104698 83.880462 
L 169.24281 84.119702 
L 170.380922 84.514646 
L 171.519034 85.206072 
L 172.657146 86.599368 
L 173.795258 86.789324 
L 174.93337 86.829752 
L 176.071482 87.407903 
L 177.209594 87.899502 
L 178.347705 88.046157 
L 179.485817 88.880275 
L 180.623929 89.002008 
L 181.762041 89.019444 
L 182.900153 89.213152 
L 184.038265 89.437107 
L 185.176377 89.559628 
L 186.314489 89.599466 
L 187.452601 89.882045 
L 188.590712 90.004718 
L 189.728824 90.012705 
L 190.866936 90.13764 
L 192.005048 90.293347 
L 193.14316 90.367197 
L 194.281272 90.417634 
L 195.419384 91.155438 
L 196.557496 92.436335 
L 197.695608 92.940424 
L 198.833719 93.056573 
L 199.971831 93.369515 
L 201.109943 93.567186 
L 202.248055 93.767455 
L 203.386167 95.435119 
L 204.524279 96.150275 
L 205.662391 96.807825 
L 206.800503 96.860192 
L 207.938615 97.121196 
L 209.076726 97.173971 
L 210.214838 97.623159 
L 211.35295 99.130814 
L 212.491062 100.187586 
L 213.629174 100.203648 
L 214.767286 100.352808 
L 215.905398 100.792315 
L 217.04351 101.096075 
L 218.181622 101.629095 
L 219.319733 102.520302 
L 220.457845 102.599921 
L 221.595957 104.407572 
L 222.734069 104.750415 
L 223.872181 105.041134 
L 225.010293 105.994997 
L 226.148405 106.782683 
L 227.286517 106.868467 
L 228.424628 107.708839 
L 229.56274 109.642331 
L 230.700852 126.352719 
L 230.700852 92.053055 
L 230.700852 92.053055 
L 229.56274 90.325102 
L 228.424628 90.257911 
L 227.286517 90.036101 
L 226.148405 89.35406 
L 225.010293 87.552894 
L 223.872181 86.964184 
L 222.734069 85.723283 
L 221.595957 84.758047 
L 220.457845 84.705977 
L 219.319733 84.582217 
L 218.181622 84.54715 
L 217.04351 84.384668 
L 215.905398 83.609031 
L 214.767286 83.500993 
L 213.629174 83.146541 
L 212.491062 83.00381 
L 211.35295 82.984925 
L 210.214838 82.809348 
L 209.076726 82.458128 
L 207.938615 81.92305 
L 206.800503 80.970568 
L 205.662391 80.704041 
L 204.524279 80.113961 
L 203.386167 80.025575 
L 202.248055 79.779768 
L 201.109943 78.370493 
L 199.971831 78.354234 
L 198.833719 78.291413 
L 197.695608 78.02426 
L 196.557496 77.659946 
L 195.419384 77.33521 
L 194.281272 77.255844 
L 193.14316 76.878106 
L 192.005048 76.832972 
L 190.866936 76.787991 
L 189.728824 76.720712 
L 188.590712 76.560125 
L 187.452601 76.17958 
L 186.314489 76.144976 
L 185.176377 75.947938 
L 184.038265 75.915466 
L 182.900153 75.67572 
L 181.762041 75.561579 
L 180.623929 75.364798 
L 179.485817 74.711888 
L 178.347705 74.512706 
L 177.209594 73.914051 
L 176.071482 73.865837 
L 174.93337 73.693839 
L 173.795258 72.796942 
L 172.657146 72.770483 
L 171.519034 72.167352 
L 170.380922 72.05516 
L 169.24281 71.761653 
L 168.104698 71.691607 
L 166.966587 71.25502 
L 165.828475 70.887947 
L 164.690363 70.807265 
L 163.552251 70.806629 
L 162.414139 70.672218 
L 161.276027 70.606588 
L 160.137915 70.573482 
L 158.999803 70.497872 
L 157.861691 70.458978 
L 156.72358 70.422564 
L 155.585468 70.212811 
L 154.447356 70.199445 
L 153.309244 69.606503 
L 152.171132 69.373651 
L 151.03302 69.276519 
L 149.894908 68.980759 
L 148.756796 68.804179 
L 147.618684 68.79467 
L 146.480573 68.745348 
L 145.342461 68.573612 
L 144.204349 68.418957 
L 143.066237 68.341664 
L 141.928125 68.19258 
L 140.790013 68.17029 
L 139.651901 67.95745 
L 138.513789 67.582926 
L 137.375677 66.600091 
L 136.237566 66.511465 
L 135.099454 66.283307 
L 133.961342 66.122249 
L 132.82323 65.689605 
L 131.685118 65.636899 
L 130.547006 65.510606 
L 129.408894 65.479989 
L 128.270782 65.239399 
L 127.13267 64.970713 
L 125.994559 64.728072 
L 124.856447 64.484686 
L 123.718335 64.221429 
L 122.580223 63.627967 
L 121.442111 63.579359 
L 120.303999 63.456903 
L 119.165887 63.096206 
L 118.027775 63.006724 
L 116.889663 62.896003 
L 115.751552 62.833144 
L 114.61344 62.599738 
L 113.475328 62.595482 
L 112.337216 62.546393 
L 111.199104 62.420094 
L 110.060992 62.15948 
L 108.92288 62.125312 
L 107.784768 62.10093 
L 106.646656 62.054172 
L 105.508545 61.959792 
L 104.370433 61.685684 
L 103.232321 61.03835 
L 102.094209 60.988184 
L 100.956097 60.833387 
L 99.817985 60.818148 
L 98.679873 60.813993 
L 97.541761 60.78665 
L 96.403649 60.781972 
L 95.265538 60.471476 
L 94.127426 60.451718 
L 92.989314 59.95358 
L 91.851202 59.426525 
L 90.71309 59.389915 
L 89.574978 59.30986 
L 88.436866 58.918404 
L 87.298754 58.869674 
L 86.160642 58.339808 
L 85.022531 57.757971 
L 83.884419 57.699202 
L 82.746307 57.581151 
L 81.608195 57.261131 
L 80.470083 57.233611 
L 79.331971 57.048628 
L 78.193859 56.981694 
L 77.055747 56.726337 
L 75.917635 56.622416 
L 74.779524 56.007621 
L 73.641412 55.483276 
L 72.5033 55.139933 
L 71.365188 54.526366 
L 70.227076 54.486885 
L 69.088964 54.345412 
L 67.950852 54.149136 
L 66.81274 53.923141 
L 65.674628 53.911132 
L 64.536517 53.767569 
L 63.398405 53.381243 
L 62.260293 53.058001 
L 61.122181 52.918432 
L 59.984069 52.720241 
L 58.845957 52.477453 
L 57.707845 51.244231 
L 56.569733 51.040867 
L 55.431622 50.855416 
L 54.29351 50.420736 
L 53.155398 49.750522 
z
" style="fill:#0c5da5;fill-opacity:0.15;"/>
   </g>
   <g id="PolyCollection_2">
    <path clip-path="url(#p9423aa621d)" d="M 53.155398 48.52448 
L 53.155398 53.174925 
L 54.29351 53.958606 
L 55.431622 57.139361 
L 56.569733 57.414931 
L 57.707845 58.250254 
L 58.845957 59.122426 
L 59.984069 63.304551 
L 61.122181 64.040424 
L 62.260293 64.188171 
L 63.398405 64.358132 
L 64.536517 66.110732 
L 65.674628 66.700873 
L 66.81274 66.814348 
L 67.950852 67.737075 
L 69.088964 69.14322 
L 70.227076 69.858865 
L 71.365188 70.781295 
L 72.5033 72.529978 
L 73.641412 72.582792 
L 74.779524 72.624551 
L 75.917635 72.769538 
L 77.055747 73.268978 
L 78.193859 76.031833 
L 79.331971 76.273858 
L 80.470083 76.657249 
L 81.608195 76.679932 
L 82.746307 76.877225 
L 83.884419 77.51411 
L 85.022531 79.153155 
L 86.160642 79.231281 
L 87.298754 79.517682 
L 88.436866 79.746529 
L 89.574978 80.662514 
L 90.71309 81.213794 
L 91.851202 81.653774 
L 92.989314 82.109942 
L 94.127426 83.009677 
L 95.265538 83.275434 
L 96.403649 83.816379 
L 97.541761 83.841273 
L 98.679873 84.364306 
L 99.817985 84.535923 
L 100.956097 84.656766 
L 102.094209 85.23843 
L 103.232321 85.240468 
L 104.370433 85.829678 
L 105.508545 86.908469 
L 106.646656 88.392067 
L 107.784768 88.975831 
L 108.92288 89.238676 
L 110.060992 89.363885 
L 111.199104 90.618997 
L 112.337216 91.150751 
L 113.475328 92.953047 
L 114.61344 94.367802 
L 115.751552 96.619749 
L 116.889663 96.793914 
L 118.027775 98.110047 
L 119.165887 98.119899 
L 120.303999 98.405411 
L 121.442111 98.675299 
L 122.580223 98.739997 
L 123.718335 98.883121 
L 124.856447 99.421604 
L 125.994559 99.520046 
L 127.13267 100.04608 
L 128.270782 100.176404 
L 129.408894 100.617268 
L 130.547006 101.299379 
L 131.685118 101.786492 
L 132.82323 102.239826 
L 133.961342 102.47796 
L 135.099454 102.561016 
L 136.237566 102.591896 
L 137.375677 103.336869 
L 138.513789 104.16451 
L 139.651901 104.223369 
L 140.790013 104.278918 
L 141.928125 104.29343 
L 143.066237 104.847586 
L 144.204349 105.302174 
L 145.342461 106.072893 
L 146.480573 106.212342 
L 147.618684 106.269799 
L 148.756796 106.301564 
L 149.894908 106.527321 
L 151.03302 106.661115 
L 152.171132 106.709337 
L 153.309244 106.941679 
L 154.447356 107.257751 
L 155.585468 108.63686 
L 156.72358 110.136284 
L 157.861691 110.30236 
L 158.999803 110.498616 
L 160.137915 110.561421 
L 161.276027 110.68521 
L 162.414139 111.354387 
L 163.552251 111.753332 
L 164.690363 111.837571 
L 165.828475 112.331131 
L 166.966587 112.33839 
L 168.104698 112.39735 
L 169.24281 112.820464 
L 170.380922 112.898389 
L 171.519034 113.169065 
L 172.657146 113.824835 
L 173.795258 114.133252 
L 174.93337 114.142642 
L 176.071482 114.151177 
L 177.209594 114.328862 
L 178.347705 114.53858 
L 179.485817 114.827351 
L 180.623929 115.109737 
L 181.762041 115.218125 
L 182.900153 115.456874 
L 184.038265 115.555529 
L 185.176377 115.890678 
L 186.314489 116.105211 
L 187.452601 116.375015 
L 188.590712 116.591535 
L 189.728824 117.686415 
L 190.866936 117.866999 
L 192.005048 118.241063 
L 193.14316 118.305188 
L 194.281272 118.397417 
L 195.419384 118.48185 
L 196.557496 118.59428 
L 197.695608 118.622782 
L 198.833719 119.03272 
L 199.971831 119.5329 
L 201.109943 119.679485 
L 202.248055 119.762053 
L 203.386167 119.918815 
L 204.524279 120.18964 
L 205.662391 120.253971 
L 206.800503 120.978625 
L 207.938615 121.10455 
L 209.076726 122.284902 
L 210.214838 123.139595 
L 211.35295 123.478906 
L 212.491062 124.478244 
L 213.629174 126.188183 
L 214.767286 126.650544 
L 215.905398 127.02107 
L 217.04351 127.745163 
L 218.181622 127.747383 
L 219.319733 128.514642 
L 220.457845 129.439746 
L 221.595957 131.000494 
L 222.734069 134.052202 
L 223.872181 137.788216 
L 225.010293 140.633644 
L 226.148405 147.285061 
L 227.286517 158.737729 
L 228.424628 235.235627 
L 229.56274 254.471775 
L 230.700852 384.93727 
L 230.700852 212.366013 
L 230.700852 212.366013 
L 229.56274 158.16036 
L 228.424628 144.5337 
L 227.286517 132.75716 
L 226.148405 127.9658 
L 225.010293 124.581656 
L 223.872181 123.703729 
L 222.734069 122.434315 
L 221.595957 122.092291 
L 220.457845 121.340302 
L 219.319733 119.64421 
L 218.181622 119.278974 
L 217.04351 117.595213 
L 215.905398 117.268416 
L 214.767286 117.090457 
L 213.629174 117.032952 
L 212.491062 117.004336 
L 211.35295 116.967904 
L 210.214838 116.679585 
L 209.076726 116.661398 
L 207.938615 116.187137 
L 206.800503 116.120309 
L 205.662391 115.276646 
L 204.524279 114.75349 
L 203.386167 114.547914 
L 202.248055 114.377305 
L 201.109943 114.273487 
L 199.971831 113.91325 
L 198.833719 113.810153 
L 197.695608 113.795897 
L 196.557496 113.696638 
L 195.419384 113.086248 
L 194.281272 113.017512 
L 193.14316 112.828279 
L 192.005048 112.552719 
L 190.866936 112.508849 
L 189.728824 112.348336 
L 188.590712 112.208301 
L 187.452601 112.059972 
L 186.314489 112.028926 
L 185.176377 111.990769 
L 184.038265 111.375889 
L 182.900153 111.164412 
L 181.762041 110.877986 
L 180.623929 110.857034 
L 179.485817 110.774938 
L 178.347705 110.629908 
L 177.209594 110.572798 
L 176.071482 110.568709 
L 174.93337 110.407207 
L 173.795258 109.959453 
L 172.657146 109.904926 
L 171.519034 109.84186 
L 170.380922 109.709824 
L 169.24281 109.484538 
L 168.104698 109.362961 
L 166.966587 108.769886 
L 165.828475 107.717249 
L 164.690363 107.330145 
L 163.552251 107.035351 
L 162.414139 106.706245 
L 161.276027 106.137855 
L 160.137915 105.318678 
L 158.999803 105.143499 
L 157.861691 104.282462 
L 156.72358 104.020356 
L 155.585468 103.751512 
L 154.447356 103.492969 
L 153.309244 103.039008 
L 152.171132 102.61726 
L 151.03302 102.490664 
L 149.894908 101.482167 
L 148.756796 101.024666 
L 147.618684 100.910416 
L 146.480573 99.745867 
L 145.342461 99.148324 
L 144.204349 98.371728 
L 143.066237 98.259398 
L 141.928125 97.765179 
L 140.790013 97.600395 
L 139.651901 97.039951 
L 138.513789 97.034966 
L 137.375677 96.725832 
L 136.237566 96.107361 
L 135.099454 96.094214 
L 133.961342 94.779989 
L 132.82323 94.009457 
L 131.685118 93.388831 
L 130.547006 93.237157 
L 129.408894 93.176486 
L 128.270782 92.585584 
L 127.13267 91.639084 
L 125.994559 90.555563 
L 124.856447 90.193733 
L 123.718335 89.739537 
L 122.580223 87.964162 
L 121.442111 87.882253 
L 120.303999 87.603627 
L 119.165887 87.486638 
L 118.027775 85.002014 
L 116.889663 84.995803 
L 115.751552 82.764906 
L 114.61344 82.578141 
L 113.475328 82.162765 
L 112.337216 81.8449 
L 111.199104 81.530727 
L 110.060992 81.403085 
L 108.92288 80.9319 
L 107.784768 79.670738 
L 106.646656 79.358147 
L 105.508545 78.970729 
L 104.370433 78.75548 
L 103.232321 78.423015 
L 102.094209 78.172965 
L 100.956097 77.978426 
L 99.817985 77.319984 
L 98.679873 77.208565 
L 97.541761 77.035671 
L 96.403649 76.96052 
L 95.265538 76.528257 
L 94.127426 76.524109 
L 92.989314 75.235363 
L 91.851202 74.687659 
L 90.71309 74.171448 
L 89.574978 74.09656 
L 88.436866 73.731976 
L 87.298754 73.643029 
L 86.160642 73.507609 
L 85.022531 73.242789 
L 83.884419 71.893302 
L 82.746307 71.596563 
L 81.608195 69.441176 
L 80.470083 68.701245 
L 79.331971 68.600158 
L 78.193859 68.428855 
L 77.055747 67.49099 
L 75.917635 66.873179 
L 74.779524 66.436357 
L 73.641412 66.350864 
L 72.5033 65.145456 
L 71.365188 65.044703 
L 70.227076 63.707689 
L 69.088964 63.484164 
L 67.950852 63.259565 
L 66.81274 62.85586 
L 65.674628 62.819448 
L 64.536517 61.88769 
L 63.398405 59.044476 
L 62.260293 58.944889 
L 61.122181 58.74099 
L 59.984069 58.060531 
L 58.845957 55.834813 
L 57.707845 55.341229 
L 56.569733 52.849442 
L 55.431622 52.373081 
L 54.29351 49.052303 
L 53.155398 48.52448 
z
" style="fill:#ff9500;fill-opacity:0.15;"/>
   </g>
   <g id="PolyCollection_3">
    <path clip-path="url(#p9423aa621d)" d="M 53.155398 24.408091 
L 53.155398 25.839278 
L 54.29351 28.927284 
L 55.431622 29.156865 
L 56.569733 29.356286 
L 57.707845 29.659201 
L 58.845957 31.500405 
L 59.984069 32.228736 
L 61.122181 33.069174 
L 62.260293 33.10094 
L 63.398405 33.377507 
L 64.536517 33.910495 
L 65.674628 34.088067 
L 66.81274 35.285758 
L 67.950852 35.434384 
L 69.088964 35.897569 
L 70.227076 36.074657 
L 71.365188 36.657971 
L 72.5033 36.710227 
L 73.641412 36.742522 
L 74.779524 36.920203 
L 75.917635 37.341737 
L 77.055747 37.653027 
L 78.193859 37.734992 
L 79.331971 38.21014 
L 80.470083 38.303741 
L 81.608195 38.650401 
L 82.746307 39.160951 
L 83.884419 39.357902 
L 85.022531 39.471685 
L 86.160642 39.477692 
L 87.298754 40.45356 
L 88.436866 40.815919 
L 89.574978 40.987525 
L 90.71309 41.024004 
L 91.851202 41.072577 
L 92.989314 41.076409 
L 94.127426 41.117555 
L 95.265538 41.177973 
L 96.403649 41.522838 
L 97.541761 41.637076 
L 98.679873 41.730352 
L 99.817985 41.736506 
L 100.956097 41.806294 
L 102.094209 41.947284 
L 103.232321 42.110715 
L 104.370433 42.195708 
L 105.508545 42.324048 
L 106.646656 42.411655 
L 107.784768 42.517785 
L 108.92288 42.570073 
L 110.060992 42.571688 
L 111.199104 42.771844 
L 112.337216 42.778087 
L 113.475328 43.110408 
L 114.61344 43.225393 
L 115.751552 43.292109 
L 116.889663 43.300271 
L 118.027775 43.953865 
L 119.165887 44.087983 
L 120.303999 44.099541 
L 121.442111 44.201269 
L 122.580223 44.347938 
L 123.718335 44.548489 
L 124.856447 44.985657 
L 125.994559 45.111918 
L 127.13267 45.228544 
L 128.270782 45.293899 
L 129.408894 45.53444 
L 130.547006 45.580469 
L 131.685118 45.625838 
L 132.82323 45.915496 
L 133.961342 45.922238 
L 135.099454 46.037667 
L 136.237566 46.295207 
L 137.375677 46.390749 
L 138.513789 46.585756 
L 139.651901 46.711564 
L 140.790013 46.750675 
L 141.928125 46.839805 
L 143.066237 46.883712 
L 144.204349 47.070386 
L 145.342461 47.472615 
L 146.480573 47.51503 
L 147.618684 47.717641 
L 148.756796 47.860323 
L 149.894908 48.285957 
L 151.03302 48.549627 
L 152.171132 48.592662 
L 153.309244 48.879438 
L 154.447356 49.061691 
L 155.585468 49.258959 
L 156.72358 49.354629 
L 157.861691 49.737829 
L 158.999803 49.814211 
L 160.137915 50.114161 
L 161.276027 50.211894 
L 162.414139 50.523581 
L 163.552251 50.884244 
L 164.690363 51.11867 
L 165.828475 51.132664 
L 166.966587 51.558317 
L 168.104698 51.952986 
L 169.24281 52.137167 
L 170.380922 52.205172 
L 171.519034 52.273624 
L 172.657146 52.561254 
L 173.795258 52.939652 
L 174.93337 53.175286 
L 176.071482 53.327234 
L 177.209594 53.609302 
L 178.347705 54.43823 
L 179.485817 54.862671 
L 180.623929 55.008823 
L 181.762041 55.803748 
L 182.900153 56.2447 
L 184.038265 56.581144 
L 185.176377 56.582898 
L 186.314489 57.215847 
L 187.452601 57.631845 
L 188.590712 58.102429 
L 189.728824 58.759863 
L 190.866936 58.8929 
L 192.005048 59.749887 
L 193.14316 60.258075 
L 194.281272 60.462993 
L 195.419384 60.910115 
L 196.557496 61.333802 
L 197.695608 62.439233 
L 198.833719 62.68192 
L 199.971831 64.293973 
L 201.109943 66.076795 
L 202.248055 67.573985 
L 203.386167 67.880893 
L 204.524279 69.577142 
L 205.662391 69.662558 
L 206.800503 69.942479 
L 207.938615 70.523148 
L 209.076726 71.924374 
L 210.214838 72.655226 
L 211.35295 72.840221 
L 212.491062 72.867428 
L 213.629174 72.915797 
L 214.767286 73.083525 
L 215.905398 74.14932 
L 217.04351 74.407011 
L 218.181622 75.077315 
L 219.319733 76.130491 
L 220.457845 78.381615 
L 221.595957 79.224742 
L 222.734069 80.236861 
L 223.872181 81.390722 
L 225.010293 85.34357 
L 226.148405 87.670981 
L 227.286517 88.62276 
L 228.424628 89.599546 
L 229.56274 92.142003 
L 230.700852 96.406814 
L 230.700852 90.222667 
L 230.700852 90.222667 
L 229.56274 85.860135 
L 228.424628 84.50371 
L 227.286517 81.759866 
L 226.148405 77.489654 
L 225.010293 77.122043 
L 223.872181 76.587825 
L 222.734069 74.411019 
L 221.595957 74.378723 
L 220.457845 73.763751 
L 219.319733 72.41096 
L 218.181622 72.197686 
L 217.04351 69.879207 
L 215.905398 69.467 
L 214.767286 67.574665 
L 213.629174 67.458455 
L 212.491062 66.550619 
L 211.35295 66.037312 
L 210.214838 65.102476 
L 209.076726 64.381707 
L 207.938615 64.260889 
L 206.800503 61.876998 
L 205.662391 60.835969 
L 204.524279 58.557896 
L 203.386167 58.194195 
L 202.248055 58.174 
L 201.109943 58.103005 
L 199.971831 55.914201 
L 198.833719 55.584314 
L 197.695608 55.430269 
L 196.557496 55.141206 
L 195.419384 54.920818 
L 194.281272 53.808329 
L 193.14316 52.960151 
L 192.005048 52.561339 
L 190.866936 52.443216 
L 189.728824 52.382812 
L 188.590712 52.355339 
L 187.452601 52.124992 
L 186.314489 51.927279 
L 185.176377 51.779507 
L 184.038265 51.748399 
L 182.900153 51.286139 
L 181.762041 50.991884 
L 180.623929 50.760187 
L 179.485817 50.253411 
L 178.347705 49.82188 
L 177.209594 49.671924 
L 176.071482 49.415778 
L 174.93337 49.304782 
L 173.795258 49.164433 
L 172.657146 48.735236 
L 171.519034 48.433417 
L 170.380922 48.290392 
L 169.24281 47.822541 
L 168.104698 47.803389 
L 166.966587 47.668218 
L 165.828475 47.516966 
L 164.690363 47.29025 
L 163.552251 47.093955 
L 162.414139 46.596932 
L 161.276027 46.391908 
L 160.137915 45.938482 
L 158.999803 45.768533 
L 157.861691 45.697844 
L 156.72358 45.419391 
L 155.585468 45.297517 
L 154.447356 45.018694 
L 153.309244 44.907221 
L 152.171132 44.866593 
L 151.03302 44.786397 
L 149.894908 44.739735 
L 148.756796 44.554552 
L 147.618684 44.218668 
L 146.480573 43.883965 
L 145.342461 43.740749 
L 144.204349 43.679213 
L 143.066237 43.639005 
L 141.928125 43.543291 
L 140.790013 43.381517 
L 139.651901 43.311806 
L 138.513789 43.288095 
L 137.375677 43.005793 
L 136.237566 42.980609 
L 135.099454 42.70789 
L 133.961342 42.601627 
L 132.82323 42.491525 
L 131.685118 42.476216 
L 130.547006 42.183842 
L 129.408894 42.168413 
L 128.270782 42.151022 
L 127.13267 41.828272 
L 125.994559 41.782893 
L 124.856447 41.779223 
L 123.718335 41.249215 
L 122.580223 41.205676 
L 121.442111 41.170594 
L 120.303999 41.046283 
L 119.165887 40.862027 
L 118.027775 40.614246 
L 116.889663 40.471294 
L 115.751552 40.314135 
L 114.61344 40.240145 
L 113.475328 40.202799 
L 112.337216 40.201546 
L 111.199104 40.086384 
L 110.060992 40.050288 
L 108.92288 39.652306 
L 107.784768 39.552453 
L 106.646656 39.488238 
L 105.508545 39.466019 
L 104.370433 39.362362 
L 103.232321 39.287371 
L 102.094209 39.077073 
L 100.956097 39.060851 
L 99.817985 38.965963 
L 98.679873 38.94332 
L 97.541761 38.858738 
L 96.403649 38.816844 
L 95.265538 38.555423 
L 94.127426 38.283549 
L 92.989314 38.23738 
L 91.851202 38.033065 
L 90.71309 38.019972 
L 89.574978 37.890864 
L 88.436866 37.672447 
L 87.298754 37.460562 
L 86.160642 37.287723 
L 85.022531 36.903067 
L 83.884419 36.623295 
L 82.746307 36.23545 
L 81.608195 36.206093 
L 80.470083 36.138339 
L 79.331971 35.656487 
L 78.193859 35.199779 
L 77.055747 34.997773 
L 75.917635 34.897294 
L 74.779524 34.550027 
L 73.641412 34.490407 
L 72.5033 34.186234 
L 71.365188 34.113891 
L 70.227076 33.687846 
L 69.088964 32.254169 
L 67.950852 32.065728 
L 66.81274 31.834104 
L 65.674628 31.827132 
L 64.536517 31.397739 
L 63.398405 31.264851 
L 62.260293 31.16161 
L 61.122181 31.1026 
L 59.984069 28.745159 
L 58.845957 28.497956 
L 57.707845 26.644736 
L 56.569733 26.38816 
L 55.431622 25.852921 
L 54.29351 25.406951 
L 53.155398 24.408091 
z
" style="fill:#00b945;fill-opacity:0.15;"/>
   </g>
   <g id="PolyCollection_4">
    <path clip-path="url(#p9423aa621d)" d="M 53.155398 52.628717 
L 53.155398 59.284655 
L 54.29351 60.218074 
L 55.431622 61.96987 
L 56.569733 62.0185 
L 57.707845 62.581097 
L 58.845957 62.931343 
L 59.984069 63.688789 
L 61.122181 63.74221 
L 62.260293 64.42273 
L 63.398405 64.444191 
L 64.536517 64.72202 
L 65.674628 64.756447 
L 66.81274 65.244614 
L 67.950852 65.258645 
L 69.088964 65.454503 
L 70.227076 65.520963 
L 71.365188 65.724562 
L 72.5033 65.870625 
L 73.641412 66.134775 
L 74.779524 66.171534 
L 75.917635 66.346729 
L 77.055747 66.417462 
L 78.193859 66.441309 
L 79.331971 66.636745 
L 80.470083 66.997156 
L 81.608195 67.072624 
L 82.746307 67.463511 
L 83.884419 67.533144 
L 85.022531 67.537897 
L 86.160642 67.845867 
L 87.298754 68.26969 
L 88.436866 68.395241 
L 89.574978 68.556787 
L 90.71309 68.642197 
L 91.851202 68.928858 
L 92.989314 69.110423 
L 94.127426 69.26479 
L 95.265538 69.391738 
L 96.403649 69.670954 
L 97.541761 69.786837 
L 98.679873 69.998474 
L 99.817985 70.007457 
L 100.956097 70.451168 
L 102.094209 70.4907 
L 103.232321 70.559853 
L 104.370433 70.883771 
L 105.508545 71.216374 
L 106.646656 71.29916 
L 107.784768 71.505089 
L 108.92288 71.628451 
L 110.060992 71.889101 
L 111.199104 71.929322 
L 112.337216 72.217413 
L 113.475328 72.476762 
L 114.61344 72.687739 
L 115.751552 72.831227 
L 116.889663 73.040526 
L 118.027775 73.0596 
L 119.165887 73.072503 
L 120.303999 73.10405 
L 121.442111 73.208294 
L 122.580223 73.349445 
L 123.718335 73.415305 
L 124.856447 73.490989 
L 125.994559 73.708628 
L 127.13267 74.001013 
L 128.270782 74.254151 
L 129.408894 74.60677 
L 130.547006 74.812243 
L 131.685118 74.830169 
L 132.82323 74.996803 
L 133.961342 75.223357 
L 135.099454 75.232354 
L 136.237566 75.39905 
L 137.375677 75.620467 
L 138.513789 75.926255 
L 139.651901 75.944378 
L 140.790013 76.028 
L 141.928125 76.184332 
L 143.066237 76.40876 
L 144.204349 76.554807 
L 145.342461 76.701705 
L 146.480573 76.933927 
L 147.618684 76.989159 
L 148.756796 77.179584 
L 149.894908 77.24922 
L 151.03302 77.309249 
L 152.171132 77.49247 
L 153.309244 77.521915 
L 154.447356 77.813782 
L 155.585468 77.845632 
L 156.72358 77.868187 
L 157.861691 78.351561 
L 158.999803 78.578812 
L 160.137915 78.803349 
L 161.276027 78.935148 
L 162.414139 79.078579 
L 163.552251 79.43908 
L 164.690363 79.475393 
L 165.828475 79.477731 
L 166.966587 79.486149 
L 168.104698 79.519165 
L 169.24281 79.660278 
L 170.380922 80.109046 
L 171.519034 80.172792 
L 172.657146 80.188168 
L 173.795258 80.693288 
L 174.93337 81.162363 
L 176.071482 81.324933 
L 177.209594 81.709852 
L 178.347705 82.921919 
L 179.485817 83.401595 
L 180.623929 83.42831 
L 181.762041 83.498485 
L 182.900153 83.662028 
L 184.038265 83.733264 
L 185.176377 83.837636 
L 186.314489 83.951947 
L 187.452601 84.244148 
L 188.590712 84.302195 
L 189.728824 84.787121 
L 190.866936 85.633035 
L 192.005048 85.910893 
L 193.14316 86.091738 
L 194.281272 86.125776 
L 195.419384 86.547375 
L 196.557496 86.840615 
L 197.695608 87.145374 
L 198.833719 87.310605 
L 199.971831 87.653352 
L 201.109943 88.280936 
L 202.248055 88.856888 
L 203.386167 90.104414 
L 204.524279 90.268086 
L 205.662391 91.215186 
L 206.800503 91.392233 
L 207.938615 91.781617 
L 209.076726 91.97343 
L 210.214838 93.141598 
L 211.35295 93.759212 
L 212.491062 96.0413 
L 213.629174 96.32659 
L 214.767286 96.481099 
L 215.905398 100.638053 
L 217.04351 100.718853 
L 218.181622 102.156833 
L 219.319733 102.875834 
L 220.457845 103.450126 
L 221.595957 107.083597 
L 222.734069 107.426614 
L 223.872181 117.447062 
L 225.010293 118.35103 
L 226.148405 120.235597 
L 227.286517 122.069996 
L 228.424628 127.360092 
L 229.56274 183.178692 
L 230.700852 183.429873 
L 230.700852 95.11225 
L 230.700852 95.11225 
L 229.56274 93.215176 
L 228.424628 93.184426 
L 227.286517 93.028225 
L 226.148405 91.166216 
L 225.010293 90.641044 
L 223.872181 90.187543 
L 222.734069 88.103382 
L 221.595957 87.05128 
L 220.457845 84.777767 
L 219.319733 84.720987 
L 218.181622 84.585505 
L 217.04351 83.271051 
L 215.905398 82.976118 
L 214.767286 82.575193 
L 213.629174 82.334435 
L 212.491062 82.165205 
L 211.35295 81.954613 
L 210.214838 81.072325 
L 209.076726 79.773788 
L 207.938615 79.528482 
L 206.800503 78.94818 
L 205.662391 77.176692 
L 204.524279 77.130789 
L 203.386167 76.354037 
L 202.248055 76.306466 
L 201.109943 76.19901 
L 199.971831 76.072328 
L 198.833719 75.557941 
L 197.695608 75.463308 
L 196.557496 75.453333 
L 195.419384 75.208391 
L 194.281272 75.202213 
L 193.14316 75.090971 
L 192.005048 74.594184 
L 190.866936 74.290307 
L 189.728824 74.115069 
L 188.590712 74.006354 
L 187.452601 73.908785 
L 186.314489 73.774339 
L 185.176377 73.748853 
L 184.038265 73.519679 
L 182.900153 73.471369 
L 181.762041 73.333614 
L 180.623929 73.291793 
L 179.485817 73.155904 
L 178.347705 72.925955 
L 177.209594 72.774498 
L 176.071482 72.737001 
L 174.93337 72.628192 
L 173.795258 72.601224 
L 172.657146 72.592329 
L 171.519034 72.500321 
L 170.380922 72.250431 
L 169.24281 72.248935 
L 168.104698 71.607128 
L 166.966587 71.553691 
L 165.828475 71.442256 
L 164.690363 71.358511 
L 163.552251 71.339658 
L 162.414139 71.140939 
L 161.276027 71.076538 
L 160.137915 70.976879 
L 158.999803 70.911261 
L 157.861691 70.408217 
L 156.72358 70.379636 
L 155.585468 70.322422 
L 154.447356 70.216496 
L 153.309244 70.078522 
L 152.171132 70.076757 
L 151.03302 69.946077 
L 149.894908 69.817418 
L 148.756796 69.752636 
L 147.618684 69.702802 
L 146.480573 69.634432 
L 145.342461 69.538234 
L 144.204349 69.43035 
L 143.066237 69.42089 
L 141.928125 69.156306 
L 140.790013 69.009899 
L 139.651901 68.933116 
L 138.513789 68.901039 
L 137.375677 68.626334 
L 136.237566 68.469011 
L 135.099454 68.448294 
L 133.961342 68.286944 
L 132.82323 68.16081 
L 131.685118 67.811662 
L 130.547006 67.761349 
L 129.408894 67.722999 
L 128.270782 67.552046 
L 127.13267 67.366196 
L 125.994559 67.358394 
L 124.856447 67.324955 
L 123.718335 67.265674 
L 122.580223 67.253162 
L 121.442111 66.913539 
L 120.303999 66.863107 
L 119.165887 66.672377 
L 118.027775 66.576231 
L 116.889663 66.503868 
L 115.751552 66.463039 
L 114.61344 66.379783 
L 113.475328 66.319168 
L 112.337216 66.098769 
L 111.199104 65.843687 
L 110.060992 65.839331 
L 108.92288 65.780678 
L 107.784768 65.532808 
L 106.646656 65.490122 
L 105.508545 65.443592 
L 104.370433 65.396326 
L 103.232321 65.304615 
L 102.094209 64.925751 
L 100.956097 64.490286 
L 99.817985 64.369836 
L 98.679873 64.309764 
L 97.541761 64.074052 
L 96.403649 62.926054 
L 95.265538 62.903731 
L 94.127426 62.82215 
L 92.989314 62.820971 
L 91.851202 62.786178 
L 90.71309 62.519267 
L 89.574978 62.250359 
L 88.436866 62.231598 
L 87.298754 62.151502 
L 86.160642 61.984219 
L 85.022531 61.815326 
L 83.884419 61.282949 
L 82.746307 61.156874 
L 81.608195 61.11996 
L 80.470083 60.94321 
L 79.331971 60.843444 
L 78.193859 60.613441 
L 77.055747 60.410491 
L 75.917635 60.284296 
L 74.779524 59.745276 
L 73.641412 59.662726 
L 72.5033 59.543844 
L 71.365188 59.448827 
L 70.227076 59.129926 
L 69.088964 58.824868 
L 67.950852 58.803232 
L 66.81274 58.165797 
L 65.674628 58.106842 
L 64.536517 58.099733 
L 63.398405 58.017304 
L 62.260293 57.564969 
L 61.122181 57.491002 
L 59.984069 57.490473 
L 58.845957 57.477875 
L 57.707845 57.138958 
L 56.569733 55.974207 
L 55.431622 55.740097 
L 54.29351 55.731104 
L 53.155398 52.628717 
z
" style="fill:#ff2c00;fill-opacity:0.15;"/>
   </g>
   <g id="PolyCollection_5">
    <path clip-path="url(#p9423aa621d)" d="M 53.155398 14.425341 
L 53.155398 22.162824 
L 54.29351 22.291664 
L 55.431622 22.324892 
L 56.569733 22.956616 
L 57.707845 23.315586 
L 58.845957 23.586327 
L 59.984069 24.185717 
L 61.122181 25.266249 
L 62.260293 25.81973 
L 63.398405 25.872974 
L 64.536517 25.900667 
L 65.674628 25.960937 
L 66.81274 26.282651 
L 67.950852 26.760107 
L 69.088964 26.831009 
L 70.227076 26.908761 
L 71.365188 26.974319 
L 72.5033 27.178654 
L 73.641412 27.276224 
L 74.779524 27.423918 
L 75.917635 27.886524 
L 77.055747 28.540006 
L 78.193859 29.512308 
L 79.331971 29.645255 
L 80.470083 29.83839 
L 81.608195 30.386321 
L 82.746307 30.453773 
L 83.884419 30.633767 
L 85.022531 30.63885 
L 86.160642 30.733809 
L 87.298754 30.83908 
L 88.436866 31.004261 
L 89.574978 31.249757 
L 90.71309 31.561981 
L 91.851202 31.577938 
L 92.989314 31.590958 
L 94.127426 31.900851 
L 95.265538 32.075431 
L 96.403649 32.164497 
L 97.541761 32.174463 
L 98.679873 33.164812 
L 99.817985 33.30628 
L 100.956097 33.322943 
L 102.094209 33.605823 
L 103.232321 33.734467 
L 104.370433 33.762811 
L 105.508545 33.986453 
L 106.646656 34.114079 
L 107.784768 34.196765 
L 108.92288 34.422906 
L 110.060992 34.471019 
L 111.199104 34.481301 
L 112.337216 34.492442 
L 113.475328 34.502941 
L 114.61344 34.602543 
L 115.751552 34.617648 
L 116.889663 34.722103 
L 118.027775 34.901722 
L 119.165887 35.059598 
L 120.303999 35.15342 
L 121.442111 35.202677 
L 122.580223 35.20523 
L 123.718335 35.449176 
L 124.856447 35.626203 
L 125.994559 35.635702 
L 127.13267 35.939617 
L 128.270782 36.17845 
L 129.408894 36.48673 
L 130.547006 36.638881 
L 131.685118 36.87199 
L 132.82323 36.988095 
L 133.961342 37.181992 
L 135.099454 37.330732 
L 136.237566 37.331418 
L 137.375677 37.541861 
L 138.513789 37.607333 
L 139.651901 37.614029 
L 140.790013 37.671119 
L 141.928125 37.969011 
L 143.066237 38.02851 
L 144.204349 38.085212 
L 145.342461 38.138029 
L 146.480573 38.216416 
L 147.618684 38.231831 
L 148.756796 38.27494 
L 149.894908 38.30781 
L 151.03302 38.403242 
L 152.171132 38.671612 
L 153.309244 38.718242 
L 154.447356 38.740705 
L 155.585468 38.933076 
L 156.72358 39.229488 
L 157.861691 39.383148 
L 158.999803 39.72658 
L 160.137915 39.807466 
L 161.276027 40.221104 
L 162.414139 40.265315 
L 163.552251 40.293282 
L 164.690363 40.371826 
L 165.828475 40.417559 
L 166.966587 40.48586 
L 168.104698 40.533775 
L 169.24281 40.629548 
L 170.380922 40.714295 
L 171.519034 40.881993 
L 172.657146 41.007638 
L 173.795258 41.235359 
L 174.93337 41.380462 
L 176.071482 41.595831 
L 177.209594 41.893028 
L 178.347705 42.116213 
L 179.485817 42.76819 
L 180.623929 43.051812 
L 181.762041 43.349328 
L 182.900153 43.409751 
L 184.038265 43.589393 
L 185.176377 45.123664 
L 186.314489 45.409951 
L 187.452601 45.892947 
L 188.590712 46.027179 
L 189.728824 46.682533 
L 190.866936 46.937667 
L 192.005048 47.072928 
L 193.14316 47.86466 
L 194.281272 49.643532 
L 195.419384 49.903943 
L 196.557496 49.939718 
L 197.695608 49.97041 
L 198.833719 50.762933 
L 199.971831 50.899241 
L 201.109943 51.529415 
L 202.248055 51.909815 
L 203.386167 51.978949 
L 204.524279 51.992959 
L 205.662391 52.634828 
L 206.800503 53.193358 
L 207.938615 53.318858 
L 209.076726 53.457857 
L 210.214838 54.402027 
L 211.35295 54.774265 
L 212.491062 55.097505 
L 213.629174 55.140398 
L 214.767286 55.194066 
L 215.905398 55.410694 
L 217.04351 55.87353 
L 218.181622 56.321237 
L 219.319733 56.387595 
L 220.457845 57.102793 
L 221.595957 57.258092 
L 222.734069 57.786946 
L 223.872181 58.172223 
L 225.010293 58.346265 
L 226.148405 58.744928 
L 227.286517 59.155564 
L 228.424628 60.5103 
L 229.56274 61.214373 
L 230.700852 63.459816 
L 230.700852 59.984389 
L 230.700852 59.984389 
L 229.56274 57.755002 
L 228.424628 57.517056 
L 227.286517 56.795573 
L 226.148405 56.086614 
L 225.010293 54.919869 
L 223.872181 54.069062 
L 222.734069 53.849861 
L 221.595957 53.583735 
L 220.457845 53.485964 
L 219.319733 53.432308 
L 218.181622 53.122164 
L 217.04351 53.049505 
L 215.905398 52.887337 
L 214.767286 51.699087 
L 213.629174 51.62622 
L 212.491062 51.579165 
L 211.35295 51.572292 
L 210.214838 50.801001 
L 209.076726 50.749046 
L 207.938615 50.191442 
L 206.800503 49.822643 
L 205.662391 49.471471 
L 204.524279 49.35277 
L 203.386167 49.263247 
L 202.248055 48.50461 
L 201.109943 48.302046 
L 199.971831 47.936788 
L 198.833719 47.757983 
L 197.695608 47.750446 
L 196.557496 47.556846 
L 195.419384 46.509546 
L 194.281272 46.277916 
L 193.14316 45.078549 
L 192.005048 44.324614 
L 190.866936 43.842313 
L 189.728824 43.224169 
L 188.590712 42.243843 
L 187.452601 42.218803 
L 186.314489 41.820048 
L 185.176377 41.377206 
L 184.038265 40.786077 
L 182.900153 40.42149 
L 181.762041 39.802969 
L 180.623929 39.036236 
L 179.485817 38.855218 
L 178.347705 37.980743 
L 177.209594 37.838519 
L 176.071482 37.529071 
L 174.93337 37.523038 
L 173.795258 37.412344 
L 172.657146 37.376002 
L 171.519034 37.240454 
L 170.380922 37.230223 
L 169.24281 37.14448 
L 168.104698 37.137047 
L 166.966587 36.790399 
L 165.828475 36.658151 
L 164.690363 36.647387 
L 163.552251 36.460812 
L 162.414139 36.277686 
L 161.276027 36.161212 
L 160.137915 35.852899 
L 158.999803 35.783017 
L 157.861691 35.686099 
L 156.72358 35.43809 
L 155.585468 35.349347 
L 154.447356 35.338299 
L 153.309244 35.201997 
L 152.171132 35.160377 
L 151.03302 35.145881 
L 149.894908 35.032593 
L 148.756796 34.98016 
L 147.618684 34.763355 
L 146.480573 34.371937 
L 145.342461 34.291782 
L 144.204349 34.025219 
L 143.066237 33.853019 
L 141.928125 33.647928 
L 140.790013 33.563609 
L 139.651901 33.47118 
L 138.513789 33.338715 
L 137.375677 32.916471 
L 136.237566 32.685245 
L 135.099454 32.613873 
L 133.961342 32.57513 
L 132.82323 31.853775 
L 131.685118 31.515791 
L 130.547006 31.512636 
L 129.408894 31.456937 
L 128.270782 31.443247 
L 127.13267 31.420081 
L 125.994559 31.135654 
L 124.856447 30.893087 
L 123.718335 30.797015 
L 122.580223 30.482659 
L 121.442111 30.062434 
L 120.303999 29.980902 
L 119.165887 29.961342 
L 118.027775 29.881625 
L 116.889663 29.814981 
L 115.751552 29.777353 
L 114.61344 29.644462 
L 113.475328 29.581191 
L 112.337216 29.347703 
L 111.199104 29.296303 
L 110.060992 29.12936 
L 108.92288 29.012221 
L 107.784768 28.704139 
L 106.646656 28.657265 
L 105.508545 28.655798 
L 104.370433 28.418208 
L 103.232321 28.264956 
L 102.094209 28.228275 
L 100.956097 28.176998 
L 99.817985 27.979998 
L 98.679873 27.82595 
L 97.541761 27.820916 
L 96.403649 27.451505 
L 95.265538 27.279956 
L 94.127426 27.163096 
L 92.989314 26.492605 
L 91.851202 26.133445 
L 90.71309 25.975047 
L 89.574978 25.914298 
L 88.436866 25.838512 
L 87.298754 25.148604 
L 86.160642 24.781691 
L 85.022531 24.554744 
L 83.884419 24.52317 
L 82.746307 24.364865 
L 81.608195 24.217985 
L 80.470083 24.217043 
L 79.331971 23.645183 
L 78.193859 23.239882 
L 77.055747 22.232676 
L 75.917635 22.031169 
L 74.779524 21.577848 
L 73.641412 21.576772 
L 72.5033 21.550034 
L 71.365188 21.266427 
L 70.227076 21.206093 
L 69.088964 21.017342 
L 67.950852 20.558135 
L 66.81274 20.195972 
L 65.674628 19.471527 
L 64.536517 19.068324 
L 63.398405 18.936106 
L 62.260293 18.850688 
L 61.122181 18.841183 
L 59.984069 18.810993 
L 58.845957 18.758144 
L 57.707845 17.232584 
L 56.569733 16.572671 
L 55.431622 15.781531 
L 54.29351 14.999749 
L 53.155398 14.425341 
z
" style="fill:#845b97;fill-opacity:0.15;"/>
   </g>
   <g id="matplotlib.axis_1">
    <g id="xtick_1">
     <g id="line2d_1">
      <defs>
       <path d="M 0 0 
L 0 -3 
" id="m4b8d56da3a" style="stroke:#000000;stroke-width:0.5;"/>
      </defs>
      <g>
       <use style="stroke:#000000;stroke-width:0.5;" x="53.155398" xlink:href="#m4b8d56da3a" y="150.094219"/>
      </g>
     </g>
     <g id="line2d_2">
      <defs>
       <path d="M 0 0 
L 0 3 
" id="m39b01ac156" style="stroke:#000000;stroke-width:0.5;"/>
      </defs>
      <g>
       <use style="stroke:#000000;stroke-width:0.5;" x="53.155398" xlink:href="#m39b01ac156" y="7.399219"/>
      </g>
     </g>
     <g id="text_1">
      <!-- 0 -->
      <g transform="translate(49.974148 161.192656)scale(0.1 -0.1)">
       <defs>
        <path d="M 2034 4250 
Q 1547 4250 1301 3770 
Q 1056 3291 1056 2328 
Q 1056 1369 1301 889 
Q 1547 409 2034 409 
Q 2525 409 2770 889 
Q 3016 1369 3016 2328 
Q 3016 3291 2770 3770 
Q 2525 4250 2034 4250 
z
M 2034 4750 
Q 2819 4750 3233 4129 
Q 3647 3509 3647 2328 
Q 3647 1150 3233 529 
Q 2819 -91 2034 -91 
Q 1250 -91 836 529 
Q 422 1150 422 2328 
Q 422 3509 836 4129 
Q 1250 4750 2034 4750 
z
" id="DejaVuSans-30" transform="scale(0.015625)"/>
       </defs>
       <use xlink:href="#DejaVuSans-30"/>
      </g>
     </g>
    </g>
    <g id="xtick_2">
     <g id="line2d_3">
      <g>
       <use style="stroke:#000000;stroke-width:0.5;" x="110.060992" xlink:href="#m4b8d56da3a" y="150.094219"/>
      </g>
     </g>
     <g id="line2d_4">
      <g>
       <use style="stroke:#000000;stroke-width:0.5;" x="110.060992" xlink:href="#m39b01ac156" y="7.399219"/>
      </g>
     </g>
     <g id="text_2">
      <!-- 50 -->
      <g transform="translate(103.698492 161.192656)scale(0.1 -0.1)">
       <defs>
        <path d="M 691 4666 
L 3169 4666 
L 3169 4134 
L 1269 4134 
L 1269 2991 
Q 1406 3038 1543 3061 
Q 1681 3084 1819 3084 
Q 2600 3084 3056 2656 
Q 3513 2228 3513 1497 
Q 3513 744 3044 326 
Q 2575 -91 1722 -91 
Q 1428 -91 1123 -41 
Q 819 9 494 109 
L 494 744 
Q 775 591 1075 516 
Q 1375 441 1709 441 
Q 2250 441 2565 725 
Q 2881 1009 2881 1497 
Q 2881 1984 2565 2268 
Q 2250 2553 1709 2553 
Q 1456 2553 1204 2497 
Q 953 2441 691 2322 
L 691 4666 
z
" id="DejaVuSans-35" transform="scale(0.015625)"/>
       </defs>
       <use xlink:href="#DejaVuSans-35"/>
       <use x="63.623047" xlink:href="#DejaVuSans-30"/>
      </g>
     </g>
    </g>
    <g id="xtick_3">
     <g id="line2d_5">
      <g>
       <use style="stroke:#000000;stroke-width:0.5;" x="166.966587" xlink:href="#m4b8d56da3a" y="150.094219"/>
      </g>
     </g>
     <g id="line2d_6">
      <g>
       <use style="stroke:#000000;stroke-width:0.5;" x="166.966587" xlink:href="#m39b01ac156" y="7.399219"/>
      </g>
     </g>
     <g id="text_3">
      <!-- 100 -->
      <g transform="translate(157.422837 161.192656)scale(0.1 -0.1)">
       <defs>
        <path d="M 794 531 
L 1825 531 
L 1825 4091 
L 703 3866 
L 703 4441 
L 1819 4666 
L 2450 4666 
L 2450 531 
L 3481 531 
L 3481 0 
L 794 0 
L 794 531 
z
" id="DejaVuSans-31" transform="scale(0.015625)"/>
       </defs>
       <use xlink:href="#DejaVuSans-31"/>
       <use x="63.623047" xlink:href="#DejaVuSans-30"/>
       <use x="127.246094" xlink:href="#DejaVuSans-30"/>
      </g>
     </g>
    </g>
    <g id="xtick_4">
     <g id="line2d_7">
      <g>
       <use style="stroke:#000000;stroke-width:0.5;" x="223.872181" xlink:href="#m4b8d56da3a" y="150.094219"/>
      </g>
     </g>
     <g id="line2d_8">
      <g>
       <use style="stroke:#000000;stroke-width:0.5;" x="223.872181" xlink:href="#m39b01ac156" y="7.399219"/>
      </g>
     </g>
     <g id="text_4">
      <!-- 150 -->
      <g transform="translate(214.328431 161.192656)scale(0.1 -0.1)">
       <use xlink:href="#DejaVuSans-31"/>
       <use x="63.623047" xlink:href="#DejaVuSans-35"/>
       <use x="127.246094" xlink:href="#DejaVuSans-30"/>
      </g>
     </g>
    </g>
    <g id="xtick_5">
     <g id="line2d_9">
      <defs>
       <path d="M 0 0 
L 0 -1.5 
" id="m0995a32007" style="stroke:#000000;stroke-width:0.5;"/>
      </defs>
      <g>
       <use style="stroke:#000000;stroke-width:0.5;" x="64.536517" xlink:href="#m0995a32007" y="150.094219"/>
      </g>
     </g>
     <g id="line2d_10">
      <defs>
       <path d="M 0 0 
L 0 1.5 
" id="medb4d3ba22" style="stroke:#000000;stroke-width:0.5;"/>
      </defs>
      <g>
       <use style="stroke:#000000;stroke-width:0.5;" x="64.536517" xlink:href="#medb4d3ba22" y="7.399219"/>
      </g>
     </g>
    </g>
    <g id="xtick_6">
     <g id="line2d_11">
      <g>
       <use style="stroke:#000000;stroke-width:0.5;" x="75.917635" xlink:href="#m0995a32007" y="150.094219"/>
      </g>
     </g>
     <g id="line2d_12">
      <g>
       <use style="stroke:#000000;stroke-width:0.5;" x="75.917635" xlink:href="#medb4d3ba22" y="7.399219"/>
      </g>
     </g>
    </g>
    <g id="xtick_7">
     <g id="line2d_13">
      <g>
       <use style="stroke:#000000;stroke-width:0.5;" x="87.298754" xlink:href="#m0995a32007" y="150.094219"/>
      </g>
     </g>
     <g id="line2d_14">
      <g>
       <use style="stroke:#000000;stroke-width:0.5;" x="87.298754" xlink:href="#medb4d3ba22" y="7.399219"/>
      </g>
     </g>
    </g>
    <g id="xtick_8">
     <g id="line2d_15">
      <g>
       <use style="stroke:#000000;stroke-width:0.5;" x="98.679873" xlink:href="#m0995a32007" y="150.094219"/>
      </g>
     </g>
     <g id="line2d_16">
      <g>
       <use style="stroke:#000000;stroke-width:0.5;" x="98.679873" xlink:href="#medb4d3ba22" y="7.399219"/>
      </g>
     </g>
    </g>
    <g id="xtick_9">
     <g id="line2d_17">
      <g>
       <use style="stroke:#000000;stroke-width:0.5;" x="121.442111" xlink:href="#m0995a32007" y="150.094219"/>
      </g>
     </g>
     <g id="line2d_18">
      <g>
       <use style="stroke:#000000;stroke-width:0.5;" x="121.442111" xlink:href="#medb4d3ba22" y="7.399219"/>
      </g>
     </g>
    </g>
    <g id="xtick_10">
     <g id="line2d_19">
      <g>
       <use style="stroke:#000000;stroke-width:0.5;" x="132.82323" xlink:href="#m0995a32007" y="150.094219"/>
      </g>
     </g>
     <g id="line2d_20">
      <g>
       <use style="stroke:#000000;stroke-width:0.5;" x="132.82323" xlink:href="#medb4d3ba22" y="7.399219"/>
      </g>
     </g>
    </g>
    <g id="xtick_11">
     <g id="line2d_21">
      <g>
       <use style="stroke:#000000;stroke-width:0.5;" x="144.204349" xlink:href="#m0995a32007" y="150.094219"/>
      </g>
     </g>
     <g id="line2d_22">
      <g>
       <use style="stroke:#000000;stroke-width:0.5;" x="144.204349" xlink:href="#medb4d3ba22" y="7.399219"/>
      </g>
     </g>
    </g>
    <g id="xtick_12">
     <g id="line2d_23">
      <g>
       <use style="stroke:#000000;stroke-width:0.5;" x="155.585468" xlink:href="#m0995a32007" y="150.094219"/>
      </g>
     </g>
     <g id="line2d_24">
      <g>
       <use style="stroke:#000000;stroke-width:0.5;" x="155.585468" xlink:href="#medb4d3ba22" y="7.399219"/>
      </g>
     </g>
    </g>
    <g id="xtick_13">
     <g id="line2d_25">
      <g>
       <use style="stroke:#000000;stroke-width:0.5;" x="178.347705" xlink:href="#m0995a32007" y="150.094219"/>
      </g>
     </g>
     <g id="line2d_26">
      <g>
       <use style="stroke:#000000;stroke-width:0.5;" x="178.347705" xlink:href="#medb4d3ba22" y="7.399219"/>
      </g>
     </g>
    </g>
    <g id="xtick_14">
     <g id="line2d_27">
      <g>
       <use style="stroke:#000000;stroke-width:0.5;" x="189.728824" xlink:href="#m0995a32007" y="150.094219"/>
      </g>
     </g>
     <g id="line2d_28">
      <g>
       <use style="stroke:#000000;stroke-width:0.5;" x="189.728824" xlink:href="#medb4d3ba22" y="7.399219"/>
      </g>
     </g>
    </g>
    <g id="xtick_15">
     <g id="line2d_29">
      <g>
       <use style="stroke:#000000;stroke-width:0.5;" x="201.109943" xlink:href="#m0995a32007" y="150.094219"/>
      </g>
     </g>
     <g id="line2d_30">
      <g>
       <use style="stroke:#000000;stroke-width:0.5;" x="201.109943" xlink:href="#medb4d3ba22" y="7.399219"/>
      </g>
     </g>
    </g>
    <g id="xtick_16">
     <g id="line2d_31">
      <g>
       <use style="stroke:#000000;stroke-width:0.5;" x="212.491062" xlink:href="#m0995a32007" y="150.094219"/>
      </g>
     </g>
     <g id="line2d_32">
      <g>
       <use style="stroke:#000000;stroke-width:0.5;" x="212.491062" xlink:href="#medb4d3ba22" y="7.399219"/>
      </g>
     </g>
    </g>
    <g id="xtick_17">
     <g id="line2d_33">
      <g>
       <use style="stroke:#000000;stroke-width:0.5;" x="235.2533" xlink:href="#m0995a32007" y="150.094219"/>
      </g>
     </g>
     <g id="line2d_34">
      <g>
       <use style="stroke:#000000;stroke-width:0.5;" x="235.2533" xlink:href="#medb4d3ba22" y="7.399219"/>
      </g>
     </g>
    </g>
    <g id="text_5">
     <!-- # Events -->
     <g transform="translate(119.220313 174.870781)scale(0.1 -0.1)">
      <defs>
       <path d="M 3272 2816 
L 2363 2816 
L 2100 1772 
L 3016 1772 
L 3272 2816 
z
M 2803 4594 
L 2478 3297 
L 3391 3297 
L 3719 4594 
L 4219 4594 
L 3897 3297 
L 4872 3297 
L 4872 2816 
L 3775 2816 
L 3519 1772 
L 4513 1772 
L 4513 1294 
L 3397 1294 
L 3072 0 
L 2572 0 
L 2894 1294 
L 1978 1294 
L 1656 0 
L 1153 0 
L 1478 1294 
L 494 1294 
L 494 1772 
L 1594 1772 
L 1856 2816 
L 850 2816 
L 850 3297 
L 1978 3297 
L 2297 4594 
L 2803 4594 
z
" id="DejaVuSans-23" transform="scale(0.015625)"/>
       <path id="DejaVuSans-20" transform="scale(0.015625)"/>
       <path d="M 628 4666 
L 3578 4666 
L 3578 4134 
L 1259 4134 
L 1259 2753 
L 3481 2753 
L 3481 2222 
L 1259 2222 
L 1259 531 
L 3634 531 
L 3634 0 
L 628 0 
L 628 4666 
z
" id="DejaVuSans-45" transform="scale(0.015625)"/>
       <path d="M 191 3500 
L 800 3500 
L 1894 563 
L 2988 3500 
L 3597 3500 
L 2284 0 
L 1503 0 
L 191 3500 
z
" id="DejaVuSans-76" transform="scale(0.015625)"/>
       <path d="M 3597 1894 
L 3597 1613 
L 953 1613 
Q 991 1019 1311 708 
Q 1631 397 2203 397 
Q 2534 397 2845 478 
Q 3156 559 3463 722 
L 3463 178 
Q 3153 47 2828 -22 
Q 2503 -91 2169 -91 
Q 1331 -91 842 396 
Q 353 884 353 1716 
Q 353 2575 817 3079 
Q 1281 3584 2069 3584 
Q 2775 3584 3186 3129 
Q 3597 2675 3597 1894 
z
M 3022 2063 
Q 3016 2534 2758 2815 
Q 2500 3097 2075 3097 
Q 1594 3097 1305 2825 
Q 1016 2553 972 2059 
L 3022 2063 
z
" id="DejaVuSans-65" transform="scale(0.015625)"/>
       <path d="M 3513 2113 
L 3513 0 
L 2938 0 
L 2938 2094 
Q 2938 2591 2744 2837 
Q 2550 3084 2163 3084 
Q 1697 3084 1428 2787 
Q 1159 2491 1159 1978 
L 1159 0 
L 581 0 
L 581 3500 
L 1159 3500 
L 1159 2956 
Q 1366 3272 1645 3428 
Q 1925 3584 2291 3584 
Q 2894 3584 3203 3211 
Q 3513 2838 3513 2113 
z
" id="DejaVuSans-6e" transform="scale(0.015625)"/>
       <path d="M 1172 4494 
L 1172 3500 
L 2356 3500 
L 2356 3053 
L 1172 3053 
L 1172 1153 
Q 1172 725 1289 603 
Q 1406 481 1766 481 
L 2356 481 
L 2356 0 
L 1766 0 
Q 1100 0 847 248 
Q 594 497 594 1153 
L 594 3053 
L 172 3053 
L 172 3500 
L 594 3500 
L 594 4494 
L 1172 4494 
z
" id="DejaVuSans-74" transform="scale(0.015625)"/>
       <path d="M 2834 3397 
L 2834 2853 
Q 2591 2978 2328 3040 
Q 2066 3103 1784 3103 
Q 1356 3103 1142 2972 
Q 928 2841 928 2578 
Q 928 2378 1081 2264 
Q 1234 2150 1697 2047 
L 1894 2003 
Q 2506 1872 2764 1633 
Q 3022 1394 3022 966 
Q 3022 478 2636 193 
Q 2250 -91 1575 -91 
Q 1294 -91 989 -36 
Q 684 19 347 128 
L 347 722 
Q 666 556 975 473 
Q 1284 391 1588 391 
Q 1994 391 2212 530 
Q 2431 669 2431 922 
Q 2431 1156 2273 1281 
Q 2116 1406 1581 1522 
L 1381 1569 
Q 847 1681 609 1914 
Q 372 2147 372 2553 
Q 372 3047 722 3315 
Q 1072 3584 1716 3584 
Q 2034 3584 2315 3537 
Q 2597 3491 2834 3397 
z
" id="DejaVuSans-73" transform="scale(0.015625)"/>
      </defs>
      <use xlink:href="#DejaVuSans-23"/>
      <use x="83.789062" xlink:href="#DejaVuSans-20"/>
      <use x="115.576172" xlink:href="#DejaVuSans-45"/>
      <use x="178.759766" xlink:href="#DejaVuSans-76"/>
      <use x="237.939453" xlink:href="#DejaVuSans-65"/>
      <use x="299.462891" xlink:href="#DejaVuSans-6e"/>
      <use x="362.841797" xlink:href="#DejaVuSans-74"/>
      <use x="402.050781" xlink:href="#DejaVuSans-73"/>
     </g>
    </g>
   </g>
   <g id="matplotlib.axis_2">
    <g id="ytick_1">
     <g id="line2d_35">
      <defs>
       <path d="M 0 0 
L 3 0 
" id="m2c376c05fb" style="stroke:#000000;stroke-width:0.5;"/>
      </defs>
      <g>
       <use style="stroke:#000000;stroke-width:0.5;" x="44.278125" xlink:href="#m2c376c05fb" y="150.094219"/>
      </g>
     </g>
     <g id="line2d_36">
      <defs>
       <path d="M 0 0 
L -3 0 
" id="m3844327465" style="stroke:#000000;stroke-width:0.5;"/>
      </defs>
      <g>
       <use style="stroke:#000000;stroke-width:0.5;" x="239.578125" xlink:href="#m3844327465" y="150.094219"/>
      </g>
     </g>
     <g id="text_6">
      <!-- $\mathdefault{10^{-5}}$ -->
      <g transform="translate(17.278125 153.893437)scale(0.1 -0.1)">
       <defs>
        <path d="M 678 2272 
L 4684 2272 
L 4684 1741 
L 678 1741 
L 678 2272 
z
" id="DejaVuSans-2212" transform="scale(0.015625)"/>
       </defs>
       <use transform="translate(0 0.684375)" xlink:href="#DejaVuSans-31"/>
       <use transform="translate(63.623047 0.684375)" xlink:href="#DejaVuSans-30"/>
       <use transform="translate(128.203125 38.965625)scale(0.7)" xlink:href="#DejaVuSans-2212"/>
       <use transform="translate(186.855469 38.965625)scale(0.7)" xlink:href="#DejaVuSans-35"/>
      </g>
     </g>
    </g>
    <g id="ytick_2">
     <g id="line2d_37">
      <g>
       <use style="stroke:#000000;stroke-width:0.5;" x="44.278125" xlink:href="#m2c376c05fb" y="121.555219"/>
      </g>
     </g>
     <g id="line2d_38">
      <g>
       <use style="stroke:#000000;stroke-width:0.5;" x="239.578125" xlink:href="#m3844327465" y="121.555219"/>
      </g>
     </g>
     <g id="text_7">
      <!-- $\mathdefault{10^{-4}}$ -->
      <g transform="translate(17.278125 125.354437)scale(0.1 -0.1)">
       <defs>
        <path d="M 2419 4116 
L 825 1625 
L 2419 1625 
L 2419 4116 
z
M 2253 4666 
L 3047 4666 
L 3047 1625 
L 3713 1625 
L 3713 1100 
L 3047 1100 
L 3047 0 
L 2419 0 
L 2419 1100 
L 313 1100 
L 313 1709 
L 2253 4666 
z
" id="DejaVuSans-34" transform="scale(0.015625)"/>
       </defs>
       <use transform="translate(0 0.684375)" xlink:href="#DejaVuSans-31"/>
       <use transform="translate(63.623047 0.684375)" xlink:href="#DejaVuSans-30"/>
       <use transform="translate(128.203125 38.965625)scale(0.7)" xlink:href="#DejaVuSans-2212"/>
       <use transform="translate(186.855469 38.965625)scale(0.7)" xlink:href="#DejaVuSans-34"/>
      </g>
     </g>
    </g>
    <g id="ytick_3">
     <g id="line2d_39">
      <g>
       <use style="stroke:#000000;stroke-width:0.5;" x="44.278125" xlink:href="#m2c376c05fb" y="93.016219"/>
      </g>
     </g>
     <g id="line2d_40">
      <g>
       <use style="stroke:#000000;stroke-width:0.5;" x="239.578125" xlink:href="#m3844327465" y="93.016219"/>
      </g>
     </g>
     <g id="text_8">
      <!-- $\mathdefault{10^{-3}}$ -->
      <g transform="translate(17.278125 96.815437)scale(0.1 -0.1)">
       <defs>
        <path d="M 2597 2516 
Q 3050 2419 3304 2112 
Q 3559 1806 3559 1356 
Q 3559 666 3084 287 
Q 2609 -91 1734 -91 
Q 1441 -91 1130 -33 
Q 819 25 488 141 
L 488 750 
Q 750 597 1062 519 
Q 1375 441 1716 441 
Q 2309 441 2620 675 
Q 2931 909 2931 1356 
Q 2931 1769 2642 2001 
Q 2353 2234 1838 2234 
L 1294 2234 
L 1294 2753 
L 1863 2753 
Q 2328 2753 2575 2939 
Q 2822 3125 2822 3475 
Q 2822 3834 2567 4026 
Q 2313 4219 1838 4219 
Q 1578 4219 1281 4162 
Q 984 4106 628 3988 
L 628 4550 
Q 988 4650 1302 4700 
Q 1616 4750 1894 4750 
Q 2613 4750 3031 4423 
Q 3450 4097 3450 3541 
Q 3450 3153 3228 2886 
Q 3006 2619 2597 2516 
z
" id="DejaVuSans-33" transform="scale(0.015625)"/>
       </defs>
       <use transform="translate(0 0.765625)" xlink:href="#DejaVuSans-31"/>
       <use transform="translate(63.623047 0.765625)" xlink:href="#DejaVuSans-30"/>
       <use transform="translate(128.203125 39.046875)scale(0.7)" xlink:href="#DejaVuSans-2212"/>
       <use transform="translate(186.855469 39.046875)scale(0.7)" xlink:href="#DejaVuSans-33"/>
      </g>
     </g>
    </g>
    <g id="ytick_4">
     <g id="line2d_41">
      <g>
       <use style="stroke:#000000;stroke-width:0.5;" x="44.278125" xlink:href="#m2c376c05fb" y="64.477219"/>
      </g>
     </g>
     <g id="line2d_42">
      <g>
       <use style="stroke:#000000;stroke-width:0.5;" x="239.578125" xlink:href="#m3844327465" y="64.477219"/>
      </g>
     </g>
     <g id="text_9">
      <!-- $\mathdefault{10^{-2}}$ -->
      <g transform="translate(17.278125 68.276437)scale(0.1 -0.1)">
       <defs>
        <path d="M 1228 531 
L 3431 531 
L 3431 0 
L 469 0 
L 469 531 
Q 828 903 1448 1529 
Q 2069 2156 2228 2338 
Q 2531 2678 2651 2914 
Q 2772 3150 2772 3378 
Q 2772 3750 2511 3984 
Q 2250 4219 1831 4219 
Q 1534 4219 1204 4116 
Q 875 4013 500 3803 
L 500 4441 
Q 881 4594 1212 4672 
Q 1544 4750 1819 4750 
Q 2544 4750 2975 4387 
Q 3406 4025 3406 3419 
Q 3406 3131 3298 2873 
Q 3191 2616 2906 2266 
Q 2828 2175 2409 1742 
Q 1991 1309 1228 531 
z
" id="DejaVuSans-32" transform="scale(0.015625)"/>
       </defs>
       <use transform="translate(0 0.765625)" xlink:href="#DejaVuSans-31"/>
       <use transform="translate(63.623047 0.765625)" xlink:href="#DejaVuSans-30"/>
       <use transform="translate(128.203125 39.046875)scale(0.7)" xlink:href="#DejaVuSans-2212"/>
       <use transform="translate(186.855469 39.046875)scale(0.7)" xlink:href="#DejaVuSans-32"/>
      </g>
     </g>
    </g>
    <g id="ytick_5">
     <g id="line2d_43">
      <g>
       <use style="stroke:#000000;stroke-width:0.5;" x="44.278125" xlink:href="#m2c376c05fb" y="35.938219"/>
      </g>
     </g>
     <g id="line2d_44">
      <g>
       <use style="stroke:#000000;stroke-width:0.5;" x="239.578125" xlink:href="#m3844327465" y="35.938219"/>
      </g>
     </g>
     <g id="text_10">
      <!-- $\mathdefault{10^{-1}}$ -->
      <g transform="translate(17.278125 39.737437)scale(0.1 -0.1)">
       <use transform="translate(0 0.684375)" xlink:href="#DejaVuSans-31"/>
       <use transform="translate(63.623047 0.684375)" xlink:href="#DejaVuSans-30"/>
       <use transform="translate(128.203125 38.965625)scale(0.7)" xlink:href="#DejaVuSans-2212"/>
       <use transform="translate(186.855469 38.965625)scale(0.7)" xlink:href="#DejaVuSans-31"/>
      </g>
     </g>
    </g>
    <g id="ytick_6">
     <g id="line2d_45">
      <g>
       <use style="stroke:#000000;stroke-width:0.5;" x="44.278125" xlink:href="#m2c376c05fb" y="7.399219"/>
      </g>
     </g>
     <g id="line2d_46">
      <g>
       <use style="stroke:#000000;stroke-width:0.5;" x="239.578125" xlink:href="#m3844327465" y="7.399219"/>
      </g>
     </g>
     <g id="text_11">
      <!-- $\mathdefault{10^{0}}$ -->
      <g transform="translate(23.178125 11.198437)scale(0.1 -0.1)">
       <use transform="translate(0 0.765625)" xlink:href="#DejaVuSans-31"/>
       <use transform="translate(63.623047 0.765625)" xlink:href="#DejaVuSans-30"/>
       <use transform="translate(128.203125 39.046875)scale(0.7)" xlink:href="#DejaVuSans-30"/>
      </g>
     </g>
    </g>
    <g id="ytick_7">
     <g id="line2d_47">
      <defs>
       <path d="M 0 0 
L 1.5 0 
" id="me3cb3aee3d" style="stroke:#000000;stroke-width:0.5;"/>
      </defs>
      <g>
       <use style="stroke:#000000;stroke-width:0.5;" x="44.278125" xlink:href="#me3cb3aee3d" y="141.503124"/>
      </g>
     </g>
     <g id="line2d_48">
      <defs>
       <path d="M 0 0 
L -1.5 0 
" id="m8b53b6362e" style="stroke:#000000;stroke-width:0.5;"/>
      </defs>
      <g>
       <use style="stroke:#000000;stroke-width:0.5;" x="239.578125" xlink:href="#m8b53b6362e" y="141.503124"/>
      </g>
     </g>
    </g>
    <g id="ytick_8">
     <g id="line2d_49">
      <g>
       <use style="stroke:#000000;stroke-width:0.5;" x="44.278125" xlink:href="#me3cb3aee3d" y="136.477655"/>
      </g>
     </g>
     <g id="line2d_50">
      <g>
       <use style="stroke:#000000;stroke-width:0.5;" x="239.578125" xlink:href="#m8b53b6362e" y="136.477655"/>
      </g>
     </g>
    </g>
    <g id="ytick_9">
     <g id="line2d_51">
      <g>
       <use style="stroke:#000000;stroke-width:0.5;" x="44.278125" xlink:href="#me3cb3aee3d" y="132.912029"/>
      </g>
     </g>
     <g id="line2d_52">
      <g>
       <use style="stroke:#000000;stroke-width:0.5;" x="239.578125" xlink:href="#m8b53b6362e" y="132.912029"/>
      </g>
     </g>
    </g>
    <g id="ytick_10">
     <g id="line2d_53">
      <g>
       <use style="stroke:#000000;stroke-width:0.5;" x="44.278125" xlink:href="#me3cb3aee3d" y="130.146314"/>
      </g>
     </g>
     <g id="line2d_54">
      <g>
       <use style="stroke:#000000;stroke-width:0.5;" x="239.578125" xlink:href="#m8b53b6362e" y="130.146314"/>
      </g>
     </g>
    </g>
    <g id="ytick_11">
     <g id="line2d_55">
      <g>
       <use style="stroke:#000000;stroke-width:0.5;" x="44.278125" xlink:href="#me3cb3aee3d" y="127.88656"/>
      </g>
     </g>
     <g id="line2d_56">
      <g>
       <use style="stroke:#000000;stroke-width:0.5;" x="239.578125" xlink:href="#m8b53b6362e" y="127.88656"/>
      </g>
     </g>
    </g>
    <g id="ytick_12">
     <g id="line2d_57">
      <g>
       <use style="stroke:#000000;stroke-width:0.5;" x="44.278125" xlink:href="#me3cb3aee3d" y="125.975966"/>
      </g>
     </g>
     <g id="line2d_58">
      <g>
       <use style="stroke:#000000;stroke-width:0.5;" x="239.578125" xlink:href="#m8b53b6362e" y="125.975966"/>
      </g>
     </g>
    </g>
    <g id="ytick_13">
     <g id="line2d_59">
      <g>
       <use style="stroke:#000000;stroke-width:0.5;" x="44.278125" xlink:href="#me3cb3aee3d" y="124.320934"/>
      </g>
     </g>
     <g id="line2d_60">
      <g>
       <use style="stroke:#000000;stroke-width:0.5;" x="239.578125" xlink:href="#m8b53b6362e" y="124.320934"/>
      </g>
     </g>
    </g>
    <g id="ytick_14">
     <g id="line2d_61">
      <g>
       <use style="stroke:#000000;stroke-width:0.5;" x="44.278125" xlink:href="#me3cb3aee3d" y="122.861092"/>
      </g>
     </g>
     <g id="line2d_62">
      <g>
       <use style="stroke:#000000;stroke-width:0.5;" x="239.578125" xlink:href="#m8b53b6362e" y="122.861092"/>
      </g>
     </g>
    </g>
    <g id="ytick_15">
     <g id="line2d_63">
      <g>
       <use style="stroke:#000000;stroke-width:0.5;" x="44.278125" xlink:href="#me3cb3aee3d" y="112.964124"/>
      </g>
     </g>
     <g id="line2d_64">
      <g>
       <use style="stroke:#000000;stroke-width:0.5;" x="239.578125" xlink:href="#m8b53b6362e" y="112.964124"/>
      </g>
     </g>
    </g>
    <g id="ytick_16">
     <g id="line2d_65">
      <g>
       <use style="stroke:#000000;stroke-width:0.5;" x="44.278125" xlink:href="#me3cb3aee3d" y="107.938655"/>
      </g>
     </g>
     <g id="line2d_66">
      <g>
       <use style="stroke:#000000;stroke-width:0.5;" x="239.578125" xlink:href="#m8b53b6362e" y="107.938655"/>
      </g>
     </g>
    </g>
    <g id="ytick_17">
     <g id="line2d_67">
      <g>
       <use style="stroke:#000000;stroke-width:0.5;" x="44.278125" xlink:href="#me3cb3aee3d" y="104.373029"/>
      </g>
     </g>
     <g id="line2d_68">
      <g>
       <use style="stroke:#000000;stroke-width:0.5;" x="239.578125" xlink:href="#m8b53b6362e" y="104.373029"/>
      </g>
     </g>
    </g>
    <g id="ytick_18">
     <g id="line2d_69">
      <g>
       <use style="stroke:#000000;stroke-width:0.5;" x="44.278125" xlink:href="#me3cb3aee3d" y="101.607314"/>
      </g>
     </g>
     <g id="line2d_70">
      <g>
       <use style="stroke:#000000;stroke-width:0.5;" x="239.578125" xlink:href="#m8b53b6362e" y="101.607314"/>
      </g>
     </g>
    </g>
    <g id="ytick_19">
     <g id="line2d_71">
      <g>
       <use style="stroke:#000000;stroke-width:0.5;" x="44.278125" xlink:href="#me3cb3aee3d" y="99.34756"/>
      </g>
     </g>
     <g id="line2d_72">
      <g>
       <use style="stroke:#000000;stroke-width:0.5;" x="239.578125" xlink:href="#m8b53b6362e" y="99.34756"/>
      </g>
     </g>
    </g>
    <g id="ytick_20">
     <g id="line2d_73">
      <g>
       <use style="stroke:#000000;stroke-width:0.5;" x="44.278125" xlink:href="#me3cb3aee3d" y="97.436966"/>
      </g>
     </g>
     <g id="line2d_74">
      <g>
       <use style="stroke:#000000;stroke-width:0.5;" x="239.578125" xlink:href="#m8b53b6362e" y="97.436966"/>
      </g>
     </g>
    </g>
    <g id="ytick_21">
     <g id="line2d_75">
      <g>
       <use style="stroke:#000000;stroke-width:0.5;" x="44.278125" xlink:href="#me3cb3aee3d" y="95.781934"/>
      </g>
     </g>
     <g id="line2d_76">
      <g>
       <use style="stroke:#000000;stroke-width:0.5;" x="239.578125" xlink:href="#m8b53b6362e" y="95.781934"/>
      </g>
     </g>
    </g>
    <g id="ytick_22">
     <g id="line2d_77">
      <g>
       <use style="stroke:#000000;stroke-width:0.5;" x="44.278125" xlink:href="#me3cb3aee3d" y="94.322092"/>
      </g>
     </g>
     <g id="line2d_78">
      <g>
       <use style="stroke:#000000;stroke-width:0.5;" x="239.578125" xlink:href="#m8b53b6362e" y="94.322092"/>
      </g>
     </g>
    </g>
    <g id="ytick_23">
     <g id="line2d_79">
      <g>
       <use style="stroke:#000000;stroke-width:0.5;" x="44.278125" xlink:href="#me3cb3aee3d" y="84.425124"/>
      </g>
     </g>
     <g id="line2d_80">
      <g>
       <use style="stroke:#000000;stroke-width:0.5;" x="239.578125" xlink:href="#m8b53b6362e" y="84.425124"/>
      </g>
     </g>
    </g>
    <g id="ytick_24">
     <g id="line2d_81">
      <g>
       <use style="stroke:#000000;stroke-width:0.5;" x="44.278125" xlink:href="#me3cb3aee3d" y="79.399655"/>
      </g>
     </g>
     <g id="line2d_82">
      <g>
       <use style="stroke:#000000;stroke-width:0.5;" x="239.578125" xlink:href="#m8b53b6362e" y="79.399655"/>
      </g>
     </g>
    </g>
    <g id="ytick_25">
     <g id="line2d_83">
      <g>
       <use style="stroke:#000000;stroke-width:0.5;" x="44.278125" xlink:href="#me3cb3aee3d" y="75.834029"/>
      </g>
     </g>
     <g id="line2d_84">
      <g>
       <use style="stroke:#000000;stroke-width:0.5;" x="239.578125" xlink:href="#m8b53b6362e" y="75.834029"/>
      </g>
     </g>
    </g>
    <g id="ytick_26">
     <g id="line2d_85">
      <g>
       <use style="stroke:#000000;stroke-width:0.5;" x="44.278125" xlink:href="#me3cb3aee3d" y="73.068314"/>
      </g>
     </g>
     <g id="line2d_86">
      <g>
       <use style="stroke:#000000;stroke-width:0.5;" x="239.578125" xlink:href="#m8b53b6362e" y="73.068314"/>
      </g>
     </g>
    </g>
    <g id="ytick_27">
     <g id="line2d_87">
      <g>
       <use style="stroke:#000000;stroke-width:0.5;" x="44.278125" xlink:href="#me3cb3aee3d" y="70.80856"/>
      </g>
     </g>
     <g id="line2d_88">
      <g>
       <use style="stroke:#000000;stroke-width:0.5;" x="239.578125" xlink:href="#m8b53b6362e" y="70.80856"/>
      </g>
     </g>
    </g>
    <g id="ytick_28">
     <g id="line2d_89">
      <g>
       <use style="stroke:#000000;stroke-width:0.5;" x="44.278125" xlink:href="#me3cb3aee3d" y="68.897966"/>
      </g>
     </g>
     <g id="line2d_90">
      <g>
       <use style="stroke:#000000;stroke-width:0.5;" x="239.578125" xlink:href="#m8b53b6362e" y="68.897966"/>
      </g>
     </g>
    </g>
    <g id="ytick_29">
     <g id="line2d_91">
      <g>
       <use style="stroke:#000000;stroke-width:0.5;" x="44.278125" xlink:href="#me3cb3aee3d" y="67.242934"/>
      </g>
     </g>
     <g id="line2d_92">
      <g>
       <use style="stroke:#000000;stroke-width:0.5;" x="239.578125" xlink:href="#m8b53b6362e" y="67.242934"/>
      </g>
     </g>
    </g>
    <g id="ytick_30">
     <g id="line2d_93">
      <g>
       <use style="stroke:#000000;stroke-width:0.5;" x="44.278125" xlink:href="#me3cb3aee3d" y="65.783092"/>
      </g>
     </g>
     <g id="line2d_94">
      <g>
       <use style="stroke:#000000;stroke-width:0.5;" x="239.578125" xlink:href="#m8b53b6362e" y="65.783092"/>
      </g>
     </g>
    </g>
    <g id="ytick_31">
     <g id="line2d_95">
      <g>
       <use style="stroke:#000000;stroke-width:0.5;" x="44.278125" xlink:href="#me3cb3aee3d" y="55.886124"/>
      </g>
     </g>
     <g id="line2d_96">
      <g>
       <use style="stroke:#000000;stroke-width:0.5;" x="239.578125" xlink:href="#m8b53b6362e" y="55.886124"/>
      </g>
     </g>
    </g>
    <g id="ytick_32">
     <g id="line2d_97">
      <g>
       <use style="stroke:#000000;stroke-width:0.5;" x="44.278125" xlink:href="#me3cb3aee3d" y="50.860655"/>
      </g>
     </g>
     <g id="line2d_98">
      <g>
       <use style="stroke:#000000;stroke-width:0.5;" x="239.578125" xlink:href="#m8b53b6362e" y="50.860655"/>
      </g>
     </g>
    </g>
    <g id="ytick_33">
     <g id="line2d_99">
      <g>
       <use style="stroke:#000000;stroke-width:0.5;" x="44.278125" xlink:href="#me3cb3aee3d" y="47.295029"/>
      </g>
     </g>
     <g id="line2d_100">
      <g>
       <use style="stroke:#000000;stroke-width:0.5;" x="239.578125" xlink:href="#m8b53b6362e" y="47.295029"/>
      </g>
     </g>
    </g>
    <g id="ytick_34">
     <g id="line2d_101">
      <g>
       <use style="stroke:#000000;stroke-width:0.5;" x="44.278125" xlink:href="#me3cb3aee3d" y="44.529314"/>
      </g>
     </g>
     <g id="line2d_102">
      <g>
       <use style="stroke:#000000;stroke-width:0.5;" x="239.578125" xlink:href="#m8b53b6362e" y="44.529314"/>
      </g>
     </g>
    </g>
    <g id="ytick_35">
     <g id="line2d_103">
      <g>
       <use style="stroke:#000000;stroke-width:0.5;" x="44.278125" xlink:href="#me3cb3aee3d" y="42.26956"/>
      </g>
     </g>
     <g id="line2d_104">
      <g>
       <use style="stroke:#000000;stroke-width:0.5;" x="239.578125" xlink:href="#m8b53b6362e" y="42.26956"/>
      </g>
     </g>
    </g>
    <g id="ytick_36">
     <g id="line2d_105">
      <g>
       <use style="stroke:#000000;stroke-width:0.5;" x="44.278125" xlink:href="#me3cb3aee3d" y="40.358966"/>
      </g>
     </g>
     <g id="line2d_106">
      <g>
       <use style="stroke:#000000;stroke-width:0.5;" x="239.578125" xlink:href="#m8b53b6362e" y="40.358966"/>
      </g>
     </g>
    </g>
    <g id="ytick_37">
     <g id="line2d_107">
      <g>
       <use style="stroke:#000000;stroke-width:0.5;" x="44.278125" xlink:href="#me3cb3aee3d" y="38.703934"/>
      </g>
     </g>
     <g id="line2d_108">
      <g>
       <use style="stroke:#000000;stroke-width:0.5;" x="239.578125" xlink:href="#m8b53b6362e" y="38.703934"/>
      </g>
     </g>
    </g>
    <g id="ytick_38">
     <g id="line2d_109">
      <g>
       <use style="stroke:#000000;stroke-width:0.5;" x="44.278125" xlink:href="#me3cb3aee3d" y="37.244092"/>
      </g>
     </g>
     <g id="line2d_110">
      <g>
       <use style="stroke:#000000;stroke-width:0.5;" x="239.578125" xlink:href="#m8b53b6362e" y="37.244092"/>
      </g>
     </g>
    </g>
    <g id="ytick_39">
     <g id="line2d_111">
      <g>
       <use style="stroke:#000000;stroke-width:0.5;" x="44.278125" xlink:href="#me3cb3aee3d" y="27.347124"/>
      </g>
     </g>
     <g id="line2d_112">
      <g>
       <use style="stroke:#000000;stroke-width:0.5;" x="239.578125" xlink:href="#m8b53b6362e" y="27.347124"/>
      </g>
     </g>
    </g>
    <g id="ytick_40">
     <g id="line2d_113">
      <g>
       <use style="stroke:#000000;stroke-width:0.5;" x="44.278125" xlink:href="#me3cb3aee3d" y="22.321655"/>
      </g>
     </g>
     <g id="line2d_114">
      <g>
       <use style="stroke:#000000;stroke-width:0.5;" x="239.578125" xlink:href="#m8b53b6362e" y="22.321655"/>
      </g>
     </g>
    </g>
    <g id="ytick_41">
     <g id="line2d_115">
      <g>
       <use style="stroke:#000000;stroke-width:0.5;" x="44.278125" xlink:href="#me3cb3aee3d" y="18.756029"/>
      </g>
     </g>
     <g id="line2d_116">
      <g>
       <use style="stroke:#000000;stroke-width:0.5;" x="239.578125" xlink:href="#m8b53b6362e" y="18.756029"/>
      </g>
     </g>
    </g>
    <g id="ytick_42">
     <g id="line2d_117">
      <g>
       <use style="stroke:#000000;stroke-width:0.5;" x="44.278125" xlink:href="#me3cb3aee3d" y="15.990314"/>
      </g>
     </g>
     <g id="line2d_118">
      <g>
       <use style="stroke:#000000;stroke-width:0.5;" x="239.578125" xlink:href="#m8b53b6362e" y="15.990314"/>
      </g>
     </g>
    </g>
    <g id="ytick_43">
     <g id="line2d_119">
      <g>
       <use style="stroke:#000000;stroke-width:0.5;" x="44.278125" xlink:href="#me3cb3aee3d" y="13.73056"/>
      </g>
     </g>
     <g id="line2d_120">
      <g>
       <use style="stroke:#000000;stroke-width:0.5;" x="239.578125" xlink:href="#m8b53b6362e" y="13.73056"/>
      </g>
     </g>
    </g>
    <g id="ytick_44">
     <g id="line2d_121">
      <g>
       <use style="stroke:#000000;stroke-width:0.5;" x="44.278125" xlink:href="#me3cb3aee3d" y="11.819966"/>
      </g>
     </g>
     <g id="line2d_122">
      <g>
       <use style="stroke:#000000;stroke-width:0.5;" x="239.578125" xlink:href="#m8b53b6362e" y="11.819966"/>
      </g>
     </g>
    </g>
    <g id="ytick_45">
     <g id="line2d_123">
      <g>
       <use style="stroke:#000000;stroke-width:0.5;" x="44.278125" xlink:href="#me3cb3aee3d" y="10.164934"/>
      </g>
     </g>
     <g id="line2d_124">
      <g>
       <use style="stroke:#000000;stroke-width:0.5;" x="239.578125" xlink:href="#m8b53b6362e" y="10.164934"/>
      </g>
     </g>
    </g>
    <g id="ytick_46">
     <g id="line2d_125">
      <g>
       <use style="stroke:#000000;stroke-width:0.5;" x="44.278125" xlink:href="#me3cb3aee3d" y="8.705092"/>
      </g>
     </g>
     <g id="line2d_126">
      <g>
       <use style="stroke:#000000;stroke-width:0.5;" x="239.578125" xlink:href="#m8b53b6362e" y="8.705092"/>
      </g>
     </g>
    </g>
    <g id="text_12">
     <!-- Voltage / V -->
     <g transform="translate(11.198438 105.785781)rotate(-90)scale(0.1 -0.1)">
      <defs>
       <path d="M 1831 0 
L 50 4666 
L 709 4666 
L 2188 738 
L 3669 4666 
L 4325 4666 
L 2547 0 
L 1831 0 
z
" id="DejaVuSans-56" transform="scale(0.015625)"/>
       <path d="M 1959 3097 
Q 1497 3097 1228 2736 
Q 959 2375 959 1747 
Q 959 1119 1226 758 
Q 1494 397 1959 397 
Q 2419 397 2687 759 
Q 2956 1122 2956 1747 
Q 2956 2369 2687 2733 
Q 2419 3097 1959 3097 
z
M 1959 3584 
Q 2709 3584 3137 3096 
Q 3566 2609 3566 1747 
Q 3566 888 3137 398 
Q 2709 -91 1959 -91 
Q 1206 -91 779 398 
Q 353 888 353 1747 
Q 353 2609 779 3096 
Q 1206 3584 1959 3584 
z
" id="DejaVuSans-6f" transform="scale(0.015625)"/>
       <path d="M 603 4863 
L 1178 4863 
L 1178 0 
L 603 0 
L 603 4863 
z
" id="DejaVuSans-6c" transform="scale(0.015625)"/>
       <path d="M 2194 1759 
Q 1497 1759 1228 1600 
Q 959 1441 959 1056 
Q 959 750 1161 570 
Q 1363 391 1709 391 
Q 2188 391 2477 730 
Q 2766 1069 2766 1631 
L 2766 1759 
L 2194 1759 
z
M 3341 1997 
L 3341 0 
L 2766 0 
L 2766 531 
Q 2569 213 2275 61 
Q 1981 -91 1556 -91 
Q 1019 -91 701 211 
Q 384 513 384 1019 
Q 384 1609 779 1909 
Q 1175 2209 1959 2209 
L 2766 2209 
L 2766 2266 
Q 2766 2663 2505 2880 
Q 2244 3097 1772 3097 
Q 1472 3097 1187 3025 
Q 903 2953 641 2809 
L 641 3341 
Q 956 3463 1253 3523 
Q 1550 3584 1831 3584 
Q 2591 3584 2966 3190 
Q 3341 2797 3341 1997 
z
" id="DejaVuSans-61" transform="scale(0.015625)"/>
       <path d="M 2906 1791 
Q 2906 2416 2648 2759 
Q 2391 3103 1925 3103 
Q 1463 3103 1205 2759 
Q 947 2416 947 1791 
Q 947 1169 1205 825 
Q 1463 481 1925 481 
Q 2391 481 2648 825 
Q 2906 1169 2906 1791 
z
M 3481 434 
Q 3481 -459 3084 -895 
Q 2688 -1331 1869 -1331 
Q 1566 -1331 1297 -1286 
Q 1028 -1241 775 -1147 
L 775 -588 
Q 1028 -725 1275 -790 
Q 1522 -856 1778 -856 
Q 2344 -856 2625 -561 
Q 2906 -266 2906 331 
L 2906 616 
Q 2728 306 2450 153 
Q 2172 0 1784 0 
Q 1141 0 747 490 
Q 353 981 353 1791 
Q 353 2603 747 3093 
Q 1141 3584 1784 3584 
Q 2172 3584 2450 3431 
Q 2728 3278 2906 2969 
L 2906 3500 
L 3481 3500 
L 3481 434 
z
" id="DejaVuSans-67" transform="scale(0.015625)"/>
       <path d="M 1625 4666 
L 2156 4666 
L 531 -594 
L 0 -594 
L 1625 4666 
z
" id="DejaVuSans-2f" transform="scale(0.015625)"/>
      </defs>
      <use xlink:href="#DejaVuSans-56"/>
      <use x="60.658203" xlink:href="#DejaVuSans-6f"/>
      <use x="121.839844" xlink:href="#DejaVuSans-6c"/>
      <use x="149.623047" xlink:href="#DejaVuSans-74"/>
      <use x="188.832031" xlink:href="#DejaVuSans-61"/>
      <use x="250.111328" xlink:href="#DejaVuSans-67"/>
      <use x="313.587891" xlink:href="#DejaVuSans-65"/>
      <use x="375.111328" xlink:href="#DejaVuSans-20"/>
      <use x="406.898438" xlink:href="#DejaVuSans-2f"/>
      <use x="440.589844" xlink:href="#DejaVuSans-20"/>
      <use x="472.376953" xlink:href="#DejaVuSans-56"/>
     </g>
    </g>
   </g>
   <g id="line2d_127">
    <path clip-path="url(#p9423aa621d)" d="M 53.155398 51.291323 
L 54.29351 51.652868 
L 55.431622 52.429572 
L 56.569733 52.96273 
L 57.707845 53.329449 
L 58.845957 54.359901 
L 59.984069 54.997573 
L 62.260293 55.833069 
L 64.536517 56.082339 
L 67.950852 57.122494 
L 72.5033 57.588185 
L 74.779524 58.455997 
L 77.055747 58.590017 
L 80.470083 59.608003 
L 81.608195 59.755873 
L 82.746307 60.086186 
L 83.884419 60.699652 
L 85.022531 60.739614 
L 86.160642 60.964141 
L 87.298754 61.576787 
L 89.574978 61.719122 
L 92.989314 62.287504 
L 94.127426 62.637712 
L 95.265538 62.666663 
L 96.403649 62.911207 
L 99.817985 63.219849 
L 100.956097 63.710122 
L 102.094209 63.884754 
L 103.232321 63.92507 
L 104.370433 64.341174 
L 107.784768 64.625992 
L 108.92288 64.855785 
L 110.060992 65.313892 
L 111.199104 65.391401 
L 112.337216 65.699426 
L 113.475328 65.863074 
L 114.61344 65.87992 
L 115.751552 66.122216 
L 116.889663 66.161613 
L 118.027775 66.397786 
L 119.165887 66.437934 
L 120.303999 66.846671 
L 121.442111 66.854834 
L 122.580223 67.08981 
L 124.856447 67.367238 
L 128.270782 67.806773 
L 129.408894 68.353654 
L 130.547006 68.364702 
L 131.685118 68.62979 
L 132.82323 68.632895 
L 133.961342 68.881075 
L 135.099454 69.278357 
L 136.237566 69.453432 
L 137.375677 69.496022 
L 138.513789 70.59385 
L 139.651901 70.627271 
L 141.928125 71.215225 
L 144.204349 71.303149 
L 145.342461 71.777363 
L 148.756796 72.73081 
L 149.894908 72.829329 
L 152.171132 73.425337 
L 153.309244 73.890408 
L 154.447356 73.941316 
L 158.999803 74.813306 
L 162.414139 76.29586 
L 170.380922 77.446456 
L 171.519034 77.733006 
L 172.657146 77.750712 
L 173.795258 79.116565 
L 176.071482 79.488377 
L 178.347705 80.308114 
L 180.623929 80.54077 
L 182.900153 80.796974 
L 185.176377 81.352109 
L 186.314489 81.564382 
L 187.452601 82.202511 
L 192.005048 82.67377 
L 193.14316 83.229162 
L 194.281272 83.308885 
L 195.419384 84.614084 
L 196.557496 84.767099 
L 197.695608 85.07119 
L 198.833719 85.094593 
L 199.971831 85.239504 
L 201.109943 86.479081 
L 203.386167 86.948611 
L 204.524279 87.083279 
L 205.662391 87.402377 
L 209.076726 87.88419 
L 210.214838 88.707315 
L 212.491062 88.803357 
L 213.629174 90.034639 
L 214.767286 90.569329 
L 215.905398 91.537016 
L 218.181622 91.682808 
L 219.319733 92.165843 
L 220.457845 94.659693 
L 221.595957 94.840705 
L 223.872181 96.158051 
L 225.010293 96.308384 
L 226.148405 96.725798 
L 227.286517 98.827921 
L 229.56274 98.984983 
L 230.700852 101.754772 
L 230.700852 101.754772 
" style="fill:none;stroke:#0c5da5;stroke-linecap:square;"/>
   </g>
   <g id="line2d_128">
    <path clip-path="url(#p9423aa621d)" d="M 53.155398 50.621245 
L 54.29351 51.292001 
L 55.431622 54.584303 
L 56.569733 54.591474 
L 57.707845 55.784626 
L 58.845957 57.295452 
L 59.984069 60.423825 
L 61.122181 60.441869 
L 62.260293 61.147 
L 63.398405 61.155181 
L 64.536517 64.527958 
L 65.674628 65.0351 
L 66.81274 65.145318 
L 67.950852 65.698245 
L 69.088964 67.190578 
L 71.365188 67.784261 
L 72.5033 68.570625 
L 73.641412 68.671717 
L 74.779524 68.939386 
L 75.917635 69.616923 
L 77.055747 70.677096 
L 79.331971 70.793176 
L 80.470083 73.940935 
L 81.608195 73.983719 
L 82.746307 74.778263 
L 85.022531 75.261692 
L 86.160642 75.283482 
L 87.298754 75.530181 
L 89.574978 76.225357 
L 90.71309 76.980333 
L 91.851202 77.14869 
L 92.989314 77.76976 
L 94.127426 78.226478 
L 95.265538 79.420738 
L 96.403649 79.726155 
L 98.679873 80.565375 
L 99.817985 80.689207 
L 100.956097 81.187969 
L 102.094209 81.363864 
L 103.232321 82.003125 
L 105.508545 82.158983 
L 106.646656 82.837341 
L 107.784768 82.874833 
L 108.92288 83.559087 
L 111.199104 83.730919 
L 112.337216 83.986689 
L 113.475328 85.073771 
L 114.61344 86.393764 
L 116.889663 86.832344 
L 118.027775 90.177812 
L 119.165887 91.258606 
L 120.303999 91.589732 
L 121.442111 92.253204 
L 123.718335 93.130863 
L 124.856447 93.18284 
L 125.994559 94.182066 
L 127.13267 94.471477 
L 128.270782 96.445228 
L 129.408894 97.298496 
L 130.547006 98.343517 
L 131.685118 98.512449 
L 133.961342 99.162399 
L 135.099454 99.197079 
L 136.237566 99.443361 
L 138.513789 100.316755 
L 140.790013 100.703887 
L 141.928125 101.158333 
L 143.066237 101.745443 
L 144.204349 102.508255 
L 145.342461 103.532823 
L 146.480573 103.605333 
L 148.756796 104.212218 
L 149.894908 104.993912 
L 155.585468 106.327875 
L 157.861691 106.506465 
L 160.137915 107.223326 
L 161.276027 107.387469 
L 162.414139 107.858751 
L 165.828475 110.417726 
L 166.966587 111.009953 
L 173.795258 111.716931 
L 176.071482 111.816322 
L 177.209594 112.590644 
L 178.347705 112.626354 
L 184.038265 113.330081 
L 185.176377 113.363458 
L 186.314489 113.737062 
L 188.590712 113.77113 
L 189.728824 113.929748 
L 192.005048 114.843762 
L 193.14316 115.203493 
L 194.281272 116.103866 
L 195.419384 116.477411 
L 196.557496 116.506599 
L 197.695608 117.267217 
L 202.248055 117.979275 
L 206.800503 118.646149 
L 207.938615 119.14086 
L 209.076726 119.365469 
L 211.35295 119.580831 
L 212.491062 119.951846 
L 213.629174 120.557826 
L 214.767286 122.057534 
L 215.905398 122.570983 
L 217.04351 122.584132 
L 219.319733 124.725965 
L 220.457845 125.350005 
L 221.595957 126.208321 
L 223.872181 128.148256 
L 225.010293 132.706842 
L 226.148405 135.395854 
L 227.286517 137.584414 
L 228.898852 181.550469 
L 228.898852 181.550469 
" style="fill:none;stroke:#ff9500;stroke-linecap:square;"/>
   </g>
   <g id="line2d_129">
    <path clip-path="url(#p9423aa621d)" d="M 53.155398 25.428024 
L 54.29351 26.847136 
L 55.431622 27.683629 
L 56.569733 27.732444 
L 57.707845 28.19694 
L 58.845957 29.670429 
L 59.984069 30.843168 
L 61.122181 32.359442 
L 62.260293 32.558522 
L 64.536517 32.644974 
L 65.674628 32.789584 
L 66.81274 32.796176 
L 67.950852 33.466657 
L 69.088964 34.331934 
L 71.365188 35.335454 
L 72.5033 35.419727 
L 74.779524 35.893653 
L 77.055747 35.955844 
L 78.193859 36.343009 
L 79.331971 36.951459 
L 81.608195 37.309887 
L 82.746307 37.885791 
L 83.884419 37.951174 
L 85.022531 38.879648 
L 86.160642 39.041157 
L 88.436866 39.214782 
L 89.574978 39.53568 
L 90.71309 39.732282 
L 95.265538 39.872183 
L 96.403649 40.29938 
L 100.956097 40.392205 
L 111.199104 41.707257 
L 115.751552 41.968436 
L 119.165887 42.218409 
L 120.303999 42.278584 
L 121.442111 42.734858 
L 123.718335 43.106121 
L 125.994559 43.476857 
L 128.270782 43.488979 
L 129.408894 43.88441 
L 131.685118 44.091894 
L 133.961342 44.592265 
L 140.790013 45.134972 
L 141.928125 45.282656 
L 143.066237 45.666086 
L 144.204349 45.745667 
L 145.342461 46.068381 
L 147.618684 46.238165 
L 148.756796 46.460346 
L 149.894908 46.460678 
L 151.03302 46.626866 
L 152.171132 47.169161 
L 154.447356 47.376787 
L 155.585468 47.977464 
L 158.999803 48.043806 
L 160.137915 48.165945 
L 161.276027 48.620517 
L 164.690363 48.921878 
L 165.828475 48.971952 
L 166.966587 49.457441 
L 170.380922 49.955044 
L 171.519034 50.527864 
L 173.795258 50.577179 
L 177.209594 50.836609 
L 178.347705 52.112428 
L 179.485817 52.571811 
L 180.623929 52.842998 
L 181.762041 52.905837 
L 182.900153 53.622865 
L 184.038265 53.659682 
L 185.176377 53.88646 
L 186.314489 54.411324 
L 188.590712 54.940565 
L 193.14316 56.540431 
L 195.419384 56.679212 
L 196.557496 56.828911 
L 197.695608 58.733104 
L 198.833719 60.006021 
L 199.971831 60.829227 
L 201.109943 61.077799 
L 202.248055 61.500183 
L 204.524279 63.758542 
L 205.662391 64.830384 
L 206.800503 65.165857 
L 207.938615 66.527456 
L 210.214838 66.751882 
L 211.35295 67.317509 
L 212.491062 68.537079 
L 213.629174 70.798401 
L 214.767286 71.23764 
L 215.905398 71.352703 
L 217.04351 72.60161 
L 218.181622 72.734251 
L 219.319733 73.115754 
L 220.457845 74.816571 
L 221.595957 77.328059 
L 222.734069 79.091565 
L 223.872181 79.59424 
L 225.010293 81.900589 
L 227.286517 85.555174 
L 228.424628 85.984527 
L 229.56274 87.147915 
L 230.700852 91.784065 
L 230.700852 91.784065 
" style="fill:none;stroke:#00b945;stroke-linecap:square;"/>
   </g>
   <g id="line2d_130">
    <path clip-path="url(#p9423aa621d)" d="M 53.155398 56.735126 
L 54.29351 57.950492 
L 56.569733 58.710544 
L 58.845957 59.915039 
L 61.122181 60.0623 
L 62.260293 61.682953 
L 63.398405 61.707643 
L 64.536517 62.160012 
L 66.81274 62.268835 
L 67.950852 62.61447 
L 70.227076 63.628682 
L 74.779524 63.894521 
L 75.917635 64.197647 
L 77.055747 64.287174 
L 78.193859 64.532362 
L 80.470083 64.679979 
L 81.608195 64.736109 
L 82.746307 64.919459 
L 85.022531 65.094228 
L 86.160642 65.307176 
L 89.574978 65.544718 
L 90.71309 65.852272 
L 92.989314 66.270158 
L 95.265538 66.732624 
L 96.403649 67.122359 
L 97.541761 67.353001 
L 98.679873 68.006231 
L 100.956097 68.04955 
L 102.094209 68.231821 
L 104.370433 68.282375 
L 105.508545 68.560281 
L 106.646656 68.586344 
L 107.784768 68.924233 
L 108.92288 68.977047 
L 111.199104 69.520726 
L 116.889663 69.916285 
L 119.165887 70.162396 
L 125.994559 70.451855 
L 129.408894 70.613001 
L 130.547006 70.819594 
L 132.82323 70.917452 
L 133.961342 71.222996 
L 135.099454 71.3974 
L 136.237566 71.449525 
L 137.375677 71.99415 
L 145.342461 72.610824 
L 146.480573 72.810705 
L 147.618684 73.50299 
L 151.03302 73.620488 
L 152.171132 73.904163 
L 155.585468 74.081104 
L 157.861691 74.093414 
L 158.999803 74.487053 
L 160.137915 74.667495 
L 161.276027 74.672225 
L 165.828475 75.324 
L 168.104698 75.417898 
L 169.24281 75.667238 
L 170.380922 75.802172 
L 171.519034 76.17672 
L 178.347705 76.327902 
L 179.485817 76.856737 
L 180.623929 77.140427 
L 181.762041 77.174729 
L 184.038265 77.470631 
L 185.176377 77.494115 
L 186.314489 77.676876 
L 187.452601 77.985455 
L 188.590712 78.019736 
L 189.728824 78.23361 
L 190.866936 78.704067 
L 192.005048 78.946182 
L 194.281272 80.269191 
L 195.419384 80.554669 
L 196.557496 80.559075 
L 197.695608 81.005572 
L 198.833719 81.083172 
L 199.971831 81.344548 
L 201.109943 81.819587 
L 202.248055 83.222535 
L 203.386167 83.741115 
L 204.524279 83.780921 
L 205.662391 84.850294 
L 206.800503 85.555015 
L 207.938615 85.783111 
L 209.076726 85.815507 
L 210.214838 86.186416 
L 212.491062 86.469605 
L 214.767286 87.887628 
L 215.905398 87.9723 
L 217.04351 88.363268 
L 218.181622 89.055302 
L 219.319733 90.915442 
L 220.457845 92.025851 
L 221.595957 92.668649 
L 222.734069 94.033921 
L 223.872181 94.613878 
L 225.010293 95.390103 
L 226.148405 97.453107 
L 227.286517 105.277005 
L 229.56274 107.263445 
L 230.700852 108.95369 
L 230.700852 108.95369 
" style="fill:none;stroke:#ff2c00;stroke-linecap:square;"/>
   </g>
   <g id="line2d_131">
    <path clip-path="url(#p9423aa621d)" d="M 53.155398 18.980639 
L 56.569733 19.7572 
L 57.707845 20.989764 
L 59.984069 21.479257 
L 61.122181 22.542439 
L 62.260293 22.557518 
L 65.674628 22.902101 
L 66.81274 23.416769 
L 67.950852 23.7014 
L 69.088964 23.761658 
L 70.227076 23.979072 
L 71.365188 24.561449 
L 73.641412 24.691032 
L 75.917635 24.824588 
L 77.055747 25.970593 
L 78.193859 26.172763 
L 80.470083 27.000534 
L 82.746307 27.342896 
L 83.884419 27.45737 
L 85.022531 27.874678 
L 89.574978 28.942295 
L 90.71309 29.237094 
L 91.851202 29.415148 
L 92.989314 29.714415 
L 95.265538 29.910159 
L 96.403649 29.92206 
L 97.541761 30.195678 
L 98.679873 30.668585 
L 99.817985 30.715404 
L 100.956097 31.063109 
L 102.094209 31.189401 
L 103.232321 31.461957 
L 105.508545 31.560015 
L 106.646656 31.563441 
L 107.784768 31.826299 
L 118.027775 32.513968 
L 119.165887 32.879912 
L 120.303999 32.899139 
L 122.580223 33.129381 
L 124.856447 33.253483 
L 130.547006 33.803093 
L 131.685118 34.36336 
L 132.82323 34.467275 
L 133.961342 34.690676 
L 136.237566 34.8071 
L 137.375677 35.399552 
L 143.066237 35.763687 
L 144.204349 36.093187 
L 149.894908 36.435799 
L 151.03302 36.726564 
L 154.447356 37.092219 
L 156.72358 37.229501 
L 157.861691 37.503316 
L 162.414139 38.02983 
L 163.552251 38.316927 
L 164.690363 38.323243 
L 165.828475 38.557367 
L 170.380922 38.79546 
L 171.519034 39.012441 
L 172.657146 39.484197 
L 174.93337 39.621256 
L 176.071482 39.960469 
L 178.347705 40.389585 
L 180.623929 40.886668 
L 182.900153 42.035075 
L 185.176377 42.602548 
L 187.452601 43.764534 
L 188.590712 43.808433 
L 189.728824 44.184724 
L 190.866936 45.493858 
L 192.005048 46.301962 
L 193.14316 46.900473 
L 194.281272 48.348095 
L 195.419384 48.472773 
L 196.557496 48.752047 
L 197.695608 48.776478 
L 198.833719 49.170235 
L 199.971831 49.343399 
L 203.386167 50.294285 
L 204.524279 50.42267 
L 205.662391 51.137187 
L 206.800503 51.323959 
L 207.938615 51.812441 
L 209.076726 52.074397 
L 210.214838 52.637059 
L 212.491062 53.109302 
L 213.629174 53.45943 
L 214.767286 53.475516 
L 218.181622 55.209953 
L 222.734069 55.749482 
L 223.872181 56.390904 
L 225.010293 57.375579 
L 226.148405 57.955052 
L 228.424628 58.505413 
L 229.56274 59.177312 
L 230.700852 61.495535 
L 230.700852 61.495535 
" style="fill:none;stroke:#845b97;stroke-linecap:square;"/>
   </g>
   <g id="patch_3">
    <path d="M 44.278125 150.094219 
L 44.278125 7.399219 
" style="fill:none;stroke:#000000;stroke-linecap:square;stroke-linejoin:miter;stroke-width:0.5;"/>
   </g>
   <g id="patch_4">
    <path d="M 239.578125 150.094219 
L 239.578125 7.399219 
" style="fill:none;stroke:#000000;stroke-linecap:square;stroke-linejoin:miter;stroke-width:0.5;"/>
   </g>
   <g id="patch_5">
    <path d="M 44.278125 150.094219 
L 239.578125 150.094219 
" style="fill:none;stroke:#000000;stroke-linecap:square;stroke-linejoin:miter;stroke-width:0.5;"/>
   </g>
   <g id="patch_6">
    <path d="M 44.278125 7.399219 
L 239.578125 7.399219 
" style="fill:none;stroke:#000000;stroke-linecap:square;stroke-linejoin:miter;stroke-width:0.5;"/>
   </g>
  </g>
 </g>
 <defs>
  <clipPath id="p9423aa621d">
   <rect height="142.695" width="195.3" x="44.278125" y="7.399219"/>
  </clipPath>
 </defs>
</svg>
