<?xml version="1.0" encoding="utf-8" standalone="no"?>
<!DOCTYPE svg PUBLIC "-//W3C//DTD SVG 1.1//EN"
  "http://www.w3.org/Graphics/SVG/1.1/DTD/svg11.dtd">
<svg height="180.550469pt" version="1.1" viewBox="0 0 243.178125 180.550469" width="243.178125pt" xmlns="http://www.w3.org/2000/svg" xmlns:xlink="http://www.w3.org/1999/xlink">
 <metadata>
  <rdf:RDF xmlns:cc="http://creativecommons.org/ns#" xmlns:dc="http://purl.org/dc/elements/1.1/" xmlns:rdf="http://www.w3.org/1999/02/22-rdf-syntax-ns#">
   <cc:Work>
    <dc:type rdf:resource="http://purl.org/dc/dcmitype/StillImage"/>
    <dc:date>2023-04-24T13:39:56.892652</dc:date>
    <dc:format>image/svg+xml</dc:format>
    <dc:creator>
     <cc:Agent>
      <dc:title>Matplotlib v3.4.3, https://matplotlib.org/</dc:title>
     </cc:Agent>
    </dc:creator>
   </cc:Work>
  </rdf:RDF>
 </metadata>
 <defs>
  <style type="text/css">*{stroke-linecap:butt;stroke-linejoin:round;}</style>
 </defs>
 <g id="figure_1">
  <g id="patch_1">
   <path d="M 0 180.550469 
L 243.178125 180.550469 
L 243.178125 0 
L 0 0 
z
" style="fill:none;"/>
  </g>
  <g id="axes_1">
   <g id="patch_2">
    <path d="M 44.278125 150.094219 
L 239.578125 150.094219 
L 239.578125 7.399219 
L 44.278125 7.399219 
z
" style="fill:#ffffff;"/>
   </g>
   <g id="PolyCollection_1">
    <path clip-path="url(#p4b837da15c)" d="M 53.155398 80.720433 
L 53.155398 86.120414 
L 54.315826 89.179201 
L 55.476253 90.633321 
L 56.636681 91.158454 
L 57.797109 91.659102 
L 58.957537 92.084912 
L 60.117965 92.462706 
L 61.278392 92.775577 
L 62.43882 93.108308 
L 63.599248 93.359227 
L 64.759676 93.544417 
L 65.920104 93.756845 
L 67.080531 93.937255 
L 68.240959 94.096564 
L 69.401387 94.280868 
L 70.561815 94.472497 
L 71.722243 94.696109 
L 72.88267 94.914963 
L 74.043098 95.065487 
L 75.203526 95.199705 
L 76.363954 95.408828 
L 77.524382 95.577531 
L 78.684809 95.758356 
L 79.845237 95.91906 
L 81.005665 96.098332 
L 82.166093 96.227577 
L 83.326521 96.370359 
L 84.486949 96.542155 
L 85.647376 96.678095 
L 86.807804 96.810458 
L 87.968232 96.972611 
L 89.12866 97.152205 
L 90.289088 97.269234 
L 91.449515 97.430882 
L 92.609943 97.587074 
L 93.770371 97.721073 
L 94.930799 97.876649 
L 96.091227 98.014677 
L 97.251654 98.190863 
L 98.412082 98.357283 
L 99.57251 98.488663 
L 100.732938 98.666024 
L 101.893366 98.877142 
L 103.053793 99.05297 
L 104.214221 99.238276 
L 105.374649 99.431487 
L 106.535077 99.56414 
L 107.695505 99.73115 
L 108.855932 99.930055 
L 110.01636 100.110146 
L 111.176788 100.260512 
L 112.337216 100.463906 
L 113.497644 100.669721 
L 114.658072 100.899057 
L 115.818499 101.092548 
L 116.978927 101.285741 
L 118.139355 101.470904 
L 119.299783 101.62866 
L 120.460211 101.820865 
L 121.620638 102.015304 
L 122.781066 102.225398 
L 123.941494 102.475809 
L 125.101922 102.661794 
L 126.26235 102.89733 
L 127.422777 103.062783 
L 128.583205 103.258653 
L 129.743633 103.560733 
L 130.904061 103.709457 
L 132.064489 103.90132 
L 133.224916 104.238968 
L 134.385344 104.466694 
L 135.545772 104.670797 
L 136.7062 104.986584 
L 137.866628 105.240614 
L 139.027055 105.503771 
L 140.187483 105.783974 
L 141.347911 106.111632 
L 142.508339 106.342187 
L 143.668767 106.60887 
L 144.829195 106.912329 
L 145.989622 107.311124 
L 147.15005 107.581722 
L 148.310478 107.97718 
L 149.470906 108.230102 
L 150.631334 108.559142 
L 151.791761 108.950149 
L 152.952189 109.410253 
L 154.112617 109.785302 
L 155.273045 110.077691 
L 156.433473 110.345606 
L 157.5939 110.749063 
L 158.754328 111.142977 
L 159.914756 111.577811 
L 161.075184 112.003102 
L 162.235612 112.512165 
L 163.396039 112.928491 
L 164.556467 113.25796 
L 165.716895 113.530084 
L 166.877323 113.776409 
L 168.037751 114.290573 
L 169.198178 114.613744 
L 170.358606 115.00524 
L 171.519034 115.486764 
L 172.679462 115.813967 
L 173.83989 116.258174 
L 175.000318 116.624702 
L 176.160745 117.145473 
L 177.321173 117.816072 
L 178.481601 118.181593 
L 179.642029 118.733289 
L 180.802457 119.137888 
L 181.962884 119.575945 
L 183.123312 120.238193 
L 184.28374 121.077148 
L 185.444168 121.952896 
L 186.604596 122.626392 
L 187.765023 123.461328 
L 188.925451 124.058421 
L 190.085879 124.82981 
L 191.246307 125.396558 
L 192.406735 126.162248 
L 193.567162 127.489083 
L 194.72759 128.422088 
L 195.888018 129.427582 
L 197.048446 130.022906 
L 198.208874 131.008901 
L 199.369301 132.215264 
L 200.529729 132.780629 
L 201.690157 134.715681 
L 202.850585 135.911418 
L 204.011013 137.188149 
L 205.171441 138.966916 
L 206.331868 140.185231 
L 207.492296 142.74903 
L 208.652724 145.541774 
L 209.813152 146.955156 
L 210.97358 150.915912 
L 212.134007 155.06232 
L 213.294435 159.175358 
L 214.454863 160.443808 
L 215.615291 162.961629 
L 216.775719 171.682725 
L 217.936146 174.944959 
L 219.096574 176.682747 
L 220.257002 183.453648 
L 221.41743 185.915295 
L 222.577858 190.59944 
L 223.738285 224.188524 
L 224.898713 228.306272 
L 226.059141 454.532175 
L 227.219569 575.32003 
L 228.379997 680.622936 
L 229.540424 795.757376 
L 230.700852 965.042277 
L 230.700852 139.788481 
L 230.700852 139.788481 
L 229.540424 132.533265 
L 228.379997 129.129952 
L 227.219569 125.429645 
L 226.059141 124.252092 
L 224.898713 122.233568 
L 223.738285 121.058167 
L 222.577858 119.883173 
L 221.41743 118.609758 
L 220.257002 117.610513 
L 219.096574 116.680206 
L 217.936146 115.863413 
L 216.775719 115.004783 
L 215.615291 114.187924 
L 214.454863 113.449826 
L 213.294435 112.825189 
L 212.134007 112.236228 
L 210.97358 111.343683 
L 209.813152 110.675393 
L 208.652724 110.196865 
L 207.492296 109.69444 
L 206.331868 109.275752 
L 205.171441 108.537543 
L 204.011013 108.198614 
L 202.850585 107.728162 
L 201.690157 107.081033 
L 200.529729 106.495579 
L 199.369301 105.917295 
L 198.208874 105.418999 
L 197.048446 105.060161 
L 195.888018 104.657428 
L 194.72759 104.151608 
L 193.567162 103.497363 
L 192.406735 103.163936 
L 191.246307 102.797352 
L 190.085879 102.543712 
L 188.925451 102.244146 
L 187.765023 101.884157 
L 186.604596 101.634949 
L 185.444168 101.316105 
L 184.28374 101.028069 
L 183.123312 100.767128 
L 181.962884 100.518027 
L 180.802457 100.328733 
L 179.642029 100.10961 
L 178.481601 99.832907 
L 177.321173 99.575098 
L 176.160745 99.341684 
L 175.000318 99.157136 
L 173.83989 98.898289 
L 172.679462 98.66572 
L 171.519034 98.469374 
L 170.358606 98.301552 
L 169.198178 98.079246 
L 168.037751 97.889136 
L 166.877323 97.668944 
L 165.716895 97.451895 
L 164.556467 97.29801 
L 163.396039 97.110788 
L 162.235612 96.931154 
L 161.075184 96.760097 
L 159.914756 96.491181 
L 158.754328 96.312995 
L 157.5939 96.138294 
L 156.433473 95.945974 
L 155.273045 95.799125 
L 154.112617 95.663623 
L 152.952189 95.53638 
L 151.791761 95.341127 
L 150.631334 95.219854 
L 149.470906 95.021338 
L 148.310478 94.879982 
L 147.15005 94.741151 
L 145.989622 94.552359 
L 144.829195 94.429842 
L 143.668767 94.277071 
L 142.508339 94.099192 
L 141.347911 93.946676 
L 140.187483 93.796477 
L 139.027055 93.671737 
L 137.866628 93.589528 
L 136.7062 93.449735 
L 135.545772 93.340913 
L 134.385344 93.207741 
L 133.224916 93.056504 
L 132.064489 92.953856 
L 130.904061 92.885934 
L 129.743633 92.753336 
L 128.583205 92.647576 
L 127.422777 92.52979 
L 126.26235 92.392923 
L 125.101922 92.268012 
L 123.941494 92.183542 
L 122.781066 92.045622 
L 121.620638 91.958554 
L 120.460211 91.815773 
L 119.299783 91.731493 
L 118.139355 91.607423 
L 116.978927 91.493051 
L 115.818499 91.381937 
L 114.658072 91.303956 
L 113.497644 91.213024 
L 112.337216 91.099288 
L 111.176788 90.966502 
L 110.01636 90.877156 
L 108.855932 90.756587 
L 107.695505 90.664882 
L 106.535077 90.566838 
L 105.374649 90.475584 
L 104.214221 90.380463 
L 103.053793 90.29979 
L 101.893366 90.184643 
L 100.732938 90.094852 
L 99.57251 89.982127 
L 98.412082 89.881706 
L 97.251654 89.774189 
L 96.091227 89.683015 
L 94.930799 89.565691 
L 93.770371 89.456934 
L 92.609943 89.365327 
L 91.449515 89.279544 
L 90.289088 89.150503 
L 89.12866 89.05894 
L 87.968232 88.972005 
L 86.807804 88.866876 
L 85.647376 88.77767 
L 84.486949 88.655674 
L 83.326521 88.542455 
L 82.166093 88.447692 
L 81.005665 88.323728 
L 79.845237 88.236367 
L 78.684809 88.101597 
L 77.524382 87.989455 
L 76.363954 87.8545 
L 75.203526 87.75037 
L 74.043098 87.660596 
L 72.88267 87.549353 
L 71.722243 87.436933 
L 70.561815 87.355305 
L 69.401387 87.260876 
L 68.240959 87.134575 
L 67.080531 87.025728 
L 65.920104 86.849172 
L 64.759676 86.701644 
L 63.599248 86.543948 
L 62.43882 86.381542 
L 61.278392 86.189308 
L 60.117965 85.969195 
L 58.957537 85.725058 
L 57.797109 85.414798 
L 56.636681 85.119196 
L 55.476253 84.542487 
L 54.315826 83.561982 
L 53.155398 80.720433 
z
" style="fill:#0c5da5;fill-opacity:0.15;"/>
   </g>
   <g id="PolyCollection_2">
    <path clip-path="url(#p4b837da15c)" d="M 53.155398 90.059493 
L 53.155398 92.545421 
L 54.315826 94.247596 
L 55.476253 94.918606 
L 56.636681 95.585629 
L 57.797109 96.048941 
L 58.957537 96.351119 
L 60.117965 96.624633 
L 61.278392 96.926739 
L 62.43882 97.136549 
L 63.599248 97.255428 
L 64.759676 97.441003 
L 65.920104 97.599214 
L 67.080531 97.69719 
L 68.240959 97.789297 
L 69.401387 97.88851 
L 70.561815 97.978793 
L 71.722243 98.091733 
L 72.88267 98.203257 
L 74.043098 98.289098 
L 75.203526 98.414849 
L 76.363954 98.491789 
L 77.524382 98.566155 
L 78.684809 98.633564 
L 79.845237 98.696905 
L 81.005665 98.772515 
L 82.166093 98.829767 
L 83.326521 98.889356 
L 84.486949 98.947786 
L 85.647376 98.994479 
L 86.807804 99.047895 
L 87.968232 99.097352 
L 89.12866 99.150815 
L 90.289088 99.190892 
L 91.449515 99.238294 
L 92.609943 99.26882 
L 93.770371 99.320947 
L 94.930799 99.354452 
L 96.091227 99.403008 
L 97.251654 99.45262 
L 98.412082 99.497145 
L 99.57251 99.546583 
L 100.732938 99.585263 
L 101.893366 99.63144 
L 103.053793 99.667359 
L 104.214221 99.710214 
L 105.374649 99.755397 
L 106.535077 99.788902 
L 107.695505 99.824273 
L 108.855932 99.854015 
L 110.01636 99.898301 
L 111.176788 99.946465 
L 112.337216 99.980407 
L 113.497644 100.02021 
L 114.658072 100.066991 
L 115.818499 100.105056 
L 116.978927 100.141585 
L 118.139355 100.181273 
L 119.299783 100.229776 
L 120.460211 100.264708 
L 121.620638 100.302639 
L 122.781066 100.333848 
L 123.941494 100.381524 
L 125.101922 100.419275 
L 126.26235 100.457332 
L 127.422777 100.502507 
L 128.583205 100.542814 
L 129.743633 100.57714 
L 130.904061 100.624749 
L 132.064489 100.661248 
L 133.224916 100.714173 
L 134.385344 100.745208 
L 135.545772 100.778566 
L 136.7062 100.805028 
L 137.866628 100.850399 
L 139.027055 100.898195 
L 140.187483 100.94287 
L 141.347911 100.985444 
L 142.508339 101.027212 
L 143.668767 101.076476 
L 144.829195 101.138515 
L 145.989622 101.192056 
L 147.15005 101.237865 
L 148.310478 101.279803 
L 149.470906 101.340446 
L 150.631334 101.392964 
L 151.791761 101.447789 
L 152.952189 101.488833 
L 154.112617 101.542334 
L 155.273045 101.585255 
L 156.433473 101.638098 
L 157.5939 101.678055 
L 158.754328 101.740168 
L 159.914756 101.792459 
L 161.075184 101.860387 
L 162.235612 101.934388 
L 163.396039 101.98783 
L 164.556467 102.045368 
L 165.716895 102.14495 
L 166.877323 102.214049 
L 168.037751 102.303166 
L 169.198178 102.359792 
L 170.358606 102.418809 
L 171.519034 102.49829 
L 172.679462 102.595745 
L 173.83989 102.705406 
L 175.000318 102.847365 
L 176.160745 102.981793 
L 177.321173 103.060239 
L 178.481601 103.134813 
L 179.642029 103.274753 
L 180.802457 103.367374 
L 181.962884 103.45958 
L 183.123312 103.633968 
L 184.28374 103.711381 
L 185.444168 103.817585 
L 186.604596 103.9229 
L 187.765023 104.037891 
L 188.925451 104.149631 
L 190.085879 104.243972 
L 191.246307 104.348375 
L 192.406735 104.475006 
L 193.567162 104.625543 
L 194.72759 104.798058 
L 195.888018 104.952168 
L 197.048446 105.080513 
L 198.208874 105.248157 
L 199.369301 105.424242 
L 200.529729 105.591192 
L 201.690157 105.770905 
L 202.850585 105.994 
L 204.011013 106.217827 
L 205.171441 106.410134 
L 206.331868 106.658433 
L 207.492296 106.952582 
L 208.652724 107.306541 
L 209.813152 107.612144 
L 210.97358 107.95188 
L 212.134007 108.275451 
L 213.294435 108.684549 
L 214.454863 108.989117 
L 215.615291 109.255873 
L 216.775719 109.696771 
L 217.936146 110.18875 
L 219.096574 110.761321 
L 220.257002 111.196022 
L 221.41743 111.853566 
L 222.577858 112.36899 
L 223.738285 112.93304 
L 224.898713 113.381617 
L 226.059141 114.076852 
L 227.219569 114.722791 
L 228.379997 117.176373 
L 229.540424 118.618233 
L 230.700852 120.687696 
L 230.700852 117.090523 
L 230.700852 117.090523 
L 229.540424 115.205002 
L 228.379997 113.610374 
L 227.219569 111.357716 
L 226.059141 110.755697 
L 224.898713 110.068573 
L 223.738285 109.578299 
L 222.577858 108.938575 
L 221.41743 108.350181 
L 220.257002 107.850384 
L 219.096574 107.304377 
L 217.936146 106.836236 
L 216.775719 106.472075 
L 215.615291 106.171078 
L 214.454863 105.851837 
L 213.294435 105.574289 
L 212.134007 105.139124 
L 210.97358 104.91547 
L 209.813152 104.606812 
L 208.652724 104.378635 
L 207.492296 104.20089 
L 206.331868 103.993895 
L 205.171441 103.847836 
L 204.011013 103.619475 
L 202.850585 103.457914 
L 201.690157 103.313447 
L 200.529729 103.129567 
L 199.369301 102.995116 
L 198.208874 102.882039 
L 197.048446 102.71194 
L 195.888018 102.559948 
L 194.72759 102.434985 
L 193.567162 102.314487 
L 192.406735 102.174074 
L 191.246307 102.047228 
L 190.085879 101.942164 
L 188.925451 101.831085 
L 187.765023 101.735748 
L 186.604596 101.623019 
L 185.444168 101.454466 
L 184.28374 101.356993 
L 183.123312 101.274113 
L 181.962884 101.18342 
L 180.802457 101.099273 
L 179.642029 101.00553 
L 178.481601 100.893471 
L 177.321173 100.782157 
L 176.160745 100.694319 
L 175.000318 100.574359 
L 173.83989 100.43724 
L 172.679462 100.360415 
L 171.519034 100.286223 
L 170.358606 100.212639 
L 169.198178 100.135881 
L 168.037751 100.078192 
L 166.877323 99.992202 
L 165.716895 99.929358 
L 164.556467 99.872591 
L 163.396039 99.800471 
L 162.235612 99.736411 
L 161.075184 99.682385 
L 159.914756 99.620877 
L 158.754328 99.557842 
L 157.5939 99.504699 
L 156.433473 99.448805 
L 155.273045 99.40993 
L 154.112617 99.339238 
L 152.952189 99.299429 
L 151.791761 99.250061 
L 150.631334 99.201476 
L 149.470906 99.149755 
L 148.310478 99.111515 
L 147.15005 99.068528 
L 145.989622 99.02719 
L 144.829195 98.986119 
L 143.668767 98.935323 
L 142.508339 98.891264 
L 141.347911 98.841885 
L 140.187483 98.796431 
L 139.027055 98.759092 
L 137.866628 98.713835 
L 136.7062 98.66951 
L 135.545772 98.635298 
L 134.385344 98.58323 
L 133.224916 98.534479 
L 132.064489 98.488046 
L 130.904061 98.455172 
L 129.743633 98.418692 
L 128.583205 98.38168 
L 127.422777 98.332815 
L 126.26235 98.293021 
L 125.101922 98.262537 
L 123.941494 98.223945 
L 122.781066 98.193783 
L 121.620638 98.1534 
L 120.460211 98.114593 
L 119.299783 98.080177 
L 118.139355 98.039596 
L 116.978927 98.000151 
L 115.818499 97.951675 
L 114.658072 97.912935 
L 113.497644 97.878421 
L 112.337216 97.844028 
L 111.176788 97.801362 
L 110.01636 97.765104 
L 108.855932 97.730503 
L 107.695505 97.686619 
L 106.535077 97.631339 
L 105.374649 97.581536 
L 104.214221 97.538645 
L 103.053793 97.488199 
L 101.893366 97.451882 
L 100.732938 97.417247 
L 99.57251 97.363891 
L 98.412082 97.319505 
L 97.251654 97.272207 
L 96.091227 97.240966 
L 94.930799 97.192606 
L 93.770371 97.14851 
L 92.609943 97.097985 
L 91.449515 97.040097 
L 90.289088 97.006832 
L 89.12866 96.966501 
L 87.968232 96.901007 
L 86.807804 96.859825 
L 85.647376 96.814432 
L 84.486949 96.763832 
L 83.326521 96.700923 
L 82.166093 96.650097 
L 81.005665 96.601264 
L 79.845237 96.514238 
L 78.684809 96.424947 
L 77.524382 96.337213 
L 76.363954 96.240727 
L 75.203526 96.152347 
L 74.043098 96.074898 
L 72.88267 95.985222 
L 71.722243 95.867046 
L 70.561815 95.766217 
L 69.401387 95.685734 
L 68.240959 95.578997 
L 67.080531 95.425396 
L 65.920104 95.296118 
L 64.759676 95.175099 
L 63.599248 94.990377 
L 62.43882 94.781973 
L 61.278392 94.550017 
L 60.117965 94.246245 
L 58.957537 93.912388 
L 57.797109 93.403863 
L 56.636681 93.027635 
L 55.476253 92.371964 
L 54.315826 91.679742 
L 53.155398 90.059493 
z
" style="fill:#ff9500;fill-opacity:0.15;"/>
   </g>
   <g id="PolyCollection_3">
    <path clip-path="url(#p4b837da15c)" d="M 53.155398 74.002414 
L 53.155398 77.146246 
L 54.315826 78.467216 
L 55.476253 79.213697 
L 56.636681 79.675095 
L 57.797109 80.170284 
L 58.957537 80.678488 
L 60.117965 81.025159 
L 61.278392 81.284048 
L 62.43882 81.591687 
L 63.599248 81.857055 
L 64.759676 82.100342 
L 65.920104 82.380375 
L 67.080531 82.595359 
L 68.240959 82.782339 
L 69.401387 82.992007 
L 70.561815 83.165027 
L 71.722243 83.308194 
L 72.88267 83.491549 
L 74.043098 83.600109 
L 75.203526 83.788192 
L 76.363954 83.961646 
L 77.524382 84.140543 
L 78.684809 84.265884 
L 79.845237 84.409458 
L 81.005665 84.510267 
L 82.166093 84.630746 
L 83.326521 84.759643 
L 84.486949 84.867103 
L 85.647376 84.988155 
L 86.807804 85.095022 
L 87.968232 85.227274 
L 89.12866 85.355066 
L 90.289088 85.486711 
L 91.449515 85.595066 
L 92.609943 85.742044 
L 93.770371 85.897182 
L 94.930799 86.040449 
L 96.091227 86.174502 
L 97.251654 86.272559 
L 98.412082 86.426623 
L 99.57251 86.552419 
L 100.732938 86.648094 
L 101.893366 86.763863 
L 103.053793 86.86451 
L 104.214221 86.99824 
L 105.374649 87.12194 
L 106.535077 87.212294 
L 107.695505 87.304234 
L 108.855932 87.45417 
L 110.01636 87.580368 
L 111.176788 87.707019 
L 112.337216 87.831017 
L 113.497644 87.921327 
L 114.658072 88.030061 
L 115.818499 88.16115 
L 116.978927 88.270028 
L 118.139355 88.39439 
L 119.299783 88.500234 
L 120.460211 88.604929 
L 121.620638 88.730081 
L 122.781066 88.841432 
L 123.941494 88.967107 
L 125.101922 89.082581 
L 126.26235 89.189912 
L 127.422777 89.327169 
L 128.583205 89.439103 
L 129.743633 89.54649 
L 130.904061 89.69522 
L 132.064489 89.788962 
L 133.224916 89.904411 
L 134.385344 90.009024 
L 135.545772 90.148828 
L 136.7062 90.288012 
L 137.866628 90.440763 
L 139.027055 90.532112 
L 140.187483 90.631538 
L 141.347911 90.727759 
L 142.508339 90.818967 
L 143.668767 90.971342 
L 144.829195 91.080772 
L 145.989622 91.202494 
L 147.15005 91.309932 
L 148.310478 91.450257 
L 149.470906 91.624511 
L 150.631334 91.765281 
L 151.791761 91.920139 
L 152.952189 92.041471 
L 154.112617 92.186356 
L 155.273045 92.315534 
L 156.433473 92.460261 
L 157.5939 92.559519 
L 158.754328 92.698543 
L 159.914756 92.796781 
L 161.075184 92.981468 
L 162.235612 93.10636 
L 163.396039 93.260803 
L 164.556467 93.437042 
L 165.716895 93.572276 
L 166.877323 93.739406 
L 168.037751 93.888644 
L 169.198178 94.037058 
L 170.358606 94.146724 
L 171.519034 94.293095 
L 172.679462 94.424483 
L 173.83989 94.62066 
L 175.000318 94.806881 
L 176.160745 94.988948 
L 177.321173 95.203017 
L 178.481601 95.382323 
L 179.642029 95.530442 
L 180.802457 95.741897 
L 181.962884 95.932683 
L 183.123312 96.145628 
L 184.28374 96.352913 
L 185.444168 96.565704 
L 186.604596 96.776952 
L 187.765023 96.975262 
L 188.925451 97.211708 
L 190.085879 97.479067 
L 191.246307 97.687786 
L 192.406735 97.926396 
L 193.567162 98.345174 
L 194.72759 98.700778 
L 195.888018 98.945895 
L 197.048446 99.137179 
L 198.208874 99.415708 
L 199.369301 99.709839 
L 200.529729 99.946664 
L 201.690157 100.251229 
L 202.850585 100.547089 
L 204.011013 100.755993 
L 205.171441 101.093183 
L 206.331868 101.401612 
L 207.492296 101.820782 
L 208.652724 102.308485 
L 209.813152 102.676865 
L 210.97358 103.068483 
L 212.134007 103.67535 
L 213.294435 104.153372 
L 214.454863 104.758888 
L 215.615291 105.332791 
L 216.775719 105.911971 
L 217.936146 106.793887 
L 219.096574 107.426407 
L 220.257002 108.252731 
L 221.41743 109.501765 
L 222.577858 111.243024 
L 223.738285 112.362372 
L 224.898713 114.210428 
L 226.059141 116.035521 
L 227.219569 118.549269 
L 228.379997 123.246438 
L 229.540424 129.582538 
L 230.700852 140.459958 
L 230.700852 129.449515 
L 230.700852 129.449515 
L 229.540424 120.292006 
L 228.379997 114.558893 
L 227.219569 111.115538 
L 226.059141 109.263107 
L 224.898713 107.709051 
L 223.738285 106.517553 
L 222.577858 105.51522 
L 221.41743 104.719008 
L 220.257002 103.852455 
L 219.096574 102.969403 
L 217.936146 102.129153 
L 216.775719 101.75796 
L 215.615291 101.127284 
L 214.454863 100.619823 
L 213.294435 100.230628 
L 212.134007 99.825603 
L 210.97358 99.507365 
L 209.813152 99.22672 
L 208.652724 98.847027 
L 207.492296 98.522529 
L 206.331868 98.269501 
L 205.171441 97.988776 
L 204.011013 97.750117 
L 202.850585 97.397666 
L 201.690157 97.080363 
L 200.529729 96.850554 
L 199.369301 96.571705 
L 198.208874 96.308713 
L 197.048446 96.077688 
L 195.888018 95.835146 
L 194.72759 95.550359 
L 193.567162 95.121214 
L 192.406735 94.886466 
L 191.246307 94.577564 
L 190.085879 94.382524 
L 188.925451 94.171384 
L 187.765023 93.953788 
L 186.604596 93.766544 
L 185.444168 93.574743 
L 184.28374 93.433592 
L 183.123312 93.250098 
L 181.962884 93.056796 
L 180.802457 92.870674 
L 179.642029 92.701716 
L 178.481601 92.458521 
L 177.321173 92.283006 
L 176.160745 92.094987 
L 175.000318 91.963813 
L 173.83989 91.799257 
L 172.679462 91.647757 
L 171.519034 91.460744 
L 170.358606 91.318307 
L 169.198178 91.145768 
L 168.037751 90.963492 
L 166.877323 90.814443 
L 165.716895 90.68054 
L 164.556467 90.544275 
L 163.396039 90.457247 
L 162.235612 90.297832 
L 161.075184 90.17896 
L 159.914756 90.020662 
L 158.754328 89.898372 
L 157.5939 89.753587 
L 156.433473 89.634816 
L 155.273045 89.517216 
L 154.112617 89.319592 
L 152.952189 89.227026 
L 151.791761 89.1158 
L 150.631334 89.008509 
L 149.470906 88.894831 
L 148.310478 88.75209 
L 147.15005 88.645795 
L 145.989622 88.502451 
L 144.829195 88.382927 
L 143.668767 88.262644 
L 142.508339 88.150007 
L 141.347911 88.000767 
L 140.187483 87.913197 
L 139.027055 87.780513 
L 137.866628 87.63474 
L 136.7062 87.484386 
L 135.545772 87.371651 
L 134.385344 87.253901 
L 133.224916 87.11438 
L 132.064489 86.982407 
L 130.904061 86.846008 
L 129.743633 86.735882 
L 128.583205 86.608159 
L 127.422777 86.502502 
L 126.26235 86.360932 
L 125.101922 86.2801 
L 123.941494 86.160828 
L 122.781066 86.060804 
L 121.620638 85.93234 
L 120.460211 85.826221 
L 119.299783 85.719039 
L 118.139355 85.577595 
L 116.978927 85.450406 
L 115.818499 85.351355 
L 114.658072 85.235685 
L 113.497644 85.116347 
L 112.337216 85.004328 
L 111.176788 84.891449 
L 110.01636 84.750571 
L 108.855932 84.64632 
L 107.695505 84.523826 
L 106.535077 84.408889 
L 105.374649 84.298758 
L 104.214221 84.197578 
L 103.053793 84.087256 
L 101.893366 83.982156 
L 100.732938 83.857547 
L 99.57251 83.709999 
L 98.412082 83.587098 
L 97.251654 83.45662 
L 96.091227 83.352422 
L 94.930799 83.227923 
L 93.770371 83.120341 
L 92.609943 82.994009 
L 91.449515 82.856652 
L 90.289088 82.709237 
L 89.12866 82.609798 
L 87.968232 82.475305 
L 86.807804 82.352535 
L 85.647376 82.22245 
L 84.486949 82.084469 
L 83.326521 81.953267 
L 82.166093 81.810942 
L 81.005665 81.687696 
L 79.845237 81.58103 
L 78.684809 81.436639 
L 77.524382 81.282082 
L 76.363954 81.129694 
L 75.203526 80.99882 
L 74.043098 80.826772 
L 72.88267 80.679005 
L 71.722243 80.492458 
L 70.561815 80.339323 
L 69.401387 80.181714 
L 68.240959 79.965727 
L 67.080531 79.715993 
L 65.920104 79.524575 
L 64.759676 79.264648 
L 63.599248 78.965104 
L 62.43882 78.691737 
L 61.278392 78.411378 
L 60.117965 78.093627 
L 58.957537 77.653058 
L 57.797109 77.155746 
L 56.636681 76.573305 
L 55.476253 76.144688 
L 54.315826 75.367174 
L 53.155398 74.002414 
z
" style="fill:#00b945;fill-opacity:0.15;"/>
   </g>
   <g id="PolyCollection_4">
    <path clip-path="url(#p4b837da15c)" d="M 53.155398 101.046303 
L 53.155398 123.444345 
L 54.315826 133.032177 
L 55.476253 139.235075 
L 56.636681 143.073329 
L 57.797109 146.401143 
L 58.957537 149.382209 
L 60.117965 151.83434 
L 61.278392 154.277931 
L 62.43882 158.763952 
L 63.599248 162.359733 
L 64.759676 166.055524 
L 65.920104 168.164552 
L 67.080531 170.409639 
L 68.240959 175.42979 
L 69.401387 177.094361 
L 70.561815 180.164067 
L 71.722243 182.110262 
L 72.88267 184.613574 
L 74.043098 186.805514 
L 75.203526 187.909132 
L 76.363954 189.482275 
L 77.524382 191.39714 
L 78.684809 192.457009 
L 79.845237 195.791725 
L 81.005665 196.893509 
L 82.166093 198.363619 
L 83.326521 200.150182 
L 84.486949 201.847689 
L 85.647376 204.567117 
L 86.807804 206.752636 
L 87.968232 207.340939 
L 89.12866 209.430717 
L 90.289088 212.629933 
L 91.449515 214.142401 
L 92.609943 216.892388 
L 93.770371 219.386421 
L 94.930799 222.122601 
L 96.091227 223.632826 
L 97.251654 224.483892 
L 98.412082 226.194771 
L 99.57251 227.511314 
L 100.732938 228.412827 
L 101.893366 231.854688 
L 103.053793 232.878869 
L 104.214221 234.239895 
L 105.374649 235.468811 
L 106.535077 237.11757 
L 107.695505 238.017091 
L 108.855932 239.884795 
L 110.01636 241.265659 
L 111.176788 242.889838 
L 112.337216 243.750264 
L 113.497644 246.006077 
L 114.658072 246.89143 
L 115.818499 247.617679 
L 116.978927 248.605811 
L 118.139355 252.907435 
L 119.299783 254.289478 
L 120.460211 254.847408 
L 121.620638 255.657982 
L 122.781066 261.487948 
L 123.941494 262.952368 
L 125.101922 264.09015 
L 126.26235 265.619993 
L 127.422777 266.83251 
L 128.583205 268.368358 
L 129.743633 269.741233 
L 130.904061 270.373282 
L 132.064489 272.638564 
L 133.224916 274.619167 
L 134.385344 275.54168 
L 135.545772 276.642429 
L 136.7062 280.367513 
L 137.866628 284.053075 
L 139.027055 284.950154 
L 140.187483 285.684587 
L 141.347911 287.687209 
L 142.508339 288.227508 
L 143.668767 288.793658 
L 144.829195 289.133033 
L 145.989622 291.694325 
L 147.15005 292.577494 
L 148.310478 293.592304 
L 149.470906 294.560744 
L 150.631334 303.207407 
L 151.791761 304.230184 
L 152.952189 304.943353 
L 154.112617 306.034996 
L 155.273045 306.875506 
L 156.433473 308.408453 
L 157.5939 310.662702 
L 158.754328 312.307756 
L 159.914756 314.711365 
L 161.075184 323.932422 
L 162.235612 326.403224 
L 163.396039 328.062877 
L 164.556467 329.967336 
L 165.716895 332.556854 
L 166.877323 334.075971 
L 168.037751 334.734617 
L 169.198178 336.415035 
L 170.358606 337.609437 
L 171.519034 338.753167 
L 172.679462 340.130521 
L 173.83989 341.673701 
L 175.000318 345.52004 
L 176.160745 346.587764 
L 177.321173 348.138583 
L 178.481601 350.328637 
L 179.642029 354.846866 
L 180.802457 357.582555 
L 181.962884 358.322978 
L 183.123312 360.521582 
L 184.28374 362.332769 
L 185.444168 363.754791 
L 186.604596 366.29111 
L 187.765023 369.020169 
L 188.925451 371.668494 
L 190.085879 373.103412 
L 191.246307 376.088705 
L 192.406735 377.736898 
L 193.567162 378.82366 
L 194.72759 380.073085 
L 195.888018 381.512499 
L 197.048446 383.88886 
L 198.208874 385.42187 
L 199.369301 386.937967 
L 200.529729 388.226419 
L 201.690157 390.546013 
L 202.850585 393.193587 
L 204.011013 395.681184 
L 205.171441 400.610284 
L 206.331868 403.427899 
L 207.492296 404.447747 
L 208.652724 405.372556 
L 209.813152 405.651453 
L 210.97358 406.734136 
L 212.134007 408.499012 
L 213.294435 410.007369 
L 214.454863 414.530257 
L 215.615291 422.689987 
L 216.775719 425.890732 
L 217.936146 426.562333 
L 219.096574 427.793005 
L 220.257002 430.650621 
L 221.41743 433.790201 
L 222.577858 434.343629 
L 223.738285 435.818275 
L 224.898713 437.057184 
L 226.059141 437.470099 
L 227.219569 447.346684 
L 228.379997 490.225271 
L 229.540424 501.445978 
L 230.700852 525.444486 
L 230.700852 337.552568 
L 230.700852 337.552568 
L 229.540424 327.094594 
L 228.379997 314.887369 
L 227.219569 306.827472 
L 226.059141 301.816174 
L 224.898713 290.122034 
L 223.738285 285.14836 
L 222.577858 280.980665 
L 221.41743 277.858479 
L 220.257002 275.067528 
L 219.096574 272.650805 
L 217.936146 268.745751 
L 216.775719 263.187438 
L 215.615291 261.580499 
L 214.454863 258.57631 
L 213.294435 257.235975 
L 212.134007 255.538937 
L 210.97358 252.796695 
L 209.813152 250.017712 
L 208.652724 248.635226 
L 207.492296 245.987417 
L 206.331868 244.724977 
L 205.171441 242.701955 
L 204.011013 239.8322 
L 202.850585 238.38866 
L 201.690157 237.304307 
L 200.529729 235.054992 
L 199.369301 233.859433 
L 198.208874 231.55694 
L 197.048446 229.585819 
L 195.888018 227.940953 
L 194.72759 226.735392 
L 193.567162 225.249728 
L 192.406735 223.560475 
L 191.246307 222.578792 
L 190.085879 221.342067 
L 188.925451 217.526293 
L 187.765023 216.259883 
L 186.604596 215.628669 
L 185.444168 214.731523 
L 184.28374 213.889071 
L 183.123312 212.87992 
L 181.962884 211.498699 
L 180.802457 210.126989 
L 179.642029 209.017568 
L 178.481601 207.764146 
L 177.321173 206.825111 
L 176.160745 205.327457 
L 175.000318 201.633306 
L 173.83989 200.937406 
L 172.679462 199.830819 
L 171.519034 197.361727 
L 170.358606 195.380719 
L 169.198178 193.848746 
L 168.037751 193.174424 
L 166.877323 192.183519 
L 165.716895 190.951468 
L 164.556467 190.133379 
L 163.396039 189.10698 
L 162.235612 188.321765 
L 161.075184 186.201577 
L 159.914756 185.460418 
L 158.754328 184.858203 
L 157.5939 183.722942 
L 156.433473 183.023469 
L 155.273045 181.947804 
L 154.112617 180.378214 
L 152.952189 179.049786 
L 151.791761 178.655109 
L 150.631334 177.918289 
L 149.470906 177.124113 
L 148.310478 176.27556 
L 147.15005 175.302035 
L 145.989622 174.431886 
L 144.829195 173.463336 
L 143.668767 170.864971 
L 142.508339 169.598467 
L 141.347911 168.421824 
L 140.187483 166.997276 
L 139.027055 166.220506 
L 137.866628 164.523434 
L 136.7062 163.746447 
L 135.545772 163.066037 
L 134.385344 162.064544 
L 133.224916 161.421349 
L 132.064489 160.536461 
L 130.904061 159.89375 
L 129.743633 158.626595 
L 128.583205 157.250768 
L 127.422777 156.199901 
L 126.26235 154.964118 
L 125.101922 153.950991 
L 123.941494 153.011787 
L 122.781066 152.027781 
L 121.620638 151.276454 
L 120.460211 150.557073 
L 119.299783 149.216303 
L 118.139355 148.671086 
L 116.978927 147.600148 
L 115.818499 146.826287 
L 114.658072 145.992737 
L 113.497644 145.522236 
L 112.337216 144.791567 
L 111.176788 143.989138 
L 110.01636 143.42524 
L 108.855932 142.516662 
L 107.695505 141.925976 
L 106.535077 141.341423 
L 105.374649 140.322223 
L 104.214221 139.553946 
L 103.053793 138.82596 
L 101.893366 138.227849 
L 100.732938 137.609036 
L 99.57251 136.737968 
L 98.412082 135.922267 
L 97.251654 135.34701 
L 96.091227 134.709798 
L 94.930799 134.006371 
L 93.770371 133.057258 
L 92.609943 132.524721 
L 91.449515 131.83334 
L 90.289088 130.98712 
L 89.12866 130.250452 
L 87.968232 129.579818 
L 86.807804 128.852943 
L 85.647376 128.219404 
L 84.486949 127.257609 
L 83.326521 126.711893 
L 82.166093 126.092418 
L 81.005665 125.265848 
L 79.845237 124.621576 
L 78.684809 123.842125 
L 77.524382 123.082799 
L 76.363954 122.250189 
L 75.203526 121.367022 
L 74.043098 120.711822 
L 72.88267 120.110962 
L 71.722243 119.380989 
L 70.561815 118.684829 
L 69.401387 117.75437 
L 68.240959 117.0165 
L 67.080531 116.129427 
L 65.920104 115.377833 
L 64.759676 114.597539 
L 63.599248 113.796682 
L 62.43882 112.754136 
L 61.278392 111.910903 
L 60.117965 110.694418 
L 58.957537 109.642912 
L 57.797109 108.256404 
L 56.636681 107.149637 
L 55.476253 105.599642 
L 54.315826 103.720897 
L 53.155398 101.046303 
z
" style="fill:#ff2c00;fill-opacity:0.15;"/>
   </g>
   <g id="PolyCollection_5">
    <path clip-path="url(#p4b837da15c)" d="M 53.155398 50.615493 
L 53.155398 53.621382 
L 54.315826 54.759165 
L 55.476253 55.315733 
L 56.636681 55.779385 
L 57.797109 56.295822 
L 58.957537 56.684065 
L 60.117965 57.039018 
L 61.278392 57.361357 
L 62.43882 57.703433 
L 63.599248 58.038575 
L 64.759676 58.386732 
L 65.920104 58.674138 
L 67.080531 58.928628 
L 68.240959 59.234014 
L 69.401387 59.456916 
L 70.561815 59.75871 
L 71.722243 60.009548 
L 72.88267 60.262755 
L 74.043098 60.506393 
L 75.203526 60.803358 
L 76.363954 61.044481 
L 77.524382 61.304392 
L 78.684809 61.613987 
L 79.845237 61.842083 
L 81.005665 62.125578 
L 82.166093 62.358713 
L 83.326521 62.556218 
L 84.486949 62.800518 
L 85.647376 62.999954 
L 86.807804 63.233828 
L 87.968232 63.462049 
L 89.12866 63.710336 
L 90.289088 63.959066 
L 91.449515 64.163931 
L 92.609943 64.37403 
L 93.770371 64.561563 
L 94.930799 64.750148 
L 96.091227 64.950687 
L 97.251654 65.137671 
L 98.412082 65.495844 
L 99.57251 65.6476 
L 100.732938 65.886339 
L 101.893366 66.144612 
L 103.053793 66.359733 
L 104.214221 66.606083 
L 105.374649 66.775658 
L 106.535077 66.976776 
L 107.695505 67.198833 
L 108.855932 67.466999 
L 110.01636 67.608715 
L 111.176788 67.865711 
L 112.337216 68.125548 
L 113.497644 68.291313 
L 114.658072 68.484121 
L 115.818499 68.681345 
L 116.978927 68.857959 
L 118.139355 69.055647 
L 119.299783 69.284786 
L 120.460211 69.492227 
L 121.620638 69.686636 
L 122.781066 69.897655 
L 123.941494 70.101245 
L 125.101922 70.343846 
L 126.26235 70.565632 
L 127.422777 70.743728 
L 128.583205 70.9916 
L 129.743633 71.209739 
L 130.904061 71.369416 
L 132.064489 71.5405 
L 133.224916 71.713551 
L 134.385344 71.933725 
L 135.545772 72.164116 
L 136.7062 72.326853 
L 137.866628 72.542367 
L 139.027055 72.702963 
L 140.187483 72.88065 
L 141.347911 73.063605 
L 142.508339 73.228153 
L 143.668767 73.398778 
L 144.829195 73.579329 
L 145.989622 73.725885 
L 147.15005 73.89383 
L 148.310478 74.102888 
L 149.470906 74.285246 
L 150.631334 74.487994 
L 151.791761 74.727312 
L 152.952189 74.900966 
L 154.112617 75.11652 
L 155.273045 75.323457 
L 156.433473 75.459208 
L 157.5939 75.646967 
L 158.754328 75.786112 
L 159.914756 75.971893 
L 161.075184 76.160618 
L 162.235612 76.298214 
L 163.396039 76.469943 
L 164.556467 76.657914 
L 165.716895 76.78354 
L 166.877323 76.958715 
L 168.037751 77.14807 
L 169.198178 77.317088 
L 170.358606 77.558189 
L 171.519034 77.70843 
L 172.679462 77.924249 
L 173.83989 78.108491 
L 175.000318 78.359608 
L 176.160745 78.56483 
L 177.321173 78.741175 
L 178.481601 79.002706 
L 179.642029 79.214067 
L 180.802457 79.398178 
L 181.962884 79.582998 
L 183.123312 79.862553 
L 184.28374 80.116175 
L 185.444168 80.330795 
L 186.604596 80.684121 
L 187.765023 80.949242 
L 188.925451 81.219872 
L 190.085879 81.467669 
L 191.246307 81.761769 
L 192.406735 82.099303 
L 193.567162 82.334422 
L 194.72759 82.70093 
L 195.888018 82.895455 
L 197.048446 83.269979 
L 198.208874 83.576339 
L 199.369301 83.80415 
L 200.529729 84.117505 
L 201.690157 84.38965 
L 202.850585 84.789591 
L 204.011013 85.053235 
L 205.171441 85.420219 
L 206.331868 85.782385 
L 207.492296 86.177278 
L 208.652724 86.471577 
L 209.813152 86.912177 
L 210.97358 87.488028 
L 212.134007 88.038963 
L 213.294435 88.597276 
L 214.454863 89.029852 
L 215.615291 89.42816 
L 216.775719 90.049817 
L 217.936146 90.627489 
L 219.096574 91.27363 
L 220.257002 92.03414 
L 221.41743 92.939653 
L 222.577858 94.047867 
L 223.738285 95.360504 
L 224.898713 97.161779 
L 226.059141 98.987396 
L 227.219569 101.812525 
L 228.379997 105.569909 
L 229.540424 109.728757 
L 230.700852 115.933605 
L 230.700852 108.101193 
L 230.700852 108.101193 
L 229.540424 103.163394 
L 228.379997 100.078653 
L 227.219569 97.176223 
L 226.059141 95.015357 
L 224.898713 93.416892 
L 223.738285 91.978335 
L 222.577858 90.644361 
L 221.41743 90.055413 
L 220.257002 89.462786 
L 219.096574 88.664244 
L 217.936146 88.033329 
L 216.775719 87.562054 
L 215.615291 87.076223 
L 214.454863 86.549246 
L 213.294435 86.122934 
L 212.134007 85.58871 
L 210.97358 85.061717 
L 209.813152 84.701095 
L 208.652724 84.209796 
L 207.492296 83.850935 
L 206.331868 83.574516 
L 205.171441 83.289647 
L 204.011013 82.968615 
L 202.850585 82.658022 
L 201.690157 82.314794 
L 200.529729 81.985695 
L 199.369301 81.661253 
L 198.208874 81.379756 
L 197.048446 81.111991 
L 195.888018 80.836954 
L 194.72759 80.605987 
L 193.567162 80.259612 
L 192.406735 79.906161 
L 191.246307 79.639851 
L 190.085879 79.373349 
L 188.925451 79.125987 
L 187.765023 78.866695 
L 186.604596 78.62213 
L 185.444168 78.354793 
L 184.28374 78.02337 
L 183.123312 77.753044 
L 181.962884 77.513207 
L 180.802457 77.209502 
L 179.642029 77.011147 
L 178.481601 76.798553 
L 177.321173 76.574626 
L 176.160745 76.389956 
L 175.000318 76.165414 
L 173.83989 75.952013 
L 172.679462 75.671549 
L 171.519034 75.520069 
L 170.358606 75.275878 
L 169.198178 75.066357 
L 168.037751 74.896895 
L 166.877323 74.738738 
L 165.716895 74.58242 
L 164.556467 74.438557 
L 163.396039 74.278709 
L 162.235612 74.094215 
L 161.075184 73.916551 
L 159.914756 73.754834 
L 158.754328 73.551861 
L 157.5939 73.369893 
L 156.433473 73.168491 
L 155.273045 73.003801 
L 154.112617 72.831838 
L 152.952189 72.658034 
L 151.791761 72.475912 
L 150.631334 72.291797 
L 149.470906 72.058283 
L 148.310478 71.852107 
L 147.15005 71.665975 
L 145.989622 71.505848 
L 144.829195 71.330324 
L 143.668767 71.129893 
L 142.508339 70.938004 
L 141.347911 70.769642 
L 140.187483 70.521058 
L 139.027055 70.36248 
L 137.866628 70.179886 
L 136.7062 70.002512 
L 135.545772 69.800052 
L 134.385344 69.593793 
L 133.224916 69.43121 
L 132.064489 69.270285 
L 130.904061 69.065466 
L 129.743633 68.893387 
L 128.583205 68.58252 
L 127.422777 68.327398 
L 126.26235 68.168193 
L 125.101922 67.987644 
L 123.941494 67.762856 
L 122.781066 67.473373 
L 121.620638 67.216755 
L 120.460211 67.07589 
L 119.299783 66.886387 
L 118.139355 66.642315 
L 116.978927 66.400336 
L 115.818499 66.203982 
L 114.658072 66.053226 
L 113.497644 65.870054 
L 112.337216 65.653435 
L 111.176788 65.422209 
L 110.01636 65.239206 
L 108.855932 64.991251 
L 107.695505 64.74972 
L 106.535077 64.548499 
L 105.374649 64.368619 
L 104.214221 64.153979 
L 103.053793 63.905455 
L 101.893366 63.729381 
L 100.732938 63.481184 
L 99.57251 63.233182 
L 98.412082 63.0303 
L 97.251654 62.746835 
L 96.091227 62.55608 
L 94.930799 62.38857 
L 93.770371 62.122006 
L 92.609943 61.926763 
L 91.449515 61.710647 
L 90.289088 61.48218 
L 89.12866 61.244217 
L 87.968232 61.018201 
L 86.807804 60.720967 
L 85.647376 60.502547 
L 84.486949 60.298366 
L 83.326521 60.088078 
L 82.166093 59.916919 
L 81.005665 59.627224 
L 79.845237 59.297037 
L 78.684809 59.110249 
L 77.524382 58.852853 
L 76.363954 58.579748 
L 75.203526 58.298061 
L 74.043098 58.012542 
L 72.88267 57.753605 
L 71.722243 57.477978 
L 70.561815 57.216551 
L 69.401387 56.953452 
L 68.240959 56.619137 
L 67.080531 56.313411 
L 65.920104 56.057713 
L 64.759676 55.763855 
L 63.599248 55.401471 
L 62.43882 55.085853 
L 61.278392 54.710568 
L 60.117965 54.354252 
L 58.957537 53.970823 
L 57.797109 53.560367 
L 56.636681 53.064664 
L 55.476253 52.505754 
L 54.315826 51.911005 
L 53.155398 50.615493 
z
" style="fill:#845b97;fill-opacity:0.15;"/>
   </g>
   <g id="matplotlib.axis_1">
    <g id="xtick_1">
     <g id="line2d_1">
      <defs>
       <path d="M 0 0 
L 0 -3 
" id="m8ffdaf04a6" style="stroke:#000000;stroke-width:0.5;"/>
      </defs>
      <g>
       <use style="stroke:#000000;stroke-width:0.5;" x="53.155398" xlink:href="#m8ffdaf04a6" y="150.094219"/>
      </g>
     </g>
     <g id="line2d_2">
      <defs>
       <path d="M 0 0 
L 0 3 
" id="m600f3f416c" style="stroke:#000000;stroke-width:0.5;"/>
      </defs>
      <g>
       <use style="stroke:#000000;stroke-width:0.5;" x="53.155398" xlink:href="#m600f3f416c" y="7.399219"/>
      </g>
     </g>
     <g id="text_1">
      <!-- 0 -->
      <g transform="translate(49.974148 161.192656)scale(0.1 -0.1)">
       <defs>
        <path d="M 2034 4250 
Q 1547 4250 1301 3770 
Q 1056 3291 1056 2328 
Q 1056 1369 1301 889 
Q 1547 409 2034 409 
Q 2525 409 2770 889 
Q 3016 1369 3016 2328 
Q 3016 3291 2770 3770 
Q 2525 4250 2034 4250 
z
M 2034 4750 
Q 2819 4750 3233 4129 
Q 3647 3509 3647 2328 
Q 3647 1150 3233 529 
Q 2819 -91 2034 -91 
Q 1250 -91 836 529 
Q 422 1150 422 2328 
Q 422 3509 836 4129 
Q 1250 4750 2034 4750 
z
" id="DejaVuSans-30" transform="scale(0.015625)"/>
       </defs>
       <use xlink:href="#DejaVuSans-30"/>
      </g>
     </g>
    </g>
    <g id="xtick_2">
     <g id="line2d_3">
      <g>
       <use style="stroke:#000000;stroke-width:0.5;" x="111.176788" xlink:href="#m8ffdaf04a6" y="150.094219"/>
      </g>
     </g>
     <g id="line2d_4">
      <g>
       <use style="stroke:#000000;stroke-width:0.5;" x="111.176788" xlink:href="#m600f3f416c" y="7.399219"/>
      </g>
     </g>
     <g id="text_2">
      <!-- 50 -->
      <g transform="translate(104.814288 161.192656)scale(0.1 -0.1)">
       <defs>
        <path d="M 691 4666 
L 3169 4666 
L 3169 4134 
L 1269 4134 
L 1269 2991 
Q 1406 3038 1543 3061 
Q 1681 3084 1819 3084 
Q 2600 3084 3056 2656 
Q 3513 2228 3513 1497 
Q 3513 744 3044 326 
Q 2575 -91 1722 -91 
Q 1428 -91 1123 -41 
Q 819 9 494 109 
L 494 744 
Q 775 591 1075 516 
Q 1375 441 1709 441 
Q 2250 441 2565 725 
Q 2881 1009 2881 1497 
Q 2881 1984 2565 2268 
Q 2250 2553 1709 2553 
Q 1456 2553 1204 2497 
Q 953 2441 691 2322 
L 691 4666 
z
" id="DejaVuSans-35" transform="scale(0.015625)"/>
       </defs>
       <use xlink:href="#DejaVuSans-35"/>
       <use x="63.623047" xlink:href="#DejaVuSans-30"/>
      </g>
     </g>
    </g>
    <g id="xtick_3">
     <g id="line2d_5">
      <g>
       <use style="stroke:#000000;stroke-width:0.5;" x="169.198178" xlink:href="#m8ffdaf04a6" y="150.094219"/>
      </g>
     </g>
     <g id="line2d_6">
      <g>
       <use style="stroke:#000000;stroke-width:0.5;" x="169.198178" xlink:href="#m600f3f416c" y="7.399219"/>
      </g>
     </g>
     <g id="text_3">
      <!-- 100 -->
      <g transform="translate(159.654428 161.192656)scale(0.1 -0.1)">
       <defs>
        <path d="M 794 531 
L 1825 531 
L 1825 4091 
L 703 3866 
L 703 4441 
L 1819 4666 
L 2450 4666 
L 2450 531 
L 3481 531 
L 3481 0 
L 794 0 
L 794 531 
z
" id="DejaVuSans-31" transform="scale(0.015625)"/>
       </defs>
       <use xlink:href="#DejaVuSans-31"/>
       <use x="63.623047" xlink:href="#DejaVuSans-30"/>
       <use x="127.246094" xlink:href="#DejaVuSans-30"/>
      </g>
     </g>
    </g>
    <g id="xtick_4">
     <g id="line2d_7">
      <g>
       <use style="stroke:#000000;stroke-width:0.5;" x="227.219569" xlink:href="#m8ffdaf04a6" y="150.094219"/>
      </g>
     </g>
     <g id="line2d_8">
      <g>
       <use style="stroke:#000000;stroke-width:0.5;" x="227.219569" xlink:href="#m600f3f416c" y="7.399219"/>
      </g>
     </g>
     <g id="text_4">
      <!-- 150 -->
      <g transform="translate(217.675819 161.192656)scale(0.1 -0.1)">
       <use xlink:href="#DejaVuSans-31"/>
       <use x="63.623047" xlink:href="#DejaVuSans-35"/>
       <use x="127.246094" xlink:href="#DejaVuSans-30"/>
      </g>
     </g>
    </g>
    <g id="xtick_5">
     <g id="line2d_9">
      <defs>
       <path d="M 0 0 
L 0 -1.5 
" id="mb80dd5bee6" style="stroke:#000000;stroke-width:0.5;"/>
      </defs>
      <g>
       <use style="stroke:#000000;stroke-width:0.5;" x="64.759676" xlink:href="#mb80dd5bee6" y="150.094219"/>
      </g>
     </g>
     <g id="line2d_10">
      <defs>
       <path d="M 0 0 
L 0 1.5 
" id="m217063b3b0" style="stroke:#000000;stroke-width:0.5;"/>
      </defs>
      <g>
       <use style="stroke:#000000;stroke-width:0.5;" x="64.759676" xlink:href="#m217063b3b0" y="7.399219"/>
      </g>
     </g>
    </g>
    <g id="xtick_6">
     <g id="line2d_11">
      <g>
       <use style="stroke:#000000;stroke-width:0.5;" x="76.363954" xlink:href="#mb80dd5bee6" y="150.094219"/>
      </g>
     </g>
     <g id="line2d_12">
      <g>
       <use style="stroke:#000000;stroke-width:0.5;" x="76.363954" xlink:href="#m217063b3b0" y="7.399219"/>
      </g>
     </g>
    </g>
    <g id="xtick_7">
     <g id="line2d_13">
      <g>
       <use style="stroke:#000000;stroke-width:0.5;" x="87.968232" xlink:href="#mb80dd5bee6" y="150.094219"/>
      </g>
     </g>
     <g id="line2d_14">
      <g>
       <use style="stroke:#000000;stroke-width:0.5;" x="87.968232" xlink:href="#m217063b3b0" y="7.399219"/>
      </g>
     </g>
    </g>
    <g id="xtick_8">
     <g id="line2d_15">
      <g>
       <use style="stroke:#000000;stroke-width:0.5;" x="99.57251" xlink:href="#mb80dd5bee6" y="150.094219"/>
      </g>
     </g>
     <g id="line2d_16">
      <g>
       <use style="stroke:#000000;stroke-width:0.5;" x="99.57251" xlink:href="#m217063b3b0" y="7.399219"/>
      </g>
     </g>
    </g>
    <g id="xtick_9">
     <g id="line2d_17">
      <g>
       <use style="stroke:#000000;stroke-width:0.5;" x="122.781066" xlink:href="#mb80dd5bee6" y="150.094219"/>
      </g>
     </g>
     <g id="line2d_18">
      <g>
       <use style="stroke:#000000;stroke-width:0.5;" x="122.781066" xlink:href="#m217063b3b0" y="7.399219"/>
      </g>
     </g>
    </g>
    <g id="xtick_10">
     <g id="line2d_19">
      <g>
       <use style="stroke:#000000;stroke-width:0.5;" x="134.385344" xlink:href="#mb80dd5bee6" y="150.094219"/>
      </g>
     </g>
     <g id="line2d_20">
      <g>
       <use style="stroke:#000000;stroke-width:0.5;" x="134.385344" xlink:href="#m217063b3b0" y="7.399219"/>
      </g>
     </g>
    </g>
    <g id="xtick_11">
     <g id="line2d_21">
      <g>
       <use style="stroke:#000000;stroke-width:0.5;" x="145.989622" xlink:href="#mb80dd5bee6" y="150.094219"/>
      </g>
     </g>
     <g id="line2d_22">
      <g>
       <use style="stroke:#000000;stroke-width:0.5;" x="145.989622" xlink:href="#m217063b3b0" y="7.399219"/>
      </g>
     </g>
    </g>
    <g id="xtick_12">
     <g id="line2d_23">
      <g>
       <use style="stroke:#000000;stroke-width:0.5;" x="157.5939" xlink:href="#mb80dd5bee6" y="150.094219"/>
      </g>
     </g>
     <g id="line2d_24">
      <g>
       <use style="stroke:#000000;stroke-width:0.5;" x="157.5939" xlink:href="#m217063b3b0" y="7.399219"/>
      </g>
     </g>
    </g>
    <g id="xtick_13">
     <g id="line2d_25">
      <g>
       <use style="stroke:#000000;stroke-width:0.5;" x="180.802457" xlink:href="#mb80dd5bee6" y="150.094219"/>
      </g>
     </g>
     <g id="line2d_26">
      <g>
       <use style="stroke:#000000;stroke-width:0.5;" x="180.802457" xlink:href="#m217063b3b0" y="7.399219"/>
      </g>
     </g>
    </g>
    <g id="xtick_14">
     <g id="line2d_27">
      <g>
       <use style="stroke:#000000;stroke-width:0.5;" x="192.406735" xlink:href="#mb80dd5bee6" y="150.094219"/>
      </g>
     </g>
     <g id="line2d_28">
      <g>
       <use style="stroke:#000000;stroke-width:0.5;" x="192.406735" xlink:href="#m217063b3b0" y="7.399219"/>
      </g>
     </g>
    </g>
    <g id="xtick_15">
     <g id="line2d_29">
      <g>
       <use style="stroke:#000000;stroke-width:0.5;" x="204.011013" xlink:href="#mb80dd5bee6" y="150.094219"/>
      </g>
     </g>
     <g id="line2d_30">
      <g>
       <use style="stroke:#000000;stroke-width:0.5;" x="204.011013" xlink:href="#m217063b3b0" y="7.399219"/>
      </g>
     </g>
    </g>
    <g id="xtick_16">
     <g id="line2d_31">
      <g>
       <use style="stroke:#000000;stroke-width:0.5;" x="215.615291" xlink:href="#mb80dd5bee6" y="150.094219"/>
      </g>
     </g>
     <g id="line2d_32">
      <g>
       <use style="stroke:#000000;stroke-width:0.5;" x="215.615291" xlink:href="#m217063b3b0" y="7.399219"/>
      </g>
     </g>
    </g>
    <g id="xtick_17">
     <g id="line2d_33">
      <g>
       <use style="stroke:#000000;stroke-width:0.5;" x="238.823847" xlink:href="#mb80dd5bee6" y="150.094219"/>
      </g>
     </g>
     <g id="line2d_34">
      <g>
       <use style="stroke:#000000;stroke-width:0.5;" x="238.823847" xlink:href="#m217063b3b0" y="7.399219"/>
      </g>
     </g>
    </g>
    <g id="text_5">
     <!-- # Magnets -->
     <g transform="translate(114.786719 174.870781)scale(0.1 -0.1)">
      <defs>
       <path d="M 3272 2816 
L 2363 2816 
L 2100 1772 
L 3016 1772 
L 3272 2816 
z
M 2803 4594 
L 2478 3297 
L 3391 3297 
L 3719 4594 
L 4219 4594 
L 3897 3297 
L 4872 3297 
L 4872 2816 
L 3775 2816 
L 3519 1772 
L 4513 1772 
L 4513 1294 
L 3397 1294 
L 3072 0 
L 2572 0 
L 2894 1294 
L 1978 1294 
L 1656 0 
L 1153 0 
L 1478 1294 
L 494 1294 
L 494 1772 
L 1594 1772 
L 1856 2816 
L 850 2816 
L 850 3297 
L 1978 3297 
L 2297 4594 
L 2803 4594 
z
" id="DejaVuSans-23" transform="scale(0.015625)"/>
       <path id="DejaVuSans-20" transform="scale(0.015625)"/>
       <path d="M 628 4666 
L 1569 4666 
L 2759 1491 
L 3956 4666 
L 4897 4666 
L 4897 0 
L 4281 0 
L 4281 4097 
L 3078 897 
L 2444 897 
L 1241 4097 
L 1241 0 
L 628 0 
L 628 4666 
z
" id="DejaVuSans-4d" transform="scale(0.015625)"/>
       <path d="M 2194 1759 
Q 1497 1759 1228 1600 
Q 959 1441 959 1056 
Q 959 750 1161 570 
Q 1363 391 1709 391 
Q 2188 391 2477 730 
Q 2766 1069 2766 1631 
L 2766 1759 
L 2194 1759 
z
M 3341 1997 
L 3341 0 
L 2766 0 
L 2766 531 
Q 2569 213 2275 61 
Q 1981 -91 1556 -91 
Q 1019 -91 701 211 
Q 384 513 384 1019 
Q 384 1609 779 1909 
Q 1175 2209 1959 2209 
L 2766 2209 
L 2766 2266 
Q 2766 2663 2505 2880 
Q 2244 3097 1772 3097 
Q 1472 3097 1187 3025 
Q 903 2953 641 2809 
L 641 3341 
Q 956 3463 1253 3523 
Q 1550 3584 1831 3584 
Q 2591 3584 2966 3190 
Q 3341 2797 3341 1997 
z
" id="DejaVuSans-61" transform="scale(0.015625)"/>
       <path d="M 2906 1791 
Q 2906 2416 2648 2759 
Q 2391 3103 1925 3103 
Q 1463 3103 1205 2759 
Q 947 2416 947 1791 
Q 947 1169 1205 825 
Q 1463 481 1925 481 
Q 2391 481 2648 825 
Q 2906 1169 2906 1791 
z
M 3481 434 
Q 3481 -459 3084 -895 
Q 2688 -1331 1869 -1331 
Q 1566 -1331 1297 -1286 
Q 1028 -1241 775 -1147 
L 775 -588 
Q 1028 -725 1275 -790 
Q 1522 -856 1778 -856 
Q 2344 -856 2625 -561 
Q 2906 -266 2906 331 
L 2906 616 
Q 2728 306 2450 153 
Q 2172 0 1784 0 
Q 1141 0 747 490 
Q 353 981 353 1791 
Q 353 2603 747 3093 
Q 1141 3584 1784 3584 
Q 2172 3584 2450 3431 
Q 2728 3278 2906 2969 
L 2906 3500 
L 3481 3500 
L 3481 434 
z
" id="DejaVuSans-67" transform="scale(0.015625)"/>
       <path d="M 3513 2113 
L 3513 0 
L 2938 0 
L 2938 2094 
Q 2938 2591 2744 2837 
Q 2550 3084 2163 3084 
Q 1697 3084 1428 2787 
Q 1159 2491 1159 1978 
L 1159 0 
L 581 0 
L 581 3500 
L 1159 3500 
L 1159 2956 
Q 1366 3272 1645 3428 
Q 1925 3584 2291 3584 
Q 2894 3584 3203 3211 
Q 3513 2838 3513 2113 
z
" id="DejaVuSans-6e" transform="scale(0.015625)"/>
       <path d="M 3597 1894 
L 3597 1613 
L 953 1613 
Q 991 1019 1311 708 
Q 1631 397 2203 397 
Q 2534 397 2845 478 
Q 3156 559 3463 722 
L 3463 178 
Q 3153 47 2828 -22 
Q 2503 -91 2169 -91 
Q 1331 -91 842 396 
Q 353 884 353 1716 
Q 353 2575 817 3079 
Q 1281 3584 2069 3584 
Q 2775 3584 3186 3129 
Q 3597 2675 3597 1894 
z
M 3022 2063 
Q 3016 2534 2758 2815 
Q 2500 3097 2075 3097 
Q 1594 3097 1305 2825 
Q 1016 2553 972 2059 
L 3022 2063 
z
" id="DejaVuSans-65" transform="scale(0.015625)"/>
       <path d="M 1172 4494 
L 1172 3500 
L 2356 3500 
L 2356 3053 
L 1172 3053 
L 1172 1153 
Q 1172 725 1289 603 
Q 1406 481 1766 481 
L 2356 481 
L 2356 0 
L 1766 0 
Q 1100 0 847 248 
Q 594 497 594 1153 
L 594 3053 
L 172 3053 
L 172 3500 
L 594 3500 
L 594 4494 
L 1172 4494 
z
" id="DejaVuSans-74" transform="scale(0.015625)"/>
       <path d="M 2834 3397 
L 2834 2853 
Q 2591 2978 2328 3040 
Q 2066 3103 1784 3103 
Q 1356 3103 1142 2972 
Q 928 2841 928 2578 
Q 928 2378 1081 2264 
Q 1234 2150 1697 2047 
L 1894 2003 
Q 2506 1872 2764 1633 
Q 3022 1394 3022 966 
Q 3022 478 2636 193 
Q 2250 -91 1575 -91 
Q 1294 -91 989 -36 
Q 684 19 347 128 
L 347 722 
Q 666 556 975 473 
Q 1284 391 1588 391 
Q 1994 391 2212 530 
Q 2431 669 2431 922 
Q 2431 1156 2273 1281 
Q 2116 1406 1581 1522 
L 1381 1569 
Q 847 1681 609 1914 
Q 372 2147 372 2553 
Q 372 3047 722 3315 
Q 1072 3584 1716 3584 
Q 2034 3584 2315 3537 
Q 2597 3491 2834 3397 
z
" id="DejaVuSans-73" transform="scale(0.015625)"/>
      </defs>
      <use xlink:href="#DejaVuSans-23"/>
      <use x="83.789062" xlink:href="#DejaVuSans-20"/>
      <use x="115.576172" xlink:href="#DejaVuSans-4d"/>
      <use x="201.855469" xlink:href="#DejaVuSans-61"/>
      <use x="263.134766" xlink:href="#DejaVuSans-67"/>
      <use x="326.611328" xlink:href="#DejaVuSans-6e"/>
      <use x="389.990234" xlink:href="#DejaVuSans-65"/>
      <use x="451.513672" xlink:href="#DejaVuSans-74"/>
      <use x="490.722656" xlink:href="#DejaVuSans-73"/>
     </g>
    </g>
   </g>
   <g id="matplotlib.axis_2">
    <g id="ytick_1">
     <g id="line2d_35">
      <defs>
       <path d="M 0 0 
L 3 0 
" id="m0148825874" style="stroke:#000000;stroke-width:0.5;"/>
      </defs>
      <g>
       <use style="stroke:#000000;stroke-width:0.5;" x="44.278125" xlink:href="#m0148825874" y="150.094219"/>
      </g>
     </g>
     <g id="line2d_36">
      <defs>
       <path d="M 0 0 
L -3 0 
" id="m7201321e46" style="stroke:#000000;stroke-width:0.5;"/>
      </defs>
      <g>
       <use style="stroke:#000000;stroke-width:0.5;" x="239.578125" xlink:href="#m7201321e46" y="150.094219"/>
      </g>
     </g>
     <g id="text_6">
      <!-- $\mathdefault{10^{-6}}$ -->
      <g transform="translate(17.278125 153.893437)scale(0.1 -0.1)">
       <defs>
        <path d="M 678 2272 
L 4684 2272 
L 4684 1741 
L 678 1741 
L 678 2272 
z
" id="DejaVuSans-2212" transform="scale(0.015625)"/>
        <path d="M 2113 2584 
Q 1688 2584 1439 2293 
Q 1191 2003 1191 1497 
Q 1191 994 1439 701 
Q 1688 409 2113 409 
Q 2538 409 2786 701 
Q 3034 994 3034 1497 
Q 3034 2003 2786 2293 
Q 2538 2584 2113 2584 
z
M 3366 4563 
L 3366 3988 
Q 3128 4100 2886 4159 
Q 2644 4219 2406 4219 
Q 1781 4219 1451 3797 
Q 1122 3375 1075 2522 
Q 1259 2794 1537 2939 
Q 1816 3084 2150 3084 
Q 2853 3084 3261 2657 
Q 3669 2231 3669 1497 
Q 3669 778 3244 343 
Q 2819 -91 2113 -91 
Q 1303 -91 875 529 
Q 447 1150 447 2328 
Q 447 3434 972 4092 
Q 1497 4750 2381 4750 
Q 2619 4750 2861 4703 
Q 3103 4656 3366 4563 
z
" id="DejaVuSans-36" transform="scale(0.015625)"/>
       </defs>
       <use transform="translate(0 0.765625)" xlink:href="#DejaVuSans-31"/>
       <use transform="translate(63.623047 0.765625)" xlink:href="#DejaVuSans-30"/>
       <use transform="translate(128.203125 39.046875)scale(0.7)" xlink:href="#DejaVuSans-2212"/>
       <use transform="translate(186.855469 39.046875)scale(0.7)" xlink:href="#DejaVuSans-36"/>
      </g>
     </g>
    </g>
    <g id="ytick_2">
     <g id="line2d_37">
      <g>
       <use style="stroke:#000000;stroke-width:0.5;" x="44.278125" xlink:href="#m0148825874" y="121.555219"/>
      </g>
     </g>
     <g id="line2d_38">
      <g>
       <use style="stroke:#000000;stroke-width:0.5;" x="239.578125" xlink:href="#m7201321e46" y="121.555219"/>
      </g>
     </g>
     <g id="text_7">
      <!-- $\mathdefault{10^{-5}}$ -->
      <g transform="translate(17.278125 125.354437)scale(0.1 -0.1)">
       <use transform="translate(0 0.684375)" xlink:href="#DejaVuSans-31"/>
       <use transform="translate(63.623047 0.684375)" xlink:href="#DejaVuSans-30"/>
       <use transform="translate(128.203125 38.965625)scale(0.7)" xlink:href="#DejaVuSans-2212"/>
       <use transform="translate(186.855469 38.965625)scale(0.7)" xlink:href="#DejaVuSans-35"/>
      </g>
     </g>
    </g>
    <g id="ytick_3">
     <g id="line2d_39">
      <g>
       <use style="stroke:#000000;stroke-width:0.5;" x="44.278125" xlink:href="#m0148825874" y="93.016219"/>
      </g>
     </g>
     <g id="line2d_40">
      <g>
       <use style="stroke:#000000;stroke-width:0.5;" x="239.578125" xlink:href="#m7201321e46" y="93.016219"/>
      </g>
     </g>
     <g id="text_8">
      <!-- $\mathdefault{10^{-4}}$ -->
      <g transform="translate(17.278125 96.815437)scale(0.1 -0.1)">
       <defs>
        <path d="M 2419 4116 
L 825 1625 
L 2419 1625 
L 2419 4116 
z
M 2253 4666 
L 3047 4666 
L 3047 1625 
L 3713 1625 
L 3713 1100 
L 3047 1100 
L 3047 0 
L 2419 0 
L 2419 1100 
L 313 1100 
L 313 1709 
L 2253 4666 
z
" id="DejaVuSans-34" transform="scale(0.015625)"/>
       </defs>
       <use transform="translate(0 0.684375)" xlink:href="#DejaVuSans-31"/>
       <use transform="translate(63.623047 0.684375)" xlink:href="#DejaVuSans-30"/>
       <use transform="translate(128.203125 38.965625)scale(0.7)" xlink:href="#DejaVuSans-2212"/>
       <use transform="translate(186.855469 38.965625)scale(0.7)" xlink:href="#DejaVuSans-34"/>
      </g>
     </g>
    </g>
    <g id="ytick_4">
     <g id="line2d_41">
      <g>
       <use style="stroke:#000000;stroke-width:0.5;" x="44.278125" xlink:href="#m0148825874" y="64.477219"/>
      </g>
     </g>
     <g id="line2d_42">
      <g>
       <use style="stroke:#000000;stroke-width:0.5;" x="239.578125" xlink:href="#m7201321e46" y="64.477219"/>
      </g>
     </g>
     <g id="text_9">
      <!-- $\mathdefault{10^{-3}}$ -->
      <g transform="translate(17.278125 68.276437)scale(0.1 -0.1)">
       <defs>
        <path d="M 2597 2516 
Q 3050 2419 3304 2112 
Q 3559 1806 3559 1356 
Q 3559 666 3084 287 
Q 2609 -91 1734 -91 
Q 1441 -91 1130 -33 
Q 819 25 488 141 
L 488 750 
Q 750 597 1062 519 
Q 1375 441 1716 441 
Q 2309 441 2620 675 
Q 2931 909 2931 1356 
Q 2931 1769 2642 2001 
Q 2353 2234 1838 2234 
L 1294 2234 
L 1294 2753 
L 1863 2753 
Q 2328 2753 2575 2939 
Q 2822 3125 2822 3475 
Q 2822 3834 2567 4026 
Q 2313 4219 1838 4219 
Q 1578 4219 1281 4162 
Q 984 4106 628 3988 
L 628 4550 
Q 988 4650 1302 4700 
Q 1616 4750 1894 4750 
Q 2613 4750 3031 4423 
Q 3450 4097 3450 3541 
Q 3450 3153 3228 2886 
Q 3006 2619 2597 2516 
z
" id="DejaVuSans-33" transform="scale(0.015625)"/>
       </defs>
       <use transform="translate(0 0.765625)" xlink:href="#DejaVuSans-31"/>
       <use transform="translate(63.623047 0.765625)" xlink:href="#DejaVuSans-30"/>
       <use transform="translate(128.203125 39.046875)scale(0.7)" xlink:href="#DejaVuSans-2212"/>
       <use transform="translate(186.855469 39.046875)scale(0.7)" xlink:href="#DejaVuSans-33"/>
      </g>
     </g>
    </g>
    <g id="ytick_5">
     <g id="line2d_43">
      <g>
       <use style="stroke:#000000;stroke-width:0.5;" x="44.278125" xlink:href="#m0148825874" y="35.938219"/>
      </g>
     </g>
     <g id="line2d_44">
      <g>
       <use style="stroke:#000000;stroke-width:0.5;" x="239.578125" xlink:href="#m7201321e46" y="35.938219"/>
      </g>
     </g>
     <g id="text_10">
      <!-- $\mathdefault{10^{-2}}$ -->
      <g transform="translate(17.278125 39.737437)scale(0.1 -0.1)">
       <defs>
        <path d="M 1228 531 
L 3431 531 
L 3431 0 
L 469 0 
L 469 531 
Q 828 903 1448 1529 
Q 2069 2156 2228 2338 
Q 2531 2678 2651 2914 
Q 2772 3150 2772 3378 
Q 2772 3750 2511 3984 
Q 2250 4219 1831 4219 
Q 1534 4219 1204 4116 
Q 875 4013 500 3803 
L 500 4441 
Q 881 4594 1212 4672 
Q 1544 4750 1819 4750 
Q 2544 4750 2975 4387 
Q 3406 4025 3406 3419 
Q 3406 3131 3298 2873 
Q 3191 2616 2906 2266 
Q 2828 2175 2409 1742 
Q 1991 1309 1228 531 
z
" id="DejaVuSans-32" transform="scale(0.015625)"/>
       </defs>
       <use transform="translate(0 0.765625)" xlink:href="#DejaVuSans-31"/>
       <use transform="translate(63.623047 0.765625)" xlink:href="#DejaVuSans-30"/>
       <use transform="translate(128.203125 39.046875)scale(0.7)" xlink:href="#DejaVuSans-2212"/>
       <use transform="translate(186.855469 39.046875)scale(0.7)" xlink:href="#DejaVuSans-32"/>
      </g>
     </g>
    </g>
    <g id="ytick_6">
     <g id="line2d_45">
      <g>
       <use style="stroke:#000000;stroke-width:0.5;" x="44.278125" xlink:href="#m0148825874" y="7.399219"/>
      </g>
     </g>
     <g id="line2d_46">
      <g>
       <use style="stroke:#000000;stroke-width:0.5;" x="239.578125" xlink:href="#m7201321e46" y="7.399219"/>
      </g>
     </g>
     <g id="text_11">
      <!-- $\mathdefault{10^{-1}}$ -->
      <g transform="translate(17.278125 11.198437)scale(0.1 -0.1)">
       <use transform="translate(0 0.684375)" xlink:href="#DejaVuSans-31"/>
       <use transform="translate(63.623047 0.684375)" xlink:href="#DejaVuSans-30"/>
       <use transform="translate(128.203125 38.965625)scale(0.7)" xlink:href="#DejaVuSans-2212"/>
       <use transform="translate(186.855469 38.965625)scale(0.7)" xlink:href="#DejaVuSans-31"/>
      </g>
     </g>
    </g>
    <g id="ytick_7">
     <g id="line2d_47">
      <defs>
       <path d="M 0 0 
L 1.5 0 
" id="m57b4221509" style="stroke:#000000;stroke-width:0.5;"/>
      </defs>
      <g>
       <use style="stroke:#000000;stroke-width:0.5;" x="44.278125" xlink:href="#m57b4221509" y="141.503124"/>
      </g>
     </g>
     <g id="line2d_48">
      <defs>
       <path d="M 0 0 
L -1.5 0 
" id="m20a258737f" style="stroke:#000000;stroke-width:0.5;"/>
      </defs>
      <g>
       <use style="stroke:#000000;stroke-width:0.5;" x="239.578125" xlink:href="#m20a258737f" y="141.503124"/>
      </g>
     </g>
    </g>
    <g id="ytick_8">
     <g id="line2d_49">
      <g>
       <use style="stroke:#000000;stroke-width:0.5;" x="44.278125" xlink:href="#m57b4221509" y="136.477655"/>
      </g>
     </g>
     <g id="line2d_50">
      <g>
       <use style="stroke:#000000;stroke-width:0.5;" x="239.578125" xlink:href="#m20a258737f" y="136.477655"/>
      </g>
     </g>
    </g>
    <g id="ytick_9">
     <g id="line2d_51">
      <g>
       <use style="stroke:#000000;stroke-width:0.5;" x="44.278125" xlink:href="#m57b4221509" y="132.912029"/>
      </g>
     </g>
     <g id="line2d_52">
      <g>
       <use style="stroke:#000000;stroke-width:0.5;" x="239.578125" xlink:href="#m20a258737f" y="132.912029"/>
      </g>
     </g>
    </g>
    <g id="ytick_10">
     <g id="line2d_53">
      <g>
       <use style="stroke:#000000;stroke-width:0.5;" x="44.278125" xlink:href="#m57b4221509" y="130.146314"/>
      </g>
     </g>
     <g id="line2d_54">
      <g>
       <use style="stroke:#000000;stroke-width:0.5;" x="239.578125" xlink:href="#m20a258737f" y="130.146314"/>
      </g>
     </g>
    </g>
    <g id="ytick_11">
     <g id="line2d_55">
      <g>
       <use style="stroke:#000000;stroke-width:0.5;" x="44.278125" xlink:href="#m57b4221509" y="127.88656"/>
      </g>
     </g>
     <g id="line2d_56">
      <g>
       <use style="stroke:#000000;stroke-width:0.5;" x="239.578125" xlink:href="#m20a258737f" y="127.88656"/>
      </g>
     </g>
    </g>
    <g id="ytick_12">
     <g id="line2d_57">
      <g>
       <use style="stroke:#000000;stroke-width:0.5;" x="44.278125" xlink:href="#m57b4221509" y="125.975966"/>
      </g>
     </g>
     <g id="line2d_58">
      <g>
       <use style="stroke:#000000;stroke-width:0.5;" x="239.578125" xlink:href="#m20a258737f" y="125.975966"/>
      </g>
     </g>
    </g>
    <g id="ytick_13">
     <g id="line2d_59">
      <g>
       <use style="stroke:#000000;stroke-width:0.5;" x="44.278125" xlink:href="#m57b4221509" y="124.320934"/>
      </g>
     </g>
     <g id="line2d_60">
      <g>
       <use style="stroke:#000000;stroke-width:0.5;" x="239.578125" xlink:href="#m20a258737f" y="124.320934"/>
      </g>
     </g>
    </g>
    <g id="ytick_14">
     <g id="line2d_61">
      <g>
       <use style="stroke:#000000;stroke-width:0.5;" x="44.278125" xlink:href="#m57b4221509" y="122.861092"/>
      </g>
     </g>
     <g id="line2d_62">
      <g>
       <use style="stroke:#000000;stroke-width:0.5;" x="239.578125" xlink:href="#m20a258737f" y="122.861092"/>
      </g>
     </g>
    </g>
    <g id="ytick_15">
     <g id="line2d_63">
      <g>
       <use style="stroke:#000000;stroke-width:0.5;" x="44.278125" xlink:href="#m57b4221509" y="112.964124"/>
      </g>
     </g>
     <g id="line2d_64">
      <g>
       <use style="stroke:#000000;stroke-width:0.5;" x="239.578125" xlink:href="#m20a258737f" y="112.964124"/>
      </g>
     </g>
    </g>
    <g id="ytick_16">
     <g id="line2d_65">
      <g>
       <use style="stroke:#000000;stroke-width:0.5;" x="44.278125" xlink:href="#m57b4221509" y="107.938655"/>
      </g>
     </g>
     <g id="line2d_66">
      <g>
       <use style="stroke:#000000;stroke-width:0.5;" x="239.578125" xlink:href="#m20a258737f" y="107.938655"/>
      </g>
     </g>
    </g>
    <g id="ytick_17">
     <g id="line2d_67">
      <g>
       <use style="stroke:#000000;stroke-width:0.5;" x="44.278125" xlink:href="#m57b4221509" y="104.373029"/>
      </g>
     </g>
     <g id="line2d_68">
      <g>
       <use style="stroke:#000000;stroke-width:0.5;" x="239.578125" xlink:href="#m20a258737f" y="104.373029"/>
      </g>
     </g>
    </g>
    <g id="ytick_18">
     <g id="line2d_69">
      <g>
       <use style="stroke:#000000;stroke-width:0.5;" x="44.278125" xlink:href="#m57b4221509" y="101.607314"/>
      </g>
     </g>
     <g id="line2d_70">
      <g>
       <use style="stroke:#000000;stroke-width:0.5;" x="239.578125" xlink:href="#m20a258737f" y="101.607314"/>
      </g>
     </g>
    </g>
    <g id="ytick_19">
     <g id="line2d_71">
      <g>
       <use style="stroke:#000000;stroke-width:0.5;" x="44.278125" xlink:href="#m57b4221509" y="99.34756"/>
      </g>
     </g>
     <g id="line2d_72">
      <g>
       <use style="stroke:#000000;stroke-width:0.5;" x="239.578125" xlink:href="#m20a258737f" y="99.34756"/>
      </g>
     </g>
    </g>
    <g id="ytick_20">
     <g id="line2d_73">
      <g>
       <use style="stroke:#000000;stroke-width:0.5;" x="44.278125" xlink:href="#m57b4221509" y="97.436966"/>
      </g>
     </g>
     <g id="line2d_74">
      <g>
       <use style="stroke:#000000;stroke-width:0.5;" x="239.578125" xlink:href="#m20a258737f" y="97.436966"/>
      </g>
     </g>
    </g>
    <g id="ytick_21">
     <g id="line2d_75">
      <g>
       <use style="stroke:#000000;stroke-width:0.5;" x="44.278125" xlink:href="#m57b4221509" y="95.781934"/>
      </g>
     </g>
     <g id="line2d_76">
      <g>
       <use style="stroke:#000000;stroke-width:0.5;" x="239.578125" xlink:href="#m20a258737f" y="95.781934"/>
      </g>
     </g>
    </g>
    <g id="ytick_22">
     <g id="line2d_77">
      <g>
       <use style="stroke:#000000;stroke-width:0.5;" x="44.278125" xlink:href="#m57b4221509" y="94.322092"/>
      </g>
     </g>
     <g id="line2d_78">
      <g>
       <use style="stroke:#000000;stroke-width:0.5;" x="239.578125" xlink:href="#m20a258737f" y="94.322092"/>
      </g>
     </g>
    </g>
    <g id="ytick_23">
     <g id="line2d_79">
      <g>
       <use style="stroke:#000000;stroke-width:0.5;" x="44.278125" xlink:href="#m57b4221509" y="84.425124"/>
      </g>
     </g>
     <g id="line2d_80">
      <g>
       <use style="stroke:#000000;stroke-width:0.5;" x="239.578125" xlink:href="#m20a258737f" y="84.425124"/>
      </g>
     </g>
    </g>
    <g id="ytick_24">
     <g id="line2d_81">
      <g>
       <use style="stroke:#000000;stroke-width:0.5;" x="44.278125" xlink:href="#m57b4221509" y="79.399655"/>
      </g>
     </g>
     <g id="line2d_82">
      <g>
       <use style="stroke:#000000;stroke-width:0.5;" x="239.578125" xlink:href="#m20a258737f" y="79.399655"/>
      </g>
     </g>
    </g>
    <g id="ytick_25">
     <g id="line2d_83">
      <g>
       <use style="stroke:#000000;stroke-width:0.5;" x="44.278125" xlink:href="#m57b4221509" y="75.834029"/>
      </g>
     </g>
     <g id="line2d_84">
      <g>
       <use style="stroke:#000000;stroke-width:0.5;" x="239.578125" xlink:href="#m20a258737f" y="75.834029"/>
      </g>
     </g>
    </g>
    <g id="ytick_26">
     <g id="line2d_85">
      <g>
       <use style="stroke:#000000;stroke-width:0.5;" x="44.278125" xlink:href="#m57b4221509" y="73.068314"/>
      </g>
     </g>
     <g id="line2d_86">
      <g>
       <use style="stroke:#000000;stroke-width:0.5;" x="239.578125" xlink:href="#m20a258737f" y="73.068314"/>
      </g>
     </g>
    </g>
    <g id="ytick_27">
     <g id="line2d_87">
      <g>
       <use style="stroke:#000000;stroke-width:0.5;" x="44.278125" xlink:href="#m57b4221509" y="70.80856"/>
      </g>
     </g>
     <g id="line2d_88">
      <g>
       <use style="stroke:#000000;stroke-width:0.5;" x="239.578125" xlink:href="#m20a258737f" y="70.80856"/>
      </g>
     </g>
    </g>
    <g id="ytick_28">
     <g id="line2d_89">
      <g>
       <use style="stroke:#000000;stroke-width:0.5;" x="44.278125" xlink:href="#m57b4221509" y="68.897966"/>
      </g>
     </g>
     <g id="line2d_90">
      <g>
       <use style="stroke:#000000;stroke-width:0.5;" x="239.578125" xlink:href="#m20a258737f" y="68.897966"/>
      </g>
     </g>
    </g>
    <g id="ytick_29">
     <g id="line2d_91">
      <g>
       <use style="stroke:#000000;stroke-width:0.5;" x="44.278125" xlink:href="#m57b4221509" y="67.242934"/>
      </g>
     </g>
     <g id="line2d_92">
      <g>
       <use style="stroke:#000000;stroke-width:0.5;" x="239.578125" xlink:href="#m20a258737f" y="67.242934"/>
      </g>
     </g>
    </g>
    <g id="ytick_30">
     <g id="line2d_93">
      <g>
       <use style="stroke:#000000;stroke-width:0.5;" x="44.278125" xlink:href="#m57b4221509" y="65.783092"/>
      </g>
     </g>
     <g id="line2d_94">
      <g>
       <use style="stroke:#000000;stroke-width:0.5;" x="239.578125" xlink:href="#m20a258737f" y="65.783092"/>
      </g>
     </g>
    </g>
    <g id="ytick_31">
     <g id="line2d_95">
      <g>
       <use style="stroke:#000000;stroke-width:0.5;" x="44.278125" xlink:href="#m57b4221509" y="55.886124"/>
      </g>
     </g>
     <g id="line2d_96">
      <g>
       <use style="stroke:#000000;stroke-width:0.5;" x="239.578125" xlink:href="#m20a258737f" y="55.886124"/>
      </g>
     </g>
    </g>
    <g id="ytick_32">
     <g id="line2d_97">
      <g>
       <use style="stroke:#000000;stroke-width:0.5;" x="44.278125" xlink:href="#m57b4221509" y="50.860655"/>
      </g>
     </g>
     <g id="line2d_98">
      <g>
       <use style="stroke:#000000;stroke-width:0.5;" x="239.578125" xlink:href="#m20a258737f" y="50.860655"/>
      </g>
     </g>
    </g>
    <g id="ytick_33">
     <g id="line2d_99">
      <g>
       <use style="stroke:#000000;stroke-width:0.5;" x="44.278125" xlink:href="#m57b4221509" y="47.295029"/>
      </g>
     </g>
     <g id="line2d_100">
      <g>
       <use style="stroke:#000000;stroke-width:0.5;" x="239.578125" xlink:href="#m20a258737f" y="47.295029"/>
      </g>
     </g>
    </g>
    <g id="ytick_34">
     <g id="line2d_101">
      <g>
       <use style="stroke:#000000;stroke-width:0.5;" x="44.278125" xlink:href="#m57b4221509" y="44.529314"/>
      </g>
     </g>
     <g id="line2d_102">
      <g>
       <use style="stroke:#000000;stroke-width:0.5;" x="239.578125" xlink:href="#m20a258737f" y="44.529314"/>
      </g>
     </g>
    </g>
    <g id="ytick_35">
     <g id="line2d_103">
      <g>
       <use style="stroke:#000000;stroke-width:0.5;" x="44.278125" xlink:href="#m57b4221509" y="42.26956"/>
      </g>
     </g>
     <g id="line2d_104">
      <g>
       <use style="stroke:#000000;stroke-width:0.5;" x="239.578125" xlink:href="#m20a258737f" y="42.26956"/>
      </g>
     </g>
    </g>
    <g id="ytick_36">
     <g id="line2d_105">
      <g>
       <use style="stroke:#000000;stroke-width:0.5;" x="44.278125" xlink:href="#m57b4221509" y="40.358966"/>
      </g>
     </g>
     <g id="line2d_106">
      <g>
       <use style="stroke:#000000;stroke-width:0.5;" x="239.578125" xlink:href="#m20a258737f" y="40.358966"/>
      </g>
     </g>
    </g>
    <g id="ytick_37">
     <g id="line2d_107">
      <g>
       <use style="stroke:#000000;stroke-width:0.5;" x="44.278125" xlink:href="#m57b4221509" y="38.703934"/>
      </g>
     </g>
     <g id="line2d_108">
      <g>
       <use style="stroke:#000000;stroke-width:0.5;" x="239.578125" xlink:href="#m20a258737f" y="38.703934"/>
      </g>
     </g>
    </g>
    <g id="ytick_38">
     <g id="line2d_109">
      <g>
       <use style="stroke:#000000;stroke-width:0.5;" x="44.278125" xlink:href="#m57b4221509" y="37.244092"/>
      </g>
     </g>
     <g id="line2d_110">
      <g>
       <use style="stroke:#000000;stroke-width:0.5;" x="239.578125" xlink:href="#m20a258737f" y="37.244092"/>
      </g>
     </g>
    </g>
    <g id="ytick_39">
     <g id="line2d_111">
      <g>
       <use style="stroke:#000000;stroke-width:0.5;" x="44.278125" xlink:href="#m57b4221509" y="27.347124"/>
      </g>
     </g>
     <g id="line2d_112">
      <g>
       <use style="stroke:#000000;stroke-width:0.5;" x="239.578125" xlink:href="#m20a258737f" y="27.347124"/>
      </g>
     </g>
    </g>
    <g id="ytick_40">
     <g id="line2d_113">
      <g>
       <use style="stroke:#000000;stroke-width:0.5;" x="44.278125" xlink:href="#m57b4221509" y="22.321655"/>
      </g>
     </g>
     <g id="line2d_114">
      <g>
       <use style="stroke:#000000;stroke-width:0.5;" x="239.578125" xlink:href="#m20a258737f" y="22.321655"/>
      </g>
     </g>
    </g>
    <g id="ytick_41">
     <g id="line2d_115">
      <g>
       <use style="stroke:#000000;stroke-width:0.5;" x="44.278125" xlink:href="#m57b4221509" y="18.756029"/>
      </g>
     </g>
     <g id="line2d_116">
      <g>
       <use style="stroke:#000000;stroke-width:0.5;" x="239.578125" xlink:href="#m20a258737f" y="18.756029"/>
      </g>
     </g>
    </g>
    <g id="ytick_42">
     <g id="line2d_117">
      <g>
       <use style="stroke:#000000;stroke-width:0.5;" x="44.278125" xlink:href="#m57b4221509" y="15.990314"/>
      </g>
     </g>
     <g id="line2d_118">
      <g>
       <use style="stroke:#000000;stroke-width:0.5;" x="239.578125" xlink:href="#m20a258737f" y="15.990314"/>
      </g>
     </g>
    </g>
    <g id="ytick_43">
     <g id="line2d_119">
      <g>
       <use style="stroke:#000000;stroke-width:0.5;" x="44.278125" xlink:href="#m57b4221509" y="13.73056"/>
      </g>
     </g>
     <g id="line2d_120">
      <g>
       <use style="stroke:#000000;stroke-width:0.5;" x="239.578125" xlink:href="#m20a258737f" y="13.73056"/>
      </g>
     </g>
    </g>
    <g id="ytick_44">
     <g id="line2d_121">
      <g>
       <use style="stroke:#000000;stroke-width:0.5;" x="44.278125" xlink:href="#m57b4221509" y="11.819966"/>
      </g>
     </g>
     <g id="line2d_122">
      <g>
       <use style="stroke:#000000;stroke-width:0.5;" x="239.578125" xlink:href="#m20a258737f" y="11.819966"/>
      </g>
     </g>
    </g>
    <g id="ytick_45">
     <g id="line2d_123">
      <g>
       <use style="stroke:#000000;stroke-width:0.5;" x="44.278125" xlink:href="#m57b4221509" y="10.164934"/>
      </g>
     </g>
     <g id="line2d_124">
      <g>
       <use style="stroke:#000000;stroke-width:0.5;" x="239.578125" xlink:href="#m20a258737f" y="10.164934"/>
      </g>
     </g>
    </g>
    <g id="ytick_46">
     <g id="line2d_125">
      <g>
       <use style="stroke:#000000;stroke-width:0.5;" x="44.278125" xlink:href="#m57b4221509" y="8.705092"/>
      </g>
     </g>
     <g id="line2d_126">
      <g>
       <use style="stroke:#000000;stroke-width:0.5;" x="239.578125" xlink:href="#m20a258737f" y="8.705092"/>
      </g>
     </g>
    </g>
    <g id="text_12">
     <!-- Voltage / V -->
     <g transform="translate(11.198438 105.785781)rotate(-90)scale(0.1 -0.1)">
      <defs>
       <path d="M 1831 0 
L 50 4666 
L 709 4666 
L 2188 738 
L 3669 4666 
L 4325 4666 
L 2547 0 
L 1831 0 
z
" id="DejaVuSans-56" transform="scale(0.015625)"/>
       <path d="M 1959 3097 
Q 1497 3097 1228 2736 
Q 959 2375 959 1747 
Q 959 1119 1226 758 
Q 1494 397 1959 397 
Q 2419 397 2687 759 
Q 2956 1122 2956 1747 
Q 2956 2369 2687 2733 
Q 2419 3097 1959 3097 
z
M 1959 3584 
Q 2709 3584 3137 3096 
Q 3566 2609 3566 1747 
Q 3566 888 3137 398 
Q 2709 -91 1959 -91 
Q 1206 -91 779 398 
Q 353 888 353 1747 
Q 353 2609 779 3096 
Q 1206 3584 1959 3584 
z
" id="DejaVuSans-6f" transform="scale(0.015625)"/>
       <path d="M 603 4863 
L 1178 4863 
L 1178 0 
L 603 0 
L 603 4863 
z
" id="DejaVuSans-6c" transform="scale(0.015625)"/>
       <path d="M 1625 4666 
L 2156 4666 
L 531 -594 
L 0 -594 
L 1625 4666 
z
" id="DejaVuSans-2f" transform="scale(0.015625)"/>
      </defs>
      <use xlink:href="#DejaVuSans-56"/>
      <use x="60.658203" xlink:href="#DejaVuSans-6f"/>
      <use x="121.839844" xlink:href="#DejaVuSans-6c"/>
      <use x="149.623047" xlink:href="#DejaVuSans-74"/>
      <use x="188.832031" xlink:href="#DejaVuSans-61"/>
      <use x="250.111328" xlink:href="#DejaVuSans-67"/>
      <use x="313.587891" xlink:href="#DejaVuSans-65"/>
      <use x="375.111328" xlink:href="#DejaVuSans-20"/>
      <use x="406.898438" xlink:href="#DejaVuSans-2f"/>
      <use x="440.589844" xlink:href="#DejaVuSans-20"/>
      <use x="472.376953" xlink:href="#DejaVuSans-56"/>
     </g>
    </g>
   </g>
   <g id="line2d_127">
    <path clip-path="url(#p4b837da15c)" d="M 53.155398 83.936937 
L 54.315826 86.790345 
L 55.476253 87.938339 
L 56.636681 88.518715 
L 60.117965 89.442999 
L 63.599248 90.078926 
L 68.240959 90.64026 
L 72.88267 91.130832 
L 84.486949 92.322337 
L 92.609943 93.166005 
L 106.535077 94.432585 
L 130.904061 97.007065 
L 135.545772 97.687977 
L 142.508339 98.682809 
L 144.829195 99.115056 
L 147.15005 99.522754 
L 150.631334 100.269923 
L 152.952189 100.606777 
L 163.396039 102.863151 
L 164.556467 103.170133 
L 165.716895 103.344503 
L 168.037751 103.942254 
L 172.679462 104.961021 
L 176.160745 105.986722 
L 177.321173 106.283847 
L 179.642029 107.151019 
L 181.962884 107.916304 
L 185.444168 109.239932 
L 186.604596 109.528879 
L 190.085879 110.898736 
L 191.246307 111.463318 
L 192.406735 112.182836 
L 198.208874 114.956429 
L 200.529729 116.306792 
L 201.690157 117.072236 
L 204.011013 118.371597 
L 205.171441 119.579675 
L 206.331868 120.174721 
L 207.492296 121.158821 
L 208.652724 121.716656 
L 213.294435 125.702286 
L 215.615291 128.691761 
L 216.775719 131.147591 
L 217.936146 132.897124 
L 219.096574 135.205062 
L 220.257002 136.749864 
L 221.41743 141.84003 
L 222.577858 144.265375 
L 223.738285 147.703083 
L 226.059141 158.243699 
L 227.219569 169.6762 
L 228.123323 181.550469 
L 228.123323 181.550469 
" style="fill:none;stroke:#0c5da5;stroke-linecap:square;"/>
   </g>
   <g id="line2d_128">
    <path clip-path="url(#p4b837da15c)" d="M 53.155398 91.370185 
L 54.315826 93.02669 
L 55.476253 93.792179 
L 56.636681 94.424527 
L 57.797109 94.771303 
L 58.957537 95.275436 
L 62.43882 96.136114 
L 69.401387 97.006845 
L 82.166093 97.963235 
L 89.12866 98.273526 
L 125.101922 99.508789 
L 135.545772 99.855447 
L 151.791761 100.462879 
L 172.679462 101.548224 
L 180.802457 102.26201 
L 192.406735 103.362803 
L 198.208874 104.066053 
L 202.850585 104.669577 
L 206.331868 105.216559 
L 210.97358 106.369207 
L 212.134007 106.678861 
L 213.294435 107.140674 
L 216.775719 108.050917 
L 220.257002 109.533301 
L 227.219569 113.116641 
L 228.379997 115.535228 
L 229.540424 116.847533 
L 230.700852 118.835207 
L 230.700852 118.835207 
" style="fill:none;stroke:#ff9500;stroke-linecap:square;"/>
   </g>
   <g id="line2d_129">
    <path clip-path="url(#p4b837da15c)" d="M 53.155398 75.384516 
L 54.315826 76.806328 
L 55.476253 77.503972 
L 60.117965 79.39407 
L 62.43882 80.010296 
L 69.401387 81.482644 
L 75.203526 82.35053 
L 83.326521 83.288735 
L 98.412082 85.032784 
L 105.374649 85.681459 
L 154.112617 90.865125 
L 162.235612 91.812928 
L 165.716895 92.226998 
L 171.519034 93.039412 
L 179.642029 94.25328 
L 184.28374 95.041997 
L 187.765023 95.604801 
L 192.406735 96.596025 
L 198.208874 97.998645 
L 201.690157 98.851961 
L 210.97358 101.373714 
L 214.454863 103.024463 
L 215.615291 103.397578 
L 219.096574 105.297638 
L 221.41743 107.04537 
L 224.898713 110.778236 
L 226.059141 112.594864 
L 227.219569 115.28274 
L 228.379997 119.12751 
L 229.540424 125.017918 
L 230.700852 134.83807 
L 230.700852 134.83807 
" style="fill:none;stroke:#00b945;stroke-linecap:square;"/>
   </g>
   <g id="line2d_130">
    <path clip-path="url(#p4b837da15c)" d="M 53.155398 108.848523 
L 54.315826 113.281683 
L 60.117965 124.352478 
L 61.278392 126.360667 
L 62.43882 127.64885 
L 63.599248 129.259445 
L 65.920104 131.645149 
L 75.203526 142.281084 
L 76.363954 143.187971 
L 77.524382 144.488813 
L 79.845237 146.008497 
L 82.166093 149.351705 
L 83.326521 150.208797 
L 85.647376 152.973419 
L 86.807804 154.171677 
L 87.968232 155.639191 
L 89.12866 156.560627 
L 90.289088 157.647682 
L 91.449515 158.94493 
L 92.609943 160.068197 
L 93.770371 161.010799 
L 94.930799 161.806489 
L 97.251654 165.129368 
L 99.57251 167.644127 
L 100.732938 169.036195 
L 103.053793 170.648339 
L 104.214221 171.668002 
L 106.535077 174.111878 
L 107.695505 174.768582 
L 108.855932 176.297367 
L 111.176788 178.263355 
L 112.337216 179.755129 
L 113.497644 180.582666 
L 114.563208 181.550469 
L 114.563208 181.550469 
" style="fill:none;stroke:#ff2c00;stroke-linecap:square;"/>
   </g>
   <g id="line2d_131">
    <path clip-path="url(#p4b837da15c)" d="M 53.155398 51.700125 
L 54.315826 52.900646 
L 56.636681 54.053827 
L 58.957537 54.918105 
L 61.278392 55.743881 
L 70.561815 58.21443 
L 78.684809 60.159946 
L 79.845237 60.307611 
L 82.166093 60.978178 
L 86.807804 61.781987 
L 89.12866 62.295812 
L 120.460211 68.16799 
L 126.26235 69.291514 
L 128.583205 69.832678 
L 162.235612 75.18229 
L 170.358606 76.38117 
L 179.642029 78.110865 
L 183.123312 78.828173 
L 185.444168 79.302303 
L 194.72759 81.653386 
L 195.888018 81.81736 
L 197.048446 82.172242 
L 199.369301 82.735943 
L 204.011013 84.038081 
L 205.171441 84.266844 
L 210.97358 86.203648 
L 214.454863 87.740081 
L 219.096574 89.894107 
L 220.257002 90.781783 
L 221.41743 91.410679 
L 222.577858 92.278696 
L 223.738285 93.720051 
L 224.898713 94.96392 
L 226.059141 96.55999 
L 227.219569 99.057515 
L 228.379997 102.038238 
L 229.540424 105.623008 
L 230.700852 110.874538 
L 230.700852 110.874538 
" style="fill:none;stroke:#845b97;stroke-linecap:square;"/>
   </g>
   <g id="patch_3">
    <path d="M 44.278125 150.094219 
L 44.278125 7.399219 
" style="fill:none;stroke:#000000;stroke-linecap:square;stroke-linejoin:miter;stroke-width:0.5;"/>
   </g>
   <g id="patch_4">
    <path d="M 239.578125 150.094219 
L 239.578125 7.399219 
" style="fill:none;stroke:#000000;stroke-linecap:square;stroke-linejoin:miter;stroke-width:0.5;"/>
   </g>
   <g id="patch_5">
    <path d="M 44.278125 150.094219 
L 239.578125 150.094219 
" style="fill:none;stroke:#000000;stroke-linecap:square;stroke-linejoin:miter;stroke-width:0.5;"/>
   </g>
   <g id="patch_6">
    <path d="M 44.278125 7.399219 
L 239.578125 7.399219 
" style="fill:none;stroke:#000000;stroke-linecap:square;stroke-linejoin:miter;stroke-width:0.5;"/>
   </g>
  </g>
 </g>
 <defs>
  <clipPath id="p4b837da15c">
   <rect height="142.695" width="195.3" x="44.278125" y="7.399219"/>
  </clipPath>
 </defs>
</svg>
