<?xml version="1.0" encoding="utf-8" standalone="no"?>
<!DOCTYPE svg PUBLIC "-//W3C//DTD SVG 1.1//EN"
  "http://www.w3.org/Graphics/SVG/1.1/DTD/svg11.dtd">
<svg height="180.550469pt" version="1.1" viewBox="0 0 243.178125 180.550469" width="243.178125pt" xmlns="http://www.w3.org/2000/svg" xmlns:xlink="http://www.w3.org/1999/xlink">
 <metadata>
  <rdf:RDF xmlns:cc="http://creativecommons.org/ns#" xmlns:dc="http://purl.org/dc/elements/1.1/" xmlns:rdf="http://www.w3.org/1999/02/22-rdf-syntax-ns#">
   <cc:Work>
    <dc:type rdf:resource="http://purl.org/dc/dcmitype/StillImage"/>
    <dc:date>2023-04-24T13:40:00.235501</dc:date>
    <dc:format>image/svg+xml</dc:format>
    <dc:creator>
     <cc:Agent>
      <dc:title>Matplotlib v3.4.3, https://matplotlib.org/</dc:title>
     </cc:Agent>
    </dc:creator>
   </cc:Work>
  </rdf:RDF>
 </metadata>
 <defs>
  <style type="text/css">*{stroke-linecap:butt;stroke-linejoin:round;}</style>
 </defs>
 <g id="figure_1">
  <g id="patch_1">
   <path d="M 0 180.550469 
L 243.178125 180.550469 
L 243.178125 0 
L 0 0 
z
" style="fill:none;"/>
  </g>
  <g id="axes_1">
   <g id="patch_2">
    <path d="M 44.278125 150.094219 
L 239.578125 150.094219 
L 239.578125 7.399219 
L 44.278125 7.399219 
z
" style="fill:#ffffff;"/>
   </g>
   <g id="PolyCollection_1">
    <path clip-path="url(#pbe99043dc0)" d="M 53.155398 72.052351 
L 53.155398 78.909144 
L 54.315826 81.069753 
L 55.476253 81.564811 
L 56.636681 81.966231 
L 57.797109 82.278934 
L 58.957537 82.510137 
L 60.117965 82.763212 
L 61.278392 82.96941 
L 62.43882 83.141126 
L 63.599248 83.315156 
L 64.759676 83.44262 
L 65.920104 83.588041 
L 67.080531 83.727068 
L 68.240959 83.879978 
L 69.401387 83.997881 
L 70.561815 84.13351 
L 71.722243 84.248703 
L 72.88267 84.356761 
L 74.043098 84.476828 
L 75.203526 84.569413 
L 76.363954 84.711697 
L 77.524382 84.83597 
L 78.684809 84.938321 
L 79.845237 85.051374 
L 81.005665 85.165788 
L 82.166093 85.289642 
L 83.326521 85.411758 
L 84.486949 85.513338 
L 85.647376 85.621528 
L 86.807804 85.707418 
L 87.968232 85.894862 
L 89.12866 86.026675 
L 90.289088 86.135609 
L 91.449515 86.257289 
L 92.609943 86.379378 
L 93.770371 86.501396 
L 94.930799 86.650215 
L 96.091227 86.790456 
L 97.251654 86.911027 
L 98.412082 87.054214 
L 99.57251 87.17731 
L 100.732938 87.32257 
L 101.893366 87.450377 
L 103.053793 87.581195 
L 104.214221 87.672489 
L 105.374649 87.80325 
L 106.535077 87.911849 
L 107.695505 88.007928 
L 108.855932 88.151832 
L 110.01636 88.28382 
L 111.176788 88.42326 
L 112.337216 88.542247 
L 113.497644 88.674331 
L 114.658072 88.784801 
L 115.818499 88.977031 
L 116.978927 89.112379 
L 118.139355 89.284663 
L 119.299783 89.429392 
L 120.460211 89.575637 
L 121.620638 89.809442 
L 122.781066 89.953664 
L 123.941494 90.090096 
L 125.101922 90.244355 
L 126.26235 90.409085 
L 127.422777 90.629248 
L 128.583205 90.828405 
L 129.743633 90.99236 
L 130.904061 91.211741 
L 132.064489 91.405484 
L 133.224916 91.530261 
L 134.385344 91.668169 
L 135.545772 91.896478 
L 136.7062 92.093118 
L 137.866628 92.319497 
L 139.027055 92.466724 
L 140.187483 92.63022 
L 141.347911 93.001703 
L 142.508339 93.210302 
L 143.668767 93.434498 
L 144.829195 93.632664 
L 145.989622 93.893448 
L 147.15005 94.05021 
L 148.310478 94.348269 
L 149.470906 94.647247 
L 150.631334 94.850128 
L 151.791761 95.075732 
L 152.952189 95.286216 
L 154.112617 95.560201 
L 155.273045 95.769816 
L 156.433473 96.056465 
L 157.5939 96.304907 
L 158.754328 96.573891 
L 159.914756 96.843133 
L 161.075184 97.194114 
L 162.235612 97.576683 
L 163.396039 97.891566 
L 164.556467 98.228271 
L 165.716895 98.570342 
L 166.877323 98.956762 
L 168.037751 99.323498 
L 169.198178 99.644097 
L 170.358606 100.076415 
L 171.519034 100.508729 
L 172.679462 100.837325 
L 173.83989 101.174727 
L 175.000318 101.554993 
L 176.160745 101.913264 
L 177.321173 102.26414 
L 178.481601 102.557139 
L 179.642029 102.979145 
L 180.802457 103.37754 
L 181.962884 103.771062 
L 183.123312 104.318177 
L 184.28374 104.763778 
L 185.444168 105.160743 
L 186.604596 105.831088 
L 187.765023 106.399009 
L 188.925451 106.910872 
L 190.085879 107.381071 
L 191.246307 107.985131 
L 192.406735 108.807957 
L 193.567162 109.462222 
L 194.72759 110.187516 
L 195.888018 111.0327 
L 197.048446 111.686515 
L 198.208874 112.476145 
L 199.369301 113.359967 
L 200.529729 114.583478 
L 201.690157 115.468136 
L 202.850585 116.597122 
L 204.011013 117.74505 
L 205.171441 119.016604 
L 206.331868 121.257051 
L 207.492296 123.591297 
L 208.652724 125.33748 
L 209.813152 126.891305 
L 210.97358 129.05938 
L 212.134007 133.25318 
L 213.294435 135.634737 
L 214.454863 137.959674 
L 215.615291 142.897825 
L 216.775719 147.851856 
L 217.936146 152.96628 
L 219.096574 157.821925 
L 220.257002 160.796369 
L 221.41743 163.479903 
L 222.577858 170.389914 
L 223.738285 174.59738 
L 224.898713 175.982719 
L 226.059141 240.551718 
L 227.219569 342.005569 
L 228.379997 463.437773 
L 229.540424 470.328814 
L 230.700852 636.442761 
L 230.700852 135.398224 
L 230.700852 135.398224 
L 229.540424 127.739548 
L 228.379997 122.679455 
L 227.219569 118.662359 
L 226.059141 115.443882 
L 224.898713 112.51023 
L 223.738285 110.738241 
L 222.577858 108.41259 
L 221.41743 107.317545 
L 220.257002 106.139328 
L 219.096574 104.849677 
L 217.936146 103.587105 
L 216.775719 102.404738 
L 215.615291 101.363685 
L 214.454863 100.483894 
L 213.294435 99.700226 
L 212.134007 98.865892 
L 210.97358 97.996105 
L 209.813152 97.272604 
L 208.652724 96.739594 
L 207.492296 96.291801 
L 206.331868 95.826565 
L 205.171441 95.248938 
L 204.011013 94.737425 
L 202.850585 94.22478 
L 201.690157 93.672978 
L 200.529729 93.191396 
L 199.369301 92.809417 
L 198.208874 92.438753 
L 197.048446 92.002472 
L 195.888018 91.559953 
L 194.72759 91.183574 
L 193.567162 90.716194 
L 192.406735 90.216586 
L 191.246307 89.777472 
L 190.085879 89.218791 
L 188.925451 88.886844 
L 187.765023 88.573355 
L 186.604596 88.107931 
L 185.444168 87.70728 
L 184.28374 87.353096 
L 183.123312 87.0202 
L 181.962884 86.759076 
L 180.802457 86.479442 
L 179.642029 86.23903 
L 178.481601 85.982761 
L 177.321173 85.689583 
L 176.160745 85.432445 
L 175.000318 85.174882 
L 173.83989 84.937281 
L 172.679462 84.693545 
L 171.519034 84.480989 
L 170.358606 84.283996 
L 169.198178 84.062185 
L 168.037751 83.885755 
L 166.877323 83.740447 
L 165.716895 83.550752 
L 164.556467 83.374562 
L 163.396039 83.176128 
L 162.235612 82.996707 
L 161.075184 82.818334 
L 159.914756 82.691596 
L 158.754328 82.534723 
L 157.5939 82.427405 
L 156.433473 82.237189 
L 155.273045 82.110985 
L 154.112617 81.995614 
L 152.952189 81.823299 
L 151.791761 81.711856 
L 150.631334 81.542399 
L 149.470906 81.445589 
L 148.310478 81.31456 
L 147.15005 81.199667 
L 145.989622 81.048847 
L 144.829195 80.94513 
L 143.668767 80.834175 
L 142.508339 80.69185 
L 141.347911 80.58548 
L 140.187483 80.451044 
L 139.027055 80.331166 
L 137.866628 80.195618 
L 136.7062 80.078721 
L 135.545772 79.982414 
L 134.385344 79.877468 
L 133.224916 79.723486 
L 132.064489 79.613713 
L 130.904061 79.484141 
L 129.743633 79.401165 
L 128.583205 79.255909 
L 127.422777 79.152285 
L 126.26235 79.041028 
L 125.101922 78.942181 
L 123.941494 78.847318 
L 122.781066 78.740662 
L 121.620638 78.605873 
L 120.460211 78.491994 
L 119.299783 78.381175 
L 118.139355 78.308547 
L 116.978927 78.194406 
L 115.818499 78.086927 
L 114.658072 78.017772 
L 113.497644 77.901084 
L 112.337216 77.822063 
L 111.176788 77.739579 
L 110.01636 77.634833 
L 108.855932 77.535821 
L 107.695505 77.444618 
L 106.535077 77.360597 
L 105.374649 77.256349 
L 104.214221 77.148662 
L 103.053793 77.081418 
L 101.893366 77.001412 
L 100.732938 76.903987 
L 99.57251 76.800287 
L 98.412082 76.707361 
L 97.251654 76.617695 
L 96.091227 76.543778 
L 94.930799 76.449093 
L 93.770371 76.35193 
L 92.609943 76.255034 
L 91.449515 76.176371 
L 90.289088 76.082317 
L 89.12866 76.016326 
L 87.968232 75.930788 
L 86.807804 75.870079 
L 85.647376 75.785745 
L 84.486949 75.722797 
L 83.326521 75.650503 
L 82.166093 75.570637 
L 81.005665 75.495596 
L 79.845237 75.429104 
L 78.684809 75.362863 
L 77.524382 75.276911 
L 76.363954 75.212722 
L 75.203526 75.14845 
L 74.043098 75.086195 
L 72.88267 75.020406 
L 71.722243 74.950802 
L 70.561815 74.907057 
L 69.401387 74.840397 
L 68.240959 74.784812 
L 67.080531 74.724296 
L 65.920104 74.652614 
L 64.759676 74.575113 
L 63.599248 74.515139 
L 62.43882 74.42866 
L 61.278392 74.315314 
L 60.117965 74.189091 
L 58.957537 74.048886 
L 57.797109 73.920973 
L 56.636681 73.80576 
L 55.476253 73.627417 
L 54.315826 73.376404 
L 53.155398 72.052351 
z
" style="fill:#0c5da5;fill-opacity:0.15;"/>
   </g>
   <g id="PolyCollection_2">
    <path clip-path="url(#pbe99043dc0)" d="M 53.155398 91.590087 
L 53.155398 94.142392 
L 54.315826 95.779367 
L 55.476253 96.391371 
L 56.636681 96.761537 
L 57.797109 97.014252 
L 58.957537 97.317001 
L 60.117965 97.549788 
L 61.278392 97.729987 
L 62.43882 97.898224 
L 63.599248 98.087277 
L 64.759676 98.291763 
L 65.920104 98.424746 
L 67.080531 98.581319 
L 68.240959 98.719959 
L 69.401387 98.861522 
L 70.561815 98.97397 
L 71.722243 99.088321 
L 72.88267 99.22488 
L 74.043098 99.327764 
L 75.203526 99.46599 
L 76.363954 99.597855 
L 77.524382 99.709919 
L 78.684809 99.845709 
L 79.845237 99.976534 
L 81.005665 100.060605 
L 82.166093 100.14961 
L 83.326521 100.261027 
L 84.486949 100.390008 
L 85.647376 100.479199 
L 86.807804 100.594032 
L 87.968232 100.680952 
L 89.12866 100.758489 
L 90.289088 100.881698 
L 91.449515 100.947986 
L 92.609943 101.006937 
L 93.770371 101.084683 
L 94.930799 101.170649 
L 96.091227 101.240479 
L 97.251654 101.309514 
L 98.412082 101.384705 
L 99.57251 101.475964 
L 100.732938 101.569799 
L 101.893366 101.671487 
L 103.053793 101.751099 
L 104.214221 101.837834 
L 105.374649 101.922384 
L 106.535077 101.997862 
L 107.695505 102.098689 
L 108.855932 102.200995 
L 110.01636 102.284357 
L 111.176788 102.351943 
L 112.337216 102.414006 
L 113.497644 102.498678 
L 114.658072 102.575287 
L 115.818499 102.652338 
L 116.978927 102.71345 
L 118.139355 102.785988 
L 119.299783 102.857692 
L 120.460211 102.916122 
L 121.620638 103.020282 
L 122.781066 103.091251 
L 123.941494 103.174203 
L 125.101922 103.259069 
L 126.26235 103.339259 
L 127.422777 103.407694 
L 128.583205 103.476743 
L 129.743633 103.543665 
L 130.904061 103.62598 
L 132.064489 103.698397 
L 133.224916 103.790318 
L 134.385344 103.860847 
L 135.545772 103.963547 
L 136.7062 104.043853 
L 137.866628 104.129051 
L 139.027055 104.196787 
L 140.187483 104.273464 
L 141.347911 104.3752 
L 142.508339 104.463773 
L 143.668767 104.546774 
L 144.829195 104.650808 
L 145.989622 104.740767 
L 147.15005 104.820031 
L 148.310478 104.902654 
L 149.470906 105.015337 
L 150.631334 105.089662 
L 151.791761 105.208622 
L 152.952189 105.293908 
L 154.112617 105.420963 
L 155.273045 105.52042 
L 156.433473 105.646851 
L 157.5939 105.783686 
L 158.754328 105.898438 
L 159.914756 106.02379 
L 161.075184 106.138794 
L 162.235612 106.256146 
L 163.396039 106.35401 
L 164.556467 106.465956 
L 165.716895 106.563096 
L 166.877323 106.688799 
L 168.037751 106.838553 
L 169.198178 106.92893 
L 170.358606 107.122807 
L 171.519034 107.302353 
L 172.679462 107.445052 
L 173.83989 107.584036 
L 175.000318 107.703882 
L 176.160745 107.829836 
L 177.321173 107.903807 
L 178.481601 108.048167 
L 179.642029 108.197399 
L 180.802457 108.377848 
L 181.962884 108.542714 
L 183.123312 108.692491 
L 184.28374 108.838367 
L 185.444168 108.988153 
L 186.604596 109.108585 
L 187.765023 109.230194 
L 188.925451 109.373897 
L 190.085879 109.55857 
L 191.246307 109.693633 
L 192.406735 109.829537 
L 193.567162 109.987098 
L 194.72759 110.142703 
L 195.888018 110.326181 
L 197.048446 110.457211 
L 198.208874 110.643771 
L 199.369301 110.817629 
L 200.529729 110.965658 
L 201.690157 111.122657 
L 202.850585 111.261396 
L 204.011013 111.468207 
L 205.171441 111.660455 
L 206.331868 111.778758 
L 207.492296 112.003755 
L 208.652724 112.292243 
L 209.813152 112.525161 
L 210.97358 112.816674 
L 212.134007 113.057687 
L 213.294435 113.398657 
L 214.454863 113.729628 
L 215.615291 114.08007 
L 216.775719 114.433351 
L 217.936146 114.690603 
L 219.096574 115.130183 
L 220.257002 115.522913 
L 221.41743 115.958748 
L 222.577858 116.708332 
L 223.738285 117.369899 
L 224.898713 118.242367 
L 226.059141 118.909005 
L 227.219569 119.685153 
L 228.379997 122.512578 
L 229.540424 124.238108 
L 230.700852 128.783213 
L 230.700852 119.416024 
L 230.700852 119.416024 
L 229.540424 117.491552 
L 228.379997 116.14088 
L 227.219569 113.828963 
L 226.059141 112.812061 
L 224.898713 112.104276 
L 223.738285 111.623455 
L 222.577858 111.083875 
L 221.41743 110.630513 
L 220.257002 110.36323 
L 219.096574 109.997699 
L 217.936146 109.756099 
L 216.775719 109.552539 
L 215.615291 109.2986 
L 214.454863 109.026308 
L 213.294435 108.704258 
L 212.134007 108.438215 
L 210.97358 108.2663 
L 209.813152 108.023974 
L 208.652724 107.816251 
L 207.492296 107.581471 
L 206.331868 107.37656 
L 205.171441 107.162071 
L 204.011013 106.924308 
L 202.850585 106.758249 
L 201.690157 106.552126 
L 200.529729 106.376658 
L 199.369301 106.169023 
L 198.208874 105.962697 
L 197.048446 105.809893 
L 195.888018 105.620461 
L 194.72759 105.402691 
L 193.567162 105.204412 
L 192.406735 105.034707 
L 191.246307 104.887461 
L 190.085879 104.676718 
L 188.925451 104.533123 
L 187.765023 104.385774 
L 186.604596 104.194004 
L 185.444168 103.97737 
L 184.28374 103.813278 
L 183.123312 103.653259 
L 181.962884 103.506976 
L 180.802457 103.384872 
L 179.642029 103.228444 
L 178.481601 103.075572 
L 177.321173 102.948448 
L 176.160745 102.766957 
L 175.000318 102.606476 
L 173.83989 102.437325 
L 172.679462 102.286904 
L 171.519034 102.184453 
L 170.358606 102.043693 
L 169.198178 101.886638 
L 168.037751 101.792019 
L 166.877323 101.693028 
L 165.716895 101.58516 
L 164.556467 101.456445 
L 163.396039 101.377288 
L 162.235612 101.261238 
L 161.075184 101.17329 
L 159.914756 101.072646 
L 158.754328 100.910554 
L 157.5939 100.837768 
L 156.433473 100.7295 
L 155.273045 100.649128 
L 154.112617 100.540616 
L 152.952189 100.452753 
L 151.791761 100.376589 
L 150.631334 100.307858 
L 149.470906 100.19604 
L 148.310478 100.096085 
L 147.15005 100.027515 
L 145.989622 99.966299 
L 144.829195 99.901368 
L 143.668767 99.851606 
L 142.508339 99.799425 
L 141.347911 99.693749 
L 140.187483 99.618151 
L 139.027055 99.55574 
L 137.866628 99.476572 
L 136.7062 99.399961 
L 135.545772 99.339785 
L 134.385344 99.277679 
L 133.224916 99.23364 
L 132.064489 99.163109 
L 130.904061 99.099813 
L 129.743633 99.028898 
L 128.583205 98.964051 
L 127.422777 98.894934 
L 126.26235 98.838223 
L 125.101922 98.78438 
L 123.941494 98.718604 
L 122.781066 98.668118 
L 121.620638 98.610214 
L 120.460211 98.562041 
L 119.299783 98.524013 
L 118.139355 98.470672 
L 116.978927 98.407289 
L 115.818499 98.348971 
L 114.658072 98.29466 
L 113.497644 98.234847 
L 112.337216 98.178573 
L 111.176788 98.134692 
L 110.01636 98.095111 
L 108.855932 98.047901 
L 107.695505 98.00719 
L 106.535077 97.952352 
L 105.374649 97.90336 
L 104.214221 97.851507 
L 103.053793 97.800794 
L 101.893366 97.752891 
L 100.732938 97.693598 
L 99.57251 97.64327 
L 98.412082 97.582438 
L 97.251654 97.542224 
L 96.091227 97.48586 
L 94.930799 97.439717 
L 93.770371 97.38784 
L 92.609943 97.337976 
L 91.449515 97.282501 
L 90.289088 97.235727 
L 89.12866 97.184295 
L 87.968232 97.109497 
L 86.807804 97.04524 
L 85.647376 96.979583 
L 84.486949 96.915915 
L 83.326521 96.861139 
L 82.166093 96.80337 
L 81.005665 96.746074 
L 79.845237 96.660551 
L 78.684809 96.561036 
L 77.524382 96.467907 
L 76.363954 96.407668 
L 75.203526 96.331903 
L 74.043098 96.227662 
L 72.88267 96.136091 
L 71.722243 96.037118 
L 70.561815 95.950479 
L 69.401387 95.864426 
L 68.240959 95.762285 
L 67.080531 95.655667 
L 65.920104 95.532473 
L 64.759676 95.430675 
L 63.599248 95.300865 
L 62.43882 95.176531 
L 61.278392 95.006309 
L 60.117965 94.798955 
L 58.957537 94.517726 
L 57.797109 94.306326 
L 56.636681 93.997859 
L 55.476253 93.639605 
L 54.315826 93.119117 
L 53.155398 91.590087 
z
" style="fill:#ff9500;fill-opacity:0.15;"/>
   </g>
   <g id="PolyCollection_3">
    <path clip-path="url(#pbe99043dc0)" d="M 53.155398 71.511724 
L 53.155398 75.070296 
L 54.315826 76.481251 
L 55.476253 77.464286 
L 56.636681 78.05353 
L 57.797109 78.464761 
L 58.957537 78.781754 
L 60.117965 79.07641 
L 61.278392 79.353633 
L 62.43882 79.560244 
L 63.599248 79.816524 
L 64.759676 80.080578 
L 65.920104 80.297725 
L 67.080531 80.567524 
L 68.240959 80.786719 
L 69.401387 80.936888 
L 70.561815 81.137538 
L 71.722243 81.347807 
L 72.88267 81.511295 
L 74.043098 81.720677 
L 75.203526 81.868224 
L 76.363954 82.024374 
L 77.524382 82.136774 
L 78.684809 82.319988 
L 79.845237 82.448462 
L 81.005665 82.603223 
L 82.166093 82.709503 
L 83.326521 82.844376 
L 84.486949 82.937675 
L 85.647376 83.037844 
L 86.807804 83.194643 
L 87.968232 83.26657 
L 89.12866 83.379904 
L 90.289088 83.49978 
L 91.449515 83.603714 
L 92.609943 83.716038 
L 93.770371 83.848941 
L 94.930799 83.936335 
L 96.091227 84.050593 
L 97.251654 84.162336 
L 98.412082 84.280002 
L 99.57251 84.371849 
L 100.732938 84.48061 
L 101.893366 84.573553 
L 103.053793 84.687322 
L 104.214221 84.782465 
L 105.374649 84.855904 
L 106.535077 84.975805 
L 107.695505 85.063814 
L 108.855932 85.150084 
L 110.01636 85.261865 
L 111.176788 85.367918 
L 112.337216 85.473027 
L 113.497644 85.561022 
L 114.658072 85.64408 
L 115.818499 85.758273 
L 116.978927 85.833858 
L 118.139355 85.935333 
L 119.299783 86.025131 
L 120.460211 86.122199 
L 121.620638 86.226486 
L 122.781066 86.287649 
L 123.941494 86.397816 
L 125.101922 86.488641 
L 126.26235 86.603294 
L 127.422777 86.714295 
L 128.583205 86.810426 
L 129.743633 86.938779 
L 130.904061 87.048471 
L 132.064489 87.166972 
L 133.224916 87.248635 
L 134.385344 87.344075 
L 135.545772 87.419211 
L 136.7062 87.519353 
L 137.866628 87.642911 
L 139.027055 87.760061 
L 140.187483 87.879746 
L 141.347911 88.009938 
L 142.508339 88.119773 
L 143.668767 88.247853 
L 144.829195 88.370776 
L 145.989622 88.520188 
L 147.15005 88.630807 
L 148.310478 88.746549 
L 149.470906 88.910501 
L 150.631334 89.02584 
L 151.791761 89.179099 
L 152.952189 89.295679 
L 154.112617 89.429091 
L 155.273045 89.584815 
L 156.433473 89.675693 
L 157.5939 89.754261 
L 158.754328 89.915748 
L 159.914756 90.013801 
L 161.075184 90.165905 
L 162.235612 90.325544 
L 163.396039 90.456027 
L 164.556467 90.608395 
L 165.716895 90.759458 
L 166.877323 90.87231 
L 168.037751 91.013327 
L 169.198178 91.151083 
L 170.358606 91.355871 
L 171.519034 91.520432 
L 172.679462 91.715173 
L 173.83989 91.903857 
L 175.000318 92.03402 
L 176.160745 92.229299 
L 177.321173 92.384753 
L 178.481601 92.54334 
L 179.642029 92.745617 
L 180.802457 92.914725 
L 181.962884 93.042733 
L 183.123312 93.195906 
L 184.28374 93.395073 
L 185.444168 93.538463 
L 186.604596 93.737264 
L 187.765023 93.986439 
L 188.925451 94.231981 
L 190.085879 94.457739 
L 191.246307 94.710664 
L 192.406735 94.921125 
L 193.567162 95.178862 
L 194.72759 95.445274 
L 195.888018 95.732917 
L 197.048446 95.974648 
L 198.208874 96.241676 
L 199.369301 96.479621 
L 200.529729 96.806263 
L 201.690157 97.185164 
L 202.850585 97.471209 
L 204.011013 97.890336 
L 205.171441 98.16014 
L 206.331868 98.495092 
L 207.492296 98.734083 
L 208.652724 99.117513 
L 209.813152 99.39404 
L 210.97358 99.687936 
L 212.134007 100.321587 
L 213.294435 100.767832 
L 214.454863 101.190932 
L 215.615291 101.960921 
L 216.775719 102.785411 
L 217.936146 103.686775 
L 219.096574 104.41646 
L 220.257002 105.116191 
L 221.41743 106.416184 
L 222.577858 107.975182 
L 223.738285 109.179699 
L 224.898713 111.209695 
L 226.059141 113.096732 
L 227.219569 115.547564 
L 228.379997 118.52845 
L 229.540424 124.031313 
L 230.700852 132.940472 
L 230.700852 121.5923 
L 230.700852 121.5923 
L 229.540424 115.062064 
L 228.379997 111.140075 
L 227.219569 108.385258 
L 226.059141 106.298027 
L 224.898713 104.782844 
L 223.738285 103.134264 
L 222.577858 102.188422 
L 221.41743 101.088035 
L 220.257002 100.360531 
L 219.096574 99.67361 
L 217.936146 98.935127 
L 216.775719 98.414908 
L 215.615291 97.688333 
L 214.454863 97.196137 
L 213.294435 96.742481 
L 212.134007 96.400706 
L 210.97358 95.881121 
L 209.813152 95.53415 
L 208.652724 95.207169 
L 207.492296 94.899683 
L 206.331868 94.664003 
L 205.171441 94.245135 
L 204.011013 93.899001 
L 202.850585 93.64355 
L 201.690157 93.41376 
L 200.529729 93.146282 
L 199.369301 92.817276 
L 198.208874 92.619531 
L 197.048446 92.330054 
L 195.888018 92.103869 
L 194.72759 91.917813 
L 193.567162 91.645401 
L 192.406735 91.355538 
L 191.246307 91.147481 
L 190.085879 90.975951 
L 188.925451 90.769424 
L 187.765023 90.580809 
L 186.604596 90.406976 
L 185.444168 90.267783 
L 184.28374 90.156818 
L 183.123312 89.962805 
L 181.962884 89.757412 
L 180.802457 89.536547 
L 179.642029 89.341843 
L 178.481601 89.200999 
L 177.321173 88.988205 
L 176.160745 88.818612 
L 175.000318 88.632063 
L 173.83989 88.432697 
L 172.679462 88.222917 
L 171.519034 88.028107 
L 170.358606 87.872198 
L 169.198178 87.706585 
L 168.037751 87.570257 
L 166.877323 87.432305 
L 165.716895 87.286173 
L 164.556467 87.158516 
L 163.396039 87.005634 
L 162.235612 86.853758 
L 161.075184 86.710393 
L 159.914756 86.582346 
L 158.754328 86.455854 
L 157.5939 86.298766 
L 156.433473 86.139425 
L 155.273045 86.012406 
L 154.112617 85.903022 
L 152.952189 85.772409 
L 151.791761 85.636011 
L 150.631334 85.549949 
L 149.470906 85.435038 
L 148.310478 85.341847 
L 147.15005 85.231316 
L 145.989622 85.082966 
L 144.829195 84.972806 
L 143.668767 84.84682 
L 142.508339 84.750642 
L 141.347911 84.657678 
L 140.187483 84.547096 
L 139.027055 84.443261 
L 137.866628 84.342272 
L 136.7062 84.20186 
L 135.545772 84.088531 
L 134.385344 83.999867 
L 133.224916 83.874259 
L 132.064489 83.78736 
L 130.904061 83.669316 
L 129.743633 83.579161 
L 128.583205 83.500582 
L 127.422777 83.397542 
L 126.26235 83.270489 
L 125.101922 83.174487 
L 123.941494 83.076848 
L 122.781066 82.981802 
L 121.620638 82.889793 
L 120.460211 82.79886 
L 119.299783 82.715542 
L 118.139355 82.620273 
L 116.978927 82.524983 
L 115.818499 82.433635 
L 114.658072 82.328854 
L 113.497644 82.214049 
L 112.337216 82.123199 
L 111.176788 82.049482 
L 110.01636 81.956463 
L 108.855932 81.861839 
L 107.695505 81.719999 
L 106.535077 81.605632 
L 105.374649 81.499539 
L 104.214221 81.389298 
L 103.053793 81.298288 
L 101.893366 81.20292 
L 100.732938 81.121293 
L 99.57251 81.002164 
L 98.412082 80.907884 
L 97.251654 80.822679 
L 96.091227 80.711287 
L 94.930799 80.601105 
L 93.770371 80.515629 
L 92.609943 80.445865 
L 91.449515 80.341521 
L 90.289088 80.232183 
L 89.12866 80.086097 
L 87.968232 79.949545 
L 86.807804 79.82455 
L 85.647376 79.65307 
L 84.486949 79.571966 
L 83.326521 79.443144 
L 82.166093 79.319388 
L 81.005665 79.189151 
L 79.845237 79.030343 
L 78.684809 78.877594 
L 77.524382 78.711088 
L 76.363954 78.582833 
L 75.203526 78.457389 
L 74.043098 78.349436 
L 72.88267 78.155351 
L 71.722243 77.972812 
L 70.561815 77.797857 
L 69.401387 77.619447 
L 68.240959 77.436587 
L 67.080531 77.215809 
L 65.920104 76.965023 
L 64.759676 76.740601 
L 63.599248 76.522536 
L 62.43882 76.333025 
L 61.278392 76.151427 
L 60.117965 75.862098 
L 58.957537 75.512217 
L 57.797109 75.205622 
L 56.636681 74.835338 
L 55.476253 74.05219 
L 54.315826 73.033088 
L 53.155398 71.511724 
z
" style="fill:#00b945;fill-opacity:0.15;"/>
   </g>
   <g id="PolyCollection_4">
    <path clip-path="url(#pbe99043dc0)" d="M 53.155398 99.816137 
L 53.155398 136.852409 
L 54.315826 156.189538 
L 55.476253 182.014966 
L 56.636681 198.297067 
L 57.797109 211.756062 
L 58.957537 221.150684 
L 60.117965 226.485774 
L 61.278392 233.95001 
L 62.43882 241.163508 
L 63.599248 247.81355 
L 64.759676 251.876505 
L 65.920104 254.349774 
L 67.080531 257.772933 
L 68.240959 260.345499 
L 69.401387 263.138657 
L 70.561815 265.92937 
L 71.722243 269.673603 
L 72.88267 270.908846 
L 74.043098 275.506654 
L 75.203526 277.937835 
L 76.363954 279.556048 
L 77.524382 281.281981 
L 78.684809 282.959629 
L 79.845237 284.795106 
L 81.005665 286.756792 
L 82.166093 288.128503 
L 83.326521 289.951078 
L 84.486949 290.861716 
L 85.647376 292.429907 
L 86.807804 294.067389 
L 87.968232 295.683163 
L 89.12866 298.505908 
L 90.289088 299.13679 
L 91.449515 300.727159 
L 92.609943 302.088149 
L 93.770371 304.875493 
L 94.930799 308.00665 
L 96.091227 310.580492 
L 97.251654 311.880693 
L 98.412082 313.263962 
L 99.57251 315.049738 
L 100.732938 315.886001 
L 101.893366 317.315941 
L 103.053793 318.245951 
L 104.214221 319.760397 
L 105.374649 321.45303 
L 106.535077 323.782518 
L 107.695505 324.859352 
L 108.855932 326.761335 
L 110.01636 328.54864 
L 111.176788 330.44721 
L 112.337216 333.280996 
L 113.497644 335.145727 
L 114.658072 338.271987 
L 115.818499 339.450179 
L 116.978927 341.536683 
L 118.139355 343.634344 
L 119.299783 344.502924 
L 120.460211 346.060844 
L 121.620638 347.122872 
L 122.781066 348.611311 
L 123.941494 349.401141 
L 125.101922 351.771366 
L 126.26235 352.589018 
L 127.422777 353.624634 
L 128.583205 355.081151 
L 129.743633 355.938924 
L 130.904061 357.562903 
L 132.064489 361.017807 
L 133.224916 362.58842 
L 134.385344 363.843717 
L 135.545772 364.505656 
L 136.7062 366.40844 
L 137.866628 367.707867 
L 139.027055 368.930335 
L 140.187483 371.009594 
L 141.347911 372.068497 
L 142.508339 373.260812 
L 143.668767 374.454665 
L 144.829195 375.378635 
L 145.989622 376.499547 
L 147.15005 379.844778 
L 148.310478 381.36505 
L 149.470906 382.591524 
L 150.631334 384.023903 
L 151.791761 385.699776 
L 152.952189 386.991324 
L 154.112617 389.543309 
L 155.273045 391.418942 
L 156.433473 394.236858 
L 157.5939 395.432373 
L 158.754328 398.20915 
L 159.914756 399.439743 
L 161.075184 400.562377 
L 162.235612 401.37383 
L 163.396039 402.513276 
L 164.556467 403.943201 
L 165.716895 405.318501 
L 166.877323 406.782389 
L 168.037751 409.138451 
L 169.198178 410.454842 
L 170.358606 413.179277 
L 171.519034 415.179155 
L 172.679462 417.280307 
L 173.83989 418.648065 
L 175.000318 419.348232 
L 176.160745 421.141301 
L 177.321173 422.407939 
L 178.481601 423.585478 
L 179.642029 425.102102 
L 180.802457 426.145473 
L 181.962884 428.069583 
L 183.123312 430.542923 
L 184.28374 432.313443 
L 185.444168 434.062142 
L 186.604596 435.603589 
L 187.765023 436.982692 
L 188.925451 439.117633 
L 190.085879 440.146537 
L 191.246307 442.063767 
L 192.406735 444.156752 
L 193.567162 444.917821 
L 194.72759 446.324676 
L 195.888018 447.781774 
L 197.048446 449.672699 
L 198.208874 450.374318 
L 199.369301 457.063815 
L 200.529729 460.394971 
L 201.690157 463.639406 
L 202.850585 468.67246 
L 204.011013 472.089452 
L 205.171441 475.501197 
L 206.331868 477.325668 
L 207.492296 479.873701 
L 208.652724 481.542025 
L 209.813152 483.357688 
L 210.97358 488.563323 
L 212.134007 491.79233 
L 213.294435 495.901444 
L 214.454863 499.171325 
L 215.615291 512.34079 
L 216.775719 513.665524 
L 217.936146 515.640538 
L 219.096574 527.286535 
L 220.257002 533.513282 
L 221.41743 534.92926 
L 222.577858 542.589296 
L 223.738285 553.899106 
L 224.898713 566.005786 
L 226.059141 570.26937 
L 227.219569 581.814834 
L 228.379997 589.926955 
L 229.540424 607.341609 
L 230.700852 633.589475 
L 230.700852 376.87715 
L 230.700852 376.87715 
L 229.540424 358.215491 
L 228.379997 351.419483 
L 227.219569 343.109802 
L 226.059141 337.560135 
L 224.898713 332.745063 
L 223.738285 326.904844 
L 222.577858 322.130709 
L 221.41743 319.073215 
L 220.257002 317.657907 
L 219.096574 315.97441 
L 217.936146 312.566704 
L 216.775719 310.040437 
L 215.615291 306.64237 
L 214.454863 304.343145 
L 213.294435 301.884745 
L 212.134007 299.61616 
L 210.97358 295.582884 
L 209.813152 293.80956 
L 208.652724 291.13908 
L 207.492296 288.970646 
L 206.331868 287.115759 
L 205.171441 285.075202 
L 204.011013 282.919349 
L 202.850585 279.968582 
L 201.690157 278.619523 
L 200.529729 276.861381 
L 199.369301 274.533076 
L 198.208874 272.97935 
L 197.048446 271.623538 
L 195.888018 269.78652 
L 194.72759 268.404502 
L 193.567162 267.341889 
L 192.406735 265.170479 
L 191.246307 263.733916 
L 190.085879 262.485927 
L 188.925451 261.27338 
L 187.765023 259.71436 
L 186.604596 257.882943 
L 185.444168 256.055643 
L 184.28374 253.964011 
L 183.123312 253.128239 
L 181.962884 251.674207 
L 180.802457 250.32636 
L 179.642029 249.006269 
L 178.481601 247.681432 
L 177.321173 246.029867 
L 176.160745 244.017493 
L 175.000318 242.797044 
L 173.83989 241.721124 
L 172.679462 241.304743 
L 171.519034 239.297154 
L 170.358606 238.107273 
L 169.198178 237.109955 
L 168.037751 235.166101 
L 166.877323 234.298361 
L 165.716895 232.732387 
L 164.556467 231.48768 
L 163.396039 230.033341 
L 162.235612 228.83574 
L 161.075184 227.576549 
L 159.914756 226.61472 
L 158.754328 225.429462 
L 157.5939 224.317922 
L 156.433473 221.999952 
L 155.273045 220.877297 
L 154.112617 219.915259 
L 152.952189 218.879613 
L 151.791761 217.90187 
L 150.631334 216.471964 
L 149.470906 215.335388 
L 148.310478 214.319046 
L 147.15005 213.468249 
L 145.989622 212.010303 
L 144.829195 211.041465 
L 143.668767 209.380354 
L 142.508339 207.883193 
L 141.347911 207.303742 
L 140.187483 205.939729 
L 139.027055 205.189442 
L 137.866628 204.373957 
L 136.7062 202.794865 
L 135.545772 201.270738 
L 134.385344 199.673167 
L 133.224916 198.268237 
L 132.064489 196.734035 
L 130.904061 194.849551 
L 129.743633 193.479676 
L 128.583205 192.020378 
L 127.422777 190.683757 
L 126.26235 189.551166 
L 125.101922 188.042867 
L 123.941494 186.824404 
L 122.781066 186.296134 
L 121.620638 185.10916 
L 120.460211 183.667341 
L 119.299783 181.824727 
L 118.139355 180.717691 
L 116.978927 178.830505 
L 115.818499 175.73993 
L 114.658072 174.786455 
L 113.497644 173.496182 
L 112.337216 171.709314 
L 111.176788 170.413263 
L 110.01636 168.529566 
L 108.855932 167.16613 
L 107.695505 166.281436 
L 106.535077 165.484478 
L 105.374649 164.218437 
L 104.214221 163.309458 
L 103.053793 162.230087 
L 101.893366 161.020619 
L 100.732938 160.355569 
L 99.57251 159.334892 
L 98.412082 158.040494 
L 97.251654 155.433176 
L 96.091227 154.363689 
L 94.930799 152.910115 
L 93.770371 152.041388 
L 92.609943 151.013618 
L 91.449515 150.076389 
L 90.289088 149.11014 
L 89.12866 147.737188 
L 87.968232 146.309577 
L 86.807804 145.108073 
L 85.647376 143.96854 
L 84.486949 142.562371 
L 83.326521 140.978548 
L 82.166093 140.100174 
L 81.005665 138.851328 
L 79.845237 137.844763 
L 78.684809 136.036019 
L 77.524382 134.729227 
L 76.363954 133.494467 
L 75.203526 131.781947 
L 74.043098 130.668981 
L 72.88267 128.983042 
L 71.722243 127.523102 
L 70.561815 125.826375 
L 69.401387 124.367074 
L 68.240959 122.85167 
L 67.080531 121.983016 
L 65.920104 120.934239 
L 64.759676 119.63554 
L 63.599248 118.406045 
L 62.43882 117.014492 
L 61.278392 115.539083 
L 60.117965 114.324782 
L 58.957537 112.702553 
L 57.797109 111.094017 
L 56.636681 109.466231 
L 55.476253 107.697972 
L 54.315826 105.191258 
L 53.155398 99.816137 
z
" style="fill:#ff2c00;fill-opacity:0.15;"/>
   </g>
   <g id="PolyCollection_5">
    <path clip-path="url(#pbe99043dc0)" d="M 53.155398 46.8902 
L 53.155398 50.118781 
L 54.315826 50.770393 
L 55.476253 51.211468 
L 56.636681 51.5938 
L 57.797109 51.868974 
L 58.957537 52.112656 
L 60.117965 52.337754 
L 61.278392 52.55731 
L 62.43882 52.776983 
L 63.599248 52.939963 
L 64.759676 53.146557 
L 65.920104 53.283963 
L 67.080531 53.439255 
L 68.240959 53.616868 
L 69.401387 53.756631 
L 70.561815 53.891658 
L 71.722243 54.041186 
L 72.88267 54.201575 
L 74.043098 54.335005 
L 75.203526 54.467568 
L 76.363954 54.643842 
L 77.524382 54.802414 
L 78.684809 54.959623 
L 79.845237 55.171466 
L 81.005665 55.340748 
L 82.166093 55.504384 
L 83.326521 55.635933 
L 84.486949 55.805084 
L 85.647376 56.042644 
L 86.807804 56.235717 
L 87.968232 56.444371 
L 89.12866 56.6471 
L 90.289088 56.895239 
L 91.449515 57.12752 
L 92.609943 57.362809 
L 93.770371 57.536287 
L 94.930799 57.859294 
L 96.091227 58.063511 
L 97.251654 58.29284 
L 98.412082 58.518053 
L 99.57251 58.690975 
L 100.732938 58.906159 
L 101.893366 59.021081 
L 103.053793 59.230163 
L 104.214221 59.411753 
L 105.374649 59.74742 
L 106.535077 59.989912 
L 107.695505 60.203524 
L 108.855932 60.420133 
L 110.01636 60.604564 
L 111.176788 60.835805 
L 112.337216 61.003599 
L 113.497644 61.259278 
L 114.658072 61.430754 
L 115.818499 61.588599 
L 116.978927 61.811204 
L 118.139355 62.036406 
L 119.299783 62.227986 
L 120.460211 62.394663 
L 121.620638 62.581798 
L 122.781066 62.767774 
L 123.941494 62.930621 
L 125.101922 63.144543 
L 126.26235 63.381863 
L 127.422777 63.608511 
L 128.583205 63.751564 
L 129.743633 63.94258 
L 130.904061 64.148963 
L 132.064489 64.309789 
L 133.224916 64.486412 
L 134.385344 64.70561 
L 135.545772 64.880393 
L 136.7062 65.051196 
L 137.866628 65.271976 
L 139.027055 65.432086 
L 140.187483 65.67621 
L 141.347911 65.895659 
L 142.508339 66.062791 
L 143.668767 66.233653 
L 144.829195 66.397108 
L 145.989622 66.60171 
L 147.15005 66.760387 
L 148.310478 66.962127 
L 149.470906 67.125713 
L 150.631334 67.319919 
L 151.791761 67.503307 
L 152.952189 67.676578 
L 154.112617 67.833747 
L 155.273045 67.9691 
L 156.433473 68.158191 
L 157.5939 68.287744 
L 158.754328 68.443509 
L 159.914756 68.613302 
L 161.075184 68.77525 
L 162.235612 68.919818 
L 163.396039 69.123157 
L 164.556467 69.264854 
L 165.716895 69.41657 
L 166.877323 69.603218 
L 168.037751 69.785688 
L 169.198178 69.995543 
L 170.358606 70.186198 
L 171.519034 70.308909 
L 172.679462 70.461771 
L 173.83989 70.730214 
L 175.000318 70.934114 
L 176.160745 71.11311 
L 177.321173 71.303582 
L 178.481601 71.484678 
L 179.642029 71.780536 
L 180.802457 71.967018 
L 181.962884 72.174824 
L 183.123312 72.42305 
L 184.28374 72.712152 
L 185.444168 72.931959 
L 186.604596 73.142001 
L 187.765023 73.384535 
L 188.925451 73.657763 
L 190.085879 73.957918 
L 191.246307 74.257623 
L 192.406735 74.529992 
L 193.567162 74.781704 
L 194.72759 75.122622 
L 195.888018 75.335685 
L 197.048446 75.678495 
L 198.208874 75.896884 
L 199.369301 76.155163 
L 200.529729 76.398349 
L 201.690157 76.655624 
L 202.850585 76.870766 
L 204.011013 77.201854 
L 205.171441 77.549091 
L 206.331868 77.820477 
L 207.492296 78.134748 
L 208.652724 78.458446 
L 209.813152 78.844187 
L 210.97358 79.414979 
L 212.134007 79.712116 
L 213.294435 80.162578 
L 214.454863 80.556512 
L 215.615291 81.063446 
L 216.775719 81.49903 
L 217.936146 82.072312 
L 219.096574 82.869363 
L 220.257002 83.689769 
L 221.41743 84.52044 
L 222.577858 85.46812 
L 223.738285 86.319735 
L 224.898713 87.730437 
L 226.059141 88.793787 
L 227.219569 91.010757 
L 228.379997 93.710357 
L 229.540424 96.433723 
L 230.700852 100.797842 
L 230.700852 94.786689 
L 230.700852 94.786689 
L 229.540424 89.973367 
L 228.379997 87.944148 
L 227.219569 84.978953 
L 226.059141 83.637886 
L 224.898713 82.533877 
L 223.738285 81.529066 
L 222.577858 80.918111 
L 221.41743 80.181998 
L 220.257002 79.658589 
L 219.096574 78.747718 
L 217.936146 77.973913 
L 216.775719 77.469354 
L 215.615291 77.089828 
L 214.454863 76.687419 
L 213.294435 76.274278 
L 212.134007 75.944799 
L 210.97358 75.604725 
L 209.813152 75.250928 
L 208.652724 74.926827 
L 207.492296 74.622256 
L 206.331868 74.302912 
L 205.171441 74.066322 
L 204.011013 73.816305 
L 202.850585 73.634674 
L 201.690157 73.37092 
L 200.529729 73.122776 
L 199.369301 72.839884 
L 198.208874 72.565028 
L 197.048446 72.336302 
L 195.888018 72.109999 
L 194.72759 71.900393 
L 193.567162 71.621288 
L 192.406735 71.422014 
L 191.246307 71.193234 
L 190.085879 70.957944 
L 188.925451 70.72671 
L 187.765023 70.508705 
L 186.604596 70.295596 
L 185.444168 70.001914 
L 184.28374 69.770038 
L 183.123312 69.544959 
L 181.962884 69.326982 
L 180.802457 69.077992 
L 179.642029 68.908168 
L 178.481601 68.668897 
L 177.321173 68.507309 
L 176.160745 68.269522 
L 175.000318 68.138105 
L 173.83989 67.949394 
L 172.679462 67.811062 
L 171.519034 67.625477 
L 170.358606 67.456175 
L 169.198178 67.245531 
L 168.037751 67.082507 
L 166.877323 66.858987 
L 165.716895 66.691838 
L 164.556467 66.527492 
L 163.396039 66.333737 
L 162.235612 66.196308 
L 161.075184 66.052663 
L 159.914756 65.902748 
L 158.754328 65.752689 
L 157.5939 65.593947 
L 156.433473 65.378647 
L 155.273045 65.206209 
L 154.112617 65.027818 
L 152.952189 64.875192 
L 151.791761 64.729998 
L 150.631334 64.512734 
L 149.470906 64.351192 
L 148.310478 64.246517 
L 147.15005 64.048512 
L 145.989622 63.841775 
L 144.829195 63.677772 
L 143.668767 63.527762 
L 142.508339 63.329912 
L 141.347911 63.164993 
L 140.187483 62.984538 
L 139.027055 62.838723 
L 137.866628 62.627304 
L 136.7062 62.485512 
L 135.545772 62.327273 
L 134.385344 62.167627 
L 133.224916 61.98456 
L 132.064489 61.773939 
L 130.904061 61.576249 
L 129.743633 61.37813 
L 128.583205 61.161961 
L 127.422777 60.953985 
L 126.26235 60.73934 
L 125.101922 60.560369 
L 123.941494 60.375676 
L 122.781066 60.214173 
L 121.620638 60.07289 
L 120.460211 59.917465 
L 119.299783 59.698324 
L 118.139355 59.552461 
L 116.978927 59.375945 
L 115.818499 59.176861 
L 114.658072 58.998464 
L 113.497644 58.766035 
L 112.337216 58.615748 
L 111.176788 58.426834 
L 110.01636 58.208751 
L 108.855932 57.950328 
L 107.695505 57.78036 
L 106.535077 57.540286 
L 105.374649 57.361134 
L 104.214221 57.08403 
L 103.053793 56.828625 
L 101.893366 56.666529 
L 100.732938 56.427473 
L 99.57251 56.176536 
L 98.412082 55.971156 
L 97.251654 55.704144 
L 96.091227 55.435049 
L 94.930799 55.2629 
L 93.770371 55.035721 
L 92.609943 54.810959 
L 91.449515 54.5501 
L 90.289088 54.312418 
L 89.12866 54.025243 
L 87.968232 53.801929 
L 86.807804 53.546846 
L 85.647376 53.302549 
L 84.486949 53.063639 
L 83.326521 52.904227 
L 82.166093 52.696559 
L 81.005665 52.532711 
L 79.845237 52.371001 
L 78.684809 52.150102 
L 77.524382 52.000121 
L 76.363954 51.853968 
L 75.203526 51.654364 
L 74.043098 51.437128 
L 72.88267 51.263039 
L 71.722243 51.083748 
L 70.561815 50.957959 
L 69.401387 50.79923 
L 68.240959 50.627078 
L 67.080531 50.459255 
L 65.920104 50.266165 
L 64.759676 50.081057 
L 63.599248 49.934999 
L 62.43882 49.700489 
L 61.278392 49.476346 
L 60.117965 49.259297 
L 58.957537 49.026034 
L 57.797109 48.759111 
L 56.636681 48.491718 
L 55.476253 48.144023 
L 54.315826 47.682162 
L 53.155398 46.8902 
z
" style="fill:#845b97;fill-opacity:0.15;"/>
   </g>
   <g id="matplotlib.axis_1">
    <g id="xtick_1">
     <g id="line2d_1">
      <defs>
       <path d="M 0 0 
L 0 -3 
" id="ma449f7747c" style="stroke:#000000;stroke-width:0.5;"/>
      </defs>
      <g>
       <use style="stroke:#000000;stroke-width:0.5;" x="53.155398" xlink:href="#ma449f7747c" y="150.094219"/>
      </g>
     </g>
     <g id="line2d_2">
      <defs>
       <path d="M 0 0 
L 0 3 
" id="m846cb7c6ce" style="stroke:#000000;stroke-width:0.5;"/>
      </defs>
      <g>
       <use style="stroke:#000000;stroke-width:0.5;" x="53.155398" xlink:href="#m846cb7c6ce" y="7.399219"/>
      </g>
     </g>
     <g id="text_1">
      <!-- 0 -->
      <g transform="translate(49.974148 161.192656)scale(0.1 -0.1)">
       <defs>
        <path d="M 2034 4250 
Q 1547 4250 1301 3770 
Q 1056 3291 1056 2328 
Q 1056 1369 1301 889 
Q 1547 409 2034 409 
Q 2525 409 2770 889 
Q 3016 1369 3016 2328 
Q 3016 3291 2770 3770 
Q 2525 4250 2034 4250 
z
M 2034 4750 
Q 2819 4750 3233 4129 
Q 3647 3509 3647 2328 
Q 3647 1150 3233 529 
Q 2819 -91 2034 -91 
Q 1250 -91 836 529 
Q 422 1150 422 2328 
Q 422 3509 836 4129 
Q 1250 4750 2034 4750 
z
" id="DejaVuSans-30" transform="scale(0.015625)"/>
       </defs>
       <use xlink:href="#DejaVuSans-30"/>
      </g>
     </g>
    </g>
    <g id="xtick_2">
     <g id="line2d_3">
      <g>
       <use style="stroke:#000000;stroke-width:0.5;" x="111.176788" xlink:href="#ma449f7747c" y="150.094219"/>
      </g>
     </g>
     <g id="line2d_4">
      <g>
       <use style="stroke:#000000;stroke-width:0.5;" x="111.176788" xlink:href="#m846cb7c6ce" y="7.399219"/>
      </g>
     </g>
     <g id="text_2">
      <!-- 50 -->
      <g transform="translate(104.814288 161.192656)scale(0.1 -0.1)">
       <defs>
        <path d="M 691 4666 
L 3169 4666 
L 3169 4134 
L 1269 4134 
L 1269 2991 
Q 1406 3038 1543 3061 
Q 1681 3084 1819 3084 
Q 2600 3084 3056 2656 
Q 3513 2228 3513 1497 
Q 3513 744 3044 326 
Q 2575 -91 1722 -91 
Q 1428 -91 1123 -41 
Q 819 9 494 109 
L 494 744 
Q 775 591 1075 516 
Q 1375 441 1709 441 
Q 2250 441 2565 725 
Q 2881 1009 2881 1497 
Q 2881 1984 2565 2268 
Q 2250 2553 1709 2553 
Q 1456 2553 1204 2497 
Q 953 2441 691 2322 
L 691 4666 
z
" id="DejaVuSans-35" transform="scale(0.015625)"/>
       </defs>
       <use xlink:href="#DejaVuSans-35"/>
       <use x="63.623047" xlink:href="#DejaVuSans-30"/>
      </g>
     </g>
    </g>
    <g id="xtick_3">
     <g id="line2d_5">
      <g>
       <use style="stroke:#000000;stroke-width:0.5;" x="169.198178" xlink:href="#ma449f7747c" y="150.094219"/>
      </g>
     </g>
     <g id="line2d_6">
      <g>
       <use style="stroke:#000000;stroke-width:0.5;" x="169.198178" xlink:href="#m846cb7c6ce" y="7.399219"/>
      </g>
     </g>
     <g id="text_3">
      <!-- 100 -->
      <g transform="translate(159.654428 161.192656)scale(0.1 -0.1)">
       <defs>
        <path d="M 794 531 
L 1825 531 
L 1825 4091 
L 703 3866 
L 703 4441 
L 1819 4666 
L 2450 4666 
L 2450 531 
L 3481 531 
L 3481 0 
L 794 0 
L 794 531 
z
" id="DejaVuSans-31" transform="scale(0.015625)"/>
       </defs>
       <use xlink:href="#DejaVuSans-31"/>
       <use x="63.623047" xlink:href="#DejaVuSans-30"/>
       <use x="127.246094" xlink:href="#DejaVuSans-30"/>
      </g>
     </g>
    </g>
    <g id="xtick_4">
     <g id="line2d_7">
      <g>
       <use style="stroke:#000000;stroke-width:0.5;" x="227.219569" xlink:href="#ma449f7747c" y="150.094219"/>
      </g>
     </g>
     <g id="line2d_8">
      <g>
       <use style="stroke:#000000;stroke-width:0.5;" x="227.219569" xlink:href="#m846cb7c6ce" y="7.399219"/>
      </g>
     </g>
     <g id="text_4">
      <!-- 150 -->
      <g transform="translate(217.675819 161.192656)scale(0.1 -0.1)">
       <use xlink:href="#DejaVuSans-31"/>
       <use x="63.623047" xlink:href="#DejaVuSans-35"/>
       <use x="127.246094" xlink:href="#DejaVuSans-30"/>
      </g>
     </g>
    </g>
    <g id="xtick_5">
     <g id="line2d_9">
      <defs>
       <path d="M 0 0 
L 0 -1.5 
" id="ma5c39fbb3a" style="stroke:#000000;stroke-width:0.5;"/>
      </defs>
      <g>
       <use style="stroke:#000000;stroke-width:0.5;" x="64.759676" xlink:href="#ma5c39fbb3a" y="150.094219"/>
      </g>
     </g>
     <g id="line2d_10">
      <defs>
       <path d="M 0 0 
L 0 1.5 
" id="md644baf5dd" style="stroke:#000000;stroke-width:0.5;"/>
      </defs>
      <g>
       <use style="stroke:#000000;stroke-width:0.5;" x="64.759676" xlink:href="#md644baf5dd" y="7.399219"/>
      </g>
     </g>
    </g>
    <g id="xtick_6">
     <g id="line2d_11">
      <g>
       <use style="stroke:#000000;stroke-width:0.5;" x="76.363954" xlink:href="#ma5c39fbb3a" y="150.094219"/>
      </g>
     </g>
     <g id="line2d_12">
      <g>
       <use style="stroke:#000000;stroke-width:0.5;" x="76.363954" xlink:href="#md644baf5dd" y="7.399219"/>
      </g>
     </g>
    </g>
    <g id="xtick_7">
     <g id="line2d_13">
      <g>
       <use style="stroke:#000000;stroke-width:0.5;" x="87.968232" xlink:href="#ma5c39fbb3a" y="150.094219"/>
      </g>
     </g>
     <g id="line2d_14">
      <g>
       <use style="stroke:#000000;stroke-width:0.5;" x="87.968232" xlink:href="#md644baf5dd" y="7.399219"/>
      </g>
     </g>
    </g>
    <g id="xtick_8">
     <g id="line2d_15">
      <g>
       <use style="stroke:#000000;stroke-width:0.5;" x="99.57251" xlink:href="#ma5c39fbb3a" y="150.094219"/>
      </g>
     </g>
     <g id="line2d_16">
      <g>
       <use style="stroke:#000000;stroke-width:0.5;" x="99.57251" xlink:href="#md644baf5dd" y="7.399219"/>
      </g>
     </g>
    </g>
    <g id="xtick_9">
     <g id="line2d_17">
      <g>
       <use style="stroke:#000000;stroke-width:0.5;" x="122.781066" xlink:href="#ma5c39fbb3a" y="150.094219"/>
      </g>
     </g>
     <g id="line2d_18">
      <g>
       <use style="stroke:#000000;stroke-width:0.5;" x="122.781066" xlink:href="#md644baf5dd" y="7.399219"/>
      </g>
     </g>
    </g>
    <g id="xtick_10">
     <g id="line2d_19">
      <g>
       <use style="stroke:#000000;stroke-width:0.5;" x="134.385344" xlink:href="#ma5c39fbb3a" y="150.094219"/>
      </g>
     </g>
     <g id="line2d_20">
      <g>
       <use style="stroke:#000000;stroke-width:0.5;" x="134.385344" xlink:href="#md644baf5dd" y="7.399219"/>
      </g>
     </g>
    </g>
    <g id="xtick_11">
     <g id="line2d_21">
      <g>
       <use style="stroke:#000000;stroke-width:0.5;" x="145.989622" xlink:href="#ma5c39fbb3a" y="150.094219"/>
      </g>
     </g>
     <g id="line2d_22">
      <g>
       <use style="stroke:#000000;stroke-width:0.5;" x="145.989622" xlink:href="#md644baf5dd" y="7.399219"/>
      </g>
     </g>
    </g>
    <g id="xtick_12">
     <g id="line2d_23">
      <g>
       <use style="stroke:#000000;stroke-width:0.5;" x="157.5939" xlink:href="#ma5c39fbb3a" y="150.094219"/>
      </g>
     </g>
     <g id="line2d_24">
      <g>
       <use style="stroke:#000000;stroke-width:0.5;" x="157.5939" xlink:href="#md644baf5dd" y="7.399219"/>
      </g>
     </g>
    </g>
    <g id="xtick_13">
     <g id="line2d_25">
      <g>
       <use style="stroke:#000000;stroke-width:0.5;" x="180.802457" xlink:href="#ma5c39fbb3a" y="150.094219"/>
      </g>
     </g>
     <g id="line2d_26">
      <g>
       <use style="stroke:#000000;stroke-width:0.5;" x="180.802457" xlink:href="#md644baf5dd" y="7.399219"/>
      </g>
     </g>
    </g>
    <g id="xtick_14">
     <g id="line2d_27">
      <g>
       <use style="stroke:#000000;stroke-width:0.5;" x="192.406735" xlink:href="#ma5c39fbb3a" y="150.094219"/>
      </g>
     </g>
     <g id="line2d_28">
      <g>
       <use style="stroke:#000000;stroke-width:0.5;" x="192.406735" xlink:href="#md644baf5dd" y="7.399219"/>
      </g>
     </g>
    </g>
    <g id="xtick_15">
     <g id="line2d_29">
      <g>
       <use style="stroke:#000000;stroke-width:0.5;" x="204.011013" xlink:href="#ma5c39fbb3a" y="150.094219"/>
      </g>
     </g>
     <g id="line2d_30">
      <g>
       <use style="stroke:#000000;stroke-width:0.5;" x="204.011013" xlink:href="#md644baf5dd" y="7.399219"/>
      </g>
     </g>
    </g>
    <g id="xtick_16">
     <g id="line2d_31">
      <g>
       <use style="stroke:#000000;stroke-width:0.5;" x="215.615291" xlink:href="#ma5c39fbb3a" y="150.094219"/>
      </g>
     </g>
     <g id="line2d_32">
      <g>
       <use style="stroke:#000000;stroke-width:0.5;" x="215.615291" xlink:href="#md644baf5dd" y="7.399219"/>
      </g>
     </g>
    </g>
    <g id="xtick_17">
     <g id="line2d_33">
      <g>
       <use style="stroke:#000000;stroke-width:0.5;" x="238.823847" xlink:href="#ma5c39fbb3a" y="150.094219"/>
      </g>
     </g>
     <g id="line2d_34">
      <g>
       <use style="stroke:#000000;stroke-width:0.5;" x="238.823847" xlink:href="#md644baf5dd" y="7.399219"/>
      </g>
     </g>
    </g>
    <g id="text_5">
     <!-- # Magnets -->
     <g transform="translate(114.786719 174.870781)scale(0.1 -0.1)">
      <defs>
       <path d="M 3272 2816 
L 2363 2816 
L 2100 1772 
L 3016 1772 
L 3272 2816 
z
M 2803 4594 
L 2478 3297 
L 3391 3297 
L 3719 4594 
L 4219 4594 
L 3897 3297 
L 4872 3297 
L 4872 2816 
L 3775 2816 
L 3519 1772 
L 4513 1772 
L 4513 1294 
L 3397 1294 
L 3072 0 
L 2572 0 
L 2894 1294 
L 1978 1294 
L 1656 0 
L 1153 0 
L 1478 1294 
L 494 1294 
L 494 1772 
L 1594 1772 
L 1856 2816 
L 850 2816 
L 850 3297 
L 1978 3297 
L 2297 4594 
L 2803 4594 
z
" id="DejaVuSans-23" transform="scale(0.015625)"/>
       <path id="DejaVuSans-20" transform="scale(0.015625)"/>
       <path d="M 628 4666 
L 1569 4666 
L 2759 1491 
L 3956 4666 
L 4897 4666 
L 4897 0 
L 4281 0 
L 4281 4097 
L 3078 897 
L 2444 897 
L 1241 4097 
L 1241 0 
L 628 0 
L 628 4666 
z
" id="DejaVuSans-4d" transform="scale(0.015625)"/>
       <path d="M 2194 1759 
Q 1497 1759 1228 1600 
Q 959 1441 959 1056 
Q 959 750 1161 570 
Q 1363 391 1709 391 
Q 2188 391 2477 730 
Q 2766 1069 2766 1631 
L 2766 1759 
L 2194 1759 
z
M 3341 1997 
L 3341 0 
L 2766 0 
L 2766 531 
Q 2569 213 2275 61 
Q 1981 -91 1556 -91 
Q 1019 -91 701 211 
Q 384 513 384 1019 
Q 384 1609 779 1909 
Q 1175 2209 1959 2209 
L 2766 2209 
L 2766 2266 
Q 2766 2663 2505 2880 
Q 2244 3097 1772 3097 
Q 1472 3097 1187 3025 
Q 903 2953 641 2809 
L 641 3341 
Q 956 3463 1253 3523 
Q 1550 3584 1831 3584 
Q 2591 3584 2966 3190 
Q 3341 2797 3341 1997 
z
" id="DejaVuSans-61" transform="scale(0.015625)"/>
       <path d="M 2906 1791 
Q 2906 2416 2648 2759 
Q 2391 3103 1925 3103 
Q 1463 3103 1205 2759 
Q 947 2416 947 1791 
Q 947 1169 1205 825 
Q 1463 481 1925 481 
Q 2391 481 2648 825 
Q 2906 1169 2906 1791 
z
M 3481 434 
Q 3481 -459 3084 -895 
Q 2688 -1331 1869 -1331 
Q 1566 -1331 1297 -1286 
Q 1028 -1241 775 -1147 
L 775 -588 
Q 1028 -725 1275 -790 
Q 1522 -856 1778 -856 
Q 2344 -856 2625 -561 
Q 2906 -266 2906 331 
L 2906 616 
Q 2728 306 2450 153 
Q 2172 0 1784 0 
Q 1141 0 747 490 
Q 353 981 353 1791 
Q 353 2603 747 3093 
Q 1141 3584 1784 3584 
Q 2172 3584 2450 3431 
Q 2728 3278 2906 2969 
L 2906 3500 
L 3481 3500 
L 3481 434 
z
" id="DejaVuSans-67" transform="scale(0.015625)"/>
       <path d="M 3513 2113 
L 3513 0 
L 2938 0 
L 2938 2094 
Q 2938 2591 2744 2837 
Q 2550 3084 2163 3084 
Q 1697 3084 1428 2787 
Q 1159 2491 1159 1978 
L 1159 0 
L 581 0 
L 581 3500 
L 1159 3500 
L 1159 2956 
Q 1366 3272 1645 3428 
Q 1925 3584 2291 3584 
Q 2894 3584 3203 3211 
Q 3513 2838 3513 2113 
z
" id="DejaVuSans-6e" transform="scale(0.015625)"/>
       <path d="M 3597 1894 
L 3597 1613 
L 953 1613 
Q 991 1019 1311 708 
Q 1631 397 2203 397 
Q 2534 397 2845 478 
Q 3156 559 3463 722 
L 3463 178 
Q 3153 47 2828 -22 
Q 2503 -91 2169 -91 
Q 1331 -91 842 396 
Q 353 884 353 1716 
Q 353 2575 817 3079 
Q 1281 3584 2069 3584 
Q 2775 3584 3186 3129 
Q 3597 2675 3597 1894 
z
M 3022 2063 
Q 3016 2534 2758 2815 
Q 2500 3097 2075 3097 
Q 1594 3097 1305 2825 
Q 1016 2553 972 2059 
L 3022 2063 
z
" id="DejaVuSans-65" transform="scale(0.015625)"/>
       <path d="M 1172 4494 
L 1172 3500 
L 2356 3500 
L 2356 3053 
L 1172 3053 
L 1172 1153 
Q 1172 725 1289 603 
Q 1406 481 1766 481 
L 2356 481 
L 2356 0 
L 1766 0 
Q 1100 0 847 248 
Q 594 497 594 1153 
L 594 3053 
L 172 3053 
L 172 3500 
L 594 3500 
L 594 4494 
L 1172 4494 
z
" id="DejaVuSans-74" transform="scale(0.015625)"/>
       <path d="M 2834 3397 
L 2834 2853 
Q 2591 2978 2328 3040 
Q 2066 3103 1784 3103 
Q 1356 3103 1142 2972 
Q 928 2841 928 2578 
Q 928 2378 1081 2264 
Q 1234 2150 1697 2047 
L 1894 2003 
Q 2506 1872 2764 1633 
Q 3022 1394 3022 966 
Q 3022 478 2636 193 
Q 2250 -91 1575 -91 
Q 1294 -91 989 -36 
Q 684 19 347 128 
L 347 722 
Q 666 556 975 473 
Q 1284 391 1588 391 
Q 1994 391 2212 530 
Q 2431 669 2431 922 
Q 2431 1156 2273 1281 
Q 2116 1406 1581 1522 
L 1381 1569 
Q 847 1681 609 1914 
Q 372 2147 372 2553 
Q 372 3047 722 3315 
Q 1072 3584 1716 3584 
Q 2034 3584 2315 3537 
Q 2597 3491 2834 3397 
z
" id="DejaVuSans-73" transform="scale(0.015625)"/>
      </defs>
      <use xlink:href="#DejaVuSans-23"/>
      <use x="83.789062" xlink:href="#DejaVuSans-20"/>
      <use x="115.576172" xlink:href="#DejaVuSans-4d"/>
      <use x="201.855469" xlink:href="#DejaVuSans-61"/>
      <use x="263.134766" xlink:href="#DejaVuSans-67"/>
      <use x="326.611328" xlink:href="#DejaVuSans-6e"/>
      <use x="389.990234" xlink:href="#DejaVuSans-65"/>
      <use x="451.513672" xlink:href="#DejaVuSans-74"/>
      <use x="490.722656" xlink:href="#DejaVuSans-73"/>
     </g>
    </g>
   </g>
   <g id="matplotlib.axis_2">
    <g id="ytick_1">
     <g id="line2d_35">
      <defs>
       <path d="M 0 0 
L 3 0 
" id="m35e1af5b57" style="stroke:#000000;stroke-width:0.5;"/>
      </defs>
      <g>
       <use style="stroke:#000000;stroke-width:0.5;" x="44.278125" xlink:href="#m35e1af5b57" y="150.094219"/>
      </g>
     </g>
     <g id="line2d_36">
      <defs>
       <path d="M 0 0 
L -3 0 
" id="m7cffa5d555" style="stroke:#000000;stroke-width:0.5;"/>
      </defs>
      <g>
       <use style="stroke:#000000;stroke-width:0.5;" x="239.578125" xlink:href="#m7cffa5d555" y="150.094219"/>
      </g>
     </g>
     <g id="text_6">
      <!-- $\mathdefault{10^{-6}}$ -->
      <g transform="translate(17.278125 153.893437)scale(0.1 -0.1)">
       <defs>
        <path d="M 678 2272 
L 4684 2272 
L 4684 1741 
L 678 1741 
L 678 2272 
z
" id="DejaVuSans-2212" transform="scale(0.015625)"/>
        <path d="M 2113 2584 
Q 1688 2584 1439 2293 
Q 1191 2003 1191 1497 
Q 1191 994 1439 701 
Q 1688 409 2113 409 
Q 2538 409 2786 701 
Q 3034 994 3034 1497 
Q 3034 2003 2786 2293 
Q 2538 2584 2113 2584 
z
M 3366 4563 
L 3366 3988 
Q 3128 4100 2886 4159 
Q 2644 4219 2406 4219 
Q 1781 4219 1451 3797 
Q 1122 3375 1075 2522 
Q 1259 2794 1537 2939 
Q 1816 3084 2150 3084 
Q 2853 3084 3261 2657 
Q 3669 2231 3669 1497 
Q 3669 778 3244 343 
Q 2819 -91 2113 -91 
Q 1303 -91 875 529 
Q 447 1150 447 2328 
Q 447 3434 972 4092 
Q 1497 4750 2381 4750 
Q 2619 4750 2861 4703 
Q 3103 4656 3366 4563 
z
" id="DejaVuSans-36" transform="scale(0.015625)"/>
       </defs>
       <use transform="translate(0 0.765625)" xlink:href="#DejaVuSans-31"/>
       <use transform="translate(63.623047 0.765625)" xlink:href="#DejaVuSans-30"/>
       <use transform="translate(128.203125 39.046875)scale(0.7)" xlink:href="#DejaVuSans-2212"/>
       <use transform="translate(186.855469 39.046875)scale(0.7)" xlink:href="#DejaVuSans-36"/>
      </g>
     </g>
    </g>
    <g id="ytick_2">
     <g id="line2d_37">
      <g>
       <use style="stroke:#000000;stroke-width:0.5;" x="44.278125" xlink:href="#m35e1af5b57" y="121.555219"/>
      </g>
     </g>
     <g id="line2d_38">
      <g>
       <use style="stroke:#000000;stroke-width:0.5;" x="239.578125" xlink:href="#m7cffa5d555" y="121.555219"/>
      </g>
     </g>
     <g id="text_7">
      <!-- $\mathdefault{10^{-5}}$ -->
      <g transform="translate(17.278125 125.354437)scale(0.1 -0.1)">
       <use transform="translate(0 0.684375)" xlink:href="#DejaVuSans-31"/>
       <use transform="translate(63.623047 0.684375)" xlink:href="#DejaVuSans-30"/>
       <use transform="translate(128.203125 38.965625)scale(0.7)" xlink:href="#DejaVuSans-2212"/>
       <use transform="translate(186.855469 38.965625)scale(0.7)" xlink:href="#DejaVuSans-35"/>
      </g>
     </g>
    </g>
    <g id="ytick_3">
     <g id="line2d_39">
      <g>
       <use style="stroke:#000000;stroke-width:0.5;" x="44.278125" xlink:href="#m35e1af5b57" y="93.016219"/>
      </g>
     </g>
     <g id="line2d_40">
      <g>
       <use style="stroke:#000000;stroke-width:0.5;" x="239.578125" xlink:href="#m7cffa5d555" y="93.016219"/>
      </g>
     </g>
     <g id="text_8">
      <!-- $\mathdefault{10^{-4}}$ -->
      <g transform="translate(17.278125 96.815437)scale(0.1 -0.1)">
       <defs>
        <path d="M 2419 4116 
L 825 1625 
L 2419 1625 
L 2419 4116 
z
M 2253 4666 
L 3047 4666 
L 3047 1625 
L 3713 1625 
L 3713 1100 
L 3047 1100 
L 3047 0 
L 2419 0 
L 2419 1100 
L 313 1100 
L 313 1709 
L 2253 4666 
z
" id="DejaVuSans-34" transform="scale(0.015625)"/>
       </defs>
       <use transform="translate(0 0.684375)" xlink:href="#DejaVuSans-31"/>
       <use transform="translate(63.623047 0.684375)" xlink:href="#DejaVuSans-30"/>
       <use transform="translate(128.203125 38.965625)scale(0.7)" xlink:href="#DejaVuSans-2212"/>
       <use transform="translate(186.855469 38.965625)scale(0.7)" xlink:href="#DejaVuSans-34"/>
      </g>
     </g>
    </g>
    <g id="ytick_4">
     <g id="line2d_41">
      <g>
       <use style="stroke:#000000;stroke-width:0.5;" x="44.278125" xlink:href="#m35e1af5b57" y="64.477219"/>
      </g>
     </g>
     <g id="line2d_42">
      <g>
       <use style="stroke:#000000;stroke-width:0.5;" x="239.578125" xlink:href="#m7cffa5d555" y="64.477219"/>
      </g>
     </g>
     <g id="text_9">
      <!-- $\mathdefault{10^{-3}}$ -->
      <g transform="translate(17.278125 68.276437)scale(0.1 -0.1)">
       <defs>
        <path d="M 2597 2516 
Q 3050 2419 3304 2112 
Q 3559 1806 3559 1356 
Q 3559 666 3084 287 
Q 2609 -91 1734 -91 
Q 1441 -91 1130 -33 
Q 819 25 488 141 
L 488 750 
Q 750 597 1062 519 
Q 1375 441 1716 441 
Q 2309 441 2620 675 
Q 2931 909 2931 1356 
Q 2931 1769 2642 2001 
Q 2353 2234 1838 2234 
L 1294 2234 
L 1294 2753 
L 1863 2753 
Q 2328 2753 2575 2939 
Q 2822 3125 2822 3475 
Q 2822 3834 2567 4026 
Q 2313 4219 1838 4219 
Q 1578 4219 1281 4162 
Q 984 4106 628 3988 
L 628 4550 
Q 988 4650 1302 4700 
Q 1616 4750 1894 4750 
Q 2613 4750 3031 4423 
Q 3450 4097 3450 3541 
Q 3450 3153 3228 2886 
Q 3006 2619 2597 2516 
z
" id="DejaVuSans-33" transform="scale(0.015625)"/>
       </defs>
       <use transform="translate(0 0.765625)" xlink:href="#DejaVuSans-31"/>
       <use transform="translate(63.623047 0.765625)" xlink:href="#DejaVuSans-30"/>
       <use transform="translate(128.203125 39.046875)scale(0.7)" xlink:href="#DejaVuSans-2212"/>
       <use transform="translate(186.855469 39.046875)scale(0.7)" xlink:href="#DejaVuSans-33"/>
      </g>
     </g>
    </g>
    <g id="ytick_5">
     <g id="line2d_43">
      <g>
       <use style="stroke:#000000;stroke-width:0.5;" x="44.278125" xlink:href="#m35e1af5b57" y="35.938219"/>
      </g>
     </g>
     <g id="line2d_44">
      <g>
       <use style="stroke:#000000;stroke-width:0.5;" x="239.578125" xlink:href="#m7cffa5d555" y="35.938219"/>
      </g>
     </g>
     <g id="text_10">
      <!-- $\mathdefault{10^{-2}}$ -->
      <g transform="translate(17.278125 39.737437)scale(0.1 -0.1)">
       <defs>
        <path d="M 1228 531 
L 3431 531 
L 3431 0 
L 469 0 
L 469 531 
Q 828 903 1448 1529 
Q 2069 2156 2228 2338 
Q 2531 2678 2651 2914 
Q 2772 3150 2772 3378 
Q 2772 3750 2511 3984 
Q 2250 4219 1831 4219 
Q 1534 4219 1204 4116 
Q 875 4013 500 3803 
L 500 4441 
Q 881 4594 1212 4672 
Q 1544 4750 1819 4750 
Q 2544 4750 2975 4387 
Q 3406 4025 3406 3419 
Q 3406 3131 3298 2873 
Q 3191 2616 2906 2266 
Q 2828 2175 2409 1742 
Q 1991 1309 1228 531 
z
" id="DejaVuSans-32" transform="scale(0.015625)"/>
       </defs>
       <use transform="translate(0 0.765625)" xlink:href="#DejaVuSans-31"/>
       <use transform="translate(63.623047 0.765625)" xlink:href="#DejaVuSans-30"/>
       <use transform="translate(128.203125 39.046875)scale(0.7)" xlink:href="#DejaVuSans-2212"/>
       <use transform="translate(186.855469 39.046875)scale(0.7)" xlink:href="#DejaVuSans-32"/>
      </g>
     </g>
    </g>
    <g id="ytick_6">
     <g id="line2d_45">
      <g>
       <use style="stroke:#000000;stroke-width:0.5;" x="44.278125" xlink:href="#m35e1af5b57" y="7.399219"/>
      </g>
     </g>
     <g id="line2d_46">
      <g>
       <use style="stroke:#000000;stroke-width:0.5;" x="239.578125" xlink:href="#m7cffa5d555" y="7.399219"/>
      </g>
     </g>
     <g id="text_11">
      <!-- $\mathdefault{10^{-1}}$ -->
      <g transform="translate(17.278125 11.198437)scale(0.1 -0.1)">
       <use transform="translate(0 0.684375)" xlink:href="#DejaVuSans-31"/>
       <use transform="translate(63.623047 0.684375)" xlink:href="#DejaVuSans-30"/>
       <use transform="translate(128.203125 38.965625)scale(0.7)" xlink:href="#DejaVuSans-2212"/>
       <use transform="translate(186.855469 38.965625)scale(0.7)" xlink:href="#DejaVuSans-31"/>
      </g>
     </g>
    </g>
    <g id="ytick_7">
     <g id="line2d_47">
      <defs>
       <path d="M 0 0 
L 1.5 0 
" id="mc7ad51ef8d" style="stroke:#000000;stroke-width:0.5;"/>
      </defs>
      <g>
       <use style="stroke:#000000;stroke-width:0.5;" x="44.278125" xlink:href="#mc7ad51ef8d" y="141.503124"/>
      </g>
     </g>
     <g id="line2d_48">
      <defs>
       <path d="M 0 0 
L -1.5 0 
" id="me5de16aff1" style="stroke:#000000;stroke-width:0.5;"/>
      </defs>
      <g>
       <use style="stroke:#000000;stroke-width:0.5;" x="239.578125" xlink:href="#me5de16aff1" y="141.503124"/>
      </g>
     </g>
    </g>
    <g id="ytick_8">
     <g id="line2d_49">
      <g>
       <use style="stroke:#000000;stroke-width:0.5;" x="44.278125" xlink:href="#mc7ad51ef8d" y="136.477655"/>
      </g>
     </g>
     <g id="line2d_50">
      <g>
       <use style="stroke:#000000;stroke-width:0.5;" x="239.578125" xlink:href="#me5de16aff1" y="136.477655"/>
      </g>
     </g>
    </g>
    <g id="ytick_9">
     <g id="line2d_51">
      <g>
       <use style="stroke:#000000;stroke-width:0.5;" x="44.278125" xlink:href="#mc7ad51ef8d" y="132.912029"/>
      </g>
     </g>
     <g id="line2d_52">
      <g>
       <use style="stroke:#000000;stroke-width:0.5;" x="239.578125" xlink:href="#me5de16aff1" y="132.912029"/>
      </g>
     </g>
    </g>
    <g id="ytick_10">
     <g id="line2d_53">
      <g>
       <use style="stroke:#000000;stroke-width:0.5;" x="44.278125" xlink:href="#mc7ad51ef8d" y="130.146314"/>
      </g>
     </g>
     <g id="line2d_54">
      <g>
       <use style="stroke:#000000;stroke-width:0.5;" x="239.578125" xlink:href="#me5de16aff1" y="130.146314"/>
      </g>
     </g>
    </g>
    <g id="ytick_11">
     <g id="line2d_55">
      <g>
       <use style="stroke:#000000;stroke-width:0.5;" x="44.278125" xlink:href="#mc7ad51ef8d" y="127.88656"/>
      </g>
     </g>
     <g id="line2d_56">
      <g>
       <use style="stroke:#000000;stroke-width:0.5;" x="239.578125" xlink:href="#me5de16aff1" y="127.88656"/>
      </g>
     </g>
    </g>
    <g id="ytick_12">
     <g id="line2d_57">
      <g>
       <use style="stroke:#000000;stroke-width:0.5;" x="44.278125" xlink:href="#mc7ad51ef8d" y="125.975966"/>
      </g>
     </g>
     <g id="line2d_58">
      <g>
       <use style="stroke:#000000;stroke-width:0.5;" x="239.578125" xlink:href="#me5de16aff1" y="125.975966"/>
      </g>
     </g>
    </g>
    <g id="ytick_13">
     <g id="line2d_59">
      <g>
       <use style="stroke:#000000;stroke-width:0.5;" x="44.278125" xlink:href="#mc7ad51ef8d" y="124.320934"/>
      </g>
     </g>
     <g id="line2d_60">
      <g>
       <use style="stroke:#000000;stroke-width:0.5;" x="239.578125" xlink:href="#me5de16aff1" y="124.320934"/>
      </g>
     </g>
    </g>
    <g id="ytick_14">
     <g id="line2d_61">
      <g>
       <use style="stroke:#000000;stroke-width:0.5;" x="44.278125" xlink:href="#mc7ad51ef8d" y="122.861092"/>
      </g>
     </g>
     <g id="line2d_62">
      <g>
       <use style="stroke:#000000;stroke-width:0.5;" x="239.578125" xlink:href="#me5de16aff1" y="122.861092"/>
      </g>
     </g>
    </g>
    <g id="ytick_15">
     <g id="line2d_63">
      <g>
       <use style="stroke:#000000;stroke-width:0.5;" x="44.278125" xlink:href="#mc7ad51ef8d" y="112.964124"/>
      </g>
     </g>
     <g id="line2d_64">
      <g>
       <use style="stroke:#000000;stroke-width:0.5;" x="239.578125" xlink:href="#me5de16aff1" y="112.964124"/>
      </g>
     </g>
    </g>
    <g id="ytick_16">
     <g id="line2d_65">
      <g>
       <use style="stroke:#000000;stroke-width:0.5;" x="44.278125" xlink:href="#mc7ad51ef8d" y="107.938655"/>
      </g>
     </g>
     <g id="line2d_66">
      <g>
       <use style="stroke:#000000;stroke-width:0.5;" x="239.578125" xlink:href="#me5de16aff1" y="107.938655"/>
      </g>
     </g>
    </g>
    <g id="ytick_17">
     <g id="line2d_67">
      <g>
       <use style="stroke:#000000;stroke-width:0.5;" x="44.278125" xlink:href="#mc7ad51ef8d" y="104.373029"/>
      </g>
     </g>
     <g id="line2d_68">
      <g>
       <use style="stroke:#000000;stroke-width:0.5;" x="239.578125" xlink:href="#me5de16aff1" y="104.373029"/>
      </g>
     </g>
    </g>
    <g id="ytick_18">
     <g id="line2d_69">
      <g>
       <use style="stroke:#000000;stroke-width:0.5;" x="44.278125" xlink:href="#mc7ad51ef8d" y="101.607314"/>
      </g>
     </g>
     <g id="line2d_70">
      <g>
       <use style="stroke:#000000;stroke-width:0.5;" x="239.578125" xlink:href="#me5de16aff1" y="101.607314"/>
      </g>
     </g>
    </g>
    <g id="ytick_19">
     <g id="line2d_71">
      <g>
       <use style="stroke:#000000;stroke-width:0.5;" x="44.278125" xlink:href="#mc7ad51ef8d" y="99.34756"/>
      </g>
     </g>
     <g id="line2d_72">
      <g>
       <use style="stroke:#000000;stroke-width:0.5;" x="239.578125" xlink:href="#me5de16aff1" y="99.34756"/>
      </g>
     </g>
    </g>
    <g id="ytick_20">
     <g id="line2d_73">
      <g>
       <use style="stroke:#000000;stroke-width:0.5;" x="44.278125" xlink:href="#mc7ad51ef8d" y="97.436966"/>
      </g>
     </g>
     <g id="line2d_74">
      <g>
       <use style="stroke:#000000;stroke-width:0.5;" x="239.578125" xlink:href="#me5de16aff1" y="97.436966"/>
      </g>
     </g>
    </g>
    <g id="ytick_21">
     <g id="line2d_75">
      <g>
       <use style="stroke:#000000;stroke-width:0.5;" x="44.278125" xlink:href="#mc7ad51ef8d" y="95.781934"/>
      </g>
     </g>
     <g id="line2d_76">
      <g>
       <use style="stroke:#000000;stroke-width:0.5;" x="239.578125" xlink:href="#me5de16aff1" y="95.781934"/>
      </g>
     </g>
    </g>
    <g id="ytick_22">
     <g id="line2d_77">
      <g>
       <use style="stroke:#000000;stroke-width:0.5;" x="44.278125" xlink:href="#mc7ad51ef8d" y="94.322092"/>
      </g>
     </g>
     <g id="line2d_78">
      <g>
       <use style="stroke:#000000;stroke-width:0.5;" x="239.578125" xlink:href="#me5de16aff1" y="94.322092"/>
      </g>
     </g>
    </g>
    <g id="ytick_23">
     <g id="line2d_79">
      <g>
       <use style="stroke:#000000;stroke-width:0.5;" x="44.278125" xlink:href="#mc7ad51ef8d" y="84.425124"/>
      </g>
     </g>
     <g id="line2d_80">
      <g>
       <use style="stroke:#000000;stroke-width:0.5;" x="239.578125" xlink:href="#me5de16aff1" y="84.425124"/>
      </g>
     </g>
    </g>
    <g id="ytick_24">
     <g id="line2d_81">
      <g>
       <use style="stroke:#000000;stroke-width:0.5;" x="44.278125" xlink:href="#mc7ad51ef8d" y="79.399655"/>
      </g>
     </g>
     <g id="line2d_82">
      <g>
       <use style="stroke:#000000;stroke-width:0.5;" x="239.578125" xlink:href="#me5de16aff1" y="79.399655"/>
      </g>
     </g>
    </g>
    <g id="ytick_25">
     <g id="line2d_83">
      <g>
       <use style="stroke:#000000;stroke-width:0.5;" x="44.278125" xlink:href="#mc7ad51ef8d" y="75.834029"/>
      </g>
     </g>
     <g id="line2d_84">
      <g>
       <use style="stroke:#000000;stroke-width:0.5;" x="239.578125" xlink:href="#me5de16aff1" y="75.834029"/>
      </g>
     </g>
    </g>
    <g id="ytick_26">
     <g id="line2d_85">
      <g>
       <use style="stroke:#000000;stroke-width:0.5;" x="44.278125" xlink:href="#mc7ad51ef8d" y="73.068314"/>
      </g>
     </g>
     <g id="line2d_86">
      <g>
       <use style="stroke:#000000;stroke-width:0.5;" x="239.578125" xlink:href="#me5de16aff1" y="73.068314"/>
      </g>
     </g>
    </g>
    <g id="ytick_27">
     <g id="line2d_87">
      <g>
       <use style="stroke:#000000;stroke-width:0.5;" x="44.278125" xlink:href="#mc7ad51ef8d" y="70.80856"/>
      </g>
     </g>
     <g id="line2d_88">
      <g>
       <use style="stroke:#000000;stroke-width:0.5;" x="239.578125" xlink:href="#me5de16aff1" y="70.80856"/>
      </g>
     </g>
    </g>
    <g id="ytick_28">
     <g id="line2d_89">
      <g>
       <use style="stroke:#000000;stroke-width:0.5;" x="44.278125" xlink:href="#mc7ad51ef8d" y="68.897966"/>
      </g>
     </g>
     <g id="line2d_90">
      <g>
       <use style="stroke:#000000;stroke-width:0.5;" x="239.578125" xlink:href="#me5de16aff1" y="68.897966"/>
      </g>
     </g>
    </g>
    <g id="ytick_29">
     <g id="line2d_91">
      <g>
       <use style="stroke:#000000;stroke-width:0.5;" x="44.278125" xlink:href="#mc7ad51ef8d" y="67.242934"/>
      </g>
     </g>
     <g id="line2d_92">
      <g>
       <use style="stroke:#000000;stroke-width:0.5;" x="239.578125" xlink:href="#me5de16aff1" y="67.242934"/>
      </g>
     </g>
    </g>
    <g id="ytick_30">
     <g id="line2d_93">
      <g>
       <use style="stroke:#000000;stroke-width:0.5;" x="44.278125" xlink:href="#mc7ad51ef8d" y="65.783092"/>
      </g>
     </g>
     <g id="line2d_94">
      <g>
       <use style="stroke:#000000;stroke-width:0.5;" x="239.578125" xlink:href="#me5de16aff1" y="65.783092"/>
      </g>
     </g>
    </g>
    <g id="ytick_31">
     <g id="line2d_95">
      <g>
       <use style="stroke:#000000;stroke-width:0.5;" x="44.278125" xlink:href="#mc7ad51ef8d" y="55.886124"/>
      </g>
     </g>
     <g id="line2d_96">
      <g>
       <use style="stroke:#000000;stroke-width:0.5;" x="239.578125" xlink:href="#me5de16aff1" y="55.886124"/>
      </g>
     </g>
    </g>
    <g id="ytick_32">
     <g id="line2d_97">
      <g>
       <use style="stroke:#000000;stroke-width:0.5;" x="44.278125" xlink:href="#mc7ad51ef8d" y="50.860655"/>
      </g>
     </g>
     <g id="line2d_98">
      <g>
       <use style="stroke:#000000;stroke-width:0.5;" x="239.578125" xlink:href="#me5de16aff1" y="50.860655"/>
      </g>
     </g>
    </g>
    <g id="ytick_33">
     <g id="line2d_99">
      <g>
       <use style="stroke:#000000;stroke-width:0.5;" x="44.278125" xlink:href="#mc7ad51ef8d" y="47.295029"/>
      </g>
     </g>
     <g id="line2d_100">
      <g>
       <use style="stroke:#000000;stroke-width:0.5;" x="239.578125" xlink:href="#me5de16aff1" y="47.295029"/>
      </g>
     </g>
    </g>
    <g id="ytick_34">
     <g id="line2d_101">
      <g>
       <use style="stroke:#000000;stroke-width:0.5;" x="44.278125" xlink:href="#mc7ad51ef8d" y="44.529314"/>
      </g>
     </g>
     <g id="line2d_102">
      <g>
       <use style="stroke:#000000;stroke-width:0.5;" x="239.578125" xlink:href="#me5de16aff1" y="44.529314"/>
      </g>
     </g>
    </g>
    <g id="ytick_35">
     <g id="line2d_103">
      <g>
       <use style="stroke:#000000;stroke-width:0.5;" x="44.278125" xlink:href="#mc7ad51ef8d" y="42.26956"/>
      </g>
     </g>
     <g id="line2d_104">
      <g>
       <use style="stroke:#000000;stroke-width:0.5;" x="239.578125" xlink:href="#me5de16aff1" y="42.26956"/>
      </g>
     </g>
    </g>
    <g id="ytick_36">
     <g id="line2d_105">
      <g>
       <use style="stroke:#000000;stroke-width:0.5;" x="44.278125" xlink:href="#mc7ad51ef8d" y="40.358966"/>
      </g>
     </g>
     <g id="line2d_106">
      <g>
       <use style="stroke:#000000;stroke-width:0.5;" x="239.578125" xlink:href="#me5de16aff1" y="40.358966"/>
      </g>
     </g>
    </g>
    <g id="ytick_37">
     <g id="line2d_107">
      <g>
       <use style="stroke:#000000;stroke-width:0.5;" x="44.278125" xlink:href="#mc7ad51ef8d" y="38.703934"/>
      </g>
     </g>
     <g id="line2d_108">
      <g>
       <use style="stroke:#000000;stroke-width:0.5;" x="239.578125" xlink:href="#me5de16aff1" y="38.703934"/>
      </g>
     </g>
    </g>
    <g id="ytick_38">
     <g id="line2d_109">
      <g>
       <use style="stroke:#000000;stroke-width:0.5;" x="44.278125" xlink:href="#mc7ad51ef8d" y="37.244092"/>
      </g>
     </g>
     <g id="line2d_110">
      <g>
       <use style="stroke:#000000;stroke-width:0.5;" x="239.578125" xlink:href="#me5de16aff1" y="37.244092"/>
      </g>
     </g>
    </g>
    <g id="ytick_39">
     <g id="line2d_111">
      <g>
       <use style="stroke:#000000;stroke-width:0.5;" x="44.278125" xlink:href="#mc7ad51ef8d" y="27.347124"/>
      </g>
     </g>
     <g id="line2d_112">
      <g>
       <use style="stroke:#000000;stroke-width:0.5;" x="239.578125" xlink:href="#me5de16aff1" y="27.347124"/>
      </g>
     </g>
    </g>
    <g id="ytick_40">
     <g id="line2d_113">
      <g>
       <use style="stroke:#000000;stroke-width:0.5;" x="44.278125" xlink:href="#mc7ad51ef8d" y="22.321655"/>
      </g>
     </g>
     <g id="line2d_114">
      <g>
       <use style="stroke:#000000;stroke-width:0.5;" x="239.578125" xlink:href="#me5de16aff1" y="22.321655"/>
      </g>
     </g>
    </g>
    <g id="ytick_41">
     <g id="line2d_115">
      <g>
       <use style="stroke:#000000;stroke-width:0.5;" x="44.278125" xlink:href="#mc7ad51ef8d" y="18.756029"/>
      </g>
     </g>
     <g id="line2d_116">
      <g>
       <use style="stroke:#000000;stroke-width:0.5;" x="239.578125" xlink:href="#me5de16aff1" y="18.756029"/>
      </g>
     </g>
    </g>
    <g id="ytick_42">
     <g id="line2d_117">
      <g>
       <use style="stroke:#000000;stroke-width:0.5;" x="44.278125" xlink:href="#mc7ad51ef8d" y="15.990314"/>
      </g>
     </g>
     <g id="line2d_118">
      <g>
       <use style="stroke:#000000;stroke-width:0.5;" x="239.578125" xlink:href="#me5de16aff1" y="15.990314"/>
      </g>
     </g>
    </g>
    <g id="ytick_43">
     <g id="line2d_119">
      <g>
       <use style="stroke:#000000;stroke-width:0.5;" x="44.278125" xlink:href="#mc7ad51ef8d" y="13.73056"/>
      </g>
     </g>
     <g id="line2d_120">
      <g>
       <use style="stroke:#000000;stroke-width:0.5;" x="239.578125" xlink:href="#me5de16aff1" y="13.73056"/>
      </g>
     </g>
    </g>
    <g id="ytick_44">
     <g id="line2d_121">
      <g>
       <use style="stroke:#000000;stroke-width:0.5;" x="44.278125" xlink:href="#mc7ad51ef8d" y="11.819966"/>
      </g>
     </g>
     <g id="line2d_122">
      <g>
       <use style="stroke:#000000;stroke-width:0.5;" x="239.578125" xlink:href="#me5de16aff1" y="11.819966"/>
      </g>
     </g>
    </g>
    <g id="ytick_45">
     <g id="line2d_123">
      <g>
       <use style="stroke:#000000;stroke-width:0.5;" x="44.278125" xlink:href="#mc7ad51ef8d" y="10.164934"/>
      </g>
     </g>
     <g id="line2d_124">
      <g>
       <use style="stroke:#000000;stroke-width:0.5;" x="239.578125" xlink:href="#me5de16aff1" y="10.164934"/>
      </g>
     </g>
    </g>
    <g id="ytick_46">
     <g id="line2d_125">
      <g>
       <use style="stroke:#000000;stroke-width:0.5;" x="44.278125" xlink:href="#mc7ad51ef8d" y="8.705092"/>
      </g>
     </g>
     <g id="line2d_126">
      <g>
       <use style="stroke:#000000;stroke-width:0.5;" x="239.578125" xlink:href="#me5de16aff1" y="8.705092"/>
      </g>
     </g>
    </g>
    <g id="text_12">
     <!-- Voltage / V -->
     <g transform="translate(11.198438 105.785781)rotate(-90)scale(0.1 -0.1)">
      <defs>
       <path d="M 1831 0 
L 50 4666 
L 709 4666 
L 2188 738 
L 3669 4666 
L 4325 4666 
L 2547 0 
L 1831 0 
z
" id="DejaVuSans-56" transform="scale(0.015625)"/>
       <path d="M 1959 3097 
Q 1497 3097 1228 2736 
Q 959 2375 959 1747 
Q 959 1119 1226 758 
Q 1494 397 1959 397 
Q 2419 397 2687 759 
Q 2956 1122 2956 1747 
Q 2956 2369 2687 2733 
Q 2419 3097 1959 3097 
z
M 1959 3584 
Q 2709 3584 3137 3096 
Q 3566 2609 3566 1747 
Q 3566 888 3137 398 
Q 2709 -91 1959 -91 
Q 1206 -91 779 398 
Q 353 888 353 1747 
Q 353 2609 779 3096 
Q 1206 3584 1959 3584 
z
" id="DejaVuSans-6f" transform="scale(0.015625)"/>
       <path d="M 603 4863 
L 1178 4863 
L 1178 0 
L 603 0 
L 603 4863 
z
" id="DejaVuSans-6c" transform="scale(0.015625)"/>
       <path d="M 1625 4666 
L 2156 4666 
L 531 -594 
L 0 -594 
L 1625 4666 
z
" id="DejaVuSans-2f" transform="scale(0.015625)"/>
      </defs>
      <use xlink:href="#DejaVuSans-56"/>
      <use x="60.658203" xlink:href="#DejaVuSans-6f"/>
      <use x="121.839844" xlink:href="#DejaVuSans-6c"/>
      <use x="149.623047" xlink:href="#DejaVuSans-74"/>
      <use x="188.832031" xlink:href="#DejaVuSans-61"/>
      <use x="250.111328" xlink:href="#DejaVuSans-67"/>
      <use x="313.587891" xlink:href="#DejaVuSans-65"/>
      <use x="375.111328" xlink:href="#DejaVuSans-20"/>
      <use x="406.898438" xlink:href="#DejaVuSans-2f"/>
      <use x="440.589844" xlink:href="#DejaVuSans-20"/>
      <use x="472.376953" xlink:href="#DejaVuSans-56"/>
     </g>
    </g>
   </g>
   <g id="line2d_127">
    <path clip-path="url(#pbe99043dc0)" d="M 53.155398 75.532156 
L 54.315826 77.235693 
L 57.797109 77.895063 
L 62.43882 78.471437 
L 70.561815 79.060466 
L 78.684809 79.568466 
L 118.139355 82.543104 
L 140.187483 84.660918 
L 143.668767 85.106896 
L 148.310478 85.648011 
L 152.952189 86.253735 
L 157.5939 86.849559 
L 166.877323 88.44338 
L 172.679462 89.701759 
L 173.83989 90.043142 
L 176.160745 90.499786 
L 180.802457 91.702222 
L 183.123312 92.305608 
L 186.604596 93.767821 
L 187.765023 94.330431 
L 194.72759 96.802108 
L 201.690157 100.563836 
L 205.171441 102.833371 
L 207.492296 104.71077 
L 208.652724 105.342649 
L 209.813152 106.207097 
L 210.97358 107.585259 
L 212.134007 108.637249 
L 213.294435 110.501376 
L 214.454863 112.090184 
L 215.615291 113.450787 
L 216.775719 116.220099 
L 217.936146 118.239467 
L 219.096574 120.97408 
L 220.257002 123.24229 
L 221.41743 126.250268 
L 222.577858 130.974488 
L 224.898713 142.115094 
L 226.059141 148.454121 
L 227.219569 158.778475 
L 228.379997 177.476297 
L 228.429537 181.550469 
L 228.429537 181.550469 
" style="fill:none;stroke:#0c5da5;stroke-linecap:square;"/>
   </g>
   <g id="line2d_128">
    <path clip-path="url(#pbe99043dc0)" d="M 53.155398 93.183851 
L 54.315826 94.762161 
L 55.476253 95.332335 
L 57.797109 95.987167 
L 61.278392 96.615173 
L 64.759676 97.059556 
L 71.722243 97.734444 
L 79.845237 98.379237 
L 96.091227 99.342566 
L 114.658072 100.209382 
L 123.941494 100.628278 
L 152.952189 102.429776 
L 166.877323 103.742496 
L 169.198178 104.026926 
L 171.519034 104.321886 
L 181.962884 105.778301 
L 186.604596 106.361597 
L 190.085879 106.873834 
L 193.567162 107.366148 
L 207.492296 109.682277 
L 214.454863 111.031977 
L 219.096574 112.027606 
L 222.577858 113.334626 
L 224.898713 114.477125 
L 226.059141 115.400384 
L 227.219569 116.080185 
L 228.379997 118.874239 
L 229.540424 120.259222 
L 230.700852 122.339894 
L 230.700852 122.339894 
" style="fill:none;stroke:#ff9500;stroke-linecap:square;"/>
   </g>
   <g id="line2d_129">
    <path clip-path="url(#pbe99043dc0)" d="M 53.155398 73.097415 
L 54.315826 74.612157 
L 55.476253 75.63283 
L 56.636681 76.325138 
L 60.117965 77.381051 
L 61.278392 77.664599 
L 63.599248 78.037656 
L 70.561815 79.387715 
L 79.845237 80.695164 
L 83.326521 81.045637 
L 87.968232 81.598658 
L 91.449515 81.922674 
L 97.251654 82.465693 
L 100.732938 82.715261 
L 107.695505 83.330397 
L 112.337216 83.785965 
L 125.101922 84.841989 
L 143.668767 86.50881 
L 150.631334 87.276654 
L 155.273045 87.816864 
L 164.556467 88.917677 
L 168.037751 89.360197 
L 175.000318 90.303111 
L 177.321173 90.677061 
L 192.406735 93.155664 
L 197.048446 94.171424 
L 204.011013 95.854501 
L 208.652724 97.216712 
L 209.813152 97.455531 
L 213.294435 98.670648 
L 215.615291 99.727476 
L 216.775719 100.589006 
L 219.096574 101.851166 
L 220.257002 102.615286 
L 221.41743 103.57265 
L 222.577858 104.975928 
L 223.738285 106.083657 
L 226.059141 109.42892 
L 227.219569 111.693521 
L 228.379997 114.611546 
L 229.540424 119.227525 
L 230.700852 126.621616 
L 230.700852 126.621616 
" style="fill:none;stroke:#00b945;stroke-linecap:square;"/>
   </g>
   <g id="line2d_130">
    <path clip-path="url(#pbe99043dc0)" d="M 53.155398 110.843791 
L 54.315826 117.486983 
L 56.636681 125.500563 
L 57.797109 128.917815 
L 60.117965 134.747575 
L 61.278392 137.031466 
L 62.43882 138.87997 
L 63.599248 141.73411 
L 65.920104 145.448333 
L 67.080531 146.984164 
L 69.401387 150.98151 
L 70.561815 152.441459 
L 72.88267 156.217157 
L 74.043098 157.676848 
L 75.203526 159.938215 
L 76.363954 161.371355 
L 77.524382 163.023865 
L 78.684809 163.967966 
L 79.845237 164.679273 
L 81.005665 165.800552 
L 83.326521 167.58086 
L 84.486949 169.961119 
L 86.807804 175.855435 
L 87.968232 177.612401 
L 89.12866 180.855892 
L 89.834558 181.550469 
L 89.834558 181.550469 
" style="fill:none;stroke:#ff2c00;stroke-linecap:square;"/>
   </g>
   <g id="line2d_131">
    <path clip-path="url(#pbe99043dc0)" d="M 53.155398 48.348104 
L 54.315826 49.240953 
L 56.636681 49.996362 
L 58.957537 50.48671 
L 63.599248 51.353231 
L 70.561815 52.40259 
L 75.203526 53.073298 
L 81.005665 53.961292 
L 83.326521 54.362938 
L 85.647376 54.732305 
L 89.12866 55.520932 
L 98.412082 57.533943 
L 104.214221 58.527172 
L 106.535077 59.138583 
L 118.139355 61.128926 
L 121.620638 61.697797 
L 127.422777 62.749316 
L 133.224916 63.648518 
L 137.866628 64.412585 
L 141.347911 64.940906 
L 150.631334 66.396733 
L 155.273045 67.066418 
L 178.481601 70.484796 
L 190.085879 72.800623 
L 192.406735 73.281052 
L 197.048446 74.255045 
L 199.369301 74.725883 
L 204.011013 75.752326 
L 213.294435 78.349734 
L 217.936146 80.155363 
L 220.257002 81.653294 
L 222.577858 83.153914 
L 223.738285 83.903531 
L 226.059141 86.081676 
L 227.219569 87.826813 
L 228.379997 90.58539 
L 229.540424 92.816909 
L 230.700852 97.036942 
L 230.700852 97.036942 
" style="fill:none;stroke:#845b97;stroke-linecap:square;"/>
   </g>
   <g id="patch_3">
    <path d="M 44.278125 150.094219 
L 44.278125 7.399219 
" style="fill:none;stroke:#000000;stroke-linecap:square;stroke-linejoin:miter;stroke-width:0.5;"/>
   </g>
   <g id="patch_4">
    <path d="M 239.578125 150.094219 
L 239.578125 7.399219 
" style="fill:none;stroke:#000000;stroke-linecap:square;stroke-linejoin:miter;stroke-width:0.5;"/>
   </g>
   <g id="patch_5">
    <path d="M 44.278125 150.094219 
L 239.578125 150.094219 
" style="fill:none;stroke:#000000;stroke-linecap:square;stroke-linejoin:miter;stroke-width:0.5;"/>
   </g>
   <g id="patch_6">
    <path d="M 44.278125 7.399219 
L 239.578125 7.399219 
" style="fill:none;stroke:#000000;stroke-linecap:square;stroke-linejoin:miter;stroke-width:0.5;"/>
   </g>
  </g>
 </g>
 <defs>
  <clipPath id="pbe99043dc0">
   <rect height="142.695" width="195.3" x="44.278125" y="7.399219"/>
  </clipPath>
 </defs>
</svg>
