<?xml version="1.0" encoding="utf-8" standalone="no"?>
<!DOCTYPE svg PUBLIC "-//W3C//DTD SVG 1.1//EN"
  "http://www.w3.org/Graphics/SVG/1.1/DTD/svg11.dtd">
<svg height="180.550469pt" version="1.1" viewBox="0 0 243.178125 180.550469" width="243.178125pt" xmlns="http://www.w3.org/2000/svg" xmlns:xlink="http://www.w3.org/1999/xlink">
 <metadata>
  <rdf:RDF xmlns:cc="http://creativecommons.org/ns#" xmlns:dc="http://purl.org/dc/elements/1.1/" xmlns:rdf="http://www.w3.org/1999/02/22-rdf-syntax-ns#">
   <cc:Work>
    <dc:type rdf:resource="http://purl.org/dc/dcmitype/StillImage"/>
    <dc:date>2023-04-24T13:38:01.597090</dc:date>
    <dc:format>image/svg+xml</dc:format>
    <dc:creator>
     <cc:Agent>
      <dc:title>Matplotlib v3.4.3, https://matplotlib.org/</dc:title>
     </cc:Agent>
    </dc:creator>
   </cc:Work>
  </rdf:RDF>
 </metadata>
 <defs>
  <style type="text/css">*{stroke-linecap:butt;stroke-linejoin:round;}</style>
 </defs>
 <g id="figure_1">
  <g id="patch_1">
   <path d="M 0 180.550469 
L 243.178125 180.550469 
L 243.178125 0 
L 0 0 
z
" style="fill:none;"/>
  </g>
  <g id="axes_1">
   <g id="patch_2">
    <path d="M 44.278125 150.094219 
L 239.578125 150.094219 
L 239.578125 7.399219 
L 44.278125 7.399219 
z
" style="fill:#ffffff;"/>
   </g>
   <g id="PolyCollection_1">
    <path clip-path="url(#p3debf8b1e0)" d="M 53.155398 45.220838 
L 53.155398 50.09671 
L 54.29351 50.782878 
L 55.431622 52.601506 
L 56.569733 59.522535 
L 57.707845 61.141332 
L 58.845957 61.480519 
L 59.984069 62.388144 
L 61.122181 63.018287 
L 62.260293 64.181072 
L 63.398405 64.90362 
L 64.536517 70.122295 
L 65.674628 70.176851 
L 66.81274 70.635406 
L 67.950852 72.072412 
L 69.088964 72.422086 
L 70.227076 72.971563 
L 71.365188 74.443849 
L 72.5033 74.613435 
L 73.641412 75.000088 
L 74.779524 75.981573 
L 75.917635 77.216903 
L 77.055747 78.347525 
L 78.193859 79.210751 
L 79.331971 79.958564 
L 80.470083 80.280574 
L 81.608195 80.348183 
L 82.746307 80.92571 
L 83.884419 81.229673 
L 85.022531 81.573081 
L 86.160642 82.009617 
L 87.298754 82.128284 
L 88.436866 82.58354 
L 89.574978 82.633916 
L 90.71309 83.20212 
L 91.851202 83.386982 
L 92.989314 83.857313 
L 94.127426 84.294208 
L 95.265538 85.258548 
L 96.403649 85.542692 
L 97.541761 86.028177 
L 98.679873 86.278277 
L 99.817985 86.891666 
L 100.956097 87.041904 
L 102.094209 87.117289 
L 103.232321 87.246259 
L 104.370433 87.438288 
L 105.508545 88.546528 
L 106.646656 88.729246 
L 107.784768 88.902149 
L 108.92288 89.28143 
L 110.060992 90.412612 
L 111.199104 90.914657 
L 112.337216 91.166471 
L 113.475328 91.385594 
L 114.61344 92.027967 
L 115.751552 92.472279 
L 116.889663 92.612753 
L 118.027775 92.708221 
L 119.165887 92.826975 
L 120.303999 93.036304 
L 121.442111 93.099271 
L 122.580223 93.553049 
L 123.718335 93.659796 
L 124.856447 93.746629 
L 125.994559 93.97158 
L 127.13267 94.308487 
L 128.270782 94.64899 
L 129.408894 94.706452 
L 130.547006 94.77752 
L 131.685118 94.847696 
L 132.82323 95.045756 
L 133.961342 95.129229 
L 135.099454 95.18031 
L 136.237566 95.758391 
L 137.375677 95.789871 
L 138.513789 96.440532 
L 139.651901 96.586295 
L 140.790013 96.62138 
L 141.928125 96.671873 
L 143.066237 96.836866 
L 144.204349 96.95967 
L 145.342461 97.163534 
L 146.480573 97.833098 
L 147.618684 98.289094 
L 148.756796 98.361164 
L 149.894908 98.427791 
L 151.03302 98.75211 
L 152.171132 98.770691 
L 153.309244 98.845875 
L 154.447356 98.931226 
L 155.585468 99.12804 
L 156.72358 99.522375 
L 157.861691 99.594094 
L 158.999803 99.722984 
L 160.137915 99.83416 
L 161.276027 99.904501 
L 162.414139 99.916219 
L 163.552251 99.985494 
L 164.690363 100.179643 
L 165.828475 100.223838 
L 166.966587 100.227816 
L 168.104698 100.392266 
L 169.24281 100.50954 
L 170.380922 100.614161 
L 171.519034 100.707356 
L 172.657146 100.740223 
L 173.795258 100.753572 
L 174.93337 100.801991 
L 176.071482 100.827968 
L 177.209594 100.843249 
L 178.347705 100.98339 
L 179.485817 100.99503 
L 180.623929 101.105095 
L 181.762041 101.233017 
L 182.900153 101.256728 
L 184.038265 101.32567 
L 185.176377 101.395173 
L 186.314489 101.473878 
L 187.452601 101.515116 
L 188.590712 101.57813 
L 189.728824 101.584479 
L 190.866936 101.644598 
L 192.005048 101.675106 
L 193.14316 101.809904 
L 194.281272 101.835509 
L 195.419384 101.868188 
L 196.557496 101.884776 
L 197.695608 101.920353 
L 198.833719 101.997138 
L 199.971831 102.007169 
L 201.109943 102.037897 
L 202.248055 102.19596 
L 203.386167 102.481063 
L 204.524279 102.509647 
L 205.662391 102.572569 
L 206.800503 102.818987 
L 207.938615 102.902293 
L 209.076726 102.90808 
L 210.214838 102.96563 
L 211.35295 103.006648 
L 212.491062 103.027587 
L 213.629174 103.080813 
L 214.767286 103.197255 
L 215.905398 103.245918 
L 217.04351 103.442431 
L 218.181622 103.595397 
L 219.319733 104.158783 
L 220.457845 104.178381 
L 221.595957 104.225555 
L 222.734069 104.410651 
L 223.872181 104.502455 
L 225.010293 104.59015 
L 226.148405 104.636303 
L 227.286517 104.79677 
L 228.424628 105.379813 
L 229.56274 108.682724 
L 230.700852 110.028491 
L 230.700852 96.594373 
L 230.700852 96.594373 
L 229.56274 96.555935 
L 228.424628 96.381381 
L 227.286517 96.210453 
L 226.148405 96.162922 
L 225.010293 95.87304 
L 223.872181 95.741434 
L 222.734069 95.632283 
L 221.595957 95.338671 
L 220.457845 95.121652 
L 219.319733 95.003975 
L 218.181622 94.953579 
L 217.04351 94.677779 
L 215.905398 94.586492 
L 214.767286 94.57034 
L 213.629174 94.516889 
L 212.491062 94.369996 
L 211.35295 94.34782 
L 210.214838 94.235467 
L 209.076726 93.988888 
L 207.938615 93.968603 
L 206.800503 93.916125 
L 205.662391 93.823168 
L 204.524279 93.799898 
L 203.386167 93.767595 
L 202.248055 93.749272 
L 201.109943 93.723943 
L 199.971831 93.515213 
L 198.833719 93.497303 
L 197.695608 93.387929 
L 196.557496 93.359201 
L 195.419384 93.273198 
L 194.281272 93.250037 
L 193.14316 93.167149 
L 192.005048 93.092557 
L 190.866936 93.050569 
L 189.728824 92.963665 
L 188.590712 92.920318 
L 187.452601 92.903571 
L 186.314489 92.888694 
L 185.176377 92.739224 
L 184.038265 92.702298 
L 182.900153 92.694504 
L 181.762041 92.646657 
L 180.623929 92.621168 
L 179.485817 92.460914 
L 178.347705 92.322138 
L 177.209594 92.204849 
L 176.071482 92.148332 
L 174.93337 92.138063 
L 173.795258 92.076295 
L 172.657146 92.057516 
L 171.519034 91.993569 
L 170.380922 91.993434 
L 169.24281 91.776883 
L 168.104698 91.60124 
L 166.966587 91.444104 
L 165.828475 90.853734 
L 164.690363 90.683145 
L 163.552251 90.533698 
L 162.414139 90.259338 
L 161.276027 90.210773 
L 160.137915 90.116094 
L 158.999803 90.061247 
L 157.861691 89.812473 
L 156.72358 89.708569 
L 155.585468 89.462099 
L 154.447356 89.440268 
L 153.309244 89.246446 
L 152.171132 89.182703 
L 151.03302 89.134891 
L 149.894908 88.978548 
L 148.756796 88.972687 
L 147.618684 88.948019 
L 146.480573 88.732249 
L 145.342461 88.717151 
L 144.204349 88.545019 
L 143.066237 88.526627 
L 141.928125 88.301169 
L 140.790013 88.209671 
L 139.651901 88.19032 
L 138.513789 88.168165 
L 137.375677 88.097589 
L 136.237566 87.487929 
L 135.099454 87.381148 
L 133.961342 86.920182 
L 132.82323 86.5881 
L 131.685118 86.291606 
L 130.547006 86.239756 
L 129.408894 85.915388 
L 128.270782 85.63815 
L 127.13267 85.57503 
L 125.994559 85.350981 
L 124.856447 85.310243 
L 123.718335 84.859219 
L 122.580223 84.811821 
L 121.442111 83.999364 
L 120.303999 83.259731 
L 119.165887 83.147842 
L 118.027775 83.119653 
L 116.889663 82.829649 
L 115.751552 82.179623 
L 114.61344 82.070328 
L 113.475328 81.947055 
L 112.337216 81.808734 
L 111.199104 81.6837 
L 110.060992 81.661487 
L 108.92288 80.86346 
L 107.784768 80.630481 
L 106.646656 80.139293 
L 105.508545 80.020111 
L 104.370433 79.864471 
L 103.232321 79.461801 
L 102.094209 79.025597 
L 100.956097 78.768273 
L 99.817985 78.720698 
L 98.679873 78.475144 
L 97.541761 78.303173 
L 96.403649 78.092362 
L 95.265538 77.997333 
L 94.127426 77.44949 
L 92.989314 76.793891 
L 91.851202 76.637232 
L 90.71309 76.603937 
L 89.574978 76.323468 
L 88.436866 76.138889 
L 87.298754 76.121232 
L 86.160642 75.944838 
L 85.022531 75.442285 
L 83.884419 74.634677 
L 82.746307 74.057302 
L 81.608195 73.456906 
L 80.470083 73.008224 
L 79.331971 71.9652 
L 78.193859 71.657715 
L 77.055747 70.435248 
L 75.917635 70.349816 
L 74.779524 70.299526 
L 73.641412 70.168531 
L 72.5033 66.894553 
L 71.365188 66.736267 
L 70.227076 66.486309 
L 69.088964 65.299024 
L 67.950852 64.750053 
L 66.81274 63.789514 
L 65.674628 59.544596 
L 64.536517 59.444719 
L 63.398405 59.217902 
L 62.260293 58.571381 
L 61.122181 58.563652 
L 59.984069 57.498937 
L 58.845957 56.595126 
L 57.707845 56.07241 
L 56.569733 54.239674 
L 55.431622 51.352596 
L 54.29351 45.93242 
L 53.155398 45.220838 
z
" style="fill:#0c5da5;fill-opacity:0.15;"/>
   </g>
   <g id="PolyCollection_2">
    <path clip-path="url(#p3debf8b1e0)" d="M 53.155398 59.103574 
L 53.155398 64.67849 
L 54.29351 67.32304 
L 55.431622 76.444151 
L 56.569733 79.515134 
L 57.707845 80.241477 
L 58.845957 85.2896 
L 59.984069 88.51654 
L 61.122181 94.380631 
L 62.260293 96.510347 
L 63.398405 96.904492 
L 64.536517 103.204038 
L 65.674628 103.233704 
L 66.81274 104.70432 
L 67.950852 104.836318 
L 69.088964 105.289429 
L 70.227076 105.924039 
L 71.365188 108.404896 
L 72.5033 109.144917 
L 73.641412 109.924264 
L 74.779524 114.271937 
L 75.917635 114.585285 
L 77.055747 115.356638 
L 78.193859 115.612272 
L 79.331971 116.14821 
L 80.470083 116.560817 
L 81.608195 116.657916 
L 82.746307 117.172776 
L 83.884419 117.394662 
L 85.022531 117.603072 
L 86.160642 118.118815 
L 87.298754 118.365729 
L 88.436866 118.876687 
L 89.574978 119.208434 
L 90.71309 119.218899 
L 91.851202 119.355902 
L 92.989314 119.443098 
L 94.127426 119.939466 
L 95.265538 119.953358 
L 96.403649 120.009069 
L 97.541761 120.349788 
L 98.679873 120.467256 
L 99.817985 120.624232 
L 100.956097 120.704221 
L 102.094209 120.954996 
L 103.232321 121.022974 
L 104.370433 121.244018 
L 105.508545 121.573027 
L 106.646656 121.694501 
L 107.784768 121.695011 
L 108.92288 121.757705 
L 110.060992 121.932524 
L 111.199104 121.98006 
L 112.337216 122.117935 
L 113.475328 122.248584 
L 114.61344 122.452419 
L 115.751552 122.526303 
L 116.889663 122.537314 
L 118.027775 122.785764 
L 119.165887 122.80171 
L 120.303999 122.88091 
L 121.442111 122.977505 
L 122.580223 123.098154 
L 123.718335 123.244119 
L 124.856447 123.339119 
L 125.994559 123.392922 
L 127.13267 123.702599 
L 128.270782 123.762847 
L 129.408894 124.003481 
L 130.547006 124.128579 
L 131.685118 124.156052 
L 132.82323 124.182008 
L 133.961342 124.26608 
L 135.099454 124.44225 
L 136.237566 124.451348 
L 137.375677 124.472932 
L 138.513789 124.485854 
L 139.651901 124.542759 
L 140.790013 124.61712 
L 141.928125 124.675792 
L 143.066237 124.676169 
L 144.204349 124.681162 
L 145.342461 124.753757 
L 146.480573 124.802124 
L 147.618684 124.946834 
L 148.756796 125.034445 
L 149.894908 125.064213 
L 151.03302 125.350577 
L 152.171132 125.401457 
L 153.309244 125.423058 
L 154.447356 125.427758 
L 155.585468 125.47829 
L 156.72358 125.621974 
L 157.861691 125.643377 
L 158.999803 125.648096 
L 160.137915 125.654026 
L 161.276027 125.68668 
L 162.414139 125.716525 
L 163.552251 125.737459 
L 164.690363 125.801436 
L 165.828475 125.815726 
L 166.966587 126.044952 
L 168.104698 126.228832 
L 169.24281 126.233237 
L 170.380922 126.243663 
L 171.519034 126.245047 
L 172.657146 126.385215 
L 173.795258 126.415577 
L 174.93337 126.508437 
L 176.071482 126.52424 
L 177.209594 126.615756 
L 178.347705 126.630712 
L 179.485817 126.65097 
L 180.623929 126.725479 
L 181.762041 126.739899 
L 182.900153 126.825222 
L 184.038265 126.853927 
L 185.176377 126.909204 
L 186.314489 126.930607 
L 187.452601 127.031512 
L 188.590712 127.043077 
L 189.728824 127.140834 
L 190.866936 127.303653 
L 192.005048 127.317586 
L 193.14316 127.35686 
L 194.281272 127.536861 
L 195.419384 127.624136 
L 196.557496 127.887674 
L 197.695608 127.983049 
L 198.833719 128.0143 
L 199.971831 128.142381 
L 201.109943 128.162322 
L 202.248055 128.215326 
L 203.386167 128.239092 
L 204.524279 128.310665 
L 205.662391 128.33788 
L 206.800503 128.641101 
L 207.938615 128.865132 
L 209.076726 129.534009 
L 210.214838 129.812551 
L 211.35295 131.162355 
L 212.491062 131.343161 
L 213.629174 131.900901 
L 214.767286 132.022398 
L 215.905398 132.042 
L 217.04351 132.083653 
L 218.181622 132.338396 
L 219.319733 132.651882 
L 220.457845 134.064731 
L 221.595957 134.370346 
L 222.734069 134.390452 
L 223.872181 135.401321 
L 225.010293 136.681013 
L 226.148405 137.739414 
L 227.286517 139.163563 
L 228.424628 147.303638 
L 229.56274 163.009442 
L 230.700852 232.297326 
L 230.700852 131.670707 
L 230.700852 131.670707 
L 229.56274 128.74013 
L 228.424628 127.276673 
L 227.286517 126.942034 
L 226.148405 126.41986 
L 225.010293 125.994082 
L 223.872181 125.570475 
L 222.734069 125.287717 
L 221.595957 124.892441 
L 220.457845 124.738547 
L 219.319733 124.457904 
L 218.181622 124.450942 
L 217.04351 124.394882 
L 215.905398 124.348648 
L 214.767286 124.08074 
L 213.629174 123.656048 
L 212.491062 123.59357 
L 211.35295 123.446831 
L 210.214838 123.41573 
L 209.076726 123.412915 
L 207.938615 123.400688 
L 206.800503 123.391046 
L 205.662391 123.321779 
L 204.524279 123.305553 
L 203.386167 123.233755 
L 202.248055 123.111143 
L 201.109943 123.038556 
L 199.971831 123.002472 
L 198.833719 122.978252 
L 197.695608 122.81793 
L 196.557496 122.809076 
L 195.419384 122.808785 
L 194.281272 122.764961 
L 193.14316 122.741756 
L 192.005048 122.724303 
L 190.866936 122.668174 
L 189.728824 122.66189 
L 188.590712 122.642286 
L 187.452601 122.630788 
L 186.314489 122.536112 
L 185.176377 122.474353 
L 184.038265 122.449714 
L 182.900153 122.378727 
L 181.762041 122.364372 
L 180.623929 122.277086 
L 179.485817 122.177062 
L 178.347705 122.063348 
L 177.209594 122.035869 
L 176.071482 122.01135 
L 174.93337 121.934184 
L 173.795258 121.888573 
L 172.657146 121.726139 
L 171.519034 121.680605 
L 170.380922 121.603855 
L 169.24281 121.546737 
L 168.104698 121.442241 
L 166.966587 121.216132 
L 165.828475 121.115813 
L 164.690363 121.048512 
L 163.552251 120.90361 
L 162.414139 120.793583 
L 161.276027 120.73278 
L 160.137915 120.42726 
L 158.999803 120.418551 
L 157.861691 120.250295 
L 156.72358 120.229692 
L 155.585468 120.097094 
L 154.447356 120.073837 
L 153.309244 119.818816 
L 152.171132 119.488195 
L 151.03302 119.353782 
L 149.894908 119.272082 
L 148.756796 119.238689 
L 147.618684 119.125239 
L 146.480573 119.040608 
L 145.342461 119.001506 
L 144.204349 118.994651 
L 143.066237 118.821964 
L 141.928125 118.632615 
L 140.790013 118.583152 
L 139.651901 118.568054 
L 138.513789 118.394143 
L 137.375677 118.230846 
L 136.237566 118.194317 
L 135.099454 118.154309 
L 133.961342 118.027239 
L 132.82323 117.929064 
L 131.685118 117.694251 
L 130.547006 117.621618 
L 129.408894 117.588098 
L 128.270782 117.567831 
L 127.13267 117.356834 
L 125.994559 117.265624 
L 124.856447 117.183914 
L 123.718335 116.561608 
L 122.580223 115.959792 
L 121.442111 115.943167 
L 120.303999 115.850913 
L 119.165887 115.591037 
L 118.027775 115.503495 
L 116.889663 115.31118 
L 115.751552 115.0382 
L 114.61344 114.968241 
L 113.475328 114.135136 
L 112.337216 113.459799 
L 111.199104 113.270301 
L 110.060992 112.942541 
L 108.92288 112.825882 
L 107.784768 112.71751 
L 106.646656 111.77758 
L 105.508545 111.507584 
L 104.370433 110.990895 
L 103.232321 110.977254 
L 102.094209 109.847439 
L 100.956097 109.607456 
L 99.817985 109.361332 
L 98.679873 109.080154 
L 97.541761 108.740857 
L 96.403649 108.23347 
L 95.265538 106.950287 
L 94.127426 106.420654 
L 92.989314 106.405577 
L 91.851202 105.510542 
L 90.71309 105.492665 
L 89.574978 105.462348 
L 88.436866 105.347966 
L 87.298754 105.120969 
L 86.160642 104.793628 
L 85.022531 104.468772 
L 83.884419 104.059683 
L 82.746307 103.948196 
L 81.608195 103.815801 
L 80.470083 102.539289 
L 79.331971 102.04147 
L 78.193859 101.655084 
L 77.055747 101.496472 
L 75.917635 100.902933 
L 74.779524 100.552171 
L 73.641412 99.689909 
L 72.5033 97.619147 
L 71.365188 95.559416 
L 70.227076 95.075577 
L 69.088964 94.234017 
L 67.950852 92.147623 
L 66.81274 91.619539 
L 65.674628 89.512326 
L 64.536517 88.897494 
L 63.398405 85.457424 
L 62.260293 84.037836 
L 61.122181 83.375295 
L 59.984069 82.997051 
L 58.845957 78.618929 
L 57.707845 75.039574 
L 56.569733 64.335178 
L 55.431622 63.718541 
L 54.29351 60.750299 
L 53.155398 59.103574 
z
" style="fill:#ff9500;fill-opacity:0.15;"/>
   </g>
   <g id="PolyCollection_3">
    <path clip-path="url(#p3debf8b1e0)" d="M 53.155398 20.828991 
L 53.155398 23.568987 
L 54.29351 23.575875 
L 55.431622 24.237505 
L 56.569733 27.095913 
L 57.707845 27.75959 
L 58.845957 27.860466 
L 59.984069 28.693817 
L 61.122181 29.185295 
L 62.260293 30.150553 
L 63.398405 30.158984 
L 64.536517 30.182662 
L 65.674628 30.23897 
L 66.81274 30.866174 
L 67.950852 31.49115 
L 69.088964 31.520046 
L 70.227076 31.570915 
L 71.365188 31.838715 
L 72.5033 32.043319 
L 73.641412 32.04456 
L 74.779524 32.626994 
L 75.917635 32.658349 
L 77.055747 32.76527 
L 78.193859 33.028812 
L 79.331971 33.056988 
L 80.470083 33.083369 
L 81.608195 33.269694 
L 82.746307 33.297923 
L 83.884419 33.380981 
L 85.022531 33.604637 
L 86.160642 33.865731 
L 87.298754 33.87018 
L 88.436866 33.993106 
L 89.574978 34.228978 
L 90.71309 34.701446 
L 91.851202 34.914677 
L 92.989314 34.931496 
L 94.127426 34.965268 
L 95.265538 34.981623 
L 96.403649 35.160107 
L 97.541761 35.164456 
L 98.679873 35.206218 
L 99.817985 35.238713 
L 100.956097 35.248972 
L 102.094209 35.304314 
L 103.232321 35.341683 
L 104.370433 35.355653 
L 105.508545 35.532843 
L 106.646656 35.888563 
L 107.784768 36.105285 
L 108.92288 36.28686 
L 110.060992 36.875824 
L 111.199104 36.896396 
L 112.337216 37.039391 
L 113.475328 37.057136 
L 114.61344 37.609157 
L 115.751552 37.842133 
L 116.889663 38.162902 
L 118.027775 38.795343 
L 119.165887 38.835774 
L 120.303999 38.861195 
L 121.442111 38.86848 
L 122.580223 39.043738 
L 123.718335 39.116516 
L 124.856447 39.185217 
L 125.994559 39.490613 
L 127.13267 39.676235 
L 128.270782 39.72588 
L 129.408894 39.785421 
L 130.547006 39.923517 
L 131.685118 40.306682 
L 132.82323 40.44242 
L 133.961342 40.501515 
L 135.099454 40.519016 
L 136.237566 40.673397 
L 137.375677 40.943759 
L 138.513789 41.170905 
L 139.651901 41.250362 
L 140.790013 41.624266 
L 141.928125 41.72685 
L 143.066237 41.928069 
L 144.204349 42.027162 
L 145.342461 42.293513 
L 146.480573 42.360816 
L 147.618684 42.599422 
L 148.756796 42.797519 
L 149.894908 42.876166 
L 151.03302 43.031386 
L 152.171132 43.19329 
L 153.309244 43.351672 
L 154.447356 43.545254 
L 155.585468 43.691735 
L 156.72358 43.726319 
L 157.861691 43.802089 
L 158.999803 43.877923 
L 160.137915 43.92474 
L 161.276027 44.05887 
L 162.414139 44.067395 
L 163.552251 44.076824 
L 164.690363 44.106845 
L 165.828475 44.486613 
L 166.966587 44.811876 
L 168.104698 44.856212 
L 169.24281 45.009965 
L 170.380922 45.114744 
L 171.519034 45.356122 
L 172.657146 45.708436 
L 173.795258 45.91104 
L 174.93337 45.925772 
L 176.071482 45.961947 
L 177.209594 46.050619 
L 178.347705 46.076652 
L 179.485817 46.196646 
L 180.623929 46.33866 
L 181.762041 46.47378 
L 182.900153 46.804544 
L 184.038265 46.944454 
L 185.176377 47.045003 
L 186.314489 47.407973 
L 187.452601 47.464579 
L 188.590712 47.869462 
L 189.728824 47.954418 
L 190.866936 48.055788 
L 192.005048 48.155293 
L 193.14316 48.235819 
L 194.281272 48.609738 
L 195.419384 48.76379 
L 196.557496 48.806669 
L 197.695608 49.219858 
L 198.833719 49.286344 
L 199.971831 49.33946 
L 201.109943 49.382098 
L 202.248055 49.752951 
L 203.386167 50.033191 
L 204.524279 50.655121 
L 205.662391 50.770716 
L 206.800503 50.812394 
L 207.938615 50.839174 
L 209.076726 50.882484 
L 210.214838 52.032299 
L 211.35295 52.094874 
L 212.491062 52.145721 
L 213.629174 52.433017 
L 214.767286 52.456586 
L 215.905398 53.500179 
L 217.04351 53.695149 
L 218.181622 53.871601 
L 219.319733 54.596664 
L 220.457845 55.600239 
L 221.595957 56.246671 
L 222.734069 56.527431 
L 223.872181 57.810741 
L 225.010293 58.915218 
L 226.148405 61.915669 
L 227.286517 63.191886 
L 228.424628 65.536057 
L 229.56274 70.828974 
L 230.700852 79.338688 
L 230.700852 77.021073 
L 230.700852 77.021073 
L 229.56274 69.25748 
L 228.424628 61.050458 
L 227.286517 60.265383 
L 226.148405 57.654671 
L 225.010293 56.671929 
L 223.872181 53.277992 
L 222.734069 53.229153 
L 221.595957 52.905637 
L 220.457845 51.706997 
L 219.319733 51.338422 
L 218.181622 50.726466 
L 217.04351 50.681961 
L 215.905398 50.55227 
L 214.767286 50.23003 
L 213.629174 49.891658 
L 212.491062 49.175235 
L 211.35295 49.055967 
L 210.214838 49.042401 
L 209.076726 48.061259 
L 207.938615 47.960186 
L 206.800503 47.680247 
L 205.662391 47.555034 
L 204.524279 47.331306 
L 203.386167 47.218142 
L 202.248055 47.057698 
L 201.109943 46.797446 
L 199.971831 46.651283 
L 198.833719 46.548881 
L 197.695608 46.423501 
L 196.557496 45.765745 
L 195.419384 45.736577 
L 194.281272 45.21609 
L 193.14316 45.169013 
L 192.005048 44.924751 
L 190.866936 44.821888 
L 189.728824 44.697654 
L 188.590712 44.650777 
L 187.452601 44.599977 
L 186.314489 44.542221 
L 185.176377 44.52024 
L 184.038265 44.296176 
L 182.900153 44.047883 
L 181.762041 43.592704 
L 180.623929 43.472078 
L 179.485817 42.922019 
L 178.347705 42.672362 
L 177.209594 41.797753 
L 176.071482 41.795614 
L 174.93337 41.7301 
L 173.795258 41.713038 
L 172.657146 41.680978 
L 171.519034 41.62964 
L 170.380922 41.152026 
L 169.24281 41.118121 
L 168.104698 41.083462 
L 166.966587 41.06927 
L 165.828475 40.715499 
L 164.690363 40.694089 
L 163.552251 40.632737 
L 162.414139 40.56971 
L 161.276027 40.332945 
L 160.137915 40.057564 
L 158.999803 40.043749 
L 157.861691 39.976473 
L 156.72358 39.926184 
L 155.585468 39.844791 
L 154.447356 39.792698 
L 153.309244 39.66339 
L 152.171132 39.612899 
L 151.03302 39.611479 
L 149.894908 39.566918 
L 148.756796 39.411515 
L 147.618684 38.86057 
L 146.480573 38.592095 
L 145.342461 38.297292 
L 144.204349 38.266186 
L 143.066237 38.237554 
L 141.928125 38.196029 
L 140.790013 37.959453 
L 139.651901 37.881723 
L 138.513789 37.804027 
L 137.375677 37.721136 
L 136.237566 37.645575 
L 135.099454 37.639321 
L 133.961342 37.627603 
L 132.82323 37.24881 
L 131.685118 37.037671 
L 130.547006 37.036838 
L 129.408894 36.988271 
L 128.270782 36.962958 
L 127.13267 36.924431 
L 125.994559 36.732236 
L 124.856447 36.488341 
L 123.718335 35.872552 
L 122.580223 35.839851 
L 121.442111 35.506081 
L 120.303999 35.426601 
L 119.165887 35.079274 
L 118.027775 34.938066 
L 116.889663 34.666365 
L 115.751552 34.054798 
L 114.61344 34.048046 
L 113.475328 33.513624 
L 112.337216 33.446506 
L 111.199104 33.012798 
L 110.060992 32.97191 
L 108.92288 32.943246 
L 107.784768 32.804014 
L 106.646656 32.257894 
L 105.508545 32.257563 
L 104.370433 32.243358 
L 103.232321 32.158328 
L 102.094209 32.077878 
L 100.956097 31.918026 
L 99.817985 31.857244 
L 98.679873 31.844229 
L 97.541761 31.389394 
L 96.403649 31.281605 
L 95.265538 31.168339 
L 94.127426 31.049486 
L 92.989314 31.030686 
L 91.851202 30.786397 
L 90.71309 30.747033 
L 89.574978 30.645433 
L 88.436866 30.548669 
L 87.298754 30.115755 
L 86.160642 30.035924 
L 85.022531 30.002348 
L 83.884419 29.885368 
L 82.746307 29.849044 
L 81.608195 29.847147 
L 80.470083 29.843542 
L 79.331971 29.740582 
L 78.193859 29.67256 
L 77.055747 29.466253 
L 75.917635 29.209758 
L 74.779524 29.138044 
L 73.641412 28.994067 
L 72.5033 28.792474 
L 71.365188 28.19914 
L 70.227076 27.799709 
L 69.088964 27.737375 
L 67.950852 27.592262 
L 66.81274 27.323485 
L 65.674628 27.252812 
L 64.536517 26.956251 
L 63.398405 26.953281 
L 62.260293 26.783599 
L 61.122181 26.450133 
L 59.984069 26.264301 
L 58.845957 25.326234 
L 57.707845 24.827569 
L 56.569733 23.736212 
L 55.431622 21.350142 
L 54.29351 20.907262 
L 53.155398 20.828991 
z
" style="fill:#00b945;fill-opacity:0.15;"/>
   </g>
   <g id="PolyCollection_4">
    <path clip-path="url(#p3debf8b1e0)" d="M 53.155398 50.691427 
L 53.155398 55.869356 
L 54.29351 64.144626 
L 55.431622 65.467782 
L 56.569733 65.539849 
L 57.707845 66.376038 
L 58.845957 66.853065 
L 59.984069 66.981564 
L 61.122181 67.611042 
L 62.260293 67.788755 
L 63.398405 68.244777 
L 64.536517 68.250421 
L 65.674628 69.474774 
L 66.81274 69.51507 
L 67.950852 69.596646 
L 69.088964 70.208509 
L 70.227076 70.396029 
L 71.365188 71.010993 
L 72.5033 71.166094 
L 73.641412 71.798505 
L 74.779524 72.211502 
L 75.917635 72.506504 
L 77.055747 72.726247 
L 78.193859 72.976602 
L 79.331971 73.379956 
L 80.470083 73.496671 
L 81.608195 73.81674 
L 82.746307 73.846434 
L 83.884419 74.062317 
L 85.022531 74.595149 
L 86.160642 75.296325 
L 87.298754 75.379173 
L 88.436866 75.561359 
L 89.574978 75.569334 
L 90.71309 76.021641 
L 91.851202 76.055872 
L 92.989314 76.15704 
L 94.127426 76.239984 
L 95.265538 76.642918 
L 96.403649 76.649407 
L 97.541761 76.665791 
L 98.679873 76.804187 
L 99.817985 76.877644 
L 100.956097 76.920128 
L 102.094209 77.240366 
L 103.232321 77.300842 
L 104.370433 77.431062 
L 105.508545 77.546906 
L 106.646656 78.097688 
L 107.784768 78.114839 
L 108.92288 78.473338 
L 110.060992 78.961174 
L 111.199104 79.189013 
L 112.337216 79.581691 
L 113.475328 79.969353 
L 114.61344 80.030837 
L 115.751552 80.119299 
L 116.889663 80.904464 
L 118.027775 81.279312 
L 119.165887 81.311198 
L 120.303999 81.774964 
L 121.442111 81.979272 
L 122.580223 82.07087 
L 123.718335 82.717156 
L 124.856447 83.938598 
L 125.994559 84.283253 
L 127.13267 84.670887 
L 128.270782 84.690604 
L 129.408894 84.74828 
L 130.547006 84.752929 
L 131.685118 85.057596 
L 132.82323 85.068608 
L 133.961342 85.33456 
L 135.099454 85.599113 
L 136.237566 86.818357 
L 137.375677 86.915719 
L 138.513789 86.919572 
L 139.651901 87.126628 
L 140.790013 87.2856 
L 141.928125 87.373857 
L 143.066237 87.376705 
L 144.204349 87.649451 
L 145.342461 87.701909 
L 146.480573 87.710588 
L 147.618684 88.133781 
L 148.756796 88.271731 
L 149.894908 88.336105 
L 151.03302 88.439806 
L 152.171132 88.705082 
L 153.309244 88.911087 
L 154.447356 89.575948 
L 155.585468 90.154184 
L 156.72358 90.169731 
L 157.861691 90.481385 
L 158.999803 90.626076 
L 160.137915 90.951837 
L 161.276027 91.290921 
L 162.414139 91.704406 
L 163.552251 91.911414 
L 164.690363 91.925658 
L 165.828475 93.724045 
L 166.966587 94.70181 
L 168.104698 94.799811 
L 169.24281 96.310567 
L 170.380922 97.239492 
L 171.519034 97.967548 
L 172.657146 98.521238 
L 173.795258 98.638593 
L 174.93337 98.645892 
L 176.071482 101.305769 
L 177.209594 102.302893 
L 178.347705 102.349561 
L 179.485817 102.86957 
L 180.623929 103.682774 
L 181.762041 104.364662 
L 182.900153 104.373217 
L 184.038265 104.911553 
L 185.176377 105.814785 
L 186.314489 106.324617 
L 187.452601 106.459748 
L 188.590712 107.039652 
L 189.728824 107.457071 
L 190.866936 107.603889 
L 192.005048 108.15859 
L 193.14316 108.806322 
L 194.281272 109.248431 
L 195.419384 115.427917 
L 196.557496 116.66705 
L 197.695608 118.015972 
L 198.833719 120.410715 
L 199.971831 121.605191 
L 201.109943 121.769169 
L 202.248055 122.753638 
L 203.386167 125.688648 
L 204.524279 126.078366 
L 205.662391 126.090966 
L 206.800503 127.386684 
L 207.938615 134.810135 
L 209.076726 135.309286 
L 210.214838 136.391823 
L 211.35295 145.445091 
L 212.491062 149.003331 
L 213.629174 172.890412 
L 214.767286 176.018094 
L 215.905398 177.271595 
L 217.04351 195.857587 
L 218.181622 199.941097 
L 219.319733 204.028575 
L 220.457845 217.922707 
L 221.595957 221.683195 
L 222.734069 251.505133 
L 223.872181 285.051356 
L 225.010293 307.944638 
L 226.148405 399.087244 
L 227.286517 409.530717 
L 228.424628 427.069015 
L 229.56274 449.951929 
L 230.700852 600.121292 
L 230.700852 210.636227 
L 230.700852 210.636227 
L 229.56274 167.268372 
L 228.424628 126.455075 
L 227.286517 124.522558 
L 226.148405 124.124517 
L 225.010293 123.767025 
L 223.872181 123.437946 
L 222.734069 123.383745 
L 221.595957 122.336378 
L 220.457845 122.233254 
L 219.319733 121.708227 
L 218.181622 121.330134 
L 217.04351 121.18711 
L 215.905398 120.569868 
L 214.767286 119.960357 
L 213.629174 119.368983 
L 212.491062 114.754567 
L 211.35295 112.976903 
L 210.214838 111.66223 
L 209.076726 111.609547 
L 207.938615 109.0659 
L 206.800503 108.607343 
L 205.662391 107.396029 
L 204.524279 106.972368 
L 203.386167 104.650203 
L 202.248055 101.473312 
L 201.109943 99.641739 
L 199.971831 98.816064 
L 198.833719 98.319683 
L 197.695608 98.226765 
L 196.557496 97.381309 
L 195.419384 97.199003 
L 194.281272 97.159156 
L 193.14316 96.500777 
L 192.005048 94.845553 
L 190.866936 94.677755 
L 189.728824 93.835705 
L 188.590712 92.620075 
L 187.452601 90.4914 
L 186.314489 90.007001 
L 185.176377 89.249917 
L 184.038265 89.143358 
L 182.900153 88.841206 
L 181.762041 88.290082 
L 180.623929 87.784473 
L 179.485817 87.499772 
L 178.347705 87.008578 
L 177.209594 86.000194 
L 176.071482 85.78058 
L 174.93337 85.685494 
L 173.795258 85.653798 
L 172.657146 85.310079 
L 171.519034 84.761883 
L 170.380922 84.60465 
L 169.24281 84.601871 
L 168.104698 84.58424 
L 166.966587 84.271062 
L 165.828475 83.512422 
L 164.690363 83.391059 
L 163.552251 83.242446 
L 162.414139 83.049908 
L 161.276027 82.928079 
L 160.137915 82.883996 
L 158.999803 82.79923 
L 157.861691 82.492175 
L 156.72358 81.896769 
L 155.585468 81.878861 
L 154.447356 81.455249 
L 153.309244 81.295139 
L 152.171132 81.052063 
L 151.03302 80.284413 
L 149.894908 80.130352 
L 148.756796 79.952596 
L 147.618684 79.640237 
L 146.480573 79.578507 
L 145.342461 79.538792 
L 144.204349 79.263468 
L 143.066237 79.162835 
L 141.928125 78.891604 
L 140.790013 78.788947 
L 139.651901 78.723017 
L 138.513789 78.650002 
L 137.375677 78.456454 
L 136.237566 77.543574 
L 135.099454 77.430943 
L 133.961342 77.249348 
L 132.82323 77.164119 
L 131.685118 77.061139 
L 130.547006 76.91952 
L 129.408894 76.801722 
L 128.270782 76.607011 
L 127.13267 76.206289 
L 125.994559 76.049702 
L 124.856447 76.011693 
L 123.718335 75.801012 
L 122.580223 75.417021 
L 121.442111 75.367778 
L 120.303999 74.913681 
L 119.165887 74.912631 
L 118.027775 73.618713 
L 116.889663 73.452133 
L 115.751552 73.184119 
L 114.61344 73.124975 
L 113.475328 73.029227 
L 112.337216 72.840471 
L 111.199104 72.813034 
L 110.060992 72.763694 
L 108.92288 72.591249 
L 107.784768 71.619633 
L 106.646656 71.485338 
L 105.508545 71.467192 
L 104.370433 70.97918 
L 103.232321 70.941573 
L 102.094209 70.860419 
L 100.956097 70.572434 
L 99.817985 70.418314 
L 98.679873 70.41787 
L 97.541761 70.404415 
L 96.403649 69.53633 
L 95.265538 69.420519 
L 94.127426 69.405712 
L 92.989314 69.403556 
L 91.851202 69.256842 
L 90.71309 69.244418 
L 89.574978 69.182516 
L 88.436866 68.952793 
L 87.298754 68.833593 
L 86.160642 68.626419 
L 85.022531 68.465987 
L 83.884419 68.439223 
L 82.746307 68.115348 
L 81.608195 67.683792 
L 80.470083 67.631535 
L 79.331971 67.475274 
L 78.193859 66.490474 
L 77.055747 66.309663 
L 75.917635 66.039521 
L 74.779524 65.949083 
L 73.641412 65.878037 
L 72.5033 65.62611 
L 71.365188 65.237059 
L 70.227076 65.214764 
L 69.088964 64.964885 
L 67.950852 64.802572 
L 66.81274 63.85533 
L 65.674628 63.266015 
L 64.536517 63.141431 
L 63.398405 63.09464 
L 62.260293 61.543246 
L 61.122181 61.302544 
L 59.984069 60.887787 
L 58.845957 60.471987 
L 57.707845 58.518803 
L 56.569733 58.173932 
L 55.431622 56.215478 
L 54.29351 55.594271 
L 53.155398 50.691427 
z
" style="fill:#ff2c00;fill-opacity:0.15;"/>
   </g>
   <g id="PolyCollection_5">
    <path clip-path="url(#p3debf8b1e0)" d="M 53.155398 12.392019 
L 53.155398 21.086376 
L 54.29351 25.144086 
L 55.431622 26.954549 
L 56.569733 26.992911 
L 57.707845 27.64109 
L 58.845957 31.811219 
L 59.984069 32.290395 
L 61.122181 32.711316 
L 62.260293 33.249008 
L 63.398405 34.579646 
L 64.536517 35.565012 
L 65.674628 36.052794 
L 66.81274 36.711921 
L 67.950852 39.191651 
L 69.088964 40.814433 
L 70.227076 41.760514 
L 71.365188 41.813213 
L 72.5033 42.712633 
L 73.641412 42.88372 
L 74.779524 43.100271 
L 75.917635 43.324345 
L 77.055747 43.415177 
L 78.193859 43.810787 
L 79.331971 45.102861 
L 80.470083 45.541499 
L 81.608195 45.999527 
L 82.746307 46.243157 
L 83.884419 46.401137 
L 85.022531 46.40828 
L 86.160642 47.454722 
L 87.298754 48.538406 
L 88.436866 48.578214 
L 89.574978 49.405983 
L 90.71309 49.492245 
L 91.851202 49.74381 
L 92.989314 50.362397 
L 94.127426 50.654056 
L 95.265538 51.698889 
L 96.403649 51.717687 
L 97.541761 51.833813 
L 98.679873 52.121693 
L 99.817985 52.344737 
L 100.956097 52.538142 
L 102.094209 53.106958 
L 103.232321 53.529567 
L 104.370433 53.76748 
L 105.508545 53.872593 
L 106.646656 53.890875 
L 107.784768 53.98291 
L 108.92288 54.028496 
L 110.060992 54.512848 
L 111.199104 54.717808 
L 112.337216 54.878574 
L 113.475328 55.541114 
L 114.61344 55.548716 
L 115.751552 55.82047 
L 116.889663 56.666004 
L 118.027775 57.101128 
L 119.165887 57.214769 
L 120.303999 57.497597 
L 121.442111 57.994775 
L 122.580223 58.360918 
L 123.718335 58.492117 
L 124.856447 58.789528 
L 125.994559 58.867239 
L 127.13267 59.369275 
L 128.270782 59.408211 
L 129.408894 59.451747 
L 130.547006 59.648001 
L 131.685118 60.096583 
L 132.82323 60.17708 
L 133.961342 60.651379 
L 135.099454 60.908805 
L 136.237566 61.187739 
L 137.375677 61.408237 
L 138.513789 61.497192 
L 139.651901 61.730142 
L 140.790013 62.131188 
L 141.928125 62.181863 
L 143.066237 62.626014 
L 144.204349 62.706843 
L 145.342461 62.856198 
L 146.480573 63.067949 
L 147.618684 63.537631 
L 148.756796 63.571059 
L 149.894908 63.730566 
L 151.03302 63.974481 
L 152.171132 63.993155 
L 153.309244 64.066208 
L 154.447356 64.194278 
L 155.585468 64.279767 
L 156.72358 64.417754 
L 157.861691 64.47828 
L 158.999803 64.729839 
L 160.137915 64.905304 
L 161.276027 64.954855 
L 162.414139 65.148099 
L 163.552251 65.332443 
L 164.690363 65.519828 
L 165.828475 65.608039 
L 166.966587 65.642748 
L 168.104698 65.72522 
L 169.24281 65.747089 
L 170.380922 65.823105 
L 171.519034 65.872833 
L 172.657146 65.936389 
L 173.795258 65.980355 
L 174.93337 65.999502 
L 176.071482 66.032151 
L 177.209594 66.066278 
L 178.347705 66.27752 
L 179.485817 66.349909 
L 180.623929 66.543551 
L 181.762041 66.614337 
L 182.900153 66.996787 
L 184.038265 67.163103 
L 185.176377 67.225801 
L 186.314489 67.232214 
L 187.452601 67.247213 
L 188.590712 67.339914 
L 189.728824 67.397852 
L 190.866936 67.429479 
L 192.005048 67.502552 
L 193.14316 67.503054 
L 194.281272 67.734912 
L 195.419384 67.939409 
L 196.557496 68.034612 
L 197.695608 68.064803 
L 198.833719 68.176193 
L 199.971831 68.270367 
L 201.109943 68.286135 
L 202.248055 68.783198 
L 203.386167 68.855377 
L 204.524279 69.000942 
L 205.662391 69.027102 
L 206.800503 69.187511 
L 207.938615 69.225954 
L 209.076726 69.285999 
L 210.214838 69.417192 
L 211.35295 69.531438 
L 212.491062 69.592545 
L 213.629174 69.611611 
L 214.767286 69.688757 
L 215.905398 69.71141 
L 217.04351 69.722663 
L 218.181622 69.854708 
L 219.319733 69.904623 
L 220.457845 69.97025 
L 221.595957 70.327872 
L 222.734069 70.693432 
L 223.872181 71.210964 
L 225.010293 71.236833 
L 226.148405 71.280823 
L 227.286517 72.05943 
L 228.424628 72.458378 
L 229.56274 73.014619 
L 230.700852 73.185909 
L 230.700852 69.857835 
L 230.700852 69.857835 
L 229.56274 69.486404 
L 228.424628 68.549268 
L 227.286517 68.340097 
L 226.148405 66.6717 
L 225.010293 66.601364 
L 223.872181 66.588252 
L 222.734069 66.426546 
L 221.595957 66.370787 
L 220.457845 66.327799 
L 219.319733 66.305955 
L 218.181622 66.284911 
L 217.04351 66.19662 
L 215.905398 66.194086 
L 214.767286 66.05529 
L 213.629174 66.033936 
L 212.491062 65.825126 
L 211.35295 65.421459 
L 210.214838 65.373315 
L 209.076726 65.111105 
L 207.938615 65.09413 
L 206.800503 64.877882 
L 205.662391 64.770781 
L 204.524279 64.756677 
L 203.386167 64.521926 
L 202.248055 64.256698 
L 201.109943 64.162102 
L 199.971831 63.995117 
L 198.833719 63.914262 
L 197.695608 63.802557 
L 196.557496 63.78579 
L 195.419384 63.476426 
L 194.281272 63.340998 
L 193.14316 63.330845 
L 192.005048 63.30227 
L 190.866936 63.150654 
L 189.728824 63.095713 
L 188.590712 62.820357 
L 187.452601 62.576816 
L 186.314489 62.517075 
L 185.176377 62.436689 
L 184.038265 62.31589 
L 182.900153 62.302167 
L 181.762041 62.261038 
L 180.623929 62.199022 
L 179.485817 62.174932 
L 178.347705 61.935791 
L 177.209594 61.85567 
L 176.071482 61.840237 
L 174.93337 61.808156 
L 173.795258 61.642721 
L 172.657146 61.554949 
L 171.519034 61.475239 
L 170.380922 61.336382 
L 169.24281 61.112874 
L 168.104698 60.757647 
L 166.966587 60.613143 
L 165.828475 60.587326 
L 164.690363 60.587247 
L 163.552251 60.449292 
L 162.414139 60.41529 
L 161.276027 60.411602 
L 160.137915 60.184858 
L 158.999803 60.086325 
L 157.861691 59.937317 
L 156.72358 59.896983 
L 155.585468 59.887542 
L 154.447356 59.66667 
L 153.309244 59.215626 
L 152.171132 59.017193 
L 151.03302 58.705781 
L 149.894908 58.567208 
L 148.756796 58.560094 
L 147.618684 58.519003 
L 146.480573 58.323722 
L 145.342461 58.201217 
L 144.204349 58.052666 
L 143.066237 57.644381 
L 141.928125 57.406008 
L 140.790013 57.037221 
L 139.651901 56.892439 
L 138.513789 56.703785 
L 137.375677 56.171177 
L 136.237566 56.107236 
L 135.099454 55.480864 
L 133.961342 55.389334 
L 132.82323 55.128034 
L 131.685118 55.080822 
L 130.547006 54.652651 
L 129.408894 54.475945 
L 128.270782 54.368546 
L 127.13267 54.267082 
L 125.994559 54.101308 
L 124.856447 53.854282 
L 123.718335 53.219264 
L 122.580223 53.102224 
L 121.442111 52.88251 
L 120.303999 52.709708 
L 119.165887 52.635205 
L 118.027775 52.571278 
L 116.889663 51.903268 
L 115.751552 51.708131 
L 114.61344 51.327934 
L 113.475328 51.068787 
L 112.337216 50.662595 
L 111.199104 50.152517 
L 110.060992 50.008202 
L 108.92288 49.812679 
L 107.784768 49.145151 
L 106.646656 48.228937 
L 105.508545 47.901926 
L 104.370433 47.738954 
L 103.232321 47.599297 
L 102.094209 47.328657 
L 100.956097 47.206948 
L 99.817985 46.742873 
L 98.679873 46.402664 
L 97.541761 45.863548 
L 96.403649 45.811723 
L 95.265538 45.455042 
L 94.127426 45.134393 
L 92.989314 44.99347 
L 91.851202 44.842768 
L 90.71309 43.658137 
L 89.574978 42.913889 
L 88.436866 42.646913 
L 87.298754 42.484888 
L 86.160642 42.32911 
L 85.022531 40.272169 
L 83.884419 39.759433 
L 82.746307 39.533022 
L 81.608195 38.938717 
L 80.470083 38.408211 
L 79.331971 37.746738 
L 78.193859 37.727935 
L 77.055747 37.088644 
L 75.917635 37.031907 
L 74.779524 36.869755 
L 73.641412 36.060631 
L 72.5033 36.054217 
L 71.365188 35.901234 
L 70.227076 35.257003 
L 69.088964 34.856523 
L 67.950852 34.536626 
L 66.81274 30.386002 
L 65.674628 30.053803 
L 64.536517 29.802304 
L 63.398405 29.006637 
L 62.260293 28.77397 
L 61.122181 27.326767 
L 59.984069 26.611415 
L 58.845957 26.310584 
L 57.707845 19.882997 
L 56.569733 19.475153 
L 55.431622 19.43116 
L 54.29351 18.885082 
L 53.155398 12.392019 
z
" style="fill:#845b97;fill-opacity:0.15;"/>
   </g>
   <g id="matplotlib.axis_1">
    <g id="xtick_1">
     <g id="line2d_1">
      <defs>
       <path d="M 0 0 
L 0 -3 
" id="maf2a0d5704" style="stroke:#000000;stroke-width:0.5;"/>
      </defs>
      <g>
       <use style="stroke:#000000;stroke-width:0.5;" x="53.155398" xlink:href="#maf2a0d5704" y="150.094219"/>
      </g>
     </g>
     <g id="line2d_2">
      <defs>
       <path d="M 0 0 
L 0 3 
" id="mb869eeef57" style="stroke:#000000;stroke-width:0.5;"/>
      </defs>
      <g>
       <use style="stroke:#000000;stroke-width:0.5;" x="53.155398" xlink:href="#mb869eeef57" y="7.399219"/>
      </g>
     </g>
     <g id="text_1">
      <!-- 0 -->
      <g transform="translate(49.974148 161.192656)scale(0.1 -0.1)">
       <defs>
        <path d="M 2034 4250 
Q 1547 4250 1301 3770 
Q 1056 3291 1056 2328 
Q 1056 1369 1301 889 
Q 1547 409 2034 409 
Q 2525 409 2770 889 
Q 3016 1369 3016 2328 
Q 3016 3291 2770 3770 
Q 2525 4250 2034 4250 
z
M 2034 4750 
Q 2819 4750 3233 4129 
Q 3647 3509 3647 2328 
Q 3647 1150 3233 529 
Q 2819 -91 2034 -91 
Q 1250 -91 836 529 
Q 422 1150 422 2328 
Q 422 3509 836 4129 
Q 1250 4750 2034 4750 
z
" id="DejaVuSans-30" transform="scale(0.015625)"/>
       </defs>
       <use xlink:href="#DejaVuSans-30"/>
      </g>
     </g>
    </g>
    <g id="xtick_2">
     <g id="line2d_3">
      <g>
       <use style="stroke:#000000;stroke-width:0.5;" x="110.060992" xlink:href="#maf2a0d5704" y="150.094219"/>
      </g>
     </g>
     <g id="line2d_4">
      <g>
       <use style="stroke:#000000;stroke-width:0.5;" x="110.060992" xlink:href="#mb869eeef57" y="7.399219"/>
      </g>
     </g>
     <g id="text_2">
      <!-- 50 -->
      <g transform="translate(103.698492 161.192656)scale(0.1 -0.1)">
       <defs>
        <path d="M 691 4666 
L 3169 4666 
L 3169 4134 
L 1269 4134 
L 1269 2991 
Q 1406 3038 1543 3061 
Q 1681 3084 1819 3084 
Q 2600 3084 3056 2656 
Q 3513 2228 3513 1497 
Q 3513 744 3044 326 
Q 2575 -91 1722 -91 
Q 1428 -91 1123 -41 
Q 819 9 494 109 
L 494 744 
Q 775 591 1075 516 
Q 1375 441 1709 441 
Q 2250 441 2565 725 
Q 2881 1009 2881 1497 
Q 2881 1984 2565 2268 
Q 2250 2553 1709 2553 
Q 1456 2553 1204 2497 
Q 953 2441 691 2322 
L 691 4666 
z
" id="DejaVuSans-35" transform="scale(0.015625)"/>
       </defs>
       <use xlink:href="#DejaVuSans-35"/>
       <use x="63.623047" xlink:href="#DejaVuSans-30"/>
      </g>
     </g>
    </g>
    <g id="xtick_3">
     <g id="line2d_5">
      <g>
       <use style="stroke:#000000;stroke-width:0.5;" x="166.966587" xlink:href="#maf2a0d5704" y="150.094219"/>
      </g>
     </g>
     <g id="line2d_6">
      <g>
       <use style="stroke:#000000;stroke-width:0.5;" x="166.966587" xlink:href="#mb869eeef57" y="7.399219"/>
      </g>
     </g>
     <g id="text_3">
      <!-- 100 -->
      <g transform="translate(157.422837 161.192656)scale(0.1 -0.1)">
       <defs>
        <path d="M 794 531 
L 1825 531 
L 1825 4091 
L 703 3866 
L 703 4441 
L 1819 4666 
L 2450 4666 
L 2450 531 
L 3481 531 
L 3481 0 
L 794 0 
L 794 531 
z
" id="DejaVuSans-31" transform="scale(0.015625)"/>
       </defs>
       <use xlink:href="#DejaVuSans-31"/>
       <use x="63.623047" xlink:href="#DejaVuSans-30"/>
       <use x="127.246094" xlink:href="#DejaVuSans-30"/>
      </g>
     </g>
    </g>
    <g id="xtick_4">
     <g id="line2d_7">
      <g>
       <use style="stroke:#000000;stroke-width:0.5;" x="223.872181" xlink:href="#maf2a0d5704" y="150.094219"/>
      </g>
     </g>
     <g id="line2d_8">
      <g>
       <use style="stroke:#000000;stroke-width:0.5;" x="223.872181" xlink:href="#mb869eeef57" y="7.399219"/>
      </g>
     </g>
     <g id="text_4">
      <!-- 150 -->
      <g transform="translate(214.328431 161.192656)scale(0.1 -0.1)">
       <use xlink:href="#DejaVuSans-31"/>
       <use x="63.623047" xlink:href="#DejaVuSans-35"/>
       <use x="127.246094" xlink:href="#DejaVuSans-30"/>
      </g>
     </g>
    </g>
    <g id="xtick_5">
     <g id="line2d_9">
      <defs>
       <path d="M 0 0 
L 0 -1.5 
" id="m5ae926092a" style="stroke:#000000;stroke-width:0.5;"/>
      </defs>
      <g>
       <use style="stroke:#000000;stroke-width:0.5;" x="64.536517" xlink:href="#m5ae926092a" y="150.094219"/>
      </g>
     </g>
     <g id="line2d_10">
      <defs>
       <path d="M 0 0 
L 0 1.5 
" id="mb574c7477f" style="stroke:#000000;stroke-width:0.5;"/>
      </defs>
      <g>
       <use style="stroke:#000000;stroke-width:0.5;" x="64.536517" xlink:href="#mb574c7477f" y="7.399219"/>
      </g>
     </g>
    </g>
    <g id="xtick_6">
     <g id="line2d_11">
      <g>
       <use style="stroke:#000000;stroke-width:0.5;" x="75.917635" xlink:href="#m5ae926092a" y="150.094219"/>
      </g>
     </g>
     <g id="line2d_12">
      <g>
       <use style="stroke:#000000;stroke-width:0.5;" x="75.917635" xlink:href="#mb574c7477f" y="7.399219"/>
      </g>
     </g>
    </g>
    <g id="xtick_7">
     <g id="line2d_13">
      <g>
       <use style="stroke:#000000;stroke-width:0.5;" x="87.298754" xlink:href="#m5ae926092a" y="150.094219"/>
      </g>
     </g>
     <g id="line2d_14">
      <g>
       <use style="stroke:#000000;stroke-width:0.5;" x="87.298754" xlink:href="#mb574c7477f" y="7.399219"/>
      </g>
     </g>
    </g>
    <g id="xtick_8">
     <g id="line2d_15">
      <g>
       <use style="stroke:#000000;stroke-width:0.5;" x="98.679873" xlink:href="#m5ae926092a" y="150.094219"/>
      </g>
     </g>
     <g id="line2d_16">
      <g>
       <use style="stroke:#000000;stroke-width:0.5;" x="98.679873" xlink:href="#mb574c7477f" y="7.399219"/>
      </g>
     </g>
    </g>
    <g id="xtick_9">
     <g id="line2d_17">
      <g>
       <use style="stroke:#000000;stroke-width:0.5;" x="121.442111" xlink:href="#m5ae926092a" y="150.094219"/>
      </g>
     </g>
     <g id="line2d_18">
      <g>
       <use style="stroke:#000000;stroke-width:0.5;" x="121.442111" xlink:href="#mb574c7477f" y="7.399219"/>
      </g>
     </g>
    </g>
    <g id="xtick_10">
     <g id="line2d_19">
      <g>
       <use style="stroke:#000000;stroke-width:0.5;" x="132.82323" xlink:href="#m5ae926092a" y="150.094219"/>
      </g>
     </g>
     <g id="line2d_20">
      <g>
       <use style="stroke:#000000;stroke-width:0.5;" x="132.82323" xlink:href="#mb574c7477f" y="7.399219"/>
      </g>
     </g>
    </g>
    <g id="xtick_11">
     <g id="line2d_21">
      <g>
       <use style="stroke:#000000;stroke-width:0.5;" x="144.204349" xlink:href="#m5ae926092a" y="150.094219"/>
      </g>
     </g>
     <g id="line2d_22">
      <g>
       <use style="stroke:#000000;stroke-width:0.5;" x="144.204349" xlink:href="#mb574c7477f" y="7.399219"/>
      </g>
     </g>
    </g>
    <g id="xtick_12">
     <g id="line2d_23">
      <g>
       <use style="stroke:#000000;stroke-width:0.5;" x="155.585468" xlink:href="#m5ae926092a" y="150.094219"/>
      </g>
     </g>
     <g id="line2d_24">
      <g>
       <use style="stroke:#000000;stroke-width:0.5;" x="155.585468" xlink:href="#mb574c7477f" y="7.399219"/>
      </g>
     </g>
    </g>
    <g id="xtick_13">
     <g id="line2d_25">
      <g>
       <use style="stroke:#000000;stroke-width:0.5;" x="178.347705" xlink:href="#m5ae926092a" y="150.094219"/>
      </g>
     </g>
     <g id="line2d_26">
      <g>
       <use style="stroke:#000000;stroke-width:0.5;" x="178.347705" xlink:href="#mb574c7477f" y="7.399219"/>
      </g>
     </g>
    </g>
    <g id="xtick_14">
     <g id="line2d_27">
      <g>
       <use style="stroke:#000000;stroke-width:0.5;" x="189.728824" xlink:href="#m5ae926092a" y="150.094219"/>
      </g>
     </g>
     <g id="line2d_28">
      <g>
       <use style="stroke:#000000;stroke-width:0.5;" x="189.728824" xlink:href="#mb574c7477f" y="7.399219"/>
      </g>
     </g>
    </g>
    <g id="xtick_15">
     <g id="line2d_29">
      <g>
       <use style="stroke:#000000;stroke-width:0.5;" x="201.109943" xlink:href="#m5ae926092a" y="150.094219"/>
      </g>
     </g>
     <g id="line2d_30">
      <g>
       <use style="stroke:#000000;stroke-width:0.5;" x="201.109943" xlink:href="#mb574c7477f" y="7.399219"/>
      </g>
     </g>
    </g>
    <g id="xtick_16">
     <g id="line2d_31">
      <g>
       <use style="stroke:#000000;stroke-width:0.5;" x="212.491062" xlink:href="#m5ae926092a" y="150.094219"/>
      </g>
     </g>
     <g id="line2d_32">
      <g>
       <use style="stroke:#000000;stroke-width:0.5;" x="212.491062" xlink:href="#mb574c7477f" y="7.399219"/>
      </g>
     </g>
    </g>
    <g id="xtick_17">
     <g id="line2d_33">
      <g>
       <use style="stroke:#000000;stroke-width:0.5;" x="235.2533" xlink:href="#m5ae926092a" y="150.094219"/>
      </g>
     </g>
     <g id="line2d_34">
      <g>
       <use style="stroke:#000000;stroke-width:0.5;" x="235.2533" xlink:href="#mb574c7477f" y="7.399219"/>
      </g>
     </g>
    </g>
    <g id="text_5">
     <!-- # Events -->
     <g transform="translate(119.220313 174.870781)scale(0.1 -0.1)">
      <defs>
       <path d="M 3272 2816 
L 2363 2816 
L 2100 1772 
L 3016 1772 
L 3272 2816 
z
M 2803 4594 
L 2478 3297 
L 3391 3297 
L 3719 4594 
L 4219 4594 
L 3897 3297 
L 4872 3297 
L 4872 2816 
L 3775 2816 
L 3519 1772 
L 4513 1772 
L 4513 1294 
L 3397 1294 
L 3072 0 
L 2572 0 
L 2894 1294 
L 1978 1294 
L 1656 0 
L 1153 0 
L 1478 1294 
L 494 1294 
L 494 1772 
L 1594 1772 
L 1856 2816 
L 850 2816 
L 850 3297 
L 1978 3297 
L 2297 4594 
L 2803 4594 
z
" id="DejaVuSans-23" transform="scale(0.015625)"/>
       <path id="DejaVuSans-20" transform="scale(0.015625)"/>
       <path d="M 628 4666 
L 3578 4666 
L 3578 4134 
L 1259 4134 
L 1259 2753 
L 3481 2753 
L 3481 2222 
L 1259 2222 
L 1259 531 
L 3634 531 
L 3634 0 
L 628 0 
L 628 4666 
z
" id="DejaVuSans-45" transform="scale(0.015625)"/>
       <path d="M 191 3500 
L 800 3500 
L 1894 563 
L 2988 3500 
L 3597 3500 
L 2284 0 
L 1503 0 
L 191 3500 
z
" id="DejaVuSans-76" transform="scale(0.015625)"/>
       <path d="M 3597 1894 
L 3597 1613 
L 953 1613 
Q 991 1019 1311 708 
Q 1631 397 2203 397 
Q 2534 397 2845 478 
Q 3156 559 3463 722 
L 3463 178 
Q 3153 47 2828 -22 
Q 2503 -91 2169 -91 
Q 1331 -91 842 396 
Q 353 884 353 1716 
Q 353 2575 817 3079 
Q 1281 3584 2069 3584 
Q 2775 3584 3186 3129 
Q 3597 2675 3597 1894 
z
M 3022 2063 
Q 3016 2534 2758 2815 
Q 2500 3097 2075 3097 
Q 1594 3097 1305 2825 
Q 1016 2553 972 2059 
L 3022 2063 
z
" id="DejaVuSans-65" transform="scale(0.015625)"/>
       <path d="M 3513 2113 
L 3513 0 
L 2938 0 
L 2938 2094 
Q 2938 2591 2744 2837 
Q 2550 3084 2163 3084 
Q 1697 3084 1428 2787 
Q 1159 2491 1159 1978 
L 1159 0 
L 581 0 
L 581 3500 
L 1159 3500 
L 1159 2956 
Q 1366 3272 1645 3428 
Q 1925 3584 2291 3584 
Q 2894 3584 3203 3211 
Q 3513 2838 3513 2113 
z
" id="DejaVuSans-6e" transform="scale(0.015625)"/>
       <path d="M 1172 4494 
L 1172 3500 
L 2356 3500 
L 2356 3053 
L 1172 3053 
L 1172 1153 
Q 1172 725 1289 603 
Q 1406 481 1766 481 
L 2356 481 
L 2356 0 
L 1766 0 
Q 1100 0 847 248 
Q 594 497 594 1153 
L 594 3053 
L 172 3053 
L 172 3500 
L 594 3500 
L 594 4494 
L 1172 4494 
z
" id="DejaVuSans-74" transform="scale(0.015625)"/>
       <path d="M 2834 3397 
L 2834 2853 
Q 2591 2978 2328 3040 
Q 2066 3103 1784 3103 
Q 1356 3103 1142 2972 
Q 928 2841 928 2578 
Q 928 2378 1081 2264 
Q 1234 2150 1697 2047 
L 1894 2003 
Q 2506 1872 2764 1633 
Q 3022 1394 3022 966 
Q 3022 478 2636 193 
Q 2250 -91 1575 -91 
Q 1294 -91 989 -36 
Q 684 19 347 128 
L 347 722 
Q 666 556 975 473 
Q 1284 391 1588 391 
Q 1994 391 2212 530 
Q 2431 669 2431 922 
Q 2431 1156 2273 1281 
Q 2116 1406 1581 1522 
L 1381 1569 
Q 847 1681 609 1914 
Q 372 2147 372 2553 
Q 372 3047 722 3315 
Q 1072 3584 1716 3584 
Q 2034 3584 2315 3537 
Q 2597 3491 2834 3397 
z
" id="DejaVuSans-73" transform="scale(0.015625)"/>
      </defs>
      <use xlink:href="#DejaVuSans-23"/>
      <use x="83.789062" xlink:href="#DejaVuSans-20"/>
      <use x="115.576172" xlink:href="#DejaVuSans-45"/>
      <use x="178.759766" xlink:href="#DejaVuSans-76"/>
      <use x="237.939453" xlink:href="#DejaVuSans-65"/>
      <use x="299.462891" xlink:href="#DejaVuSans-6e"/>
      <use x="362.841797" xlink:href="#DejaVuSans-74"/>
      <use x="402.050781" xlink:href="#DejaVuSans-73"/>
     </g>
    </g>
   </g>
   <g id="matplotlib.axis_2">
    <g id="ytick_1">
     <g id="line2d_35">
      <defs>
       <path d="M 0 0 
L 3 0 
" id="m8ae11d29c6" style="stroke:#000000;stroke-width:0.5;"/>
      </defs>
      <g>
       <use style="stroke:#000000;stroke-width:0.5;" x="44.278125" xlink:href="#m8ae11d29c6" y="150.094219"/>
      </g>
     </g>
     <g id="line2d_36">
      <defs>
       <path d="M 0 0 
L -3 0 
" id="m2c18f06497" style="stroke:#000000;stroke-width:0.5;"/>
      </defs>
      <g>
       <use style="stroke:#000000;stroke-width:0.5;" x="239.578125" xlink:href="#m2c18f06497" y="150.094219"/>
      </g>
     </g>
     <g id="text_6">
      <!-- $\mathdefault{10^{-5}}$ -->
      <g transform="translate(17.278125 153.893437)scale(0.1 -0.1)">
       <defs>
        <path d="M 678 2272 
L 4684 2272 
L 4684 1741 
L 678 1741 
L 678 2272 
z
" id="DejaVuSans-2212" transform="scale(0.015625)"/>
       </defs>
       <use transform="translate(0 0.684375)" xlink:href="#DejaVuSans-31"/>
       <use transform="translate(63.623047 0.684375)" xlink:href="#DejaVuSans-30"/>
       <use transform="translate(128.203125 38.965625)scale(0.7)" xlink:href="#DejaVuSans-2212"/>
       <use transform="translate(186.855469 38.965625)scale(0.7)" xlink:href="#DejaVuSans-35"/>
      </g>
     </g>
    </g>
    <g id="ytick_2">
     <g id="line2d_37">
      <g>
       <use style="stroke:#000000;stroke-width:0.5;" x="44.278125" xlink:href="#m8ae11d29c6" y="121.555219"/>
      </g>
     </g>
     <g id="line2d_38">
      <g>
       <use style="stroke:#000000;stroke-width:0.5;" x="239.578125" xlink:href="#m2c18f06497" y="121.555219"/>
      </g>
     </g>
     <g id="text_7">
      <!-- $\mathdefault{10^{-4}}$ -->
      <g transform="translate(17.278125 125.354437)scale(0.1 -0.1)">
       <defs>
        <path d="M 2419 4116 
L 825 1625 
L 2419 1625 
L 2419 4116 
z
M 2253 4666 
L 3047 4666 
L 3047 1625 
L 3713 1625 
L 3713 1100 
L 3047 1100 
L 3047 0 
L 2419 0 
L 2419 1100 
L 313 1100 
L 313 1709 
L 2253 4666 
z
" id="DejaVuSans-34" transform="scale(0.015625)"/>
       </defs>
       <use transform="translate(0 0.684375)" xlink:href="#DejaVuSans-31"/>
       <use transform="translate(63.623047 0.684375)" xlink:href="#DejaVuSans-30"/>
       <use transform="translate(128.203125 38.965625)scale(0.7)" xlink:href="#DejaVuSans-2212"/>
       <use transform="translate(186.855469 38.965625)scale(0.7)" xlink:href="#DejaVuSans-34"/>
      </g>
     </g>
    </g>
    <g id="ytick_3">
     <g id="line2d_39">
      <g>
       <use style="stroke:#000000;stroke-width:0.5;" x="44.278125" xlink:href="#m8ae11d29c6" y="93.016219"/>
      </g>
     </g>
     <g id="line2d_40">
      <g>
       <use style="stroke:#000000;stroke-width:0.5;" x="239.578125" xlink:href="#m2c18f06497" y="93.016219"/>
      </g>
     </g>
     <g id="text_8">
      <!-- $\mathdefault{10^{-3}}$ -->
      <g transform="translate(17.278125 96.815437)scale(0.1 -0.1)">
       <defs>
        <path d="M 2597 2516 
Q 3050 2419 3304 2112 
Q 3559 1806 3559 1356 
Q 3559 666 3084 287 
Q 2609 -91 1734 -91 
Q 1441 -91 1130 -33 
Q 819 25 488 141 
L 488 750 
Q 750 597 1062 519 
Q 1375 441 1716 441 
Q 2309 441 2620 675 
Q 2931 909 2931 1356 
Q 2931 1769 2642 2001 
Q 2353 2234 1838 2234 
L 1294 2234 
L 1294 2753 
L 1863 2753 
Q 2328 2753 2575 2939 
Q 2822 3125 2822 3475 
Q 2822 3834 2567 4026 
Q 2313 4219 1838 4219 
Q 1578 4219 1281 4162 
Q 984 4106 628 3988 
L 628 4550 
Q 988 4650 1302 4700 
Q 1616 4750 1894 4750 
Q 2613 4750 3031 4423 
Q 3450 4097 3450 3541 
Q 3450 3153 3228 2886 
Q 3006 2619 2597 2516 
z
" id="DejaVuSans-33" transform="scale(0.015625)"/>
       </defs>
       <use transform="translate(0 0.765625)" xlink:href="#DejaVuSans-31"/>
       <use transform="translate(63.623047 0.765625)" xlink:href="#DejaVuSans-30"/>
       <use transform="translate(128.203125 39.046875)scale(0.7)" xlink:href="#DejaVuSans-2212"/>
       <use transform="translate(186.855469 39.046875)scale(0.7)" xlink:href="#DejaVuSans-33"/>
      </g>
     </g>
    </g>
    <g id="ytick_4">
     <g id="line2d_41">
      <g>
       <use style="stroke:#000000;stroke-width:0.5;" x="44.278125" xlink:href="#m8ae11d29c6" y="64.477219"/>
      </g>
     </g>
     <g id="line2d_42">
      <g>
       <use style="stroke:#000000;stroke-width:0.5;" x="239.578125" xlink:href="#m2c18f06497" y="64.477219"/>
      </g>
     </g>
     <g id="text_9">
      <!-- $\mathdefault{10^{-2}}$ -->
      <g transform="translate(17.278125 68.276437)scale(0.1 -0.1)">
       <defs>
        <path d="M 1228 531 
L 3431 531 
L 3431 0 
L 469 0 
L 469 531 
Q 828 903 1448 1529 
Q 2069 2156 2228 2338 
Q 2531 2678 2651 2914 
Q 2772 3150 2772 3378 
Q 2772 3750 2511 3984 
Q 2250 4219 1831 4219 
Q 1534 4219 1204 4116 
Q 875 4013 500 3803 
L 500 4441 
Q 881 4594 1212 4672 
Q 1544 4750 1819 4750 
Q 2544 4750 2975 4387 
Q 3406 4025 3406 3419 
Q 3406 3131 3298 2873 
Q 3191 2616 2906 2266 
Q 2828 2175 2409 1742 
Q 1991 1309 1228 531 
z
" id="DejaVuSans-32" transform="scale(0.015625)"/>
       </defs>
       <use transform="translate(0 0.765625)" xlink:href="#DejaVuSans-31"/>
       <use transform="translate(63.623047 0.765625)" xlink:href="#DejaVuSans-30"/>
       <use transform="translate(128.203125 39.046875)scale(0.7)" xlink:href="#DejaVuSans-2212"/>
       <use transform="translate(186.855469 39.046875)scale(0.7)" xlink:href="#DejaVuSans-32"/>
      </g>
     </g>
    </g>
    <g id="ytick_5">
     <g id="line2d_43">
      <g>
       <use style="stroke:#000000;stroke-width:0.5;" x="44.278125" xlink:href="#m8ae11d29c6" y="35.938219"/>
      </g>
     </g>
     <g id="line2d_44">
      <g>
       <use style="stroke:#000000;stroke-width:0.5;" x="239.578125" xlink:href="#m2c18f06497" y="35.938219"/>
      </g>
     </g>
     <g id="text_10">
      <!-- $\mathdefault{10^{-1}}$ -->
      <g transform="translate(17.278125 39.737437)scale(0.1 -0.1)">
       <use transform="translate(0 0.684375)" xlink:href="#DejaVuSans-31"/>
       <use transform="translate(63.623047 0.684375)" xlink:href="#DejaVuSans-30"/>
       <use transform="translate(128.203125 38.965625)scale(0.7)" xlink:href="#DejaVuSans-2212"/>
       <use transform="translate(186.855469 38.965625)scale(0.7)" xlink:href="#DejaVuSans-31"/>
      </g>
     </g>
    </g>
    <g id="ytick_6">
     <g id="line2d_45">
      <g>
       <use style="stroke:#000000;stroke-width:0.5;" x="44.278125" xlink:href="#m8ae11d29c6" y="7.399219"/>
      </g>
     </g>
     <g id="line2d_46">
      <g>
       <use style="stroke:#000000;stroke-width:0.5;" x="239.578125" xlink:href="#m2c18f06497" y="7.399219"/>
      </g>
     </g>
     <g id="text_11">
      <!-- $\mathdefault{10^{0}}$ -->
      <g transform="translate(23.178125 11.198437)scale(0.1 -0.1)">
       <use transform="translate(0 0.765625)" xlink:href="#DejaVuSans-31"/>
       <use transform="translate(63.623047 0.765625)" xlink:href="#DejaVuSans-30"/>
       <use transform="translate(128.203125 39.046875)scale(0.7)" xlink:href="#DejaVuSans-30"/>
      </g>
     </g>
    </g>
    <g id="ytick_7">
     <g id="line2d_47">
      <defs>
       <path d="M 0 0 
L 1.5 0 
" id="m49b4413597" style="stroke:#000000;stroke-width:0.5;"/>
      </defs>
      <g>
       <use style="stroke:#000000;stroke-width:0.5;" x="44.278125" xlink:href="#m49b4413597" y="141.503124"/>
      </g>
     </g>
     <g id="line2d_48">
      <defs>
       <path d="M 0 0 
L -1.5 0 
" id="m096dda5c5b" style="stroke:#000000;stroke-width:0.5;"/>
      </defs>
      <g>
       <use style="stroke:#000000;stroke-width:0.5;" x="239.578125" xlink:href="#m096dda5c5b" y="141.503124"/>
      </g>
     </g>
    </g>
    <g id="ytick_8">
     <g id="line2d_49">
      <g>
       <use style="stroke:#000000;stroke-width:0.5;" x="44.278125" xlink:href="#m49b4413597" y="136.477655"/>
      </g>
     </g>
     <g id="line2d_50">
      <g>
       <use style="stroke:#000000;stroke-width:0.5;" x="239.578125" xlink:href="#m096dda5c5b" y="136.477655"/>
      </g>
     </g>
    </g>
    <g id="ytick_9">
     <g id="line2d_51">
      <g>
       <use style="stroke:#000000;stroke-width:0.5;" x="44.278125" xlink:href="#m49b4413597" y="132.912029"/>
      </g>
     </g>
     <g id="line2d_52">
      <g>
       <use style="stroke:#000000;stroke-width:0.5;" x="239.578125" xlink:href="#m096dda5c5b" y="132.912029"/>
      </g>
     </g>
    </g>
    <g id="ytick_10">
     <g id="line2d_53">
      <g>
       <use style="stroke:#000000;stroke-width:0.5;" x="44.278125" xlink:href="#m49b4413597" y="130.146314"/>
      </g>
     </g>
     <g id="line2d_54">
      <g>
       <use style="stroke:#000000;stroke-width:0.5;" x="239.578125" xlink:href="#m096dda5c5b" y="130.146314"/>
      </g>
     </g>
    </g>
    <g id="ytick_11">
     <g id="line2d_55">
      <g>
       <use style="stroke:#000000;stroke-width:0.5;" x="44.278125" xlink:href="#m49b4413597" y="127.88656"/>
      </g>
     </g>
     <g id="line2d_56">
      <g>
       <use style="stroke:#000000;stroke-width:0.5;" x="239.578125" xlink:href="#m096dda5c5b" y="127.88656"/>
      </g>
     </g>
    </g>
    <g id="ytick_12">
     <g id="line2d_57">
      <g>
       <use style="stroke:#000000;stroke-width:0.5;" x="44.278125" xlink:href="#m49b4413597" y="125.975966"/>
      </g>
     </g>
     <g id="line2d_58">
      <g>
       <use style="stroke:#000000;stroke-width:0.5;" x="239.578125" xlink:href="#m096dda5c5b" y="125.975966"/>
      </g>
     </g>
    </g>
    <g id="ytick_13">
     <g id="line2d_59">
      <g>
       <use style="stroke:#000000;stroke-width:0.5;" x="44.278125" xlink:href="#m49b4413597" y="124.320934"/>
      </g>
     </g>
     <g id="line2d_60">
      <g>
       <use style="stroke:#000000;stroke-width:0.5;" x="239.578125" xlink:href="#m096dda5c5b" y="124.320934"/>
      </g>
     </g>
    </g>
    <g id="ytick_14">
     <g id="line2d_61">
      <g>
       <use style="stroke:#000000;stroke-width:0.5;" x="44.278125" xlink:href="#m49b4413597" y="122.861092"/>
      </g>
     </g>
     <g id="line2d_62">
      <g>
       <use style="stroke:#000000;stroke-width:0.5;" x="239.578125" xlink:href="#m096dda5c5b" y="122.861092"/>
      </g>
     </g>
    </g>
    <g id="ytick_15">
     <g id="line2d_63">
      <g>
       <use style="stroke:#000000;stroke-width:0.5;" x="44.278125" xlink:href="#m49b4413597" y="112.964124"/>
      </g>
     </g>
     <g id="line2d_64">
      <g>
       <use style="stroke:#000000;stroke-width:0.5;" x="239.578125" xlink:href="#m096dda5c5b" y="112.964124"/>
      </g>
     </g>
    </g>
    <g id="ytick_16">
     <g id="line2d_65">
      <g>
       <use style="stroke:#000000;stroke-width:0.5;" x="44.278125" xlink:href="#m49b4413597" y="107.938655"/>
      </g>
     </g>
     <g id="line2d_66">
      <g>
       <use style="stroke:#000000;stroke-width:0.5;" x="239.578125" xlink:href="#m096dda5c5b" y="107.938655"/>
      </g>
     </g>
    </g>
    <g id="ytick_17">
     <g id="line2d_67">
      <g>
       <use style="stroke:#000000;stroke-width:0.5;" x="44.278125" xlink:href="#m49b4413597" y="104.373029"/>
      </g>
     </g>
     <g id="line2d_68">
      <g>
       <use style="stroke:#000000;stroke-width:0.5;" x="239.578125" xlink:href="#m096dda5c5b" y="104.373029"/>
      </g>
     </g>
    </g>
    <g id="ytick_18">
     <g id="line2d_69">
      <g>
       <use style="stroke:#000000;stroke-width:0.5;" x="44.278125" xlink:href="#m49b4413597" y="101.607314"/>
      </g>
     </g>
     <g id="line2d_70">
      <g>
       <use style="stroke:#000000;stroke-width:0.5;" x="239.578125" xlink:href="#m096dda5c5b" y="101.607314"/>
      </g>
     </g>
    </g>
    <g id="ytick_19">
     <g id="line2d_71">
      <g>
       <use style="stroke:#000000;stroke-width:0.5;" x="44.278125" xlink:href="#m49b4413597" y="99.34756"/>
      </g>
     </g>
     <g id="line2d_72">
      <g>
       <use style="stroke:#000000;stroke-width:0.5;" x="239.578125" xlink:href="#m096dda5c5b" y="99.34756"/>
      </g>
     </g>
    </g>
    <g id="ytick_20">
     <g id="line2d_73">
      <g>
       <use style="stroke:#000000;stroke-width:0.5;" x="44.278125" xlink:href="#m49b4413597" y="97.436966"/>
      </g>
     </g>
     <g id="line2d_74">
      <g>
       <use style="stroke:#000000;stroke-width:0.5;" x="239.578125" xlink:href="#m096dda5c5b" y="97.436966"/>
      </g>
     </g>
    </g>
    <g id="ytick_21">
     <g id="line2d_75">
      <g>
       <use style="stroke:#000000;stroke-width:0.5;" x="44.278125" xlink:href="#m49b4413597" y="95.781934"/>
      </g>
     </g>
     <g id="line2d_76">
      <g>
       <use style="stroke:#000000;stroke-width:0.5;" x="239.578125" xlink:href="#m096dda5c5b" y="95.781934"/>
      </g>
     </g>
    </g>
    <g id="ytick_22">
     <g id="line2d_77">
      <g>
       <use style="stroke:#000000;stroke-width:0.5;" x="44.278125" xlink:href="#m49b4413597" y="94.322092"/>
      </g>
     </g>
     <g id="line2d_78">
      <g>
       <use style="stroke:#000000;stroke-width:0.5;" x="239.578125" xlink:href="#m096dda5c5b" y="94.322092"/>
      </g>
     </g>
    </g>
    <g id="ytick_23">
     <g id="line2d_79">
      <g>
       <use style="stroke:#000000;stroke-width:0.5;" x="44.278125" xlink:href="#m49b4413597" y="84.425124"/>
      </g>
     </g>
     <g id="line2d_80">
      <g>
       <use style="stroke:#000000;stroke-width:0.5;" x="239.578125" xlink:href="#m096dda5c5b" y="84.425124"/>
      </g>
     </g>
    </g>
    <g id="ytick_24">
     <g id="line2d_81">
      <g>
       <use style="stroke:#000000;stroke-width:0.5;" x="44.278125" xlink:href="#m49b4413597" y="79.399655"/>
      </g>
     </g>
     <g id="line2d_82">
      <g>
       <use style="stroke:#000000;stroke-width:0.5;" x="239.578125" xlink:href="#m096dda5c5b" y="79.399655"/>
      </g>
     </g>
    </g>
    <g id="ytick_25">
     <g id="line2d_83">
      <g>
       <use style="stroke:#000000;stroke-width:0.5;" x="44.278125" xlink:href="#m49b4413597" y="75.834029"/>
      </g>
     </g>
     <g id="line2d_84">
      <g>
       <use style="stroke:#000000;stroke-width:0.5;" x="239.578125" xlink:href="#m096dda5c5b" y="75.834029"/>
      </g>
     </g>
    </g>
    <g id="ytick_26">
     <g id="line2d_85">
      <g>
       <use style="stroke:#000000;stroke-width:0.5;" x="44.278125" xlink:href="#m49b4413597" y="73.068314"/>
      </g>
     </g>
     <g id="line2d_86">
      <g>
       <use style="stroke:#000000;stroke-width:0.5;" x="239.578125" xlink:href="#m096dda5c5b" y="73.068314"/>
      </g>
     </g>
    </g>
    <g id="ytick_27">
     <g id="line2d_87">
      <g>
       <use style="stroke:#000000;stroke-width:0.5;" x="44.278125" xlink:href="#m49b4413597" y="70.80856"/>
      </g>
     </g>
     <g id="line2d_88">
      <g>
       <use style="stroke:#000000;stroke-width:0.5;" x="239.578125" xlink:href="#m096dda5c5b" y="70.80856"/>
      </g>
     </g>
    </g>
    <g id="ytick_28">
     <g id="line2d_89">
      <g>
       <use style="stroke:#000000;stroke-width:0.5;" x="44.278125" xlink:href="#m49b4413597" y="68.897966"/>
      </g>
     </g>
     <g id="line2d_90">
      <g>
       <use style="stroke:#000000;stroke-width:0.5;" x="239.578125" xlink:href="#m096dda5c5b" y="68.897966"/>
      </g>
     </g>
    </g>
    <g id="ytick_29">
     <g id="line2d_91">
      <g>
       <use style="stroke:#000000;stroke-width:0.5;" x="44.278125" xlink:href="#m49b4413597" y="67.242934"/>
      </g>
     </g>
     <g id="line2d_92">
      <g>
       <use style="stroke:#000000;stroke-width:0.5;" x="239.578125" xlink:href="#m096dda5c5b" y="67.242934"/>
      </g>
     </g>
    </g>
    <g id="ytick_30">
     <g id="line2d_93">
      <g>
       <use style="stroke:#000000;stroke-width:0.5;" x="44.278125" xlink:href="#m49b4413597" y="65.783092"/>
      </g>
     </g>
     <g id="line2d_94">
      <g>
       <use style="stroke:#000000;stroke-width:0.5;" x="239.578125" xlink:href="#m096dda5c5b" y="65.783092"/>
      </g>
     </g>
    </g>
    <g id="ytick_31">
     <g id="line2d_95">
      <g>
       <use style="stroke:#000000;stroke-width:0.5;" x="44.278125" xlink:href="#m49b4413597" y="55.886124"/>
      </g>
     </g>
     <g id="line2d_96">
      <g>
       <use style="stroke:#000000;stroke-width:0.5;" x="239.578125" xlink:href="#m096dda5c5b" y="55.886124"/>
      </g>
     </g>
    </g>
    <g id="ytick_32">
     <g id="line2d_97">
      <g>
       <use style="stroke:#000000;stroke-width:0.5;" x="44.278125" xlink:href="#m49b4413597" y="50.860655"/>
      </g>
     </g>
     <g id="line2d_98">
      <g>
       <use style="stroke:#000000;stroke-width:0.5;" x="239.578125" xlink:href="#m096dda5c5b" y="50.860655"/>
      </g>
     </g>
    </g>
    <g id="ytick_33">
     <g id="line2d_99">
      <g>
       <use style="stroke:#000000;stroke-width:0.5;" x="44.278125" xlink:href="#m49b4413597" y="47.295029"/>
      </g>
     </g>
     <g id="line2d_100">
      <g>
       <use style="stroke:#000000;stroke-width:0.5;" x="239.578125" xlink:href="#m096dda5c5b" y="47.295029"/>
      </g>
     </g>
    </g>
    <g id="ytick_34">
     <g id="line2d_101">
      <g>
       <use style="stroke:#000000;stroke-width:0.5;" x="44.278125" xlink:href="#m49b4413597" y="44.529314"/>
      </g>
     </g>
     <g id="line2d_102">
      <g>
       <use style="stroke:#000000;stroke-width:0.5;" x="239.578125" xlink:href="#m096dda5c5b" y="44.529314"/>
      </g>
     </g>
    </g>
    <g id="ytick_35">
     <g id="line2d_103">
      <g>
       <use style="stroke:#000000;stroke-width:0.5;" x="44.278125" xlink:href="#m49b4413597" y="42.26956"/>
      </g>
     </g>
     <g id="line2d_104">
      <g>
       <use style="stroke:#000000;stroke-width:0.5;" x="239.578125" xlink:href="#m096dda5c5b" y="42.26956"/>
      </g>
     </g>
    </g>
    <g id="ytick_36">
     <g id="line2d_105">
      <g>
       <use style="stroke:#000000;stroke-width:0.5;" x="44.278125" xlink:href="#m49b4413597" y="40.358966"/>
      </g>
     </g>
     <g id="line2d_106">
      <g>
       <use style="stroke:#000000;stroke-width:0.5;" x="239.578125" xlink:href="#m096dda5c5b" y="40.358966"/>
      </g>
     </g>
    </g>
    <g id="ytick_37">
     <g id="line2d_107">
      <g>
       <use style="stroke:#000000;stroke-width:0.5;" x="44.278125" xlink:href="#m49b4413597" y="38.703934"/>
      </g>
     </g>
     <g id="line2d_108">
      <g>
       <use style="stroke:#000000;stroke-width:0.5;" x="239.578125" xlink:href="#m096dda5c5b" y="38.703934"/>
      </g>
     </g>
    </g>
    <g id="ytick_38">
     <g id="line2d_109">
      <g>
       <use style="stroke:#000000;stroke-width:0.5;" x="44.278125" xlink:href="#m49b4413597" y="37.244092"/>
      </g>
     </g>
     <g id="line2d_110">
      <g>
       <use style="stroke:#000000;stroke-width:0.5;" x="239.578125" xlink:href="#m096dda5c5b" y="37.244092"/>
      </g>
     </g>
    </g>
    <g id="ytick_39">
     <g id="line2d_111">
      <g>
       <use style="stroke:#000000;stroke-width:0.5;" x="44.278125" xlink:href="#m49b4413597" y="27.347124"/>
      </g>
     </g>
     <g id="line2d_112">
      <g>
       <use style="stroke:#000000;stroke-width:0.5;" x="239.578125" xlink:href="#m096dda5c5b" y="27.347124"/>
      </g>
     </g>
    </g>
    <g id="ytick_40">
     <g id="line2d_113">
      <g>
       <use style="stroke:#000000;stroke-width:0.5;" x="44.278125" xlink:href="#m49b4413597" y="22.321655"/>
      </g>
     </g>
     <g id="line2d_114">
      <g>
       <use style="stroke:#000000;stroke-width:0.5;" x="239.578125" xlink:href="#m096dda5c5b" y="22.321655"/>
      </g>
     </g>
    </g>
    <g id="ytick_41">
     <g id="line2d_115">
      <g>
       <use style="stroke:#000000;stroke-width:0.5;" x="44.278125" xlink:href="#m49b4413597" y="18.756029"/>
      </g>
     </g>
     <g id="line2d_116">
      <g>
       <use style="stroke:#000000;stroke-width:0.5;" x="239.578125" xlink:href="#m096dda5c5b" y="18.756029"/>
      </g>
     </g>
    </g>
    <g id="ytick_42">
     <g id="line2d_117">
      <g>
       <use style="stroke:#000000;stroke-width:0.5;" x="44.278125" xlink:href="#m49b4413597" y="15.990314"/>
      </g>
     </g>
     <g id="line2d_118">
      <g>
       <use style="stroke:#000000;stroke-width:0.5;" x="239.578125" xlink:href="#m096dda5c5b" y="15.990314"/>
      </g>
     </g>
    </g>
    <g id="ytick_43">
     <g id="line2d_119">
      <g>
       <use style="stroke:#000000;stroke-width:0.5;" x="44.278125" xlink:href="#m49b4413597" y="13.73056"/>
      </g>
     </g>
     <g id="line2d_120">
      <g>
       <use style="stroke:#000000;stroke-width:0.5;" x="239.578125" xlink:href="#m096dda5c5b" y="13.73056"/>
      </g>
     </g>
    </g>
    <g id="ytick_44">
     <g id="line2d_121">
      <g>
       <use style="stroke:#000000;stroke-width:0.5;" x="44.278125" xlink:href="#m49b4413597" y="11.819966"/>
      </g>
     </g>
     <g id="line2d_122">
      <g>
       <use style="stroke:#000000;stroke-width:0.5;" x="239.578125" xlink:href="#m096dda5c5b" y="11.819966"/>
      </g>
     </g>
    </g>
    <g id="ytick_45">
     <g id="line2d_123">
      <g>
       <use style="stroke:#000000;stroke-width:0.5;" x="44.278125" xlink:href="#m49b4413597" y="10.164934"/>
      </g>
     </g>
     <g id="line2d_124">
      <g>
       <use style="stroke:#000000;stroke-width:0.5;" x="239.578125" xlink:href="#m096dda5c5b" y="10.164934"/>
      </g>
     </g>
    </g>
    <g id="ytick_46">
     <g id="line2d_125">
      <g>
       <use style="stroke:#000000;stroke-width:0.5;" x="44.278125" xlink:href="#m49b4413597" y="8.705092"/>
      </g>
     </g>
     <g id="line2d_126">
      <g>
       <use style="stroke:#000000;stroke-width:0.5;" x="239.578125" xlink:href="#m096dda5c5b" y="8.705092"/>
      </g>
     </g>
    </g>
    <g id="text_12">
     <!-- Voltage / V -->
     <g transform="translate(11.198438 105.785781)rotate(-90)scale(0.1 -0.1)">
      <defs>
       <path d="M 1831 0 
L 50 4666 
L 709 4666 
L 2188 738 
L 3669 4666 
L 4325 4666 
L 2547 0 
L 1831 0 
z
" id="DejaVuSans-56" transform="scale(0.015625)"/>
       <path d="M 1959 3097 
Q 1497 3097 1228 2736 
Q 959 2375 959 1747 
Q 959 1119 1226 758 
Q 1494 397 1959 397 
Q 2419 397 2687 759 
Q 2956 1122 2956 1747 
Q 2956 2369 2687 2733 
Q 2419 3097 1959 3097 
z
M 1959 3584 
Q 2709 3584 3137 3096 
Q 3566 2609 3566 1747 
Q 3566 888 3137 398 
Q 2709 -91 1959 -91 
Q 1206 -91 779 398 
Q 353 888 353 1747 
Q 353 2609 779 3096 
Q 1206 3584 1959 3584 
z
" id="DejaVuSans-6f" transform="scale(0.015625)"/>
       <path d="M 603 4863 
L 1178 4863 
L 1178 0 
L 603 0 
L 603 4863 
z
" id="DejaVuSans-6c" transform="scale(0.015625)"/>
       <path d="M 2194 1759 
Q 1497 1759 1228 1600 
Q 959 1441 959 1056 
Q 959 750 1161 570 
Q 1363 391 1709 391 
Q 2188 391 2477 730 
Q 2766 1069 2766 1631 
L 2766 1759 
L 2194 1759 
z
M 3341 1997 
L 3341 0 
L 2766 0 
L 2766 531 
Q 2569 213 2275 61 
Q 1981 -91 1556 -91 
Q 1019 -91 701 211 
Q 384 513 384 1019 
Q 384 1609 779 1909 
Q 1175 2209 1959 2209 
L 2766 2209 
L 2766 2266 
Q 2766 2663 2505 2880 
Q 2244 3097 1772 3097 
Q 1472 3097 1187 3025 
Q 903 2953 641 2809 
L 641 3341 
Q 956 3463 1253 3523 
Q 1550 3584 1831 3584 
Q 2591 3584 2966 3190 
Q 3341 2797 3341 1997 
z
" id="DejaVuSans-61" transform="scale(0.015625)"/>
       <path d="M 2906 1791 
Q 2906 2416 2648 2759 
Q 2391 3103 1925 3103 
Q 1463 3103 1205 2759 
Q 947 2416 947 1791 
Q 947 1169 1205 825 
Q 1463 481 1925 481 
Q 2391 481 2648 825 
Q 2906 1169 2906 1791 
z
M 3481 434 
Q 3481 -459 3084 -895 
Q 2688 -1331 1869 -1331 
Q 1566 -1331 1297 -1286 
Q 1028 -1241 775 -1147 
L 775 -588 
Q 1028 -725 1275 -790 
Q 1522 -856 1778 -856 
Q 2344 -856 2625 -561 
Q 2906 -266 2906 331 
L 2906 616 
Q 2728 306 2450 153 
Q 2172 0 1784 0 
Q 1141 0 747 490 
Q 353 981 353 1791 
Q 353 2603 747 3093 
Q 1141 3584 1784 3584 
Q 2172 3584 2450 3431 
Q 2728 3278 2906 2969 
L 2906 3500 
L 3481 3500 
L 3481 434 
z
" id="DejaVuSans-67" transform="scale(0.015625)"/>
       <path d="M 1625 4666 
L 2156 4666 
L 531 -594 
L 0 -594 
L 1625 4666 
z
" id="DejaVuSans-2f" transform="scale(0.015625)"/>
      </defs>
      <use xlink:href="#DejaVuSans-56"/>
      <use x="60.658203" xlink:href="#DejaVuSans-6f"/>
      <use x="121.839844" xlink:href="#DejaVuSans-6c"/>
      <use x="149.623047" xlink:href="#DejaVuSans-74"/>
      <use x="188.832031" xlink:href="#DejaVuSans-61"/>
      <use x="250.111328" xlink:href="#DejaVuSans-67"/>
      <use x="313.587891" xlink:href="#DejaVuSans-65"/>
      <use x="375.111328" xlink:href="#DejaVuSans-20"/>
      <use x="406.898438" xlink:href="#DejaVuSans-2f"/>
      <use x="440.589844" xlink:href="#DejaVuSans-20"/>
      <use x="472.376953" xlink:href="#DejaVuSans-56"/>
     </g>
    </g>
   </g>
   <g id="line2d_127">
    <path clip-path="url(#p3debf8b1e0)" d="M 53.155398 48.077867 
L 54.29351 48.762303 
L 55.431622 52.040777 
L 56.569733 57.632966 
L 58.845957 60.067025 
L 59.984069 60.495355 
L 62.260293 61.779961 
L 63.398405 61.830421 
L 64.536517 63.559794 
L 65.674628 66.66616 
L 66.81274 68.685505 
L 67.950852 69.577963 
L 69.088964 69.624225 
L 72.5033 71.161963 
L 73.641412 73.09817 
L 74.779524 73.110817 
L 78.193859 73.614883 
L 79.331971 74.76189 
L 80.470083 76.12908 
L 81.608195 77.269106 
L 82.746307 77.285411 
L 83.884419 77.915634 
L 88.436866 78.654743 
L 89.574978 78.678396 
L 91.851202 79.883822 
L 92.989314 79.923353 
L 94.127426 80.079256 
L 95.265538 80.772473 
L 96.403649 81.036136 
L 99.817985 81.260788 
L 102.094209 81.888486 
L 103.232321 82.470844 
L 105.508545 82.846669 
L 107.784768 83.783978 
L 108.92288 83.964956 
L 110.060992 84.260182 
L 113.475328 84.552059 
L 114.61344 85.267201 
L 115.751552 86.22908 
L 116.889663 86.714343 
L 118.027775 87.039718 
L 119.165887 87.114265 
L 120.303999 87.495901 
L 122.580223 88.002005 
L 123.718335 88.09461 
L 124.856447 88.965307 
L 125.994559 89.418872 
L 129.408894 90.089801 
L 130.547006 90.439207 
L 132.82323 90.833557 
L 133.961342 90.854469 
L 135.099454 91.331524 
L 139.651901 91.732211 
L 140.790013 92.107554 
L 146.480573 92.691892 
L 147.618684 93.132293 
L 154.447356 93.577225 
L 156.72358 94.392676 
L 160.137915 94.581628 
L 163.552251 94.794516 
L 164.690363 95.308299 
L 165.828475 95.373236 
L 166.966587 95.817637 
L 170.380922 95.897206 
L 173.795258 96.174799 
L 176.071482 96.397987 
L 179.485817 96.424229 
L 180.623929 96.602135 
L 182.900153 96.704577 
L 196.557496 97.585857 
L 197.695608 97.600254 
L 198.833719 98.062365 
L 212.491062 98.80452 
L 217.04351 99.136243 
L 218.181622 99.605559 
L 219.319733 99.904357 
L 221.595957 100.156095 
L 226.148405 100.409647 
L 229.56274 100.931304 
L 230.700852 103.016904 
L 230.700852 103.016904 
" style="fill:none;stroke:#0c5da5;stroke-linecap:square;"/>
   </g>
   <g id="line2d_128">
    <path clip-path="url(#p3debf8b1e0)" d="M 53.155398 62.289936 
L 54.29351 64.975032 
L 55.431622 65.57705 
L 57.707845 76.084971 
L 58.845957 84.348799 
L 59.984069 87.322874 
L 61.122181 92.858156 
L 62.260293 93.617001 
L 63.398405 96.023264 
L 64.536517 96.076572 
L 65.674628 99.563672 
L 66.81274 101.312477 
L 67.950852 101.349202 
L 69.088964 103.700084 
L 70.227076 104.003408 
L 71.365188 105.089972 
L 72.5033 106.615473 
L 73.641412 107.290097 
L 74.779524 108.281147 
L 75.917635 110.513188 
L 79.331971 111.553969 
L 80.470083 112.164352 
L 81.608195 113.119765 
L 82.746307 113.509754 
L 83.884419 113.540839 
L 85.022531 113.789989 
L 86.160642 113.804386 
L 88.436866 115.304069 
L 89.574978 115.618258 
L 90.71309 116.091606 
L 91.851202 116.165813 
L 92.989314 116.745357 
L 94.127426 116.864916 
L 95.265538 117.112034 
L 96.403649 117.764253 
L 98.679873 117.960284 
L 99.817985 118.070893 
L 100.956097 118.32139 
L 104.370433 118.487434 
L 105.508545 118.995861 
L 108.92288 119.0987 
L 110.060992 119.671979 
L 111.199104 119.695454 
L 112.337216 119.946777 
L 114.61344 120.123357 
L 116.889663 120.209377 
L 121.442111 120.674906 
L 122.580223 120.690986 
L 124.856447 121.299686 
L 127.13267 121.434488 
L 135.099454 122.012243 
L 137.375677 122.073211 
L 138.513789 122.151519 
L 139.651901 122.752792 
L 141.928125 122.798705 
L 149.894908 123.318452 
L 153.309244 123.495834 
L 170.380922 124.138108 
L 172.657146 124.206112 
L 174.93337 124.435309 
L 178.347705 124.557733 
L 185.176377 124.709597 
L 186.314489 124.956886 
L 190.866936 125.159345 
L 194.281272 125.353159 
L 197.695608 125.571722 
L 202.248055 125.754275 
L 203.386167 125.761774 
L 205.662391 125.963992 
L 206.800503 125.982761 
L 207.938615 126.151019 
L 211.35295 127.069502 
L 213.629174 127.198878 
L 215.905398 127.327721 
L 218.181622 128.124958 
L 221.595957 128.444221 
L 222.734069 128.917802 
L 223.872181 128.924364 
L 225.010293 130.081549 
L 226.148405 132.100729 
L 227.286517 133.296174 
L 228.424628 133.98785 
L 229.56274 138.074787 
L 230.700852 159.611651 
L 230.700852 159.611651 
" style="fill:none;stroke:#ff9500;stroke-linecap:square;"/>
   </g>
   <g id="line2d_129">
    <path clip-path="url(#p3debf8b1e0)" d="M 53.155398 22.22522 
L 55.431622 22.948478 
L 56.569733 25.213874 
L 57.707845 26.062186 
L 58.845957 26.067607 
L 59.984069 27.245042 
L 61.122181 27.562684 
L 63.398405 28.5558 
L 64.536517 28.64303 
L 65.674628 29.019746 
L 69.088964 29.459829 
L 70.227076 29.902771 
L 71.365188 29.965324 
L 72.5033 30.504495 
L 74.779524 30.723862 
L 75.917635 30.772801 
L 77.055747 31.202253 
L 81.608195 31.598354 
L 85.022531 31.668429 
L 90.71309 32.360686 
L 98.679873 32.954075 
L 99.817985 33.529994 
L 100.956097 33.672215 
L 105.508545 33.858404 
L 106.646656 33.908976 
L 107.784768 34.314404 
L 108.92288 34.475867 
L 111.199104 34.521732 
L 112.337216 35.469004 
L 114.61344 35.525685 
L 118.027775 36.189645 
L 119.165887 36.766671 
L 120.303999 36.93906 
L 121.442111 36.962494 
L 124.856447 37.492926 
L 125.994559 37.972364 
L 127.13267 37.99448 
L 133.961342 38.881279 
L 135.099454 38.937239 
L 136.237566 39.158276 
L 138.513789 39.361498 
L 139.651901 39.361762 
L 140.790013 39.649726 
L 141.928125 39.783407 
L 143.066237 39.791347 
L 144.204349 40.021301 
L 145.342461 40.471357 
L 152.171132 41.134396 
L 154.447356 41.204608 
L 156.72358 41.510356 
L 157.861691 41.51661 
L 158.999803 41.75508 
L 161.276027 41.823936 
L 162.414139 42.147768 
L 166.966587 42.366224 
L 168.104698 42.666951 
L 169.24281 42.765148 
L 170.380922 42.978862 
L 171.519034 42.997398 
L 177.209594 43.779773 
L 178.347705 44.017821 
L 180.623929 45.079771 
L 181.762041 45.110532 
L 186.314489 45.901428 
L 189.728824 46.112859 
L 190.866936 46.206091 
L 193.14316 46.634961 
L 195.419384 46.849058 
L 196.557496 47.176569 
L 197.695608 47.697447 
L 202.248055 48.411239 
L 204.524279 48.486038 
L 205.662391 48.549689 
L 206.800503 49.102618 
L 207.938615 49.357084 
L 209.076726 49.429987 
L 210.214838 50.060233 
L 211.35295 50.335841 
L 212.491062 50.829658 
L 213.629174 51.027471 
L 217.04351 52.030329 
L 218.181622 52.091753 
L 219.319733 52.340059 
L 220.457845 53.271838 
L 221.595957 53.296512 
L 223.872181 54.763852 
L 225.010293 58.497037 
L 226.148405 59.324418 
L 227.286517 62.011463 
L 228.424628 62.656982 
L 230.700852 78.352375 
L 230.700852 78.352375 
" style="fill:none;stroke:#00b945;stroke-linecap:square;"/>
   </g>
   <g id="line2d_130">
    <path clip-path="url(#p3debf8b1e0)" d="M 53.155398 53.221302 
L 54.29351 58.769408 
L 55.431622 61.47854 
L 56.569733 63.276658 
L 57.707845 63.597738 
L 61.122181 64.061184 
L 62.260293 64.365606 
L 63.398405 65.186806 
L 64.536517 65.480637 
L 66.81274 66.780264 
L 67.950852 67.153272 
L 69.088964 67.165189 
L 72.5033 67.629297 
L 73.641412 68.577846 
L 74.779524 68.850763 
L 75.917635 69.585082 
L 77.055747 70.850432 
L 81.608195 71.102285 
L 82.746307 71.338991 
L 83.884419 71.402809 
L 85.022531 71.862791 
L 86.160642 72.163699 
L 90.71309 72.377568 
L 91.851202 72.535793 
L 95.265538 72.677024 
L 96.403649 72.945589 
L 97.541761 72.976564 
L 98.679873 73.331713 
L 99.817985 73.401145 
L 104.370433 74.104533 
L 107.784768 74.270026 
L 110.060992 74.849352 
L 111.199104 75.186819 
L 112.337216 75.384031 
L 113.475328 75.926315 
L 114.61344 76.111811 
L 115.751552 76.758174 
L 119.165887 77.03964 
L 120.303999 77.43038 
L 121.442111 77.572959 
L 122.580223 77.847543 
L 123.718335 78.50307 
L 125.994559 78.642534 
L 127.13267 79.317711 
L 128.270782 79.346701 
L 129.408894 79.703904 
L 130.547006 79.895652 
L 131.685118 80.545659 
L 132.82323 80.983614 
L 137.375677 81.747457 
L 139.651901 82.012134 
L 141.928125 82.086499 
L 143.066237 82.555936 
L 144.204349 83.512152 
L 145.342461 83.683614 
L 146.480573 83.700546 
L 147.618684 84.088277 
L 152.171132 84.559841 
L 153.309244 84.654919 
L 157.861691 85.880704 
L 160.137915 86.138849 
L 161.276027 86.548876 
L 164.690363 86.69195 
L 165.828475 86.880819 
L 166.966587 87.295105 
L 169.24281 87.886126 
L 170.380922 89.353921 
L 171.519034 89.883868 
L 172.657146 91.019123 
L 173.795258 91.259673 
L 174.93337 91.32342 
L 177.209594 92.831283 
L 178.347705 93.250918 
L 179.485817 94.139877 
L 180.623929 94.523379 
L 181.762041 94.60533 
L 182.900153 95.468288 
L 184.038265 95.934232 
L 185.176377 96.072191 
L 186.314489 96.390888 
L 187.452601 97.678116 
L 188.590712 97.835292 
L 189.728824 98.199464 
L 190.866936 100.058229 
L 192.005048 100.896895 
L 193.14316 101.298034 
L 194.281272 102.083888 
L 195.419384 102.327649 
L 196.557496 102.406424 
L 197.695608 105.082395 
L 198.833719 108.892994 
L 199.971831 109.769691 
L 201.109943 109.842413 
L 202.248055 110.597349 
L 203.386167 113.264135 
L 204.524279 115.116077 
L 205.662391 115.613223 
L 206.800503 115.700983 
L 207.938615 118.333434 
L 209.076726 119.347318 
L 210.214838 123.86011 
L 211.35295 124.400412 
L 212.491062 124.61269 
L 213.629174 125.889065 
L 215.905398 127.04139 
L 217.04351 127.897106 
L 219.319733 131.942846 
L 221.595957 132.641823 
L 222.734069 137.353903 
L 223.872181 138.732604 
L 225.010293 139.936657 
L 226.148405 146.367336 
L 227.286517 156.419351 
L 227.949188 181.550469 
L 227.949188 181.550469 
" style="fill:none;stroke:#ff2c00;stroke-linecap:square;"/>
   </g>
   <g id="line2d_131">
    <path clip-path="url(#p3debf8b1e0)" d="M 53.155398 17.39287 
L 54.29351 20.601138 
L 55.431622 21.654879 
L 57.707845 22.638343 
L 58.845957 29.327801 
L 59.984069 29.553136 
L 61.122181 29.627683 
L 62.260293 31.138784 
L 63.398405 31.348047 
L 64.536517 33.103903 
L 66.81274 33.515567 
L 67.950852 35.837453 
L 69.088964 36.911971 
L 70.227076 36.953003 
L 71.365188 37.665669 
L 73.641412 37.854938 
L 74.779524 38.76964 
L 77.055747 39.117044 
L 79.331971 39.305836 
L 80.470083 40.640105 
L 81.608195 41.391161 
L 82.746307 41.65755 
L 83.884419 42.045119 
L 85.022531 43.00174 
L 87.298754 43.856821 
L 88.436866 44.57693 
L 89.574978 44.643982 
L 90.71309 45.094531 
L 91.851202 46.436803 
L 92.989314 46.941276 
L 94.127426 47.193113 
L 95.265538 47.307077 
L 96.403649 47.545736 
L 98.679873 47.664178 
L 99.817985 47.889537 
L 100.956097 48.980074 
L 102.094209 49.025565 
L 103.232321 49.227427 
L 104.370433 49.67763 
L 105.508545 49.825001 
L 106.646656 50.650951 
L 108.92288 51.548152 
L 111.199104 51.593798 
L 112.337216 51.965372 
L 113.475328 52.137606 
L 114.61344 52.916744 
L 115.751552 52.971317 
L 116.889663 53.511045 
L 120.303999 54.54846 
L 122.580223 54.754412 
L 123.718335 55.049171 
L 125.994559 55.159273 
L 127.13267 55.659803 
L 128.270782 56.011522 
L 129.408894 56.150435 
L 130.547006 56.523708 
L 133.961342 56.64098 
L 135.099454 57.236436 
L 136.237566 57.662987 
L 137.375677 57.842795 
L 139.651901 58.959322 
L 140.790013 59.316098 
L 141.928125 59.333022 
L 143.066237 59.92597 
L 144.204349 59.976787 
L 145.342461 60.366248 
L 147.618684 60.473089 
L 148.756796 60.688624 
L 149.894908 61.168028 
L 152.171132 61.231408 
L 154.447356 61.523269 
L 157.861691 61.681547 
L 160.137915 61.830256 
L 162.414139 62.007976 
L 163.552251 62.039207 
L 164.690363 62.520888 
L 169.24281 62.880059 
L 170.380922 63.087584 
L 174.93337 63.328025 
L 176.071482 63.575792 
L 178.347705 63.621216 
L 179.485817 63.778258 
L 180.623929 64.087203 
L 181.762041 64.156574 
L 182.900153 64.381196 
L 186.314489 64.536206 
L 189.728824 64.782373 
L 190.866936 65.061842 
L 193.14316 65.212507 
L 196.557496 65.514531 
L 197.695608 65.756228 
L 198.833719 65.769662 
L 201.109943 66.211921 
L 202.248055 66.423643 
L 206.800503 66.811634 
L 207.938615 66.920565 
L 209.076726 67.30833 
L 211.35295 67.477617 
L 217.04351 67.808005 
L 219.319733 68.211456 
L 226.148405 68.819588 
L 227.286517 69.367193 
L 228.424628 70.045915 
L 229.56274 71.175062 
L 230.700852 71.241205 
L 230.700852 71.241205 
" style="fill:none;stroke:#845b97;stroke-linecap:square;"/>
   </g>
   <g id="patch_3">
    <path d="M 44.278125 150.094219 
L 44.278125 7.399219 
" style="fill:none;stroke:#000000;stroke-linecap:square;stroke-linejoin:miter;stroke-width:0.5;"/>
   </g>
   <g id="patch_4">
    <path d="M 239.578125 150.094219 
L 239.578125 7.399219 
" style="fill:none;stroke:#000000;stroke-linecap:square;stroke-linejoin:miter;stroke-width:0.5;"/>
   </g>
   <g id="patch_5">
    <path d="M 44.278125 150.094219 
L 239.578125 150.094219 
" style="fill:none;stroke:#000000;stroke-linecap:square;stroke-linejoin:miter;stroke-width:0.5;"/>
   </g>
   <g id="patch_6">
    <path d="M 44.278125 7.399219 
L 239.578125 7.399219 
" style="fill:none;stroke:#000000;stroke-linecap:square;stroke-linejoin:miter;stroke-width:0.5;"/>
   </g>
  </g>
 </g>
 <defs>
  <clipPath id="p3debf8b1e0">
   <rect height="142.695" width="195.3" x="44.278125" y="7.399219"/>
  </clipPath>
 </defs>
</svg>
