<?xml version="1.0" encoding="utf-8" standalone="no"?>
<!DOCTYPE svg PUBLIC "-//W3C//DTD SVG 1.1//EN"
  "http://www.w3.org/Graphics/SVG/1.1/DTD/svg11.dtd">
<svg height="180.550469pt" version="1.1" viewBox="0 0 243.178125 180.550469" width="243.178125pt" xmlns="http://www.w3.org/2000/svg" xmlns:xlink="http://www.w3.org/1999/xlink">
 <metadata>
  <rdf:RDF xmlns:cc="http://creativecommons.org/ns#" xmlns:dc="http://purl.org/dc/elements/1.1/" xmlns:rdf="http://www.w3.org/1999/02/22-rdf-syntax-ns#">
   <cc:Work>
    <dc:type rdf:resource="http://purl.org/dc/dcmitype/StillImage"/>
    <dc:date>2023-04-24T13:39:57.836200</dc:date>
    <dc:format>image/svg+xml</dc:format>
    <dc:creator>
     <cc:Agent>
      <dc:title>Matplotlib v3.4.3, https://matplotlib.org/</dc:title>
     </cc:Agent>
    </dc:creator>
   </cc:Work>
  </rdf:RDF>
 </metadata>
 <defs>
  <style type="text/css">*{stroke-linecap:butt;stroke-linejoin:round;}</style>
 </defs>
 <g id="figure_1">
  <g id="patch_1">
   <path d="M 0 180.550469 
L 243.178125 180.550469 
L 243.178125 0 
L 0 0 
z
" style="fill:none;"/>
  </g>
  <g id="axes_1">
   <g id="patch_2">
    <path d="M 44.278125 150.094219 
L 239.578125 150.094219 
L 239.578125 7.399219 
L 44.278125 7.399219 
z
" style="fill:#ffffff;"/>
   </g>
   <g id="PolyCollection_1">
    <path clip-path="url(#p8b19ba2adc)" d="M 53.155398 62.860534 
L 53.155398 69.651612 
L 54.315826 73.064431 
L 55.476253 73.979343 
L 56.636681 74.288804 
L 57.797109 74.530821 
L 58.957537 74.732091 
L 60.117965 74.888093 
L 61.278392 75.049711 
L 62.43882 75.195637 
L 63.599248 75.328527 
L 64.759676 75.461525 
L 65.920104 75.594564 
L 67.080531 75.721105 
L 68.240959 75.845111 
L 69.401387 75.955941 
L 70.561815 76.089958 
L 71.722243 76.208247 
L 72.88267 76.323872 
L 74.043098 76.442162 
L 75.203526 76.559124 
L 76.363954 76.681668 
L 77.524382 76.801756 
L 78.684809 76.909352 
L 79.845237 77.031624 
L 81.005665 77.152835 
L 82.166093 77.293316 
L 83.326521 77.41533 
L 84.486949 77.533164 
L 85.647376 77.652004 
L 86.807804 77.782214 
L 87.968232 77.910002 
L 89.12866 78.051562 
L 90.289088 78.172544 
L 91.449515 78.308571 
L 92.609943 78.440276 
L 93.770371 78.573228 
L 94.930799 78.708064 
L 96.091227 78.84978 
L 97.251654 78.986674 
L 98.412082 79.122613 
L 99.57251 79.273197 
L 100.732938 79.410607 
L 101.893366 79.543325 
L 103.053793 79.702229 
L 104.214221 79.84026 
L 105.374649 79.98392 
L 106.535077 80.134287 
L 107.695505 80.282547 
L 108.855932 80.415562 
L 110.01636 80.55994 
L 111.176788 80.716515 
L 112.337216 80.874147 
L 113.497644 81.040729 
L 114.658072 81.213403 
L 115.818499 81.368812 
L 116.978927 81.539398 
L 118.139355 81.698215 
L 119.299783 81.86951 
L 120.460211 82.039334 
L 121.620638 82.21384 
L 122.781066 82.39915 
L 123.941494 82.594252 
L 125.101922 82.798305 
L 126.26235 82.991688 
L 127.422777 83.19161 
L 128.583205 83.392585 
L 129.743633 83.590089 
L 130.904061 83.812699 
L 132.064489 84.02988 
L 133.224916 84.256751 
L 134.385344 84.481111 
L 135.545772 84.722556 
L 136.7062 84.974 
L 137.866628 85.208465 
L 139.027055 85.450691 
L 140.187483 85.70199 
L 141.347911 85.970592 
L 142.508339 86.215849 
L 143.668767 86.47257 
L 144.829195 86.733822 
L 145.989622 87.022336 
L 147.15005 87.292546 
L 148.310478 87.564706 
L 149.470906 87.86152 
L 150.631334 88.164556 
L 151.791761 88.457795 
L 152.952189 88.747508 
L 154.112617 89.073874 
L 155.273045 89.38852 
L 156.433473 89.728612 
L 157.5939 90.037066 
L 158.754328 90.393868 
L 159.914756 90.750663 
L 161.075184 91.136194 
L 162.235612 91.497893 
L 163.396039 91.867346 
L 164.556467 92.264139 
L 165.716895 92.676998 
L 166.877323 93.089469 
L 168.037751 93.51813 
L 169.198178 93.947185 
L 170.358606 94.378924 
L 171.519034 94.817438 
L 172.679462 95.306983 
L 173.83989 95.803552 
L 175.000318 96.288061 
L 176.160745 96.804878 
L 177.321173 97.347814 
L 178.481601 97.870698 
L 179.642029 98.465096 
L 180.802457 99.066094 
L 181.962884 99.671588 
L 183.123312 100.304273 
L 184.28374 100.986541 
L 185.444168 101.67193 
L 186.604596 102.378951 
L 187.765023 103.153124 
L 188.925451 104.079195 
L 190.085879 104.893653 
L 191.246307 105.829351 
L 192.406735 106.775156 
L 193.567162 107.741976 
L 194.72759 108.77124 
L 195.888018 109.875812 
L 197.048446 111.128696 
L 198.208874 112.252151 
L 199.369301 113.455285 
L 200.529729 114.791471 
L 201.690157 116.102769 
L 202.850585 117.599214 
L 204.011013 118.862375 
L 205.171441 120.357186 
L 206.331868 122.246356 
L 207.492296 124.241424 
L 208.652724 126.573246 
L 209.813152 128.893971 
L 210.97358 131.100806 
L 212.134007 134.391713 
L 213.294435 137.261599 
L 214.454863 139.357937 
L 215.615291 141.516899 
L 216.775719 143.783487 
L 217.936146 146.134623 
L 219.096574 147.518708 
L 220.257002 148.148494 
L 221.41743 148.647128 
L 222.577858 148.802718 
L 223.738285 149.484555 
L 224.898713 149.911711 
L 226.059141 151.353172 
L 227.219569 152.0037 
L 228.379997 152.820351 
L 229.540424 154.478548 
L 230.700852 28517.860219 
L 230.700852 28517.860219 
L 230.700852 28517.860219 
L 229.540424 120.903942 
L 228.379997 114.208851 
L 227.219569 110.211543 
L 226.059141 107.382074 
L 224.898713 105.401169 
L 223.738285 103.611381 
L 222.577858 102.123972 
L 221.41743 100.655657 
L 220.257002 99.267746 
L 219.096574 98.013121 
L 217.936146 96.811548 
L 216.775719 95.724503 
L 215.615291 94.80839 
L 214.454863 93.88197 
L 213.294435 93.034751 
L 212.134007 92.247369 
L 210.97358 91.343698 
L 209.813152 90.568958 
L 208.652724 89.85904 
L 207.492296 89.233516 
L 206.331868 88.556981 
L 205.171441 87.970145 
L 204.011013 87.41243 
L 202.850585 86.874821 
L 201.690157 86.380165 
L 200.529729 85.884822 
L 199.369301 85.428583 
L 198.208874 84.978832 
L 197.048446 84.52828 
L 195.888018 84.07533 
L 194.72759 83.642356 
L 193.567162 83.194694 
L 192.406735 82.748891 
L 191.246307 82.305631 
L 190.085879 81.852309 
L 188.925451 81.432619 
L 187.765023 81.062359 
L 186.604596 80.669258 
L 185.444168 80.326465 
L 184.28374 79.992464 
L 183.123312 79.669712 
L 181.962884 79.364615 
L 180.802457 79.050624 
L 179.642029 78.770693 
L 178.481601 78.498386 
L 177.321173 78.194794 
L 176.160745 77.910245 
L 175.000318 77.644499 
L 173.83989 77.403184 
L 172.679462 77.178371 
L 171.519034 76.945675 
L 170.358606 76.717502 
L 169.198178 76.504847 
L 168.037751 76.318026 
L 166.877323 76.131595 
L 165.716895 75.932654 
L 164.556467 75.75838 
L 163.396039 75.585391 
L 162.235612 75.413647 
L 161.075184 75.244714 
L 159.914756 75.085563 
L 158.754328 74.919619 
L 157.5939 74.754432 
L 156.433473 74.60498 
L 155.273045 74.459315 
L 154.112617 74.312826 
L 152.952189 74.180884 
L 151.791761 74.026608 
L 150.631334 73.889126 
L 149.470906 73.739134 
L 148.310478 73.596703 
L 147.15005 73.457079 
L 145.989622 73.316992 
L 144.829195 73.167272 
L 143.668767 73.023898 
L 142.508339 72.888088 
L 141.347911 72.743386 
L 140.187483 72.613742 
L 139.027055 72.474456 
L 137.866628 72.346703 
L 136.7062 72.216555 
L 135.545772 72.083097 
L 134.385344 71.953898 
L 133.224916 71.830719 
L 132.064489 71.706672 
L 130.904061 71.583877 
L 129.743633 71.472761 
L 128.583205 71.359567 
L 127.422777 71.238799 
L 126.26235 71.129047 
L 125.101922 71.012222 
L 123.941494 70.893513 
L 122.781066 70.770971 
L 121.620638 70.655761 
L 120.460211 70.538008 
L 119.299783 70.418547 
L 118.139355 70.316063 
L 116.978927 70.207706 
L 115.818499 70.085036 
L 114.658072 69.970962 
L 113.497644 69.86421 
L 112.337216 69.746814 
L 111.176788 69.646783 
L 110.01636 69.546784 
L 108.855932 69.444026 
L 107.695505 69.354116 
L 106.535077 69.254835 
L 105.374649 69.165057 
L 104.214221 69.066506 
L 103.053793 68.973793 
L 101.893366 68.879937 
L 100.732938 68.779029 
L 99.57251 68.694025 
L 98.412082 68.602982 
L 97.251654 68.508369 
L 96.091227 68.420621 
L 94.930799 68.32666 
L 93.770371 68.239577 
L 92.609943 68.143465 
L 91.449515 68.060402 
L 90.289088 67.9743 
L 89.12866 67.887433 
L 87.968232 67.8045 
L 86.807804 67.727186 
L 85.647376 67.643214 
L 84.486949 67.567334 
L 83.326521 67.481231 
L 82.166093 67.402003 
L 81.005665 67.327549 
L 79.845237 67.253757 
L 78.684809 67.181055 
L 77.524382 67.105506 
L 76.363954 67.0351 
L 75.203526 66.964687 
L 74.043098 66.896146 
L 72.88267 66.831112 
L 71.722243 66.764971 
L 70.561815 66.694322 
L 69.401387 66.632752 
L 68.240959 66.570209 
L 67.080531 66.501575 
L 65.920104 66.433554 
L 64.759676 66.366543 
L 63.599248 66.29252 
L 62.43882 66.216113 
L 61.278392 66.135785 
L 60.117965 66.036132 
L 58.957537 65.936213 
L 57.797109 65.822897 
L 56.636681 65.703068 
L 55.476253 65.543678 
L 54.315826 65.033728 
L 53.155398 62.860534 
z
" style="fill:#0c5da5;fill-opacity:0.15;"/>
   </g>
   <g id="PolyCollection_2">
    <path clip-path="url(#p8b19ba2adc)" d="M 53.155398 87.680119 
L 53.155398 92.987711 
L 54.315826 95.230333 
L 55.476253 96.091237 
L 56.636681 96.752891 
L 57.797109 97.228984 
L 58.957537 97.687709 
L 60.117965 98.259633 
L 61.278392 98.726903 
L 62.43882 99.234417 
L 63.599248 99.755425 
L 64.759676 100.212012 
L 65.920104 100.608948 
L 67.080531 100.978018 
L 68.240959 101.448652 
L 69.401387 101.866102 
L 70.561815 102.262395 
L 71.722243 102.586572 
L 72.88267 102.994328 
L 74.043098 103.328787 
L 75.203526 103.670601 
L 76.363954 104.067878 
L 77.524382 104.380273 
L 78.684809 104.729071 
L 79.845237 105.037345 
L 81.005665 105.530204 
L 82.166093 105.860382 
L 83.326521 106.17071 
L 84.486949 106.496904 
L 85.647376 106.855024 
L 86.807804 107.168847 
L 87.968232 107.483312 
L 89.12866 107.760711 
L 90.289088 108.05476 
L 91.449515 108.361194 
L 92.609943 108.675246 
L 93.770371 108.976315 
L 94.930799 109.270598 
L 96.091227 109.564931 
L 97.251654 109.856269 
L 98.412082 110.155218 
L 99.57251 110.458729 
L 100.732938 110.735701 
L 101.893366 111.0435 
L 103.053793 111.327068 
L 104.214221 111.626686 
L 105.374649 111.945541 
L 106.535077 112.249336 
L 107.695505 112.548242 
L 108.855932 112.869716 
L 110.01636 113.17163 
L 111.176788 113.508843 
L 112.337216 113.857425 
L 113.497644 114.192218 
L 114.658072 114.544678 
L 115.818499 114.908132 
L 116.978927 115.288633 
L 118.139355 115.664616 
L 119.299783 116.035279 
L 120.460211 116.389816 
L 121.620638 116.783939 
L 122.781066 117.172831 
L 123.941494 117.55041 
L 125.101922 117.953933 
L 126.26235 118.374396 
L 127.422777 118.774117 
L 128.583205 119.191401 
L 129.743633 119.614986 
L 130.904061 120.096538 
L 132.064489 120.537963 
L 133.224916 120.990182 
L 134.385344 121.474288 
L 135.545772 122.000783 
L 136.7062 122.481785 
L 137.866628 122.981039 
L 139.027055 123.529697 
L 140.187483 124.094157 
L 141.347911 124.660079 
L 142.508339 125.283347 
L 143.668767 125.925922 
L 144.829195 126.576906 
L 145.989622 127.248726 
L 147.15005 127.948149 
L 148.310478 128.688353 
L 149.470906 129.421518 
L 150.631334 130.163473 
L 151.791761 130.9616 
L 152.952189 131.866196 
L 154.112617 132.709214 
L 155.273045 133.510984 
L 156.433473 134.485684 
L 157.5939 135.39229 
L 158.754328 136.431551 
L 159.914756 137.667921 
L 161.075184 138.731819 
L 162.235612 140.029581 
L 163.396039 141.250858 
L 164.556467 142.652977 
L 165.716895 144.120031 
L 166.877323 145.400929 
L 168.037751 146.916891 
L 169.198178 148.752983 
L 170.358606 150.084683 
L 171.519034 151.508477 
L 172.679462 152.991104 
L 173.83989 154.534761 
L 175.000318 155.713589 
L 176.160745 157.226626 
L 177.321173 158.307886 
L 178.481601 159.024901 
L 179.642029 159.643482 
L 180.802457 160.31335 
L 181.962884 161.055848 
L 183.123312 161.645039 
L 184.28374 161.937916 
L 185.444168 162.429816 
L 186.604596 162.906117 
L 187.765023 163.302856 
L 188.925451 163.589775 
L 190.085879 163.876938 
L 191.246307 164.170477 
L 192.406735 164.425804 
L 193.567162 164.608767 
L 194.72759 164.760994 
L 195.888018 164.912538 
L 197.048446 165.017524 
L 198.208874 165.18974 
L 199.369301 165.279206 
L 200.529729 165.305984 
L 201.690157 165.351551 
L 202.850585 165.394061 
L 204.011013 165.489974 
L 205.171441 165.540543 
L 206.331868 165.570027 
L 207.492296 165.644745 
L 208.652724 165.757134 
L 209.813152 165.861842 
L 210.97358 165.988577 
L 212.134007 166.136398 
L 213.294435 166.257207 
L 214.454863 166.304896 
L 215.615291 166.639169 
L 216.775719 166.858606 
L 217.936146 166.997219 
L 219.096574 167.275454 
L 220.257002 167.649881 
L 221.41743 167.929063 
L 222.577858 168.04288 
L 223.738285 168.980617 
L 224.898713 169.166169 
L 226.059141 170.144827 
L 227.219569 173.752293 
L 228.379997 177.106531 
L 229.540424 185.462729 
L 230.700852 28517.860219 
L 230.700852 28517.860219 
L 230.700852 28517.860219 
L 229.540424 179.778391 
L 228.379997 172.842075 
L 227.219569 170.272342 
L 226.059141 167.241815 
L 224.898713 166.510407 
L 223.738285 166.22859 
L 222.577858 165.383998 
L 221.41743 165.179914 
L 220.257002 164.930689 
L 219.096574 164.773135 
L 217.936146 164.509743 
L 216.775719 164.154586 
L 215.615291 163.872926 
L 214.454863 163.748142 
L 213.294435 163.611439 
L 212.134007 163.431645 
L 210.97358 163.056021 
L 209.813152 162.399623 
L 208.652724 161.537706 
L 207.492296 160.384087 
L 206.331868 158.553217 
L 205.171441 157.297025 
L 204.011013 155.717501 
L 202.850585 153.466492 
L 201.690157 151.697156 
L 200.529729 149.691836 
L 199.369301 147.882183 
L 198.208874 146.222258 
L 197.048446 144.470791 
L 195.888018 142.445229 
L 194.72759 140.715028 
L 193.567162 139.150045 
L 192.406735 137.735122 
L 191.246307 136.0439 
L 190.085879 134.585225 
L 188.925451 133.23497 
L 187.765023 131.705409 
L 186.604596 130.417435 
L 185.444168 129.128465 
L 184.28374 127.791087 
L 183.123312 126.555387 
L 181.962884 125.363446 
L 180.802457 124.232222 
L 179.642029 123.06459 
L 178.481601 121.994899 
L 177.321173 120.971379 
L 176.160745 119.894775 
L 175.000318 118.895688 
L 173.83989 117.975591 
L 172.679462 117.151471 
L 171.519034 116.33458 
L 170.358606 115.577736 
L 169.198178 114.922573 
L 168.037751 114.271974 
L 166.877323 113.682586 
L 165.716895 113.12715 
L 164.556467 112.59246 
L 163.396039 112.08709 
L 162.235612 111.576939 
L 161.075184 111.109664 
L 159.914756 110.692842 
L 158.754328 110.271684 
L 157.5939 109.918686 
L 156.433473 109.559727 
L 155.273045 109.232539 
L 154.112617 108.890623 
L 152.952189 108.590571 
L 151.791761 108.287121 
L 150.631334 107.978695 
L 149.470906 107.720868 
L 148.310478 107.454893 
L 147.15005 107.188941 
L 145.989622 106.928182 
L 144.829195 106.687964 
L 143.668767 106.43295 
L 142.508339 106.207427 
L 141.347911 105.983144 
L 140.187483 105.773321 
L 139.027055 105.564858 
L 137.866628 105.357343 
L 136.7062 105.161795 
L 135.545772 104.968042 
L 134.385344 104.791946 
L 133.224916 104.606128 
L 132.064489 104.422794 
L 130.904061 104.253742 
L 129.743633 104.083773 
L 128.583205 103.91573 
L 127.422777 103.757547 
L 126.26235 103.602658 
L 125.101922 103.446962 
L 123.941494 103.312291 
L 122.781066 103.163795 
L 121.620638 103.018736 
L 120.460211 102.880291 
L 119.299783 102.735308 
L 118.139355 102.600585 
L 116.978927 102.460352 
L 115.818499 102.328799 
L 114.658072 102.201205 
L 113.497644 102.075586 
L 112.337216 101.935294 
L 111.176788 101.814799 
L 110.01636 101.692352 
L 108.855932 101.56284 
L 107.695505 101.432919 
L 106.535077 101.320651 
L 105.374649 101.199735 
L 104.214221 101.080785 
L 103.053793 100.964726 
L 101.893366 100.852106 
L 100.732938 100.725088 
L 99.57251 100.609608 
L 98.412082 100.498041 
L 97.251654 100.381178 
L 96.091227 100.260241 
L 94.930799 100.154121 
L 93.770371 100.033653 
L 92.609943 99.912077 
L 91.449515 99.785783 
L 90.289088 99.641436 
L 89.12866 99.516142 
L 87.968232 99.380776 
L 86.807804 99.253959 
L 85.647376 99.08506 
L 84.486949 98.931882 
L 83.326521 98.790532 
L 82.166093 98.623448 
L 81.005665 98.487962 
L 79.845237 98.316936 
L 78.684809 98.179026 
L 77.524382 97.953855 
L 76.363954 97.791191 
L 75.203526 97.62255 
L 74.043098 97.479508 
L 72.88267 97.313118 
L 71.722243 97.105659 
L 70.561815 96.866515 
L 69.401387 96.702268 
L 68.240959 96.44927 
L 67.080531 96.173809 
L 65.920104 95.923546 
L 64.759676 95.702487 
L 63.599248 95.376734 
L 62.43882 95.072038 
L 61.278392 94.771269 
L 60.117965 94.476941 
L 58.957537 94.049388 
L 57.797109 93.701556 
L 56.636681 93.282812 
L 55.476253 92.715218 
L 54.315826 91.777345 
L 53.155398 87.680119 
z
" style="fill:#ff9500;fill-opacity:0.15;"/>
   </g>
   <g id="PolyCollection_3">
    <path clip-path="url(#p8b19ba2adc)" d="M 53.155398 16.865508 
L 53.155398 20.813224 
L 54.315826 26.639888 
L 55.476253 32.239337 
L 56.636681 37.92481 
L 57.797109 43.690906 
L 58.957537 48.988052 
L 60.117965 52.140689 
L 61.278392 54.408993 
L 62.43882 55.654729 
L 63.599248 56.277791 
L 64.759676 56.683206 
L 65.920104 57.015626 
L 67.080531 57.26148 
L 68.240959 57.515446 
L 69.401387 57.762792 
L 70.561815 58.019352 
L 71.722243 58.228528 
L 72.88267 58.47878 
L 74.043098 58.669686 
L 75.203526 58.853681 
L 76.363954 59.057812 
L 77.524382 59.228058 
L 78.684809 59.421401 
L 79.845237 59.577852 
L 81.005665 59.755272 
L 82.166093 59.909381 
L 83.326521 60.080379 
L 84.486949 60.238317 
L 85.647376 60.385872 
L 86.807804 60.52881 
L 87.968232 60.661718 
L 89.12866 60.793174 
L 90.289088 60.919459 
L 91.449515 61.05173 
L 92.609943 61.188648 
L 93.770371 61.32054 
L 94.930799 61.448031 
L 96.091227 61.567065 
L 97.251654 61.69068 
L 98.412082 61.802416 
L 99.57251 61.913983 
L 100.732938 62.02292 
L 101.893366 62.132261 
L 103.053793 62.239734 
L 104.214221 62.354143 
L 105.374649 62.456204 
L 106.535077 62.563406 
L 107.695505 62.662481 
L 108.855932 62.766406 
L 110.01636 62.864985 
L 111.176788 62.977154 
L 112.337216 63.081206 
L 113.497644 63.190222 
L 114.658072 63.295174 
L 115.818499 63.402507 
L 116.978927 63.509456 
L 118.139355 63.605288 
L 119.299783 63.702269 
L 120.460211 63.799553 
L 121.620638 63.905368 
L 122.781066 63.994316 
L 123.941494 64.090963 
L 125.101922 64.191769 
L 126.26235 64.295749 
L 127.422777 64.394056 
L 128.583205 64.500915 
L 129.743633 64.58989 
L 130.904061 64.688958 
L 132.064489 64.784683 
L 133.224916 64.8817 
L 134.385344 64.980542 
L 135.545772 65.075127 
L 136.7062 65.170628 
L 137.866628 65.271625 
L 139.027055 65.371199 
L 140.187483 65.466221 
L 141.347911 65.564518 
L 142.508339 65.65539 
L 143.668767 65.756639 
L 144.829195 65.853266 
L 145.989622 65.94933 
L 147.15005 66.053388 
L 148.310478 66.139625 
L 149.470906 66.242834 
L 150.631334 66.333655 
L 151.791761 66.424583 
L 152.952189 66.5304 
L 154.112617 66.628739 
L 155.273045 66.725142 
L 156.433473 66.822496 
L 157.5939 66.927965 
L 158.754328 67.019937 
L 159.914756 67.12343 
L 161.075184 67.224956 
L 162.235612 67.337062 
L 163.396039 67.438006 
L 164.556467 67.541265 
L 165.716895 67.646667 
L 166.877323 67.756957 
L 168.037751 67.868637 
L 169.198178 67.98378 
L 170.358606 68.090214 
L 171.519034 68.208729 
L 172.679462 68.323822 
L 173.83989 68.443356 
L 175.000318 68.569661 
L 176.160745 68.689798 
L 177.321173 68.801479 
L 178.481601 68.923704 
L 179.642029 69.048201 
L 180.802457 69.171527 
L 181.962884 69.297158 
L 183.123312 69.425919 
L 184.28374 69.560078 
L 185.444168 69.690672 
L 186.604596 69.820049 
L 187.765023 69.955316 
L 188.925451 70.109576 
L 190.085879 70.255428 
L 191.246307 70.398621 
L 192.406735 70.542599 
L 193.567162 70.695567 
L 194.72759 70.844565 
L 195.888018 71.017826 
L 197.048446 71.200841 
L 198.208874 71.367479 
L 199.369301 71.549242 
L 200.529729 71.73475 
L 201.690157 71.929843 
L 202.850585 72.158522 
L 204.011013 72.37283 
L 205.171441 72.618272 
L 206.331868 72.843785 
L 207.492296 73.091568 
L 208.652724 73.337142 
L 209.813152 73.586043 
L 210.97358 73.847978 
L 212.134007 74.13002 
L 213.294435 74.449149 
L 214.454863 74.76045 
L 215.615291 75.108449 
L 216.775719 75.474644 
L 217.936146 75.885557 
L 219.096574 76.335772 
L 220.257002 76.789159 
L 221.41743 77.297942 
L 222.577858 77.917192 
L 223.738285 78.643242 
L 224.898713 79.506196 
L 226.059141 80.477094 
L 227.219569 81.877302 
L 228.379997 83.768006 
L 229.540424 87.207896 
L 230.700852 28517.860219 
L 230.700852 28517.860219 
L 230.700852 28517.860219 
L 229.540424 83.582264 
L 228.379997 80.646991 
L 227.219569 78.960993 
L 226.059141 77.735141 
L 224.898713 76.741335 
L 223.738285 75.953283 
L 222.577858 75.265049 
L 221.41743 74.718773 
L 220.257002 74.213022 
L 219.096574 73.688093 
L 217.936146 73.231091 
L 216.775719 72.828843 
L 215.615291 72.464382 
L 214.454863 72.113628 
L 213.294435 71.788867 
L 212.134007 71.465808 
L 210.97358 71.159898 
L 209.813152 70.878305 
L 208.652724 70.625931 
L 207.492296 70.339714 
L 206.331868 70.066268 
L 205.171441 69.840726 
L 204.011013 69.614957 
L 202.850585 69.383759 
L 201.690157 69.17277 
L 200.529729 68.971966 
L 199.369301 68.7754 
L 198.208874 68.583545 
L 197.048446 68.382762 
L 195.888018 68.206042 
L 194.72759 68.029808 
L 193.567162 67.861392 
L 192.406735 67.691436 
L 191.246307 67.535692 
L 190.085879 67.369485 
L 188.925451 67.214893 
L 187.765023 67.078177 
L 186.604596 66.929555 
L 185.444168 66.786286 
L 184.28374 66.648406 
L 183.123312 66.514003 
L 181.962884 66.384565 
L 180.802457 66.239769 
L 179.642029 66.104988 
L 178.481601 65.978512 
L 177.321173 65.851408 
L 176.160745 65.730623 
L 175.000318 65.607415 
L 173.83989 65.490138 
L 172.679462 65.373186 
L 171.519034 65.236135 
L 170.358606 65.119524 
L 169.198178 65.002066 
L 168.037751 64.881992 
L 166.877323 64.759285 
L 165.716895 64.645363 
L 164.556467 64.537037 
L 163.396039 64.423657 
L 162.235612 64.320827 
L 161.075184 64.215618 
L 159.914756 64.110139 
L 158.754328 63.999227 
L 157.5939 63.883742 
L 156.433473 63.780653 
L 155.273045 63.675047 
L 154.112617 63.573186 
L 152.952189 63.479228 
L 151.791761 63.36456 
L 150.631334 63.265413 
L 149.470906 63.164577 
L 148.310478 63.05718 
L 147.15005 62.95804 
L 145.989622 62.857699 
L 144.829195 62.769467 
L 143.668767 62.660495 
L 142.508339 62.553301 
L 141.347911 62.456708 
L 140.187483 62.353887 
L 139.027055 62.2497 
L 137.866628 62.153598 
L 136.7062 62.065555 
L 135.545772 61.964929 
L 134.385344 61.871587 
L 133.224916 61.769153 
L 132.064489 61.672343 
L 130.904061 61.576686 
L 129.743633 61.465739 
L 128.583205 61.358429 
L 127.422777 61.255453 
L 126.26235 61.161229 
L 125.101922 61.049983 
L 123.941494 60.951006 
L 122.781066 60.860728 
L 121.620638 60.748333 
L 120.460211 60.63666 
L 119.299783 60.540706 
L 118.139355 60.429806 
L 116.978927 60.332857 
L 115.818499 60.225266 
L 114.658072 60.116375 
L 113.497644 60.017622 
L 112.337216 59.913559 
L 111.176788 59.804312 
L 110.01636 59.70396 
L 108.855932 59.591504 
L 107.695505 59.485387 
L 106.535077 59.385785 
L 105.374649 59.275787 
L 104.214221 59.167607 
L 103.053793 59.066291 
L 101.893366 58.946391 
L 100.732938 58.840535 
L 99.57251 58.718373 
L 98.412082 58.601377 
L 97.251654 58.483766 
L 96.091227 58.364655 
L 94.930799 58.249998 
L 93.770371 58.131134 
L 92.609943 57.998415 
L 91.449515 57.861159 
L 90.289088 57.736162 
L 89.12866 57.606679 
L 87.968232 57.487886 
L 86.807804 57.345446 
L 85.647376 57.212774 
L 84.486949 57.069247 
L 83.326521 56.910997 
L 82.166093 56.756632 
L 81.005665 56.598336 
L 79.845237 56.431263 
L 78.684809 56.250367 
L 77.524382 56.073025 
L 76.363954 55.886818 
L 75.203526 55.703819 
L 74.043098 55.511374 
L 72.88267 55.315419 
L 71.722243 55.096118 
L 70.561815 54.866053 
L 69.401387 54.594957 
L 68.240959 54.339539 
L 67.080531 54.079735 
L 65.920104 53.809454 
L 64.759676 53.46418 
L 63.599248 53.03785 
L 62.43882 52.430291 
L 61.278392 51.235608 
L 60.117965 49.016197 
L 58.957537 45.779746 
L 57.797109 40.464536 
L 56.636681 34.48379 
L 55.476253 28.769991 
L 54.315826 23.143891 
L 53.155398 16.865508 
z
" style="fill:#00b945;fill-opacity:0.15;"/>
   </g>
   <g id="PolyCollection_4">
    <path clip-path="url(#p8b19ba2adc)" d="M 53.155398 60.14966 
L 53.155398 68.573889 
L 54.315826 84.387306 
L 55.476253 99.364908 
L 56.636681 106.324547 
L 57.797109 110.453055 
L 58.957537 113.520352 
L 60.117965 115.543355 
L 61.278392 117.28078 
L 62.43882 118.699676 
L 63.599248 119.9176 
L 64.759676 121.220802 
L 65.920104 121.803412 
L 67.080531 122.498288 
L 68.240959 123.216477 
L 69.401387 124.081638 
L 70.561815 124.622423 
L 71.722243 125.786115 
L 72.88267 126.408077 
L 74.043098 126.818753 
L 75.203526 127.318809 
L 76.363954 127.998412 
L 77.524382 128.589676 
L 78.684809 129.33211 
L 79.845237 129.704546 
L 81.005665 130.461731 
L 82.166093 131.309991 
L 83.326521 131.91254 
L 84.486949 132.452138 
L 85.647376 132.785182 
L 86.807804 133.208354 
L 87.968232 133.620926 
L 89.12866 134.075795 
L 90.289088 134.3322 
L 91.449515 134.493218 
L 92.609943 134.931331 
L 93.770371 135.238276 
L 94.930799 135.502664 
L 96.091227 135.578907 
L 97.251654 135.766908 
L 98.412082 136.249514 
L 99.57251 136.503876 
L 100.732938 136.81192 
L 101.893366 136.969684 
L 103.053793 137.237853 
L 104.214221 137.394696 
L 105.374649 137.485283 
L 106.535077 137.665452 
L 107.695505 137.796002 
L 108.855932 138.068815 
L 110.01636 138.267921 
L 111.176788 139.180892 
L 112.337216 139.805183 
L 113.497644 140.070477 
L 114.658072 140.798837 
L 115.818499 141.545344 
L 116.978927 141.684843 
L 118.139355 142.362484 
L 119.299783 142.549949 
L 120.460211 143.133276 
L 121.620638 143.666564 
L 122.781066 144.753642 
L 123.941494 145.106307 
L 125.101922 145.203891 
L 126.26235 146.672162 
L 127.422777 147.168429 
L 128.583205 148.60332 
L 129.743633 148.61323 
L 130.904061 148.801947 
L 132.064489 149.332568 
L 133.224916 152.050529 
L 134.385344 153.323841 
L 135.545772 154.663603 
L 136.7062 154.712463 
L 137.866628 156.765315 
L 139.027055 158.485218 
L 140.187483 158.904639 
L 141.347911 159.000831 
L 142.508339 159.302465 
L 143.668767 159.4028 
L 144.829195 161.27593 
L 145.989622 161.392613 
L 147.15005 161.684437 
L 148.310478 163.114007 
L 149.470906 166.817977 
L 150.631334 167.34187 
L 151.791761 170.537506 
L 152.952189 171.434357 
L 154.112617 171.49436 
L 155.273045 174.424576 
L 156.433473 176.010433 
L 157.5939 176.459674 
L 158.754328 190.156074 
L 159.914756 200.02908 
L 161.075184 201.747 
L 162.235612 219.596777 
L 163.396039 219.599193 
L 164.556467 228.743442 
L 165.716895 237.240998 
L 166.877323 239.234209 
L 168.037751 243.873797 
L 169.198178 274.608543 
L 170.358606 283.202538 
L 171.519034 286.572187 
L 172.679462 342.822823 
L 173.83989 353.324012 
L 175.000318 357.648107 
L 176.160745 362.630005 
L 177.321173 376.501718 
L 178.481601 386.988974 
L 179.642029 395.801747 
L 180.802457 406.607275 
L 181.962884 408.355031 
L 183.123312 416.486868 
L 184.28374 420.450709 
L 185.444168 448.438656 
L 186.604596 449.127338 
L 187.765023 451.860751 
L 188.925451 452.860823 
L 190.085879 454.308748 
L 191.246307 460.749291 
L 192.406735 461.042907 
L 193.567162 462.684962 
L 194.72759 463.323358 
L 195.888018 465.237862 
L 197.048446 465.890456 
L 198.208874 467.126896 
L 199.369301 471.625324 
L 200.529729 474.028934 
L 201.690157 474.926286 
L 202.850585 477.318686 
L 204.011013 478.011798 
L 205.171441 480.55417 
L 206.331868 481.334008 
L 207.492296 482.990724 
L 208.652724 485.38085 
L 209.813152 495.851188 
L 210.97358 499.124791 
L 212.134007 506.998486 
L 213.294435 509.489485 
L 214.454863 513.30593 
L 215.615291 526.176402 
L 216.775719 527.680933 
L 217.936146 534.891282 
L 219.096574 544.018015 
L 220.257002 549.407532 
L 221.41743 549.792248 
L 222.577858 551.545047 
L 223.738285 556.117772 
L 224.898713 573.834797 
L 226.059141 577.68743 
L 227.219569 618.63126 
L 228.379997 624.055638 
L 229.540424 664.825874 
L 230.700852 28517.860219 
L 230.700852 28517.860219 
L 230.700852 28517.860219 
L 229.540424 254.866986 
L 228.379997 167.885957 
L 227.219569 167.816212 
L 226.059141 161.651413 
L 224.898713 160.899346 
L 223.738285 158.182851 
L 222.577858 157.623532 
L 221.41743 156.61902 
L 220.257002 156.075164 
L 219.096574 154.202588 
L 217.936146 153.854686 
L 216.775719 152.185163 
L 215.615291 151.466759 
L 214.454863 150.659128 
L 213.294435 150.276271 
L 212.134007 150.10877 
L 210.97358 150.026076 
L 209.813152 149.044807 
L 208.652724 149.002143 
L 207.492296 148.958236 
L 206.331868 148.801007 
L 205.171441 148.676919 
L 204.011013 147.772754 
L 202.850585 147.267454 
L 201.690157 147.145954 
L 200.529729 147.011673 
L 199.369301 146.800594 
L 198.208874 146.72857 
L 197.048446 146.015539 
L 195.888018 145.685801 
L 194.72759 145.406553 
L 193.567162 144.890863 
L 192.406735 144.5545 
L 191.246307 144.452236 
L 190.085879 144.376065 
L 188.925451 143.983359 
L 187.765023 143.850906 
L 186.604596 143.77953 
L 185.444168 143.749652 
L 184.28374 143.462925 
L 183.123312 143.398731 
L 181.962884 143.320789 
L 180.802457 143.194732 
L 179.642029 142.96626 
L 178.481601 142.891493 
L 177.321173 142.631645 
L 176.160745 142.29538 
L 175.000318 142.108087 
L 173.83989 141.939087 
L 172.679462 141.714999 
L 171.519034 141.57381 
L 170.358606 141.486142 
L 169.198178 141.351852 
L 168.037751 141.294474 
L 166.877323 141.23239 
L 165.716895 141.17858 
L 164.556467 141.001821 
L 163.396039 140.906742 
L 162.235612 140.777406 
L 161.075184 140.598144 
L 159.914756 140.417507 
L 158.754328 139.999718 
L 157.5939 139.875431 
L 156.433473 139.581955 
L 155.273045 139.361998 
L 154.112617 139.064042 
L 152.952189 138.826775 
L 151.791761 138.666317 
L 150.631334 138.505307 
L 149.470906 138.356709 
L 148.310478 137.95912 
L 147.15005 137.692858 
L 145.989622 137.494695 
L 144.829195 137.230478 
L 143.668767 137.01858 
L 142.508339 136.859311 
L 141.347911 136.610311 
L 140.187483 136.386433 
L 139.027055 135.9338 
L 137.866628 135.71585 
L 136.7062 135.512124 
L 135.545772 135.290234 
L 134.385344 135.031039 
L 133.224916 134.782971 
L 132.064489 134.577074 
L 130.904061 134.261015 
L 129.743633 133.579993 
L 128.583205 133.364243 
L 127.422777 132.658672 
L 126.26235 132.465406 
L 125.101922 131.441812 
L 123.941494 131.136164 
L 122.781066 130.487142 
L 121.620638 130.176379 
L 120.460211 129.958798 
L 119.299783 129.558083 
L 118.139355 129.117832 
L 116.978927 128.731761 
L 115.818499 128.476358 
L 114.658072 128.144305 
L 113.497644 127.811838 
L 112.337216 127.191054 
L 111.176788 126.874623 
L 110.01636 126.454494 
L 108.855932 125.895387 
L 107.695505 125.336199 
L 106.535077 124.852348 
L 105.374649 124.449976 
L 104.214221 123.863257 
L 103.053793 123.383582 
L 101.893366 122.751329 
L 100.732938 122.2672 
L 99.57251 121.732247 
L 98.412082 121.183661 
L 97.251654 120.6397 
L 96.091227 120.044964 
L 94.930799 119.514093 
L 93.770371 118.795753 
L 92.609943 118.223641 
L 91.449515 117.681332 
L 90.289088 117.149051 
L 89.12866 116.422552 
L 87.968232 115.821542 
L 86.807804 115.307371 
L 85.647376 114.593805 
L 84.486949 113.864957 
L 83.326521 113.241725 
L 82.166093 112.483591 
L 81.005665 111.907533 
L 79.845237 111.194305 
L 78.684809 110.413427 
L 77.524382 109.723413 
L 76.363954 109.025071 
L 75.203526 108.2633 
L 74.043098 107.458182 
L 72.88267 106.750574 
L 71.722243 105.947229 
L 70.561815 105.182423 
L 69.401387 104.361063 
L 68.240959 103.535444 
L 67.080531 102.651903 
L 65.920104 101.728029 
L 64.759676 100.816838 
L 63.599248 99.793952 
L 62.43882 98.85275 
L 61.278392 97.853329 
L 60.117965 96.579118 
L 58.957537 95.148369 
L 57.797109 93.085731 
L 56.636681 90.435818 
L 55.476253 84.975824 
L 54.315826 73.126747 
L 53.155398 60.14966 
z
" style="fill:#ff2c00;fill-opacity:0.15;"/>
   </g>
   <g id="PolyCollection_5">
    <path clip-path="url(#p8b19ba2adc)" d="M 53.155398 35.699813 
L 53.155398 40.162843 
L 54.315826 41.970904 
L 55.476253 43.036473 
L 56.636681 43.762142 
L 57.797109 44.208112 
L 58.957537 44.542848 
L 60.117965 44.823115 
L 61.278392 45.039967 
L 62.43882 45.250427 
L 63.599248 45.424223 
L 64.759676 45.594871 
L 65.920104 45.757528 
L 67.080531 45.924721 
L 68.240959 46.07865 
L 69.401387 46.236269 
L 70.561815 46.380587 
L 71.722243 46.521146 
L 72.88267 46.667156 
L 74.043098 46.799991 
L 75.203526 46.945088 
L 76.363954 47.086607 
L 77.524382 47.226612 
L 78.684809 47.36454 
L 79.845237 47.494714 
L 81.005665 47.633316 
L 82.166093 47.779526 
L 83.326521 47.93742 
L 84.486949 48.090677 
L 85.647376 48.247189 
L 86.807804 48.401911 
L 87.968232 48.571155 
L 89.12866 48.740051 
L 90.289088 48.899769 
L 91.449515 49.0852 
L 92.609943 49.261831 
L 93.770371 49.453916 
L 94.930799 49.66747 
L 96.091227 49.900955 
L 97.251654 50.132488 
L 98.412082 50.351716 
L 99.57251 50.610874 
L 100.732938 50.855642 
L 101.893366 51.113666 
L 103.053793 51.352417 
L 104.214221 51.596423 
L 105.374649 51.836195 
L 106.535077 52.071777 
L 107.695505 52.307878 
L 108.855932 52.526872 
L 110.01636 52.744408 
L 111.176788 52.978802 
L 112.337216 53.200997 
L 113.497644 53.414374 
L 114.658072 53.627663 
L 115.818499 53.86022 
L 116.978927 54.083205 
L 118.139355 54.30695 
L 119.299783 54.521546 
L 120.460211 54.742189 
L 121.620638 54.941601 
L 122.781066 55.150202 
L 123.941494 55.347859 
L 125.101922 55.539823 
L 126.26235 55.73256 
L 127.422777 55.920515 
L 128.583205 56.11448 
L 129.743633 56.306104 
L 130.904061 56.492332 
L 132.064489 56.668745 
L 133.224916 56.853156 
L 134.385344 57.050672 
L 135.545772 57.236072 
L 136.7062 57.453187 
L 137.866628 57.642352 
L 139.027055 57.855206 
L 140.187483 58.044479 
L 141.347911 58.250211 
L 142.508339 58.455166 
L 143.668767 58.646864 
L 144.829195 58.853488 
L 145.989622 59.048423 
L 147.15005 59.224465 
L 148.310478 59.422277 
L 149.470906 59.595634 
L 150.631334 59.787273 
L 151.791761 59.976611 
L 152.952189 60.164195 
L 154.112617 60.334135 
L 155.273045 60.513966 
L 156.433473 60.687975 
L 157.5939 60.866505 
L 158.754328 61.041823 
L 159.914756 61.225298 
L 161.075184 61.394688 
L 162.235612 61.56759 
L 163.396039 61.744661 
L 164.556467 61.931701 
L 165.716895 62.116511 
L 166.877323 62.30259 
L 168.037751 62.488141 
L 169.198178 62.686768 
L 170.358606 62.892733 
L 171.519034 63.087072 
L 172.679462 63.30405 
L 173.83989 63.503915 
L 175.000318 63.714481 
L 176.160745 63.934287 
L 177.321173 64.154857 
L 178.481601 64.375397 
L 179.642029 64.625185 
L 180.802457 64.838628 
L 181.962884 65.062474 
L 183.123312 65.288003 
L 184.28374 65.520599 
L 185.444168 65.768612 
L 186.604596 66.013102 
L 187.765023 66.243586 
L 188.925451 66.45624 
L 190.085879 66.707202 
L 191.246307 66.973991 
L 192.406735 67.227084 
L 193.567162 67.481938 
L 194.72759 67.743071 
L 195.888018 67.99868 
L 197.048446 68.264081 
L 198.208874 68.528493 
L 199.369301 68.791949 
L 200.529729 69.069538 
L 201.690157 69.35639 
L 202.850585 69.661365 
L 204.011013 69.955378 
L 205.171441 70.241374 
L 206.331868 70.554281 
L 207.492296 70.897612 
L 208.652724 71.235127 
L 209.813152 71.636228 
L 210.97358 72.047928 
L 212.134007 72.502793 
L 213.294435 73.017154 
L 214.454863 73.550659 
L 215.615291 74.04694 
L 216.775719 74.709503 
L 217.936146 75.348296 
L 219.096574 76.039738 
L 220.257002 76.752674 
L 221.41743 77.535762 
L 222.577858 78.346389 
L 223.738285 79.392935 
L 224.898713 80.603726 
L 226.059141 82.077737 
L 227.219569 84.025493 
L 228.379997 86.82622 
L 229.540424 92.542162 
L 230.700852 28517.860219 
L 230.700852 28517.860219 
L 230.700852 28517.860219 
L 229.540424 84.703867 
L 228.379997 80.56785 
L 227.219569 78.518141 
L 226.059141 76.91624 
L 224.898713 75.728917 
L 223.738285 74.807327 
L 222.577858 73.986821 
L 221.41743 73.209457 
L 220.257002 72.592063 
L 219.096574 71.939639 
L 217.936146 71.280381 
L 216.775719 70.728018 
L 215.615291 70.188017 
L 214.454863 69.733186 
L 213.294435 69.283218 
L 212.134007 68.889491 
L 210.97358 68.51059 
L 209.813152 68.179668 
L 208.652724 67.885714 
L 207.492296 67.563689 
L 206.331868 67.27565 
L 205.171441 66.983827 
L 204.011013 66.753581 
L 202.850585 66.500643 
L 201.690157 66.228768 
L 200.529729 65.957918 
L 199.369301 65.720711 
L 198.208874 65.480037 
L 197.048446 65.251146 
L 195.888018 65.013213 
L 194.72759 64.775545 
L 193.567162 64.548977 
L 192.406735 64.314002 
L 191.246307 64.089553 
L 190.085879 63.854283 
L 188.925451 63.636686 
L 187.765023 63.413615 
L 186.604596 63.208636 
L 185.444168 62.986276 
L 184.28374 62.778929 
L 183.123312 62.562669 
L 181.962884 62.339832 
L 180.802457 62.117832 
L 179.642029 61.899954 
L 178.481601 61.692794 
L 177.321173 61.473141 
L 176.160745 61.2483 
L 175.000318 61.024262 
L 173.83989 60.810177 
L 172.679462 60.605097 
L 171.519034 60.389515 
L 170.358606 60.182606 
L 169.198178 59.978116 
L 168.037751 59.782642 
L 166.877323 59.572224 
L 165.716895 59.362427 
L 164.556467 59.164652 
L 163.396039 58.963511 
L 162.235612 58.766422 
L 161.075184 58.552426 
L 159.914756 58.367386 
L 158.754328 58.180834 
L 157.5939 57.990659 
L 156.433473 57.822245 
L 155.273045 57.656378 
L 154.112617 57.479567 
L 152.952189 57.307618 
L 151.791761 57.143168 
L 150.631334 56.972176 
L 149.470906 56.814172 
L 148.310478 56.654175 
L 147.15005 56.482532 
L 145.989622 56.313279 
L 144.829195 56.12444 
L 143.668767 55.947079 
L 142.508339 55.759575 
L 141.347911 55.578783 
L 140.187483 55.395733 
L 139.027055 55.215038 
L 137.866628 55.031195 
L 136.7062 54.841368 
L 135.545772 54.652374 
L 134.385344 54.485944 
L 133.224916 54.302151 
L 132.064489 54.122602 
L 130.904061 53.949982 
L 129.743633 53.781 
L 128.583205 53.598804 
L 127.422777 53.436478 
L 126.26235 53.256071 
L 125.101922 53.0887 
L 123.941494 52.906831 
L 122.781066 52.73662 
L 121.620638 52.542595 
L 120.460211 52.350386 
L 119.299783 52.142769 
L 118.139355 51.912126 
L 116.978927 51.72938 
L 115.818499 51.508279 
L 114.658072 51.268194 
L 113.497644 51.057766 
L 112.337216 50.849592 
L 111.176788 50.607735 
L 110.01636 50.37035 
L 108.855932 50.123598 
L 107.695505 49.882707 
L 106.535077 49.622374 
L 105.374649 49.381914 
L 104.214221 49.128718 
L 103.053793 48.879493 
L 101.893366 48.611518 
L 100.732938 48.350656 
L 99.57251 48.086999 
L 98.412082 47.825923 
L 97.251654 47.586927 
L 96.091227 47.309848 
L 94.930799 47.059974 
L 93.770371 46.813739 
L 92.609943 46.576732 
L 91.449515 46.346964 
L 90.289088 46.122075 
L 89.12866 45.915672 
L 87.968232 45.716134 
L 86.807804 45.528634 
L 85.647376 45.34742 
L 84.486949 45.179084 
L 83.326521 45.018177 
L 82.166093 44.840599 
L 81.005665 44.648672 
L 79.845237 44.471095 
L 78.684809 44.275549 
L 77.524382 44.093228 
L 76.363954 43.903868 
L 75.203526 43.707329 
L 74.043098 43.527114 
L 72.88267 43.333222 
L 71.722243 43.144133 
L 70.561815 42.943834 
L 69.401387 42.77314 
L 68.240959 42.600558 
L 67.080531 42.423453 
L 65.920104 42.249006 
L 64.759676 42.067539 
L 63.599248 41.891362 
L 62.43882 41.686506 
L 61.278392 41.464136 
L 60.117965 41.206798 
L 58.957537 40.894837 
L 57.797109 40.531197 
L 56.636681 39.995484 
L 55.476253 39.199001 
L 54.315826 37.904956 
L 53.155398 35.699813 
z
" style="fill:#845b97;fill-opacity:0.15;"/>
   </g>
   <g id="matplotlib.axis_1">
    <g id="xtick_1">
     <g id="line2d_1">
      <defs>
       <path d="M 0 0 
L 0 -3 
" id="meea78f524f" style="stroke:#000000;stroke-width:0.5;"/>
      </defs>
      <g>
       <use style="stroke:#000000;stroke-width:0.5;" x="53.155398" xlink:href="#meea78f524f" y="150.094219"/>
      </g>
     </g>
     <g id="line2d_2">
      <defs>
       <path d="M 0 0 
L 0 3 
" id="mfc9dbc0c34" style="stroke:#000000;stroke-width:0.5;"/>
      </defs>
      <g>
       <use style="stroke:#000000;stroke-width:0.5;" x="53.155398" xlink:href="#mfc9dbc0c34" y="7.399219"/>
      </g>
     </g>
     <g id="text_1">
      <!-- 0 -->
      <g transform="translate(49.974148 161.192656)scale(0.1 -0.1)">
       <defs>
        <path d="M 2034 4250 
Q 1547 4250 1301 3770 
Q 1056 3291 1056 2328 
Q 1056 1369 1301 889 
Q 1547 409 2034 409 
Q 2525 409 2770 889 
Q 3016 1369 3016 2328 
Q 3016 3291 2770 3770 
Q 2525 4250 2034 4250 
z
M 2034 4750 
Q 2819 4750 3233 4129 
Q 3647 3509 3647 2328 
Q 3647 1150 3233 529 
Q 2819 -91 2034 -91 
Q 1250 -91 836 529 
Q 422 1150 422 2328 
Q 422 3509 836 4129 
Q 1250 4750 2034 4750 
z
" id="DejaVuSans-30" transform="scale(0.015625)"/>
       </defs>
       <use xlink:href="#DejaVuSans-30"/>
      </g>
     </g>
    </g>
    <g id="xtick_2">
     <g id="line2d_3">
      <g>
       <use style="stroke:#000000;stroke-width:0.5;" x="111.176788" xlink:href="#meea78f524f" y="150.094219"/>
      </g>
     </g>
     <g id="line2d_4">
      <g>
       <use style="stroke:#000000;stroke-width:0.5;" x="111.176788" xlink:href="#mfc9dbc0c34" y="7.399219"/>
      </g>
     </g>
     <g id="text_2">
      <!-- 50 -->
      <g transform="translate(104.814288 161.192656)scale(0.1 -0.1)">
       <defs>
        <path d="M 691 4666 
L 3169 4666 
L 3169 4134 
L 1269 4134 
L 1269 2991 
Q 1406 3038 1543 3061 
Q 1681 3084 1819 3084 
Q 2600 3084 3056 2656 
Q 3513 2228 3513 1497 
Q 3513 744 3044 326 
Q 2575 -91 1722 -91 
Q 1428 -91 1123 -41 
Q 819 9 494 109 
L 494 744 
Q 775 591 1075 516 
Q 1375 441 1709 441 
Q 2250 441 2565 725 
Q 2881 1009 2881 1497 
Q 2881 1984 2565 2268 
Q 2250 2553 1709 2553 
Q 1456 2553 1204 2497 
Q 953 2441 691 2322 
L 691 4666 
z
" id="DejaVuSans-35" transform="scale(0.015625)"/>
       </defs>
       <use xlink:href="#DejaVuSans-35"/>
       <use x="63.623047" xlink:href="#DejaVuSans-30"/>
      </g>
     </g>
    </g>
    <g id="xtick_3">
     <g id="line2d_5">
      <g>
       <use style="stroke:#000000;stroke-width:0.5;" x="169.198178" xlink:href="#meea78f524f" y="150.094219"/>
      </g>
     </g>
     <g id="line2d_6">
      <g>
       <use style="stroke:#000000;stroke-width:0.5;" x="169.198178" xlink:href="#mfc9dbc0c34" y="7.399219"/>
      </g>
     </g>
     <g id="text_3">
      <!-- 100 -->
      <g transform="translate(159.654428 161.192656)scale(0.1 -0.1)">
       <defs>
        <path d="M 794 531 
L 1825 531 
L 1825 4091 
L 703 3866 
L 703 4441 
L 1819 4666 
L 2450 4666 
L 2450 531 
L 3481 531 
L 3481 0 
L 794 0 
L 794 531 
z
" id="DejaVuSans-31" transform="scale(0.015625)"/>
       </defs>
       <use xlink:href="#DejaVuSans-31"/>
       <use x="63.623047" xlink:href="#DejaVuSans-30"/>
       <use x="127.246094" xlink:href="#DejaVuSans-30"/>
      </g>
     </g>
    </g>
    <g id="xtick_4">
     <g id="line2d_7">
      <g>
       <use style="stroke:#000000;stroke-width:0.5;" x="227.219569" xlink:href="#meea78f524f" y="150.094219"/>
      </g>
     </g>
     <g id="line2d_8">
      <g>
       <use style="stroke:#000000;stroke-width:0.5;" x="227.219569" xlink:href="#mfc9dbc0c34" y="7.399219"/>
      </g>
     </g>
     <g id="text_4">
      <!-- 150 -->
      <g transform="translate(217.675819 161.192656)scale(0.1 -0.1)">
       <use xlink:href="#DejaVuSans-31"/>
       <use x="63.623047" xlink:href="#DejaVuSans-35"/>
       <use x="127.246094" xlink:href="#DejaVuSans-30"/>
      </g>
     </g>
    </g>
    <g id="xtick_5">
     <g id="line2d_9">
      <defs>
       <path d="M 0 0 
L 0 -1.5 
" id="mdd0ca11d21" style="stroke:#000000;stroke-width:0.5;"/>
      </defs>
      <g>
       <use style="stroke:#000000;stroke-width:0.5;" x="64.759676" xlink:href="#mdd0ca11d21" y="150.094219"/>
      </g>
     </g>
     <g id="line2d_10">
      <defs>
       <path d="M 0 0 
L 0 1.5 
" id="md7ecc397fc" style="stroke:#000000;stroke-width:0.5;"/>
      </defs>
      <g>
       <use style="stroke:#000000;stroke-width:0.5;" x="64.759676" xlink:href="#md7ecc397fc" y="7.399219"/>
      </g>
     </g>
    </g>
    <g id="xtick_6">
     <g id="line2d_11">
      <g>
       <use style="stroke:#000000;stroke-width:0.5;" x="76.363954" xlink:href="#mdd0ca11d21" y="150.094219"/>
      </g>
     </g>
     <g id="line2d_12">
      <g>
       <use style="stroke:#000000;stroke-width:0.5;" x="76.363954" xlink:href="#md7ecc397fc" y="7.399219"/>
      </g>
     </g>
    </g>
    <g id="xtick_7">
     <g id="line2d_13">
      <g>
       <use style="stroke:#000000;stroke-width:0.5;" x="87.968232" xlink:href="#mdd0ca11d21" y="150.094219"/>
      </g>
     </g>
     <g id="line2d_14">
      <g>
       <use style="stroke:#000000;stroke-width:0.5;" x="87.968232" xlink:href="#md7ecc397fc" y="7.399219"/>
      </g>
     </g>
    </g>
    <g id="xtick_8">
     <g id="line2d_15">
      <g>
       <use style="stroke:#000000;stroke-width:0.5;" x="99.57251" xlink:href="#mdd0ca11d21" y="150.094219"/>
      </g>
     </g>
     <g id="line2d_16">
      <g>
       <use style="stroke:#000000;stroke-width:0.5;" x="99.57251" xlink:href="#md7ecc397fc" y="7.399219"/>
      </g>
     </g>
    </g>
    <g id="xtick_9">
     <g id="line2d_17">
      <g>
       <use style="stroke:#000000;stroke-width:0.5;" x="122.781066" xlink:href="#mdd0ca11d21" y="150.094219"/>
      </g>
     </g>
     <g id="line2d_18">
      <g>
       <use style="stroke:#000000;stroke-width:0.5;" x="122.781066" xlink:href="#md7ecc397fc" y="7.399219"/>
      </g>
     </g>
    </g>
    <g id="xtick_10">
     <g id="line2d_19">
      <g>
       <use style="stroke:#000000;stroke-width:0.5;" x="134.385344" xlink:href="#mdd0ca11d21" y="150.094219"/>
      </g>
     </g>
     <g id="line2d_20">
      <g>
       <use style="stroke:#000000;stroke-width:0.5;" x="134.385344" xlink:href="#md7ecc397fc" y="7.399219"/>
      </g>
     </g>
    </g>
    <g id="xtick_11">
     <g id="line2d_21">
      <g>
       <use style="stroke:#000000;stroke-width:0.5;" x="145.989622" xlink:href="#mdd0ca11d21" y="150.094219"/>
      </g>
     </g>
     <g id="line2d_22">
      <g>
       <use style="stroke:#000000;stroke-width:0.5;" x="145.989622" xlink:href="#md7ecc397fc" y="7.399219"/>
      </g>
     </g>
    </g>
    <g id="xtick_12">
     <g id="line2d_23">
      <g>
       <use style="stroke:#000000;stroke-width:0.5;" x="157.5939" xlink:href="#mdd0ca11d21" y="150.094219"/>
      </g>
     </g>
     <g id="line2d_24">
      <g>
       <use style="stroke:#000000;stroke-width:0.5;" x="157.5939" xlink:href="#md7ecc397fc" y="7.399219"/>
      </g>
     </g>
    </g>
    <g id="xtick_13">
     <g id="line2d_25">
      <g>
       <use style="stroke:#000000;stroke-width:0.5;" x="180.802457" xlink:href="#mdd0ca11d21" y="150.094219"/>
      </g>
     </g>
     <g id="line2d_26">
      <g>
       <use style="stroke:#000000;stroke-width:0.5;" x="180.802457" xlink:href="#md7ecc397fc" y="7.399219"/>
      </g>
     </g>
    </g>
    <g id="xtick_14">
     <g id="line2d_27">
      <g>
       <use style="stroke:#000000;stroke-width:0.5;" x="192.406735" xlink:href="#mdd0ca11d21" y="150.094219"/>
      </g>
     </g>
     <g id="line2d_28">
      <g>
       <use style="stroke:#000000;stroke-width:0.5;" x="192.406735" xlink:href="#md7ecc397fc" y="7.399219"/>
      </g>
     </g>
    </g>
    <g id="xtick_15">
     <g id="line2d_29">
      <g>
       <use style="stroke:#000000;stroke-width:0.5;" x="204.011013" xlink:href="#mdd0ca11d21" y="150.094219"/>
      </g>
     </g>
     <g id="line2d_30">
      <g>
       <use style="stroke:#000000;stroke-width:0.5;" x="204.011013" xlink:href="#md7ecc397fc" y="7.399219"/>
      </g>
     </g>
    </g>
    <g id="xtick_16">
     <g id="line2d_31">
      <g>
       <use style="stroke:#000000;stroke-width:0.5;" x="215.615291" xlink:href="#mdd0ca11d21" y="150.094219"/>
      </g>
     </g>
     <g id="line2d_32">
      <g>
       <use style="stroke:#000000;stroke-width:0.5;" x="215.615291" xlink:href="#md7ecc397fc" y="7.399219"/>
      </g>
     </g>
    </g>
    <g id="xtick_17">
     <g id="line2d_33">
      <g>
       <use style="stroke:#000000;stroke-width:0.5;" x="238.823847" xlink:href="#mdd0ca11d21" y="150.094219"/>
      </g>
     </g>
     <g id="line2d_34">
      <g>
       <use style="stroke:#000000;stroke-width:0.5;" x="238.823847" xlink:href="#md7ecc397fc" y="7.399219"/>
      </g>
     </g>
    </g>
    <g id="text_5">
     <!-- # Magnets -->
     <g transform="translate(114.786719 174.870781)scale(0.1 -0.1)">
      <defs>
       <path d="M 3272 2816 
L 2363 2816 
L 2100 1772 
L 3016 1772 
L 3272 2816 
z
M 2803 4594 
L 2478 3297 
L 3391 3297 
L 3719 4594 
L 4219 4594 
L 3897 3297 
L 4872 3297 
L 4872 2816 
L 3775 2816 
L 3519 1772 
L 4513 1772 
L 4513 1294 
L 3397 1294 
L 3072 0 
L 2572 0 
L 2894 1294 
L 1978 1294 
L 1656 0 
L 1153 0 
L 1478 1294 
L 494 1294 
L 494 1772 
L 1594 1772 
L 1856 2816 
L 850 2816 
L 850 3297 
L 1978 3297 
L 2297 4594 
L 2803 4594 
z
" id="DejaVuSans-23" transform="scale(0.015625)"/>
       <path id="DejaVuSans-20" transform="scale(0.015625)"/>
       <path d="M 628 4666 
L 1569 4666 
L 2759 1491 
L 3956 4666 
L 4897 4666 
L 4897 0 
L 4281 0 
L 4281 4097 
L 3078 897 
L 2444 897 
L 1241 4097 
L 1241 0 
L 628 0 
L 628 4666 
z
" id="DejaVuSans-4d" transform="scale(0.015625)"/>
       <path d="M 2194 1759 
Q 1497 1759 1228 1600 
Q 959 1441 959 1056 
Q 959 750 1161 570 
Q 1363 391 1709 391 
Q 2188 391 2477 730 
Q 2766 1069 2766 1631 
L 2766 1759 
L 2194 1759 
z
M 3341 1997 
L 3341 0 
L 2766 0 
L 2766 531 
Q 2569 213 2275 61 
Q 1981 -91 1556 -91 
Q 1019 -91 701 211 
Q 384 513 384 1019 
Q 384 1609 779 1909 
Q 1175 2209 1959 2209 
L 2766 2209 
L 2766 2266 
Q 2766 2663 2505 2880 
Q 2244 3097 1772 3097 
Q 1472 3097 1187 3025 
Q 903 2953 641 2809 
L 641 3341 
Q 956 3463 1253 3523 
Q 1550 3584 1831 3584 
Q 2591 3584 2966 3190 
Q 3341 2797 3341 1997 
z
" id="DejaVuSans-61" transform="scale(0.015625)"/>
       <path d="M 2906 1791 
Q 2906 2416 2648 2759 
Q 2391 3103 1925 3103 
Q 1463 3103 1205 2759 
Q 947 2416 947 1791 
Q 947 1169 1205 825 
Q 1463 481 1925 481 
Q 2391 481 2648 825 
Q 2906 1169 2906 1791 
z
M 3481 434 
Q 3481 -459 3084 -895 
Q 2688 -1331 1869 -1331 
Q 1566 -1331 1297 -1286 
Q 1028 -1241 775 -1147 
L 775 -588 
Q 1028 -725 1275 -790 
Q 1522 -856 1778 -856 
Q 2344 -856 2625 -561 
Q 2906 -266 2906 331 
L 2906 616 
Q 2728 306 2450 153 
Q 2172 0 1784 0 
Q 1141 0 747 490 
Q 353 981 353 1791 
Q 353 2603 747 3093 
Q 1141 3584 1784 3584 
Q 2172 3584 2450 3431 
Q 2728 3278 2906 2969 
L 2906 3500 
L 3481 3500 
L 3481 434 
z
" id="DejaVuSans-67" transform="scale(0.015625)"/>
       <path d="M 3513 2113 
L 3513 0 
L 2938 0 
L 2938 2094 
Q 2938 2591 2744 2837 
Q 2550 3084 2163 3084 
Q 1697 3084 1428 2787 
Q 1159 2491 1159 1978 
L 1159 0 
L 581 0 
L 581 3500 
L 1159 3500 
L 1159 2956 
Q 1366 3272 1645 3428 
Q 1925 3584 2291 3584 
Q 2894 3584 3203 3211 
Q 3513 2838 3513 2113 
z
" id="DejaVuSans-6e" transform="scale(0.015625)"/>
       <path d="M 3597 1894 
L 3597 1613 
L 953 1613 
Q 991 1019 1311 708 
Q 1631 397 2203 397 
Q 2534 397 2845 478 
Q 3156 559 3463 722 
L 3463 178 
Q 3153 47 2828 -22 
Q 2503 -91 2169 -91 
Q 1331 -91 842 396 
Q 353 884 353 1716 
Q 353 2575 817 3079 
Q 1281 3584 2069 3584 
Q 2775 3584 3186 3129 
Q 3597 2675 3597 1894 
z
M 3022 2063 
Q 3016 2534 2758 2815 
Q 2500 3097 2075 3097 
Q 1594 3097 1305 2825 
Q 1016 2553 972 2059 
L 3022 2063 
z
" id="DejaVuSans-65" transform="scale(0.015625)"/>
       <path d="M 1172 4494 
L 1172 3500 
L 2356 3500 
L 2356 3053 
L 1172 3053 
L 1172 1153 
Q 1172 725 1289 603 
Q 1406 481 1766 481 
L 2356 481 
L 2356 0 
L 1766 0 
Q 1100 0 847 248 
Q 594 497 594 1153 
L 594 3053 
L 172 3053 
L 172 3500 
L 594 3500 
L 594 4494 
L 1172 4494 
z
" id="DejaVuSans-74" transform="scale(0.015625)"/>
       <path d="M 2834 3397 
L 2834 2853 
Q 2591 2978 2328 3040 
Q 2066 3103 1784 3103 
Q 1356 3103 1142 2972 
Q 928 2841 928 2578 
Q 928 2378 1081 2264 
Q 1234 2150 1697 2047 
L 1894 2003 
Q 2506 1872 2764 1633 
Q 3022 1394 3022 966 
Q 3022 478 2636 193 
Q 2250 -91 1575 -91 
Q 1294 -91 989 -36 
Q 684 19 347 128 
L 347 722 
Q 666 556 975 473 
Q 1284 391 1588 391 
Q 1994 391 2212 530 
Q 2431 669 2431 922 
Q 2431 1156 2273 1281 
Q 2116 1406 1581 1522 
L 1381 1569 
Q 847 1681 609 1914 
Q 372 2147 372 2553 
Q 372 3047 722 3315 
Q 1072 3584 1716 3584 
Q 2034 3584 2315 3537 
Q 2597 3491 2834 3397 
z
" id="DejaVuSans-73" transform="scale(0.015625)"/>
      </defs>
      <use xlink:href="#DejaVuSans-23"/>
      <use x="83.789062" xlink:href="#DejaVuSans-20"/>
      <use x="115.576172" xlink:href="#DejaVuSans-4d"/>
      <use x="201.855469" xlink:href="#DejaVuSans-61"/>
      <use x="263.134766" xlink:href="#DejaVuSans-67"/>
      <use x="326.611328" xlink:href="#DejaVuSans-6e"/>
      <use x="389.990234" xlink:href="#DejaVuSans-65"/>
      <use x="451.513672" xlink:href="#DejaVuSans-74"/>
      <use x="490.722656" xlink:href="#DejaVuSans-73"/>
     </g>
    </g>
   </g>
   <g id="matplotlib.axis_2">
    <g id="ytick_1">
     <g id="line2d_35">
      <defs>
       <path d="M 0 0 
L 3 0 
" id="mb7a34546dc" style="stroke:#000000;stroke-width:0.5;"/>
      </defs>
      <g>
       <use style="stroke:#000000;stroke-width:0.5;" x="44.278125" xlink:href="#mb7a34546dc" y="150.094219"/>
      </g>
     </g>
     <g id="line2d_36">
      <defs>
       <path d="M 0 0 
L -3 0 
" id="m1be9314693" style="stroke:#000000;stroke-width:0.5;"/>
      </defs>
      <g>
       <use style="stroke:#000000;stroke-width:0.5;" x="239.578125" xlink:href="#m1be9314693" y="150.094219"/>
      </g>
     </g>
     <g id="text_6">
      <!-- $\mathdefault{10^{-6}}$ -->
      <g transform="translate(17.278125 153.893437)scale(0.1 -0.1)">
       <defs>
        <path d="M 678 2272 
L 4684 2272 
L 4684 1741 
L 678 1741 
L 678 2272 
z
" id="DejaVuSans-2212" transform="scale(0.015625)"/>
        <path d="M 2113 2584 
Q 1688 2584 1439 2293 
Q 1191 2003 1191 1497 
Q 1191 994 1439 701 
Q 1688 409 2113 409 
Q 2538 409 2786 701 
Q 3034 994 3034 1497 
Q 3034 2003 2786 2293 
Q 2538 2584 2113 2584 
z
M 3366 4563 
L 3366 3988 
Q 3128 4100 2886 4159 
Q 2644 4219 2406 4219 
Q 1781 4219 1451 3797 
Q 1122 3375 1075 2522 
Q 1259 2794 1537 2939 
Q 1816 3084 2150 3084 
Q 2853 3084 3261 2657 
Q 3669 2231 3669 1497 
Q 3669 778 3244 343 
Q 2819 -91 2113 -91 
Q 1303 -91 875 529 
Q 447 1150 447 2328 
Q 447 3434 972 4092 
Q 1497 4750 2381 4750 
Q 2619 4750 2861 4703 
Q 3103 4656 3366 4563 
z
" id="DejaVuSans-36" transform="scale(0.015625)"/>
       </defs>
       <use transform="translate(0 0.765625)" xlink:href="#DejaVuSans-31"/>
       <use transform="translate(63.623047 0.765625)" xlink:href="#DejaVuSans-30"/>
       <use transform="translate(128.203125 39.046875)scale(0.7)" xlink:href="#DejaVuSans-2212"/>
       <use transform="translate(186.855469 39.046875)scale(0.7)" xlink:href="#DejaVuSans-36"/>
      </g>
     </g>
    </g>
    <g id="ytick_2">
     <g id="line2d_37">
      <g>
       <use style="stroke:#000000;stroke-width:0.5;" x="44.278125" xlink:href="#mb7a34546dc" y="121.555219"/>
      </g>
     </g>
     <g id="line2d_38">
      <g>
       <use style="stroke:#000000;stroke-width:0.5;" x="239.578125" xlink:href="#m1be9314693" y="121.555219"/>
      </g>
     </g>
     <g id="text_7">
      <!-- $\mathdefault{10^{-5}}$ -->
      <g transform="translate(17.278125 125.354437)scale(0.1 -0.1)">
       <use transform="translate(0 0.684375)" xlink:href="#DejaVuSans-31"/>
       <use transform="translate(63.623047 0.684375)" xlink:href="#DejaVuSans-30"/>
       <use transform="translate(128.203125 38.965625)scale(0.7)" xlink:href="#DejaVuSans-2212"/>
       <use transform="translate(186.855469 38.965625)scale(0.7)" xlink:href="#DejaVuSans-35"/>
      </g>
     </g>
    </g>
    <g id="ytick_3">
     <g id="line2d_39">
      <g>
       <use style="stroke:#000000;stroke-width:0.5;" x="44.278125" xlink:href="#mb7a34546dc" y="93.016219"/>
      </g>
     </g>
     <g id="line2d_40">
      <g>
       <use style="stroke:#000000;stroke-width:0.5;" x="239.578125" xlink:href="#m1be9314693" y="93.016219"/>
      </g>
     </g>
     <g id="text_8">
      <!-- $\mathdefault{10^{-4}}$ -->
      <g transform="translate(17.278125 96.815437)scale(0.1 -0.1)">
       <defs>
        <path d="M 2419 4116 
L 825 1625 
L 2419 1625 
L 2419 4116 
z
M 2253 4666 
L 3047 4666 
L 3047 1625 
L 3713 1625 
L 3713 1100 
L 3047 1100 
L 3047 0 
L 2419 0 
L 2419 1100 
L 313 1100 
L 313 1709 
L 2253 4666 
z
" id="DejaVuSans-34" transform="scale(0.015625)"/>
       </defs>
       <use transform="translate(0 0.684375)" xlink:href="#DejaVuSans-31"/>
       <use transform="translate(63.623047 0.684375)" xlink:href="#DejaVuSans-30"/>
       <use transform="translate(128.203125 38.965625)scale(0.7)" xlink:href="#DejaVuSans-2212"/>
       <use transform="translate(186.855469 38.965625)scale(0.7)" xlink:href="#DejaVuSans-34"/>
      </g>
     </g>
    </g>
    <g id="ytick_4">
     <g id="line2d_41">
      <g>
       <use style="stroke:#000000;stroke-width:0.5;" x="44.278125" xlink:href="#mb7a34546dc" y="64.477219"/>
      </g>
     </g>
     <g id="line2d_42">
      <g>
       <use style="stroke:#000000;stroke-width:0.5;" x="239.578125" xlink:href="#m1be9314693" y="64.477219"/>
      </g>
     </g>
     <g id="text_9">
      <!-- $\mathdefault{10^{-3}}$ -->
      <g transform="translate(17.278125 68.276437)scale(0.1 -0.1)">
       <defs>
        <path d="M 2597 2516 
Q 3050 2419 3304 2112 
Q 3559 1806 3559 1356 
Q 3559 666 3084 287 
Q 2609 -91 1734 -91 
Q 1441 -91 1130 -33 
Q 819 25 488 141 
L 488 750 
Q 750 597 1062 519 
Q 1375 441 1716 441 
Q 2309 441 2620 675 
Q 2931 909 2931 1356 
Q 2931 1769 2642 2001 
Q 2353 2234 1838 2234 
L 1294 2234 
L 1294 2753 
L 1863 2753 
Q 2328 2753 2575 2939 
Q 2822 3125 2822 3475 
Q 2822 3834 2567 4026 
Q 2313 4219 1838 4219 
Q 1578 4219 1281 4162 
Q 984 4106 628 3988 
L 628 4550 
Q 988 4650 1302 4700 
Q 1616 4750 1894 4750 
Q 2613 4750 3031 4423 
Q 3450 4097 3450 3541 
Q 3450 3153 3228 2886 
Q 3006 2619 2597 2516 
z
" id="DejaVuSans-33" transform="scale(0.015625)"/>
       </defs>
       <use transform="translate(0 0.765625)" xlink:href="#DejaVuSans-31"/>
       <use transform="translate(63.623047 0.765625)" xlink:href="#DejaVuSans-30"/>
       <use transform="translate(128.203125 39.046875)scale(0.7)" xlink:href="#DejaVuSans-2212"/>
       <use transform="translate(186.855469 39.046875)scale(0.7)" xlink:href="#DejaVuSans-33"/>
      </g>
     </g>
    </g>
    <g id="ytick_5">
     <g id="line2d_43">
      <g>
       <use style="stroke:#000000;stroke-width:0.5;" x="44.278125" xlink:href="#mb7a34546dc" y="35.938219"/>
      </g>
     </g>
     <g id="line2d_44">
      <g>
       <use style="stroke:#000000;stroke-width:0.5;" x="239.578125" xlink:href="#m1be9314693" y="35.938219"/>
      </g>
     </g>
     <g id="text_10">
      <!-- $\mathdefault{10^{-2}}$ -->
      <g transform="translate(17.278125 39.737437)scale(0.1 -0.1)">
       <defs>
        <path d="M 1228 531 
L 3431 531 
L 3431 0 
L 469 0 
L 469 531 
Q 828 903 1448 1529 
Q 2069 2156 2228 2338 
Q 2531 2678 2651 2914 
Q 2772 3150 2772 3378 
Q 2772 3750 2511 3984 
Q 2250 4219 1831 4219 
Q 1534 4219 1204 4116 
Q 875 4013 500 3803 
L 500 4441 
Q 881 4594 1212 4672 
Q 1544 4750 1819 4750 
Q 2544 4750 2975 4387 
Q 3406 4025 3406 3419 
Q 3406 3131 3298 2873 
Q 3191 2616 2906 2266 
Q 2828 2175 2409 1742 
Q 1991 1309 1228 531 
z
" id="DejaVuSans-32" transform="scale(0.015625)"/>
       </defs>
       <use transform="translate(0 0.765625)" xlink:href="#DejaVuSans-31"/>
       <use transform="translate(63.623047 0.765625)" xlink:href="#DejaVuSans-30"/>
       <use transform="translate(128.203125 39.046875)scale(0.7)" xlink:href="#DejaVuSans-2212"/>
       <use transform="translate(186.855469 39.046875)scale(0.7)" xlink:href="#DejaVuSans-32"/>
      </g>
     </g>
    </g>
    <g id="ytick_6">
     <g id="line2d_45">
      <g>
       <use style="stroke:#000000;stroke-width:0.5;" x="44.278125" xlink:href="#mb7a34546dc" y="7.399219"/>
      </g>
     </g>
     <g id="line2d_46">
      <g>
       <use style="stroke:#000000;stroke-width:0.5;" x="239.578125" xlink:href="#m1be9314693" y="7.399219"/>
      </g>
     </g>
     <g id="text_11">
      <!-- $\mathdefault{10^{-1}}$ -->
      <g transform="translate(17.278125 11.198437)scale(0.1 -0.1)">
       <use transform="translate(0 0.684375)" xlink:href="#DejaVuSans-31"/>
       <use transform="translate(63.623047 0.684375)" xlink:href="#DejaVuSans-30"/>
       <use transform="translate(128.203125 38.965625)scale(0.7)" xlink:href="#DejaVuSans-2212"/>
       <use transform="translate(186.855469 38.965625)scale(0.7)" xlink:href="#DejaVuSans-31"/>
      </g>
     </g>
    </g>
    <g id="ytick_7">
     <g id="line2d_47">
      <defs>
       <path d="M 0 0 
L 1.5 0 
" id="ma40107d387" style="stroke:#000000;stroke-width:0.5;"/>
      </defs>
      <g>
       <use style="stroke:#000000;stroke-width:0.5;" x="44.278125" xlink:href="#ma40107d387" y="141.503124"/>
      </g>
     </g>
     <g id="line2d_48">
      <defs>
       <path d="M 0 0 
L -1.5 0 
" id="mfbe891a704" style="stroke:#000000;stroke-width:0.5;"/>
      </defs>
      <g>
       <use style="stroke:#000000;stroke-width:0.5;" x="239.578125" xlink:href="#mfbe891a704" y="141.503124"/>
      </g>
     </g>
    </g>
    <g id="ytick_8">
     <g id="line2d_49">
      <g>
       <use style="stroke:#000000;stroke-width:0.5;" x="44.278125" xlink:href="#ma40107d387" y="136.477655"/>
      </g>
     </g>
     <g id="line2d_50">
      <g>
       <use style="stroke:#000000;stroke-width:0.5;" x="239.578125" xlink:href="#mfbe891a704" y="136.477655"/>
      </g>
     </g>
    </g>
    <g id="ytick_9">
     <g id="line2d_51">
      <g>
       <use style="stroke:#000000;stroke-width:0.5;" x="44.278125" xlink:href="#ma40107d387" y="132.912029"/>
      </g>
     </g>
     <g id="line2d_52">
      <g>
       <use style="stroke:#000000;stroke-width:0.5;" x="239.578125" xlink:href="#mfbe891a704" y="132.912029"/>
      </g>
     </g>
    </g>
    <g id="ytick_10">
     <g id="line2d_53">
      <g>
       <use style="stroke:#000000;stroke-width:0.5;" x="44.278125" xlink:href="#ma40107d387" y="130.146314"/>
      </g>
     </g>
     <g id="line2d_54">
      <g>
       <use style="stroke:#000000;stroke-width:0.5;" x="239.578125" xlink:href="#mfbe891a704" y="130.146314"/>
      </g>
     </g>
    </g>
    <g id="ytick_11">
     <g id="line2d_55">
      <g>
       <use style="stroke:#000000;stroke-width:0.5;" x="44.278125" xlink:href="#ma40107d387" y="127.88656"/>
      </g>
     </g>
     <g id="line2d_56">
      <g>
       <use style="stroke:#000000;stroke-width:0.5;" x="239.578125" xlink:href="#mfbe891a704" y="127.88656"/>
      </g>
     </g>
    </g>
    <g id="ytick_12">
     <g id="line2d_57">
      <g>
       <use style="stroke:#000000;stroke-width:0.5;" x="44.278125" xlink:href="#ma40107d387" y="125.975966"/>
      </g>
     </g>
     <g id="line2d_58">
      <g>
       <use style="stroke:#000000;stroke-width:0.5;" x="239.578125" xlink:href="#mfbe891a704" y="125.975966"/>
      </g>
     </g>
    </g>
    <g id="ytick_13">
     <g id="line2d_59">
      <g>
       <use style="stroke:#000000;stroke-width:0.5;" x="44.278125" xlink:href="#ma40107d387" y="124.320934"/>
      </g>
     </g>
     <g id="line2d_60">
      <g>
       <use style="stroke:#000000;stroke-width:0.5;" x="239.578125" xlink:href="#mfbe891a704" y="124.320934"/>
      </g>
     </g>
    </g>
    <g id="ytick_14">
     <g id="line2d_61">
      <g>
       <use style="stroke:#000000;stroke-width:0.5;" x="44.278125" xlink:href="#ma40107d387" y="122.861092"/>
      </g>
     </g>
     <g id="line2d_62">
      <g>
       <use style="stroke:#000000;stroke-width:0.5;" x="239.578125" xlink:href="#mfbe891a704" y="122.861092"/>
      </g>
     </g>
    </g>
    <g id="ytick_15">
     <g id="line2d_63">
      <g>
       <use style="stroke:#000000;stroke-width:0.5;" x="44.278125" xlink:href="#ma40107d387" y="112.964124"/>
      </g>
     </g>
     <g id="line2d_64">
      <g>
       <use style="stroke:#000000;stroke-width:0.5;" x="239.578125" xlink:href="#mfbe891a704" y="112.964124"/>
      </g>
     </g>
    </g>
    <g id="ytick_16">
     <g id="line2d_65">
      <g>
       <use style="stroke:#000000;stroke-width:0.5;" x="44.278125" xlink:href="#ma40107d387" y="107.938655"/>
      </g>
     </g>
     <g id="line2d_66">
      <g>
       <use style="stroke:#000000;stroke-width:0.5;" x="239.578125" xlink:href="#mfbe891a704" y="107.938655"/>
      </g>
     </g>
    </g>
    <g id="ytick_17">
     <g id="line2d_67">
      <g>
       <use style="stroke:#000000;stroke-width:0.5;" x="44.278125" xlink:href="#ma40107d387" y="104.373029"/>
      </g>
     </g>
     <g id="line2d_68">
      <g>
       <use style="stroke:#000000;stroke-width:0.5;" x="239.578125" xlink:href="#mfbe891a704" y="104.373029"/>
      </g>
     </g>
    </g>
    <g id="ytick_18">
     <g id="line2d_69">
      <g>
       <use style="stroke:#000000;stroke-width:0.5;" x="44.278125" xlink:href="#ma40107d387" y="101.607314"/>
      </g>
     </g>
     <g id="line2d_70">
      <g>
       <use style="stroke:#000000;stroke-width:0.5;" x="239.578125" xlink:href="#mfbe891a704" y="101.607314"/>
      </g>
     </g>
    </g>
    <g id="ytick_19">
     <g id="line2d_71">
      <g>
       <use style="stroke:#000000;stroke-width:0.5;" x="44.278125" xlink:href="#ma40107d387" y="99.34756"/>
      </g>
     </g>
     <g id="line2d_72">
      <g>
       <use style="stroke:#000000;stroke-width:0.5;" x="239.578125" xlink:href="#mfbe891a704" y="99.34756"/>
      </g>
     </g>
    </g>
    <g id="ytick_20">
     <g id="line2d_73">
      <g>
       <use style="stroke:#000000;stroke-width:0.5;" x="44.278125" xlink:href="#ma40107d387" y="97.436966"/>
      </g>
     </g>
     <g id="line2d_74">
      <g>
       <use style="stroke:#000000;stroke-width:0.5;" x="239.578125" xlink:href="#mfbe891a704" y="97.436966"/>
      </g>
     </g>
    </g>
    <g id="ytick_21">
     <g id="line2d_75">
      <g>
       <use style="stroke:#000000;stroke-width:0.5;" x="44.278125" xlink:href="#ma40107d387" y="95.781934"/>
      </g>
     </g>
     <g id="line2d_76">
      <g>
       <use style="stroke:#000000;stroke-width:0.5;" x="239.578125" xlink:href="#mfbe891a704" y="95.781934"/>
      </g>
     </g>
    </g>
    <g id="ytick_22">
     <g id="line2d_77">
      <g>
       <use style="stroke:#000000;stroke-width:0.5;" x="44.278125" xlink:href="#ma40107d387" y="94.322092"/>
      </g>
     </g>
     <g id="line2d_78">
      <g>
       <use style="stroke:#000000;stroke-width:0.5;" x="239.578125" xlink:href="#mfbe891a704" y="94.322092"/>
      </g>
     </g>
    </g>
    <g id="ytick_23">
     <g id="line2d_79">
      <g>
       <use style="stroke:#000000;stroke-width:0.5;" x="44.278125" xlink:href="#ma40107d387" y="84.425124"/>
      </g>
     </g>
     <g id="line2d_80">
      <g>
       <use style="stroke:#000000;stroke-width:0.5;" x="239.578125" xlink:href="#mfbe891a704" y="84.425124"/>
      </g>
     </g>
    </g>
    <g id="ytick_24">
     <g id="line2d_81">
      <g>
       <use style="stroke:#000000;stroke-width:0.5;" x="44.278125" xlink:href="#ma40107d387" y="79.399655"/>
      </g>
     </g>
     <g id="line2d_82">
      <g>
       <use style="stroke:#000000;stroke-width:0.5;" x="239.578125" xlink:href="#mfbe891a704" y="79.399655"/>
      </g>
     </g>
    </g>
    <g id="ytick_25">
     <g id="line2d_83">
      <g>
       <use style="stroke:#000000;stroke-width:0.5;" x="44.278125" xlink:href="#ma40107d387" y="75.834029"/>
      </g>
     </g>
     <g id="line2d_84">
      <g>
       <use style="stroke:#000000;stroke-width:0.5;" x="239.578125" xlink:href="#mfbe891a704" y="75.834029"/>
      </g>
     </g>
    </g>
    <g id="ytick_26">
     <g id="line2d_85">
      <g>
       <use style="stroke:#000000;stroke-width:0.5;" x="44.278125" xlink:href="#ma40107d387" y="73.068314"/>
      </g>
     </g>
     <g id="line2d_86">
      <g>
       <use style="stroke:#000000;stroke-width:0.5;" x="239.578125" xlink:href="#mfbe891a704" y="73.068314"/>
      </g>
     </g>
    </g>
    <g id="ytick_27">
     <g id="line2d_87">
      <g>
       <use style="stroke:#000000;stroke-width:0.5;" x="44.278125" xlink:href="#ma40107d387" y="70.80856"/>
      </g>
     </g>
     <g id="line2d_88">
      <g>
       <use style="stroke:#000000;stroke-width:0.5;" x="239.578125" xlink:href="#mfbe891a704" y="70.80856"/>
      </g>
     </g>
    </g>
    <g id="ytick_28">
     <g id="line2d_89">
      <g>
       <use style="stroke:#000000;stroke-width:0.5;" x="44.278125" xlink:href="#ma40107d387" y="68.897966"/>
      </g>
     </g>
     <g id="line2d_90">
      <g>
       <use style="stroke:#000000;stroke-width:0.5;" x="239.578125" xlink:href="#mfbe891a704" y="68.897966"/>
      </g>
     </g>
    </g>
    <g id="ytick_29">
     <g id="line2d_91">
      <g>
       <use style="stroke:#000000;stroke-width:0.5;" x="44.278125" xlink:href="#ma40107d387" y="67.242934"/>
      </g>
     </g>
     <g id="line2d_92">
      <g>
       <use style="stroke:#000000;stroke-width:0.5;" x="239.578125" xlink:href="#mfbe891a704" y="67.242934"/>
      </g>
     </g>
    </g>
    <g id="ytick_30">
     <g id="line2d_93">
      <g>
       <use style="stroke:#000000;stroke-width:0.5;" x="44.278125" xlink:href="#ma40107d387" y="65.783092"/>
      </g>
     </g>
     <g id="line2d_94">
      <g>
       <use style="stroke:#000000;stroke-width:0.5;" x="239.578125" xlink:href="#mfbe891a704" y="65.783092"/>
      </g>
     </g>
    </g>
    <g id="ytick_31">
     <g id="line2d_95">
      <g>
       <use style="stroke:#000000;stroke-width:0.5;" x="44.278125" xlink:href="#ma40107d387" y="55.886124"/>
      </g>
     </g>
     <g id="line2d_96">
      <g>
       <use style="stroke:#000000;stroke-width:0.5;" x="239.578125" xlink:href="#mfbe891a704" y="55.886124"/>
      </g>
     </g>
    </g>
    <g id="ytick_32">
     <g id="line2d_97">
      <g>
       <use style="stroke:#000000;stroke-width:0.5;" x="44.278125" xlink:href="#ma40107d387" y="50.860655"/>
      </g>
     </g>
     <g id="line2d_98">
      <g>
       <use style="stroke:#000000;stroke-width:0.5;" x="239.578125" xlink:href="#mfbe891a704" y="50.860655"/>
      </g>
     </g>
    </g>
    <g id="ytick_33">
     <g id="line2d_99">
      <g>
       <use style="stroke:#000000;stroke-width:0.5;" x="44.278125" xlink:href="#ma40107d387" y="47.295029"/>
      </g>
     </g>
     <g id="line2d_100">
      <g>
       <use style="stroke:#000000;stroke-width:0.5;" x="239.578125" xlink:href="#mfbe891a704" y="47.295029"/>
      </g>
     </g>
    </g>
    <g id="ytick_34">
     <g id="line2d_101">
      <g>
       <use style="stroke:#000000;stroke-width:0.5;" x="44.278125" xlink:href="#ma40107d387" y="44.529314"/>
      </g>
     </g>
     <g id="line2d_102">
      <g>
       <use style="stroke:#000000;stroke-width:0.5;" x="239.578125" xlink:href="#mfbe891a704" y="44.529314"/>
      </g>
     </g>
    </g>
    <g id="ytick_35">
     <g id="line2d_103">
      <g>
       <use style="stroke:#000000;stroke-width:0.5;" x="44.278125" xlink:href="#ma40107d387" y="42.26956"/>
      </g>
     </g>
     <g id="line2d_104">
      <g>
       <use style="stroke:#000000;stroke-width:0.5;" x="239.578125" xlink:href="#mfbe891a704" y="42.26956"/>
      </g>
     </g>
    </g>
    <g id="ytick_36">
     <g id="line2d_105">
      <g>
       <use style="stroke:#000000;stroke-width:0.5;" x="44.278125" xlink:href="#ma40107d387" y="40.358966"/>
      </g>
     </g>
     <g id="line2d_106">
      <g>
       <use style="stroke:#000000;stroke-width:0.5;" x="239.578125" xlink:href="#mfbe891a704" y="40.358966"/>
      </g>
     </g>
    </g>
    <g id="ytick_37">
     <g id="line2d_107">
      <g>
       <use style="stroke:#000000;stroke-width:0.5;" x="44.278125" xlink:href="#ma40107d387" y="38.703934"/>
      </g>
     </g>
     <g id="line2d_108">
      <g>
       <use style="stroke:#000000;stroke-width:0.5;" x="239.578125" xlink:href="#mfbe891a704" y="38.703934"/>
      </g>
     </g>
    </g>
    <g id="ytick_38">
     <g id="line2d_109">
      <g>
       <use style="stroke:#000000;stroke-width:0.5;" x="44.278125" xlink:href="#ma40107d387" y="37.244092"/>
      </g>
     </g>
     <g id="line2d_110">
      <g>
       <use style="stroke:#000000;stroke-width:0.5;" x="239.578125" xlink:href="#mfbe891a704" y="37.244092"/>
      </g>
     </g>
    </g>
    <g id="ytick_39">
     <g id="line2d_111">
      <g>
       <use style="stroke:#000000;stroke-width:0.5;" x="44.278125" xlink:href="#ma40107d387" y="27.347124"/>
      </g>
     </g>
     <g id="line2d_112">
      <g>
       <use style="stroke:#000000;stroke-width:0.5;" x="239.578125" xlink:href="#mfbe891a704" y="27.347124"/>
      </g>
     </g>
    </g>
    <g id="ytick_40">
     <g id="line2d_113">
      <g>
       <use style="stroke:#000000;stroke-width:0.5;" x="44.278125" xlink:href="#ma40107d387" y="22.321655"/>
      </g>
     </g>
     <g id="line2d_114">
      <g>
       <use style="stroke:#000000;stroke-width:0.5;" x="239.578125" xlink:href="#mfbe891a704" y="22.321655"/>
      </g>
     </g>
    </g>
    <g id="ytick_41">
     <g id="line2d_115">
      <g>
       <use style="stroke:#000000;stroke-width:0.5;" x="44.278125" xlink:href="#ma40107d387" y="18.756029"/>
      </g>
     </g>
     <g id="line2d_116">
      <g>
       <use style="stroke:#000000;stroke-width:0.5;" x="239.578125" xlink:href="#mfbe891a704" y="18.756029"/>
      </g>
     </g>
    </g>
    <g id="ytick_42">
     <g id="line2d_117">
      <g>
       <use style="stroke:#000000;stroke-width:0.5;" x="44.278125" xlink:href="#ma40107d387" y="15.990314"/>
      </g>
     </g>
     <g id="line2d_118">
      <g>
       <use style="stroke:#000000;stroke-width:0.5;" x="239.578125" xlink:href="#mfbe891a704" y="15.990314"/>
      </g>
     </g>
    </g>
    <g id="ytick_43">
     <g id="line2d_119">
      <g>
       <use style="stroke:#000000;stroke-width:0.5;" x="44.278125" xlink:href="#ma40107d387" y="13.73056"/>
      </g>
     </g>
     <g id="line2d_120">
      <g>
       <use style="stroke:#000000;stroke-width:0.5;" x="239.578125" xlink:href="#mfbe891a704" y="13.73056"/>
      </g>
     </g>
    </g>
    <g id="ytick_44">
     <g id="line2d_121">
      <g>
       <use style="stroke:#000000;stroke-width:0.5;" x="44.278125" xlink:href="#ma40107d387" y="11.819966"/>
      </g>
     </g>
     <g id="line2d_122">
      <g>
       <use style="stroke:#000000;stroke-width:0.5;" x="239.578125" xlink:href="#mfbe891a704" y="11.819966"/>
      </g>
     </g>
    </g>
    <g id="ytick_45">
     <g id="line2d_123">
      <g>
       <use style="stroke:#000000;stroke-width:0.5;" x="44.278125" xlink:href="#ma40107d387" y="10.164934"/>
      </g>
     </g>
     <g id="line2d_124">
      <g>
       <use style="stroke:#000000;stroke-width:0.5;" x="239.578125" xlink:href="#mfbe891a704" y="10.164934"/>
      </g>
     </g>
    </g>
    <g id="ytick_46">
     <g id="line2d_125">
      <g>
       <use style="stroke:#000000;stroke-width:0.5;" x="44.278125" xlink:href="#ma40107d387" y="8.705092"/>
      </g>
     </g>
     <g id="line2d_126">
      <g>
       <use style="stroke:#000000;stroke-width:0.5;" x="239.578125" xlink:href="#mfbe891a704" y="8.705092"/>
      </g>
     </g>
    </g>
    <g id="text_12">
     <!-- Voltage / V -->
     <g transform="translate(11.198438 105.785781)rotate(-90)scale(0.1 -0.1)">
      <defs>
       <path d="M 1831 0 
L 50 4666 
L 709 4666 
L 2188 738 
L 3669 4666 
L 4325 4666 
L 2547 0 
L 1831 0 
z
" id="DejaVuSans-56" transform="scale(0.015625)"/>
       <path d="M 1959 3097 
Q 1497 3097 1228 2736 
Q 959 2375 959 1747 
Q 959 1119 1226 758 
Q 1494 397 1959 397 
Q 2419 397 2687 759 
Q 2956 1122 2956 1747 
Q 2956 2369 2687 2733 
Q 2419 3097 1959 3097 
z
M 1959 3584 
Q 2709 3584 3137 3096 
Q 3566 2609 3566 1747 
Q 3566 888 3137 398 
Q 2709 -91 1959 -91 
Q 1206 -91 779 398 
Q 353 888 353 1747 
Q 353 2609 779 3096 
Q 1206 3584 1959 3584 
z
" id="DejaVuSans-6f" transform="scale(0.015625)"/>
       <path d="M 603 4863 
L 1178 4863 
L 1178 0 
L 603 0 
L 603 4863 
z
" id="DejaVuSans-6c" transform="scale(0.015625)"/>
       <path d="M 1625 4666 
L 2156 4666 
L 531 -594 
L 0 -594 
L 1625 4666 
z
" id="DejaVuSans-2f" transform="scale(0.015625)"/>
      </defs>
      <use xlink:href="#DejaVuSans-56"/>
      <use x="60.658203" xlink:href="#DejaVuSans-6f"/>
      <use x="121.839844" xlink:href="#DejaVuSans-6c"/>
      <use x="149.623047" xlink:href="#DejaVuSans-74"/>
      <use x="188.832031" xlink:href="#DejaVuSans-61"/>
      <use x="250.111328" xlink:href="#DejaVuSans-67"/>
      <use x="313.587891" xlink:href="#DejaVuSans-65"/>
      <use x="375.111328" xlink:href="#DejaVuSans-20"/>
      <use x="406.898438" xlink:href="#DejaVuSans-2f"/>
      <use x="440.589844" xlink:href="#DejaVuSans-20"/>
      <use x="472.376953" xlink:href="#DejaVuSans-56"/>
     </g>
    </g>
   </g>
   <g id="line2d_127">
    <path clip-path="url(#p8b19ba2adc)" d="M 53.155398 66.503811 
L 54.315826 69.124462 
L 55.476253 69.742851 
L 57.797109 70.117075 
L 63.599248 70.671911 
L 96.091227 72.959478 
L 116.978927 74.749256 
L 133.224916 76.439303 
L 141.347911 77.447248 
L 154.112617 79.230697 
L 166.877323 81.455447 
L 171.519034 82.485482 
L 176.160745 83.7572 
L 181.962884 85.595101 
L 187.765023 87.756316 
L 191.246307 89.400322 
L 195.888018 91.917247 
L 199.369301 94.047807 
L 205.171441 98.280325 
L 207.492296 100.207725 
L 208.652724 101.389832 
L 210.97358 104.430124 
L 214.454863 110.062874 
L 217.936146 117.89981 
L 223.738285 133.828834 
L 224.898713 136.841079 
L 226.059141 138.698281 
L 227.219569 142.175769 
L 228.379997 146.648413 
L 229.540424 147.522108 
L 229.541816 181.550469 
L 229.541816 181.550469 
" style="fill:none;stroke:#0c5da5;stroke-linecap:square;"/>
   </g>
   <g id="line2d_128">
    <path clip-path="url(#p8b19ba2adc)" d="M 53.155398 91.351569 
L 54.315826 93.769585 
L 55.476253 94.525753 
L 56.636681 95.102243 
L 64.759676 97.730161 
L 74.043098 99.780918 
L 87.968232 102.122724 
L 116.978927 106.073241 
L 125.101922 107.427857 
L 134.385344 109.291543 
L 137.866628 110.137466 
L 145.989622 112.43501 
L 148.310478 113.226858 
L 155.273045 116.106832 
L 158.754328 117.808541 
L 161.075184 119.176527 
L 164.556467 121.409355 
L 168.037751 124.243972 
L 170.358606 126.363788 
L 173.83989 130.204173 
L 175.000318 131.927508 
L 177.321173 134.806299 
L 179.642029 137.6687 
L 183.123312 142.440549 
L 184.28374 143.945711 
L 187.765023 148.844805 
L 191.246307 153.004619 
L 192.406735 153.981305 
L 193.567162 155.349243 
L 197.048446 158.302421 
L 199.369301 160.564424 
L 204.011013 163.58334 
L 205.171441 163.895129 
L 206.331868 164.423306 
L 213.294435 164.944912 
L 219.096574 166.099003 
L 221.41743 166.319386 
L 226.059141 168.207691 
L 227.219569 172.01952 
L 228.379997 174.687636 
L 229.451577 181.550469 
L 229.451577 181.550469 
" style="fill:none;stroke:#ff9500;stroke-linecap:square;"/>
   </g>
   <g id="line2d_129">
    <path clip-path="url(#p8b19ba2adc)" d="M 53.155398 18.582995 
L 55.476253 30.269525 
L 58.957537 47.217636 
L 60.117965 50.42941 
L 61.278392 52.661698 
L 62.43882 53.874966 
L 63.599248 54.488207 
L 65.920104 55.253205 
L 75.203526 57.131953 
L 84.486949 58.489226 
L 93.770371 59.559605 
L 106.535077 60.791009 
L 145.989622 64.246557 
L 168.037751 66.253574 
L 180.802457 67.613897 
L 188.925451 68.574921 
L 197.048446 69.725187 
L 206.331868 71.427384 
L 212.134007 72.788957 
L 216.775719 74.157445 
L 219.096574 75.041619 
L 221.41743 76.017893 
L 223.738285 77.341449 
L 226.059141 79.120933 
L 227.219569 80.402206 
L 228.379997 82.16398 
L 229.540424 85.305984 
L 229.544353 181.550469 
L 229.544353 181.550469 
" style="fill:none;stroke:#00b945;stroke-linecap:square;"/>
   </g>
   <g id="line2d_130">
    <path clip-path="url(#p8b19ba2adc)" d="M 53.155398 63.905717 
L 55.476253 91.743028 
L 56.636681 97.770524 
L 57.797109 100.947298 
L 58.957537 103.222695 
L 61.278392 106.445804 
L 64.759676 109.880345 
L 67.080531 111.744251 
L 68.240959 112.747783 
L 71.722243 115.120911 
L 72.88267 115.792426 
L 75.203526 117.517318 
L 79.845237 120.12356 
L 81.005665 121.039324 
L 82.166093 121.699316 
L 83.326521 122.516921 
L 89.12866 125.317018 
L 90.289088 126.05424 
L 91.449515 126.408372 
L 92.609943 126.914182 
L 93.770371 127.798362 
L 97.251654 129.581683 
L 98.412082 130.051446 
L 101.893366 131.122312 
L 103.053793 131.553735 
L 105.374649 132.09194 
L 107.695505 132.901893 
L 110.01636 133.627632 
L 111.176788 134.111806 
L 112.337216 134.921226 
L 113.497644 135.047694 
L 115.818499 135.9967 
L 116.978927 136.591166 
L 120.460211 137.30733 
L 121.620638 137.566438 
L 122.781066 138.142492 
L 123.941494 139.446621 
L 126.26235 139.917304 
L 127.422777 140.327292 
L 128.583205 141.367087 
L 129.743633 141.80637 
L 130.904061 143.569813 
L 133.224916 144.386179 
L 134.385344 144.528153 
L 136.7062 145.025999 
L 137.866628 145.623283 
L 141.347911 145.957698 
L 142.508339 146.633554 
L 143.668767 146.976488 
L 145.989622 147.073713 
L 148.310478 147.749424 
L 149.470906 148.184281 
L 150.631334 148.24627 
L 151.791761 148.59676 
L 154.112617 148.775482 
L 155.273045 148.946869 
L 156.433473 149.597135 
L 157.5939 149.713169 
L 159.914756 150.492009 
L 161.075184 150.746017 
L 164.556467 151.047595 
L 165.716895 151.579108 
L 171.519034 152.681354 
L 172.679462 153.299456 
L 173.83989 153.632092 
L 175.000318 154.236641 
L 177.321173 154.389311 
L 178.481601 154.717003 
L 181.962884 155.224241 
L 183.123312 156.126043 
L 184.28374 156.233325 
L 186.604596 156.687573 
L 190.085879 157.20665 
L 191.246307 157.895416 
L 192.406735 158.006443 
L 193.567162 158.692576 
L 194.72759 159.186688 
L 197.048446 159.692474 
L 198.208874 160.186588 
L 199.369301 160.419237 
L 200.529729 161.025318 
L 201.690157 161.839952 
L 202.850585 162.237515 
L 204.011013 163.631932 
L 205.171441 164.343456 
L 206.331868 164.585602 
L 207.492296 164.621855 
L 208.652724 164.952875 
L 209.813152 165.979142 
L 210.97358 166.568153 
L 212.134007 168.106065 
L 213.294435 169.108184 
L 214.454863 169.868396 
L 215.615291 170.078677 
L 216.775719 171.864472 
L 217.936146 172.517169 
L 219.096574 175.071422 
L 220.257002 176.180008 
L 221.41743 176.371471 
L 222.577858 178.243311 
L 223.210287 181.550469 
L 223.210287 181.550469 
" style="fill:none;stroke:#ff2c00;stroke-linecap:square;"/>
   </g>
   <g id="line2d_131">
    <path clip-path="url(#p8b19ba2adc)" d="M 53.155398 37.528066 
L 54.315826 39.634881 
L 55.476253 40.844173 
L 56.636681 41.600139 
L 58.957537 42.44267 
L 61.278392 42.996054 
L 64.759676 43.596775 
L 71.722243 44.56772 
L 76.363954 45.230404 
L 89.12866 47.268884 
L 96.091227 48.700915 
L 104.214221 50.57994 
L 122.781066 54.197249 
L 139.027055 56.910392 
L 169.198178 61.666041 
L 187.765023 65.058375 
L 201.690157 67.958634 
L 208.652724 69.710198 
L 212.134007 70.78666 
L 214.454863 71.679719 
L 217.936146 73.345447 
L 220.257002 74.598655 
L 222.577858 76.116911 
L 223.738285 76.937689 
L 226.059141 79.171062 
L 227.219569 80.9404 
L 228.379997 83.073327 
L 229.540424 87.661107 
L 229.544257 181.550469 
L 229.544257 181.550469 
" style="fill:none;stroke:#845b97;stroke-linecap:square;"/>
   </g>
   <g id="patch_3">
    <path d="M 44.278125 150.094219 
L 44.278125 7.399219 
" style="fill:none;stroke:#000000;stroke-linecap:square;stroke-linejoin:miter;stroke-width:0.5;"/>
   </g>
   <g id="patch_4">
    <path d="M 239.578125 150.094219 
L 239.578125 7.399219 
" style="fill:none;stroke:#000000;stroke-linecap:square;stroke-linejoin:miter;stroke-width:0.5;"/>
   </g>
   <g id="patch_5">
    <path d="M 44.278125 150.094219 
L 239.578125 150.094219 
" style="fill:none;stroke:#000000;stroke-linecap:square;stroke-linejoin:miter;stroke-width:0.5;"/>
   </g>
   <g id="patch_6">
    <path d="M 44.278125 7.399219 
L 239.578125 7.399219 
" style="fill:none;stroke:#000000;stroke-linecap:square;stroke-linejoin:miter;stroke-width:0.5;"/>
   </g>
  </g>
 </g>
 <defs>
  <clipPath id="p8b19ba2adc">
   <rect height="142.695" width="195.3" x="44.278125" y="7.399219"/>
  </clipPath>
 </defs>
</svg>
