<?xml version="1.0" encoding="utf-8" standalone="no"?>
<!DOCTYPE svg PUBLIC "-//W3C//DTD SVG 1.1//EN"
  "http://www.w3.org/Graphics/SVG/1.1/DTD/svg11.dtd">
<svg height="180.550469pt" version="1.1" viewBox="0 0 243.178125 180.550469" width="243.178125pt" xmlns="http://www.w3.org/2000/svg" xmlns:xlink="http://www.w3.org/1999/xlink">
 <metadata>
  <rdf:RDF xmlns:cc="http://creativecommons.org/ns#" xmlns:dc="http://purl.org/dc/elements/1.1/" xmlns:rdf="http://www.w3.org/1999/02/22-rdf-syntax-ns#">
   <cc:Work>
    <dc:type rdf:resource="http://purl.org/dc/dcmitype/StillImage"/>
    <dc:date>2023-04-24T13:39:59.135740</dc:date>
    <dc:format>image/svg+xml</dc:format>
    <dc:creator>
     <cc:Agent>
      <dc:title>Matplotlib v3.4.3, https://matplotlib.org/</dc:title>
     </cc:Agent>
    </dc:creator>
   </cc:Work>
  </rdf:RDF>
 </metadata>
 <defs>
  <style type="text/css">*{stroke-linecap:butt;stroke-linejoin:round;}</style>
 </defs>
 <g id="figure_1">
  <g id="patch_1">
   <path d="M 0 180.550469 
L 243.178125 180.550469 
L 243.178125 0 
L 0 0 
z
" style="fill:none;"/>
  </g>
  <g id="axes_1">
   <g id="patch_2">
    <path d="M 44.278125 150.094219 
L 239.578125 150.094219 
L 239.578125 7.399219 
L 44.278125 7.399219 
z
" style="fill:#ffffff;"/>
   </g>
   <g id="PolyCollection_1">
    <path clip-path="url(#p87a61df8ca)" d="M 53.155398 47.880148 
L 53.155398 54.351253 
L 54.315826 58.458225 
L 55.476253 60.291697 
L 56.636681 60.674532 
L 57.797109 60.902624 
L 58.957537 61.079856 
L 60.117965 61.262689 
L 61.278392 61.435589 
L 62.43882 61.582973 
L 63.599248 61.724387 
L 64.759676 61.963624 
L 65.920104 62.210013 
L 67.080531 62.364999 
L 68.240959 62.542314 
L 69.401387 62.761066 
L 70.561815 62.927107 
L 71.722243 63.230507 
L 72.88267 63.375925 
L 74.043098 63.467179 
L 75.203526 63.606041 
L 76.363954 63.707079 
L 77.524382 63.81483 
L 78.684809 63.911972 
L 79.845237 64.030957 
L 81.005665 64.129071 
L 82.166093 64.278437 
L 83.326521 64.405276 
L 84.486949 64.534169 
L 85.647376 64.620892 
L 86.807804 64.737494 
L 87.968232 64.840282 
L 89.12866 64.930659 
L 90.289088 65.034781 
L 91.449515 65.108826 
L 92.609943 65.20099 
L 93.770371 65.296112 
L 94.930799 65.414328 
L 96.091227 65.569821 
L 97.251654 65.69067 
L 98.412082 65.839496 
L 99.57251 65.929523 
L 100.732938 66.013037 
L 101.893366 66.112536 
L 103.053793 66.263809 
L 104.214221 66.371684 
L 105.374649 66.471449 
L 106.535077 66.594755 
L 107.695505 66.689722 
L 108.855932 66.792358 
L 110.01636 66.922387 
L 111.176788 67.038734 
L 112.337216 67.137894 
L 113.497644 67.274662 
L 114.658072 67.430519 
L 115.818499 67.553444 
L 116.978927 67.670958 
L 118.139355 67.770729 
L 119.299783 67.898824 
L 120.460211 68.005586 
L 121.620638 68.125183 
L 122.781066 68.253484 
L 123.941494 68.344218 
L 125.101922 68.438338 
L 126.26235 68.589839 
L 127.422777 68.681493 
L 128.583205 68.776128 
L 129.743633 68.877038 
L 130.904061 69.009038 
L 132.064489 69.164554 
L 133.224916 69.309518 
L 134.385344 69.449102 
L 135.545772 69.548067 
L 136.7062 69.659122 
L 137.866628 69.815154 
L 139.027055 69.923391 
L 140.187483 70.111462 
L 141.347911 70.228821 
L 142.508339 70.340297 
L 143.668767 70.437106 
L 144.829195 70.559482 
L 145.989622 70.711405 
L 147.15005 70.844863 
L 148.310478 71.033152 
L 149.470906 71.187036 
L 150.631334 71.32165 
L 151.791761 71.459886 
L 152.952189 71.592043 
L 154.112617 71.711243 
L 155.273045 71.875041 
L 156.433473 72.048407 
L 157.5939 72.209654 
L 158.754328 72.387331 
L 159.914756 72.513191 
L 161.075184 72.652811 
L 162.235612 72.796305 
L 163.396039 72.935921 
L 164.556467 73.081289 
L 165.716895 73.226133 
L 166.877323 73.41816 
L 168.037751 73.563457 
L 169.198178 73.702814 
L 170.358606 73.876617 
L 171.519034 74.054884 
L 172.679462 74.196131 
L 173.83989 74.356482 
L 175.000318 74.515095 
L 176.160745 74.67909 
L 177.321173 74.797563 
L 178.481601 74.914878 
L 179.642029 75.094242 
L 180.802457 75.2468 
L 181.962884 75.414452 
L 183.123312 75.564474 
L 184.28374 75.694899 
L 185.444168 75.835122 
L 186.604596 75.966425 
L 187.765023 76.112589 
L 188.925451 76.292781 
L 190.085879 76.408554 
L 191.246307 76.536832 
L 192.406735 76.707255 
L 193.567162 76.815702 
L 194.72759 76.941571 
L 195.888018 77.052284 
L 197.048446 77.177218 
L 198.208874 77.308609 
L 199.369301 77.462417 
L 200.529729 77.592652 
L 201.690157 77.754092 
L 202.850585 77.877604 
L 204.011013 78.052456 
L 205.171441 78.16456 
L 206.331868 78.272054 
L 207.492296 78.414777 
L 208.652724 78.527241 
L 209.813152 78.680153 
L 210.97358 78.853448 
L 212.134007 78.954387 
L 213.294435 79.132293 
L 214.454863 79.390144 
L 215.615291 79.558746 
L 216.775719 79.745079 
L 217.936146 79.831918 
L 219.096574 80.19097 
L 220.257002 80.538767 
L 221.41743 80.677537 
L 222.577858 80.775318 
L 223.738285 84.124456 
L 224.898713 87.252857 
L 226.059141 90.419558 
L 227.219569 120.277932 
L 228.379997 121.070033 
L 229.540424 1719.46508 
L 230.700852 28517.860219 
L 230.700852 28517.860219 
L 230.700852 28517.860219 
L 229.540424 726.557823 
L 228.379997 113.548352 
L 227.219569 104.993668 
L 226.059141 81.844736 
L 224.898713 78.250825 
L 223.738285 75.358878 
L 222.577858 72.783648 
L 221.41743 72.582136 
L 220.257002 72.180587 
L 219.096574 71.917832 
L 217.936146 71.694611 
L 216.775719 71.49526 
L 215.615291 71.280952 
L 214.454863 71.064013 
L 213.294435 70.828981 
L 212.134007 70.626897 
L 210.97358 70.381804 
L 209.813152 70.169424 
L 208.652724 69.959499 
L 207.492296 69.756624 
L 206.331868 69.552067 
L 205.171441 69.336031 
L 204.011013 69.177712 
L 202.850585 69.004759 
L 201.690157 68.78646 
L 200.529729 68.604091 
L 199.369301 68.423717 
L 198.208874 68.27415 
L 197.048446 68.129791 
L 195.888018 67.927088 
L 194.72759 67.749797 
L 193.567162 67.587992 
L 192.406735 67.444449 
L 191.246307 67.262452 
L 190.085879 67.083734 
L 188.925451 66.927477 
L 187.765023 66.7788 
L 186.604596 66.642596 
L 185.444168 66.429475 
L 184.28374 66.273829 
L 183.123312 66.094563 
L 181.962884 65.943679 
L 180.802457 65.812081 
L 179.642029 65.630722 
L 178.481601 65.466823 
L 177.321173 65.291308 
L 176.160745 65.141209 
L 175.000318 65.008971 
L 173.83989 64.879007 
L 172.679462 64.747919 
L 171.519034 64.654917 
L 170.358606 64.543468 
L 169.198178 64.407154 
L 168.037751 64.278174 
L 166.877323 64.190513 
L 165.716895 64.079694 
L 164.556467 63.959499 
L 163.396039 63.850018 
L 162.235612 63.739605 
L 161.075184 63.620332 
L 159.914756 63.507278 
L 158.754328 63.412109 
L 157.5939 63.298157 
L 156.433473 63.211851 
L 155.273045 63.090018 
L 154.112617 62.986796 
L 152.952189 62.883676 
L 151.791761 62.777025 
L 150.631334 62.677276 
L 149.470906 62.579242 
L 148.310478 62.466035 
L 147.15005 62.362833 
L 145.989622 62.28839 
L 144.829195 62.180274 
L 143.668767 62.08453 
L 142.508339 61.988869 
L 141.347911 61.900708 
L 140.187483 61.822832 
L 139.027055 61.73357 
L 137.866628 61.664105 
L 136.7062 61.592395 
L 135.545772 61.506023 
L 134.385344 61.438708 
L 133.224916 61.341474 
L 132.064489 61.241219 
L 130.904061 61.126328 
L 129.743633 61.041613 
L 128.583205 60.958614 
L 127.422777 60.883188 
L 126.26235 60.813065 
L 125.101922 60.727554 
L 123.941494 60.663273 
L 122.781066 60.580576 
L 121.620638 60.510034 
L 120.460211 60.393088 
L 119.299783 60.328682 
L 118.139355 60.222091 
L 116.978927 60.155742 
L 115.818499 60.087261 
L 114.658072 60.017383 
L 113.497644 59.919632 
L 112.337216 59.797019 
L 111.176788 59.733965 
L 110.01636 59.647223 
L 108.855932 59.559919 
L 107.695505 59.47499 
L 106.535077 59.416727 
L 105.374649 59.345199 
L 104.214221 59.224003 
L 103.053793 59.138677 
L 101.893366 59.056188 
L 100.732938 58.965582 
L 99.57251 58.894375 
L 98.412082 58.811825 
L 97.251654 58.746543 
L 96.091227 58.677323 
L 94.930799 58.584137 
L 93.770371 58.472895 
L 92.609943 58.403324 
L 91.449515 58.319731 
L 90.289088 58.25065 
L 89.12866 58.196126 
L 87.968232 58.11855 
L 86.807804 58.065761 
L 85.647376 57.968207 
L 84.486949 57.878261 
L 83.326521 57.767215 
L 82.166093 57.64355 
L 81.005665 57.517602 
L 79.845237 57.452692 
L 78.684809 57.340482 
L 77.524382 57.240253 
L 76.363954 57.158095 
L 75.203526 57.056585 
L 74.043098 56.916898 
L 72.88267 56.843262 
L 71.722243 56.768947 
L 70.561815 56.558301 
L 69.401387 56.443735 
L 68.240959 56.286855 
L 67.080531 56.115654 
L 65.920104 55.990782 
L 64.759676 55.795254 
L 63.599248 55.645282 
L 62.43882 55.508491 
L 61.278392 55.416631 
L 60.117965 55.285199 
L 58.957537 55.119019 
L 57.797109 54.887805 
L 56.636681 54.669277 
L 55.476253 54.099143 
L 54.315826 52.47264 
L 53.155398 47.880148 
z
" style="fill:#0c5da5;fill-opacity:0.15;"/>
   </g>
   <g id="PolyCollection_2">
    <path clip-path="url(#p87a61df8ca)" d="M 53.155398 70.475376 
L 53.155398 79.366074 
L 54.315826 81.41331 
L 55.476253 84.772776 
L 56.636681 86.276043 
L 57.797109 88.56291 
L 58.957537 90.196843 
L 60.117965 91.533531 
L 61.278392 93.076955 
L 62.43882 94.254684 
L 63.599248 94.919715 
L 64.759676 95.632631 
L 65.920104 96.287834 
L 67.080531 97.280495 
L 68.240959 97.599275 
L 69.401387 98.691767 
L 70.561815 99.534569 
L 71.722243 101.23426 
L 72.88267 102.156651 
L 74.043098 103.31926 
L 75.203526 103.870016 
L 76.363954 104.444523 
L 77.524382 105.227383 
L 78.684809 105.914156 
L 79.845237 106.687496 
L 81.005665 107.649322 
L 82.166093 108.521706 
L 83.326521 109.46873 
L 84.486949 110.130989 
L 85.647376 111.45496 
L 86.807804 111.981012 
L 87.968232 112.809902 
L 89.12866 113.497111 
L 90.289088 114.648927 
L 91.449515 115.246798 
L 92.609943 115.778201 
L 93.770371 116.242517 
L 94.930799 116.611845 
L 96.091227 117.061063 
L 97.251654 117.474774 
L 98.412082 118.002382 
L 99.57251 118.434988 
L 100.732938 118.842604 
L 101.893366 119.259698 
L 103.053793 119.721259 
L 104.214221 120.146961 
L 105.374649 120.502122 
L 106.535077 120.991827 
L 107.695505 121.380482 
L 108.855932 121.809266 
L 110.01636 122.357743 
L 111.176788 122.787632 
L 112.337216 123.289812 
L 113.497644 123.812586 
L 114.658072 124.339329 
L 115.818499 124.869273 
L 116.978927 125.431614 
L 118.139355 125.980013 
L 119.299783 126.469626 
L 120.460211 126.9907 
L 121.620638 127.570914 
L 122.781066 128.12645 
L 123.941494 128.668086 
L 125.101922 129.281407 
L 126.26235 129.997826 
L 127.422777 130.573912 
L 128.583205 131.232147 
L 129.743633 131.952927 
L 130.904061 132.533682 
L 132.064489 133.041514 
L 133.224916 133.707101 
L 134.385344 134.337541 
L 135.545772 135.042901 
L 136.7062 135.625302 
L 137.866628 136.466065 
L 139.027055 137.339277 
L 140.187483 137.976209 
L 141.347911 138.77919 
L 142.508339 139.89449 
L 143.668767 140.781551 
L 144.829195 141.643542 
L 145.989622 142.468275 
L 147.15005 143.74988 
L 148.310478 144.577106 
L 149.470906 145.781856 
L 150.631334 146.850003 
L 151.791761 147.717728 
L 152.952189 148.423302 
L 154.112617 150.065463 
L 155.273045 151.011932 
L 156.433473 151.905591 
L 157.5939 153.234621 
L 158.754328 154.19555 
L 159.914756 155.460042 
L 161.075184 156.324276 
L 162.235612 157.687244 
L 163.396039 158.95064 
L 164.556467 160.027567 
L 165.716895 161.331071 
L 166.877323 162.598473 
L 168.037751 163.741814 
L 169.198178 164.624838 
L 170.358606 166.688453 
L 171.519034 169.598706 
L 172.679462 170.224047 
L 173.83989 171.760415 
L 175.000318 173.096804 
L 176.160745 175.870178 
L 177.321173 178.111499 
L 178.481601 182.086252 
L 179.642029 184.122001 
L 180.802457 188.529108 
L 181.962884 197.510341 
L 183.123312 205.410775 
L 184.28374 213.313426 
L 185.444168 218.291322 
L 186.604596 222.787956 
L 187.765023 226.240267 
L 188.925451 228.081932 
L 190.085879 230.890536 
L 191.246307 235.650582 
L 192.406735 265.37771 
L 193.567162 281.094551 
L 194.72759 286.907825 
L 195.888018 290.681885 
L 197.048446 297.237528 
L 198.208874 319.53346 
L 199.369301 322.202706 
L 200.529729 331.171219 
L 201.690157 350.61201 
L 202.850585 355.331811 
L 204.011013 357.187978 
L 205.171441 364.189892 
L 206.331868 392.048251 
L 207.492296 400.506002 
L 208.652724 409.180216 
L 209.813152 429.920567 
L 210.97358 442.907014 
L 212.134007 453.298647 
L 213.294435 456.981691 
L 214.454863 462.963933 
L 215.615291 486.803805 
L 216.775719 500.270547 
L 217.936146 507.660596 
L 219.096574 514.32899 
L 220.257002 520.852804 
L 221.41743 529.988598 
L 222.577858 533.883342 
L 223.738285 538.529708 
L 224.898713 542.347218 
L 226.059141 545.651211 
L 227.219569 632.336723 
L 228.379997 778.412001 
L 229.540424 2206.956559 
L 230.700852 28517.860219 
L 230.700852 28517.860219 
L 230.700852 28517.860219 
L 229.540424 1510.453946 
L 228.379997 572.391722 
L 227.219569 513.023331 
L 226.059141 427.336894 
L 224.898713 397.244556 
L 223.738285 358.159727 
L 222.577858 340.878763 
L 221.41743 330.111007 
L 220.257002 325.099493 
L 219.096574 307.264418 
L 217.936146 302.839691 
L 216.775719 285.763717 
L 215.615291 242.338416 
L 214.454863 230.246749 
L 213.294435 227.651956 
L 212.134007 222.529284 
L 210.97358 199.402051 
L 209.813152 192.083475 
L 208.652724 185.524414 
L 207.492296 180.368981 
L 206.331868 174.438301 
L 205.171441 171.588502 
L 204.011013 167.669489 
L 202.850585 165.013122 
L 201.690157 161.263837 
L 200.529729 158.757648 
L 199.369301 154.918207 
L 198.208874 151.74475 
L 197.048446 149.74312 
L 195.888018 148.225652 
L 194.72759 146.505545 
L 193.567162 145.051057 
L 192.406735 143.669885 
L 191.246307 142.560709 
L 190.085879 141.374922 
L 188.925451 139.94526 
L 187.765023 138.71673 
L 186.604596 137.446995 
L 185.444168 136.244578 
L 184.28374 135.251678 
L 183.123312 134.170069 
L 181.962884 133.168595 
L 180.802457 131.987849 
L 179.642029 130.610175 
L 178.481601 129.666957 
L 177.321173 128.594739 
L 176.160745 127.792226 
L 175.000318 126.789506 
L 173.83989 126.025391 
L 172.679462 125.019341 
L 171.519034 124.334825 
L 170.358606 123.674267 
L 169.198178 122.959207 
L 168.037751 122.164342 
L 166.877323 121.368887 
L 165.716895 120.641295 
L 164.556467 119.851621 
L 163.396039 119.099467 
L 162.235612 118.465808 
L 161.075184 117.878837 
L 159.914756 117.241005 
L 158.754328 116.63989 
L 157.5939 116.086716 
L 156.433473 115.62063 
L 155.273045 115.15953 
L 154.112617 114.744713 
L 152.952189 114.34623 
L 151.791761 113.937831 
L 150.631334 113.532127 
L 149.470906 113.163435 
L 148.310478 112.830301 
L 147.15005 112.470031 
L 145.989622 112.08271 
L 144.829195 111.73044 
L 143.668767 111.40649 
L 142.508339 111.053817 
L 141.347911 110.744799 
L 140.187483 110.474136 
L 139.027055 110.182221 
L 137.866628 109.884907 
L 136.7062 109.639377 
L 135.545772 109.352386 
L 134.385344 109.087624 
L 133.224916 108.838811 
L 132.064489 108.625898 
L 130.904061 108.419796 
L 129.743633 108.14821 
L 128.583205 107.955006 
L 127.422777 107.687578 
L 126.26235 107.471134 
L 125.101922 107.255976 
L 123.941494 107.050296 
L 122.781066 106.840867 
L 121.620638 106.61181 
L 120.460211 106.421006 
L 119.299783 106.233855 
L 118.139355 106.007892 
L 116.978927 105.79586 
L 115.818499 105.616412 
L 114.658072 105.453776 
L 113.497644 105.273275 
L 112.337216 105.076297 
L 111.176788 104.909279 
L 110.01636 104.749045 
L 108.855932 104.5906 
L 107.695505 104.410743 
L 106.535077 104.218346 
L 105.374649 104.066221 
L 104.214221 103.892867 
L 103.053793 103.737361 
L 101.893366 103.559567 
L 100.732938 103.360822 
L 99.57251 103.109217 
L 98.412082 102.922925 
L 97.251654 102.602689 
L 96.091227 102.286581 
L 94.930799 101.935153 
L 93.770371 101.579836 
L 92.609943 101.20388 
L 91.449515 100.218744 
L 90.289088 99.083515 
L 89.12866 98.696554 
L 87.968232 98.205613 
L 86.807804 97.701092 
L 85.647376 97.276931 
L 84.486949 96.954442 
L 83.326521 96.669063 
L 82.166093 95.97482 
L 81.005665 95.23014 
L 79.845237 94.886753 
L 78.684809 94.048554 
L 77.524382 93.54183 
L 76.363954 92.933714 
L 75.203526 92.568071 
L 74.043098 92.040834 
L 72.88267 91.367215 
L 71.722243 90.483016 
L 70.561815 89.99926 
L 69.401387 89.667935 
L 68.240959 89.038679 
L 67.080531 88.661267 
L 65.920104 88.077107 
L 64.759676 87.343886 
L 63.599248 86.631973 
L 62.43882 85.881538 
L 61.278392 85.01479 
L 60.117965 83.806131 
L 58.957537 82.738051 
L 57.797109 81.072188 
L 56.636681 79.655191 
L 55.476253 78.038236 
L 54.315826 75.177932 
L 53.155398 70.475376 
z
" style="fill:#ff9500;fill-opacity:0.15;"/>
   </g>
   <g id="PolyCollection_3">
    <path clip-path="url(#p87a61df8ca)" d="M 53.155398 7.274531 
L 53.155398 10.621827 
L 54.315826 17.22158 
L 55.476253 22.909323 
L 56.636681 29.377592 
L 57.797109 34.108554 
L 58.957537 38.208522 
L 60.117965 40.516626 
L 61.278392 42.854227 
L 62.43882 44.145311 
L 63.599248 44.841445 
L 64.759676 45.364454 
L 65.920104 46.032586 
L 67.080531 46.937068 
L 68.240959 47.365796 
L 69.401387 47.74616 
L 70.561815 47.969714 
L 71.722243 48.240079 
L 72.88267 48.471258 
L 74.043098 48.69953 
L 75.203526 48.922231 
L 76.363954 49.095812 
L 77.524382 49.26697 
L 78.684809 49.499619 
L 79.845237 49.684445 
L 81.005665 49.863695 
L 82.166093 49.997755 
L 83.326521 50.156198 
L 84.486949 50.312879 
L 85.647376 50.453416 
L 86.807804 50.612276 
L 87.968232 50.781224 
L 89.12866 50.951863 
L 90.289088 51.099447 
L 91.449515 51.227642 
L 92.609943 51.364573 
L 93.770371 51.491701 
L 94.930799 51.62775 
L 96.091227 51.756418 
L 97.251654 51.858853 
L 98.412082 51.965718 
L 99.57251 52.094613 
L 100.732938 52.210862 
L 101.893366 52.317507 
L 103.053793 52.430646 
L 104.214221 52.549143 
L 105.374649 52.655353 
L 106.535077 52.751024 
L 107.695505 52.870054 
L 108.855932 52.966001 
L 110.01636 53.073838 
L 111.176788 53.172505 
L 112.337216 53.285153 
L 113.497644 53.43077 
L 114.658072 53.552862 
L 115.818499 53.666008 
L 116.978927 53.774746 
L 118.139355 53.890357 
L 119.299783 53.997608 
L 120.460211 54.111753 
L 121.620638 54.224266 
L 122.781066 54.331714 
L 123.941494 54.438765 
L 125.101922 54.561643 
L 126.26235 54.674983 
L 127.422777 54.802758 
L 128.583205 54.908539 
L 129.743633 55.024755 
L 130.904061 55.137119 
L 132.064489 55.257629 
L 133.224916 55.383092 
L 134.385344 55.485705 
L 135.545772 55.591747 
L 136.7062 55.695543 
L 137.866628 55.801431 
L 139.027055 55.9064 
L 140.187483 56.008724 
L 141.347911 56.110537 
L 142.508339 56.20898 
L 143.668767 56.317873 
L 144.829195 56.423009 
L 145.989622 56.527962 
L 147.15005 56.629523 
L 148.310478 56.736513 
L 149.470906 56.842075 
L 150.631334 56.940755 
L 151.791761 57.031983 
L 152.952189 57.140296 
L 154.112617 57.240671 
L 155.273045 57.333029 
L 156.433473 57.43641 
L 157.5939 57.540097 
L 158.754328 57.659063 
L 159.914756 57.768826 
L 161.075184 57.882628 
L 162.235612 57.984926 
L 163.396039 58.081393 
L 164.556467 58.185976 
L 165.716895 58.291844 
L 166.877323 58.399642 
L 168.037751 58.52535 
L 169.198178 58.647688 
L 170.358606 58.762195 
L 171.519034 58.890771 
L 172.679462 59.01816 
L 173.83989 59.166244 
L 175.000318 59.298683 
L 176.160745 59.429489 
L 177.321173 59.557623 
L 178.481601 59.703579 
L 179.642029 59.81881 
L 180.802457 59.934084 
L 181.962884 60.081511 
L 183.123312 60.215618 
L 184.28374 60.330963 
L 185.444168 60.483229 
L 186.604596 60.650661 
L 187.765023 60.783745 
L 188.925451 60.929326 
L 190.085879 61.075436 
L 191.246307 61.221877 
L 192.406735 61.383027 
L 193.567162 61.545293 
L 194.72759 61.703673 
L 195.888018 61.855082 
L 197.048446 62.037768 
L 198.208874 62.218736 
L 199.369301 62.405424 
L 200.529729 62.659821 
L 201.690157 62.867024 
L 202.850585 63.031009 
L 204.011013 63.25992 
L 205.171441 63.471814 
L 206.331868 63.736857 
L 207.492296 63.950659 
L 208.652724 64.164396 
L 209.813152 64.44093 
L 210.97358 64.687929 
L 212.134007 64.945472 
L 213.294435 65.246033 
L 214.454863 65.530903 
L 215.615291 65.824039 
L 216.775719 66.209618 
L 217.936146 66.584154 
L 219.096574 66.986703 
L 220.257002 67.400587 
L 221.41743 67.916823 
L 222.577858 68.5131 
L 223.738285 69.325931 
L 224.898713 70.503468 
L 226.059141 72.174921 
L 227.219569 74.254366 
L 228.379997 80.935609 
L 229.540424 143.642972 
L 230.700852 28517.860219 
L 230.700852 28517.860219 
L 230.700852 28517.860219 
L 229.540424 140.706037 
L 228.379997 77.720832 
L 227.219569 71.232462 
L 226.059141 69.279154 
L 224.898713 67.678964 
L 223.738285 66.536962 
L 222.577858 65.80031 
L 221.41743 65.130241 
L 220.257002 64.65208 
L 219.096574 64.252017 
L 217.936146 63.865673 
L 216.775719 63.500011 
L 215.615291 63.101639 
L 214.454863 62.802077 
L 213.294435 62.506035 
L 212.134007 62.207109 
L 210.97358 61.927261 
L 209.813152 61.653792 
L 208.652724 61.383116 
L 207.492296 61.127757 
L 206.331868 60.897904 
L 205.171441 60.691966 
L 204.011013 60.429389 
L 202.850585 60.216107 
L 201.690157 59.997543 
L 200.529729 59.78663 
L 199.369301 59.577066 
L 198.208874 59.393776 
L 197.048446 59.185021 
L 195.888018 58.985533 
L 194.72759 58.797359 
L 193.567162 58.619716 
L 192.406735 58.463666 
L 191.246307 58.325076 
L 190.085879 58.174473 
L 188.925451 58.013356 
L 187.765023 57.855666 
L 186.604596 57.707922 
L 185.444168 57.570722 
L 184.28374 57.429952 
L 183.123312 57.299373 
L 181.962884 57.135315 
L 180.802457 57.002883 
L 179.642029 56.857049 
L 178.481601 56.734929 
L 177.321173 56.602219 
L 176.160745 56.471504 
L 175.000318 56.369629 
L 173.83989 56.236184 
L 172.679462 56.098823 
L 171.519034 55.967896 
L 170.358606 55.824408 
L 169.198178 55.659269 
L 168.037751 55.53863 
L 166.877323 55.406567 
L 165.716895 55.304297 
L 164.556467 55.197896 
L 163.396039 55.083253 
L 162.235612 54.972664 
L 161.075184 54.866883 
L 159.914756 54.749449 
L 158.754328 54.635564 
L 157.5939 54.501633 
L 156.433473 54.371103 
L 155.273045 54.272718 
L 154.112617 54.172919 
L 152.952189 54.072565 
L 151.791761 53.97403 
L 150.631334 53.859762 
L 149.470906 53.753068 
L 148.310478 53.66639 
L 147.15005 53.557697 
L 145.989622 53.466352 
L 144.829195 53.361321 
L 143.668767 53.26021 
L 142.508339 53.136962 
L 141.347911 53.031067 
L 140.187483 52.947472 
L 139.027055 52.832708 
L 137.866628 52.734759 
L 136.7062 52.626955 
L 135.545772 52.516234 
L 134.385344 52.421037 
L 133.224916 52.313276 
L 132.064489 52.19538 
L 130.904061 52.082022 
L 129.743633 51.990429 
L 128.583205 51.882129 
L 127.422777 51.770625 
L 126.26235 51.641364 
L 125.101922 51.542991 
L 123.941494 51.398726 
L 122.781066 51.288044 
L 121.620638 51.163771 
L 120.460211 51.066125 
L 119.299783 50.95117 
L 118.139355 50.822613 
L 116.978927 50.706368 
L 115.818499 50.583979 
L 114.658072 50.475486 
L 113.497644 50.362451 
L 112.337216 50.234171 
L 111.176788 50.120517 
L 110.01636 50.021384 
L 108.855932 49.908445 
L 107.695505 49.787849 
L 106.535077 49.678722 
L 105.374649 49.574877 
L 104.214221 49.459768 
L 103.053793 49.328759 
L 101.893366 49.212479 
L 100.732938 49.109427 
L 99.57251 48.989079 
L 98.412082 48.885294 
L 97.251654 48.760189 
L 96.091227 48.647408 
L 94.930799 48.522509 
L 93.770371 48.406479 
L 92.609943 48.26636 
L 91.449515 48.122598 
L 90.289088 48.012117 
L 89.12866 47.882881 
L 87.968232 47.719344 
L 86.807804 47.566702 
L 85.647376 47.42486 
L 84.486949 47.300277 
L 83.326521 47.147308 
L 82.166093 46.985592 
L 81.005665 46.842176 
L 79.845237 46.640158 
L 78.684809 46.452682 
L 77.524382 46.250541 
L 76.363954 46.078646 
L 75.203526 45.888997 
L 74.043098 45.678859 
L 72.88267 45.454932 
L 71.722243 45.231286 
L 70.561815 44.953406 
L 69.401387 44.674048 
L 68.240959 44.288761 
L 67.080531 43.805614 
L 65.920104 43.01011 
L 64.759676 42.458361 
L 63.599248 41.876944 
L 62.43882 41.19401 
L 61.278392 39.595645 
L 60.117965 37.451031 
L 58.957537 34.957341 
L 57.797109 30.869038 
L 56.636681 26.151286 
L 55.476253 19.503263 
L 54.315826 13.8099 
L 53.155398 7.274531 
z
" style="fill:#00b945;fill-opacity:0.15;"/>
   </g>
   <g id="PolyCollection_4">
    <path clip-path="url(#p87a61df8ca)" d="M 53.155398 46.206151 
L 53.155398 53.320164 
L 54.315826 66.47992 
L 55.476253 76.775465 
L 56.636681 81.218015 
L 57.797109 84.129741 
L 58.957537 85.564175 
L 60.117965 86.632128 
L 61.278392 87.553554 
L 62.43882 88.428321 
L 63.599248 89.105064 
L 64.759676 89.704462 
L 65.920104 90.358757 
L 67.080531 90.835613 
L 68.240959 91.446592 
L 69.401387 92.126198 
L 70.561815 92.691194 
L 71.722243 93.313044 
L 72.88267 93.738893 
L 74.043098 94.209311 
L 75.203526 94.62389 
L 76.363954 95.08033 
L 77.524382 95.569124 
L 78.684809 96.029192 
L 79.845237 96.378967 
L 81.005665 97.029937 
L 82.166093 97.800724 
L 83.326521 98.538582 
L 84.486949 99.44665 
L 85.647376 99.849756 
L 86.807804 100.367983 
L 87.968232 101.323018 
L 89.12866 101.796478 
L 90.289088 102.113638 
L 91.449515 102.743717 
L 92.609943 103.316297 
L 93.770371 103.728855 
L 94.930799 104.356099 
L 96.091227 104.940009 
L 97.251654 105.316798 
L 98.412082 105.852356 
L 99.57251 106.587095 
L 100.732938 106.934289 
L 101.893366 107.823384 
L 103.053793 108.233959 
L 104.214221 108.77482 
L 105.374649 109.297147 
L 106.535077 109.729194 
L 107.695505 109.975401 
L 108.855932 110.428625 
L 110.01636 111.453732 
L 111.176788 112.32158 
L 112.337216 112.613939 
L 113.497644 112.966091 
L 114.658072 114.225094 
L 115.818499 115.128486 
L 116.978927 115.813907 
L 118.139355 117.145398 
L 119.299783 117.529765 
L 120.460211 117.990175 
L 121.620638 119.014365 
L 122.781066 119.520958 
L 123.941494 119.785305 
L 125.101922 120.732542 
L 126.26235 121.236311 
L 127.422777 121.697725 
L 128.583205 122.356089 
L 129.743633 122.932789 
L 130.904061 123.570573 
L 132.064489 123.993342 
L 133.224916 124.367739 
L 134.385344 124.709248 
L 135.545772 125.055152 
L 136.7062 126.178431 
L 137.866628 127.162324 
L 139.027055 127.862528 
L 140.187483 128.129579 
L 141.347911 128.617579 
L 142.508339 128.886476 
L 143.668767 129.359568 
L 144.829195 129.619574 
L 145.989622 130.067144 
L 147.15005 131.13708 
L 148.310478 132.48098 
L 149.470906 132.656384 
L 150.631334 133.269915 
L 151.791761 133.406805 
L 152.952189 133.6607 
L 154.112617 133.795301 
L 155.273045 135.045286 
L 156.433473 135.365481 
L 157.5939 135.426708 
L 158.754328 135.969664 
L 159.914756 135.99785 
L 161.075184 136.308613 
L 162.235612 136.351568 
L 163.396039 136.521587 
L 164.556467 136.892634 
L 165.716895 137.143747 
L 166.877323 137.566376 
L 168.037751 137.733909 
L 169.198178 138.260338 
L 170.358606 139.030815 
L 171.519034 139.039806 
L 172.679462 139.482526 
L 173.83989 139.538117 
L 175.000318 139.653649 
L 176.160745 140.105423 
L 177.321173 140.579633 
L 178.481601 140.715339 
L 179.642029 140.804279 
L 180.802457 140.86354 
L 181.962884 141.081422 
L 183.123312 141.469233 
L 184.28374 141.550502 
L 185.444168 142.506014 
L 186.604596 142.515708 
L 187.765023 142.626331 
L 188.925451 142.68304 
L 190.085879 143.025229 
L 191.246307 143.356464 
L 192.406735 145.313397 
L 193.567162 146.340763 
L 194.72759 146.375264 
L 195.888018 146.467917 
L 197.048446 146.905498 
L 198.208874 148.509207 
L 199.369301 148.518036 
L 200.529729 148.867252 
L 201.690157 149.698013 
L 202.850585 150.888302 
L 204.011013 152.007107 
L 205.171441 152.312233 
L 206.331868 152.384638 
L 207.492296 153.177009 
L 208.652724 153.452469 
L 209.813152 153.531887 
L 210.97358 153.532535 
L 212.134007 153.79491 
L 213.294435 154.088483 
L 214.454863 154.60703 
L 215.615291 156.917375 
L 216.775719 157.819986 
L 217.936146 165.296287 
L 219.096574 165.590444 
L 220.257002 167.494263 
L 221.41743 167.792993 
L 222.577858 169.531792 
L 223.738285 172.055277 
L 224.898713 172.592505 
L 226.059141 173.247418 
L 227.219569 222.889872 
L 228.379997 226.632385 
L 229.540424 1881.444653 
L 230.700852 28517.860219 
L 230.700852 28517.860219 
L 230.700852 28517.860219 
L 229.540424 1486.896159 
L 228.379997 139.363571 
L 227.219569 137.829477 
L 226.059141 136.287277 
L 224.898713 134.302867 
L 223.738285 132.171175 
L 222.577858 131.614508 
L 221.41743 131.336986 
L 220.257002 130.809344 
L 219.096574 130.403011 
L 217.936146 130.284567 
L 216.775719 129.908668 
L 215.615291 129.659447 
L 214.454863 129.241211 
L 213.294435 129.015742 
L 212.134007 128.741073 
L 210.97358 128.354226 
L 209.813152 127.94059 
L 208.652724 127.711279 
L 207.492296 127.254852 
L 206.331868 126.96868 
L 205.171441 126.675826 
L 204.011013 126.577894 
L 202.850585 126.43599 
L 201.690157 126.303441 
L 200.529729 126.081234 
L 199.369301 125.9482 
L 198.208874 125.363032 
L 197.048446 124.703498 
L 195.888018 124.402321 
L 194.72759 124.13204 
L 193.567162 123.886448 
L 192.406735 123.407586 
L 191.246307 123.105521 
L 190.085879 122.738952 
L 188.925451 122.408733 
L 187.765023 122.107895 
L 186.604596 121.763457 
L 185.444168 121.0463 
L 184.28374 120.728178 
L 183.123312 120.280957 
L 181.962884 119.987405 
L 180.802457 119.675083 
L 179.642029 119.160049 
L 178.481601 118.62749 
L 177.321173 118.38529 
L 176.160745 118.209579 
L 175.000318 117.830839 
L 173.83989 117.511256 
L 172.679462 117.146936 
L 171.519034 116.926061 
L 170.358606 116.285984 
L 169.198178 116.172716 
L 168.037751 115.729845 
L 166.877323 115.428605 
L 165.716895 115.230424 
L 164.556467 114.702364 
L 163.396039 114.170947 
L 162.235612 113.192645 
L 161.075184 112.8598 
L 159.914756 112.530131 
L 158.754328 112.122964 
L 157.5939 111.764724 
L 156.433473 111.145876 
L 155.273045 110.715048 
L 154.112617 110.352003 
L 152.952189 109.937064 
L 151.791761 109.404035 
L 150.631334 108.936236 
L 149.470906 108.498328 
L 148.310478 107.990745 
L 147.15005 107.298819 
L 145.989622 106.954097 
L 144.829195 106.469862 
L 143.668767 105.598703 
L 142.508339 104.981834 
L 141.347911 104.171205 
L 140.187483 103.60606 
L 139.027055 103.080755 
L 137.866628 102.901517 
L 136.7062 102.483199 
L 135.545772 102.179631 
L 134.385344 101.634472 
L 133.224916 101.068616 
L 132.064489 100.315419 
L 130.904061 100.001644 
L 129.743633 99.630916 
L 128.583205 99.29612 
L 127.422777 99.039174 
L 126.26235 98.619369 
L 125.101922 98.328138 
L 123.941494 97.917468 
L 122.781066 97.541892 
L 121.620638 97.245735 
L 120.460211 96.874007 
L 119.299783 96.423803 
L 118.139355 96.026533 
L 116.978927 95.551566 
L 115.818499 95.294094 
L 114.658072 95.087916 
L 113.497644 94.777523 
L 112.337216 94.36284 
L 111.176788 93.96399 
L 110.01636 93.670061 
L 108.855932 93.332457 
L 107.695505 93.021268 
L 106.535077 92.645385 
L 105.374649 92.385288 
L 104.214221 91.941578 
L 103.053793 91.643384 
L 101.893366 91.262618 
L 100.732938 90.916545 
L 99.57251 90.566884 
L 98.412082 90.132251 
L 97.251654 89.844846 
L 96.091227 89.599347 
L 94.930799 89.133582 
L 93.770371 88.746412 
L 92.609943 88.471152 
L 91.449515 88.102307 
L 90.289088 87.64519 
L 89.12866 87.261072 
L 87.968232 86.811331 
L 86.807804 86.531136 
L 85.647376 86.134083 
L 84.486949 85.740753 
L 83.326521 85.265446 
L 82.166093 84.90088 
L 81.005665 84.506841 
L 79.845237 84.057326 
L 78.684809 83.680078 
L 77.524382 83.222209 
L 76.363954 82.943082 
L 75.203526 82.580216 
L 74.043098 82.121304 
L 72.88267 81.586376 
L 71.722243 81.159248 
L 70.561815 80.784056 
L 69.401387 80.359812 
L 68.240959 79.837829 
L 67.080531 79.446744 
L 65.920104 78.892637 
L 64.759676 78.451873 
L 63.599248 77.962035 
L 62.43882 77.315482 
L 61.278392 76.590779 
L 60.117965 75.674472 
L 58.957537 74.642518 
L 57.797109 72.861135 
L 56.636681 70.488579 
L 55.476253 66.04055 
L 54.315826 57.491619 
L 53.155398 46.206151 
z
" style="fill:#ff2c00;fill-opacity:0.15;"/>
   </g>
   <g id="PolyCollection_5">
    <path clip-path="url(#p87a61df8ca)" d="M 53.155398 16.292512 
L 53.155398 22.36293 
L 54.315826 26.562818 
L 55.476253 29.180841 
L 56.636681 32.168148 
L 57.797109 34.530166 
L 58.957537 35.752904 
L 60.117965 37.190766 
L 61.278392 38.500532 
L 62.43882 39.556474 
L 63.599248 40.555275 
L 64.759676 41.144067 
L 65.920104 41.612364 
L 67.080531 42.062976 
L 68.240959 42.506384 
L 69.401387 42.841623 
L 70.561815 43.040224 
L 71.722243 43.247104 
L 72.88267 43.439194 
L 74.043098 43.635159 
L 75.203526 43.776829 
L 76.363954 43.946192 
L 77.524382 44.115305 
L 78.684809 44.286561 
L 79.845237 44.421949 
L 81.005665 44.54025 
L 82.166093 44.691437 
L 83.326521 44.82507 
L 84.486949 44.934171 
L 85.647376 45.048728 
L 86.807804 45.176674 
L 87.968232 45.293162 
L 89.12866 45.422314 
L 90.289088 45.531368 
L 91.449515 45.656108 
L 92.609943 45.769043 
L 93.770371 45.886986 
L 94.930799 46.017714 
L 96.091227 46.146574 
L 97.251654 46.288607 
L 98.412082 46.424607 
L 99.57251 46.573215 
L 100.732938 46.706987 
L 101.893366 46.855241 
L 103.053793 47.007243 
L 104.214221 47.151227 
L 105.374649 47.293471 
L 106.535077 47.434578 
L 107.695505 47.566961 
L 108.855932 47.717113 
L 110.01636 47.842142 
L 111.176788 47.986113 
L 112.337216 48.111361 
L 113.497644 48.245266 
L 114.658072 48.362038 
L 115.818499 48.49483 
L 116.978927 48.619546 
L 118.139355 48.745208 
L 119.299783 48.871347 
L 120.460211 48.989467 
L 121.620638 49.119702 
L 122.781066 49.242042 
L 123.941494 49.361749 
L 125.101922 49.482378 
L 126.26235 49.624931 
L 127.422777 49.743345 
L 128.583205 49.867212 
L 129.743633 49.981648 
L 130.904061 50.096407 
L 132.064489 50.223944 
L 133.224916 50.339164 
L 134.385344 50.468421 
L 135.545772 50.564823 
L 136.7062 50.668714 
L 137.866628 50.789258 
L 139.027055 50.921561 
L 140.187483 51.050479 
L 141.347911 51.168931 
L 142.508339 51.296719 
L 143.668767 51.423514 
L 144.829195 51.576676 
L 145.989622 51.697338 
L 147.15005 51.819493 
L 148.310478 51.922055 
L 149.470906 52.047085 
L 150.631334 52.188421 
L 151.791761 52.307151 
L 152.952189 52.426461 
L 154.112617 52.572566 
L 155.273045 52.707012 
L 156.433473 52.82087 
L 157.5939 52.941784 
L 158.754328 53.064724 
L 159.914756 53.177859 
L 161.075184 53.291748 
L 162.235612 53.421073 
L 163.396039 53.545453 
L 164.556467 53.665924 
L 165.716895 53.803822 
L 166.877323 53.923229 
L 168.037751 54.06544 
L 169.198178 54.188748 
L 170.358606 54.339372 
L 171.519034 54.471855 
L 172.679462 54.602971 
L 173.83989 54.760317 
L 175.000318 54.894866 
L 176.160745 55.032684 
L 177.321173 55.17439 
L 178.481601 55.301868 
L 179.642029 55.433937 
L 180.802457 55.560688 
L 181.962884 55.698582 
L 183.123312 55.827125 
L 184.28374 55.963617 
L 185.444168 56.092012 
L 186.604596 56.236243 
L 187.765023 56.380012 
L 188.925451 56.518782 
L 190.085879 56.667117 
L 191.246307 56.802994 
L 192.406735 56.955812 
L 193.567162 57.104165 
L 194.72759 57.243522 
L 195.888018 57.404056 
L 197.048446 57.577497 
L 198.208874 57.737666 
L 199.369301 57.879823 
L 200.529729 58.024479 
L 201.690157 58.199898 
L 202.850585 58.345128 
L 204.011013 58.510311 
L 205.171441 58.677279 
L 206.331868 58.822368 
L 207.492296 59.003152 
L 208.652724 59.210255 
L 209.813152 59.436708 
L 210.97358 59.671559 
L 212.134007 59.928888 
L 213.294435 60.191608 
L 214.454863 60.475976 
L 215.615291 60.815358 
L 216.775719 61.299837 
L 217.936146 61.688071 
L 219.096574 62.122374 
L 220.257002 62.617413 
L 221.41743 63.137169 
L 222.577858 63.893427 
L 223.738285 66.47488 
L 224.898713 69.002017 
L 226.059141 70.849136 
L 227.219569 77.667576 
L 228.379997 92.894833 
L 229.540424 144.004441 
L 230.700852 28517.860219 
L 230.700852 28517.860219 
L 230.700852 28517.860219 
L 229.540424 136.59144 
L 228.379997 86.197191 
L 227.219569 72.330381 
L 226.059141 66.496436 
L 224.898713 64.348919 
L 223.738285 61.921404 
L 222.577858 59.699968 
L 221.41743 58.986316 
L 220.257002 58.407178 
L 219.096574 57.857114 
L 217.936146 57.299309 
L 216.775719 57.029589 
L 215.615291 56.555045 
L 214.454863 56.196811 
L 213.294435 55.865456 
L 212.134007 55.628453 
L 210.97358 55.339534 
L 209.813152 55.124007 
L 208.652724 54.947436 
L 207.492296 54.791358 
L 206.331868 54.639471 
L 205.171441 54.490634 
L 204.011013 54.299746 
L 202.850585 54.104334 
L 201.690157 53.964325 
L 200.529729 53.834425 
L 199.369301 53.709643 
L 198.208874 53.599034 
L 197.048446 53.441374 
L 195.888018 53.301568 
L 194.72759 53.169512 
L 193.567162 53.041394 
L 192.406735 52.926382 
L 191.246307 52.795428 
L 190.085879 52.660536 
L 188.925451 52.541223 
L 187.765023 52.400705 
L 186.604596 52.252651 
L 185.444168 52.120313 
L 184.28374 51.997872 
L 183.123312 51.862728 
L 181.962884 51.730686 
L 180.802457 51.594725 
L 179.642029 51.453325 
L 178.481601 51.287681 
L 177.321173 51.159863 
L 176.160745 51.017114 
L 175.000318 50.83444 
L 173.83989 50.701388 
L 172.679462 50.549078 
L 171.519034 50.425348 
L 170.358606 50.315878 
L 169.198178 50.209614 
L 168.037751 50.088738 
L 166.877323 49.965272 
L 165.716895 49.852102 
L 164.556467 49.73898 
L 163.396039 49.613877 
L 162.235612 49.496189 
L 161.075184 49.363717 
L 159.914756 49.260585 
L 158.754328 49.14742 
L 157.5939 49.019451 
L 156.433473 48.899079 
L 155.273045 48.794396 
L 154.112617 48.688289 
L 152.952189 48.583968 
L 151.791761 48.485391 
L 150.631334 48.374535 
L 149.470906 48.264671 
L 148.310478 48.13802 
L 147.15005 48.031203 
L 145.989622 47.916313 
L 144.829195 47.82254 
L 143.668767 47.703726 
L 142.508339 47.597847 
L 141.347911 47.493238 
L 140.187483 47.351615 
L 139.027055 47.231348 
L 137.866628 47.113085 
L 136.7062 46.998765 
L 135.545772 46.893299 
L 134.385344 46.766141 
L 133.224916 46.639488 
L 132.064489 46.515364 
L 130.904061 46.392649 
L 129.743633 46.271037 
L 128.583205 46.172637 
L 127.422777 46.070222 
L 126.26235 45.959728 
L 125.101922 45.844064 
L 123.941494 45.729411 
L 122.781066 45.611419 
L 121.620638 45.497573 
L 120.460211 45.370948 
L 119.299783 45.236541 
L 118.139355 45.120442 
L 116.978927 45.012601 
L 115.818499 44.885118 
L 114.658072 44.753496 
L 113.497644 44.621269 
L 112.337216 44.480684 
L 111.176788 44.350804 
L 110.01636 44.221574 
L 108.855932 44.08289 
L 107.695505 43.948422 
L 106.535077 43.808851 
L 105.374649 43.656196 
L 104.214221 43.497517 
L 103.053793 43.304592 
L 101.893366 43.152634 
L 100.732938 43.011764 
L 99.57251 42.843841 
L 98.412082 42.709729 
L 97.251654 42.552535 
L 96.091227 42.40667 
L 94.930799 42.236747 
L 93.770371 42.107218 
L 92.609943 41.954857 
L 91.449515 41.829759 
L 90.289088 41.714083 
L 89.12866 41.59569 
L 87.968232 41.433823 
L 86.807804 41.305446 
L 85.647376 41.178657 
L 84.486949 41.049251 
L 83.326521 40.900808 
L 82.166093 40.773267 
L 81.005665 40.630035 
L 79.845237 40.482057 
L 78.684809 40.35594 
L 77.524382 40.211731 
L 76.363954 40.04714 
L 75.203526 39.889958 
L 74.043098 39.728547 
L 72.88267 39.486351 
L 71.722243 39.277531 
L 70.561815 39.100771 
L 69.401387 38.883094 
L 68.240959 38.541553 
L 67.080531 38.13558 
L 65.920104 37.628402 
L 64.759676 37.099531 
L 63.599248 36.371787 
L 62.43882 35.271143 
L 61.278392 34.248687 
L 60.117965 32.771408 
L 58.957537 30.999176 
L 57.797109 29.760778 
L 56.636681 27.037054 
L 55.476253 24.040936 
L 54.315826 21.03512 
L 53.155398 16.292512 
z
" style="fill:#845b97;fill-opacity:0.15;"/>
   </g>
   <g id="matplotlib.axis_1">
    <g id="xtick_1">
     <g id="line2d_1">
      <defs>
       <path d="M 0 0 
L 0 -3 
" id="mf2e930165d" style="stroke:#000000;stroke-width:0.5;"/>
      </defs>
      <g>
       <use style="stroke:#000000;stroke-width:0.5;" x="53.155398" xlink:href="#mf2e930165d" y="150.094219"/>
      </g>
     </g>
     <g id="line2d_2">
      <defs>
       <path d="M 0 0 
L 0 3 
" id="m8719b3012b" style="stroke:#000000;stroke-width:0.5;"/>
      </defs>
      <g>
       <use style="stroke:#000000;stroke-width:0.5;" x="53.155398" xlink:href="#m8719b3012b" y="7.399219"/>
      </g>
     </g>
     <g id="text_1">
      <!-- 0 -->
      <g transform="translate(49.974148 161.192656)scale(0.1 -0.1)">
       <defs>
        <path d="M 2034 4250 
Q 1547 4250 1301 3770 
Q 1056 3291 1056 2328 
Q 1056 1369 1301 889 
Q 1547 409 2034 409 
Q 2525 409 2770 889 
Q 3016 1369 3016 2328 
Q 3016 3291 2770 3770 
Q 2525 4250 2034 4250 
z
M 2034 4750 
Q 2819 4750 3233 4129 
Q 3647 3509 3647 2328 
Q 3647 1150 3233 529 
Q 2819 -91 2034 -91 
Q 1250 -91 836 529 
Q 422 1150 422 2328 
Q 422 3509 836 4129 
Q 1250 4750 2034 4750 
z
" id="DejaVuSans-30" transform="scale(0.015625)"/>
       </defs>
       <use xlink:href="#DejaVuSans-30"/>
      </g>
     </g>
    </g>
    <g id="xtick_2">
     <g id="line2d_3">
      <g>
       <use style="stroke:#000000;stroke-width:0.5;" x="111.176788" xlink:href="#mf2e930165d" y="150.094219"/>
      </g>
     </g>
     <g id="line2d_4">
      <g>
       <use style="stroke:#000000;stroke-width:0.5;" x="111.176788" xlink:href="#m8719b3012b" y="7.399219"/>
      </g>
     </g>
     <g id="text_2">
      <!-- 50 -->
      <g transform="translate(104.814288 161.192656)scale(0.1 -0.1)">
       <defs>
        <path d="M 691 4666 
L 3169 4666 
L 3169 4134 
L 1269 4134 
L 1269 2991 
Q 1406 3038 1543 3061 
Q 1681 3084 1819 3084 
Q 2600 3084 3056 2656 
Q 3513 2228 3513 1497 
Q 3513 744 3044 326 
Q 2575 -91 1722 -91 
Q 1428 -91 1123 -41 
Q 819 9 494 109 
L 494 744 
Q 775 591 1075 516 
Q 1375 441 1709 441 
Q 2250 441 2565 725 
Q 2881 1009 2881 1497 
Q 2881 1984 2565 2268 
Q 2250 2553 1709 2553 
Q 1456 2553 1204 2497 
Q 953 2441 691 2322 
L 691 4666 
z
" id="DejaVuSans-35" transform="scale(0.015625)"/>
       </defs>
       <use xlink:href="#DejaVuSans-35"/>
       <use x="63.623047" xlink:href="#DejaVuSans-30"/>
      </g>
     </g>
    </g>
    <g id="xtick_3">
     <g id="line2d_5">
      <g>
       <use style="stroke:#000000;stroke-width:0.5;" x="169.198178" xlink:href="#mf2e930165d" y="150.094219"/>
      </g>
     </g>
     <g id="line2d_6">
      <g>
       <use style="stroke:#000000;stroke-width:0.5;" x="169.198178" xlink:href="#m8719b3012b" y="7.399219"/>
      </g>
     </g>
     <g id="text_3">
      <!-- 100 -->
      <g transform="translate(159.654428 161.192656)scale(0.1 -0.1)">
       <defs>
        <path d="M 794 531 
L 1825 531 
L 1825 4091 
L 703 3866 
L 703 4441 
L 1819 4666 
L 2450 4666 
L 2450 531 
L 3481 531 
L 3481 0 
L 794 0 
L 794 531 
z
" id="DejaVuSans-31" transform="scale(0.015625)"/>
       </defs>
       <use xlink:href="#DejaVuSans-31"/>
       <use x="63.623047" xlink:href="#DejaVuSans-30"/>
       <use x="127.246094" xlink:href="#DejaVuSans-30"/>
      </g>
     </g>
    </g>
    <g id="xtick_4">
     <g id="line2d_7">
      <g>
       <use style="stroke:#000000;stroke-width:0.5;" x="227.219569" xlink:href="#mf2e930165d" y="150.094219"/>
      </g>
     </g>
     <g id="line2d_8">
      <g>
       <use style="stroke:#000000;stroke-width:0.5;" x="227.219569" xlink:href="#m8719b3012b" y="7.399219"/>
      </g>
     </g>
     <g id="text_4">
      <!-- 150 -->
      <g transform="translate(217.675819 161.192656)scale(0.1 -0.1)">
       <use xlink:href="#DejaVuSans-31"/>
       <use x="63.623047" xlink:href="#DejaVuSans-35"/>
       <use x="127.246094" xlink:href="#DejaVuSans-30"/>
      </g>
     </g>
    </g>
    <g id="xtick_5">
     <g id="line2d_9">
      <defs>
       <path d="M 0 0 
L 0 -1.5 
" id="m97b49279c8" style="stroke:#000000;stroke-width:0.5;"/>
      </defs>
      <g>
       <use style="stroke:#000000;stroke-width:0.5;" x="64.759676" xlink:href="#m97b49279c8" y="150.094219"/>
      </g>
     </g>
     <g id="line2d_10">
      <defs>
       <path d="M 0 0 
L 0 1.5 
" id="mb755a26e6c" style="stroke:#000000;stroke-width:0.5;"/>
      </defs>
      <g>
       <use style="stroke:#000000;stroke-width:0.5;" x="64.759676" xlink:href="#mb755a26e6c" y="7.399219"/>
      </g>
     </g>
    </g>
    <g id="xtick_6">
     <g id="line2d_11">
      <g>
       <use style="stroke:#000000;stroke-width:0.5;" x="76.363954" xlink:href="#m97b49279c8" y="150.094219"/>
      </g>
     </g>
     <g id="line2d_12">
      <g>
       <use style="stroke:#000000;stroke-width:0.5;" x="76.363954" xlink:href="#mb755a26e6c" y="7.399219"/>
      </g>
     </g>
    </g>
    <g id="xtick_7">
     <g id="line2d_13">
      <g>
       <use style="stroke:#000000;stroke-width:0.5;" x="87.968232" xlink:href="#m97b49279c8" y="150.094219"/>
      </g>
     </g>
     <g id="line2d_14">
      <g>
       <use style="stroke:#000000;stroke-width:0.5;" x="87.968232" xlink:href="#mb755a26e6c" y="7.399219"/>
      </g>
     </g>
    </g>
    <g id="xtick_8">
     <g id="line2d_15">
      <g>
       <use style="stroke:#000000;stroke-width:0.5;" x="99.57251" xlink:href="#m97b49279c8" y="150.094219"/>
      </g>
     </g>
     <g id="line2d_16">
      <g>
       <use style="stroke:#000000;stroke-width:0.5;" x="99.57251" xlink:href="#mb755a26e6c" y="7.399219"/>
      </g>
     </g>
    </g>
    <g id="xtick_9">
     <g id="line2d_17">
      <g>
       <use style="stroke:#000000;stroke-width:0.5;" x="122.781066" xlink:href="#m97b49279c8" y="150.094219"/>
      </g>
     </g>
     <g id="line2d_18">
      <g>
       <use style="stroke:#000000;stroke-width:0.5;" x="122.781066" xlink:href="#mb755a26e6c" y="7.399219"/>
      </g>
     </g>
    </g>
    <g id="xtick_10">
     <g id="line2d_19">
      <g>
       <use style="stroke:#000000;stroke-width:0.5;" x="134.385344" xlink:href="#m97b49279c8" y="150.094219"/>
      </g>
     </g>
     <g id="line2d_20">
      <g>
       <use style="stroke:#000000;stroke-width:0.5;" x="134.385344" xlink:href="#mb755a26e6c" y="7.399219"/>
      </g>
     </g>
    </g>
    <g id="xtick_11">
     <g id="line2d_21">
      <g>
       <use style="stroke:#000000;stroke-width:0.5;" x="145.989622" xlink:href="#m97b49279c8" y="150.094219"/>
      </g>
     </g>
     <g id="line2d_22">
      <g>
       <use style="stroke:#000000;stroke-width:0.5;" x="145.989622" xlink:href="#mb755a26e6c" y="7.399219"/>
      </g>
     </g>
    </g>
    <g id="xtick_12">
     <g id="line2d_23">
      <g>
       <use style="stroke:#000000;stroke-width:0.5;" x="157.5939" xlink:href="#m97b49279c8" y="150.094219"/>
      </g>
     </g>
     <g id="line2d_24">
      <g>
       <use style="stroke:#000000;stroke-width:0.5;" x="157.5939" xlink:href="#mb755a26e6c" y="7.399219"/>
      </g>
     </g>
    </g>
    <g id="xtick_13">
     <g id="line2d_25">
      <g>
       <use style="stroke:#000000;stroke-width:0.5;" x="180.802457" xlink:href="#m97b49279c8" y="150.094219"/>
      </g>
     </g>
     <g id="line2d_26">
      <g>
       <use style="stroke:#000000;stroke-width:0.5;" x="180.802457" xlink:href="#mb755a26e6c" y="7.399219"/>
      </g>
     </g>
    </g>
    <g id="xtick_14">
     <g id="line2d_27">
      <g>
       <use style="stroke:#000000;stroke-width:0.5;" x="192.406735" xlink:href="#m97b49279c8" y="150.094219"/>
      </g>
     </g>
     <g id="line2d_28">
      <g>
       <use style="stroke:#000000;stroke-width:0.5;" x="192.406735" xlink:href="#mb755a26e6c" y="7.399219"/>
      </g>
     </g>
    </g>
    <g id="xtick_15">
     <g id="line2d_29">
      <g>
       <use style="stroke:#000000;stroke-width:0.5;" x="204.011013" xlink:href="#m97b49279c8" y="150.094219"/>
      </g>
     </g>
     <g id="line2d_30">
      <g>
       <use style="stroke:#000000;stroke-width:0.5;" x="204.011013" xlink:href="#mb755a26e6c" y="7.399219"/>
      </g>
     </g>
    </g>
    <g id="xtick_16">
     <g id="line2d_31">
      <g>
       <use style="stroke:#000000;stroke-width:0.5;" x="215.615291" xlink:href="#m97b49279c8" y="150.094219"/>
      </g>
     </g>
     <g id="line2d_32">
      <g>
       <use style="stroke:#000000;stroke-width:0.5;" x="215.615291" xlink:href="#mb755a26e6c" y="7.399219"/>
      </g>
     </g>
    </g>
    <g id="xtick_17">
     <g id="line2d_33">
      <g>
       <use style="stroke:#000000;stroke-width:0.5;" x="238.823847" xlink:href="#m97b49279c8" y="150.094219"/>
      </g>
     </g>
     <g id="line2d_34">
      <g>
       <use style="stroke:#000000;stroke-width:0.5;" x="238.823847" xlink:href="#mb755a26e6c" y="7.399219"/>
      </g>
     </g>
    </g>
    <g id="text_5">
     <!-- # Magnets -->
     <g transform="translate(114.786719 174.870781)scale(0.1 -0.1)">
      <defs>
       <path d="M 3272 2816 
L 2363 2816 
L 2100 1772 
L 3016 1772 
L 3272 2816 
z
M 2803 4594 
L 2478 3297 
L 3391 3297 
L 3719 4594 
L 4219 4594 
L 3897 3297 
L 4872 3297 
L 4872 2816 
L 3775 2816 
L 3519 1772 
L 4513 1772 
L 4513 1294 
L 3397 1294 
L 3072 0 
L 2572 0 
L 2894 1294 
L 1978 1294 
L 1656 0 
L 1153 0 
L 1478 1294 
L 494 1294 
L 494 1772 
L 1594 1772 
L 1856 2816 
L 850 2816 
L 850 3297 
L 1978 3297 
L 2297 4594 
L 2803 4594 
z
" id="DejaVuSans-23" transform="scale(0.015625)"/>
       <path id="DejaVuSans-20" transform="scale(0.015625)"/>
       <path d="M 628 4666 
L 1569 4666 
L 2759 1491 
L 3956 4666 
L 4897 4666 
L 4897 0 
L 4281 0 
L 4281 4097 
L 3078 897 
L 2444 897 
L 1241 4097 
L 1241 0 
L 628 0 
L 628 4666 
z
" id="DejaVuSans-4d" transform="scale(0.015625)"/>
       <path d="M 2194 1759 
Q 1497 1759 1228 1600 
Q 959 1441 959 1056 
Q 959 750 1161 570 
Q 1363 391 1709 391 
Q 2188 391 2477 730 
Q 2766 1069 2766 1631 
L 2766 1759 
L 2194 1759 
z
M 3341 1997 
L 3341 0 
L 2766 0 
L 2766 531 
Q 2569 213 2275 61 
Q 1981 -91 1556 -91 
Q 1019 -91 701 211 
Q 384 513 384 1019 
Q 384 1609 779 1909 
Q 1175 2209 1959 2209 
L 2766 2209 
L 2766 2266 
Q 2766 2663 2505 2880 
Q 2244 3097 1772 3097 
Q 1472 3097 1187 3025 
Q 903 2953 641 2809 
L 641 3341 
Q 956 3463 1253 3523 
Q 1550 3584 1831 3584 
Q 2591 3584 2966 3190 
Q 3341 2797 3341 1997 
z
" id="DejaVuSans-61" transform="scale(0.015625)"/>
       <path d="M 2906 1791 
Q 2906 2416 2648 2759 
Q 2391 3103 1925 3103 
Q 1463 3103 1205 2759 
Q 947 2416 947 1791 
Q 947 1169 1205 825 
Q 1463 481 1925 481 
Q 2391 481 2648 825 
Q 2906 1169 2906 1791 
z
M 3481 434 
Q 3481 -459 3084 -895 
Q 2688 -1331 1869 -1331 
Q 1566 -1331 1297 -1286 
Q 1028 -1241 775 -1147 
L 775 -588 
Q 1028 -725 1275 -790 
Q 1522 -856 1778 -856 
Q 2344 -856 2625 -561 
Q 2906 -266 2906 331 
L 2906 616 
Q 2728 306 2450 153 
Q 2172 0 1784 0 
Q 1141 0 747 490 
Q 353 981 353 1791 
Q 353 2603 747 3093 
Q 1141 3584 1784 3584 
Q 2172 3584 2450 3431 
Q 2728 3278 2906 2969 
L 2906 3500 
L 3481 3500 
L 3481 434 
z
" id="DejaVuSans-67" transform="scale(0.015625)"/>
       <path d="M 3513 2113 
L 3513 0 
L 2938 0 
L 2938 2094 
Q 2938 2591 2744 2837 
Q 2550 3084 2163 3084 
Q 1697 3084 1428 2787 
Q 1159 2491 1159 1978 
L 1159 0 
L 581 0 
L 581 3500 
L 1159 3500 
L 1159 2956 
Q 1366 3272 1645 3428 
Q 1925 3584 2291 3584 
Q 2894 3584 3203 3211 
Q 3513 2838 3513 2113 
z
" id="DejaVuSans-6e" transform="scale(0.015625)"/>
       <path d="M 3597 1894 
L 3597 1613 
L 953 1613 
Q 991 1019 1311 708 
Q 1631 397 2203 397 
Q 2534 397 2845 478 
Q 3156 559 3463 722 
L 3463 178 
Q 3153 47 2828 -22 
Q 2503 -91 2169 -91 
Q 1331 -91 842 396 
Q 353 884 353 1716 
Q 353 2575 817 3079 
Q 1281 3584 2069 3584 
Q 2775 3584 3186 3129 
Q 3597 2675 3597 1894 
z
M 3022 2063 
Q 3016 2534 2758 2815 
Q 2500 3097 2075 3097 
Q 1594 3097 1305 2825 
Q 1016 2553 972 2059 
L 3022 2063 
z
" id="DejaVuSans-65" transform="scale(0.015625)"/>
       <path d="M 1172 4494 
L 1172 3500 
L 2356 3500 
L 2356 3053 
L 1172 3053 
L 1172 1153 
Q 1172 725 1289 603 
Q 1406 481 1766 481 
L 2356 481 
L 2356 0 
L 1766 0 
Q 1100 0 847 248 
Q 594 497 594 1153 
L 594 3053 
L 172 3053 
L 172 3500 
L 594 3500 
L 594 4494 
L 1172 4494 
z
" id="DejaVuSans-74" transform="scale(0.015625)"/>
       <path d="M 2834 3397 
L 2834 2853 
Q 2591 2978 2328 3040 
Q 2066 3103 1784 3103 
Q 1356 3103 1142 2972 
Q 928 2841 928 2578 
Q 928 2378 1081 2264 
Q 1234 2150 1697 2047 
L 1894 2003 
Q 2506 1872 2764 1633 
Q 3022 1394 3022 966 
Q 3022 478 2636 193 
Q 2250 -91 1575 -91 
Q 1294 -91 989 -36 
Q 684 19 347 128 
L 347 722 
Q 666 556 975 473 
Q 1284 391 1588 391 
Q 1994 391 2212 530 
Q 2431 669 2431 922 
Q 2431 1156 2273 1281 
Q 2116 1406 1581 1522 
L 1381 1569 
Q 847 1681 609 1914 
Q 372 2147 372 2553 
Q 372 3047 722 3315 
Q 1072 3584 1716 3584 
Q 2034 3584 2315 3537 
Q 2597 3491 2834 3397 
z
" id="DejaVuSans-73" transform="scale(0.015625)"/>
      </defs>
      <use xlink:href="#DejaVuSans-23"/>
      <use x="83.789062" xlink:href="#DejaVuSans-20"/>
      <use x="115.576172" xlink:href="#DejaVuSans-4d"/>
      <use x="201.855469" xlink:href="#DejaVuSans-61"/>
      <use x="263.134766" xlink:href="#DejaVuSans-67"/>
      <use x="326.611328" xlink:href="#DejaVuSans-6e"/>
      <use x="389.990234" xlink:href="#DejaVuSans-65"/>
      <use x="451.513672" xlink:href="#DejaVuSans-74"/>
      <use x="490.722656" xlink:href="#DejaVuSans-73"/>
     </g>
    </g>
   </g>
   <g id="matplotlib.axis_2">
    <g id="ytick_1">
     <g id="line2d_35">
      <defs>
       <path d="M 0 0 
L 3 0 
" id="meb6fa360a6" style="stroke:#000000;stroke-width:0.5;"/>
      </defs>
      <g>
       <use style="stroke:#000000;stroke-width:0.5;" x="44.278125" xlink:href="#meb6fa360a6" y="150.094219"/>
      </g>
     </g>
     <g id="line2d_36">
      <defs>
       <path d="M 0 0 
L -3 0 
" id="m9da1af6f30" style="stroke:#000000;stroke-width:0.5;"/>
      </defs>
      <g>
       <use style="stroke:#000000;stroke-width:0.5;" x="239.578125" xlink:href="#m9da1af6f30" y="150.094219"/>
      </g>
     </g>
     <g id="text_6">
      <!-- $\mathdefault{10^{-6}}$ -->
      <g transform="translate(17.278125 153.893437)scale(0.1 -0.1)">
       <defs>
        <path d="M 678 2272 
L 4684 2272 
L 4684 1741 
L 678 1741 
L 678 2272 
z
" id="DejaVuSans-2212" transform="scale(0.015625)"/>
        <path d="M 2113 2584 
Q 1688 2584 1439 2293 
Q 1191 2003 1191 1497 
Q 1191 994 1439 701 
Q 1688 409 2113 409 
Q 2538 409 2786 701 
Q 3034 994 3034 1497 
Q 3034 2003 2786 2293 
Q 2538 2584 2113 2584 
z
M 3366 4563 
L 3366 3988 
Q 3128 4100 2886 4159 
Q 2644 4219 2406 4219 
Q 1781 4219 1451 3797 
Q 1122 3375 1075 2522 
Q 1259 2794 1537 2939 
Q 1816 3084 2150 3084 
Q 2853 3084 3261 2657 
Q 3669 2231 3669 1497 
Q 3669 778 3244 343 
Q 2819 -91 2113 -91 
Q 1303 -91 875 529 
Q 447 1150 447 2328 
Q 447 3434 972 4092 
Q 1497 4750 2381 4750 
Q 2619 4750 2861 4703 
Q 3103 4656 3366 4563 
z
" id="DejaVuSans-36" transform="scale(0.015625)"/>
       </defs>
       <use transform="translate(0 0.765625)" xlink:href="#DejaVuSans-31"/>
       <use transform="translate(63.623047 0.765625)" xlink:href="#DejaVuSans-30"/>
       <use transform="translate(128.203125 39.046875)scale(0.7)" xlink:href="#DejaVuSans-2212"/>
       <use transform="translate(186.855469 39.046875)scale(0.7)" xlink:href="#DejaVuSans-36"/>
      </g>
     </g>
    </g>
    <g id="ytick_2">
     <g id="line2d_37">
      <g>
       <use style="stroke:#000000;stroke-width:0.5;" x="44.278125" xlink:href="#meb6fa360a6" y="121.555219"/>
      </g>
     </g>
     <g id="line2d_38">
      <g>
       <use style="stroke:#000000;stroke-width:0.5;" x="239.578125" xlink:href="#m9da1af6f30" y="121.555219"/>
      </g>
     </g>
     <g id="text_7">
      <!-- $\mathdefault{10^{-5}}$ -->
      <g transform="translate(17.278125 125.354437)scale(0.1 -0.1)">
       <use transform="translate(0 0.684375)" xlink:href="#DejaVuSans-31"/>
       <use transform="translate(63.623047 0.684375)" xlink:href="#DejaVuSans-30"/>
       <use transform="translate(128.203125 38.965625)scale(0.7)" xlink:href="#DejaVuSans-2212"/>
       <use transform="translate(186.855469 38.965625)scale(0.7)" xlink:href="#DejaVuSans-35"/>
      </g>
     </g>
    </g>
    <g id="ytick_3">
     <g id="line2d_39">
      <g>
       <use style="stroke:#000000;stroke-width:0.5;" x="44.278125" xlink:href="#meb6fa360a6" y="93.016219"/>
      </g>
     </g>
     <g id="line2d_40">
      <g>
       <use style="stroke:#000000;stroke-width:0.5;" x="239.578125" xlink:href="#m9da1af6f30" y="93.016219"/>
      </g>
     </g>
     <g id="text_8">
      <!-- $\mathdefault{10^{-4}}$ -->
      <g transform="translate(17.278125 96.815437)scale(0.1 -0.1)">
       <defs>
        <path d="M 2419 4116 
L 825 1625 
L 2419 1625 
L 2419 4116 
z
M 2253 4666 
L 3047 4666 
L 3047 1625 
L 3713 1625 
L 3713 1100 
L 3047 1100 
L 3047 0 
L 2419 0 
L 2419 1100 
L 313 1100 
L 313 1709 
L 2253 4666 
z
" id="DejaVuSans-34" transform="scale(0.015625)"/>
       </defs>
       <use transform="translate(0 0.684375)" xlink:href="#DejaVuSans-31"/>
       <use transform="translate(63.623047 0.684375)" xlink:href="#DejaVuSans-30"/>
       <use transform="translate(128.203125 38.965625)scale(0.7)" xlink:href="#DejaVuSans-2212"/>
       <use transform="translate(186.855469 38.965625)scale(0.7)" xlink:href="#DejaVuSans-34"/>
      </g>
     </g>
    </g>
    <g id="ytick_4">
     <g id="line2d_41">
      <g>
       <use style="stroke:#000000;stroke-width:0.5;" x="44.278125" xlink:href="#meb6fa360a6" y="64.477219"/>
      </g>
     </g>
     <g id="line2d_42">
      <g>
       <use style="stroke:#000000;stroke-width:0.5;" x="239.578125" xlink:href="#m9da1af6f30" y="64.477219"/>
      </g>
     </g>
     <g id="text_9">
      <!-- $\mathdefault{10^{-3}}$ -->
      <g transform="translate(17.278125 68.276437)scale(0.1 -0.1)">
       <defs>
        <path d="M 2597 2516 
Q 3050 2419 3304 2112 
Q 3559 1806 3559 1356 
Q 3559 666 3084 287 
Q 2609 -91 1734 -91 
Q 1441 -91 1130 -33 
Q 819 25 488 141 
L 488 750 
Q 750 597 1062 519 
Q 1375 441 1716 441 
Q 2309 441 2620 675 
Q 2931 909 2931 1356 
Q 2931 1769 2642 2001 
Q 2353 2234 1838 2234 
L 1294 2234 
L 1294 2753 
L 1863 2753 
Q 2328 2753 2575 2939 
Q 2822 3125 2822 3475 
Q 2822 3834 2567 4026 
Q 2313 4219 1838 4219 
Q 1578 4219 1281 4162 
Q 984 4106 628 3988 
L 628 4550 
Q 988 4650 1302 4700 
Q 1616 4750 1894 4750 
Q 2613 4750 3031 4423 
Q 3450 4097 3450 3541 
Q 3450 3153 3228 2886 
Q 3006 2619 2597 2516 
z
" id="DejaVuSans-33" transform="scale(0.015625)"/>
       </defs>
       <use transform="translate(0 0.765625)" xlink:href="#DejaVuSans-31"/>
       <use transform="translate(63.623047 0.765625)" xlink:href="#DejaVuSans-30"/>
       <use transform="translate(128.203125 39.046875)scale(0.7)" xlink:href="#DejaVuSans-2212"/>
       <use transform="translate(186.855469 39.046875)scale(0.7)" xlink:href="#DejaVuSans-33"/>
      </g>
     </g>
    </g>
    <g id="ytick_5">
     <g id="line2d_43">
      <g>
       <use style="stroke:#000000;stroke-width:0.5;" x="44.278125" xlink:href="#meb6fa360a6" y="35.938219"/>
      </g>
     </g>
     <g id="line2d_44">
      <g>
       <use style="stroke:#000000;stroke-width:0.5;" x="239.578125" xlink:href="#m9da1af6f30" y="35.938219"/>
      </g>
     </g>
     <g id="text_10">
      <!-- $\mathdefault{10^{-2}}$ -->
      <g transform="translate(17.278125 39.737437)scale(0.1 -0.1)">
       <defs>
        <path d="M 1228 531 
L 3431 531 
L 3431 0 
L 469 0 
L 469 531 
Q 828 903 1448 1529 
Q 2069 2156 2228 2338 
Q 2531 2678 2651 2914 
Q 2772 3150 2772 3378 
Q 2772 3750 2511 3984 
Q 2250 4219 1831 4219 
Q 1534 4219 1204 4116 
Q 875 4013 500 3803 
L 500 4441 
Q 881 4594 1212 4672 
Q 1544 4750 1819 4750 
Q 2544 4750 2975 4387 
Q 3406 4025 3406 3419 
Q 3406 3131 3298 2873 
Q 3191 2616 2906 2266 
Q 2828 2175 2409 1742 
Q 1991 1309 1228 531 
z
" id="DejaVuSans-32" transform="scale(0.015625)"/>
       </defs>
       <use transform="translate(0 0.765625)" xlink:href="#DejaVuSans-31"/>
       <use transform="translate(63.623047 0.765625)" xlink:href="#DejaVuSans-30"/>
       <use transform="translate(128.203125 39.046875)scale(0.7)" xlink:href="#DejaVuSans-2212"/>
       <use transform="translate(186.855469 39.046875)scale(0.7)" xlink:href="#DejaVuSans-32"/>
      </g>
     </g>
    </g>
    <g id="ytick_6">
     <g id="line2d_45">
      <g>
       <use style="stroke:#000000;stroke-width:0.5;" x="44.278125" xlink:href="#meb6fa360a6" y="7.399219"/>
      </g>
     </g>
     <g id="line2d_46">
      <g>
       <use style="stroke:#000000;stroke-width:0.5;" x="239.578125" xlink:href="#m9da1af6f30" y="7.399219"/>
      </g>
     </g>
     <g id="text_11">
      <!-- $\mathdefault{10^{-1}}$ -->
      <g transform="translate(17.278125 11.198437)scale(0.1 -0.1)">
       <use transform="translate(0 0.684375)" xlink:href="#DejaVuSans-31"/>
       <use transform="translate(63.623047 0.684375)" xlink:href="#DejaVuSans-30"/>
       <use transform="translate(128.203125 38.965625)scale(0.7)" xlink:href="#DejaVuSans-2212"/>
       <use transform="translate(186.855469 38.965625)scale(0.7)" xlink:href="#DejaVuSans-31"/>
      </g>
     </g>
    </g>
    <g id="ytick_7">
     <g id="line2d_47">
      <defs>
       <path d="M 0 0 
L 1.5 0 
" id="m690e460512" style="stroke:#000000;stroke-width:0.5;"/>
      </defs>
      <g>
       <use style="stroke:#000000;stroke-width:0.5;" x="44.278125" xlink:href="#m690e460512" y="141.503124"/>
      </g>
     </g>
     <g id="line2d_48">
      <defs>
       <path d="M 0 0 
L -1.5 0 
" id="md42f076586" style="stroke:#000000;stroke-width:0.5;"/>
      </defs>
      <g>
       <use style="stroke:#000000;stroke-width:0.5;" x="239.578125" xlink:href="#md42f076586" y="141.503124"/>
      </g>
     </g>
    </g>
    <g id="ytick_8">
     <g id="line2d_49">
      <g>
       <use style="stroke:#000000;stroke-width:0.5;" x="44.278125" xlink:href="#m690e460512" y="136.477655"/>
      </g>
     </g>
     <g id="line2d_50">
      <g>
       <use style="stroke:#000000;stroke-width:0.5;" x="239.578125" xlink:href="#md42f076586" y="136.477655"/>
      </g>
     </g>
    </g>
    <g id="ytick_9">
     <g id="line2d_51">
      <g>
       <use style="stroke:#000000;stroke-width:0.5;" x="44.278125" xlink:href="#m690e460512" y="132.912029"/>
      </g>
     </g>
     <g id="line2d_52">
      <g>
       <use style="stroke:#000000;stroke-width:0.5;" x="239.578125" xlink:href="#md42f076586" y="132.912029"/>
      </g>
     </g>
    </g>
    <g id="ytick_10">
     <g id="line2d_53">
      <g>
       <use style="stroke:#000000;stroke-width:0.5;" x="44.278125" xlink:href="#m690e460512" y="130.146314"/>
      </g>
     </g>
     <g id="line2d_54">
      <g>
       <use style="stroke:#000000;stroke-width:0.5;" x="239.578125" xlink:href="#md42f076586" y="130.146314"/>
      </g>
     </g>
    </g>
    <g id="ytick_11">
     <g id="line2d_55">
      <g>
       <use style="stroke:#000000;stroke-width:0.5;" x="44.278125" xlink:href="#m690e460512" y="127.88656"/>
      </g>
     </g>
     <g id="line2d_56">
      <g>
       <use style="stroke:#000000;stroke-width:0.5;" x="239.578125" xlink:href="#md42f076586" y="127.88656"/>
      </g>
     </g>
    </g>
    <g id="ytick_12">
     <g id="line2d_57">
      <g>
       <use style="stroke:#000000;stroke-width:0.5;" x="44.278125" xlink:href="#m690e460512" y="125.975966"/>
      </g>
     </g>
     <g id="line2d_58">
      <g>
       <use style="stroke:#000000;stroke-width:0.5;" x="239.578125" xlink:href="#md42f076586" y="125.975966"/>
      </g>
     </g>
    </g>
    <g id="ytick_13">
     <g id="line2d_59">
      <g>
       <use style="stroke:#000000;stroke-width:0.5;" x="44.278125" xlink:href="#m690e460512" y="124.320934"/>
      </g>
     </g>
     <g id="line2d_60">
      <g>
       <use style="stroke:#000000;stroke-width:0.5;" x="239.578125" xlink:href="#md42f076586" y="124.320934"/>
      </g>
     </g>
    </g>
    <g id="ytick_14">
     <g id="line2d_61">
      <g>
       <use style="stroke:#000000;stroke-width:0.5;" x="44.278125" xlink:href="#m690e460512" y="122.861092"/>
      </g>
     </g>
     <g id="line2d_62">
      <g>
       <use style="stroke:#000000;stroke-width:0.5;" x="239.578125" xlink:href="#md42f076586" y="122.861092"/>
      </g>
     </g>
    </g>
    <g id="ytick_15">
     <g id="line2d_63">
      <g>
       <use style="stroke:#000000;stroke-width:0.5;" x="44.278125" xlink:href="#m690e460512" y="112.964124"/>
      </g>
     </g>
     <g id="line2d_64">
      <g>
       <use style="stroke:#000000;stroke-width:0.5;" x="239.578125" xlink:href="#md42f076586" y="112.964124"/>
      </g>
     </g>
    </g>
    <g id="ytick_16">
     <g id="line2d_65">
      <g>
       <use style="stroke:#000000;stroke-width:0.5;" x="44.278125" xlink:href="#m690e460512" y="107.938655"/>
      </g>
     </g>
     <g id="line2d_66">
      <g>
       <use style="stroke:#000000;stroke-width:0.5;" x="239.578125" xlink:href="#md42f076586" y="107.938655"/>
      </g>
     </g>
    </g>
    <g id="ytick_17">
     <g id="line2d_67">
      <g>
       <use style="stroke:#000000;stroke-width:0.5;" x="44.278125" xlink:href="#m690e460512" y="104.373029"/>
      </g>
     </g>
     <g id="line2d_68">
      <g>
       <use style="stroke:#000000;stroke-width:0.5;" x="239.578125" xlink:href="#md42f076586" y="104.373029"/>
      </g>
     </g>
    </g>
    <g id="ytick_18">
     <g id="line2d_69">
      <g>
       <use style="stroke:#000000;stroke-width:0.5;" x="44.278125" xlink:href="#m690e460512" y="101.607314"/>
      </g>
     </g>
     <g id="line2d_70">
      <g>
       <use style="stroke:#000000;stroke-width:0.5;" x="239.578125" xlink:href="#md42f076586" y="101.607314"/>
      </g>
     </g>
    </g>
    <g id="ytick_19">
     <g id="line2d_71">
      <g>
       <use style="stroke:#000000;stroke-width:0.5;" x="44.278125" xlink:href="#m690e460512" y="99.34756"/>
      </g>
     </g>
     <g id="line2d_72">
      <g>
       <use style="stroke:#000000;stroke-width:0.5;" x="239.578125" xlink:href="#md42f076586" y="99.34756"/>
      </g>
     </g>
    </g>
    <g id="ytick_20">
     <g id="line2d_73">
      <g>
       <use style="stroke:#000000;stroke-width:0.5;" x="44.278125" xlink:href="#m690e460512" y="97.436966"/>
      </g>
     </g>
     <g id="line2d_74">
      <g>
       <use style="stroke:#000000;stroke-width:0.5;" x="239.578125" xlink:href="#md42f076586" y="97.436966"/>
      </g>
     </g>
    </g>
    <g id="ytick_21">
     <g id="line2d_75">
      <g>
       <use style="stroke:#000000;stroke-width:0.5;" x="44.278125" xlink:href="#m690e460512" y="95.781934"/>
      </g>
     </g>
     <g id="line2d_76">
      <g>
       <use style="stroke:#000000;stroke-width:0.5;" x="239.578125" xlink:href="#md42f076586" y="95.781934"/>
      </g>
     </g>
    </g>
    <g id="ytick_22">
     <g id="line2d_77">
      <g>
       <use style="stroke:#000000;stroke-width:0.5;" x="44.278125" xlink:href="#m690e460512" y="94.322092"/>
      </g>
     </g>
     <g id="line2d_78">
      <g>
       <use style="stroke:#000000;stroke-width:0.5;" x="239.578125" xlink:href="#md42f076586" y="94.322092"/>
      </g>
     </g>
    </g>
    <g id="ytick_23">
     <g id="line2d_79">
      <g>
       <use style="stroke:#000000;stroke-width:0.5;" x="44.278125" xlink:href="#m690e460512" y="84.425124"/>
      </g>
     </g>
     <g id="line2d_80">
      <g>
       <use style="stroke:#000000;stroke-width:0.5;" x="239.578125" xlink:href="#md42f076586" y="84.425124"/>
      </g>
     </g>
    </g>
    <g id="ytick_24">
     <g id="line2d_81">
      <g>
       <use style="stroke:#000000;stroke-width:0.5;" x="44.278125" xlink:href="#m690e460512" y="79.399655"/>
      </g>
     </g>
     <g id="line2d_82">
      <g>
       <use style="stroke:#000000;stroke-width:0.5;" x="239.578125" xlink:href="#md42f076586" y="79.399655"/>
      </g>
     </g>
    </g>
    <g id="ytick_25">
     <g id="line2d_83">
      <g>
       <use style="stroke:#000000;stroke-width:0.5;" x="44.278125" xlink:href="#m690e460512" y="75.834029"/>
      </g>
     </g>
     <g id="line2d_84">
      <g>
       <use style="stroke:#000000;stroke-width:0.5;" x="239.578125" xlink:href="#md42f076586" y="75.834029"/>
      </g>
     </g>
    </g>
    <g id="ytick_26">
     <g id="line2d_85">
      <g>
       <use style="stroke:#000000;stroke-width:0.5;" x="44.278125" xlink:href="#m690e460512" y="73.068314"/>
      </g>
     </g>
     <g id="line2d_86">
      <g>
       <use style="stroke:#000000;stroke-width:0.5;" x="239.578125" xlink:href="#md42f076586" y="73.068314"/>
      </g>
     </g>
    </g>
    <g id="ytick_27">
     <g id="line2d_87">
      <g>
       <use style="stroke:#000000;stroke-width:0.5;" x="44.278125" xlink:href="#m690e460512" y="70.80856"/>
      </g>
     </g>
     <g id="line2d_88">
      <g>
       <use style="stroke:#000000;stroke-width:0.5;" x="239.578125" xlink:href="#md42f076586" y="70.80856"/>
      </g>
     </g>
    </g>
    <g id="ytick_28">
     <g id="line2d_89">
      <g>
       <use style="stroke:#000000;stroke-width:0.5;" x="44.278125" xlink:href="#m690e460512" y="68.897966"/>
      </g>
     </g>
     <g id="line2d_90">
      <g>
       <use style="stroke:#000000;stroke-width:0.5;" x="239.578125" xlink:href="#md42f076586" y="68.897966"/>
      </g>
     </g>
    </g>
    <g id="ytick_29">
     <g id="line2d_91">
      <g>
       <use style="stroke:#000000;stroke-width:0.5;" x="44.278125" xlink:href="#m690e460512" y="67.242934"/>
      </g>
     </g>
     <g id="line2d_92">
      <g>
       <use style="stroke:#000000;stroke-width:0.5;" x="239.578125" xlink:href="#md42f076586" y="67.242934"/>
      </g>
     </g>
    </g>
    <g id="ytick_30">
     <g id="line2d_93">
      <g>
       <use style="stroke:#000000;stroke-width:0.5;" x="44.278125" xlink:href="#m690e460512" y="65.783092"/>
      </g>
     </g>
     <g id="line2d_94">
      <g>
       <use style="stroke:#000000;stroke-width:0.5;" x="239.578125" xlink:href="#md42f076586" y="65.783092"/>
      </g>
     </g>
    </g>
    <g id="ytick_31">
     <g id="line2d_95">
      <g>
       <use style="stroke:#000000;stroke-width:0.5;" x="44.278125" xlink:href="#m690e460512" y="55.886124"/>
      </g>
     </g>
     <g id="line2d_96">
      <g>
       <use style="stroke:#000000;stroke-width:0.5;" x="239.578125" xlink:href="#md42f076586" y="55.886124"/>
      </g>
     </g>
    </g>
    <g id="ytick_32">
     <g id="line2d_97">
      <g>
       <use style="stroke:#000000;stroke-width:0.5;" x="44.278125" xlink:href="#m690e460512" y="50.860655"/>
      </g>
     </g>
     <g id="line2d_98">
      <g>
       <use style="stroke:#000000;stroke-width:0.5;" x="239.578125" xlink:href="#md42f076586" y="50.860655"/>
      </g>
     </g>
    </g>
    <g id="ytick_33">
     <g id="line2d_99">
      <g>
       <use style="stroke:#000000;stroke-width:0.5;" x="44.278125" xlink:href="#m690e460512" y="47.295029"/>
      </g>
     </g>
     <g id="line2d_100">
      <g>
       <use style="stroke:#000000;stroke-width:0.5;" x="239.578125" xlink:href="#md42f076586" y="47.295029"/>
      </g>
     </g>
    </g>
    <g id="ytick_34">
     <g id="line2d_101">
      <g>
       <use style="stroke:#000000;stroke-width:0.5;" x="44.278125" xlink:href="#m690e460512" y="44.529314"/>
      </g>
     </g>
     <g id="line2d_102">
      <g>
       <use style="stroke:#000000;stroke-width:0.5;" x="239.578125" xlink:href="#md42f076586" y="44.529314"/>
      </g>
     </g>
    </g>
    <g id="ytick_35">
     <g id="line2d_103">
      <g>
       <use style="stroke:#000000;stroke-width:0.5;" x="44.278125" xlink:href="#m690e460512" y="42.26956"/>
      </g>
     </g>
     <g id="line2d_104">
      <g>
       <use style="stroke:#000000;stroke-width:0.5;" x="239.578125" xlink:href="#md42f076586" y="42.26956"/>
      </g>
     </g>
    </g>
    <g id="ytick_36">
     <g id="line2d_105">
      <g>
       <use style="stroke:#000000;stroke-width:0.5;" x="44.278125" xlink:href="#m690e460512" y="40.358966"/>
      </g>
     </g>
     <g id="line2d_106">
      <g>
       <use style="stroke:#000000;stroke-width:0.5;" x="239.578125" xlink:href="#md42f076586" y="40.358966"/>
      </g>
     </g>
    </g>
    <g id="ytick_37">
     <g id="line2d_107">
      <g>
       <use style="stroke:#000000;stroke-width:0.5;" x="44.278125" xlink:href="#m690e460512" y="38.703934"/>
      </g>
     </g>
     <g id="line2d_108">
      <g>
       <use style="stroke:#000000;stroke-width:0.5;" x="239.578125" xlink:href="#md42f076586" y="38.703934"/>
      </g>
     </g>
    </g>
    <g id="ytick_38">
     <g id="line2d_109">
      <g>
       <use style="stroke:#000000;stroke-width:0.5;" x="44.278125" xlink:href="#m690e460512" y="37.244092"/>
      </g>
     </g>
     <g id="line2d_110">
      <g>
       <use style="stroke:#000000;stroke-width:0.5;" x="239.578125" xlink:href="#md42f076586" y="37.244092"/>
      </g>
     </g>
    </g>
    <g id="ytick_39">
     <g id="line2d_111">
      <g>
       <use style="stroke:#000000;stroke-width:0.5;" x="44.278125" xlink:href="#m690e460512" y="27.347124"/>
      </g>
     </g>
     <g id="line2d_112">
      <g>
       <use style="stroke:#000000;stroke-width:0.5;" x="239.578125" xlink:href="#md42f076586" y="27.347124"/>
      </g>
     </g>
    </g>
    <g id="ytick_40">
     <g id="line2d_113">
      <g>
       <use style="stroke:#000000;stroke-width:0.5;" x="44.278125" xlink:href="#m690e460512" y="22.321655"/>
      </g>
     </g>
     <g id="line2d_114">
      <g>
       <use style="stroke:#000000;stroke-width:0.5;" x="239.578125" xlink:href="#md42f076586" y="22.321655"/>
      </g>
     </g>
    </g>
    <g id="ytick_41">
     <g id="line2d_115">
      <g>
       <use style="stroke:#000000;stroke-width:0.5;" x="44.278125" xlink:href="#m690e460512" y="18.756029"/>
      </g>
     </g>
     <g id="line2d_116">
      <g>
       <use style="stroke:#000000;stroke-width:0.5;" x="239.578125" xlink:href="#md42f076586" y="18.756029"/>
      </g>
     </g>
    </g>
    <g id="ytick_42">
     <g id="line2d_117">
      <g>
       <use style="stroke:#000000;stroke-width:0.5;" x="44.278125" xlink:href="#m690e460512" y="15.990314"/>
      </g>
     </g>
     <g id="line2d_118">
      <g>
       <use style="stroke:#000000;stroke-width:0.5;" x="239.578125" xlink:href="#md42f076586" y="15.990314"/>
      </g>
     </g>
    </g>
    <g id="ytick_43">
     <g id="line2d_119">
      <g>
       <use style="stroke:#000000;stroke-width:0.5;" x="44.278125" xlink:href="#m690e460512" y="13.73056"/>
      </g>
     </g>
     <g id="line2d_120">
      <g>
       <use style="stroke:#000000;stroke-width:0.5;" x="239.578125" xlink:href="#md42f076586" y="13.73056"/>
      </g>
     </g>
    </g>
    <g id="ytick_44">
     <g id="line2d_121">
      <g>
       <use style="stroke:#000000;stroke-width:0.5;" x="44.278125" xlink:href="#m690e460512" y="11.819966"/>
      </g>
     </g>
     <g id="line2d_122">
      <g>
       <use style="stroke:#000000;stroke-width:0.5;" x="239.578125" xlink:href="#md42f076586" y="11.819966"/>
      </g>
     </g>
    </g>
    <g id="ytick_45">
     <g id="line2d_123">
      <g>
       <use style="stroke:#000000;stroke-width:0.5;" x="44.278125" xlink:href="#m690e460512" y="10.164934"/>
      </g>
     </g>
     <g id="line2d_124">
      <g>
       <use style="stroke:#000000;stroke-width:0.5;" x="239.578125" xlink:href="#md42f076586" y="10.164934"/>
      </g>
     </g>
    </g>
    <g id="ytick_46">
     <g id="line2d_125">
      <g>
       <use style="stroke:#000000;stroke-width:0.5;" x="44.278125" xlink:href="#m690e460512" y="8.705092"/>
      </g>
     </g>
     <g id="line2d_126">
      <g>
       <use style="stroke:#000000;stroke-width:0.5;" x="239.578125" xlink:href="#md42f076586" y="8.705092"/>
      </g>
     </g>
    </g>
    <g id="text_12">
     <!-- Voltage / V -->
     <g transform="translate(11.198438 105.785781)rotate(-90)scale(0.1 -0.1)">
      <defs>
       <path d="M 1831 0 
L 50 4666 
L 709 4666 
L 2188 738 
L 3669 4666 
L 4325 4666 
L 2547 0 
L 1831 0 
z
" id="DejaVuSans-56" transform="scale(0.015625)"/>
       <path d="M 1959 3097 
Q 1497 3097 1228 2736 
Q 959 2375 959 1747 
Q 959 1119 1226 758 
Q 1494 397 1959 397 
Q 2419 397 2687 759 
Q 2956 1122 2956 1747 
Q 2956 2369 2687 2733 
Q 2419 3097 1959 3097 
z
M 1959 3584 
Q 2709 3584 3137 3096 
Q 3566 2609 3566 1747 
Q 3566 888 3137 398 
Q 2709 -91 1959 -91 
Q 1206 -91 779 398 
Q 353 888 353 1747 
Q 353 2609 779 3096 
Q 1206 3584 1959 3584 
z
" id="DejaVuSans-6f" transform="scale(0.015625)"/>
       <path d="M 603 4863 
L 1178 4863 
L 1178 0 
L 603 0 
L 603 4863 
z
" id="DejaVuSans-6c" transform="scale(0.015625)"/>
       <path d="M 1625 4666 
L 2156 4666 
L 531 -594 
L 0 -594 
L 1625 4666 
z
" id="DejaVuSans-2f" transform="scale(0.015625)"/>
      </defs>
      <use xlink:href="#DejaVuSans-56"/>
      <use x="60.658203" xlink:href="#DejaVuSans-6f"/>
      <use x="121.839844" xlink:href="#DejaVuSans-6c"/>
      <use x="149.623047" xlink:href="#DejaVuSans-74"/>
      <use x="188.832031" xlink:href="#DejaVuSans-61"/>
      <use x="250.111328" xlink:href="#DejaVuSans-67"/>
      <use x="313.587891" xlink:href="#DejaVuSans-65"/>
      <use x="375.111328" xlink:href="#DejaVuSans-20"/>
      <use x="406.898438" xlink:href="#DejaVuSans-2f"/>
      <use x="440.589844" xlink:href="#DejaVuSans-20"/>
      <use x="472.376953" xlink:href="#DejaVuSans-56"/>
     </g>
    </g>
   </g>
   <g id="line2d_127">
    <path clip-path="url(#p87a61df8ca)" d="M 53.155398 51.170234 
L 54.315826 55.650037 
L 55.476253 57.417995 
L 56.636681 57.888221 
L 62.43882 58.562838 
L 70.561815 59.497956 
L 71.722243 59.733004 
L 78.684809 60.343434 
L 112.337216 63.031597 
L 115.818499 63.379335 
L 122.781066 63.898777 
L 127.422777 64.343016 
L 133.224916 64.801679 
L 166.877323 68.154508 
L 192.406735 71.816785 
L 200.529729 73.086693 
L 204.011013 73.638664 
L 216.775719 75.557102 
L 217.936146 75.897207 
L 219.096574 76.037063 
L 222.577858 77.027233 
L 224.898713 82.612798 
L 226.059141 85.659922 
L 227.219569 111.744224 
L 228.379997 117.702724 
L 228.455253 181.550469 
L 228.455253 181.550469 
" style="fill:none;stroke:#0c5da5;stroke-linecap:square;"/>
   </g>
   <g id="line2d_128">
    <path clip-path="url(#p87a61df8ca)" d="M 53.155398 75.407244 
L 55.476253 81.246404 
L 56.636681 82.595354 
L 58.957537 86.328538 
L 60.117965 87.339692 
L 61.278392 88.797819 
L 62.43882 90.075402 
L 63.599248 90.474002 
L 65.920104 91.66632 
L 67.080531 92.427579 
L 69.401387 93.431234 
L 70.561815 93.983183 
L 71.722243 95.331776 
L 72.88267 96.267647 
L 75.203526 97.752537 
L 76.363954 98.298761 
L 77.524382 98.656295 
L 79.845237 100.155591 
L 81.005665 100.663061 
L 86.807804 104.191964 
L 87.968232 104.572155 
L 89.12866 105.090568 
L 91.449515 106.467017 
L 93.770371 107.188224 
L 114.658072 111.929195 
L 116.978927 112.589792 
L 120.460211 113.518318 
L 133.224916 117.461861 
L 139.027055 119.659264 
L 148.310478 123.917292 
L 150.631334 125.151303 
L 151.791761 125.762863 
L 154.112617 127.143131 
L 157.5939 129.370054 
L 163.396039 133.93191 
L 164.556467 134.89369 
L 165.716895 135.689381 
L 166.877323 136.630602 
L 168.037751 137.421024 
L 169.198178 138.567763 
L 171.519034 140.602061 
L 172.679462 141.911754 
L 177.321173 146.301279 
L 178.481601 147.950574 
L 179.642029 149.995751 
L 181.962884 153.516111 
L 183.123312 154.680566 
L 184.28374 156.171881 
L 185.444168 157.276355 
L 190.085879 165.945814 
L 191.246307 167.662878 
L 193.567162 173.567599 
L 194.72759 177.847381 
L 196.09308 181.550469 
L 196.09308 181.550469 
" style="fill:none;stroke:#ff9500;stroke-linecap:square;"/>
   </g>
   <g id="line2d_129">
    <path clip-path="url(#p87a61df8ca)" d="M 53.155398 8.799259 
L 54.315826 15.367779 
L 55.476253 21.013452 
L 56.636681 27.607655 
L 57.797109 32.311445 
L 58.957537 36.49073 
L 61.278392 41.142988 
L 62.43882 42.625067 
L 63.599248 43.304356 
L 64.759676 43.822274 
L 65.920104 44.468964 
L 67.080531 45.284459 
L 68.240959 45.813524 
L 70.561815 46.424712 
L 72.88267 46.902064 
L 81.005665 48.273989 
L 97.251654 50.23078 
L 177.321173 57.950157 
L 195.888018 60.306815 
L 199.369301 60.929517 
L 205.171441 61.976739 
L 210.97358 63.217454 
L 216.775719 64.798633 
L 219.096574 65.602139 
L 220.257002 65.988815 
L 221.41743 66.503743 
L 223.738285 67.859441 
L 224.898713 69.043963 
L 226.059141 70.679163 
L 227.219569 72.736131 
L 228.379997 79.314999 
L 229.540424 141.62105 
L 229.542057 181.550469 
L 229.542057 181.550469 
" style="fill:none;stroke:#00b945;stroke-linecap:square;"/>
   </g>
   <g id="line2d_130">
    <path clip-path="url(#p87a61df8ca)" d="M 53.155398 49.538575 
L 54.315826 61.409705 
L 55.476253 70.4197 
L 56.636681 75.544206 
L 57.797109 78.142239 
L 58.957537 79.82431 
L 60.117965 80.858306 
L 62.43882 82.225136 
L 63.599248 82.97738 
L 65.920104 84.154525 
L 72.88267 87.230041 
L 76.363954 88.559139 
L 78.684809 89.374735 
L 79.845237 89.925264 
L 81.005665 90.297562 
L 84.486949 91.805195 
L 85.647376 92.262001 
L 87.968232 93.386334 
L 94.930799 96.072667 
L 96.091227 96.764486 
L 99.57251 98.285624 
L 106.535077 100.663994 
L 108.855932 101.338196 
L 110.01636 101.840815 
L 112.337216 103.001903 
L 113.497644 103.538358 
L 114.658072 103.912556 
L 119.299783 106.409343 
L 120.460211 106.985066 
L 121.620638 107.772573 
L 122.781066 108.72216 
L 125.101922 109.985582 
L 126.26235 110.433022 
L 127.422777 111.137993 
L 128.583205 111.542458 
L 129.743633 112.544203 
L 132.064489 113.27135 
L 133.224916 114.153066 
L 135.545772 114.828836 
L 136.7062 115.331252 
L 140.187483 116.159992 
L 141.347911 116.723854 
L 143.668767 117.440475 
L 148.310478 119.745523 
L 149.470906 120.38739 
L 152.952189 121.576317 
L 158.754328 123.106513 
L 159.914756 123.227531 
L 161.075184 123.58768 
L 162.235612 124.078319 
L 164.556467 124.551985 
L 168.037751 125.301536 
L 171.519034 126.180925 
L 172.679462 126.622743 
L 175.000318 127.068557 
L 176.160745 127.595064 
L 178.481601 127.833876 
L 179.642029 127.948935 
L 184.28374 129.005655 
L 186.604596 129.20483 
L 187.765023 129.483857 
L 190.085879 129.771541 
L 191.246307 130.042105 
L 193.567162 130.196848 
L 194.72759 130.331133 
L 195.888018 130.584595 
L 197.048446 130.660764 
L 199.369301 131.060797 
L 202.850585 131.252835 
L 204.011013 131.691827 
L 205.171441 131.847028 
L 206.331868 132.524497 
L 209.813152 132.978158 
L 210.97358 133.3798 
L 214.454863 133.802332 
L 215.615291 134.159685 
L 216.775719 134.285524 
L 217.936146 135.074439 
L 220.257002 135.508058 
L 222.577858 136.654453 
L 223.738285 137.635656 
L 224.898713 138.896264 
L 226.059141 139.677172 
L 227.219569 145.387098 
L 228.379997 148.110175 
L 228.405319 181.550469 
L 228.405319 181.550469 
" style="fill:none;stroke:#ff2c00;stroke-linecap:square;"/>
   </g>
   <g id="line2d_131">
    <path clip-path="url(#p87a61df8ca)" d="M 53.155398 18.627573 
L 54.315826 23.19199 
L 57.797109 31.578567 
L 58.957537 32.806477 
L 61.278392 36.086273 
L 63.599248 38.156739 
L 64.759676 38.887398 
L 68.240959 40.289369 
L 70.561815 40.841345 
L 76.363954 41.720786 
L 84.486949 42.724291 
L 103.053793 45.063123 
L 111.176788 46.098484 
L 123.941494 47.458906 
L 172.679462 52.441918 
L 180.802457 53.455952 
L 202.850585 55.995742 
L 209.813152 57.034029 
L 213.294435 57.674223 
L 217.936146 59.200318 
L 220.257002 60.360903 
L 221.41743 60.935916 
L 222.577858 61.767556 
L 224.898713 66.412314 
L 226.059141 68.296884 
L 227.219569 74.521061 
L 228.379997 89.094819 
L 229.540424 139.524689 
L 229.542143 181.550469 
L 229.542143 181.550469 
" style="fill:none;stroke:#845b97;stroke-linecap:square;"/>
   </g>
   <g id="patch_3">
    <path d="M 44.278125 150.094219 
L 44.278125 7.399219 
" style="fill:none;stroke:#000000;stroke-linecap:square;stroke-linejoin:miter;stroke-width:0.5;"/>
   </g>
   <g id="patch_4">
    <path d="M 239.578125 150.094219 
L 239.578125 7.399219 
" style="fill:none;stroke:#000000;stroke-linecap:square;stroke-linejoin:miter;stroke-width:0.5;"/>
   </g>
   <g id="patch_5">
    <path d="M 44.278125 150.094219 
L 239.578125 150.094219 
" style="fill:none;stroke:#000000;stroke-linecap:square;stroke-linejoin:miter;stroke-width:0.5;"/>
   </g>
   <g id="patch_6">
    <path d="M 44.278125 7.399219 
L 239.578125 7.399219 
" style="fill:none;stroke:#000000;stroke-linecap:square;stroke-linejoin:miter;stroke-width:0.5;"/>
   </g>
  </g>
 </g>
 <defs>
  <clipPath id="p87a61df8ca">
   <rect height="142.695" width="195.3" x="44.278125" y="7.399219"/>
  </clipPath>
 </defs>
</svg>
