<?xml version="1.0" encoding="utf-8" standalone="no"?>
<!DOCTYPE svg PUBLIC "-//W3C//DTD SVG 1.1//EN"
  "http://www.w3.org/Graphics/SVG/1.1/DTD/svg11.dtd">
<svg height="176.75125pt" version="1.1" viewBox="0 0 241.94375 176.75125" width="241.94375pt" xmlns="http://www.w3.org/2000/svg" xmlns:xlink="http://www.w3.org/1999/xlink">
 <metadata>
  <rdf:RDF xmlns:cc="http://creativecommons.org/ns#" xmlns:dc="http://purl.org/dc/elements/1.1/" xmlns:rdf="http://www.w3.org/1999/02/22-rdf-syntax-ns#">
   <cc:Work>
    <dc:type rdf:resource="http://purl.org/dc/dcmitype/StillImage"/>
    <dc:date>2023-05-24T09:08:43.221568</dc:date>
    <dc:format>image/svg+xml</dc:format>
    <dc:creator>
     <cc:Agent>
      <dc:title>Matplotlib v3.4.3, https://matplotlib.org/</dc:title>
     </cc:Agent>
    </dc:creator>
   </cc:Work>
  </rdf:RDF>
 </metadata>
 <defs>
  <style type="text/css">*{stroke-linecap:butt;stroke-linejoin:round;}</style>
 </defs>
 <g id="figure_1">
  <g id="patch_1">
   <path d="M -0 176.75125 
L 241.94375 176.75125 
L 241.94375 0 
L -0 0 
z
" style="fill:none;"/>
  </g>
  <g id="axes_1">
   <g id="patch_2">
    <path d="M 36.68125 146.295 
L 231.98125 146.295 
L 231.98125 3.6 
L 36.68125 3.6 
z
" style="fill:#ffffff;"/>
   </g>
   <g id="PolyCollection_1">
    <path clip-path="url(#p411ea2e829)" d="M 36.68125 134.108549 
L 36.68125 136.721173 
L 47.53125 124.288755 
L 58.38125 122.155276 
L 69.23125 118.803082 
L 80.08125 112.898174 
L 90.93125 107.447177 
L 101.78125 103.412014 
L 112.63125 98.525433 
L 123.48125 96.093839 
L 134.33125 92.360964 
L 145.18125 93.732361 
L 156.03125 90.138319 
L 166.88125 87.6555 
L 177.73125 83.102227 
L 188.58125 80.046251 
L 199.43125 77.513577 
L 210.28125 75.205084 
L 221.13125 73.245184 
L 231.98125 71.529928 
L 231.98125 68.30324 
L 231.98125 68.30324 
L 221.13125 69.725168 
L 210.28125 71.135501 
L 199.43125 72.84668 
L 188.58125 76.672115 
L 177.73125 76.305002 
L 166.88125 79.276027 
L 156.03125 83.977493 
L 145.18125 87.507834 
L 134.33125 88.698686 
L 123.48125 91.529154 
L 112.63125 95.515564 
L 101.78125 101.643274 
L 90.93125 104.519737 
L 80.08125 111.645963 
L 69.23125 114.926765 
L 58.38125 117.60206 
L 47.53125 121.489129 
L 36.68125 134.108549 
z
" style="fill:#0c5da5;fill-opacity:0.15;"/>
   </g>
   <g id="PolyCollection_2">
    <path clip-path="url(#p411ea2e829)" d="M 36.68125 132.985028 
L 36.68125 135.436242 
L 47.53125 111.731278 
L 58.38125 98.350628 
L 69.23125 99.426028 
L 80.08125 78.440974 
L 90.93125 67.094442 
L 101.78125 62.461663 
L 112.63125 62.479524 
L 123.48125 60.117434 
L 134.33125 58.096675 
L 145.18125 57.986332 
L 156.03125 52.488467 
L 166.88125 48.963273 
L 177.73125 39.457385 
L 188.58125 32.555793 
L 199.43125 29.195049 
L 210.28125 27.259098 
L 221.13125 24.774485 
L 231.98125 20.139153 
L 231.98125 10.086136 
L 231.98125 10.086136 
L 221.13125 14.777921 
L 210.28125 17.851196 
L 199.43125 20.107081 
L 188.58125 25.616363 
L 177.73125 27.994338 
L 166.88125 29.207368 
L 156.03125 35.65502 
L 145.18125 41.959718 
L 134.33125 43.095602 
L 123.48125 45.351376 
L 112.63125 49.976748 
L 101.78125 52.94229 
L 90.93125 57.756591 
L 80.08125 74.075425 
L 69.23125 84.721219 
L 58.38125 91.771183 
L 47.53125 108.488335 
L 36.68125 132.985028 
z
" style="fill:#ff9500;fill-opacity:0.15;"/>
   </g>
   <g id="PolyCollection_3">
    <path clip-path="url(#p411ea2e829)" d="M 36.68125 132.658092 
L 36.68125 139.808864 
L 47.53125 107.079774 
L 58.38125 79.207458 
L 69.23125 64.028536 
L 80.08125 64.239806 
L 90.93125 69.337014 
L 101.78125 66.102302 
L 112.63125 58.282813 
L 123.48125 56.450706 
L 134.33125 58.722756 
L 145.18125 62.626324 
L 156.03125 62.279083 
L 166.88125 62.178285 
L 177.73125 55.576148 
L 188.58125 51.815472 
L 199.43125 46.210006 
L 210.28125 45.403689 
L 221.13125 42.487438 
L 231.98125 40.02925 
L 231.98125 18.422119 
L 231.98125 18.422119 
L 221.13125 20.560692 
L 210.28125 22.154298 
L 199.43125 22.247379 
L 188.58125 29.839215 
L 177.73125 30.778156 
L 166.88125 38.841872 
L 156.03125 46.96657 
L 145.18125 50.07716 
L 134.33125 46.410214 
L 123.48125 39.688543 
L 112.63125 41.906324 
L 101.78125 51.591138 
L 90.93125 32.464509 
L 80.08125 47.022619 
L 69.23125 53.335835 
L 58.38125 65.65859 
L 47.53125 75.45179 
L 36.68125 132.658092 
z
" style="fill:#00b945;fill-opacity:0.15;"/>
   </g>
   <g id="matplotlib.axis_1">
    <g id="xtick_1">
     <g id="line2d_1">
      <defs>
       <path d="M 0 0 
L 0 -3 
" id="mca23915b9d" style="stroke:#000000;stroke-width:0.5;"/>
      </defs>
      <g>
       <use style="stroke:#000000;stroke-width:0.5;" x="69.23125" xlink:href="#mca23915b9d" y="146.295"/>
      </g>
     </g>
     <g id="line2d_2">
      <defs>
       <path d="M 0 0 
L 0 3 
" id="m5ef1658c51" style="stroke:#000000;stroke-width:0.5;"/>
      </defs>
      <g>
       <use style="stroke:#000000;stroke-width:0.5;" x="69.23125" xlink:href="#m5ef1658c51" y="3.6"/>
      </g>
     </g>
     <g id="text_1">
      <!-- 5 -->
      <g transform="translate(66.05 157.393437)scale(0.1 -0.1)">
       <defs>
        <path d="M 691 4666 
L 3169 4666 
L 3169 4134 
L 1269 4134 
L 1269 2991 
Q 1406 3038 1543 3061 
Q 1681 3084 1819 3084 
Q 2600 3084 3056 2656 
Q 3513 2228 3513 1497 
Q 3513 744 3044 326 
Q 2575 -91 1722 -91 
Q 1428 -91 1123 -41 
Q 819 9 494 109 
L 494 744 
Q 775 591 1075 516 
Q 1375 441 1709 441 
Q 2250 441 2565 725 
Q 2881 1009 2881 1497 
Q 2881 1984 2565 2268 
Q 2250 2553 1709 2553 
Q 1456 2553 1204 2497 
Q 953 2441 691 2322 
L 691 4666 
z
" id="DejaVuSans-35" transform="scale(0.015625)"/>
       </defs>
       <use xlink:href="#DejaVuSans-35"/>
      </g>
     </g>
    </g>
    <g id="xtick_2">
     <g id="line2d_3">
      <g>
       <use style="stroke:#000000;stroke-width:0.5;" x="123.48125" xlink:href="#mca23915b9d" y="146.295"/>
      </g>
     </g>
     <g id="line2d_4">
      <g>
       <use style="stroke:#000000;stroke-width:0.5;" x="123.48125" xlink:href="#m5ef1658c51" y="3.6"/>
      </g>
     </g>
     <g id="text_2">
      <!-- 10 -->
      <g transform="translate(117.11875 157.393437)scale(0.1 -0.1)">
       <defs>
        <path d="M 794 531 
L 1825 531 
L 1825 4091 
L 703 3866 
L 703 4441 
L 1819 4666 
L 2450 4666 
L 2450 531 
L 3481 531 
L 3481 0 
L 794 0 
L 794 531 
z
" id="DejaVuSans-31" transform="scale(0.015625)"/>
        <path d="M 2034 4250 
Q 1547 4250 1301 3770 
Q 1056 3291 1056 2328 
Q 1056 1369 1301 889 
Q 1547 409 2034 409 
Q 2525 409 2770 889 
Q 3016 1369 3016 2328 
Q 3016 3291 2770 3770 
Q 2525 4250 2034 4250 
z
M 2034 4750 
Q 2819 4750 3233 4129 
Q 3647 3509 3647 2328 
Q 3647 1150 3233 529 
Q 2819 -91 2034 -91 
Q 1250 -91 836 529 
Q 422 1150 422 2328 
Q 422 3509 836 4129 
Q 1250 4750 2034 4750 
z
" id="DejaVuSans-30" transform="scale(0.015625)"/>
       </defs>
       <use xlink:href="#DejaVuSans-31"/>
       <use x="63.623047" xlink:href="#DejaVuSans-30"/>
      </g>
     </g>
    </g>
    <g id="xtick_3">
     <g id="line2d_5">
      <g>
       <use style="stroke:#000000;stroke-width:0.5;" x="177.73125" xlink:href="#mca23915b9d" y="146.295"/>
      </g>
     </g>
     <g id="line2d_6">
      <g>
       <use style="stroke:#000000;stroke-width:0.5;" x="177.73125" xlink:href="#m5ef1658c51" y="3.6"/>
      </g>
     </g>
     <g id="text_3">
      <!-- 15 -->
      <g transform="translate(171.36875 157.393437)scale(0.1 -0.1)">
       <use xlink:href="#DejaVuSans-31"/>
       <use x="63.623047" xlink:href="#DejaVuSans-35"/>
      </g>
     </g>
    </g>
    <g id="xtick_4">
     <g id="line2d_7">
      <g>
       <use style="stroke:#000000;stroke-width:0.5;" x="231.98125" xlink:href="#mca23915b9d" y="146.295"/>
      </g>
     </g>
     <g id="line2d_8">
      <g>
       <use style="stroke:#000000;stroke-width:0.5;" x="231.98125" xlink:href="#m5ef1658c51" y="3.6"/>
      </g>
     </g>
     <g id="text_4">
      <!-- 20 -->
      <g transform="translate(225.61875 157.393437)scale(0.1 -0.1)">
       <defs>
        <path d="M 1228 531 
L 3431 531 
L 3431 0 
L 469 0 
L 469 531 
Q 828 903 1448 1529 
Q 2069 2156 2228 2338 
Q 2531 2678 2651 2914 
Q 2772 3150 2772 3378 
Q 2772 3750 2511 3984 
Q 2250 4219 1831 4219 
Q 1534 4219 1204 4116 
Q 875 4013 500 3803 
L 500 4441 
Q 881 4594 1212 4672 
Q 1544 4750 1819 4750 
Q 2544 4750 2975 4387 
Q 3406 4025 3406 3419 
Q 3406 3131 3298 2873 
Q 3191 2616 2906 2266 
Q 2828 2175 2409 1742 
Q 1991 1309 1228 531 
z
" id="DejaVuSans-32" transform="scale(0.015625)"/>
       </defs>
       <use xlink:href="#DejaVuSans-32"/>
       <use x="63.623047" xlink:href="#DejaVuSans-30"/>
      </g>
     </g>
    </g>
    <g id="xtick_5">
     <g id="line2d_9">
      <defs>
       <path d="M 0 0 
L 0 -1.5 
" id="m9d99a86f69" style="stroke:#000000;stroke-width:0.5;"/>
      </defs>
      <g>
       <use style="stroke:#000000;stroke-width:0.5;" x="47.53125" xlink:href="#m9d99a86f69" y="146.295"/>
      </g>
     </g>
     <g id="line2d_10">
      <defs>
       <path d="M 0 0 
L 0 1.5 
" id="m9595b4f5cb" style="stroke:#000000;stroke-width:0.5;"/>
      </defs>
      <g>
       <use style="stroke:#000000;stroke-width:0.5;" x="47.53125" xlink:href="#m9595b4f5cb" y="3.6"/>
      </g>
     </g>
    </g>
    <g id="xtick_6">
     <g id="line2d_11">
      <g>
       <use style="stroke:#000000;stroke-width:0.5;" x="58.38125" xlink:href="#m9d99a86f69" y="146.295"/>
      </g>
     </g>
     <g id="line2d_12">
      <g>
       <use style="stroke:#000000;stroke-width:0.5;" x="58.38125" xlink:href="#m9595b4f5cb" y="3.6"/>
      </g>
     </g>
    </g>
    <g id="xtick_7">
     <g id="line2d_13">
      <g>
       <use style="stroke:#000000;stroke-width:0.5;" x="80.08125" xlink:href="#m9d99a86f69" y="146.295"/>
      </g>
     </g>
     <g id="line2d_14">
      <g>
       <use style="stroke:#000000;stroke-width:0.5;" x="80.08125" xlink:href="#m9595b4f5cb" y="3.6"/>
      </g>
     </g>
    </g>
    <g id="xtick_8">
     <g id="line2d_15">
      <g>
       <use style="stroke:#000000;stroke-width:0.5;" x="90.93125" xlink:href="#m9d99a86f69" y="146.295"/>
      </g>
     </g>
     <g id="line2d_16">
      <g>
       <use style="stroke:#000000;stroke-width:0.5;" x="90.93125" xlink:href="#m9595b4f5cb" y="3.6"/>
      </g>
     </g>
    </g>
    <g id="xtick_9">
     <g id="line2d_17">
      <g>
       <use style="stroke:#000000;stroke-width:0.5;" x="101.78125" xlink:href="#m9d99a86f69" y="146.295"/>
      </g>
     </g>
     <g id="line2d_18">
      <g>
       <use style="stroke:#000000;stroke-width:0.5;" x="101.78125" xlink:href="#m9595b4f5cb" y="3.6"/>
      </g>
     </g>
    </g>
    <g id="xtick_10">
     <g id="line2d_19">
      <g>
       <use style="stroke:#000000;stroke-width:0.5;" x="112.63125" xlink:href="#m9d99a86f69" y="146.295"/>
      </g>
     </g>
     <g id="line2d_20">
      <g>
       <use style="stroke:#000000;stroke-width:0.5;" x="112.63125" xlink:href="#m9595b4f5cb" y="3.6"/>
      </g>
     </g>
    </g>
    <g id="xtick_11">
     <g id="line2d_21">
      <g>
       <use style="stroke:#000000;stroke-width:0.5;" x="134.33125" xlink:href="#m9d99a86f69" y="146.295"/>
      </g>
     </g>
     <g id="line2d_22">
      <g>
       <use style="stroke:#000000;stroke-width:0.5;" x="134.33125" xlink:href="#m9595b4f5cb" y="3.6"/>
      </g>
     </g>
    </g>
    <g id="xtick_12">
     <g id="line2d_23">
      <g>
       <use style="stroke:#000000;stroke-width:0.5;" x="145.18125" xlink:href="#m9d99a86f69" y="146.295"/>
      </g>
     </g>
     <g id="line2d_24">
      <g>
       <use style="stroke:#000000;stroke-width:0.5;" x="145.18125" xlink:href="#m9595b4f5cb" y="3.6"/>
      </g>
     </g>
    </g>
    <g id="xtick_13">
     <g id="line2d_25">
      <g>
       <use style="stroke:#000000;stroke-width:0.5;" x="156.03125" xlink:href="#m9d99a86f69" y="146.295"/>
      </g>
     </g>
     <g id="line2d_26">
      <g>
       <use style="stroke:#000000;stroke-width:0.5;" x="156.03125" xlink:href="#m9595b4f5cb" y="3.6"/>
      </g>
     </g>
    </g>
    <g id="xtick_14">
     <g id="line2d_27">
      <g>
       <use style="stroke:#000000;stroke-width:0.5;" x="166.88125" xlink:href="#m9d99a86f69" y="146.295"/>
      </g>
     </g>
     <g id="line2d_28">
      <g>
       <use style="stroke:#000000;stroke-width:0.5;" x="166.88125" xlink:href="#m9595b4f5cb" y="3.6"/>
      </g>
     </g>
    </g>
    <g id="xtick_15">
     <g id="line2d_29">
      <g>
       <use style="stroke:#000000;stroke-width:0.5;" x="188.58125" xlink:href="#m9d99a86f69" y="146.295"/>
      </g>
     </g>
     <g id="line2d_30">
      <g>
       <use style="stroke:#000000;stroke-width:0.5;" x="188.58125" xlink:href="#m9595b4f5cb" y="3.6"/>
      </g>
     </g>
    </g>
    <g id="xtick_16">
     <g id="line2d_31">
      <g>
       <use style="stroke:#000000;stroke-width:0.5;" x="199.43125" xlink:href="#m9d99a86f69" y="146.295"/>
      </g>
     </g>
     <g id="line2d_32">
      <g>
       <use style="stroke:#000000;stroke-width:0.5;" x="199.43125" xlink:href="#m9595b4f5cb" y="3.6"/>
      </g>
     </g>
    </g>
    <g id="xtick_17">
     <g id="line2d_33">
      <g>
       <use style="stroke:#000000;stroke-width:0.5;" x="210.28125" xlink:href="#m9d99a86f69" y="146.295"/>
      </g>
     </g>
     <g id="line2d_34">
      <g>
       <use style="stroke:#000000;stroke-width:0.5;" x="210.28125" xlink:href="#m9595b4f5cb" y="3.6"/>
      </g>
     </g>
    </g>
    <g id="xtick_18">
     <g id="line2d_35">
      <g>
       <use style="stroke:#000000;stroke-width:0.5;" x="221.13125" xlink:href="#m9d99a86f69" y="146.295"/>
      </g>
     </g>
     <g id="line2d_36">
      <g>
       <use style="stroke:#000000;stroke-width:0.5;" x="221.13125" xlink:href="#m9595b4f5cb" y="3.6"/>
      </g>
     </g>
    </g>
    <g id="text_5">
     <!-- # Components -->
     <g transform="translate(96.91875 171.071562)scale(0.1 -0.1)">
      <defs>
       <path d="M 3272 2816 
L 2363 2816 
L 2100 1772 
L 3016 1772 
L 3272 2816 
z
M 2803 4594 
L 2478 3297 
L 3391 3297 
L 3719 4594 
L 4219 4594 
L 3897 3297 
L 4872 3297 
L 4872 2816 
L 3775 2816 
L 3519 1772 
L 4513 1772 
L 4513 1294 
L 3397 1294 
L 3072 0 
L 2572 0 
L 2894 1294 
L 1978 1294 
L 1656 0 
L 1153 0 
L 1478 1294 
L 494 1294 
L 494 1772 
L 1594 1772 
L 1856 2816 
L 850 2816 
L 850 3297 
L 1978 3297 
L 2297 4594 
L 2803 4594 
z
" id="DejaVuSans-23" transform="scale(0.015625)"/>
       <path id="DejaVuSans-20" transform="scale(0.015625)"/>
       <path d="M 4122 4306 
L 4122 3641 
Q 3803 3938 3442 4084 
Q 3081 4231 2675 4231 
Q 1875 4231 1450 3742 
Q 1025 3253 1025 2328 
Q 1025 1406 1450 917 
Q 1875 428 2675 428 
Q 3081 428 3442 575 
Q 3803 722 4122 1019 
L 4122 359 
Q 3791 134 3420 21 
Q 3050 -91 2638 -91 
Q 1578 -91 968 557 
Q 359 1206 359 2328 
Q 359 3453 968 4101 
Q 1578 4750 2638 4750 
Q 3056 4750 3426 4639 
Q 3797 4528 4122 4306 
z
" id="DejaVuSans-43" transform="scale(0.015625)"/>
       <path d="M 1959 3097 
Q 1497 3097 1228 2736 
Q 959 2375 959 1747 
Q 959 1119 1226 758 
Q 1494 397 1959 397 
Q 2419 397 2687 759 
Q 2956 1122 2956 1747 
Q 2956 2369 2687 2733 
Q 2419 3097 1959 3097 
z
M 1959 3584 
Q 2709 3584 3137 3096 
Q 3566 2609 3566 1747 
Q 3566 888 3137 398 
Q 2709 -91 1959 -91 
Q 1206 -91 779 398 
Q 353 888 353 1747 
Q 353 2609 779 3096 
Q 1206 3584 1959 3584 
z
" id="DejaVuSans-6f" transform="scale(0.015625)"/>
       <path d="M 3328 2828 
Q 3544 3216 3844 3400 
Q 4144 3584 4550 3584 
Q 5097 3584 5394 3201 
Q 5691 2819 5691 2113 
L 5691 0 
L 5113 0 
L 5113 2094 
Q 5113 2597 4934 2840 
Q 4756 3084 4391 3084 
Q 3944 3084 3684 2787 
Q 3425 2491 3425 1978 
L 3425 0 
L 2847 0 
L 2847 2094 
Q 2847 2600 2669 2842 
Q 2491 3084 2119 3084 
Q 1678 3084 1418 2786 
Q 1159 2488 1159 1978 
L 1159 0 
L 581 0 
L 581 3500 
L 1159 3500 
L 1159 2956 
Q 1356 3278 1631 3431 
Q 1906 3584 2284 3584 
Q 2666 3584 2933 3390 
Q 3200 3197 3328 2828 
z
" id="DejaVuSans-6d" transform="scale(0.015625)"/>
       <path d="M 1159 525 
L 1159 -1331 
L 581 -1331 
L 581 3500 
L 1159 3500 
L 1159 2969 
Q 1341 3281 1617 3432 
Q 1894 3584 2278 3584 
Q 2916 3584 3314 3078 
Q 3713 2572 3713 1747 
Q 3713 922 3314 415 
Q 2916 -91 2278 -91 
Q 1894 -91 1617 61 
Q 1341 213 1159 525 
z
M 3116 1747 
Q 3116 2381 2855 2742 
Q 2594 3103 2138 3103 
Q 1681 3103 1420 2742 
Q 1159 2381 1159 1747 
Q 1159 1113 1420 752 
Q 1681 391 2138 391 
Q 2594 391 2855 752 
Q 3116 1113 3116 1747 
z
" id="DejaVuSans-70" transform="scale(0.015625)"/>
       <path d="M 3513 2113 
L 3513 0 
L 2938 0 
L 2938 2094 
Q 2938 2591 2744 2837 
Q 2550 3084 2163 3084 
Q 1697 3084 1428 2787 
Q 1159 2491 1159 1978 
L 1159 0 
L 581 0 
L 581 3500 
L 1159 3500 
L 1159 2956 
Q 1366 3272 1645 3428 
Q 1925 3584 2291 3584 
Q 2894 3584 3203 3211 
Q 3513 2838 3513 2113 
z
" id="DejaVuSans-6e" transform="scale(0.015625)"/>
       <path d="M 3597 1894 
L 3597 1613 
L 953 1613 
Q 991 1019 1311 708 
Q 1631 397 2203 397 
Q 2534 397 2845 478 
Q 3156 559 3463 722 
L 3463 178 
Q 3153 47 2828 -22 
Q 2503 -91 2169 -91 
Q 1331 -91 842 396 
Q 353 884 353 1716 
Q 353 2575 817 3079 
Q 1281 3584 2069 3584 
Q 2775 3584 3186 3129 
Q 3597 2675 3597 1894 
z
M 3022 2063 
Q 3016 2534 2758 2815 
Q 2500 3097 2075 3097 
Q 1594 3097 1305 2825 
Q 1016 2553 972 2059 
L 3022 2063 
z
" id="DejaVuSans-65" transform="scale(0.015625)"/>
       <path d="M 1172 4494 
L 1172 3500 
L 2356 3500 
L 2356 3053 
L 1172 3053 
L 1172 1153 
Q 1172 725 1289 603 
Q 1406 481 1766 481 
L 2356 481 
L 2356 0 
L 1766 0 
Q 1100 0 847 248 
Q 594 497 594 1153 
L 594 3053 
L 172 3053 
L 172 3500 
L 594 3500 
L 594 4494 
L 1172 4494 
z
" id="DejaVuSans-74" transform="scale(0.015625)"/>
       <path d="M 2834 3397 
L 2834 2853 
Q 2591 2978 2328 3040 
Q 2066 3103 1784 3103 
Q 1356 3103 1142 2972 
Q 928 2841 928 2578 
Q 928 2378 1081 2264 
Q 1234 2150 1697 2047 
L 1894 2003 
Q 2506 1872 2764 1633 
Q 3022 1394 3022 966 
Q 3022 478 2636 193 
Q 2250 -91 1575 -91 
Q 1294 -91 989 -36 
Q 684 19 347 128 
L 347 722 
Q 666 556 975 473 
Q 1284 391 1588 391 
Q 1994 391 2212 530 
Q 2431 669 2431 922 
Q 2431 1156 2273 1281 
Q 2116 1406 1581 1522 
L 1381 1569 
Q 847 1681 609 1914 
Q 372 2147 372 2553 
Q 372 3047 722 3315 
Q 1072 3584 1716 3584 
Q 2034 3584 2315 3537 
Q 2597 3491 2834 3397 
z
" id="DejaVuSans-73" transform="scale(0.015625)"/>
      </defs>
      <use xlink:href="#DejaVuSans-23"/>
      <use x="83.789062" xlink:href="#DejaVuSans-20"/>
      <use x="115.576172" xlink:href="#DejaVuSans-43"/>
      <use x="185.400391" xlink:href="#DejaVuSans-6f"/>
      <use x="246.582031" xlink:href="#DejaVuSans-6d"/>
      <use x="343.994141" xlink:href="#DejaVuSans-70"/>
      <use x="407.470703" xlink:href="#DejaVuSans-6f"/>
      <use x="468.652344" xlink:href="#DejaVuSans-6e"/>
      <use x="532.03125" xlink:href="#DejaVuSans-65"/>
      <use x="593.554688" xlink:href="#DejaVuSans-6e"/>
      <use x="656.933594" xlink:href="#DejaVuSans-74"/>
      <use x="696.142578" xlink:href="#DejaVuSans-73"/>
     </g>
    </g>
   </g>
   <g id="matplotlib.axis_2">
    <g id="ytick_1">
     <g id="line2d_37">
      <defs>
       <path d="M 0 0 
L 3 0 
" id="m79cf6d15d3" style="stroke:#000000;stroke-width:0.5;"/>
      </defs>
      <g>
       <use style="stroke:#000000;stroke-width:0.5;" x="36.68125" xlink:href="#m79cf6d15d3" y="145.468137"/>
      </g>
     </g>
     <g id="line2d_38">
      <defs>
       <path d="M 0 0 
L -3 0 
" id="mdfa3516992" style="stroke:#000000;stroke-width:0.5;"/>
      </defs>
      <g>
       <use style="stroke:#000000;stroke-width:0.5;" x="231.98125" xlink:href="#mdfa3516992" y="145.468137"/>
      </g>
     </g>
     <g id="text_6">
      <!-- 0.1 -->
      <g transform="translate(17.278125 149.267356)scale(0.1 -0.1)">
       <defs>
        <path d="M 684 794 
L 1344 794 
L 1344 0 
L 684 0 
L 684 794 
z
" id="DejaVuSans-2e" transform="scale(0.015625)"/>
       </defs>
       <use xlink:href="#DejaVuSans-30"/>
       <use x="63.623047" xlink:href="#DejaVuSans-2e"/>
       <use x="95.410156" xlink:href="#DejaVuSans-31"/>
      </g>
     </g>
    </g>
    <g id="ytick_2">
     <g id="line2d_39">
      <g>
       <use style="stroke:#000000;stroke-width:0.5;" x="36.68125" xlink:href="#m79cf6d15d3" y="111.607398"/>
      </g>
     </g>
     <g id="line2d_40">
      <g>
       <use style="stroke:#000000;stroke-width:0.5;" x="231.98125" xlink:href="#mdfa3516992" y="111.607398"/>
      </g>
     </g>
     <g id="text_7">
      <!-- 0.2 -->
      <g transform="translate(17.278125 115.406617)scale(0.1 -0.1)">
       <use xlink:href="#DejaVuSans-30"/>
       <use x="63.623047" xlink:href="#DejaVuSans-2e"/>
       <use x="95.410156" xlink:href="#DejaVuSans-32"/>
      </g>
     </g>
    </g>
    <g id="ytick_3">
     <g id="line2d_41">
      <g>
       <use style="stroke:#000000;stroke-width:0.5;" x="36.68125" xlink:href="#m79cf6d15d3" y="77.746658"/>
      </g>
     </g>
     <g id="line2d_42">
      <g>
       <use style="stroke:#000000;stroke-width:0.5;" x="231.98125" xlink:href="#mdfa3516992" y="77.746658"/>
      </g>
     </g>
     <g id="text_8">
      <!-- 0.3 -->
      <g transform="translate(17.278125 81.545877)scale(0.1 -0.1)">
       <defs>
        <path d="M 2597 2516 
Q 3050 2419 3304 2112 
Q 3559 1806 3559 1356 
Q 3559 666 3084 287 
Q 2609 -91 1734 -91 
Q 1441 -91 1130 -33 
Q 819 25 488 141 
L 488 750 
Q 750 597 1062 519 
Q 1375 441 1716 441 
Q 2309 441 2620 675 
Q 2931 909 2931 1356 
Q 2931 1769 2642 2001 
Q 2353 2234 1838 2234 
L 1294 2234 
L 1294 2753 
L 1863 2753 
Q 2328 2753 2575 2939 
Q 2822 3125 2822 3475 
Q 2822 3834 2567 4026 
Q 2313 4219 1838 4219 
Q 1578 4219 1281 4162 
Q 984 4106 628 3988 
L 628 4550 
Q 988 4650 1302 4700 
Q 1616 4750 1894 4750 
Q 2613 4750 3031 4423 
Q 3450 4097 3450 3541 
Q 3450 3153 3228 2886 
Q 3006 2619 2597 2516 
z
" id="DejaVuSans-33" transform="scale(0.015625)"/>
       </defs>
       <use xlink:href="#DejaVuSans-30"/>
       <use x="63.623047" xlink:href="#DejaVuSans-2e"/>
       <use x="95.410156" xlink:href="#DejaVuSans-33"/>
      </g>
     </g>
    </g>
    <g id="ytick_4">
     <g id="line2d_43">
      <g>
       <use style="stroke:#000000;stroke-width:0.5;" x="36.68125" xlink:href="#m79cf6d15d3" y="43.885919"/>
      </g>
     </g>
     <g id="line2d_44">
      <g>
       <use style="stroke:#000000;stroke-width:0.5;" x="231.98125" xlink:href="#mdfa3516992" y="43.885919"/>
      </g>
     </g>
     <g id="text_9">
      <!-- 0.4 -->
      <g transform="translate(17.278125 47.685138)scale(0.1 -0.1)">
       <defs>
        <path d="M 2419 4116 
L 825 1625 
L 2419 1625 
L 2419 4116 
z
M 2253 4666 
L 3047 4666 
L 3047 1625 
L 3713 1625 
L 3713 1100 
L 3047 1100 
L 3047 0 
L 2419 0 
L 2419 1100 
L 313 1100 
L 313 1709 
L 2253 4666 
z
" id="DejaVuSans-34" transform="scale(0.015625)"/>
       </defs>
       <use xlink:href="#DejaVuSans-30"/>
       <use x="63.623047" xlink:href="#DejaVuSans-2e"/>
       <use x="95.410156" xlink:href="#DejaVuSans-34"/>
      </g>
     </g>
    </g>
    <g id="ytick_5">
     <g id="line2d_45">
      <g>
       <use style="stroke:#000000;stroke-width:0.5;" x="36.68125" xlink:href="#m79cf6d15d3" y="10.02518"/>
      </g>
     </g>
     <g id="line2d_46">
      <g>
       <use style="stroke:#000000;stroke-width:0.5;" x="231.98125" xlink:href="#mdfa3516992" y="10.02518"/>
      </g>
     </g>
     <g id="text_10">
      <!-- 0.5 -->
      <g transform="translate(17.278125 13.824398)scale(0.1 -0.1)">
       <use xlink:href="#DejaVuSans-30"/>
       <use x="63.623047" xlink:href="#DejaVuSans-2e"/>
       <use x="95.410156" xlink:href="#DejaVuSans-35"/>
      </g>
     </g>
    </g>
    <g id="ytick_6">
     <g id="line2d_47">
      <defs>
       <path d="M 0 0 
L 1.5 0 
" id="m2a7298eb1f" style="stroke:#000000;stroke-width:0.5;"/>
      </defs>
      <g>
       <use style="stroke:#000000;stroke-width:0.5;" x="36.68125" xlink:href="#m2a7298eb1f" y="138.695989"/>
      </g>
     </g>
     <g id="line2d_48">
      <defs>
       <path d="M 0 0 
L -1.5 0 
" id="m46a0f4381b" style="stroke:#000000;stroke-width:0.5;"/>
      </defs>
      <g>
       <use style="stroke:#000000;stroke-width:0.5;" x="231.98125" xlink:href="#m46a0f4381b" y="138.695989"/>
      </g>
     </g>
    </g>
    <g id="ytick_7">
     <g id="line2d_49">
      <g>
       <use style="stroke:#000000;stroke-width:0.5;" x="36.68125" xlink:href="#m2a7298eb1f" y="131.923842"/>
      </g>
     </g>
     <g id="line2d_50">
      <g>
       <use style="stroke:#000000;stroke-width:0.5;" x="231.98125" xlink:href="#m46a0f4381b" y="131.923842"/>
      </g>
     </g>
    </g>
    <g id="ytick_8">
     <g id="line2d_51">
      <g>
       <use style="stroke:#000000;stroke-width:0.5;" x="36.68125" xlink:href="#m2a7298eb1f" y="125.151694"/>
      </g>
     </g>
     <g id="line2d_52">
      <g>
       <use style="stroke:#000000;stroke-width:0.5;" x="231.98125" xlink:href="#m46a0f4381b" y="125.151694"/>
      </g>
     </g>
    </g>
    <g id="ytick_9">
     <g id="line2d_53">
      <g>
       <use style="stroke:#000000;stroke-width:0.5;" x="36.68125" xlink:href="#m2a7298eb1f" y="118.379546"/>
      </g>
     </g>
     <g id="line2d_54">
      <g>
       <use style="stroke:#000000;stroke-width:0.5;" x="231.98125" xlink:href="#m46a0f4381b" y="118.379546"/>
      </g>
     </g>
    </g>
    <g id="ytick_10">
     <g id="line2d_55">
      <g>
       <use style="stroke:#000000;stroke-width:0.5;" x="36.68125" xlink:href="#m2a7298eb1f" y="104.83525"/>
      </g>
     </g>
     <g id="line2d_56">
      <g>
       <use style="stroke:#000000;stroke-width:0.5;" x="231.98125" xlink:href="#m46a0f4381b" y="104.83525"/>
      </g>
     </g>
    </g>
    <g id="ytick_11">
     <g id="line2d_57">
      <g>
       <use style="stroke:#000000;stroke-width:0.5;" x="36.68125" xlink:href="#m2a7298eb1f" y="98.063102"/>
      </g>
     </g>
     <g id="line2d_58">
      <g>
       <use style="stroke:#000000;stroke-width:0.5;" x="231.98125" xlink:href="#m46a0f4381b" y="98.063102"/>
      </g>
     </g>
    </g>
    <g id="ytick_12">
     <g id="line2d_59">
      <g>
       <use style="stroke:#000000;stroke-width:0.5;" x="36.68125" xlink:href="#m2a7298eb1f" y="91.290954"/>
      </g>
     </g>
     <g id="line2d_60">
      <g>
       <use style="stroke:#000000;stroke-width:0.5;" x="231.98125" xlink:href="#m46a0f4381b" y="91.290954"/>
      </g>
     </g>
    </g>
    <g id="ytick_13">
     <g id="line2d_61">
      <g>
       <use style="stroke:#000000;stroke-width:0.5;" x="36.68125" xlink:href="#m2a7298eb1f" y="84.518806"/>
      </g>
     </g>
     <g id="line2d_62">
      <g>
       <use style="stroke:#000000;stroke-width:0.5;" x="231.98125" xlink:href="#m46a0f4381b" y="84.518806"/>
      </g>
     </g>
    </g>
    <g id="ytick_14">
     <g id="line2d_63">
      <g>
       <use style="stroke:#000000;stroke-width:0.5;" x="36.68125" xlink:href="#m2a7298eb1f" y="70.974511"/>
      </g>
     </g>
     <g id="line2d_64">
      <g>
       <use style="stroke:#000000;stroke-width:0.5;" x="231.98125" xlink:href="#m46a0f4381b" y="70.974511"/>
      </g>
     </g>
    </g>
    <g id="ytick_15">
     <g id="line2d_65">
      <g>
       <use style="stroke:#000000;stroke-width:0.5;" x="36.68125" xlink:href="#m2a7298eb1f" y="64.202363"/>
      </g>
     </g>
     <g id="line2d_66">
      <g>
       <use style="stroke:#000000;stroke-width:0.5;" x="231.98125" xlink:href="#m46a0f4381b" y="64.202363"/>
      </g>
     </g>
    </g>
    <g id="ytick_16">
     <g id="line2d_67">
      <g>
       <use style="stroke:#000000;stroke-width:0.5;" x="36.68125" xlink:href="#m2a7298eb1f" y="57.430215"/>
      </g>
     </g>
     <g id="line2d_68">
      <g>
       <use style="stroke:#000000;stroke-width:0.5;" x="231.98125" xlink:href="#m46a0f4381b" y="57.430215"/>
      </g>
     </g>
    </g>
    <g id="ytick_17">
     <g id="line2d_69">
      <g>
       <use style="stroke:#000000;stroke-width:0.5;" x="36.68125" xlink:href="#m2a7298eb1f" y="50.658067"/>
      </g>
     </g>
     <g id="line2d_70">
      <g>
       <use style="stroke:#000000;stroke-width:0.5;" x="231.98125" xlink:href="#m46a0f4381b" y="50.658067"/>
      </g>
     </g>
    </g>
    <g id="ytick_18">
     <g id="line2d_71">
      <g>
       <use style="stroke:#000000;stroke-width:0.5;" x="36.68125" xlink:href="#m2a7298eb1f" y="37.113771"/>
      </g>
     </g>
     <g id="line2d_72">
      <g>
       <use style="stroke:#000000;stroke-width:0.5;" x="231.98125" xlink:href="#m46a0f4381b" y="37.113771"/>
      </g>
     </g>
    </g>
    <g id="ytick_19">
     <g id="line2d_73">
      <g>
       <use style="stroke:#000000;stroke-width:0.5;" x="36.68125" xlink:href="#m2a7298eb1f" y="30.341623"/>
      </g>
     </g>
     <g id="line2d_74">
      <g>
       <use style="stroke:#000000;stroke-width:0.5;" x="231.98125" xlink:href="#m46a0f4381b" y="30.341623"/>
      </g>
     </g>
    </g>
    <g id="ytick_20">
     <g id="line2d_75">
      <g>
       <use style="stroke:#000000;stroke-width:0.5;" x="36.68125" xlink:href="#m2a7298eb1f" y="23.569475"/>
      </g>
     </g>
     <g id="line2d_76">
      <g>
       <use style="stroke:#000000;stroke-width:0.5;" x="231.98125" xlink:href="#m46a0f4381b" y="23.569475"/>
      </g>
     </g>
    </g>
    <g id="ytick_21">
     <g id="line2d_77">
      <g>
       <use style="stroke:#000000;stroke-width:0.5;" x="36.68125" xlink:href="#m2a7298eb1f" y="16.797328"/>
      </g>
     </g>
     <g id="line2d_78">
      <g>
       <use style="stroke:#000000;stroke-width:0.5;" x="231.98125" xlink:href="#m46a0f4381b" y="16.797328"/>
      </g>
     </g>
    </g>
    <g id="text_11">
     <!-- Chebyshev distance -->
     <g transform="translate(11.198438 125.402969)rotate(-90)scale(0.1 -0.1)">
      <defs>
       <path d="M 3513 2113 
L 3513 0 
L 2938 0 
L 2938 2094 
Q 2938 2591 2744 2837 
Q 2550 3084 2163 3084 
Q 1697 3084 1428 2787 
Q 1159 2491 1159 1978 
L 1159 0 
L 581 0 
L 581 4863 
L 1159 4863 
L 1159 2956 
Q 1366 3272 1645 3428 
Q 1925 3584 2291 3584 
Q 2894 3584 3203 3211 
Q 3513 2838 3513 2113 
z
" id="DejaVuSans-68" transform="scale(0.015625)"/>
       <path d="M 3116 1747 
Q 3116 2381 2855 2742 
Q 2594 3103 2138 3103 
Q 1681 3103 1420 2742 
Q 1159 2381 1159 1747 
Q 1159 1113 1420 752 
Q 1681 391 2138 391 
Q 2594 391 2855 752 
Q 3116 1113 3116 1747 
z
M 1159 2969 
Q 1341 3281 1617 3432 
Q 1894 3584 2278 3584 
Q 2916 3584 3314 3078 
Q 3713 2572 3713 1747 
Q 3713 922 3314 415 
Q 2916 -91 2278 -91 
Q 1894 -91 1617 61 
Q 1341 213 1159 525 
L 1159 0 
L 581 0 
L 581 4863 
L 1159 4863 
L 1159 2969 
z
" id="DejaVuSans-62" transform="scale(0.015625)"/>
       <path d="M 2059 -325 
Q 1816 -950 1584 -1140 
Q 1353 -1331 966 -1331 
L 506 -1331 
L 506 -850 
L 844 -850 
Q 1081 -850 1212 -737 
Q 1344 -625 1503 -206 
L 1606 56 
L 191 3500 
L 800 3500 
L 1894 763 
L 2988 3500 
L 3597 3500 
L 2059 -325 
z
" id="DejaVuSans-79" transform="scale(0.015625)"/>
       <path d="M 191 3500 
L 800 3500 
L 1894 563 
L 2988 3500 
L 3597 3500 
L 2284 0 
L 1503 0 
L 191 3500 
z
" id="DejaVuSans-76" transform="scale(0.015625)"/>
       <path d="M 2906 2969 
L 2906 4863 
L 3481 4863 
L 3481 0 
L 2906 0 
L 2906 525 
Q 2725 213 2448 61 
Q 2172 -91 1784 -91 
Q 1150 -91 751 415 
Q 353 922 353 1747 
Q 353 2572 751 3078 
Q 1150 3584 1784 3584 
Q 2172 3584 2448 3432 
Q 2725 3281 2906 2969 
z
M 947 1747 
Q 947 1113 1208 752 
Q 1469 391 1925 391 
Q 2381 391 2643 752 
Q 2906 1113 2906 1747 
Q 2906 2381 2643 2742 
Q 2381 3103 1925 3103 
Q 1469 3103 1208 2742 
Q 947 2381 947 1747 
z
" id="DejaVuSans-64" transform="scale(0.015625)"/>
       <path d="M 603 3500 
L 1178 3500 
L 1178 0 
L 603 0 
L 603 3500 
z
M 603 4863 
L 1178 4863 
L 1178 4134 
L 603 4134 
L 603 4863 
z
" id="DejaVuSans-69" transform="scale(0.015625)"/>
       <path d="M 2194 1759 
Q 1497 1759 1228 1600 
Q 959 1441 959 1056 
Q 959 750 1161 570 
Q 1363 391 1709 391 
Q 2188 391 2477 730 
Q 2766 1069 2766 1631 
L 2766 1759 
L 2194 1759 
z
M 3341 1997 
L 3341 0 
L 2766 0 
L 2766 531 
Q 2569 213 2275 61 
Q 1981 -91 1556 -91 
Q 1019 -91 701 211 
Q 384 513 384 1019 
Q 384 1609 779 1909 
Q 1175 2209 1959 2209 
L 2766 2209 
L 2766 2266 
Q 2766 2663 2505 2880 
Q 2244 3097 1772 3097 
Q 1472 3097 1187 3025 
Q 903 2953 641 2809 
L 641 3341 
Q 956 3463 1253 3523 
Q 1550 3584 1831 3584 
Q 2591 3584 2966 3190 
Q 3341 2797 3341 1997 
z
" id="DejaVuSans-61" transform="scale(0.015625)"/>
       <path d="M 3122 3366 
L 3122 2828 
Q 2878 2963 2633 3030 
Q 2388 3097 2138 3097 
Q 1578 3097 1268 2742 
Q 959 2388 959 1747 
Q 959 1106 1268 751 
Q 1578 397 2138 397 
Q 2388 397 2633 464 
Q 2878 531 3122 666 
L 3122 134 
Q 2881 22 2623 -34 
Q 2366 -91 2075 -91 
Q 1284 -91 818 406 
Q 353 903 353 1747 
Q 353 2603 823 3093 
Q 1294 3584 2113 3584 
Q 2378 3584 2631 3529 
Q 2884 3475 3122 3366 
z
" id="DejaVuSans-63" transform="scale(0.015625)"/>
      </defs>
      <use xlink:href="#DejaVuSans-43"/>
      <use x="69.824219" xlink:href="#DejaVuSans-68"/>
      <use x="133.203125" xlink:href="#DejaVuSans-65"/>
      <use x="194.726562" xlink:href="#DejaVuSans-62"/>
      <use x="258.203125" xlink:href="#DejaVuSans-79"/>
      <use x="317.382812" xlink:href="#DejaVuSans-73"/>
      <use x="369.482422" xlink:href="#DejaVuSans-68"/>
      <use x="432.861328" xlink:href="#DejaVuSans-65"/>
      <use x="494.384766" xlink:href="#DejaVuSans-76"/>
      <use x="553.564453" xlink:href="#DejaVuSans-20"/>
      <use x="585.351562" xlink:href="#DejaVuSans-64"/>
      <use x="648.828125" xlink:href="#DejaVuSans-69"/>
      <use x="676.611328" xlink:href="#DejaVuSans-73"/>
      <use x="728.710938" xlink:href="#DejaVuSans-74"/>
      <use x="767.919922" xlink:href="#DejaVuSans-61"/>
      <use x="829.199219" xlink:href="#DejaVuSans-6e"/>
      <use x="892.578125" xlink:href="#DejaVuSans-63"/>
      <use x="947.558594" xlink:href="#DejaVuSans-65"/>
     </g>
    </g>
   </g>
   <g id="line2d_79">
    <path clip-path="url(#p411ea2e829)" d="M 36.68125 136.658909 
L 47.53125 124.191119 
L 58.38125 120.28282 
L 69.23125 117.858234 
L 80.08125 112.09401 
L 90.93125 105.252471 
L 101.78125 102.393076 
L 112.63125 96.768169 
L 123.48125 92.573469 
L 134.33125 90.241675 
L 145.18125 90.634294 
L 156.03125 88.282972 
L 166.88125 85.151178 
L 177.73125 81.225266 
L 188.58125 78.119495 
L 199.43125 73.833288 
L 210.28125 73.651071 
L 221.13125 70.864566 
L 231.98125 70.737066 
" style="fill:none;stroke:#0c5da5;stroke-linecap:square;stroke-width:1.2;"/>
    <defs>
     <path d="M -2 2 
L 2 2 
L 2 -2 
L -2 -2 
z
" id="m936b2de2f6" style="stroke:#0c5da5;stroke-linejoin:miter;stroke-width:1.5;"/>
    </defs>
    <g clip-path="url(#p411ea2e829)">
     <use style="fill-opacity:0;stroke:#0c5da5;stroke-linejoin:miter;stroke-width:1.5;" x="36.68125" xlink:href="#m936b2de2f6" y="136.658909"/>
     <use style="fill-opacity:0;stroke:#0c5da5;stroke-linejoin:miter;stroke-width:1.5;" x="47.53125" xlink:href="#m936b2de2f6" y="124.191119"/>
     <use style="fill-opacity:0;stroke:#0c5da5;stroke-linejoin:miter;stroke-width:1.5;" x="58.38125" xlink:href="#m936b2de2f6" y="120.28282"/>
     <use style="fill-opacity:0;stroke:#0c5da5;stroke-linejoin:miter;stroke-width:1.5;" x="69.23125" xlink:href="#m936b2de2f6" y="117.858234"/>
     <use style="fill-opacity:0;stroke:#0c5da5;stroke-linejoin:miter;stroke-width:1.5;" x="80.08125" xlink:href="#m936b2de2f6" y="112.09401"/>
     <use style="fill-opacity:0;stroke:#0c5da5;stroke-linejoin:miter;stroke-width:1.5;" x="90.93125" xlink:href="#m936b2de2f6" y="105.252471"/>
     <use style="fill-opacity:0;stroke:#0c5da5;stroke-linejoin:miter;stroke-width:1.5;" x="101.78125" xlink:href="#m936b2de2f6" y="102.393076"/>
     <use style="fill-opacity:0;stroke:#0c5da5;stroke-linejoin:miter;stroke-width:1.5;" x="112.63125" xlink:href="#m936b2de2f6" y="96.768169"/>
     <use style="fill-opacity:0;stroke:#0c5da5;stroke-linejoin:miter;stroke-width:1.5;" x="123.48125" xlink:href="#m936b2de2f6" y="92.573469"/>
     <use style="fill-opacity:0;stroke:#0c5da5;stroke-linejoin:miter;stroke-width:1.5;" x="134.33125" xlink:href="#m936b2de2f6" y="90.241675"/>
     <use style="fill-opacity:0;stroke:#0c5da5;stroke-linejoin:miter;stroke-width:1.5;" x="145.18125" xlink:href="#m936b2de2f6" y="90.634294"/>
     <use style="fill-opacity:0;stroke:#0c5da5;stroke-linejoin:miter;stroke-width:1.5;" x="156.03125" xlink:href="#m936b2de2f6" y="88.282972"/>
     <use style="fill-opacity:0;stroke:#0c5da5;stroke-linejoin:miter;stroke-width:1.5;" x="166.88125" xlink:href="#m936b2de2f6" y="85.151178"/>
     <use style="fill-opacity:0;stroke:#0c5da5;stroke-linejoin:miter;stroke-width:1.5;" x="177.73125" xlink:href="#m936b2de2f6" y="81.225266"/>
     <use style="fill-opacity:0;stroke:#0c5da5;stroke-linejoin:miter;stroke-width:1.5;" x="188.58125" xlink:href="#m936b2de2f6" y="78.119495"/>
     <use style="fill-opacity:0;stroke:#0c5da5;stroke-linejoin:miter;stroke-width:1.5;" x="199.43125" xlink:href="#m936b2de2f6" y="73.833288"/>
     <use style="fill-opacity:0;stroke:#0c5da5;stroke-linejoin:miter;stroke-width:1.5;" x="210.28125" xlink:href="#m936b2de2f6" y="73.651071"/>
     <use style="fill-opacity:0;stroke:#0c5da5;stroke-linejoin:miter;stroke-width:1.5;" x="221.13125" xlink:href="#m936b2de2f6" y="70.864566"/>
     <use style="fill-opacity:0;stroke:#0c5da5;stroke-linejoin:miter;stroke-width:1.5;" x="231.98125" xlink:href="#m936b2de2f6" y="70.737066"/>
    </g>
   </g>
   <g id="line2d_80">
    <path clip-path="url(#p411ea2e829)" d="M 36.68125 132.21419 
L 47.53125 108.965302 
L 58.38125 91.863944 
L 69.23125 87.083371 
L 80.08125 72.566549 
L 90.93125 61.224696 
L 101.78125 56.635081 
L 112.63125 54.01121 
L 123.48125 49.988337 
L 134.33125 48.624409 
L 145.18125 46.608771 
L 156.03125 42.119129 
L 166.88125 36.89676 
L 177.73125 32.375551 
L 188.58125 26.609445 
L 199.43125 22.691205 
L 210.28125 21.086962 
L 221.13125 17.341159 
L 231.98125 13.377178 
" style="fill:none;stroke:#ff9500;stroke-dasharray:1.2,1.98;stroke-dashoffset:0;stroke-width:1.2;"/>
    <defs>
     <path d="M 0 2 
C 0.530406 2 1.03916 1.789267 1.414214 1.414214 
C 1.789267 1.03916 2 0.530406 2 0 
C 2 -0.530406 1.789267 -1.03916 1.414214 -1.414214 
C 1.03916 -1.789267 0.530406 -2 0 -2 
C -0.530406 -2 -1.03916 -1.789267 -1.414214 -1.414214 
C -1.789267 -1.03916 -2 -0.530406 -2 0 
C -2 0.530406 -1.789267 1.03916 -1.414214 1.414214 
C -1.03916 1.789267 -0.530406 2 0 2 
z
" id="m69b6326ff4" style="stroke:#ff9500;stroke-width:1.5;"/>
    </defs>
    <g clip-path="url(#p411ea2e829)">
     <use style="fill-opacity:0;stroke:#ff9500;stroke-width:1.5;" x="36.68125" xlink:href="#m69b6326ff4" y="132.21419"/>
     <use style="fill-opacity:0;stroke:#ff9500;stroke-width:1.5;" x="47.53125" xlink:href="#m69b6326ff4" y="108.965302"/>
     <use style="fill-opacity:0;stroke:#ff9500;stroke-width:1.5;" x="58.38125" xlink:href="#m69b6326ff4" y="91.863944"/>
     <use style="fill-opacity:0;stroke:#ff9500;stroke-width:1.5;" x="69.23125" xlink:href="#m69b6326ff4" y="87.083371"/>
     <use style="fill-opacity:0;stroke:#ff9500;stroke-width:1.5;" x="80.08125" xlink:href="#m69b6326ff4" y="72.566549"/>
     <use style="fill-opacity:0;stroke:#ff9500;stroke-width:1.5;" x="90.93125" xlink:href="#m69b6326ff4" y="61.224696"/>
     <use style="fill-opacity:0;stroke:#ff9500;stroke-width:1.5;" x="101.78125" xlink:href="#m69b6326ff4" y="56.635081"/>
     <use style="fill-opacity:0;stroke:#ff9500;stroke-width:1.5;" x="112.63125" xlink:href="#m69b6326ff4" y="54.01121"/>
     <use style="fill-opacity:0;stroke:#ff9500;stroke-width:1.5;" x="123.48125" xlink:href="#m69b6326ff4" y="49.988337"/>
     <use style="fill-opacity:0;stroke:#ff9500;stroke-width:1.5;" x="134.33125" xlink:href="#m69b6326ff4" y="48.624409"/>
     <use style="fill-opacity:0;stroke:#ff9500;stroke-width:1.5;" x="145.18125" xlink:href="#m69b6326ff4" y="46.608771"/>
     <use style="fill-opacity:0;stroke:#ff9500;stroke-width:1.5;" x="156.03125" xlink:href="#m69b6326ff4" y="42.119129"/>
     <use style="fill-opacity:0;stroke:#ff9500;stroke-width:1.5;" x="166.88125" xlink:href="#m69b6326ff4" y="36.89676"/>
     <use style="fill-opacity:0;stroke:#ff9500;stroke-width:1.5;" x="177.73125" xlink:href="#m69b6326ff4" y="32.375551"/>
     <use style="fill-opacity:0;stroke:#ff9500;stroke-width:1.5;" x="188.58125" xlink:href="#m69b6326ff4" y="26.609445"/>
     <use style="fill-opacity:0;stroke:#ff9500;stroke-width:1.5;" x="199.43125" xlink:href="#m69b6326ff4" y="22.691205"/>
     <use style="fill-opacity:0;stroke:#ff9500;stroke-width:1.5;" x="210.28125" xlink:href="#m69b6326ff4" y="21.086962"/>
     <use style="fill-opacity:0;stroke:#ff9500;stroke-width:1.5;" x="221.13125" xlink:href="#m69b6326ff4" y="17.341159"/>
     <use style="fill-opacity:0;stroke:#ff9500;stroke-width:1.5;" x="231.98125" xlink:href="#m69b6326ff4" y="13.377178"/>
    </g>
   </g>
   <g id="line2d_81">
    <path clip-path="url(#p411ea2e829)" d="M 36.68125 136.111533 
L 47.53125 88.851644 
L 58.38125 69.836306 
L 69.23125 59.082857 
L 80.08125 53.580839 
L 90.93125 51.164139 
L 101.78125 55.14925 
L 112.63125 46.998561 
L 123.48125 46.337346 
L 134.33125 49.1214 
L 145.18125 51.569671 
L 156.03125 49.330889 
L 166.88125 45.900032 
L 177.73125 39.502952 
L 188.58125 36.761305 
L 199.43125 31.425051 
L 210.28125 29.975279 
L 221.13125 28.01313 
L 231.98125 24.762457 
" style="fill:none;stroke:#00b945;stroke-dasharray:4.44,1.92;stroke-dashoffset:0;stroke-width:1.2;"/>
    <defs>
     <path d="M 0 -2 
L -2 2 
L 2 2 
z
" id="m5bda1c6c66" style="stroke:#00b945;stroke-linejoin:miter;stroke-width:1.5;"/>
    </defs>
    <g clip-path="url(#p411ea2e829)">
     <use style="fill-opacity:0;stroke:#00b945;stroke-linejoin:miter;stroke-width:1.5;" x="36.68125" xlink:href="#m5bda1c6c66" y="136.111533"/>
     <use style="fill-opacity:0;stroke:#00b945;stroke-linejoin:miter;stroke-width:1.5;" x="47.53125" xlink:href="#m5bda1c6c66" y="88.851644"/>
     <use style="fill-opacity:0;stroke:#00b945;stroke-linejoin:miter;stroke-width:1.5;" x="58.38125" xlink:href="#m5bda1c6c66" y="69.836306"/>
     <use style="fill-opacity:0;stroke:#00b945;stroke-linejoin:miter;stroke-width:1.5;" x="69.23125" xlink:href="#m5bda1c6c66" y="59.082857"/>
     <use style="fill-opacity:0;stroke:#00b945;stroke-linejoin:miter;stroke-width:1.5;" x="80.08125" xlink:href="#m5bda1c6c66" y="53.580839"/>
     <use style="fill-opacity:0;stroke:#00b945;stroke-linejoin:miter;stroke-width:1.5;" x="90.93125" xlink:href="#m5bda1c6c66" y="51.164139"/>
     <use style="fill-opacity:0;stroke:#00b945;stroke-linejoin:miter;stroke-width:1.5;" x="101.78125" xlink:href="#m5bda1c6c66" y="55.14925"/>
     <use style="fill-opacity:0;stroke:#00b945;stroke-linejoin:miter;stroke-width:1.5;" x="112.63125" xlink:href="#m5bda1c6c66" y="46.998561"/>
     <use style="fill-opacity:0;stroke:#00b945;stroke-linejoin:miter;stroke-width:1.5;" x="123.48125" xlink:href="#m5bda1c6c66" y="46.337346"/>
     <use style="fill-opacity:0;stroke:#00b945;stroke-linejoin:miter;stroke-width:1.5;" x="134.33125" xlink:href="#m5bda1c6c66" y="49.1214"/>
     <use style="fill-opacity:0;stroke:#00b945;stroke-linejoin:miter;stroke-width:1.5;" x="145.18125" xlink:href="#m5bda1c6c66" y="51.569671"/>
     <use style="fill-opacity:0;stroke:#00b945;stroke-linejoin:miter;stroke-width:1.5;" x="156.03125" xlink:href="#m5bda1c6c66" y="49.330889"/>
     <use style="fill-opacity:0;stroke:#00b945;stroke-linejoin:miter;stroke-width:1.5;" x="166.88125" xlink:href="#m5bda1c6c66" y="45.900032"/>
     <use style="fill-opacity:0;stroke:#00b945;stroke-linejoin:miter;stroke-width:1.5;" x="177.73125" xlink:href="#m5bda1c6c66" y="39.502952"/>
     <use style="fill-opacity:0;stroke:#00b945;stroke-linejoin:miter;stroke-width:1.5;" x="188.58125" xlink:href="#m5bda1c6c66" y="36.761305"/>
     <use style="fill-opacity:0;stroke:#00b945;stroke-linejoin:miter;stroke-width:1.5;" x="199.43125" xlink:href="#m5bda1c6c66" y="31.425051"/>
     <use style="fill-opacity:0;stroke:#00b945;stroke-linejoin:miter;stroke-width:1.5;" x="210.28125" xlink:href="#m5bda1c6c66" y="29.975279"/>
     <use style="fill-opacity:0;stroke:#00b945;stroke-linejoin:miter;stroke-width:1.5;" x="221.13125" xlink:href="#m5bda1c6c66" y="28.01313"/>
     <use style="fill-opacity:0;stroke:#00b945;stroke-linejoin:miter;stroke-width:1.5;" x="231.98125" xlink:href="#m5bda1c6c66" y="24.762457"/>
    </g>
   </g>
   <g id="patch_3">
    <path d="M 36.68125 146.295 
L 36.68125 3.6 
" style="fill:none;stroke:#000000;stroke-linecap:square;stroke-linejoin:miter;stroke-width:0.5;"/>
   </g>
   <g id="patch_4">
    <path d="M 231.98125 146.295 
L 231.98125 3.6 
" style="fill:none;stroke:#000000;stroke-linecap:square;stroke-linejoin:miter;stroke-width:0.5;"/>
   </g>
   <g id="patch_5">
    <path d="M 36.68125 146.295 
L 231.98125 146.295 
" style="fill:none;stroke:#000000;stroke-linecap:square;stroke-linejoin:miter;stroke-width:0.5;"/>
   </g>
   <g id="patch_6">
    <path d="M 36.68125 3.6 
L 231.98125 3.6 
" style="fill:none;stroke:#000000;stroke-linecap:square;stroke-linejoin:miter;stroke-width:0.5;"/>
   </g>
   <g id="legend_1">
    <g id="line2d_82">
     <path d="M 182.325 102.359062 
L 202.325 102.359062 
" style="fill:none;stroke:#0c5da5;stroke-linecap:square;stroke-width:1.2;"/>
    </g>
    <g id="line2d_83">
     <g>
      <use style="fill-opacity:0;stroke:#0c5da5;stroke-linejoin:miter;stroke-width:1.5;" x="192.325" xlink:href="#m936b2de2f6" y="102.359062"/>
     </g>
    </g>
    <g id="text_12">
     <!-- Eu -->
     <g transform="translate(210.325 105.859062)scale(0.1 -0.1)">
      <defs>
       <path d="M 628 4666 
L 3578 4666 
L 3578 4134 
L 1259 4134 
L 1259 2753 
L 3481 2753 
L 3481 2222 
L 1259 2222 
L 1259 531 
L 3634 531 
L 3634 0 
L 628 0 
L 628 4666 
z
" id="DejaVuSans-45" transform="scale(0.015625)"/>
       <path d="M 544 1381 
L 544 3500 
L 1119 3500 
L 1119 1403 
Q 1119 906 1312 657 
Q 1506 409 1894 409 
Q 2359 409 2629 706 
Q 2900 1003 2900 1516 
L 2900 3500 
L 3475 3500 
L 3475 0 
L 2900 0 
L 2900 538 
Q 2691 219 2414 64 
Q 2138 -91 1772 -91 
Q 1169 -91 856 284 
Q 544 659 544 1381 
z
M 1991 3584 
L 1991 3584 
z
" id="DejaVuSans-75" transform="scale(0.015625)"/>
      </defs>
      <use xlink:href="#DejaVuSans-45"/>
      <use x="63.183594" xlink:href="#DejaVuSans-75"/>
     </g>
    </g>
    <g id="line2d_84">
     <path d="M 182.325 117.037187 
L 202.325 117.037187 
" style="fill:none;stroke:#ff9500;stroke-dasharray:1.2,1.98;stroke-dashoffset:0;stroke-width:1.2;"/>
    </g>
    <g id="line2d_85">
     <g>
      <use style="fill-opacity:0;stroke:#ff9500;stroke-width:1.5;" x="192.325" xlink:href="#m69b6326ff4" y="117.037187"/>
     </g>
    </g>
    <g id="text_13">
     <!-- KL -->
     <g transform="translate(210.325 120.537187)scale(0.1 -0.1)">
      <defs>
       <path d="M 628 4666 
L 1259 4666 
L 1259 2694 
L 3353 4666 
L 4166 4666 
L 1850 2491 
L 4331 0 
L 3500 0 
L 1259 2247 
L 1259 0 
L 628 0 
L 628 4666 
z
" id="DejaVuSans-4b" transform="scale(0.015625)"/>
       <path d="M 628 4666 
L 1259 4666 
L 1259 531 
L 3531 531 
L 3531 0 
L 628 0 
L 628 4666 
z
" id="DejaVuSans-4c" transform="scale(0.015625)"/>
      </defs>
      <use xlink:href="#DejaVuSans-4b"/>
      <use x="65.576172" xlink:href="#DejaVuSans-4c"/>
     </g>
    </g>
    <g id="line2d_86">
     <path d="M 182.325 131.715312 
L 202.325 131.715312 
" style="fill:none;stroke:#00b945;stroke-dasharray:4.44,1.92;stroke-dashoffset:0;stroke-width:1.2;"/>
    </g>
    <g id="line2d_87">
     <g>
      <use style="fill-opacity:0;stroke:#00b945;stroke-linejoin:miter;stroke-width:1.5;" x="192.325" xlink:href="#m5bda1c6c66" y="131.715312"/>
     </g>
    </g>
    <g id="text_14">
     <!-- IS -->
     <g transform="translate(210.325 135.215312)scale(0.1 -0.1)">
      <defs>
       <path d="M 628 4666 
L 1259 4666 
L 1259 0 
L 628 0 
L 628 4666 
z
" id="DejaVuSans-49" transform="scale(0.015625)"/>
       <path d="M 3425 4513 
L 3425 3897 
Q 3066 4069 2747 4153 
Q 2428 4238 2131 4238 
Q 1616 4238 1336 4038 
Q 1056 3838 1056 3469 
Q 1056 3159 1242 3001 
Q 1428 2844 1947 2747 
L 2328 2669 
Q 3034 2534 3370 2195 
Q 3706 1856 3706 1288 
Q 3706 609 3251 259 
Q 2797 -91 1919 -91 
Q 1588 -91 1214 -16 
Q 841 59 441 206 
L 441 856 
Q 825 641 1194 531 
Q 1563 422 1919 422 
Q 2459 422 2753 634 
Q 3047 847 3047 1241 
Q 3047 1584 2836 1778 
Q 2625 1972 2144 2069 
L 1759 2144 
Q 1053 2284 737 2584 
Q 422 2884 422 3419 
Q 422 4038 858 4394 
Q 1294 4750 2059 4750 
Q 2388 4750 2728 4690 
Q 3069 4631 3425 4513 
z
" id="DejaVuSans-53" transform="scale(0.015625)"/>
      </defs>
      <use xlink:href="#DejaVuSans-49"/>
      <use x="29.492188" xlink:href="#DejaVuSans-53"/>
     </g>
    </g>
   </g>
  </g>
 </g>
 <defs>
  <clipPath id="p411ea2e829">
   <rect height="142.695" width="195.3" x="36.68125" y="3.6"/>
  </clipPath>
 </defs>
</svg>
