<?xml version="1.0" encoding="utf-8" standalone="no"?>
<!DOCTYPE svg PUBLIC "-//W3C//DTD SVG 1.1//EN"
  "http://www.w3.org/Graphics/SVG/1.1/DTD/svg11.dtd">
<!-- Created with matplotlib (https://matplotlib.org/) -->
<svg height="176.75125pt" version="1.1" viewBox="0 0 241.94375 176.75125" width="241.94375pt" xmlns="http://www.w3.org/2000/svg" xmlns:xlink="http://www.w3.org/1999/xlink">
 <metadata>
  <rdf:RDF xmlns:cc="http://creativecommons.org/ns#" xmlns:dc="http://purl.org/dc/elements/1.1/" xmlns:rdf="http://www.w3.org/1999/02/22-rdf-syntax-ns#">
   <cc:Work>
    <dc:type rdf:resource="http://purl.org/dc/dcmitype/StillImage"/>
    <dc:date>2023-05-02T14:49:41.491683</dc:date>
    <dc:format>image/svg+xml</dc:format>
    <dc:creator>
     <cc:Agent>
      <dc:title>Matplotlib v3.3.4, https://matplotlib.org/</dc:title>
     </cc:Agent>
    </dc:creator>
   </cc:Work>
  </rdf:RDF>
 </metadata>
 <defs>
  <style type="text/css">*{stroke-linecap:butt;stroke-linejoin:round;}</style>
 </defs>
 <g id="figure_1">
  <g id="patch_1">
   <path d="M -0 176.75125 
L 241.94375 176.75125 
L 241.94375 0 
L -0 0 
z
" style="fill:none;"/>
  </g>
  <g id="axes_1">
   <g id="patch_2">
    <path d="M 36.68125 146.295 
L 231.98125 146.295 
L 231.98125 3.6 
L 36.68125 3.6 
z
" style="fill:#ffffff;"/>
   </g>
   <g id="PolyCollection_1">
    <path clip-path="url(#p1136e73307)" d="M 47.53125 72.609788 
L 47.53125 139.808864 
L 58.38125 69.022159 
L 69.23125 64.875133 
L 80.08125 120.11269 
L 90.93125 118.950076 
L 101.78125 111.515311 
L 112.63125 100.588612 
L 123.48125 70.29387 
L 134.33125 76.804715 
L 145.18125 71.019185 
L 156.03125 63.872417 
L 166.88125 56.546261 
L 177.73125 50.490884 
L 188.58125 47.899131 
L 199.43125 47.275179 
L 210.28125 45.464789 
L 221.13125 48.736339 
L 231.98125 48.573034 
L 231.98125 37.199583 
L 231.98125 37.199583 
L 221.13125 38.927677 
L 210.28125 33.259178 
L 199.43125 33.954231 
L 188.58125 27.196953 
L 177.73125 28.052312 
L 166.88125 30.641482 
L 156.03125 29.332107 
L 145.18125 31.056409 
L 134.33125 32.151168 
L 123.48125 36.563394 
L 112.63125 39.853212 
L 101.78125 41.028217 
L 90.93125 58.412632 
L 80.08125 68.170885 
L 69.23125 38.928722 
L 58.38125 43.752628 
L 47.53125 72.609788 
z
" style="fill:#0c5da5;fill-opacity:0.15;"/>
   </g>
   <g id="PolyCollection_2">
    <path clip-path="url(#p1136e73307)" d="M 47.53125 13.336613 
L 47.53125 85.923147 
L 58.38125 43.660979 
L 69.23125 51.030238 
L 80.08125 56.898869 
L 90.93125 69.873003 
L 101.78125 71.381163 
L 112.63125 70.998789 
L 123.48125 69.385984 
L 134.33125 73.115552 
L 145.18125 81.596316 
L 156.03125 75.567193 
L 166.88125 76.525649 
L 177.73125 70.066802 
L 188.58125 72.646588 
L 199.43125 70.83907 
L 210.28125 72.964773 
L 221.13125 79.30205 
L 231.98125 70.154253 
L 231.98125 52.167781 
L 231.98125 52.167781 
L 221.13125 53.599558 
L 210.28125 58.336191 
L 199.43125 64.900905 
L 188.58125 60.909472 
L 177.73125 63.120535 
L 166.88125 56.660328 
L 156.03125 56.503141 
L 145.18125 52.948607 
L 134.33125 52.960727 
L 123.48125 49.898379 
L 112.63125 53.06151 
L 101.78125 53.876246 
L 90.93125 52.388695 
L 80.08125 40.490023 
L 69.23125 26.922349 
L 58.38125 29.341848 
L 47.53125 13.336613 
z
" style="fill:#ff9500;fill-opacity:0.15;"/>
   </g>
   <g id="PolyCollection_3">
    <path clip-path="url(#p1136e73307)" d="M 47.53125 10.086136 
L 47.53125 11.998431 
L 58.38125 54.082629 
L 69.23125 43.816472 
L 80.08125 28.068372 
L 90.93125 44.656501 
L 101.78125 30.719757 
L 112.63125 40.445278 
L 123.48125 33.187677 
L 134.33125 26.583131 
L 145.18125 34.595365 
L 156.03125 46.223398 
L 166.88125 43.424524 
L 177.73125 42.606113 
L 188.58125 46.68093 
L 199.43125 42.127183 
L 210.28125 45.409402 
L 221.13125 44.962583 
L 231.98125 43.955333 
L 231.98125 38.723586 
L 231.98125 38.723586 
L 221.13125 35.397983 
L 210.28125 36.509157 
L 199.43125 30.705192 
L 188.58125 32.051532 
L 177.73125 31.517678 
L 166.88125 26.457007 
L 156.03125 25.889978 
L 145.18125 23.059109 
L 134.33125 20.147925 
L 123.48125 25.467246 
L 112.63125 21.054185 
L 101.78125 16.921723 
L 90.93125 18.944563 
L 80.08125 20.062286 
L 69.23125 27.575468 
L 58.38125 28.388782 
L 47.53125 10.086136 
z
" style="fill:#00b945;fill-opacity:0.15;"/>
   </g>
   <g id="matplotlib.axis_1">
    <g id="xtick_1">
     <g id="line2d_1">
      <defs>
       <path d="M 0 0 
L 0 -3 
" id="md5140a76aa" style="stroke:#000000;stroke-width:0.5;"/>
      </defs>
      <g>
       <use style="stroke:#000000;stroke-width:0.5;" x="69.23125" xlink:href="#md5140a76aa" y="146.295"/>
      </g>
     </g>
     <g id="line2d_2">
      <defs>
       <path d="M 0 0 
L 0 3 
" id="m1cc41f70fe" style="stroke:#000000;stroke-width:0.5;"/>
      </defs>
      <g>
       <use style="stroke:#000000;stroke-width:0.5;" x="69.23125" xlink:href="#m1cc41f70fe" y="3.6"/>
      </g>
     </g>
     <g id="text_1">
      <!-- 5 -->
      <g transform="translate(66.05 157.393437)scale(0.1 -0.1)">
       <defs>
        <path d="M 10.796875 72.90625 
L 49.515625 72.90625 
L 49.515625 64.59375 
L 19.828125 64.59375 
L 19.828125 46.734375 
Q 21.96875 47.46875 24.109375 47.828125 
Q 26.265625 48.1875 28.421875 48.1875 
Q 40.625 48.1875 47.75 41.5 
Q 54.890625 34.8125 54.890625 23.390625 
Q 54.890625 11.625 47.5625 5.09375 
Q 40.234375 -1.421875 26.90625 -1.421875 
Q 22.3125 -1.421875 17.546875 -0.640625 
Q 12.796875 0.140625 7.71875 1.703125 
L 7.71875 11.625 
Q 12.109375 9.234375 16.796875 8.0625 
Q 21.484375 6.890625 26.703125 6.890625 
Q 35.15625 6.890625 40.078125 11.328125 
Q 45.015625 15.765625 45.015625 23.390625 
Q 45.015625 31 40.078125 35.4375 
Q 35.15625 39.890625 26.703125 39.890625 
Q 22.75 39.890625 18.8125 39.015625 
Q 14.890625 38.140625 10.796875 36.28125 
z
" id="DejaVuSans-53"/>
       </defs>
       <use xlink:href="#DejaVuSans-53"/>
      </g>
     </g>
    </g>
    <g id="xtick_2">
     <g id="line2d_3">
      <g>
       <use style="stroke:#000000;stroke-width:0.5;" x="123.48125" xlink:href="#md5140a76aa" y="146.295"/>
      </g>
     </g>
     <g id="line2d_4">
      <g>
       <use style="stroke:#000000;stroke-width:0.5;" x="123.48125" xlink:href="#m1cc41f70fe" y="3.6"/>
      </g>
     </g>
     <g id="text_2">
      <!-- 10 -->
      <g transform="translate(117.11875 157.393437)scale(0.1 -0.1)">
       <defs>
        <path d="M 12.40625 8.296875 
L 28.515625 8.296875 
L 28.515625 63.921875 
L 10.984375 60.40625 
L 10.984375 69.390625 
L 28.421875 72.90625 
L 38.28125 72.90625 
L 38.28125 8.296875 
L 54.390625 8.296875 
L 54.390625 0 
L 12.40625 0 
z
" id="DejaVuSans-49"/>
        <path d="M 31.78125 66.40625 
Q 24.171875 66.40625 20.328125 58.90625 
Q 16.5 51.421875 16.5 36.375 
Q 16.5 21.390625 20.328125 13.890625 
Q 24.171875 6.390625 31.78125 6.390625 
Q 39.453125 6.390625 43.28125 13.890625 
Q 47.125 21.390625 47.125 36.375 
Q 47.125 51.421875 43.28125 58.90625 
Q 39.453125 66.40625 31.78125 66.40625 
z
M 31.78125 74.21875 
Q 44.046875 74.21875 50.515625 64.515625 
Q 56.984375 54.828125 56.984375 36.375 
Q 56.984375 17.96875 50.515625 8.265625 
Q 44.046875 -1.421875 31.78125 -1.421875 
Q 19.53125 -1.421875 13.0625 8.265625 
Q 6.59375 17.96875 6.59375 36.375 
Q 6.59375 54.828125 13.0625 64.515625 
Q 19.53125 74.21875 31.78125 74.21875 
z
" id="DejaVuSans-48"/>
       </defs>
       <use xlink:href="#DejaVuSans-49"/>
       <use x="63.623047" xlink:href="#DejaVuSans-48"/>
      </g>
     </g>
    </g>
    <g id="xtick_3">
     <g id="line2d_5">
      <g>
       <use style="stroke:#000000;stroke-width:0.5;" x="177.73125" xlink:href="#md5140a76aa" y="146.295"/>
      </g>
     </g>
     <g id="line2d_6">
      <g>
       <use style="stroke:#000000;stroke-width:0.5;" x="177.73125" xlink:href="#m1cc41f70fe" y="3.6"/>
      </g>
     </g>
     <g id="text_3">
      <!-- 15 -->
      <g transform="translate(171.36875 157.393437)scale(0.1 -0.1)">
       <use xlink:href="#DejaVuSans-49"/>
       <use x="63.623047" xlink:href="#DejaVuSans-53"/>
      </g>
     </g>
    </g>
    <g id="xtick_4">
     <g id="line2d_7">
      <g>
       <use style="stroke:#000000;stroke-width:0.5;" x="231.98125" xlink:href="#md5140a76aa" y="146.295"/>
      </g>
     </g>
     <g id="line2d_8">
      <g>
       <use style="stroke:#000000;stroke-width:0.5;" x="231.98125" xlink:href="#m1cc41f70fe" y="3.6"/>
      </g>
     </g>
     <g id="text_4">
      <!-- 20 -->
      <g transform="translate(225.61875 157.393437)scale(0.1 -0.1)">
       <defs>
        <path d="M 19.1875 8.296875 
L 53.609375 8.296875 
L 53.609375 0 
L 7.328125 0 
L 7.328125 8.296875 
Q 12.9375 14.109375 22.625 23.890625 
Q 32.328125 33.6875 34.8125 36.53125 
Q 39.546875 41.84375 41.421875 45.53125 
Q 43.3125 49.21875 43.3125 52.78125 
Q 43.3125 58.59375 39.234375 62.25 
Q 35.15625 65.921875 28.609375 65.921875 
Q 23.96875 65.921875 18.8125 64.3125 
Q 13.671875 62.703125 7.8125 59.421875 
L 7.8125 69.390625 
Q 13.765625 71.78125 18.9375 73 
Q 24.125 74.21875 28.421875 74.21875 
Q 39.75 74.21875 46.484375 68.546875 
Q 53.21875 62.890625 53.21875 53.421875 
Q 53.21875 48.921875 51.53125 44.890625 
Q 49.859375 40.875 45.40625 35.40625 
Q 44.1875 33.984375 37.640625 27.21875 
Q 31.109375 20.453125 19.1875 8.296875 
z
" id="DejaVuSans-50"/>
       </defs>
       <use xlink:href="#DejaVuSans-50"/>
       <use x="63.623047" xlink:href="#DejaVuSans-48"/>
      </g>
     </g>
    </g>
    <g id="xtick_5">
     <g id="line2d_9">
      <defs>
       <path d="M 0 0 
L 0 -1.5 
" id="m61ba0c4b52" style="stroke:#000000;stroke-width:0.5;"/>
      </defs>
      <g>
       <use style="stroke:#000000;stroke-width:0.5;" x="47.53125" xlink:href="#m61ba0c4b52" y="146.295"/>
      </g>
     </g>
     <g id="line2d_10">
      <defs>
       <path d="M 0 0 
L 0 1.5 
" id="me7b7094ab7" style="stroke:#000000;stroke-width:0.5;"/>
      </defs>
      <g>
       <use style="stroke:#000000;stroke-width:0.5;" x="47.53125" xlink:href="#me7b7094ab7" y="3.6"/>
      </g>
     </g>
    </g>
    <g id="xtick_6">
     <g id="line2d_11">
      <g>
       <use style="stroke:#000000;stroke-width:0.5;" x="58.38125" xlink:href="#m61ba0c4b52" y="146.295"/>
      </g>
     </g>
     <g id="line2d_12">
      <g>
       <use style="stroke:#000000;stroke-width:0.5;" x="58.38125" xlink:href="#me7b7094ab7" y="3.6"/>
      </g>
     </g>
    </g>
    <g id="xtick_7">
     <g id="line2d_13">
      <g>
       <use style="stroke:#000000;stroke-width:0.5;" x="80.08125" xlink:href="#m61ba0c4b52" y="146.295"/>
      </g>
     </g>
     <g id="line2d_14">
      <g>
       <use style="stroke:#000000;stroke-width:0.5;" x="80.08125" xlink:href="#me7b7094ab7" y="3.6"/>
      </g>
     </g>
    </g>
    <g id="xtick_8">
     <g id="line2d_15">
      <g>
       <use style="stroke:#000000;stroke-width:0.5;" x="90.93125" xlink:href="#m61ba0c4b52" y="146.295"/>
      </g>
     </g>
     <g id="line2d_16">
      <g>
       <use style="stroke:#000000;stroke-width:0.5;" x="90.93125" xlink:href="#me7b7094ab7" y="3.6"/>
      </g>
     </g>
    </g>
    <g id="xtick_9">
     <g id="line2d_17">
      <g>
       <use style="stroke:#000000;stroke-width:0.5;" x="101.78125" xlink:href="#m61ba0c4b52" y="146.295"/>
      </g>
     </g>
     <g id="line2d_18">
      <g>
       <use style="stroke:#000000;stroke-width:0.5;" x="101.78125" xlink:href="#me7b7094ab7" y="3.6"/>
      </g>
     </g>
    </g>
    <g id="xtick_10">
     <g id="line2d_19">
      <g>
       <use style="stroke:#000000;stroke-width:0.5;" x="112.63125" xlink:href="#m61ba0c4b52" y="146.295"/>
      </g>
     </g>
     <g id="line2d_20">
      <g>
       <use style="stroke:#000000;stroke-width:0.5;" x="112.63125" xlink:href="#me7b7094ab7" y="3.6"/>
      </g>
     </g>
    </g>
    <g id="xtick_11">
     <g id="line2d_21">
      <g>
       <use style="stroke:#000000;stroke-width:0.5;" x="134.33125" xlink:href="#m61ba0c4b52" y="146.295"/>
      </g>
     </g>
     <g id="line2d_22">
      <g>
       <use style="stroke:#000000;stroke-width:0.5;" x="134.33125" xlink:href="#me7b7094ab7" y="3.6"/>
      </g>
     </g>
    </g>
    <g id="xtick_12">
     <g id="line2d_23">
      <g>
       <use style="stroke:#000000;stroke-width:0.5;" x="145.18125" xlink:href="#m61ba0c4b52" y="146.295"/>
      </g>
     </g>
     <g id="line2d_24">
      <g>
       <use style="stroke:#000000;stroke-width:0.5;" x="145.18125" xlink:href="#me7b7094ab7" y="3.6"/>
      </g>
     </g>
    </g>
    <g id="xtick_13">
     <g id="line2d_25">
      <g>
       <use style="stroke:#000000;stroke-width:0.5;" x="156.03125" xlink:href="#m61ba0c4b52" y="146.295"/>
      </g>
     </g>
     <g id="line2d_26">
      <g>
       <use style="stroke:#000000;stroke-width:0.5;" x="156.03125" xlink:href="#me7b7094ab7" y="3.6"/>
      </g>
     </g>
    </g>
    <g id="xtick_14">
     <g id="line2d_27">
      <g>
       <use style="stroke:#000000;stroke-width:0.5;" x="166.88125" xlink:href="#m61ba0c4b52" y="146.295"/>
      </g>
     </g>
     <g id="line2d_28">
      <g>
       <use style="stroke:#000000;stroke-width:0.5;" x="166.88125" xlink:href="#me7b7094ab7" y="3.6"/>
      </g>
     </g>
    </g>
    <g id="xtick_15">
     <g id="line2d_29">
      <g>
       <use style="stroke:#000000;stroke-width:0.5;" x="188.58125" xlink:href="#m61ba0c4b52" y="146.295"/>
      </g>
     </g>
     <g id="line2d_30">
      <g>
       <use style="stroke:#000000;stroke-width:0.5;" x="188.58125" xlink:href="#me7b7094ab7" y="3.6"/>
      </g>
     </g>
    </g>
    <g id="xtick_16">
     <g id="line2d_31">
      <g>
       <use style="stroke:#000000;stroke-width:0.5;" x="199.43125" xlink:href="#m61ba0c4b52" y="146.295"/>
      </g>
     </g>
     <g id="line2d_32">
      <g>
       <use style="stroke:#000000;stroke-width:0.5;" x="199.43125" xlink:href="#me7b7094ab7" y="3.6"/>
      </g>
     </g>
    </g>
    <g id="xtick_17">
     <g id="line2d_33">
      <g>
       <use style="stroke:#000000;stroke-width:0.5;" x="210.28125" xlink:href="#m61ba0c4b52" y="146.295"/>
      </g>
     </g>
     <g id="line2d_34">
      <g>
       <use style="stroke:#000000;stroke-width:0.5;" x="210.28125" xlink:href="#me7b7094ab7" y="3.6"/>
      </g>
     </g>
    </g>
    <g id="xtick_18">
     <g id="line2d_35">
      <g>
       <use style="stroke:#000000;stroke-width:0.5;" x="221.13125" xlink:href="#m61ba0c4b52" y="146.295"/>
      </g>
     </g>
     <g id="line2d_36">
      <g>
       <use style="stroke:#000000;stroke-width:0.5;" x="221.13125" xlink:href="#me7b7094ab7" y="3.6"/>
      </g>
     </g>
    </g>
    <g id="text_5">
     <!-- # Components -->
     <g transform="translate(96.91875 171.071562)scale(0.1 -0.1)">
      <defs>
       <path d="M 51.125 44 
L 36.921875 44 
L 32.8125 27.6875 
L 47.125 27.6875 
z
M 43.796875 71.78125 
L 38.71875 51.515625 
L 52.984375 51.515625 
L 58.109375 71.78125 
L 65.921875 71.78125 
L 60.890625 51.515625 
L 76.125 51.515625 
L 76.125 44 
L 58.984375 44 
L 54.984375 27.6875 
L 70.515625 27.6875 
L 70.515625 20.21875 
L 53.078125 20.21875 
L 48 0 
L 40.1875 0 
L 45.21875 20.21875 
L 30.90625 20.21875 
L 25.875 0 
L 18.015625 0 
L 23.09375 20.21875 
L 7.71875 20.21875 
L 7.71875 27.6875 
L 24.90625 27.6875 
L 29 44 
L 13.28125 44 
L 13.28125 51.515625 
L 30.90625 51.515625 
L 35.890625 71.78125 
z
" id="DejaVuSans-35"/>
       <path id="DejaVuSans-32"/>
       <path d="M 64.40625 67.28125 
L 64.40625 56.890625 
Q 59.421875 61.53125 53.78125 63.8125 
Q 48.140625 66.109375 41.796875 66.109375 
Q 29.296875 66.109375 22.65625 58.46875 
Q 16.015625 50.828125 16.015625 36.375 
Q 16.015625 21.96875 22.65625 14.328125 
Q 29.296875 6.6875 41.796875 6.6875 
Q 48.140625 6.6875 53.78125 8.984375 
Q 59.421875 11.28125 64.40625 15.921875 
L 64.40625 5.609375 
Q 59.234375 2.09375 53.4375 0.328125 
Q 47.65625 -1.421875 41.21875 -1.421875 
Q 24.65625 -1.421875 15.125 8.703125 
Q 5.609375 18.84375 5.609375 36.375 
Q 5.609375 53.953125 15.125 64.078125 
Q 24.65625 74.21875 41.21875 74.21875 
Q 47.75 74.21875 53.53125 72.484375 
Q 59.328125 70.75 64.40625 67.28125 
z
" id="DejaVuSans-67"/>
       <path d="M 30.609375 48.390625 
Q 23.390625 48.390625 19.1875 42.75 
Q 14.984375 37.109375 14.984375 27.296875 
Q 14.984375 17.484375 19.15625 11.84375 
Q 23.34375 6.203125 30.609375 6.203125 
Q 37.796875 6.203125 41.984375 11.859375 
Q 46.1875 17.53125 46.1875 27.296875 
Q 46.1875 37.015625 41.984375 42.703125 
Q 37.796875 48.390625 30.609375 48.390625 
z
M 30.609375 56 
Q 42.328125 56 49.015625 48.375 
Q 55.71875 40.765625 55.71875 27.296875 
Q 55.71875 13.875 49.015625 6.21875 
Q 42.328125 -1.421875 30.609375 -1.421875 
Q 18.84375 -1.421875 12.171875 6.21875 
Q 5.515625 13.875 5.515625 27.296875 
Q 5.515625 40.765625 12.171875 48.375 
Q 18.84375 56 30.609375 56 
z
" id="DejaVuSans-111"/>
       <path d="M 52 44.1875 
Q 55.375 50.25 60.0625 53.125 
Q 64.75 56 71.09375 56 
Q 79.640625 56 84.28125 50.015625 
Q 88.921875 44.046875 88.921875 33.015625 
L 88.921875 0 
L 79.890625 0 
L 79.890625 32.71875 
Q 79.890625 40.578125 77.09375 44.375 
Q 74.3125 48.1875 68.609375 48.1875 
Q 61.625 48.1875 57.5625 43.546875 
Q 53.515625 38.921875 53.515625 30.90625 
L 53.515625 0 
L 44.484375 0 
L 44.484375 32.71875 
Q 44.484375 40.625 41.703125 44.40625 
Q 38.921875 48.1875 33.109375 48.1875 
Q 26.21875 48.1875 22.15625 43.53125 
Q 18.109375 38.875 18.109375 30.90625 
L 18.109375 0 
L 9.078125 0 
L 9.078125 54.6875 
L 18.109375 54.6875 
L 18.109375 46.1875 
Q 21.1875 51.21875 25.484375 53.609375 
Q 29.78125 56 35.6875 56 
Q 41.65625 56 45.828125 52.96875 
Q 50 49.953125 52 44.1875 
z
" id="DejaVuSans-109"/>
       <path d="M 18.109375 8.203125 
L 18.109375 -20.796875 
L 9.078125 -20.796875 
L 9.078125 54.6875 
L 18.109375 54.6875 
L 18.109375 46.390625 
Q 20.953125 51.265625 25.265625 53.625 
Q 29.59375 56 35.59375 56 
Q 45.5625 56 51.78125 48.09375 
Q 58.015625 40.1875 58.015625 27.296875 
Q 58.015625 14.40625 51.78125 6.484375 
Q 45.5625 -1.421875 35.59375 -1.421875 
Q 29.59375 -1.421875 25.265625 0.953125 
Q 20.953125 3.328125 18.109375 8.203125 
z
M 48.6875 27.296875 
Q 48.6875 37.203125 44.609375 42.84375 
Q 40.53125 48.484375 33.40625 48.484375 
Q 26.265625 48.484375 22.1875 42.84375 
Q 18.109375 37.203125 18.109375 27.296875 
Q 18.109375 17.390625 22.1875 11.75 
Q 26.265625 6.109375 33.40625 6.109375 
Q 40.53125 6.109375 44.609375 11.75 
Q 48.6875 17.390625 48.6875 27.296875 
z
" id="DejaVuSans-112"/>
       <path d="M 54.890625 33.015625 
L 54.890625 0 
L 45.90625 0 
L 45.90625 32.71875 
Q 45.90625 40.484375 42.875 44.328125 
Q 39.84375 48.1875 33.796875 48.1875 
Q 26.515625 48.1875 22.3125 43.546875 
Q 18.109375 38.921875 18.109375 30.90625 
L 18.109375 0 
L 9.078125 0 
L 9.078125 54.6875 
L 18.109375 54.6875 
L 18.109375 46.1875 
Q 21.34375 51.125 25.703125 53.5625 
Q 30.078125 56 35.796875 56 
Q 45.21875 56 50.046875 50.171875 
Q 54.890625 44.34375 54.890625 33.015625 
z
" id="DejaVuSans-110"/>
       <path d="M 56.203125 29.59375 
L 56.203125 25.203125 
L 14.890625 25.203125 
Q 15.484375 15.921875 20.484375 11.0625 
Q 25.484375 6.203125 34.421875 6.203125 
Q 39.59375 6.203125 44.453125 7.46875 
Q 49.3125 8.734375 54.109375 11.28125 
L 54.109375 2.78125 
Q 49.265625 0.734375 44.1875 -0.34375 
Q 39.109375 -1.421875 33.890625 -1.421875 
Q 20.796875 -1.421875 13.15625 6.1875 
Q 5.515625 13.8125 5.515625 26.8125 
Q 5.515625 40.234375 12.765625 48.109375 
Q 20.015625 56 32.328125 56 
Q 43.359375 56 49.78125 48.890625 
Q 56.203125 41.796875 56.203125 29.59375 
z
M 47.21875 32.234375 
Q 47.125 39.59375 43.09375 43.984375 
Q 39.0625 48.390625 32.421875 48.390625 
Q 24.90625 48.390625 20.390625 44.140625 
Q 15.875 39.890625 15.1875 32.171875 
z
" id="DejaVuSans-101"/>
       <path d="M 18.3125 70.21875 
L 18.3125 54.6875 
L 36.8125 54.6875 
L 36.8125 47.703125 
L 18.3125 47.703125 
L 18.3125 18.015625 
Q 18.3125 11.328125 20.140625 9.421875 
Q 21.96875 7.515625 27.59375 7.515625 
L 36.8125 7.515625 
L 36.8125 0 
L 27.59375 0 
Q 17.1875 0 13.234375 3.875 
Q 9.28125 7.765625 9.28125 18.015625 
L 9.28125 47.703125 
L 2.6875 47.703125 
L 2.6875 54.6875 
L 9.28125 54.6875 
L 9.28125 70.21875 
z
" id="DejaVuSans-116"/>
       <path d="M 44.28125 53.078125 
L 44.28125 44.578125 
Q 40.484375 46.53125 36.375 47.5 
Q 32.28125 48.484375 27.875 48.484375 
Q 21.1875 48.484375 17.84375 46.4375 
Q 14.5 44.390625 14.5 40.28125 
Q 14.5 37.15625 16.890625 35.375 
Q 19.28125 33.59375 26.515625 31.984375 
L 29.59375 31.296875 
Q 39.15625 29.25 43.1875 25.515625 
Q 47.21875 21.78125 47.21875 15.09375 
Q 47.21875 7.46875 41.1875 3.015625 
Q 35.15625 -1.421875 24.609375 -1.421875 
Q 20.21875 -1.421875 15.453125 -0.5625 
Q 10.6875 0.296875 5.421875 2 
L 5.421875 11.28125 
Q 10.40625 8.6875 15.234375 7.390625 
Q 20.0625 6.109375 24.8125 6.109375 
Q 31.15625 6.109375 34.5625 8.28125 
Q 37.984375 10.453125 37.984375 14.40625 
Q 37.984375 18.0625 35.515625 20.015625 
Q 33.0625 21.96875 24.703125 23.78125 
L 21.578125 24.515625 
Q 13.234375 26.265625 9.515625 29.90625 
Q 5.8125 33.546875 5.8125 39.890625 
Q 5.8125 47.609375 11.28125 51.796875 
Q 16.75 56 26.8125 56 
Q 31.78125 56 36.171875 55.265625 
Q 40.578125 54.546875 44.28125 53.078125 
z
" id="DejaVuSans-115"/>
      </defs>
      <use xlink:href="#DejaVuSans-35"/>
      <use x="83.789062" xlink:href="#DejaVuSans-32"/>
      <use x="115.576172" xlink:href="#DejaVuSans-67"/>
      <use x="185.400391" xlink:href="#DejaVuSans-111"/>
      <use x="246.582031" xlink:href="#DejaVuSans-109"/>
      <use x="343.994141" xlink:href="#DejaVuSans-112"/>
      <use x="407.470703" xlink:href="#DejaVuSans-111"/>
      <use x="468.652344" xlink:href="#DejaVuSans-110"/>
      <use x="532.03125" xlink:href="#DejaVuSans-101"/>
      <use x="593.554688" xlink:href="#DejaVuSans-110"/>
      <use x="656.933594" xlink:href="#DejaVuSans-116"/>
      <use x="696.142578" xlink:href="#DejaVuSans-115"/>
     </g>
    </g>
   </g>
   <g id="matplotlib.axis_2">
    <g id="ytick_1">
     <g id="line2d_37">
      <defs>
       <path d="M 0 0 
L 3 0 
" id="m7434b6521b" style="stroke:#000000;stroke-width:0.5;"/>
      </defs>
      <g>
       <use style="stroke:#000000;stroke-width:0.5;" x="36.68125" xlink:href="#m7434b6521b" y="141.612119"/>
      </g>
     </g>
     <g id="line2d_38">
      <defs>
       <path d="M 0 0 
L -3 0 
" id="m3a86e58242" style="stroke:#000000;stroke-width:0.5;"/>
      </defs>
      <g>
       <use style="stroke:#000000;stroke-width:0.5;" x="231.98125" xlink:href="#m3a86e58242" y="141.612119"/>
      </g>
     </g>
     <g id="text_6">
      <!-- 0.6 -->
      <g transform="translate(17.278125 145.411338)scale(0.1 -0.1)">
       <defs>
        <path d="M 10.6875 12.40625 
L 21 12.40625 
L 21 0 
L 10.6875 0 
z
" id="DejaVuSans-46"/>
        <path d="M 33.015625 40.375 
Q 26.375 40.375 22.484375 35.828125 
Q 18.609375 31.296875 18.609375 23.390625 
Q 18.609375 15.53125 22.484375 10.953125 
Q 26.375 6.390625 33.015625 6.390625 
Q 39.65625 6.390625 43.53125 10.953125 
Q 47.40625 15.53125 47.40625 23.390625 
Q 47.40625 31.296875 43.53125 35.828125 
Q 39.65625 40.375 33.015625 40.375 
z
M 52.59375 71.296875 
L 52.59375 62.3125 
Q 48.875 64.0625 45.09375 64.984375 
Q 41.3125 65.921875 37.59375 65.921875 
Q 27.828125 65.921875 22.671875 59.328125 
Q 17.53125 52.734375 16.796875 39.40625 
Q 19.671875 43.65625 24.015625 45.921875 
Q 28.375 48.1875 33.59375 48.1875 
Q 44.578125 48.1875 50.953125 41.515625 
Q 57.328125 34.859375 57.328125 23.390625 
Q 57.328125 12.15625 50.6875 5.359375 
Q 44.046875 -1.421875 33.015625 -1.421875 
Q 20.359375 -1.421875 13.671875 8.265625 
Q 6.984375 17.96875 6.984375 36.375 
Q 6.984375 53.65625 15.1875 63.9375 
Q 23.390625 74.21875 37.203125 74.21875 
Q 40.921875 74.21875 44.703125 73.484375 
Q 48.484375 72.75 52.59375 71.296875 
z
" id="DejaVuSans-54"/>
       </defs>
       <use xlink:href="#DejaVuSans-48"/>
       <use x="63.623047" xlink:href="#DejaVuSans-46"/>
       <use x="95.410156" xlink:href="#DejaVuSans-54"/>
      </g>
     </g>
    </g>
    <g id="ytick_2">
     <g id="line2d_39">
      <g>
       <use style="stroke:#000000;stroke-width:0.5;" x="36.68125" xlink:href="#m7434b6521b" y="108.530725"/>
      </g>
     </g>
     <g id="line2d_40">
      <g>
       <use style="stroke:#000000;stroke-width:0.5;" x="231.98125" xlink:href="#m3a86e58242" y="108.530725"/>
      </g>
     </g>
     <g id="text_7">
      <!-- 0.7 -->
      <g transform="translate(17.278125 112.329944)scale(0.1 -0.1)">
       <defs>
        <path d="M 8.203125 72.90625 
L 55.078125 72.90625 
L 55.078125 68.703125 
L 28.609375 0 
L 18.3125 0 
L 43.21875 64.59375 
L 8.203125 64.59375 
z
" id="DejaVuSans-55"/>
       </defs>
       <use xlink:href="#DejaVuSans-48"/>
       <use x="63.623047" xlink:href="#DejaVuSans-46"/>
       <use x="95.410156" xlink:href="#DejaVuSans-55"/>
      </g>
     </g>
    </g>
    <g id="ytick_3">
     <g id="line2d_41">
      <g>
       <use style="stroke:#000000;stroke-width:0.5;" x="36.68125" xlink:href="#m7434b6521b" y="75.44933"/>
      </g>
     </g>
     <g id="line2d_42">
      <g>
       <use style="stroke:#000000;stroke-width:0.5;" x="231.98125" xlink:href="#m3a86e58242" y="75.44933"/>
      </g>
     </g>
     <g id="text_8">
      <!-- 0.8 -->
      <g transform="translate(17.278125 79.248549)scale(0.1 -0.1)">
       <defs>
        <path d="M 31.78125 34.625 
Q 24.75 34.625 20.71875 30.859375 
Q 16.703125 27.09375 16.703125 20.515625 
Q 16.703125 13.921875 20.71875 10.15625 
Q 24.75 6.390625 31.78125 6.390625 
Q 38.8125 6.390625 42.859375 10.171875 
Q 46.921875 13.96875 46.921875 20.515625 
Q 46.921875 27.09375 42.890625 30.859375 
Q 38.875 34.625 31.78125 34.625 
z
M 21.921875 38.8125 
Q 15.578125 40.375 12.03125 44.71875 
Q 8.5 49.078125 8.5 55.328125 
Q 8.5 64.0625 14.71875 69.140625 
Q 20.953125 74.21875 31.78125 74.21875 
Q 42.671875 74.21875 48.875 69.140625 
Q 55.078125 64.0625 55.078125 55.328125 
Q 55.078125 49.078125 51.53125 44.71875 
Q 48 40.375 41.703125 38.8125 
Q 48.828125 37.15625 52.796875 32.3125 
Q 56.78125 27.484375 56.78125 20.515625 
Q 56.78125 9.90625 50.3125 4.234375 
Q 43.84375 -1.421875 31.78125 -1.421875 
Q 19.734375 -1.421875 13.25 4.234375 
Q 6.78125 9.90625 6.78125 20.515625 
Q 6.78125 27.484375 10.78125 32.3125 
Q 14.796875 37.15625 21.921875 38.8125 
z
M 18.3125 54.390625 
Q 18.3125 48.734375 21.84375 45.5625 
Q 25.390625 42.390625 31.78125 42.390625 
Q 38.140625 42.390625 41.71875 45.5625 
Q 45.3125 48.734375 45.3125 54.390625 
Q 45.3125 60.0625 41.71875 63.234375 
Q 38.140625 66.40625 31.78125 66.40625 
Q 25.390625 66.40625 21.84375 63.234375 
Q 18.3125 60.0625 18.3125 54.390625 
z
" id="DejaVuSans-56"/>
       </defs>
       <use xlink:href="#DejaVuSans-48"/>
       <use x="63.623047" xlink:href="#DejaVuSans-46"/>
       <use x="95.410156" xlink:href="#DejaVuSans-56"/>
      </g>
     </g>
    </g>
    <g id="ytick_4">
     <g id="line2d_43">
      <g>
       <use style="stroke:#000000;stroke-width:0.5;" x="36.68125" xlink:href="#m7434b6521b" y="42.367936"/>
      </g>
     </g>
     <g id="line2d_44">
      <g>
       <use style="stroke:#000000;stroke-width:0.5;" x="231.98125" xlink:href="#m3a86e58242" y="42.367936"/>
      </g>
     </g>
     <g id="text_9">
      <!-- 0.9 -->
      <g transform="translate(17.278125 46.167155)scale(0.1 -0.1)">
       <defs>
        <path d="M 10.984375 1.515625 
L 10.984375 10.5 
Q 14.703125 8.734375 18.5 7.8125 
Q 22.3125 6.890625 25.984375 6.890625 
Q 35.75 6.890625 40.890625 13.453125 
Q 46.046875 20.015625 46.78125 33.40625 
Q 43.953125 29.203125 39.59375 26.953125 
Q 35.25 24.703125 29.984375 24.703125 
Q 19.046875 24.703125 12.671875 31.3125 
Q 6.296875 37.9375 6.296875 49.421875 
Q 6.296875 60.640625 12.9375 67.421875 
Q 19.578125 74.21875 30.609375 74.21875 
Q 43.265625 74.21875 49.921875 64.515625 
Q 56.59375 54.828125 56.59375 36.375 
Q 56.59375 19.140625 48.40625 8.859375 
Q 40.234375 -1.421875 26.421875 -1.421875 
Q 22.703125 -1.421875 18.890625 -0.6875 
Q 15.09375 0.046875 10.984375 1.515625 
z
M 30.609375 32.421875 
Q 37.25 32.421875 41.125 36.953125 
Q 45.015625 41.5 45.015625 49.421875 
Q 45.015625 57.28125 41.125 61.84375 
Q 37.25 66.40625 30.609375 66.40625 
Q 23.96875 66.40625 20.09375 61.84375 
Q 16.21875 57.28125 16.21875 49.421875 
Q 16.21875 41.5 20.09375 36.953125 
Q 23.96875 32.421875 30.609375 32.421875 
z
" id="DejaVuSans-57"/>
       </defs>
       <use xlink:href="#DejaVuSans-48"/>
       <use x="63.623047" xlink:href="#DejaVuSans-46"/>
       <use x="95.410156" xlink:href="#DejaVuSans-57"/>
      </g>
     </g>
    </g>
    <g id="ytick_5">
     <g id="line2d_45">
      <g>
       <use style="stroke:#000000;stroke-width:0.5;" x="36.68125" xlink:href="#m7434b6521b" y="9.286541"/>
      </g>
     </g>
     <g id="line2d_46">
      <g>
       <use style="stroke:#000000;stroke-width:0.5;" x="231.98125" xlink:href="#m3a86e58242" y="9.286541"/>
      </g>
     </g>
     <g id="text_10">
      <!-- 1.0 -->
      <g transform="translate(17.278125 13.08576)scale(0.1 -0.1)">
       <use xlink:href="#DejaVuSans-49"/>
       <use x="63.623047" xlink:href="#DejaVuSans-46"/>
       <use x="95.410156" xlink:href="#DejaVuSans-48"/>
      </g>
     </g>
    </g>
    <g id="ytick_6">
     <g id="line2d_47">
      <defs>
       <path d="M 0 0 
L 1.5 0 
" id="m2a75e0ac80" style="stroke:#000000;stroke-width:0.5;"/>
      </defs>
      <g>
       <use style="stroke:#000000;stroke-width:0.5;" x="36.68125" xlink:href="#m2a75e0ac80" y="134.99584"/>
      </g>
     </g>
     <g id="line2d_48">
      <defs>
       <path d="M 0 0 
L -1.5 0 
" id="mf75b76bea9" style="stroke:#000000;stroke-width:0.5;"/>
      </defs>
      <g>
       <use style="stroke:#000000;stroke-width:0.5;" x="231.98125" xlink:href="#mf75b76bea9" y="134.99584"/>
      </g>
     </g>
    </g>
    <g id="ytick_7">
     <g id="line2d_49">
      <g>
       <use style="stroke:#000000;stroke-width:0.5;" x="36.68125" xlink:href="#m2a75e0ac80" y="128.379562"/>
      </g>
     </g>
     <g id="line2d_50">
      <g>
       <use style="stroke:#000000;stroke-width:0.5;" x="231.98125" xlink:href="#mf75b76bea9" y="128.379562"/>
      </g>
     </g>
    </g>
    <g id="ytick_8">
     <g id="line2d_51">
      <g>
       <use style="stroke:#000000;stroke-width:0.5;" x="36.68125" xlink:href="#m2a75e0ac80" y="121.763283"/>
      </g>
     </g>
     <g id="line2d_52">
      <g>
       <use style="stroke:#000000;stroke-width:0.5;" x="231.98125" xlink:href="#mf75b76bea9" y="121.763283"/>
      </g>
     </g>
    </g>
    <g id="ytick_9">
     <g id="line2d_53">
      <g>
       <use style="stroke:#000000;stroke-width:0.5;" x="36.68125" xlink:href="#m2a75e0ac80" y="115.147004"/>
      </g>
     </g>
     <g id="line2d_54">
      <g>
       <use style="stroke:#000000;stroke-width:0.5;" x="231.98125" xlink:href="#mf75b76bea9" y="115.147004"/>
      </g>
     </g>
    </g>
    <g id="ytick_10">
     <g id="line2d_55">
      <g>
       <use style="stroke:#000000;stroke-width:0.5;" x="36.68125" xlink:href="#m2a75e0ac80" y="101.914446"/>
      </g>
     </g>
     <g id="line2d_56">
      <g>
       <use style="stroke:#000000;stroke-width:0.5;" x="231.98125" xlink:href="#mf75b76bea9" y="101.914446"/>
      </g>
     </g>
    </g>
    <g id="ytick_11">
     <g id="line2d_57">
      <g>
       <use style="stroke:#000000;stroke-width:0.5;" x="36.68125" xlink:href="#m2a75e0ac80" y="95.298167"/>
      </g>
     </g>
     <g id="line2d_58">
      <g>
       <use style="stroke:#000000;stroke-width:0.5;" x="231.98125" xlink:href="#mf75b76bea9" y="95.298167"/>
      </g>
     </g>
    </g>
    <g id="ytick_12">
     <g id="line2d_59">
      <g>
       <use style="stroke:#000000;stroke-width:0.5;" x="36.68125" xlink:href="#m2a75e0ac80" y="88.681888"/>
      </g>
     </g>
     <g id="line2d_60">
      <g>
       <use style="stroke:#000000;stroke-width:0.5;" x="231.98125" xlink:href="#mf75b76bea9" y="88.681888"/>
      </g>
     </g>
    </g>
    <g id="ytick_13">
     <g id="line2d_61">
      <g>
       <use style="stroke:#000000;stroke-width:0.5;" x="36.68125" xlink:href="#m2a75e0ac80" y="82.065609"/>
      </g>
     </g>
     <g id="line2d_62">
      <g>
       <use style="stroke:#000000;stroke-width:0.5;" x="231.98125" xlink:href="#mf75b76bea9" y="82.065609"/>
      </g>
     </g>
    </g>
    <g id="ytick_14">
     <g id="line2d_63">
      <g>
       <use style="stroke:#000000;stroke-width:0.5;" x="36.68125" xlink:href="#m2a75e0ac80" y="68.833052"/>
      </g>
     </g>
     <g id="line2d_64">
      <g>
       <use style="stroke:#000000;stroke-width:0.5;" x="231.98125" xlink:href="#mf75b76bea9" y="68.833052"/>
      </g>
     </g>
    </g>
    <g id="ytick_15">
     <g id="line2d_65">
      <g>
       <use style="stroke:#000000;stroke-width:0.5;" x="36.68125" xlink:href="#m2a75e0ac80" y="62.216773"/>
      </g>
     </g>
     <g id="line2d_66">
      <g>
       <use style="stroke:#000000;stroke-width:0.5;" x="231.98125" xlink:href="#mf75b76bea9" y="62.216773"/>
      </g>
     </g>
    </g>
    <g id="ytick_16">
     <g id="line2d_67">
      <g>
       <use style="stroke:#000000;stroke-width:0.5;" x="36.68125" xlink:href="#m2a75e0ac80" y="55.600494"/>
      </g>
     </g>
     <g id="line2d_68">
      <g>
       <use style="stroke:#000000;stroke-width:0.5;" x="231.98125" xlink:href="#mf75b76bea9" y="55.600494"/>
      </g>
     </g>
    </g>
    <g id="ytick_17">
     <g id="line2d_69">
      <g>
       <use style="stroke:#000000;stroke-width:0.5;" x="36.68125" xlink:href="#m2a75e0ac80" y="48.984215"/>
      </g>
     </g>
     <g id="line2d_70">
      <g>
       <use style="stroke:#000000;stroke-width:0.5;" x="231.98125" xlink:href="#mf75b76bea9" y="48.984215"/>
      </g>
     </g>
    </g>
    <g id="ytick_18">
     <g id="line2d_71">
      <g>
       <use style="stroke:#000000;stroke-width:0.5;" x="36.68125" xlink:href="#m2a75e0ac80" y="35.751657"/>
      </g>
     </g>
     <g id="line2d_72">
      <g>
       <use style="stroke:#000000;stroke-width:0.5;" x="231.98125" xlink:href="#mf75b76bea9" y="35.751657"/>
      </g>
     </g>
    </g>
    <g id="ytick_19">
     <g id="line2d_73">
      <g>
       <use style="stroke:#000000;stroke-width:0.5;" x="36.68125" xlink:href="#m2a75e0ac80" y="29.135378"/>
      </g>
     </g>
     <g id="line2d_74">
      <g>
       <use style="stroke:#000000;stroke-width:0.5;" x="231.98125" xlink:href="#mf75b76bea9" y="29.135378"/>
      </g>
     </g>
    </g>
    <g id="ytick_20">
     <g id="line2d_75">
      <g>
       <use style="stroke:#000000;stroke-width:0.5;" x="36.68125" xlink:href="#m2a75e0ac80" y="22.519099"/>
      </g>
     </g>
     <g id="line2d_76">
      <g>
       <use style="stroke:#000000;stroke-width:0.5;" x="231.98125" xlink:href="#mf75b76bea9" y="22.519099"/>
      </g>
     </g>
    </g>
    <g id="ytick_21">
     <g id="line2d_77">
      <g>
       <use style="stroke:#000000;stroke-width:0.5;" x="36.68125" xlink:href="#m2a75e0ac80" y="15.90282"/>
      </g>
     </g>
     <g id="line2d_78">
      <g>
       <use style="stroke:#000000;stroke-width:0.5;" x="231.98125" xlink:href="#mf75b76bea9" y="15.90282"/>
      </g>
     </g>
    </g>
    <g id="text_11">
     <!-- Cophenic Correlation -->
     <g transform="translate(11.198438 127.382656)rotate(-90)scale(0.1 -0.1)">
      <defs>
       <path d="M 54.890625 33.015625 
L 54.890625 0 
L 45.90625 0 
L 45.90625 32.71875 
Q 45.90625 40.484375 42.875 44.328125 
Q 39.84375 48.1875 33.796875 48.1875 
Q 26.515625 48.1875 22.3125 43.546875 
Q 18.109375 38.921875 18.109375 30.90625 
L 18.109375 0 
L 9.078125 0 
L 9.078125 75.984375 
L 18.109375 75.984375 
L 18.109375 46.1875 
Q 21.34375 51.125 25.703125 53.5625 
Q 30.078125 56 35.796875 56 
Q 45.21875 56 50.046875 50.171875 
Q 54.890625 44.34375 54.890625 33.015625 
z
" id="DejaVuSans-104"/>
       <path d="M 9.421875 54.6875 
L 18.40625 54.6875 
L 18.40625 0 
L 9.421875 0 
z
M 9.421875 75.984375 
L 18.40625 75.984375 
L 18.40625 64.59375 
L 9.421875 64.59375 
z
" id="DejaVuSans-105"/>
       <path d="M 48.78125 52.59375 
L 48.78125 44.1875 
Q 44.96875 46.296875 41.140625 47.34375 
Q 37.3125 48.390625 33.40625 48.390625 
Q 24.65625 48.390625 19.8125 42.84375 
Q 14.984375 37.3125 14.984375 27.296875 
Q 14.984375 17.28125 19.8125 11.734375 
Q 24.65625 6.203125 33.40625 6.203125 
Q 37.3125 6.203125 41.140625 7.25 
Q 44.96875 8.296875 48.78125 10.40625 
L 48.78125 2.09375 
Q 45.015625 0.34375 40.984375 -0.53125 
Q 36.96875 -1.421875 32.421875 -1.421875 
Q 20.0625 -1.421875 12.78125 6.34375 
Q 5.515625 14.109375 5.515625 27.296875 
Q 5.515625 40.671875 12.859375 48.328125 
Q 20.21875 56 33.015625 56 
Q 37.15625 56 41.109375 55.140625 
Q 45.0625 54.296875 48.78125 52.59375 
z
" id="DejaVuSans-99"/>
       <path d="M 41.109375 46.296875 
Q 39.59375 47.171875 37.8125 47.578125 
Q 36.03125 48 33.890625 48 
Q 26.265625 48 22.1875 43.046875 
Q 18.109375 38.09375 18.109375 28.8125 
L 18.109375 0 
L 9.078125 0 
L 9.078125 54.6875 
L 18.109375 54.6875 
L 18.109375 46.1875 
Q 20.953125 51.171875 25.484375 53.578125 
Q 30.03125 56 36.53125 56 
Q 37.453125 56 38.578125 55.875 
Q 39.703125 55.765625 41.0625 55.515625 
z
" id="DejaVuSans-114"/>
       <path d="M 9.421875 75.984375 
L 18.40625 75.984375 
L 18.40625 0 
L 9.421875 0 
z
" id="DejaVuSans-108"/>
       <path d="M 34.28125 27.484375 
Q 23.390625 27.484375 19.1875 25 
Q 14.984375 22.515625 14.984375 16.5 
Q 14.984375 11.71875 18.140625 8.90625 
Q 21.296875 6.109375 26.703125 6.109375 
Q 34.1875 6.109375 38.703125 11.40625 
Q 43.21875 16.703125 43.21875 25.484375 
L 43.21875 27.484375 
z
M 52.203125 31.203125 
L 52.203125 0 
L 43.21875 0 
L 43.21875 8.296875 
Q 40.140625 3.328125 35.546875 0.953125 
Q 30.953125 -1.421875 24.3125 -1.421875 
Q 15.921875 -1.421875 10.953125 3.296875 
Q 6 8.015625 6 15.921875 
Q 6 25.140625 12.171875 29.828125 
Q 18.359375 34.515625 30.609375 34.515625 
L 43.21875 34.515625 
L 43.21875 35.40625 
Q 43.21875 41.609375 39.140625 45 
Q 35.0625 48.390625 27.6875 48.390625 
Q 23 48.390625 18.546875 47.265625 
Q 14.109375 46.140625 10.015625 43.890625 
L 10.015625 52.203125 
Q 14.9375 54.109375 19.578125 55.046875 
Q 24.21875 56 28.609375 56 
Q 40.484375 56 46.34375 49.84375 
Q 52.203125 43.703125 52.203125 31.203125 
z
" id="DejaVuSans-97"/>
      </defs>
      <use xlink:href="#DejaVuSans-67"/>
      <use x="69.824219" xlink:href="#DejaVuSans-111"/>
      <use x="131.005859" xlink:href="#DejaVuSans-112"/>
      <use x="194.482422" xlink:href="#DejaVuSans-104"/>
      <use x="257.861328" xlink:href="#DejaVuSans-101"/>
      <use x="319.384766" xlink:href="#DejaVuSans-110"/>
      <use x="382.763672" xlink:href="#DejaVuSans-105"/>
      <use x="410.546875" xlink:href="#DejaVuSans-99"/>
      <use x="465.527344" xlink:href="#DejaVuSans-32"/>
      <use x="497.314453" xlink:href="#DejaVuSans-67"/>
      <use x="567.138672" xlink:href="#DejaVuSans-111"/>
      <use x="628.320312" xlink:href="#DejaVuSans-114"/>
      <use x="667.683594" xlink:href="#DejaVuSans-114"/>
      <use x="706.546875" xlink:href="#DejaVuSans-101"/>
      <use x="768.070312" xlink:href="#DejaVuSans-108"/>
      <use x="795.853516" xlink:href="#DejaVuSans-97"/>
      <use x="857.132812" xlink:href="#DejaVuSans-116"/>
      <use x="896.341797" xlink:href="#DejaVuSans-105"/>
      <use x="924.125" xlink:href="#DejaVuSans-111"/>
      <use x="985.306641" xlink:href="#DejaVuSans-110"/>
     </g>
    </g>
   </g>
   <g id="line2d_79">
    <path clip-path="url(#p1136e73307)" d="M 47.53125 109.280062 
L 58.38125 64.309591 
L 69.23125 59.731049 
L 80.08125 108.802772 
L 90.93125 101.748577 
L 101.78125 99.253311 
L 112.63125 65.009161 
L 123.48125 59.089195 
L 134.33125 70.102344 
L 145.18125 65.221868 
L 156.03125 61.747101 
L 166.88125 55.561823 
L 177.73125 47.537204 
L 188.58125 43.447558 
L 199.43125 40.840352 
L 210.28125 41.706898 
L 221.13125 43.148351 
L 231.98125 40.188396 
" style="fill:none;stroke:#0c5da5;stroke-linecap:square;stroke-width:1.2;"/>
    <defs>
     <path d="M -2 2 
L 2 2 
L 2 -2 
L -2 -2 
z
" id="m9e685dc14b" style="stroke:#0c5da5;stroke-linejoin:miter;stroke-width:1.5;"/>
    </defs>
    <g clip-path="url(#p1136e73307)">
     <use style="fill-opacity:0;stroke:#0c5da5;stroke-linejoin:miter;stroke-width:1.5;" x="47.53125" xlink:href="#m9e685dc14b" y="109.280062"/>
     <use style="fill-opacity:0;stroke:#0c5da5;stroke-linejoin:miter;stroke-width:1.5;" x="58.38125" xlink:href="#m9e685dc14b" y="64.309591"/>
     <use style="fill-opacity:0;stroke:#0c5da5;stroke-linejoin:miter;stroke-width:1.5;" x="69.23125" xlink:href="#m9e685dc14b" y="59.731049"/>
     <use style="fill-opacity:0;stroke:#0c5da5;stroke-linejoin:miter;stroke-width:1.5;" x="80.08125" xlink:href="#m9e685dc14b" y="108.802772"/>
     <use style="fill-opacity:0;stroke:#0c5da5;stroke-linejoin:miter;stroke-width:1.5;" x="90.93125" xlink:href="#m9e685dc14b" y="101.748577"/>
     <use style="fill-opacity:0;stroke:#0c5da5;stroke-linejoin:miter;stroke-width:1.5;" x="101.78125" xlink:href="#m9e685dc14b" y="99.253311"/>
     <use style="fill-opacity:0;stroke:#0c5da5;stroke-linejoin:miter;stroke-width:1.5;" x="112.63125" xlink:href="#m9e685dc14b" y="65.009161"/>
     <use style="fill-opacity:0;stroke:#0c5da5;stroke-linejoin:miter;stroke-width:1.5;" x="123.48125" xlink:href="#m9e685dc14b" y="59.089195"/>
     <use style="fill-opacity:0;stroke:#0c5da5;stroke-linejoin:miter;stroke-width:1.5;" x="134.33125" xlink:href="#m9e685dc14b" y="70.102344"/>
     <use style="fill-opacity:0;stroke:#0c5da5;stroke-linejoin:miter;stroke-width:1.5;" x="145.18125" xlink:href="#m9e685dc14b" y="65.221868"/>
     <use style="fill-opacity:0;stroke:#0c5da5;stroke-linejoin:miter;stroke-width:1.5;" x="156.03125" xlink:href="#m9e685dc14b" y="61.747101"/>
     <use style="fill-opacity:0;stroke:#0c5da5;stroke-linejoin:miter;stroke-width:1.5;" x="166.88125" xlink:href="#m9e685dc14b" y="55.561823"/>
     <use style="fill-opacity:0;stroke:#0c5da5;stroke-linejoin:miter;stroke-width:1.5;" x="177.73125" xlink:href="#m9e685dc14b" y="47.537204"/>
     <use style="fill-opacity:0;stroke:#0c5da5;stroke-linejoin:miter;stroke-width:1.5;" x="188.58125" xlink:href="#m9e685dc14b" y="43.447558"/>
     <use style="fill-opacity:0;stroke:#0c5da5;stroke-linejoin:miter;stroke-width:1.5;" x="199.43125" xlink:href="#m9e685dc14b" y="40.840352"/>
     <use style="fill-opacity:0;stroke:#0c5da5;stroke-linejoin:miter;stroke-width:1.5;" x="210.28125" xlink:href="#m9e685dc14b" y="41.706898"/>
     <use style="fill-opacity:0;stroke:#0c5da5;stroke-linejoin:miter;stroke-width:1.5;" x="221.13125" xlink:href="#m9e685dc14b" y="43.148351"/>
     <use style="fill-opacity:0;stroke:#0c5da5;stroke-linejoin:miter;stroke-width:1.5;" x="231.98125" xlink:href="#m9e685dc14b" y="40.188396"/>
    </g>
   </g>
   <g id="line2d_80">
    <path clip-path="url(#p1136e73307)" d="M 47.53125 45.506026 
L 58.38125 36.180945 
L 69.23125 32.986781 
L 80.08125 52.850387 
L 90.93125 64.214365 
L 101.78125 70.464606 
L 112.63125 68.679004 
L 123.48125 64.6973 
L 134.33125 54.361407 
L 145.18125 65.803522 
L 156.03125 63.529392 
L 166.88125 62.337272 
L 177.73125 67.632935 
L 188.58125 67.456206 
L 199.43125 67.33672 
L 210.28125 62.955549 
L 221.13125 61.239825 
L 231.98125 58.990704 
" style="fill:none;stroke:#ff9500;stroke-dasharray:1.2,1.98;stroke-dashoffset:0;stroke-width:1.2;"/>
    <defs>
     <path d="M 0 2 
C 0.530406 2 1.03916 1.789267 1.414214 1.414214 
C 1.789267 1.03916 2 0.530406 2 0 
C 2 -0.530406 1.789267 -1.03916 1.414214 -1.414214 
C 1.03916 -1.789267 0.530406 -2 0 -2 
C -0.530406 -2 -1.03916 -1.789267 -1.414214 -1.414214 
C -1.789267 -1.03916 -2 -0.530406 -2 0 
C -2 0.530406 -1.789267 1.03916 -1.414214 1.414214 
C -1.03916 1.789267 -0.530406 2 0 2 
z
" id="mcfbc10decc" style="stroke:#ff9500;stroke-width:1.5;"/>
    </defs>
    <g clip-path="url(#p1136e73307)">
     <use style="fill-opacity:0;stroke:#ff9500;stroke-width:1.5;" x="47.53125" xlink:href="#mcfbc10decc" y="45.506026"/>
     <use style="fill-opacity:0;stroke:#ff9500;stroke-width:1.5;" x="58.38125" xlink:href="#mcfbc10decc" y="36.180945"/>
     <use style="fill-opacity:0;stroke:#ff9500;stroke-width:1.5;" x="69.23125" xlink:href="#mcfbc10decc" y="32.986781"/>
     <use style="fill-opacity:0;stroke:#ff9500;stroke-width:1.5;" x="80.08125" xlink:href="#mcfbc10decc" y="52.850387"/>
     <use style="fill-opacity:0;stroke:#ff9500;stroke-width:1.5;" x="90.93125" xlink:href="#mcfbc10decc" y="64.214365"/>
     <use style="fill-opacity:0;stroke:#ff9500;stroke-width:1.5;" x="101.78125" xlink:href="#mcfbc10decc" y="70.464606"/>
     <use style="fill-opacity:0;stroke:#ff9500;stroke-width:1.5;" x="112.63125" xlink:href="#mcfbc10decc" y="68.679004"/>
     <use style="fill-opacity:0;stroke:#ff9500;stroke-width:1.5;" x="123.48125" xlink:href="#mcfbc10decc" y="64.6973"/>
     <use style="fill-opacity:0;stroke:#ff9500;stroke-width:1.5;" x="134.33125" xlink:href="#mcfbc10decc" y="54.361407"/>
     <use style="fill-opacity:0;stroke:#ff9500;stroke-width:1.5;" x="145.18125" xlink:href="#mcfbc10decc" y="65.803522"/>
     <use style="fill-opacity:0;stroke:#ff9500;stroke-width:1.5;" x="156.03125" xlink:href="#mcfbc10decc" y="63.529392"/>
     <use style="fill-opacity:0;stroke:#ff9500;stroke-width:1.5;" x="166.88125" xlink:href="#mcfbc10decc" y="62.337272"/>
     <use style="fill-opacity:0;stroke:#ff9500;stroke-width:1.5;" x="177.73125" xlink:href="#mcfbc10decc" y="67.632935"/>
     <use style="fill-opacity:0;stroke:#ff9500;stroke-width:1.5;" x="188.58125" xlink:href="#mcfbc10decc" y="67.456206"/>
     <use style="fill-opacity:0;stroke:#ff9500;stroke-width:1.5;" x="199.43125" xlink:href="#mcfbc10decc" y="67.33672"/>
     <use style="fill-opacity:0;stroke:#ff9500;stroke-width:1.5;" x="210.28125" xlink:href="#mcfbc10decc" y="62.955549"/>
     <use style="fill-opacity:0;stroke:#ff9500;stroke-width:1.5;" x="221.13125" xlink:href="#mcfbc10decc" y="61.239825"/>
     <use style="fill-opacity:0;stroke:#ff9500;stroke-width:1.5;" x="231.98125" xlink:href="#mcfbc10decc" y="58.990704"/>
    </g>
   </g>
   <g id="line2d_81">
    <path clip-path="url(#p1136e73307)" d="M 47.53125 10.783853 
L 58.38125 42.729706 
L 69.23125 34.01737 
L 80.08125 25.85339 
L 90.93125 29.04102 
L 101.78125 20.589774 
L 112.63125 25.882857 
L 123.48125 30.467956 
L 134.33125 21.821003 
L 145.18125 26.429477 
L 156.03125 27.77871 
L 166.88125 34.029033 
L 177.73125 33.211234 
L 188.58125 38.720934 
L 199.43125 32.963545 
L 210.28125 39.044602 
L 221.13125 42.697642 
L 231.98125 42.189727 
" style="fill:none;stroke:#00b945;stroke-dasharray:4.44,1.92;stroke-dashoffset:0;stroke-width:1.2;"/>
    <defs>
     <path d="M 0 -2 
L -2 2 
L 2 2 
z
" id="m4fb818e92f" style="stroke:#00b945;stroke-linejoin:miter;stroke-width:1.5;"/>
    </defs>
    <g clip-path="url(#p1136e73307)">
     <use style="fill-opacity:0;stroke:#00b945;stroke-linejoin:miter;stroke-width:1.5;" x="47.53125" xlink:href="#m4fb818e92f" y="10.783853"/>
     <use style="fill-opacity:0;stroke:#00b945;stroke-linejoin:miter;stroke-width:1.5;" x="58.38125" xlink:href="#m4fb818e92f" y="42.729706"/>
     <use style="fill-opacity:0;stroke:#00b945;stroke-linejoin:miter;stroke-width:1.5;" x="69.23125" xlink:href="#m4fb818e92f" y="34.01737"/>
     <use style="fill-opacity:0;stroke:#00b945;stroke-linejoin:miter;stroke-width:1.5;" x="80.08125" xlink:href="#m4fb818e92f" y="25.85339"/>
     <use style="fill-opacity:0;stroke:#00b945;stroke-linejoin:miter;stroke-width:1.5;" x="90.93125" xlink:href="#m4fb818e92f" y="29.04102"/>
     <use style="fill-opacity:0;stroke:#00b945;stroke-linejoin:miter;stroke-width:1.5;" x="101.78125" xlink:href="#m4fb818e92f" y="20.589774"/>
     <use style="fill-opacity:0;stroke:#00b945;stroke-linejoin:miter;stroke-width:1.5;" x="112.63125" xlink:href="#m4fb818e92f" y="25.882857"/>
     <use style="fill-opacity:0;stroke:#00b945;stroke-linejoin:miter;stroke-width:1.5;" x="123.48125" xlink:href="#m4fb818e92f" y="30.467956"/>
     <use style="fill-opacity:0;stroke:#00b945;stroke-linejoin:miter;stroke-width:1.5;" x="134.33125" xlink:href="#m4fb818e92f" y="21.821003"/>
     <use style="fill-opacity:0;stroke:#00b945;stroke-linejoin:miter;stroke-width:1.5;" x="145.18125" xlink:href="#m4fb818e92f" y="26.429477"/>
     <use style="fill-opacity:0;stroke:#00b945;stroke-linejoin:miter;stroke-width:1.5;" x="156.03125" xlink:href="#m4fb818e92f" y="27.77871"/>
     <use style="fill-opacity:0;stroke:#00b945;stroke-linejoin:miter;stroke-width:1.5;" x="166.88125" xlink:href="#m4fb818e92f" y="34.029033"/>
     <use style="fill-opacity:0;stroke:#00b945;stroke-linejoin:miter;stroke-width:1.5;" x="177.73125" xlink:href="#m4fb818e92f" y="33.211234"/>
     <use style="fill-opacity:0;stroke:#00b945;stroke-linejoin:miter;stroke-width:1.5;" x="188.58125" xlink:href="#m4fb818e92f" y="38.720934"/>
     <use style="fill-opacity:0;stroke:#00b945;stroke-linejoin:miter;stroke-width:1.5;" x="199.43125" xlink:href="#m4fb818e92f" y="32.963545"/>
     <use style="fill-opacity:0;stroke:#00b945;stroke-linejoin:miter;stroke-width:1.5;" x="210.28125" xlink:href="#m4fb818e92f" y="39.044602"/>
     <use style="fill-opacity:0;stroke:#00b945;stroke-linejoin:miter;stroke-width:1.5;" x="221.13125" xlink:href="#m4fb818e92f" y="42.697642"/>
     <use style="fill-opacity:0;stroke:#00b945;stroke-linejoin:miter;stroke-width:1.5;" x="231.98125" xlink:href="#m4fb818e92f" y="42.189727"/>
    </g>
   </g>
   <g id="patch_3">
    <path d="M 36.68125 146.295 
L 36.68125 3.6 
" style="fill:none;stroke:#000000;stroke-linecap:square;stroke-linejoin:miter;stroke-width:0.5;"/>
   </g>
   <g id="patch_4">
    <path d="M 231.98125 146.295 
L 231.98125 3.6 
" style="fill:none;stroke:#000000;stroke-linecap:square;stroke-linejoin:miter;stroke-width:0.5;"/>
   </g>
   <g id="patch_5">
    <path d="M 36.68125 146.295 
L 231.98125 146.295 
" style="fill:none;stroke:#000000;stroke-linecap:square;stroke-linejoin:miter;stroke-width:0.5;"/>
   </g>
   <g id="patch_6">
    <path d="M 36.68125 3.6 
L 231.98125 3.6 
" style="fill:none;stroke:#000000;stroke-linecap:square;stroke-linejoin:miter;stroke-width:0.5;"/>
   </g>
   <g id="legend_1">
    <g id="line2d_82">
     <path d="M 182.325 102.359062 
L 202.325 102.359062 
" style="fill:none;stroke:#0c5da5;stroke-linecap:square;stroke-width:1.2;"/>
    </g>
    <g id="line2d_83">
     <g>
      <use style="fill-opacity:0;stroke:#0c5da5;stroke-linejoin:miter;stroke-width:1.5;" x="192.325" xlink:href="#m9e685dc14b" y="102.359062"/>
     </g>
    </g>
    <g id="text_12">
     <!-- Eu -->
     <g transform="translate(210.325 105.859062)scale(0.1 -0.1)">
      <defs>
       <path d="M 9.8125 72.90625 
L 55.90625 72.90625 
L 55.90625 64.59375 
L 19.671875 64.59375 
L 19.671875 43.015625 
L 54.390625 43.015625 
L 54.390625 34.71875 
L 19.671875 34.71875 
L 19.671875 8.296875 
L 56.78125 8.296875 
L 56.78125 0 
L 9.8125 0 
z
" id="DejaVuSans-69"/>
       <path d="M 8.5 21.578125 
L 8.5 54.6875 
L 17.484375 54.6875 
L 17.484375 21.921875 
Q 17.484375 14.15625 20.5 10.265625 
Q 23.53125 6.390625 29.59375 6.390625 
Q 36.859375 6.390625 41.078125 11.03125 
Q 45.3125 15.671875 45.3125 23.6875 
L 45.3125 54.6875 
L 54.296875 54.6875 
L 54.296875 0 
L 45.3125 0 
L 45.3125 8.40625 
Q 42.046875 3.421875 37.71875 1 
Q 33.40625 -1.421875 27.6875 -1.421875 
Q 18.265625 -1.421875 13.375 4.4375 
Q 8.5 10.296875 8.5 21.578125 
z
M 31.109375 56 
z
" id="DejaVuSans-117"/>
      </defs>
      <use xlink:href="#DejaVuSans-69"/>
      <use x="63.183594" xlink:href="#DejaVuSans-117"/>
     </g>
    </g>
    <g id="line2d_84">
     <path d="M 182.325 117.037187 
L 202.325 117.037187 
" style="fill:none;stroke:#ff9500;stroke-dasharray:1.2,1.98;stroke-dashoffset:0;stroke-width:1.2;"/>
    </g>
    <g id="line2d_85">
     <g>
      <use style="fill-opacity:0;stroke:#ff9500;stroke-width:1.5;" x="192.325" xlink:href="#mcfbc10decc" y="117.037187"/>
     </g>
    </g>
    <g id="text_13">
     <!-- KL -->
     <g transform="translate(210.325 120.537187)scale(0.1 -0.1)">
      <defs>
       <path d="M 9.8125 72.90625 
L 19.671875 72.90625 
L 19.671875 42.09375 
L 52.390625 72.90625 
L 65.09375 72.90625 
L 28.90625 38.921875 
L 67.671875 0 
L 54.6875 0 
L 19.671875 35.109375 
L 19.671875 0 
L 9.8125 0 
z
" id="DejaVuSans-75"/>
       <path d="M 9.8125 72.90625 
L 19.671875 72.90625 
L 19.671875 8.296875 
L 55.171875 8.296875 
L 55.171875 0 
L 9.8125 0 
z
" id="DejaVuSans-76"/>
      </defs>
      <use xlink:href="#DejaVuSans-75"/>
      <use x="65.576172" xlink:href="#DejaVuSans-76"/>
     </g>
    </g>
    <g id="line2d_86">
     <path d="M 182.325 131.715312 
L 202.325 131.715312 
" style="fill:none;stroke:#00b945;stroke-dasharray:4.44,1.92;stroke-dashoffset:0;stroke-width:1.2;"/>
    </g>
    <g id="line2d_87">
     <g>
      <use style="fill-opacity:0;stroke:#00b945;stroke-linejoin:miter;stroke-width:1.5;" x="192.325" xlink:href="#m4fb818e92f" y="131.715312"/>
     </g>
    </g>
    <g id="text_14">
     <!-- IS -->
     <g transform="translate(210.325 135.215312)scale(0.1 -0.1)">
      <defs>
       <path d="M 9.8125 72.90625 
L 19.671875 72.90625 
L 19.671875 0 
L 9.8125 0 
z
" id="DejaVuSans-73"/>
       <path d="M 53.515625 70.515625 
L 53.515625 60.890625 
Q 47.90625 63.578125 42.921875 64.890625 
Q 37.9375 66.21875 33.296875 66.21875 
Q 25.25 66.21875 20.875 63.09375 
Q 16.5 59.96875 16.5 54.203125 
Q 16.5 49.359375 19.40625 46.890625 
Q 22.3125 44.4375 30.421875 42.921875 
L 36.375 41.703125 
Q 47.40625 39.59375 52.65625 34.296875 
Q 57.90625 29 57.90625 20.125 
Q 57.90625 9.515625 50.796875 4.046875 
Q 43.703125 -1.421875 29.984375 -1.421875 
Q 24.8125 -1.421875 18.96875 -0.25 
Q 13.140625 0.921875 6.890625 3.21875 
L 6.890625 13.375 
Q 12.890625 10.015625 18.65625 8.296875 
Q 24.421875 6.59375 29.984375 6.59375 
Q 38.421875 6.59375 43.015625 9.90625 
Q 47.609375 13.234375 47.609375 19.390625 
Q 47.609375 24.75 44.3125 27.78125 
Q 41.015625 30.8125 33.5 32.328125 
L 27.484375 33.5 
Q 16.453125 35.6875 11.515625 40.375 
Q 6.59375 45.0625 6.59375 53.421875 
Q 6.59375 63.09375 13.40625 68.65625 
Q 20.21875 74.21875 32.171875 74.21875 
Q 37.3125 74.21875 42.625 73.28125 
Q 47.953125 72.359375 53.515625 70.515625 
z
" id="DejaVuSans-83"/>
      </defs>
      <use xlink:href="#DejaVuSans-73"/>
      <use x="29.492188" xlink:href="#DejaVuSans-83"/>
     </g>
    </g>
   </g>
  </g>
 </g>
 <defs>
  <clipPath id="p1136e73307">
   <rect height="142.695" width="195.3" x="36.68125" y="3.6"/>
  </clipPath>
 </defs>
</svg>
