<?xml version="1.0" encoding="utf-8" standalone="no"?>
<!DOCTYPE svg PUBLIC "-//W3C//DTD SVG 1.1//EN"
  "http://www.w3.org/Graphics/SVG/1.1/DTD/svg11.dtd">
<!-- Created with matplotlib (https://matplotlib.org/) -->
<svg height="180.472212pt" version="1.1" viewBox="0 0 241.94375 180.472212" width="241.94375pt" xmlns="http://www.w3.org/2000/svg" xmlns:xlink="http://www.w3.org/1999/xlink">
 <metadata>
  <rdf:RDF xmlns:cc="http://creativecommons.org/ns#" xmlns:dc="http://purl.org/dc/elements/1.1/" xmlns:rdf="http://www.w3.org/1999/02/22-rdf-syntax-ns#">
   <cc:Work>
    <dc:type rdf:resource="http://purl.org/dc/dcmitype/StillImage"/>
    <dc:date>2023-05-02T14:49:39.796333</dc:date>
    <dc:format>image/svg+xml</dc:format>
    <dc:creator>
     <cc:Agent>
      <dc:title>Matplotlib v3.3.4, https://matplotlib.org/</dc:title>
     </cc:Agent>
    </dc:creator>
   </cc:Work>
  </rdf:RDF>
 </metadata>
 <defs>
  <style type="text/css">*{stroke-linecap:butt;stroke-linejoin:round;}</style>
 </defs>
 <g id="figure_1">
  <g id="patch_1">
   <path d="M -0 180.472212 
L 241.94375 180.472212 
L 241.94375 0 
L -0 0 
z
" style="fill:none;"/>
  </g>
  <g id="axes_1">
   <g id="patch_2">
    <path d="M 36.68125 150.015962 
L 231.98125 150.015962 
L 231.98125 7.320962 
L 36.68125 7.320962 
z
" style="fill:#ffffff;"/>
   </g>
   <g id="PolyCollection_1">
    <path clip-path="url(#p9bd131c987)" d="M 36.68125 32.2665 
L 36.68125 34.021289 
L 47.53125 71.826935 
L 58.38125 91.357448 
L 69.23125 99.958883 
L 80.08125 105.862672 
L 90.93125 114.378892 
L 101.78125 117.370684 
L 112.63125 117.871506 
L 123.48125 119.186391 
L 134.33125 119.150821 
L 145.18125 120.241425 
L 156.03125 120.637948 
L 166.88125 121.575329 
L 177.73125 120.891331 
L 188.58125 122.770188 
L 199.43125 122.252089 
L 210.28125 122.33657 
L 221.13125 123.150191 
L 231.98125 122.468656 
L 231.98125 118.703809 
L 231.98125 118.703809 
L 221.13125 118.973557 
L 210.28125 118.220893 
L 199.43125 116.602946 
L 188.58125 118.38924 
L 177.73125 117.596138 
L 166.88125 116.349653 
L 156.03125 114.967541 
L 145.18125 113.187955 
L 134.33125 111.431354 
L 123.48125 110.634727 
L 112.63125 109.015436 
L 101.78125 104.556572 
L 90.93125 101.591909 
L 80.08125 99.567514 
L 69.23125 93.861953 
L 58.38125 89.328326 
L 47.53125 70.091105 
L 36.68125 32.2665 
z
" style="fill:#0c5da5;fill-opacity:0.15;"/>
   </g>
   <g id="PolyCollection_2">
    <path clip-path="url(#p9bd131c987)" d="M 36.68125 13.807099 
L 36.68125 16.319614 
L 47.53125 72.485096 
L 58.38125 94.897164 
L 69.23125 109.388463 
L 80.08125 110.266396 
L 90.93125 114.413572 
L 101.78125 120.322838 
L 112.63125 120.980948 
L 123.48125 121.773603 
L 134.33125 120.784799 
L 145.18125 120.604551 
L 156.03125 121.219026 
L 166.88125 123.254577 
L 177.73125 122.034402 
L 188.58125 122.525937 
L 199.43125 122.422149 
L 210.28125 123.166733 
L 221.13125 123.484234 
L 231.98125 122.494671 
L 231.98125 113.89099 
L 231.98125 113.89099 
L 221.13125 114.852442 
L 210.28125 116.604691 
L 199.43125 113.459187 
L 188.58125 111.628701 
L 177.73125 112.528971 
L 166.88125 114.801766 
L 156.03125 116.271935 
L 145.18125 116.006689 
L 134.33125 115.062337 
L 123.48125 114.633561 
L 112.63125 113.910773 
L 101.78125 113.575232 
L 90.93125 108.152195 
L 80.08125 105.159126 
L 69.23125 101.307454 
L 58.38125 92.859524 
L 47.53125 64.682189 
L 36.68125 13.807099 
z
" style="fill:#ff9500;fill-opacity:0.15;"/>
   </g>
   <g id="PolyCollection_3">
    <path clip-path="url(#p9bd131c987)" d="M 36.68125 24.708747 
L 36.68125 41.196266 
L 47.53125 101.709087 
L 58.38125 103.129543 
L 69.23125 107.164672 
L 80.08125 120.01762 
L 90.93125 124.274464 
L 101.78125 129.503665 
L 112.63125 125.203309 
L 123.48125 132.792684 
L 134.33125 135.725046 
L 145.18125 140.445189 
L 156.03125 138.002051 
L 166.88125 143.529826 
L 177.73125 138.245823 
L 188.58125 137.834214 
L 199.43125 131.175442 
L 210.28125 130.855895 
L 221.13125 127.333404 
L 231.98125 127.263034 
L 231.98125 123.310383 
L 231.98125 123.310383 
L 221.13125 124.19975 
L 210.28125 124.450939 
L 199.43125 125.778803 
L 188.58125 127.445867 
L 177.73125 129.219691 
L 166.88125 129.287484 
L 156.03125 127.772051 
L 145.18125 121.051722 
L 134.33125 121.017871 
L 123.48125 127.398046 
L 112.63125 122.374505 
L 101.78125 119.526583 
L 90.93125 111.411455 
L 80.08125 110.255683 
L 69.23125 104.822794 
L 58.38125 101.753587 
L 47.53125 95.848911 
L 36.68125 24.708747 
z
" style="fill:#00b945;fill-opacity:0.15;"/>
   </g>
   <g id="matplotlib.axis_1">
    <g id="xtick_1">
     <g id="line2d_1">
      <defs>
       <path d="M 0 0 
L 0 -3 
" id="m69ed2a90ce" style="stroke:#000000;stroke-width:0.5;"/>
      </defs>
      <g>
       <use style="stroke:#000000;stroke-width:0.5;" x="69.23125" xlink:href="#m69ed2a90ce" y="150.015962"/>
      </g>
     </g>
     <g id="line2d_2">
      <defs>
       <path d="M 0 0 
L 0 3 
" id="ma0735e8420" style="stroke:#000000;stroke-width:0.5;"/>
      </defs>
      <g>
       <use style="stroke:#000000;stroke-width:0.5;" x="69.23125" xlink:href="#ma0735e8420" y="7.320962"/>
      </g>
     </g>
     <g id="text_1">
      <!-- 5 -->
      <g transform="translate(66.05 161.1144)scale(0.1 -0.1)">
       <defs>
        <path d="M 10.796875 72.90625 
L 49.515625 72.90625 
L 49.515625 64.59375 
L 19.828125 64.59375 
L 19.828125 46.734375 
Q 21.96875 47.46875 24.109375 47.828125 
Q 26.265625 48.1875 28.421875 48.1875 
Q 40.625 48.1875 47.75 41.5 
Q 54.890625 34.8125 54.890625 23.390625 
Q 54.890625 11.625 47.5625 5.09375 
Q 40.234375 -1.421875 26.90625 -1.421875 
Q 22.3125 -1.421875 17.546875 -0.640625 
Q 12.796875 0.140625 7.71875 1.703125 
L 7.71875 11.625 
Q 12.109375 9.234375 16.796875 8.0625 
Q 21.484375 6.890625 26.703125 6.890625 
Q 35.15625 6.890625 40.078125 11.328125 
Q 45.015625 15.765625 45.015625 23.390625 
Q 45.015625 31 40.078125 35.4375 
Q 35.15625 39.890625 26.703125 39.890625 
Q 22.75 39.890625 18.8125 39.015625 
Q 14.890625 38.140625 10.796875 36.28125 
z
" id="DejaVuSans-53"/>
       </defs>
       <use xlink:href="#DejaVuSans-53"/>
      </g>
     </g>
    </g>
    <g id="xtick_2">
     <g id="line2d_3">
      <g>
       <use style="stroke:#000000;stroke-width:0.5;" x="123.48125" xlink:href="#m69ed2a90ce" y="150.015962"/>
      </g>
     </g>
     <g id="line2d_4">
      <g>
       <use style="stroke:#000000;stroke-width:0.5;" x="123.48125" xlink:href="#ma0735e8420" y="7.320962"/>
      </g>
     </g>
     <g id="text_2">
      <!-- 10 -->
      <g transform="translate(117.11875 161.1144)scale(0.1 -0.1)">
       <defs>
        <path d="M 12.40625 8.296875 
L 28.515625 8.296875 
L 28.515625 63.921875 
L 10.984375 60.40625 
L 10.984375 69.390625 
L 28.421875 72.90625 
L 38.28125 72.90625 
L 38.28125 8.296875 
L 54.390625 8.296875 
L 54.390625 0 
L 12.40625 0 
z
" id="DejaVuSans-49"/>
        <path d="M 31.78125 66.40625 
Q 24.171875 66.40625 20.328125 58.90625 
Q 16.5 51.421875 16.5 36.375 
Q 16.5 21.390625 20.328125 13.890625 
Q 24.171875 6.390625 31.78125 6.390625 
Q 39.453125 6.390625 43.28125 13.890625 
Q 47.125 21.390625 47.125 36.375 
Q 47.125 51.421875 43.28125 58.90625 
Q 39.453125 66.40625 31.78125 66.40625 
z
M 31.78125 74.21875 
Q 44.046875 74.21875 50.515625 64.515625 
Q 56.984375 54.828125 56.984375 36.375 
Q 56.984375 17.96875 50.515625 8.265625 
Q 44.046875 -1.421875 31.78125 -1.421875 
Q 19.53125 -1.421875 13.0625 8.265625 
Q 6.59375 17.96875 6.59375 36.375 
Q 6.59375 54.828125 13.0625 64.515625 
Q 19.53125 74.21875 31.78125 74.21875 
z
" id="DejaVuSans-48"/>
       </defs>
       <use xlink:href="#DejaVuSans-49"/>
       <use x="63.623047" xlink:href="#DejaVuSans-48"/>
      </g>
     </g>
    </g>
    <g id="xtick_3">
     <g id="line2d_5">
      <g>
       <use style="stroke:#000000;stroke-width:0.5;" x="177.73125" xlink:href="#m69ed2a90ce" y="150.015962"/>
      </g>
     </g>
     <g id="line2d_6">
      <g>
       <use style="stroke:#000000;stroke-width:0.5;" x="177.73125" xlink:href="#ma0735e8420" y="7.320962"/>
      </g>
     </g>
     <g id="text_3">
      <!-- 15 -->
      <g transform="translate(171.36875 161.1144)scale(0.1 -0.1)">
       <use xlink:href="#DejaVuSans-49"/>
       <use x="63.623047" xlink:href="#DejaVuSans-53"/>
      </g>
     </g>
    </g>
    <g id="xtick_4">
     <g id="line2d_7">
      <g>
       <use style="stroke:#000000;stroke-width:0.5;" x="231.98125" xlink:href="#m69ed2a90ce" y="150.015962"/>
      </g>
     </g>
     <g id="line2d_8">
      <g>
       <use style="stroke:#000000;stroke-width:0.5;" x="231.98125" xlink:href="#ma0735e8420" y="7.320962"/>
      </g>
     </g>
     <g id="text_4">
      <!-- 20 -->
      <g transform="translate(225.61875 161.1144)scale(0.1 -0.1)">
       <defs>
        <path d="M 19.1875 8.296875 
L 53.609375 8.296875 
L 53.609375 0 
L 7.328125 0 
L 7.328125 8.296875 
Q 12.9375 14.109375 22.625 23.890625 
Q 32.328125 33.6875 34.8125 36.53125 
Q 39.546875 41.84375 41.421875 45.53125 
Q 43.3125 49.21875 43.3125 52.78125 
Q 43.3125 58.59375 39.234375 62.25 
Q 35.15625 65.921875 28.609375 65.921875 
Q 23.96875 65.921875 18.8125 64.3125 
Q 13.671875 62.703125 7.8125 59.421875 
L 7.8125 69.390625 
Q 13.765625 71.78125 18.9375 73 
Q 24.125 74.21875 28.421875 74.21875 
Q 39.75 74.21875 46.484375 68.546875 
Q 53.21875 62.890625 53.21875 53.421875 
Q 53.21875 48.921875 51.53125 44.890625 
Q 49.859375 40.875 45.40625 35.40625 
Q 44.1875 33.984375 37.640625 27.21875 
Q 31.109375 20.453125 19.1875 8.296875 
z
" id="DejaVuSans-50"/>
       </defs>
       <use xlink:href="#DejaVuSans-50"/>
       <use x="63.623047" xlink:href="#DejaVuSans-48"/>
      </g>
     </g>
    </g>
    <g id="xtick_5">
     <g id="line2d_9">
      <defs>
       <path d="M 0 0 
L 0 -1.5 
" id="m230ef7058c" style="stroke:#000000;stroke-width:0.5;"/>
      </defs>
      <g>
       <use style="stroke:#000000;stroke-width:0.5;" x="47.53125" xlink:href="#m230ef7058c" y="150.015962"/>
      </g>
     </g>
     <g id="line2d_10">
      <defs>
       <path d="M 0 0 
L 0 1.5 
" id="m541876f0cd" style="stroke:#000000;stroke-width:0.5;"/>
      </defs>
      <g>
       <use style="stroke:#000000;stroke-width:0.5;" x="47.53125" xlink:href="#m541876f0cd" y="7.320962"/>
      </g>
     </g>
    </g>
    <g id="xtick_6">
     <g id="line2d_11">
      <g>
       <use style="stroke:#000000;stroke-width:0.5;" x="58.38125" xlink:href="#m230ef7058c" y="150.015962"/>
      </g>
     </g>
     <g id="line2d_12">
      <g>
       <use style="stroke:#000000;stroke-width:0.5;" x="58.38125" xlink:href="#m541876f0cd" y="7.320962"/>
      </g>
     </g>
    </g>
    <g id="xtick_7">
     <g id="line2d_13">
      <g>
       <use style="stroke:#000000;stroke-width:0.5;" x="80.08125" xlink:href="#m230ef7058c" y="150.015962"/>
      </g>
     </g>
     <g id="line2d_14">
      <g>
       <use style="stroke:#000000;stroke-width:0.5;" x="80.08125" xlink:href="#m541876f0cd" y="7.320962"/>
      </g>
     </g>
    </g>
    <g id="xtick_8">
     <g id="line2d_15">
      <g>
       <use style="stroke:#000000;stroke-width:0.5;" x="90.93125" xlink:href="#m230ef7058c" y="150.015962"/>
      </g>
     </g>
     <g id="line2d_16">
      <g>
       <use style="stroke:#000000;stroke-width:0.5;" x="90.93125" xlink:href="#m541876f0cd" y="7.320962"/>
      </g>
     </g>
    </g>
    <g id="xtick_9">
     <g id="line2d_17">
      <g>
       <use style="stroke:#000000;stroke-width:0.5;" x="101.78125" xlink:href="#m230ef7058c" y="150.015962"/>
      </g>
     </g>
     <g id="line2d_18">
      <g>
       <use style="stroke:#000000;stroke-width:0.5;" x="101.78125" xlink:href="#m541876f0cd" y="7.320962"/>
      </g>
     </g>
    </g>
    <g id="xtick_10">
     <g id="line2d_19">
      <g>
       <use style="stroke:#000000;stroke-width:0.5;" x="112.63125" xlink:href="#m230ef7058c" y="150.015962"/>
      </g>
     </g>
     <g id="line2d_20">
      <g>
       <use style="stroke:#000000;stroke-width:0.5;" x="112.63125" xlink:href="#m541876f0cd" y="7.320962"/>
      </g>
     </g>
    </g>
    <g id="xtick_11">
     <g id="line2d_21">
      <g>
       <use style="stroke:#000000;stroke-width:0.5;" x="134.33125" xlink:href="#m230ef7058c" y="150.015962"/>
      </g>
     </g>
     <g id="line2d_22">
      <g>
       <use style="stroke:#000000;stroke-width:0.5;" x="134.33125" xlink:href="#m541876f0cd" y="7.320962"/>
      </g>
     </g>
    </g>
    <g id="xtick_12">
     <g id="line2d_23">
      <g>
       <use style="stroke:#000000;stroke-width:0.5;" x="145.18125" xlink:href="#m230ef7058c" y="150.015962"/>
      </g>
     </g>
     <g id="line2d_24">
      <g>
       <use style="stroke:#000000;stroke-width:0.5;" x="145.18125" xlink:href="#m541876f0cd" y="7.320962"/>
      </g>
     </g>
    </g>
    <g id="xtick_13">
     <g id="line2d_25">
      <g>
       <use style="stroke:#000000;stroke-width:0.5;" x="156.03125" xlink:href="#m230ef7058c" y="150.015962"/>
      </g>
     </g>
     <g id="line2d_26">
      <g>
       <use style="stroke:#000000;stroke-width:0.5;" x="156.03125" xlink:href="#m541876f0cd" y="7.320962"/>
      </g>
     </g>
    </g>
    <g id="xtick_14">
     <g id="line2d_27">
      <g>
       <use style="stroke:#000000;stroke-width:0.5;" x="166.88125" xlink:href="#m230ef7058c" y="150.015962"/>
      </g>
     </g>
     <g id="line2d_28">
      <g>
       <use style="stroke:#000000;stroke-width:0.5;" x="166.88125" xlink:href="#m541876f0cd" y="7.320962"/>
      </g>
     </g>
    </g>
    <g id="xtick_15">
     <g id="line2d_29">
      <g>
       <use style="stroke:#000000;stroke-width:0.5;" x="188.58125" xlink:href="#m230ef7058c" y="150.015962"/>
      </g>
     </g>
     <g id="line2d_30">
      <g>
       <use style="stroke:#000000;stroke-width:0.5;" x="188.58125" xlink:href="#m541876f0cd" y="7.320962"/>
      </g>
     </g>
    </g>
    <g id="xtick_16">
     <g id="line2d_31">
      <g>
       <use style="stroke:#000000;stroke-width:0.5;" x="199.43125" xlink:href="#m230ef7058c" y="150.015962"/>
      </g>
     </g>
     <g id="line2d_32">
      <g>
       <use style="stroke:#000000;stroke-width:0.5;" x="199.43125" xlink:href="#m541876f0cd" y="7.320962"/>
      </g>
     </g>
    </g>
    <g id="xtick_17">
     <g id="line2d_33">
      <g>
       <use style="stroke:#000000;stroke-width:0.5;" x="210.28125" xlink:href="#m230ef7058c" y="150.015962"/>
      </g>
     </g>
     <g id="line2d_34">
      <g>
       <use style="stroke:#000000;stroke-width:0.5;" x="210.28125" xlink:href="#m541876f0cd" y="7.320962"/>
      </g>
     </g>
    </g>
    <g id="xtick_18">
     <g id="line2d_35">
      <g>
       <use style="stroke:#000000;stroke-width:0.5;" x="221.13125" xlink:href="#m230ef7058c" y="150.015962"/>
      </g>
     </g>
     <g id="line2d_36">
      <g>
       <use style="stroke:#000000;stroke-width:0.5;" x="221.13125" xlink:href="#m541876f0cd" y="7.320962"/>
      </g>
     </g>
    </g>
    <g id="text_5">
     <!-- # Components -->
     <g transform="translate(96.91875 174.792525)scale(0.1 -0.1)">
      <defs>
       <path d="M 51.125 44 
L 36.921875 44 
L 32.8125 27.6875 
L 47.125 27.6875 
z
M 43.796875 71.78125 
L 38.71875 51.515625 
L 52.984375 51.515625 
L 58.109375 71.78125 
L 65.921875 71.78125 
L 60.890625 51.515625 
L 76.125 51.515625 
L 76.125 44 
L 58.984375 44 
L 54.984375 27.6875 
L 70.515625 27.6875 
L 70.515625 20.21875 
L 53.078125 20.21875 
L 48 0 
L 40.1875 0 
L 45.21875 20.21875 
L 30.90625 20.21875 
L 25.875 0 
L 18.015625 0 
L 23.09375 20.21875 
L 7.71875 20.21875 
L 7.71875 27.6875 
L 24.90625 27.6875 
L 29 44 
L 13.28125 44 
L 13.28125 51.515625 
L 30.90625 51.515625 
L 35.890625 71.78125 
z
" id="DejaVuSans-35"/>
       <path id="DejaVuSans-32"/>
       <path d="M 64.40625 67.28125 
L 64.40625 56.890625 
Q 59.421875 61.53125 53.78125 63.8125 
Q 48.140625 66.109375 41.796875 66.109375 
Q 29.296875 66.109375 22.65625 58.46875 
Q 16.015625 50.828125 16.015625 36.375 
Q 16.015625 21.96875 22.65625 14.328125 
Q 29.296875 6.6875 41.796875 6.6875 
Q 48.140625 6.6875 53.78125 8.984375 
Q 59.421875 11.28125 64.40625 15.921875 
L 64.40625 5.609375 
Q 59.234375 2.09375 53.4375 0.328125 
Q 47.65625 -1.421875 41.21875 -1.421875 
Q 24.65625 -1.421875 15.125 8.703125 
Q 5.609375 18.84375 5.609375 36.375 
Q 5.609375 53.953125 15.125 64.078125 
Q 24.65625 74.21875 41.21875 74.21875 
Q 47.75 74.21875 53.53125 72.484375 
Q 59.328125 70.75 64.40625 67.28125 
z
" id="DejaVuSans-67"/>
       <path d="M 30.609375 48.390625 
Q 23.390625 48.390625 19.1875 42.75 
Q 14.984375 37.109375 14.984375 27.296875 
Q 14.984375 17.484375 19.15625 11.84375 
Q 23.34375 6.203125 30.609375 6.203125 
Q 37.796875 6.203125 41.984375 11.859375 
Q 46.1875 17.53125 46.1875 27.296875 
Q 46.1875 37.015625 41.984375 42.703125 
Q 37.796875 48.390625 30.609375 48.390625 
z
M 30.609375 56 
Q 42.328125 56 49.015625 48.375 
Q 55.71875 40.765625 55.71875 27.296875 
Q 55.71875 13.875 49.015625 6.21875 
Q 42.328125 -1.421875 30.609375 -1.421875 
Q 18.84375 -1.421875 12.171875 6.21875 
Q 5.515625 13.875 5.515625 27.296875 
Q 5.515625 40.765625 12.171875 48.375 
Q 18.84375 56 30.609375 56 
z
" id="DejaVuSans-111"/>
       <path d="M 52 44.1875 
Q 55.375 50.25 60.0625 53.125 
Q 64.75 56 71.09375 56 
Q 79.640625 56 84.28125 50.015625 
Q 88.921875 44.046875 88.921875 33.015625 
L 88.921875 0 
L 79.890625 0 
L 79.890625 32.71875 
Q 79.890625 40.578125 77.09375 44.375 
Q 74.3125 48.1875 68.609375 48.1875 
Q 61.625 48.1875 57.5625 43.546875 
Q 53.515625 38.921875 53.515625 30.90625 
L 53.515625 0 
L 44.484375 0 
L 44.484375 32.71875 
Q 44.484375 40.625 41.703125 44.40625 
Q 38.921875 48.1875 33.109375 48.1875 
Q 26.21875 48.1875 22.15625 43.53125 
Q 18.109375 38.875 18.109375 30.90625 
L 18.109375 0 
L 9.078125 0 
L 9.078125 54.6875 
L 18.109375 54.6875 
L 18.109375 46.1875 
Q 21.1875 51.21875 25.484375 53.609375 
Q 29.78125 56 35.6875 56 
Q 41.65625 56 45.828125 52.96875 
Q 50 49.953125 52 44.1875 
z
" id="DejaVuSans-109"/>
       <path d="M 18.109375 8.203125 
L 18.109375 -20.796875 
L 9.078125 -20.796875 
L 9.078125 54.6875 
L 18.109375 54.6875 
L 18.109375 46.390625 
Q 20.953125 51.265625 25.265625 53.625 
Q 29.59375 56 35.59375 56 
Q 45.5625 56 51.78125 48.09375 
Q 58.015625 40.1875 58.015625 27.296875 
Q 58.015625 14.40625 51.78125 6.484375 
Q 45.5625 -1.421875 35.59375 -1.421875 
Q 29.59375 -1.421875 25.265625 0.953125 
Q 20.953125 3.328125 18.109375 8.203125 
z
M 48.6875 27.296875 
Q 48.6875 37.203125 44.609375 42.84375 
Q 40.53125 48.484375 33.40625 48.484375 
Q 26.265625 48.484375 22.1875 42.84375 
Q 18.109375 37.203125 18.109375 27.296875 
Q 18.109375 17.390625 22.1875 11.75 
Q 26.265625 6.109375 33.40625 6.109375 
Q 40.53125 6.109375 44.609375 11.75 
Q 48.6875 17.390625 48.6875 27.296875 
z
" id="DejaVuSans-112"/>
       <path d="M 54.890625 33.015625 
L 54.890625 0 
L 45.90625 0 
L 45.90625 32.71875 
Q 45.90625 40.484375 42.875 44.328125 
Q 39.84375 48.1875 33.796875 48.1875 
Q 26.515625 48.1875 22.3125 43.546875 
Q 18.109375 38.921875 18.109375 30.90625 
L 18.109375 0 
L 9.078125 0 
L 9.078125 54.6875 
L 18.109375 54.6875 
L 18.109375 46.1875 
Q 21.34375 51.125 25.703125 53.5625 
Q 30.078125 56 35.796875 56 
Q 45.21875 56 50.046875 50.171875 
Q 54.890625 44.34375 54.890625 33.015625 
z
" id="DejaVuSans-110"/>
       <path d="M 56.203125 29.59375 
L 56.203125 25.203125 
L 14.890625 25.203125 
Q 15.484375 15.921875 20.484375 11.0625 
Q 25.484375 6.203125 34.421875 6.203125 
Q 39.59375 6.203125 44.453125 7.46875 
Q 49.3125 8.734375 54.109375 11.28125 
L 54.109375 2.78125 
Q 49.265625 0.734375 44.1875 -0.34375 
Q 39.109375 -1.421875 33.890625 -1.421875 
Q 20.796875 -1.421875 13.15625 6.1875 
Q 5.515625 13.8125 5.515625 26.8125 
Q 5.515625 40.234375 12.765625 48.109375 
Q 20.015625 56 32.328125 56 
Q 43.359375 56 49.78125 48.890625 
Q 56.203125 41.796875 56.203125 29.59375 
z
M 47.21875 32.234375 
Q 47.125 39.59375 43.09375 43.984375 
Q 39.0625 48.390625 32.421875 48.390625 
Q 24.90625 48.390625 20.390625 44.140625 
Q 15.875 39.890625 15.1875 32.171875 
z
" id="DejaVuSans-101"/>
       <path d="M 18.3125 70.21875 
L 18.3125 54.6875 
L 36.8125 54.6875 
L 36.8125 47.703125 
L 18.3125 47.703125 
L 18.3125 18.015625 
Q 18.3125 11.328125 20.140625 9.421875 
Q 21.96875 7.515625 27.59375 7.515625 
L 36.8125 7.515625 
L 36.8125 0 
L 27.59375 0 
Q 17.1875 0 13.234375 3.875 
Q 9.28125 7.765625 9.28125 18.015625 
L 9.28125 47.703125 
L 2.6875 47.703125 
L 2.6875 54.6875 
L 9.28125 54.6875 
L 9.28125 70.21875 
z
" id="DejaVuSans-116"/>
       <path d="M 44.28125 53.078125 
L 44.28125 44.578125 
Q 40.484375 46.53125 36.375 47.5 
Q 32.28125 48.484375 27.875 48.484375 
Q 21.1875 48.484375 17.84375 46.4375 
Q 14.5 44.390625 14.5 40.28125 
Q 14.5 37.15625 16.890625 35.375 
Q 19.28125 33.59375 26.515625 31.984375 
L 29.59375 31.296875 
Q 39.15625 29.25 43.1875 25.515625 
Q 47.21875 21.78125 47.21875 15.09375 
Q 47.21875 7.46875 41.1875 3.015625 
Q 35.15625 -1.421875 24.609375 -1.421875 
Q 20.21875 -1.421875 15.453125 -0.5625 
Q 10.6875 0.296875 5.421875 2 
L 5.421875 11.28125 
Q 10.40625 8.6875 15.234375 7.390625 
Q 20.0625 6.109375 24.8125 6.109375 
Q 31.15625 6.109375 34.5625 8.28125 
Q 37.984375 10.453125 37.984375 14.40625 
Q 37.984375 18.0625 35.515625 20.015625 
Q 33.0625 21.96875 24.703125 23.78125 
L 21.578125 24.515625 
Q 13.234375 26.265625 9.515625 29.90625 
Q 5.8125 33.546875 5.8125 39.890625 
Q 5.8125 47.609375 11.28125 51.796875 
Q 16.75 56 26.8125 56 
Q 31.78125 56 36.171875 55.265625 
Q 40.578125 54.546875 44.28125 53.078125 
z
" id="DejaVuSans-115"/>
      </defs>
      <use xlink:href="#DejaVuSans-35"/>
      <use x="83.789062" xlink:href="#DejaVuSans-32"/>
      <use x="115.576172" xlink:href="#DejaVuSans-67"/>
      <use x="185.400391" xlink:href="#DejaVuSans-111"/>
      <use x="246.582031" xlink:href="#DejaVuSans-109"/>
      <use x="343.994141" xlink:href="#DejaVuSans-112"/>
      <use x="407.470703" xlink:href="#DejaVuSans-111"/>
      <use x="468.652344" xlink:href="#DejaVuSans-110"/>
      <use x="532.03125" xlink:href="#DejaVuSans-101"/>
      <use x="593.554688" xlink:href="#DejaVuSans-110"/>
      <use x="656.933594" xlink:href="#DejaVuSans-116"/>
      <use x="696.142578" xlink:href="#DejaVuSans-115"/>
     </g>
    </g>
   </g>
   <g id="matplotlib.axis_2">
    <g id="ytick_1">
     <g id="line2d_37">
      <defs>
       <path d="M 0 0 
L 3 0 
" id="m9528692b00" style="stroke:#000000;stroke-width:0.5;"/>
      </defs>
      <g>
       <use style="stroke:#000000;stroke-width:0.5;" x="36.68125" xlink:href="#m9528692b00" y="135.435379"/>
      </g>
     </g>
     <g id="line2d_38">
      <defs>
       <path d="M 0 0 
L -3 0 
" id="m3ca6f4713c" style="stroke:#000000;stroke-width:0.5;"/>
      </defs>
      <g>
       <use style="stroke:#000000;stroke-width:0.5;" x="231.98125" xlink:href="#m3ca6f4713c" y="135.435379"/>
      </g>
     </g>
     <g id="text_6">
      <!-- 0.3 -->
      <g transform="translate(17.278125 139.234598)scale(0.1 -0.1)">
       <defs>
        <path d="M 10.6875 12.40625 
L 21 12.40625 
L 21 0 
L 10.6875 0 
z
" id="DejaVuSans-46"/>
        <path d="M 40.578125 39.3125 
Q 47.65625 37.796875 51.625 33 
Q 55.609375 28.21875 55.609375 21.1875 
Q 55.609375 10.40625 48.1875 4.484375 
Q 40.765625 -1.421875 27.09375 -1.421875 
Q 22.515625 -1.421875 17.65625 -0.515625 
Q 12.796875 0.390625 7.625 2.203125 
L 7.625 11.71875 
Q 11.71875 9.328125 16.59375 8.109375 
Q 21.484375 6.890625 26.8125 6.890625 
Q 36.078125 6.890625 40.9375 10.546875 
Q 45.796875 14.203125 45.796875 21.1875 
Q 45.796875 27.640625 41.28125 31.265625 
Q 36.765625 34.90625 28.71875 34.90625 
L 20.21875 34.90625 
L 20.21875 43.015625 
L 29.109375 43.015625 
Q 36.375 43.015625 40.234375 45.921875 
Q 44.09375 48.828125 44.09375 54.296875 
Q 44.09375 59.90625 40.109375 62.90625 
Q 36.140625 65.921875 28.71875 65.921875 
Q 24.65625 65.921875 20.015625 65.03125 
Q 15.375 64.15625 9.8125 62.3125 
L 9.8125 71.09375 
Q 15.4375 72.65625 20.34375 73.4375 
Q 25.25 74.21875 29.59375 74.21875 
Q 40.828125 74.21875 47.359375 69.109375 
Q 53.90625 64.015625 53.90625 55.328125 
Q 53.90625 49.265625 50.4375 45.09375 
Q 46.96875 40.921875 40.578125 39.3125 
z
" id="DejaVuSans-51"/>
       </defs>
       <use xlink:href="#DejaVuSans-48"/>
       <use x="63.623047" xlink:href="#DejaVuSans-46"/>
       <use x="95.410156" xlink:href="#DejaVuSans-51"/>
      </g>
     </g>
    </g>
    <g id="ytick_2">
     <g id="line2d_39">
      <g>
       <use style="stroke:#000000;stroke-width:0.5;" x="36.68125" xlink:href="#m9528692b00" y="103.426339"/>
      </g>
     </g>
     <g id="line2d_40">
      <g>
       <use style="stroke:#000000;stroke-width:0.5;" x="231.98125" xlink:href="#m3ca6f4713c" y="103.426339"/>
      </g>
     </g>
     <g id="text_7">
      <!-- 0.4 -->
      <g transform="translate(17.278125 107.225558)scale(0.1 -0.1)">
       <defs>
        <path d="M 37.796875 64.3125 
L 12.890625 25.390625 
L 37.796875 25.390625 
z
M 35.203125 72.90625 
L 47.609375 72.90625 
L 47.609375 25.390625 
L 58.015625 25.390625 
L 58.015625 17.1875 
L 47.609375 17.1875 
L 47.609375 0 
L 37.796875 0 
L 37.796875 17.1875 
L 4.890625 17.1875 
L 4.890625 26.703125 
z
" id="DejaVuSans-52"/>
       </defs>
       <use xlink:href="#DejaVuSans-48"/>
       <use x="63.623047" xlink:href="#DejaVuSans-46"/>
       <use x="95.410156" xlink:href="#DejaVuSans-52"/>
      </g>
     </g>
    </g>
    <g id="ytick_3">
     <g id="line2d_41">
      <g>
       <use style="stroke:#000000;stroke-width:0.5;" x="36.68125" xlink:href="#m9528692b00" y="71.417299"/>
      </g>
     </g>
     <g id="line2d_42">
      <g>
       <use style="stroke:#000000;stroke-width:0.5;" x="231.98125" xlink:href="#m3ca6f4713c" y="71.417299"/>
      </g>
     </g>
     <g id="text_8">
      <!-- 0.5 -->
      <g transform="translate(17.278125 75.216518)scale(0.1 -0.1)">
       <use xlink:href="#DejaVuSans-48"/>
       <use x="63.623047" xlink:href="#DejaVuSans-46"/>
       <use x="95.410156" xlink:href="#DejaVuSans-53"/>
      </g>
     </g>
    </g>
    <g id="ytick_4">
     <g id="line2d_43">
      <g>
       <use style="stroke:#000000;stroke-width:0.5;" x="36.68125" xlink:href="#m9528692b00" y="39.408259"/>
      </g>
     </g>
     <g id="line2d_44">
      <g>
       <use style="stroke:#000000;stroke-width:0.5;" x="231.98125" xlink:href="#m3ca6f4713c" y="39.408259"/>
      </g>
     </g>
     <g id="text_9">
      <!-- 0.6 -->
      <g transform="translate(17.278125 43.207478)scale(0.1 -0.1)">
       <defs>
        <path d="M 33.015625 40.375 
Q 26.375 40.375 22.484375 35.828125 
Q 18.609375 31.296875 18.609375 23.390625 
Q 18.609375 15.53125 22.484375 10.953125 
Q 26.375 6.390625 33.015625 6.390625 
Q 39.65625 6.390625 43.53125 10.953125 
Q 47.40625 15.53125 47.40625 23.390625 
Q 47.40625 31.296875 43.53125 35.828125 
Q 39.65625 40.375 33.015625 40.375 
z
M 52.59375 71.296875 
L 52.59375 62.3125 
Q 48.875 64.0625 45.09375 64.984375 
Q 41.3125 65.921875 37.59375 65.921875 
Q 27.828125 65.921875 22.671875 59.328125 
Q 17.53125 52.734375 16.796875 39.40625 
Q 19.671875 43.65625 24.015625 45.921875 
Q 28.375 48.1875 33.59375 48.1875 
Q 44.578125 48.1875 50.953125 41.515625 
Q 57.328125 34.859375 57.328125 23.390625 
Q 57.328125 12.15625 50.6875 5.359375 
Q 44.046875 -1.421875 33.015625 -1.421875 
Q 20.359375 -1.421875 13.671875 8.265625 
Q 6.984375 17.96875 6.984375 36.375 
Q 6.984375 53.65625 15.1875 63.9375 
Q 23.390625 74.21875 37.203125 74.21875 
Q 40.921875 74.21875 44.703125 73.484375 
Q 48.484375 72.75 52.59375 71.296875 
z
" id="DejaVuSans-54"/>
       </defs>
       <use xlink:href="#DejaVuSans-48"/>
       <use x="63.623047" xlink:href="#DejaVuSans-46"/>
       <use x="95.410156" xlink:href="#DejaVuSans-54"/>
      </g>
     </g>
    </g>
    <g id="ytick_5">
     <g id="line2d_45">
      <g>
       <use style="stroke:#000000;stroke-width:0.5;" x="36.68125" xlink:href="#m9528692b00" y="7.399219"/>
      </g>
     </g>
     <g id="line2d_46">
      <g>
       <use style="stroke:#000000;stroke-width:0.5;" x="231.98125" xlink:href="#m3ca6f4713c" y="7.399219"/>
      </g>
     </g>
     <g id="text_10">
      <!-- 0.7 -->
      <g transform="translate(17.278125 11.198437)scale(0.1 -0.1)">
       <defs>
        <path d="M 8.203125 72.90625 
L 55.078125 72.90625 
L 55.078125 68.703125 
L 28.609375 0 
L 18.3125 0 
L 43.21875 64.59375 
L 8.203125 64.59375 
z
" id="DejaVuSans-55"/>
       </defs>
       <use xlink:href="#DejaVuSans-48"/>
       <use x="63.623047" xlink:href="#DejaVuSans-46"/>
       <use x="95.410156" xlink:href="#DejaVuSans-55"/>
      </g>
     </g>
    </g>
    <g id="ytick_6">
     <g id="line2d_47">
      <defs>
       <path d="M 0 0 
L 1.5 0 
" id="mf0cca8d8df" style="stroke:#000000;stroke-width:0.5;"/>
      </defs>
      <g>
       <use style="stroke:#000000;stroke-width:0.5;" x="36.68125" xlink:href="#mf0cca8d8df" y="148.238995"/>
      </g>
     </g>
     <g id="line2d_48">
      <defs>
       <path d="M 0 0 
L -1.5 0 
" id="m6be4aec211" style="stroke:#000000;stroke-width:0.5;"/>
      </defs>
      <g>
       <use style="stroke:#000000;stroke-width:0.5;" x="231.98125" xlink:href="#m6be4aec211" y="148.238995"/>
      </g>
     </g>
    </g>
    <g id="ytick_7">
     <g id="line2d_49">
      <g>
       <use style="stroke:#000000;stroke-width:0.5;" x="36.68125" xlink:href="#mf0cca8d8df" y="141.837187"/>
      </g>
     </g>
     <g id="line2d_50">
      <g>
       <use style="stroke:#000000;stroke-width:0.5;" x="231.98125" xlink:href="#m6be4aec211" y="141.837187"/>
      </g>
     </g>
    </g>
    <g id="ytick_8">
     <g id="line2d_51">
      <g>
       <use style="stroke:#000000;stroke-width:0.5;" x="36.68125" xlink:href="#mf0cca8d8df" y="129.033571"/>
      </g>
     </g>
     <g id="line2d_52">
      <g>
       <use style="stroke:#000000;stroke-width:0.5;" x="231.98125" xlink:href="#m6be4aec211" y="129.033571"/>
      </g>
     </g>
    </g>
    <g id="ytick_9">
     <g id="line2d_53">
      <g>
       <use style="stroke:#000000;stroke-width:0.5;" x="36.68125" xlink:href="#mf0cca8d8df" y="122.631763"/>
      </g>
     </g>
     <g id="line2d_54">
      <g>
       <use style="stroke:#000000;stroke-width:0.5;" x="231.98125" xlink:href="#m6be4aec211" y="122.631763"/>
      </g>
     </g>
    </g>
    <g id="ytick_10">
     <g id="line2d_55">
      <g>
       <use style="stroke:#000000;stroke-width:0.5;" x="36.68125" xlink:href="#mf0cca8d8df" y="116.229955"/>
      </g>
     </g>
     <g id="line2d_56">
      <g>
       <use style="stroke:#000000;stroke-width:0.5;" x="231.98125" xlink:href="#m6be4aec211" y="116.229955"/>
      </g>
     </g>
    </g>
    <g id="ytick_11">
     <g id="line2d_57">
      <g>
       <use style="stroke:#000000;stroke-width:0.5;" x="36.68125" xlink:href="#mf0cca8d8df" y="109.828147"/>
      </g>
     </g>
     <g id="line2d_58">
      <g>
       <use style="stroke:#000000;stroke-width:0.5;" x="231.98125" xlink:href="#m6be4aec211" y="109.828147"/>
      </g>
     </g>
    </g>
    <g id="ytick_12">
     <g id="line2d_59">
      <g>
       <use style="stroke:#000000;stroke-width:0.5;" x="36.68125" xlink:href="#mf0cca8d8df" y="97.024531"/>
      </g>
     </g>
     <g id="line2d_60">
      <g>
       <use style="stroke:#000000;stroke-width:0.5;" x="231.98125" xlink:href="#m6be4aec211" y="97.024531"/>
      </g>
     </g>
    </g>
    <g id="ytick_13">
     <g id="line2d_61">
      <g>
       <use style="stroke:#000000;stroke-width:0.5;" x="36.68125" xlink:href="#mf0cca8d8df" y="90.622723"/>
      </g>
     </g>
     <g id="line2d_62">
      <g>
       <use style="stroke:#000000;stroke-width:0.5;" x="231.98125" xlink:href="#m6be4aec211" y="90.622723"/>
      </g>
     </g>
    </g>
    <g id="ytick_14">
     <g id="line2d_63">
      <g>
       <use style="stroke:#000000;stroke-width:0.5;" x="36.68125" xlink:href="#mf0cca8d8df" y="84.220915"/>
      </g>
     </g>
     <g id="line2d_64">
      <g>
       <use style="stroke:#000000;stroke-width:0.5;" x="231.98125" xlink:href="#m6be4aec211" y="84.220915"/>
      </g>
     </g>
    </g>
    <g id="ytick_15">
     <g id="line2d_65">
      <g>
       <use style="stroke:#000000;stroke-width:0.5;" x="36.68125" xlink:href="#mf0cca8d8df" y="77.819107"/>
      </g>
     </g>
     <g id="line2d_66">
      <g>
       <use style="stroke:#000000;stroke-width:0.5;" x="231.98125" xlink:href="#m6be4aec211" y="77.819107"/>
      </g>
     </g>
    </g>
    <g id="ytick_16">
     <g id="line2d_67">
      <g>
       <use style="stroke:#000000;stroke-width:0.5;" x="36.68125" xlink:href="#mf0cca8d8df" y="65.015491"/>
      </g>
     </g>
     <g id="line2d_68">
      <g>
       <use style="stroke:#000000;stroke-width:0.5;" x="231.98125" xlink:href="#m6be4aec211" y="65.015491"/>
      </g>
     </g>
    </g>
    <g id="ytick_17">
     <g id="line2d_69">
      <g>
       <use style="stroke:#000000;stroke-width:0.5;" x="36.68125" xlink:href="#mf0cca8d8df" y="58.613683"/>
      </g>
     </g>
     <g id="line2d_70">
      <g>
       <use style="stroke:#000000;stroke-width:0.5;" x="231.98125" xlink:href="#m6be4aec211" y="58.613683"/>
      </g>
     </g>
    </g>
    <g id="ytick_18">
     <g id="line2d_71">
      <g>
       <use style="stroke:#000000;stroke-width:0.5;" x="36.68125" xlink:href="#mf0cca8d8df" y="52.211875"/>
      </g>
     </g>
     <g id="line2d_72">
      <g>
       <use style="stroke:#000000;stroke-width:0.5;" x="231.98125" xlink:href="#m6be4aec211" y="52.211875"/>
      </g>
     </g>
    </g>
    <g id="ytick_19">
     <g id="line2d_73">
      <g>
       <use style="stroke:#000000;stroke-width:0.5;" x="36.68125" xlink:href="#mf0cca8d8df" y="45.810067"/>
      </g>
     </g>
     <g id="line2d_74">
      <g>
       <use style="stroke:#000000;stroke-width:0.5;" x="231.98125" xlink:href="#m6be4aec211" y="45.810067"/>
      </g>
     </g>
    </g>
    <g id="ytick_20">
     <g id="line2d_75">
      <g>
       <use style="stroke:#000000;stroke-width:0.5;" x="36.68125" xlink:href="#mf0cca8d8df" y="33.006451"/>
      </g>
     </g>
     <g id="line2d_76">
      <g>
       <use style="stroke:#000000;stroke-width:0.5;" x="231.98125" xlink:href="#m6be4aec211" y="33.006451"/>
      </g>
     </g>
    </g>
    <g id="ytick_21">
     <g id="line2d_77">
      <g>
       <use style="stroke:#000000;stroke-width:0.5;" x="36.68125" xlink:href="#mf0cca8d8df" y="26.604643"/>
      </g>
     </g>
     <g id="line2d_78">
      <g>
       <use style="stroke:#000000;stroke-width:0.5;" x="231.98125" xlink:href="#m6be4aec211" y="26.604643"/>
      </g>
     </g>
    </g>
    <g id="ytick_22">
     <g id="line2d_79">
      <g>
       <use style="stroke:#000000;stroke-width:0.5;" x="36.68125" xlink:href="#mf0cca8d8df" y="20.202835"/>
      </g>
     </g>
     <g id="line2d_80">
      <g>
       <use style="stroke:#000000;stroke-width:0.5;" x="231.98125" xlink:href="#m6be4aec211" y="20.202835"/>
      </g>
     </g>
    </g>
    <g id="ytick_23">
     <g id="line2d_81">
      <g>
       <use style="stroke:#000000;stroke-width:0.5;" x="36.68125" xlink:href="#mf0cca8d8df" y="13.801027"/>
      </g>
     </g>
     <g id="line2d_82">
      <g>
       <use style="stroke:#000000;stroke-width:0.5;" x="231.98125" xlink:href="#m6be4aec211" y="13.801027"/>
      </g>
     </g>
    </g>
    <g id="text_11">
     <!-- Pearson Correlation -->
     <g transform="translate(11.198438 127.688775)rotate(-90)scale(0.1 -0.1)">
      <defs>
       <path d="M 19.671875 64.796875 
L 19.671875 37.40625 
L 32.078125 37.40625 
Q 38.96875 37.40625 42.71875 40.96875 
Q 46.484375 44.53125 46.484375 51.125 
Q 46.484375 57.671875 42.71875 61.234375 
Q 38.96875 64.796875 32.078125 64.796875 
z
M 9.8125 72.90625 
L 32.078125 72.90625 
Q 44.34375 72.90625 50.609375 67.359375 
Q 56.890625 61.8125 56.890625 51.125 
Q 56.890625 40.328125 50.609375 34.8125 
Q 44.34375 29.296875 32.078125 29.296875 
L 19.671875 29.296875 
L 19.671875 0 
L 9.8125 0 
z
" id="DejaVuSans-80"/>
       <path d="M 34.28125 27.484375 
Q 23.390625 27.484375 19.1875 25 
Q 14.984375 22.515625 14.984375 16.5 
Q 14.984375 11.71875 18.140625 8.90625 
Q 21.296875 6.109375 26.703125 6.109375 
Q 34.1875 6.109375 38.703125 11.40625 
Q 43.21875 16.703125 43.21875 25.484375 
L 43.21875 27.484375 
z
M 52.203125 31.203125 
L 52.203125 0 
L 43.21875 0 
L 43.21875 8.296875 
Q 40.140625 3.328125 35.546875 0.953125 
Q 30.953125 -1.421875 24.3125 -1.421875 
Q 15.921875 -1.421875 10.953125 3.296875 
Q 6 8.015625 6 15.921875 
Q 6 25.140625 12.171875 29.828125 
Q 18.359375 34.515625 30.609375 34.515625 
L 43.21875 34.515625 
L 43.21875 35.40625 
Q 43.21875 41.609375 39.140625 45 
Q 35.0625 48.390625 27.6875 48.390625 
Q 23 48.390625 18.546875 47.265625 
Q 14.109375 46.140625 10.015625 43.890625 
L 10.015625 52.203125 
Q 14.9375 54.109375 19.578125 55.046875 
Q 24.21875 56 28.609375 56 
Q 40.484375 56 46.34375 49.84375 
Q 52.203125 43.703125 52.203125 31.203125 
z
" id="DejaVuSans-97"/>
       <path d="M 41.109375 46.296875 
Q 39.59375 47.171875 37.8125 47.578125 
Q 36.03125 48 33.890625 48 
Q 26.265625 48 22.1875 43.046875 
Q 18.109375 38.09375 18.109375 28.8125 
L 18.109375 0 
L 9.078125 0 
L 9.078125 54.6875 
L 18.109375 54.6875 
L 18.109375 46.1875 
Q 20.953125 51.171875 25.484375 53.578125 
Q 30.03125 56 36.53125 56 
Q 37.453125 56 38.578125 55.875 
Q 39.703125 55.765625 41.0625 55.515625 
z
" id="DejaVuSans-114"/>
       <path d="M 9.421875 75.984375 
L 18.40625 75.984375 
L 18.40625 0 
L 9.421875 0 
z
" id="DejaVuSans-108"/>
       <path d="M 9.421875 54.6875 
L 18.40625 54.6875 
L 18.40625 0 
L 9.421875 0 
z
M 9.421875 75.984375 
L 18.40625 75.984375 
L 18.40625 64.59375 
L 9.421875 64.59375 
z
" id="DejaVuSans-105"/>
      </defs>
      <use xlink:href="#DejaVuSans-80"/>
      <use x="56.677734" xlink:href="#DejaVuSans-101"/>
      <use x="118.201172" xlink:href="#DejaVuSans-97"/>
      <use x="179.480469" xlink:href="#DejaVuSans-114"/>
      <use x="220.59375" xlink:href="#DejaVuSans-115"/>
      <use x="272.693359" xlink:href="#DejaVuSans-111"/>
      <use x="333.875" xlink:href="#DejaVuSans-110"/>
      <use x="397.253906" xlink:href="#DejaVuSans-32"/>
      <use x="429.041016" xlink:href="#DejaVuSans-67"/>
      <use x="498.865234" xlink:href="#DejaVuSans-111"/>
      <use x="560.046875" xlink:href="#DejaVuSans-114"/>
      <use x="599.410156" xlink:href="#DejaVuSans-114"/>
      <use x="638.273438" xlink:href="#DejaVuSans-101"/>
      <use x="699.796875" xlink:href="#DejaVuSans-108"/>
      <use x="727.580078" xlink:href="#DejaVuSans-97"/>
      <use x="788.859375" xlink:href="#DejaVuSans-116"/>
      <use x="828.068359" xlink:href="#DejaVuSans-105"/>
      <use x="855.851562" xlink:href="#DejaVuSans-111"/>
      <use x="917.033203" xlink:href="#DejaVuSans-110"/>
     </g>
    </g>
   </g>
   <g id="line2d_83">
    <path clip-path="url(#p9bd131c987)" d="M 36.68125 32.366831 
L 47.53125 70.525152 
L 58.38125 89.837639 
L 69.23125 96.254354 
L 80.08125 102.536421 
L 90.93125 109.262723 
L 101.78125 116.424655 
L 112.63125 115.732495 
L 123.48125 116.072173 
L 134.33125 115.672726 
L 145.18125 117.662371 
L 156.03125 119.476261 
L 166.88125 119.08056 
L 177.73125 119.237451 
L 188.58125 120.133415 
L 199.43125 121.420464 
L 210.28125 118.959718 
L 221.13125 120.698429 
L 231.98125 120.454756 
" style="fill:none;stroke:#0c5da5;stroke-linecap:square;stroke-width:1.2;"/>
    <defs>
     <path d="M -2 2 
L 2 2 
L 2 -2 
L -2 -2 
z
" id="meed5d2b417" style="stroke:#0c5da5;stroke-linejoin:miter;stroke-width:1.5;"/>
    </defs>
    <g clip-path="url(#p9bd131c987)">
     <use style="fill-opacity:0;stroke:#0c5da5;stroke-linejoin:miter;stroke-width:1.5;" x="36.68125" xlink:href="#meed5d2b417" y="32.366831"/>
     <use style="fill-opacity:0;stroke:#0c5da5;stroke-linejoin:miter;stroke-width:1.5;" x="47.53125" xlink:href="#meed5d2b417" y="70.525152"/>
     <use style="fill-opacity:0;stroke:#0c5da5;stroke-linejoin:miter;stroke-width:1.5;" x="58.38125" xlink:href="#meed5d2b417" y="89.837639"/>
     <use style="fill-opacity:0;stroke:#0c5da5;stroke-linejoin:miter;stroke-width:1.5;" x="69.23125" xlink:href="#meed5d2b417" y="96.254354"/>
     <use style="fill-opacity:0;stroke:#0c5da5;stroke-linejoin:miter;stroke-width:1.5;" x="80.08125" xlink:href="#meed5d2b417" y="102.536421"/>
     <use style="fill-opacity:0;stroke:#0c5da5;stroke-linejoin:miter;stroke-width:1.5;" x="90.93125" xlink:href="#meed5d2b417" y="109.262723"/>
     <use style="fill-opacity:0;stroke:#0c5da5;stroke-linejoin:miter;stroke-width:1.5;" x="101.78125" xlink:href="#meed5d2b417" y="116.424655"/>
     <use style="fill-opacity:0;stroke:#0c5da5;stroke-linejoin:miter;stroke-width:1.5;" x="112.63125" xlink:href="#meed5d2b417" y="115.732495"/>
     <use style="fill-opacity:0;stroke:#0c5da5;stroke-linejoin:miter;stroke-width:1.5;" x="123.48125" xlink:href="#meed5d2b417" y="116.072173"/>
     <use style="fill-opacity:0;stroke:#0c5da5;stroke-linejoin:miter;stroke-width:1.5;" x="134.33125" xlink:href="#meed5d2b417" y="115.672726"/>
     <use style="fill-opacity:0;stroke:#0c5da5;stroke-linejoin:miter;stroke-width:1.5;" x="145.18125" xlink:href="#meed5d2b417" y="117.662371"/>
     <use style="fill-opacity:0;stroke:#0c5da5;stroke-linejoin:miter;stroke-width:1.5;" x="156.03125" xlink:href="#meed5d2b417" y="119.476261"/>
     <use style="fill-opacity:0;stroke:#0c5da5;stroke-linejoin:miter;stroke-width:1.5;" x="166.88125" xlink:href="#meed5d2b417" y="119.08056"/>
     <use style="fill-opacity:0;stroke:#0c5da5;stroke-linejoin:miter;stroke-width:1.5;" x="177.73125" xlink:href="#meed5d2b417" y="119.237451"/>
     <use style="fill-opacity:0;stroke:#0c5da5;stroke-linejoin:miter;stroke-width:1.5;" x="188.58125" xlink:href="#meed5d2b417" y="120.133415"/>
     <use style="fill-opacity:0;stroke:#0c5da5;stroke-linejoin:miter;stroke-width:1.5;" x="199.43125" xlink:href="#meed5d2b417" y="121.420464"/>
     <use style="fill-opacity:0;stroke:#0c5da5;stroke-linejoin:miter;stroke-width:1.5;" x="210.28125" xlink:href="#meed5d2b417" y="118.959718"/>
     <use style="fill-opacity:0;stroke:#0c5da5;stroke-linejoin:miter;stroke-width:1.5;" x="221.13125" xlink:href="#meed5d2b417" y="120.698429"/>
     <use style="fill-opacity:0;stroke:#0c5da5;stroke-linejoin:miter;stroke-width:1.5;" x="231.98125" xlink:href="#meed5d2b417" y="120.454756"/>
    </g>
   </g>
   <g id="line2d_84">
    <path clip-path="url(#p9bd131c987)" d="M 36.68125 14.28849 
L 47.53125 71.19392 
L 58.38125 94.342792 
L 69.23125 104.845476 
L 80.08125 108.690883 
L 90.93125 111.230357 
L 101.78125 119.860564 
L 112.63125 114.231765 
L 123.48125 120.640995 
L 134.33125 117.881619 
L 145.18125 118.467287 
L 156.03125 118.259018 
L 166.88125 119.914032 
L 177.73125 120.551466 
L 188.58125 122.443978 
L 199.43125 122.280629 
L 210.28125 121.458352 
L 221.13125 121.595486 
L 231.98125 121.562829 
" style="fill:none;stroke:#ff9500;stroke-dasharray:1.2,1.98;stroke-dashoffset:0;stroke-width:1.2;"/>
    <defs>
     <path d="M 0 2 
C 0.530406 2 1.03916 1.789267 1.414214 1.414214 
C 1.789267 1.03916 2 0.530406 2 0 
C 2 -0.530406 1.789267 -1.03916 1.414214 -1.414214 
C 1.03916 -1.789267 0.530406 -2 0 -2 
C -0.530406 -2 -1.03916 -1.789267 -1.414214 -1.414214 
C -1.789267 -1.03916 -2 -0.530406 -2 0 
C -2 0.530406 -1.789267 1.03916 -1.414214 1.414214 
C -1.03916 1.789267 -0.530406 2 0 2 
z
" id="mc974d3d084" style="stroke:#ff9500;stroke-width:1.5;"/>
    </defs>
    <g clip-path="url(#p9bd131c987)">
     <use style="fill-opacity:0;stroke:#ff9500;stroke-width:1.5;" x="36.68125" xlink:href="#mc974d3d084" y="14.28849"/>
     <use style="fill-opacity:0;stroke:#ff9500;stroke-width:1.5;" x="47.53125" xlink:href="#mc974d3d084" y="71.19392"/>
     <use style="fill-opacity:0;stroke:#ff9500;stroke-width:1.5;" x="58.38125" xlink:href="#mc974d3d084" y="94.342792"/>
     <use style="fill-opacity:0;stroke:#ff9500;stroke-width:1.5;" x="69.23125" xlink:href="#mc974d3d084" y="104.845476"/>
     <use style="fill-opacity:0;stroke:#ff9500;stroke-width:1.5;" x="80.08125" xlink:href="#mc974d3d084" y="108.690883"/>
     <use style="fill-opacity:0;stroke:#ff9500;stroke-width:1.5;" x="90.93125" xlink:href="#mc974d3d084" y="111.230357"/>
     <use style="fill-opacity:0;stroke:#ff9500;stroke-width:1.5;" x="101.78125" xlink:href="#mc974d3d084" y="119.860564"/>
     <use style="fill-opacity:0;stroke:#ff9500;stroke-width:1.5;" x="112.63125" xlink:href="#mc974d3d084" y="114.231765"/>
     <use style="fill-opacity:0;stroke:#ff9500;stroke-width:1.5;" x="123.48125" xlink:href="#mc974d3d084" y="120.640995"/>
     <use style="fill-opacity:0;stroke:#ff9500;stroke-width:1.5;" x="134.33125" xlink:href="#mc974d3d084" y="117.881619"/>
     <use style="fill-opacity:0;stroke:#ff9500;stroke-width:1.5;" x="145.18125" xlink:href="#mc974d3d084" y="118.467287"/>
     <use style="fill-opacity:0;stroke:#ff9500;stroke-width:1.5;" x="156.03125" xlink:href="#mc974d3d084" y="118.259018"/>
     <use style="fill-opacity:0;stroke:#ff9500;stroke-width:1.5;" x="166.88125" xlink:href="#mc974d3d084" y="119.914032"/>
     <use style="fill-opacity:0;stroke:#ff9500;stroke-width:1.5;" x="177.73125" xlink:href="#mc974d3d084" y="120.551466"/>
     <use style="fill-opacity:0;stroke:#ff9500;stroke-width:1.5;" x="188.58125" xlink:href="#mc974d3d084" y="122.443978"/>
     <use style="fill-opacity:0;stroke:#ff9500;stroke-width:1.5;" x="199.43125" xlink:href="#mc974d3d084" y="122.280629"/>
     <use style="fill-opacity:0;stroke:#ff9500;stroke-width:1.5;" x="210.28125" xlink:href="#mc974d3d084" y="121.458352"/>
     <use style="fill-opacity:0;stroke:#ff9500;stroke-width:1.5;" x="221.13125" xlink:href="#mc974d3d084" y="121.595486"/>
     <use style="fill-opacity:0;stroke:#ff9500;stroke-width:1.5;" x="231.98125" xlink:href="#mc974d3d084" y="121.562829"/>
    </g>
   </g>
   <g id="line2d_85">
    <path clip-path="url(#p9bd131c987)" d="M 36.68125 34.51765 
L 47.53125 96.742004 
L 58.38125 102.107118 
L 69.23125 106.229107 
L 80.08125 117.255067 
L 90.93125 118.314004 
L 101.78125 128.253421 
L 112.63125 123.532071 
L 123.48125 132.243186 
L 134.33125 131.129614 
L 145.18125 139.202313 
L 156.03125 134.563337 
L 166.88125 134.247666 
L 177.73125 137.018834 
L 188.58125 132.430019 
L 199.43125 130.715391 
L 210.28125 126.204286 
L 221.13125 125.120469 
L 231.98125 125.821103 
" style="fill:none;stroke:#00b945;stroke-dasharray:4.44,1.92;stroke-dashoffset:0;stroke-width:1.2;"/>
    <defs>
     <path d="M 0 -2 
L -2 2 
L 2 2 
z
" id="mc24315466d" style="stroke:#00b945;stroke-linejoin:miter;stroke-width:1.5;"/>
    </defs>
    <g clip-path="url(#p9bd131c987)">
     <use style="fill-opacity:0;stroke:#00b945;stroke-linejoin:miter;stroke-width:1.5;" x="36.68125" xlink:href="#mc24315466d" y="34.51765"/>
     <use style="fill-opacity:0;stroke:#00b945;stroke-linejoin:miter;stroke-width:1.5;" x="47.53125" xlink:href="#mc24315466d" y="96.742004"/>
     <use style="fill-opacity:0;stroke:#00b945;stroke-linejoin:miter;stroke-width:1.5;" x="58.38125" xlink:href="#mc24315466d" y="102.107118"/>
     <use style="fill-opacity:0;stroke:#00b945;stroke-linejoin:miter;stroke-width:1.5;" x="69.23125" xlink:href="#mc24315466d" y="106.229107"/>
     <use style="fill-opacity:0;stroke:#00b945;stroke-linejoin:miter;stroke-width:1.5;" x="80.08125" xlink:href="#mc24315466d" y="117.255067"/>
     <use style="fill-opacity:0;stroke:#00b945;stroke-linejoin:miter;stroke-width:1.5;" x="90.93125" xlink:href="#mc24315466d" y="118.314004"/>
     <use style="fill-opacity:0;stroke:#00b945;stroke-linejoin:miter;stroke-width:1.5;" x="101.78125" xlink:href="#mc24315466d" y="128.253421"/>
     <use style="fill-opacity:0;stroke:#00b945;stroke-linejoin:miter;stroke-width:1.5;" x="112.63125" xlink:href="#mc24315466d" y="123.532071"/>
     <use style="fill-opacity:0;stroke:#00b945;stroke-linejoin:miter;stroke-width:1.5;" x="123.48125" xlink:href="#mc24315466d" y="132.243186"/>
     <use style="fill-opacity:0;stroke:#00b945;stroke-linejoin:miter;stroke-width:1.5;" x="134.33125" xlink:href="#mc24315466d" y="131.129614"/>
     <use style="fill-opacity:0;stroke:#00b945;stroke-linejoin:miter;stroke-width:1.5;" x="145.18125" xlink:href="#mc24315466d" y="139.202313"/>
     <use style="fill-opacity:0;stroke:#00b945;stroke-linejoin:miter;stroke-width:1.5;" x="156.03125" xlink:href="#mc24315466d" y="134.563337"/>
     <use style="fill-opacity:0;stroke:#00b945;stroke-linejoin:miter;stroke-width:1.5;" x="166.88125" xlink:href="#mc24315466d" y="134.247666"/>
     <use style="fill-opacity:0;stroke:#00b945;stroke-linejoin:miter;stroke-width:1.5;" x="177.73125" xlink:href="#mc24315466d" y="137.018834"/>
     <use style="fill-opacity:0;stroke:#00b945;stroke-linejoin:miter;stroke-width:1.5;" x="188.58125" xlink:href="#mc24315466d" y="132.430019"/>
     <use style="fill-opacity:0;stroke:#00b945;stroke-linejoin:miter;stroke-width:1.5;" x="199.43125" xlink:href="#mc24315466d" y="130.715391"/>
     <use style="fill-opacity:0;stroke:#00b945;stroke-linejoin:miter;stroke-width:1.5;" x="210.28125" xlink:href="#mc24315466d" y="126.204286"/>
     <use style="fill-opacity:0;stroke:#00b945;stroke-linejoin:miter;stroke-width:1.5;" x="221.13125" xlink:href="#mc24315466d" y="125.120469"/>
     <use style="fill-opacity:0;stroke:#00b945;stroke-linejoin:miter;stroke-width:1.5;" x="231.98125" xlink:href="#mc24315466d" y="125.821103"/>
    </g>
   </g>
   <g id="patch_3">
    <path d="M 36.68125 150.015962 
L 36.68125 7.320962 
" style="fill:none;stroke:#000000;stroke-linecap:square;stroke-linejoin:miter;stroke-width:0.5;"/>
   </g>
   <g id="patch_4">
    <path d="M 231.98125 150.015962 
L 231.98125 7.320962 
" style="fill:none;stroke:#000000;stroke-linecap:square;stroke-linejoin:miter;stroke-width:0.5;"/>
   </g>
   <g id="patch_5">
    <path d="M 36.68125 150.015962 
L 231.98125 150.015962 
" style="fill:none;stroke:#000000;stroke-linecap:square;stroke-linejoin:miter;stroke-width:0.5;"/>
   </g>
   <g id="patch_6">
    <path d="M 36.68125 7.320962 
L 231.98125 7.320962 
" style="fill:none;stroke:#000000;stroke-linecap:square;stroke-linejoin:miter;stroke-width:0.5;"/>
   </g>
   <g id="legend_1">
    <g id="line2d_86">
     <path d="M 182.325 20.4194 
L 202.325 20.4194 
" style="fill:none;stroke:#0c5da5;stroke-linecap:square;stroke-width:1.2;"/>
    </g>
    <g id="line2d_87">
     <g>
      <use style="fill-opacity:0;stroke:#0c5da5;stroke-linejoin:miter;stroke-width:1.5;" x="192.325" xlink:href="#meed5d2b417" y="20.4194"/>
     </g>
    </g>
    <g id="text_12">
     <!-- Eu -->
     <g transform="translate(210.325 23.9194)scale(0.1 -0.1)">
      <defs>
       <path d="M 9.8125 72.90625 
L 55.90625 72.90625 
L 55.90625 64.59375 
L 19.671875 64.59375 
L 19.671875 43.015625 
L 54.390625 43.015625 
L 54.390625 34.71875 
L 19.671875 34.71875 
L 19.671875 8.296875 
L 56.78125 8.296875 
L 56.78125 0 
L 9.8125 0 
z
" id="DejaVuSans-69"/>
       <path d="M 8.5 21.578125 
L 8.5 54.6875 
L 17.484375 54.6875 
L 17.484375 21.921875 
Q 17.484375 14.15625 20.5 10.265625 
Q 23.53125 6.390625 29.59375 6.390625 
Q 36.859375 6.390625 41.078125 11.03125 
Q 45.3125 15.671875 45.3125 23.6875 
L 45.3125 54.6875 
L 54.296875 54.6875 
L 54.296875 0 
L 45.3125 0 
L 45.3125 8.40625 
Q 42.046875 3.421875 37.71875 1 
Q 33.40625 -1.421875 27.6875 -1.421875 
Q 18.265625 -1.421875 13.375 4.4375 
Q 8.5 10.296875 8.5 21.578125 
z
M 31.109375 56 
z
" id="DejaVuSans-117"/>
      </defs>
      <use xlink:href="#DejaVuSans-69"/>
      <use x="63.183594" xlink:href="#DejaVuSans-117"/>
     </g>
    </g>
    <g id="line2d_88">
     <path d="M 182.325 35.097525 
L 202.325 35.097525 
" style="fill:none;stroke:#ff9500;stroke-dasharray:1.2,1.98;stroke-dashoffset:0;stroke-width:1.2;"/>
    </g>
    <g id="line2d_89">
     <g>
      <use style="fill-opacity:0;stroke:#ff9500;stroke-width:1.5;" x="192.325" xlink:href="#mc974d3d084" y="35.097525"/>
     </g>
    </g>
    <g id="text_13">
     <!-- KL -->
     <g transform="translate(210.325 38.597525)scale(0.1 -0.1)">
      <defs>
       <path d="M 9.8125 72.90625 
L 19.671875 72.90625 
L 19.671875 42.09375 
L 52.390625 72.90625 
L 65.09375 72.90625 
L 28.90625 38.921875 
L 67.671875 0 
L 54.6875 0 
L 19.671875 35.109375 
L 19.671875 0 
L 9.8125 0 
z
" id="DejaVuSans-75"/>
       <path d="M 9.8125 72.90625 
L 19.671875 72.90625 
L 19.671875 8.296875 
L 55.171875 8.296875 
L 55.171875 0 
L 9.8125 0 
z
" id="DejaVuSans-76"/>
      </defs>
      <use xlink:href="#DejaVuSans-75"/>
      <use x="65.576172" xlink:href="#DejaVuSans-76"/>
     </g>
    </g>
    <g id="line2d_90">
     <path d="M 182.325 49.77565 
L 202.325 49.77565 
" style="fill:none;stroke:#00b945;stroke-dasharray:4.44,1.92;stroke-dashoffset:0;stroke-width:1.2;"/>
    </g>
    <g id="line2d_91">
     <g>
      <use style="fill-opacity:0;stroke:#00b945;stroke-linejoin:miter;stroke-width:1.5;" x="192.325" xlink:href="#mc24315466d" y="49.77565"/>
     </g>
    </g>
    <g id="text_14">
     <!-- IS -->
     <g transform="translate(210.325 53.27565)scale(0.1 -0.1)">
      <defs>
       <path d="M 9.8125 72.90625 
L 19.671875 72.90625 
L 19.671875 0 
L 9.8125 0 
z
" id="DejaVuSans-73"/>
       <path d="M 53.515625 70.515625 
L 53.515625 60.890625 
Q 47.90625 63.578125 42.921875 64.890625 
Q 37.9375 66.21875 33.296875 66.21875 
Q 25.25 66.21875 20.875 63.09375 
Q 16.5 59.96875 16.5 54.203125 
Q 16.5 49.359375 19.40625 46.890625 
Q 22.3125 44.4375 30.421875 42.921875 
L 36.375 41.703125 
Q 47.40625 39.59375 52.65625 34.296875 
Q 57.90625 29 57.90625 20.125 
Q 57.90625 9.515625 50.796875 4.046875 
Q 43.703125 -1.421875 29.984375 -1.421875 
Q 24.8125 -1.421875 18.96875 -0.25 
Q 13.140625 0.921875 6.890625 3.21875 
L 6.890625 13.375 
Q 12.890625 10.015625 18.65625 8.296875 
Q 24.421875 6.59375 29.984375 6.59375 
Q 38.421875 6.59375 43.015625 9.90625 
Q 47.609375 13.234375 47.609375 19.390625 
Q 47.609375 24.75 44.3125 27.78125 
Q 41.015625 30.8125 33.5 32.328125 
L 27.484375 33.5 
Q 16.453125 35.6875 11.515625 40.375 
Q 6.59375 45.0625 6.59375 53.421875 
Q 6.59375 63.09375 13.40625 68.65625 
Q 20.21875 74.21875 32.171875 74.21875 
Q 37.3125 74.21875 42.625 73.28125 
Q 47.953125 72.359375 53.515625 70.515625 
z
" id="DejaVuSans-83"/>
      </defs>
      <use xlink:href="#DejaVuSans-73"/>
      <use x="29.492188" xlink:href="#DejaVuSans-83"/>
     </g>
    </g>
   </g>
  </g>
 </g>
 <defs>
  <clipPath id="p9bd131c987">
   <rect height="142.695" width="195.3" x="36.68125" y="7.320962"/>
  </clipPath>
 </defs>
</svg>
