<?xml version="1.0" encoding="utf-8" standalone="no"?>
<!DOCTYPE svg PUBLIC "-//W3C//DTD SVG 1.1//EN"
  "http://www.w3.org/Graphics/SVG/1.1/DTD/svg11.dtd">
<svg xmlns:xlink="http://www.w3.org/1999/xlink" width="244.614375pt" height="179.529375pt" viewBox="0 0 244.614375 179.529375" xmlns="http://www.w3.org/2000/svg" version="1.1">
 <metadata>
  <rdf:RDF xmlns:dc="http://purl.org/dc/elements/1.1/" xmlns:cc="http://creativecommons.org/ns#" xmlns:rdf="http://www.w3.org/1999/02/22-rdf-syntax-ns#">
   <cc:Work>
    <dc:type rdf:resource="http://purl.org/dc/dcmitype/StillImage"/>
    <dc:date>2023-10-18T10:12:02.789785</dc:date>
    <dc:format>image/svg+xml</dc:format>
    <dc:creator>
     <cc:Agent>
      <dc:title>Matplotlib v3.5.1, https://matplotlib.org/</dc:title>
     </cc:Agent>
    </dc:creator>
   </cc:Work>
  </rdf:RDF>
 </metadata>
 <defs>
  <style type="text/css">*{stroke-linejoin: round; stroke-linecap: butt}</style>
 </defs>
 <g id="figure_1">
  <g id="patch_1">
   <path d="M 0 179.529375 
L 244.614375 179.529375 
L 244.614375 0 
L 0 0 
L 0 179.529375 
z
" style="fill: none"/>
  </g>
  <g id="axes_1">
   <g id="patch_2">
    <path d="M 39.04125 146.295 
L 234.34125 146.295 
L 234.34125 3.6 
L 39.04125 3.6 
z
" style="fill: #ffffff"/>
   </g>
   <g id="PolyCollection_1">
    <path d="M 39.04125 99.885727 
L 39.04125 110.924779 
L 49.89125 68.745681 
L 60.74125 45.142192 
L 71.59125 38.080862 
L 82.44125 39.033266 
L 93.29125 39.220895 
L 104.14125 39.45241 
L 114.99125 39.493326 
L 125.84125 38.366651 
L 136.69125 48.815185 
L 147.54125 47.685397 
L 158.39125 44.688563 
L 169.24125 45.91757 
L 180.09125 48.724786 
L 190.94125 53.017192 
L 201.79125 58.893345 
L 212.64125 57.133063 
L 223.49125 54.69824 
L 234.34125 57.810206 
L 234.34125 39.159332 
L 234.34125 39.159332 
L 223.49125 41.408781 
L 212.64125 39.250772 
L 201.79125 37.41627 
L 190.94125 31.135053 
L 180.09125 32.936946 
L 169.24125 31.622687 
L 158.39125 28.672783 
L 147.54125 28.756902 
L 136.69125 31.462935 
L 125.84125 27.476542 
L 114.99125 28.465587 
L 104.14125 27.801014 
L 93.29125 26.189019 
L 82.44125 31.585103 
L 71.59125 31.79494 
L 60.74125 37.484318 
L 49.89125 61.98613 
L 39.04125 99.885727 
z
" clip-path="url(#p6736a0ce07)" style="fill: #0c5da5; fill-opacity: 0.15"/>
   </g>
   <g id="PolyCollection_2">
    <path d="M 39.04125 127.601101 
L 39.04125 134.622722 
L 49.89125 75.531639 
L 60.74125 62.694324 
L 71.59125 43.288082 
L 82.44125 43.900692 
L 93.29125 29.730689 
L 104.14125 25.97464 
L 114.99125 32.993831 
L 125.84125 31.726676 
L 136.69125 32.198905 
L 147.54125 35.553981 
L 158.39125 35.706199 
L 169.24125 36.793328 
L 180.09125 38.94479 
L 190.94125 38.347003 
L 201.79125 39.840376 
L 212.64125 44.32234 
L 223.49125 43.076944 
L 234.34125 45.256485 
L 234.34125 41.780825 
L 234.34125 41.780825 
L 223.49125 39.520241 
L 212.64125 34.647051 
L 201.79125 34.133412 
L 190.94125 31.156049 
L 180.09125 29.524727 
L 169.24125 29.795728 
L 158.39125 32.204377 
L 147.54125 27.059467 
L 136.69125 27.524197 
L 125.84125 23.435067 
L 114.99125 25.193404 
L 104.14125 19.331118 
L 93.29125 22.901855 
L 82.44125 25.211507 
L 71.59125 35.290153 
L 60.74125 60.473092 
L 49.89125 69.756434 
L 39.04125 127.601101 
z
" clip-path="url(#p6736a0ce07)" style="fill: #ff9500; fill-opacity: 0.15"/>
   </g>
   <g id="PolyCollection_3">
    <path d="M 39.04125 131.176946 
L 39.04125 139.808864 
L 49.89125 77.178278 
L 60.74125 47.879538 
L 71.59125 34.51411 
L 82.44125 24.985407 
L 93.29125 23.383491 
L 104.14125 21.269672 
L 114.99125 21.959036 
L 125.84125 22.486412 
L 136.69125 20.712214 
L 147.54125 24.92085 
L 158.39125 29.201259 
L 169.24125 30.963476 
L 180.09125 28.789435 
L 190.94125 36.52859 
L 201.79125 37.327152 
L 212.64125 36.482602 
L 223.49125 35.25617 
L 234.34125 39.43128 
L 234.34125 26.18479 
L 234.34125 26.18479 
L 223.49125 28.502255 
L 212.64125 25.165974 
L 201.79125 24.631213 
L 190.94125 17.271023 
L 180.09125 18.714299 
L 169.24125 18.364585 
L 158.39125 16.110956 
L 147.54125 14.202951 
L 136.69125 12.508531 
L 125.84125 12.935314 
L 114.99125 16.711217 
L 104.14125 10.086136 
L 93.29125 14.229302 
L 82.44125 18.590926 
L 71.59125 30.30103 
L 60.74125 41.262672 
L 49.89125 64.133347 
L 39.04125 131.176946 
z
" clip-path="url(#p6736a0ce07)" style="fill: #00b945; fill-opacity: 0.15"/>
   </g>
   <g id="matplotlib.axis_1">
    <g id="xtick_1">
     <g id="line2d_1">
      <defs>
       <path id="m21c7e79b21" d="M 0 0 
L 0 -3 
" style="stroke: #000000; stroke-width: 0.5"/>
      </defs>
      <g>
       <use xlink:href="#m21c7e79b21" x="71.59125" y="146.295" style="stroke: #000000; stroke-width: 0.5"/>
      </g>
     </g>
     <g id="line2d_2">
      <defs>
       <path id="mc92e56a2d4" d="M 0 0 
L 0 3 
" style="stroke: #000000; stroke-width: 0.5"/>
      </defs>
      <g>
       <use xlink:href="#mc92e56a2d4" x="71.59125" y="3.6" style="stroke: #000000; stroke-width: 0.5"/>
      </g>
     </g>
     <g id="text_1">
      <!-- 5 -->
      <g transform="translate(68.254688 158.384375)scale(0.12 -0.12)">
       <defs>
        <path id="ArialMT-35" d="M 266 1200 
L 856 1250 
Q 922 819 1161 601 
Q 1400 384 1738 384 
Q 2144 384 2425 690 
Q 2706 997 2706 1503 
Q 2706 1984 2436 2262 
Q 2166 2541 1728 2541 
Q 1456 2541 1237 2417 
Q 1019 2294 894 2097 
L 366 2166 
L 809 4519 
L 3088 4519 
L 3088 3981 
L 1259 3981 
L 1013 2750 
Q 1425 3038 1878 3038 
Q 2478 3038 2890 2622 
Q 3303 2206 3303 1553 
Q 3303 931 2941 478 
Q 2500 -78 1738 -78 
Q 1113 -78 717 272 
Q 322 622 266 1200 
z
" transform="scale(0.015625)"/>
       </defs>
       <use xlink:href="#ArialMT-35"/>
      </g>
     </g>
    </g>
    <g id="xtick_2">
     <g id="line2d_3">
      <g>
       <use xlink:href="#m21c7e79b21" x="125.84125" y="146.295" style="stroke: #000000; stroke-width: 0.5"/>
      </g>
     </g>
     <g id="line2d_4">
      <g>
       <use xlink:href="#mc92e56a2d4" x="125.84125" y="3.6" style="stroke: #000000; stroke-width: 0.5"/>
      </g>
     </g>
     <g id="text_2">
      <!-- 10 -->
      <g transform="translate(119.168125 158.384375)scale(0.12 -0.12)">
       <defs>
        <path id="ArialMT-31" d="M 2384 0 
L 1822 0 
L 1822 3584 
Q 1619 3391 1289 3197 
Q 959 3003 697 2906 
L 697 3450 
Q 1169 3672 1522 3987 
Q 1875 4303 2022 4600 
L 2384 4600 
L 2384 0 
z
" transform="scale(0.015625)"/>
        <path id="ArialMT-30" d="M 266 2259 
Q 266 3072 433 3567 
Q 600 4063 929 4331 
Q 1259 4600 1759 4600 
Q 2128 4600 2406 4451 
Q 2684 4303 2865 4023 
Q 3047 3744 3150 3342 
Q 3253 2941 3253 2259 
Q 3253 1453 3087 958 
Q 2922 463 2592 192 
Q 2263 -78 1759 -78 
Q 1097 -78 719 397 
Q 266 969 266 2259 
z
M 844 2259 
Q 844 1131 1108 757 
Q 1372 384 1759 384 
Q 2147 384 2411 759 
Q 2675 1134 2675 2259 
Q 2675 3391 2411 3762 
Q 2147 4134 1753 4134 
Q 1366 4134 1134 3806 
Q 844 3388 844 2259 
z
" transform="scale(0.015625)"/>
       </defs>
       <use xlink:href="#ArialMT-31"/>
       <use xlink:href="#ArialMT-30" x="55.615234"/>
      </g>
     </g>
    </g>
    <g id="xtick_3">
     <g id="line2d_5">
      <g>
       <use xlink:href="#m21c7e79b21" x="180.09125" y="146.295" style="stroke: #000000; stroke-width: 0.5"/>
      </g>
     </g>
     <g id="line2d_6">
      <g>
       <use xlink:href="#mc92e56a2d4" x="180.09125" y="3.6" style="stroke: #000000; stroke-width: 0.5"/>
      </g>
     </g>
     <g id="text_3">
      <!-- 15 -->
      <g transform="translate(173.418125 158.384375)scale(0.12 -0.12)">
       <use xlink:href="#ArialMT-31"/>
       <use xlink:href="#ArialMT-35" x="55.615234"/>
      </g>
     </g>
    </g>
    <g id="xtick_4">
     <g id="line2d_7">
      <g>
       <use xlink:href="#m21c7e79b21" x="234.34125" y="146.295" style="stroke: #000000; stroke-width: 0.5"/>
      </g>
     </g>
     <g id="line2d_8">
      <g>
       <use xlink:href="#mc92e56a2d4" x="234.34125" y="3.6" style="stroke: #000000; stroke-width: 0.5"/>
      </g>
     </g>
     <g id="text_4">
      <!-- 20 -->
      <g transform="translate(227.668125 158.384375)scale(0.12 -0.12)">
       <defs>
        <path id="ArialMT-32" d="M 3222 541 
L 3222 0 
L 194 0 
Q 188 203 259 391 
Q 375 700 629 1000 
Q 884 1300 1366 1694 
Q 2113 2306 2375 2664 
Q 2638 3022 2638 3341 
Q 2638 3675 2398 3904 
Q 2159 4134 1775 4134 
Q 1369 4134 1125 3890 
Q 881 3647 878 3216 
L 300 3275 
Q 359 3922 746 4261 
Q 1134 4600 1788 4600 
Q 2447 4600 2831 4234 
Q 3216 3869 3216 3328 
Q 3216 3053 3103 2787 
Q 2991 2522 2730 2228 
Q 2469 1934 1863 1422 
Q 1356 997 1212 845 
Q 1069 694 975 541 
L 3222 541 
z
" transform="scale(0.015625)"/>
       </defs>
       <use xlink:href="#ArialMT-32"/>
       <use xlink:href="#ArialMT-30" x="55.615234"/>
      </g>
     </g>
    </g>
    <g id="xtick_5">
     <g id="line2d_9">
      <defs>
       <path id="m78b34278ed" d="M 0 0 
L 0 -1.5 
" style="stroke: #000000; stroke-width: 0.5"/>
      </defs>
      <g>
       <use xlink:href="#m78b34278ed" x="49.89125" y="146.295" style="stroke: #000000; stroke-width: 0.5"/>
      </g>
     </g>
     <g id="line2d_10">
      <defs>
       <path id="m756d6a68da" d="M 0 0 
L 0 1.5 
" style="stroke: #000000; stroke-width: 0.5"/>
      </defs>
      <g>
       <use xlink:href="#m756d6a68da" x="49.89125" y="3.6" style="stroke: #000000; stroke-width: 0.5"/>
      </g>
     </g>
    </g>
    <g id="xtick_6">
     <g id="line2d_11">
      <g>
       <use xlink:href="#m78b34278ed" x="60.74125" y="146.295" style="stroke: #000000; stroke-width: 0.5"/>
      </g>
     </g>
     <g id="line2d_12">
      <g>
       <use xlink:href="#m756d6a68da" x="60.74125" y="3.6" style="stroke: #000000; stroke-width: 0.5"/>
      </g>
     </g>
    </g>
    <g id="xtick_7">
     <g id="line2d_13">
      <g>
       <use xlink:href="#m78b34278ed" x="82.44125" y="146.295" style="stroke: #000000; stroke-width: 0.5"/>
      </g>
     </g>
     <g id="line2d_14">
      <g>
       <use xlink:href="#m756d6a68da" x="82.44125" y="3.6" style="stroke: #000000; stroke-width: 0.5"/>
      </g>
     </g>
    </g>
    <g id="xtick_8">
     <g id="line2d_15">
      <g>
       <use xlink:href="#m78b34278ed" x="93.29125" y="146.295" style="stroke: #000000; stroke-width: 0.5"/>
      </g>
     </g>
     <g id="line2d_16">
      <g>
       <use xlink:href="#m756d6a68da" x="93.29125" y="3.6" style="stroke: #000000; stroke-width: 0.5"/>
      </g>
     </g>
    </g>
    <g id="xtick_9">
     <g id="line2d_17">
      <g>
       <use xlink:href="#m78b34278ed" x="104.14125" y="146.295" style="stroke: #000000; stroke-width: 0.5"/>
      </g>
     </g>
     <g id="line2d_18">
      <g>
       <use xlink:href="#m756d6a68da" x="104.14125" y="3.6" style="stroke: #000000; stroke-width: 0.5"/>
      </g>
     </g>
    </g>
    <g id="xtick_10">
     <g id="line2d_19">
      <g>
       <use xlink:href="#m78b34278ed" x="114.99125" y="146.295" style="stroke: #000000; stroke-width: 0.5"/>
      </g>
     </g>
     <g id="line2d_20">
      <g>
       <use xlink:href="#m756d6a68da" x="114.99125" y="3.6" style="stroke: #000000; stroke-width: 0.5"/>
      </g>
     </g>
    </g>
    <g id="xtick_11">
     <g id="line2d_21">
      <g>
       <use xlink:href="#m78b34278ed" x="136.69125" y="146.295" style="stroke: #000000; stroke-width: 0.5"/>
      </g>
     </g>
     <g id="line2d_22">
      <g>
       <use xlink:href="#m756d6a68da" x="136.69125" y="3.6" style="stroke: #000000; stroke-width: 0.5"/>
      </g>
     </g>
    </g>
    <g id="xtick_12">
     <g id="line2d_23">
      <g>
       <use xlink:href="#m78b34278ed" x="147.54125" y="146.295" style="stroke: #000000; stroke-width: 0.5"/>
      </g>
     </g>
     <g id="line2d_24">
      <g>
       <use xlink:href="#m756d6a68da" x="147.54125" y="3.6" style="stroke: #000000; stroke-width: 0.5"/>
      </g>
     </g>
    </g>
    <g id="xtick_13">
     <g id="line2d_25">
      <g>
       <use xlink:href="#m78b34278ed" x="158.39125" y="146.295" style="stroke: #000000; stroke-width: 0.5"/>
      </g>
     </g>
     <g id="line2d_26">
      <g>
       <use xlink:href="#m756d6a68da" x="158.39125" y="3.6" style="stroke: #000000; stroke-width: 0.5"/>
      </g>
     </g>
    </g>
    <g id="xtick_14">
     <g id="line2d_27">
      <g>
       <use xlink:href="#m78b34278ed" x="169.24125" y="146.295" style="stroke: #000000; stroke-width: 0.5"/>
      </g>
     </g>
     <g id="line2d_28">
      <g>
       <use xlink:href="#m756d6a68da" x="169.24125" y="3.6" style="stroke: #000000; stroke-width: 0.5"/>
      </g>
     </g>
    </g>
    <g id="xtick_15">
     <g id="line2d_29">
      <g>
       <use xlink:href="#m78b34278ed" x="190.94125" y="146.295" style="stroke: #000000; stroke-width: 0.5"/>
      </g>
     </g>
     <g id="line2d_30">
      <g>
       <use xlink:href="#m756d6a68da" x="190.94125" y="3.6" style="stroke: #000000; stroke-width: 0.5"/>
      </g>
     </g>
    </g>
    <g id="xtick_16">
     <g id="line2d_31">
      <g>
       <use xlink:href="#m78b34278ed" x="201.79125" y="146.295" style="stroke: #000000; stroke-width: 0.5"/>
      </g>
     </g>
     <g id="line2d_32">
      <g>
       <use xlink:href="#m756d6a68da" x="201.79125" y="3.6" style="stroke: #000000; stroke-width: 0.5"/>
      </g>
     </g>
    </g>
    <g id="xtick_17">
     <g id="line2d_33">
      <g>
       <use xlink:href="#m78b34278ed" x="212.64125" y="146.295" style="stroke: #000000; stroke-width: 0.5"/>
      </g>
     </g>
     <g id="line2d_34">
      <g>
       <use xlink:href="#m756d6a68da" x="212.64125" y="3.6" style="stroke: #000000; stroke-width: 0.5"/>
      </g>
     </g>
    </g>
    <g id="xtick_18">
     <g id="line2d_35">
      <g>
       <use xlink:href="#m78b34278ed" x="223.49125" y="146.295" style="stroke: #000000; stroke-width: 0.5"/>
      </g>
     </g>
     <g id="line2d_36">
      <g>
       <use xlink:href="#m756d6a68da" x="223.49125" y="3.6" style="stroke: #000000; stroke-width: 0.5"/>
      </g>
     </g>
    </g>
    <g id="text_5">
     <!-- # Components $K$ -->
     <g transform="translate(92.05125 173.529375)scale(0.12 -0.12)">
      <defs>
       <path id="ArialMT-23" d="M 322 -78 
L 594 1253 
L 66 1253 
L 66 1719 
L 688 1719 
L 919 2853 
L 66 2853 
L 66 3319 
L 1013 3319 
L 1284 4659 
L 1753 4659 
L 1481 3319 
L 2466 3319 
L 2738 4659 
L 3209 4659 
L 2938 3319 
L 3478 3319 
L 3478 2853 
L 2844 2853 
L 2609 1719 
L 3478 1719 
L 3478 1253 
L 2516 1253 
L 2244 -78 
L 1775 -78 
L 2044 1253 
L 1063 1253 
L 791 -78 
L 322 -78 
z
M 1156 1719 
L 2138 1719 
L 2372 2853 
L 1388 2853 
L 1156 1719 
z
" transform="scale(0.015625)"/>
       <path id="ArialMT-20" transform="scale(0.015625)"/>
       <path id="ArialMT-43" d="M 3763 1606 
L 4369 1453 
Q 4178 706 3683 314 
Q 3188 -78 2472 -78 
Q 1731 -78 1267 223 
Q 803 525 561 1097 
Q 319 1669 319 2325 
Q 319 3041 592 3573 
Q 866 4106 1370 4382 
Q 1875 4659 2481 4659 
Q 3169 4659 3637 4309 
Q 4106 3959 4291 3325 
L 3694 3184 
Q 3534 3684 3231 3912 
Q 2928 4141 2469 4141 
Q 1941 4141 1586 3887 
Q 1231 3634 1087 3207 
Q 944 2781 944 2328 
Q 944 1744 1114 1308 
Q 1284 872 1643 656 
Q 2003 441 2422 441 
Q 2931 441 3284 734 
Q 3638 1028 3763 1606 
z
" transform="scale(0.015625)"/>
       <path id="ArialMT-6f" d="M 213 1659 
Q 213 2581 725 3025 
Q 1153 3394 1769 3394 
Q 2453 3394 2887 2945 
Q 3322 2497 3322 1706 
Q 3322 1066 3130 698 
Q 2938 331 2570 128 
Q 2203 -75 1769 -75 
Q 1072 -75 642 372 
Q 213 819 213 1659 
z
M 791 1659 
Q 791 1022 1069 705 
Q 1347 388 1769 388 
Q 2188 388 2466 706 
Q 2744 1025 2744 1678 
Q 2744 2294 2464 2611 
Q 2184 2928 1769 2928 
Q 1347 2928 1069 2612 
Q 791 2297 791 1659 
z
" transform="scale(0.015625)"/>
       <path id="ArialMT-6d" d="M 422 0 
L 422 3319 
L 925 3319 
L 925 2853 
Q 1081 3097 1340 3245 
Q 1600 3394 1931 3394 
Q 2300 3394 2536 3241 
Q 2772 3088 2869 2813 
Q 3263 3394 3894 3394 
Q 4388 3394 4653 3120 
Q 4919 2847 4919 2278 
L 4919 0 
L 4359 0 
L 4359 2091 
Q 4359 2428 4304 2576 
Q 4250 2725 4106 2815 
Q 3963 2906 3769 2906 
Q 3419 2906 3187 2673 
Q 2956 2441 2956 1928 
L 2956 0 
L 2394 0 
L 2394 2156 
Q 2394 2531 2256 2718 
Q 2119 2906 1806 2906 
Q 1569 2906 1367 2781 
Q 1166 2656 1075 2415 
Q 984 2175 984 1722 
L 984 0 
L 422 0 
z
" transform="scale(0.015625)"/>
       <path id="ArialMT-70" d="M 422 -1272 
L 422 3319 
L 934 3319 
L 934 2888 
Q 1116 3141 1344 3267 
Q 1572 3394 1897 3394 
Q 2322 3394 2647 3175 
Q 2972 2956 3137 2557 
Q 3303 2159 3303 1684 
Q 3303 1175 3120 767 
Q 2938 359 2589 142 
Q 2241 -75 1856 -75 
Q 1575 -75 1351 44 
Q 1128 163 984 344 
L 984 -1272 
L 422 -1272 
z
M 931 1641 
Q 931 1000 1190 694 
Q 1450 388 1819 388 
Q 2194 388 2461 705 
Q 2728 1022 2728 1688 
Q 2728 2322 2467 2637 
Q 2206 2953 1844 2953 
Q 1484 2953 1207 2617 
Q 931 2281 931 1641 
z
" transform="scale(0.015625)"/>
       <path id="ArialMT-6e" d="M 422 0 
L 422 3319 
L 928 3319 
L 928 2847 
Q 1294 3394 1984 3394 
Q 2284 3394 2536 3286 
Q 2788 3178 2913 3003 
Q 3038 2828 3088 2588 
Q 3119 2431 3119 2041 
L 3119 0 
L 2556 0 
L 2556 2019 
Q 2556 2363 2490 2533 
Q 2425 2703 2258 2804 
Q 2091 2906 1866 2906 
Q 1506 2906 1245 2678 
Q 984 2450 984 1813 
L 984 0 
L 422 0 
z
" transform="scale(0.015625)"/>
       <path id="ArialMT-65" d="M 2694 1069 
L 3275 997 
Q 3138 488 2766 206 
Q 2394 -75 1816 -75 
Q 1088 -75 661 373 
Q 234 822 234 1631 
Q 234 2469 665 2931 
Q 1097 3394 1784 3394 
Q 2450 3394 2872 2941 
Q 3294 2488 3294 1666 
Q 3294 1616 3291 1516 
L 816 1516 
Q 847 969 1125 678 
Q 1403 388 1819 388 
Q 2128 388 2347 550 
Q 2566 713 2694 1069 
z
M 847 1978 
L 2700 1978 
Q 2663 2397 2488 2606 
Q 2219 2931 1791 2931 
Q 1403 2931 1139 2672 
Q 875 2413 847 1978 
z
" transform="scale(0.015625)"/>
       <path id="ArialMT-74" d="M 1650 503 
L 1731 6 
Q 1494 -44 1306 -44 
Q 1000 -44 831 53 
Q 663 150 594 308 
Q 525 466 525 972 
L 525 2881 
L 113 2881 
L 113 3319 
L 525 3319 
L 525 4141 
L 1084 4478 
L 1084 3319 
L 1650 3319 
L 1650 2881 
L 1084 2881 
L 1084 941 
Q 1084 700 1114 631 
Q 1144 563 1211 522 
Q 1278 481 1403 481 
Q 1497 481 1650 503 
z
" transform="scale(0.015625)"/>
       <path id="ArialMT-73" d="M 197 991 
L 753 1078 
Q 800 744 1014 566 
Q 1228 388 1613 388 
Q 2000 388 2187 545 
Q 2375 703 2375 916 
Q 2375 1106 2209 1216 
Q 2094 1291 1634 1406 
Q 1016 1563 777 1677 
Q 538 1791 414 1992 
Q 291 2194 291 2438 
Q 291 2659 392 2848 
Q 494 3038 669 3163 
Q 800 3259 1026 3326 
Q 1253 3394 1513 3394 
Q 1903 3394 2198 3281 
Q 2494 3169 2634 2976 
Q 2775 2784 2828 2463 
L 2278 2388 
Q 2241 2644 2061 2787 
Q 1881 2931 1553 2931 
Q 1166 2931 1000 2803 
Q 834 2675 834 2503 
Q 834 2394 903 2306 
Q 972 2216 1119 2156 
Q 1203 2125 1616 2013 
Q 2213 1853 2448 1751 
Q 2684 1650 2818 1456 
Q 2953 1263 2953 975 
Q 2953 694 2789 445 
Q 2625 197 2315 61 
Q 2006 -75 1616 -75 
Q 969 -75 630 194 
Q 291 463 197 991 
z
" transform="scale(0.015625)"/>
       <path id="DejaVuSans-Oblique-4b" d="M 1081 4666 
L 1716 4666 
L 1331 2700 
L 3781 4666 
L 4622 4666 
L 1850 2438 
L 3878 0 
L 3109 0 
L 1247 2272 
L 806 0 
L 172 0 
L 1081 4666 
z
" transform="scale(0.015625)"/>
      </defs>
      <use xlink:href="#ArialMT-23" transform="translate(0 0.09375)"/>
      <use xlink:href="#ArialMT-20" transform="translate(55.615234 0.09375)"/>
      <use xlink:href="#ArialMT-43" transform="translate(83.398438 0.09375)"/>
      <use xlink:href="#ArialMT-6f" transform="translate(155.615234 0.09375)"/>
      <use xlink:href="#ArialMT-6d" transform="translate(211.230469 0.09375)"/>
      <use xlink:href="#ArialMT-70" transform="translate(294.53125 0.09375)"/>
      <use xlink:href="#ArialMT-6f" transform="translate(350.146484 0.09375)"/>
      <use xlink:href="#ArialMT-6e" transform="translate(405.761719 0.09375)"/>
      <use xlink:href="#ArialMT-65" transform="translate(461.376953 0.09375)"/>
      <use xlink:href="#ArialMT-6e" transform="translate(516.992188 0.09375)"/>
      <use xlink:href="#ArialMT-74" transform="translate(572.607422 0.09375)"/>
      <use xlink:href="#ArialMT-73" transform="translate(600.390625 0.09375)"/>
      <use xlink:href="#ArialMT-20" transform="translate(650.390625 0.09375)"/>
      <use xlink:href="#DejaVuSans-Oblique-4b" transform="translate(678.173828 0.09375)"/>
     </g>
    </g>
   </g>
   <g id="matplotlib.axis_2">
    <g id="ytick_1">
     <g id="line2d_37">
      <defs>
       <path id="m94d101267c" d="M 0 0 
L 3 0 
" style="stroke: #000000; stroke-width: 0.5"/>
      </defs>
      <g>
       <use xlink:href="#m94d101267c" x="39.04125" y="105.072827" style="stroke: #000000; stroke-width: 0.5"/>
      </g>
     </g>
     <g id="line2d_38">
      <defs>
       <path id="m0780442fec" d="M 0 0 
L -3 0 
" style="stroke: #000000; stroke-width: 0.5"/>
      </defs>
      <g>
       <use xlink:href="#m0780442fec" x="234.34125" y="105.072827" style="stroke: #000000; stroke-width: 0.5"/>
      </g>
     </g>
     <g id="text_6">
      <!-- 0.4 -->
      <g transform="translate(18.86125 109.367515)scale(0.12 -0.12)">
       <defs>
        <path id="ArialMT-2e" d="M 581 0 
L 581 641 
L 1222 641 
L 1222 0 
L 581 0 
z
" transform="scale(0.015625)"/>
        <path id="ArialMT-34" d="M 2069 0 
L 2069 1097 
L 81 1097 
L 81 1613 
L 2172 4581 
L 2631 4581 
L 2631 1613 
L 3250 1613 
L 3250 1097 
L 2631 1097 
L 2631 0 
L 2069 0 
z
M 2069 1613 
L 2069 3678 
L 634 1613 
L 2069 1613 
z
" transform="scale(0.015625)"/>
       </defs>
       <use xlink:href="#ArialMT-30"/>
       <use xlink:href="#ArialMT-2e" x="55.615234"/>
       <use xlink:href="#ArialMT-34" x="83.398438"/>
      </g>
     </g>
    </g>
    <g id="ytick_2">
     <g id="line2d_39">
      <g>
       <use xlink:href="#m94d101267c" x="39.04125" y="59.897515" style="stroke: #000000; stroke-width: 0.5"/>
      </g>
     </g>
     <g id="line2d_40">
      <g>
       <use xlink:href="#m0780442fec" x="234.34125" y="59.897515" style="stroke: #000000; stroke-width: 0.5"/>
      </g>
     </g>
     <g id="text_7">
      <!-- 0.5 -->
      <g transform="translate(18.86125 64.192203)scale(0.12 -0.12)">
       <use xlink:href="#ArialMT-30"/>
       <use xlink:href="#ArialMT-2e" x="55.615234"/>
       <use xlink:href="#ArialMT-35" x="83.398438"/>
      </g>
     </g>
    </g>
    <g id="ytick_3">
     <g id="line2d_41">
      <g>
       <use xlink:href="#m94d101267c" x="39.04125" y="14.722203" style="stroke: #000000; stroke-width: 0.5"/>
      </g>
     </g>
     <g id="line2d_42">
      <g>
       <use xlink:href="#m0780442fec" x="234.34125" y="14.722203" style="stroke: #000000; stroke-width: 0.5"/>
      </g>
     </g>
     <g id="text_8">
      <!-- 0.6 -->
      <g transform="translate(18.86125 19.01689)scale(0.12 -0.12)">
       <defs>
        <path id="ArialMT-36" d="M 3184 3459 
L 2625 3416 
Q 2550 3747 2413 3897 
Q 2184 4138 1850 4138 
Q 1581 4138 1378 3988 
Q 1113 3794 959 3422 
Q 806 3050 800 2363 
Q 1003 2672 1297 2822 
Q 1591 2972 1913 2972 
Q 2475 2972 2870 2558 
Q 3266 2144 3266 1488 
Q 3266 1056 3080 686 
Q 2894 316 2569 119 
Q 2244 -78 1831 -78 
Q 1128 -78 684 439 
Q 241 956 241 2144 
Q 241 3472 731 4075 
Q 1159 4600 1884 4600 
Q 2425 4600 2770 4297 
Q 3116 3994 3184 3459 
z
M 888 1484 
Q 888 1194 1011 928 
Q 1134 663 1356 523 
Q 1578 384 1822 384 
Q 2178 384 2434 671 
Q 2691 959 2691 1453 
Q 2691 1928 2437 2201 
Q 2184 2475 1800 2475 
Q 1419 2475 1153 2201 
Q 888 1928 888 1484 
z
" transform="scale(0.015625)"/>
       </defs>
       <use xlink:href="#ArialMT-30"/>
       <use xlink:href="#ArialMT-2e" x="55.615234"/>
       <use xlink:href="#ArialMT-36" x="83.398438"/>
      </g>
     </g>
    </g>
    <g id="ytick_4">
     <g id="line2d_43">
      <defs>
       <path id="m9bea3c60dd" d="M 0 0 
L 1.5 0 
" style="stroke: #000000; stroke-width: 0.5"/>
      </defs>
      <g>
       <use xlink:href="#m9bea3c60dd" x="39.04125" y="141.213077" style="stroke: #000000; stroke-width: 0.5"/>
      </g>
     </g>
     <g id="line2d_44">
      <defs>
       <path id="m7cd26aac43" d="M 0 0 
L -1.5 0 
" style="stroke: #000000; stroke-width: 0.5"/>
      </defs>
      <g>
       <use xlink:href="#m7cd26aac43" x="234.34125" y="141.213077" style="stroke: #000000; stroke-width: 0.5"/>
      </g>
     </g>
    </g>
    <g id="ytick_5">
     <g id="line2d_45">
      <g>
       <use xlink:href="#m9bea3c60dd" x="39.04125" y="132.178015" style="stroke: #000000; stroke-width: 0.5"/>
      </g>
     </g>
     <g id="line2d_46">
      <g>
       <use xlink:href="#m7cd26aac43" x="234.34125" y="132.178015" style="stroke: #000000; stroke-width: 0.5"/>
      </g>
     </g>
    </g>
    <g id="ytick_6">
     <g id="line2d_47">
      <g>
       <use xlink:href="#m9bea3c60dd" x="39.04125" y="123.142952" style="stroke: #000000; stroke-width: 0.5"/>
      </g>
     </g>
     <g id="line2d_48">
      <g>
       <use xlink:href="#m7cd26aac43" x="234.34125" y="123.142952" style="stroke: #000000; stroke-width: 0.5"/>
      </g>
     </g>
    </g>
    <g id="ytick_7">
     <g id="line2d_49">
      <g>
       <use xlink:href="#m9bea3c60dd" x="39.04125" y="114.10789" style="stroke: #000000; stroke-width: 0.5"/>
      </g>
     </g>
     <g id="line2d_50">
      <g>
       <use xlink:href="#m7cd26aac43" x="234.34125" y="114.10789" style="stroke: #000000; stroke-width: 0.5"/>
      </g>
     </g>
    </g>
    <g id="ytick_8">
     <g id="line2d_51">
      <g>
       <use xlink:href="#m9bea3c60dd" x="39.04125" y="96.037765" style="stroke: #000000; stroke-width: 0.5"/>
      </g>
     </g>
     <g id="line2d_52">
      <g>
       <use xlink:href="#m7cd26aac43" x="234.34125" y="96.037765" style="stroke: #000000; stroke-width: 0.5"/>
      </g>
     </g>
    </g>
    <g id="ytick_9">
     <g id="line2d_53">
      <g>
       <use xlink:href="#m9bea3c60dd" x="39.04125" y="87.002703" style="stroke: #000000; stroke-width: 0.5"/>
      </g>
     </g>
     <g id="line2d_54">
      <g>
       <use xlink:href="#m7cd26aac43" x="234.34125" y="87.002703" style="stroke: #000000; stroke-width: 0.5"/>
      </g>
     </g>
    </g>
    <g id="ytick_10">
     <g id="line2d_55">
      <g>
       <use xlink:href="#m9bea3c60dd" x="39.04125" y="77.96764" style="stroke: #000000; stroke-width: 0.5"/>
      </g>
     </g>
     <g id="line2d_56">
      <g>
       <use xlink:href="#m7cd26aac43" x="234.34125" y="77.96764" style="stroke: #000000; stroke-width: 0.5"/>
      </g>
     </g>
    </g>
    <g id="ytick_11">
     <g id="line2d_57">
      <g>
       <use xlink:href="#m9bea3c60dd" x="39.04125" y="68.932578" style="stroke: #000000; stroke-width: 0.5"/>
      </g>
     </g>
     <g id="line2d_58">
      <g>
       <use xlink:href="#m7cd26aac43" x="234.34125" y="68.932578" style="stroke: #000000; stroke-width: 0.5"/>
      </g>
     </g>
    </g>
    <g id="ytick_12">
     <g id="line2d_59">
      <g>
       <use xlink:href="#m9bea3c60dd" x="39.04125" y="50.862453" style="stroke: #000000; stroke-width: 0.5"/>
      </g>
     </g>
     <g id="line2d_60">
      <g>
       <use xlink:href="#m7cd26aac43" x="234.34125" y="50.862453" style="stroke: #000000; stroke-width: 0.5"/>
      </g>
     </g>
    </g>
    <g id="ytick_13">
     <g id="line2d_61">
      <g>
       <use xlink:href="#m9bea3c60dd" x="39.04125" y="41.82739" style="stroke: #000000; stroke-width: 0.5"/>
      </g>
     </g>
     <g id="line2d_62">
      <g>
       <use xlink:href="#m7cd26aac43" x="234.34125" y="41.82739" style="stroke: #000000; stroke-width: 0.5"/>
      </g>
     </g>
    </g>
    <g id="ytick_14">
     <g id="line2d_63">
      <g>
       <use xlink:href="#m9bea3c60dd" x="39.04125" y="32.792328" style="stroke: #000000; stroke-width: 0.5"/>
      </g>
     </g>
     <g id="line2d_64">
      <g>
       <use xlink:href="#m7cd26aac43" x="234.34125" y="32.792328" style="stroke: #000000; stroke-width: 0.5"/>
      </g>
     </g>
    </g>
    <g id="ytick_15">
     <g id="line2d_65">
      <g>
       <use xlink:href="#m9bea3c60dd" x="39.04125" y="23.757265" style="stroke: #000000; stroke-width: 0.5"/>
      </g>
     </g>
     <g id="line2d_66">
      <g>
       <use xlink:href="#m7cd26aac43" x="234.34125" y="23.757265" style="stroke: #000000; stroke-width: 0.5"/>
      </g>
     </g>
    </g>
    <g id="ytick_16">
     <g id="line2d_67">
      <g>
       <use xlink:href="#m9bea3c60dd" x="39.04125" y="5.68714" style="stroke: #000000; stroke-width: 0.5"/>
      </g>
     </g>
     <g id="line2d_68">
      <g>
       <use xlink:href="#m7cd26aac43" x="234.34125" y="5.68714" style="stroke: #000000; stroke-width: 0.5"/>
      </g>
     </g>
    </g>
    <g id="text_9">
     <!-- Chebyshev distance -->
     <g transform="translate(12.335625 128.976562)rotate(-90)scale(0.12 -0.12)">
      <defs>
       <path id="ArialMT-68" d="M 422 0 
L 422 4581 
L 984 4581 
L 984 2938 
Q 1378 3394 1978 3394 
Q 2347 3394 2619 3248 
Q 2891 3103 3008 2847 
Q 3125 2591 3125 2103 
L 3125 0 
L 2563 0 
L 2563 2103 
Q 2563 2525 2380 2717 
Q 2197 2909 1863 2909 
Q 1613 2909 1392 2779 
Q 1172 2650 1078 2428 
Q 984 2206 984 1816 
L 984 0 
L 422 0 
z
" transform="scale(0.015625)"/>
       <path id="ArialMT-62" d="M 941 0 
L 419 0 
L 419 4581 
L 981 4581 
L 981 2947 
Q 1338 3394 1891 3394 
Q 2197 3394 2470 3270 
Q 2744 3147 2920 2923 
Q 3097 2700 3197 2384 
Q 3297 2069 3297 1709 
Q 3297 856 2875 390 
Q 2453 -75 1863 -75 
Q 1275 -75 941 416 
L 941 0 
z
M 934 1684 
Q 934 1088 1097 822 
Q 1363 388 1816 388 
Q 2184 388 2453 708 
Q 2722 1028 2722 1663 
Q 2722 2313 2464 2622 
Q 2206 2931 1841 2931 
Q 1472 2931 1203 2611 
Q 934 2291 934 1684 
z
" transform="scale(0.015625)"/>
       <path id="ArialMT-79" d="M 397 -1278 
L 334 -750 
Q 519 -800 656 -800 
Q 844 -800 956 -737 
Q 1069 -675 1141 -563 
Q 1194 -478 1313 -144 
Q 1328 -97 1363 -6 
L 103 3319 
L 709 3319 
L 1400 1397 
Q 1534 1031 1641 628 
Q 1738 1016 1872 1384 
L 2581 3319 
L 3144 3319 
L 1881 -56 
Q 1678 -603 1566 -809 
Q 1416 -1088 1222 -1217 
Q 1028 -1347 759 -1347 
Q 597 -1347 397 -1278 
z
" transform="scale(0.015625)"/>
       <path id="ArialMT-76" d="M 1344 0 
L 81 3319 
L 675 3319 
L 1388 1331 
Q 1503 1009 1600 663 
Q 1675 925 1809 1294 
L 2547 3319 
L 3125 3319 
L 1869 0 
L 1344 0 
z
" transform="scale(0.015625)"/>
       <path id="ArialMT-64" d="M 2575 0 
L 2575 419 
Q 2259 -75 1647 -75 
Q 1250 -75 917 144 
Q 584 363 401 755 
Q 219 1147 219 1656 
Q 219 2153 384 2558 
Q 550 2963 881 3178 
Q 1213 3394 1622 3394 
Q 1922 3394 2156 3267 
Q 2391 3141 2538 2938 
L 2538 4581 
L 3097 4581 
L 3097 0 
L 2575 0 
z
M 797 1656 
Q 797 1019 1065 703 
Q 1334 388 1700 388 
Q 2069 388 2326 689 
Q 2584 991 2584 1609 
Q 2584 2291 2321 2609 
Q 2059 2928 1675 2928 
Q 1300 2928 1048 2622 
Q 797 2316 797 1656 
z
" transform="scale(0.015625)"/>
       <path id="ArialMT-69" d="M 425 3934 
L 425 4581 
L 988 4581 
L 988 3934 
L 425 3934 
z
M 425 0 
L 425 3319 
L 988 3319 
L 988 0 
L 425 0 
z
" transform="scale(0.015625)"/>
       <path id="ArialMT-61" d="M 2588 409 
Q 2275 144 1986 34 
Q 1697 -75 1366 -75 
Q 819 -75 525 192 
Q 231 459 231 875 
Q 231 1119 342 1320 
Q 453 1522 633 1644 
Q 813 1766 1038 1828 
Q 1203 1872 1538 1913 
Q 2219 1994 2541 2106 
Q 2544 2222 2544 2253 
Q 2544 2597 2384 2738 
Q 2169 2928 1744 2928 
Q 1347 2928 1158 2789 
Q 969 2650 878 2297 
L 328 2372 
Q 403 2725 575 2942 
Q 747 3159 1072 3276 
Q 1397 3394 1825 3394 
Q 2250 3394 2515 3294 
Q 2781 3194 2906 3042 
Q 3031 2891 3081 2659 
Q 3109 2516 3109 2141 
L 3109 1391 
Q 3109 606 3145 398 
Q 3181 191 3288 0 
L 2700 0 
Q 2613 175 2588 409 
z
M 2541 1666 
Q 2234 1541 1622 1453 
Q 1275 1403 1131 1340 
Q 988 1278 909 1158 
Q 831 1038 831 891 
Q 831 666 1001 516 
Q 1172 366 1500 366 
Q 1825 366 2078 508 
Q 2331 650 2450 897 
Q 2541 1088 2541 1459 
L 2541 1666 
z
" transform="scale(0.015625)"/>
       <path id="ArialMT-63" d="M 2588 1216 
L 3141 1144 
Q 3050 572 2676 248 
Q 2303 -75 1759 -75 
Q 1078 -75 664 370 
Q 250 816 250 1647 
Q 250 2184 428 2587 
Q 606 2991 970 3192 
Q 1334 3394 1763 3394 
Q 2303 3394 2647 3120 
Q 2991 2847 3088 2344 
L 2541 2259 
Q 2463 2594 2264 2762 
Q 2066 2931 1784 2931 
Q 1359 2931 1093 2626 
Q 828 2322 828 1663 
Q 828 994 1084 691 
Q 1341 388 1753 388 
Q 2084 388 2306 591 
Q 2528 794 2588 1216 
z
" transform="scale(0.015625)"/>
      </defs>
      <use xlink:href="#ArialMT-43"/>
      <use xlink:href="#ArialMT-68" x="72.216797"/>
      <use xlink:href="#ArialMT-65" x="127.832031"/>
      <use xlink:href="#ArialMT-62" x="183.447266"/>
      <use xlink:href="#ArialMT-79" x="239.0625"/>
      <use xlink:href="#ArialMT-73" x="289.0625"/>
      <use xlink:href="#ArialMT-68" x="339.0625"/>
      <use xlink:href="#ArialMT-65" x="394.677734"/>
      <use xlink:href="#ArialMT-76" x="450.292969"/>
      <use xlink:href="#ArialMT-20" x="500.292969"/>
      <use xlink:href="#ArialMT-64" x="528.076172"/>
      <use xlink:href="#ArialMT-69" x="583.691406"/>
      <use xlink:href="#ArialMT-73" x="605.908203"/>
      <use xlink:href="#ArialMT-74" x="655.908203"/>
      <use xlink:href="#ArialMT-61" x="683.691406"/>
      <use xlink:href="#ArialMT-6e" x="739.306641"/>
      <use xlink:href="#ArialMT-63" x="794.921875"/>
      <use xlink:href="#ArialMT-65" x="844.921875"/>
     </g>
    </g>
   </g>
   <g id="line2d_69">
    <path d="M 39.04125 107.538791 
L 49.89125 66.680142 
L 60.74125 44.693774 
L 71.59125 38.191796 
L 82.44125 36.182823 
L 93.29125 36.326096 
L 104.14125 36.154104 
L 114.99125 34.499309 
L 125.84125 33.668491 
L 136.69125 40.574952 
L 147.54125 39.393318 
L 158.39125 38.223969 
L 169.24125 41.791284 
L 180.09125 43.397564 
L 190.94125 44.674957 
L 201.79125 49.995054 
L 212.64125 51.415403 
L 223.49125 51.096618 
L 234.34125 51.816785 
" clip-path="url(#p6736a0ce07)" style="fill: none; stroke: #0c5da5; stroke-width: 1.2; stroke-linecap: square"/>
    <defs>
     <path id="mbc894b2bec" d="M -2 2 
L 2 2 
L 2 -2 
L -2 -2 
z
" style="stroke: #0c5da5; stroke-width: 1.5; stroke-linejoin: miter"/>
    </defs>
    <g clip-path="url(#p6736a0ce07)">
     <use xlink:href="#mbc894b2bec" x="39.04125" y="107.538791" style="fill-opacity: 0; stroke: #0c5da5; stroke-width: 1.5; stroke-linejoin: miter"/>
     <use xlink:href="#mbc894b2bec" x="49.89125" y="66.680142" style="fill-opacity: 0; stroke: #0c5da5; stroke-width: 1.5; stroke-linejoin: miter"/>
     <use xlink:href="#mbc894b2bec" x="60.74125" y="44.693774" style="fill-opacity: 0; stroke: #0c5da5; stroke-width: 1.5; stroke-linejoin: miter"/>
     <use xlink:href="#mbc894b2bec" x="71.59125" y="38.191796" style="fill-opacity: 0; stroke: #0c5da5; stroke-width: 1.5; stroke-linejoin: miter"/>
     <use xlink:href="#mbc894b2bec" x="82.44125" y="36.182823" style="fill-opacity: 0; stroke: #0c5da5; stroke-width: 1.5; stroke-linejoin: miter"/>
     <use xlink:href="#mbc894b2bec" x="93.29125" y="36.326096" style="fill-opacity: 0; stroke: #0c5da5; stroke-width: 1.5; stroke-linejoin: miter"/>
     <use xlink:href="#mbc894b2bec" x="104.14125" y="36.154104" style="fill-opacity: 0; stroke: #0c5da5; stroke-width: 1.5; stroke-linejoin: miter"/>
     <use xlink:href="#mbc894b2bec" x="114.99125" y="34.499309" style="fill-opacity: 0; stroke: #0c5da5; stroke-width: 1.5; stroke-linejoin: miter"/>
     <use xlink:href="#mbc894b2bec" x="125.84125" y="33.668491" style="fill-opacity: 0; stroke: #0c5da5; stroke-width: 1.5; stroke-linejoin: miter"/>
     <use xlink:href="#mbc894b2bec" x="136.69125" y="40.574952" style="fill-opacity: 0; stroke: #0c5da5; stroke-width: 1.5; stroke-linejoin: miter"/>
     <use xlink:href="#mbc894b2bec" x="147.54125" y="39.393318" style="fill-opacity: 0; stroke: #0c5da5; stroke-width: 1.5; stroke-linejoin: miter"/>
     <use xlink:href="#mbc894b2bec" x="158.39125" y="38.223969" style="fill-opacity: 0; stroke: #0c5da5; stroke-width: 1.5; stroke-linejoin: miter"/>
     <use xlink:href="#mbc894b2bec" x="169.24125" y="41.791284" style="fill-opacity: 0; stroke: #0c5da5; stroke-width: 1.5; stroke-linejoin: miter"/>
     <use xlink:href="#mbc894b2bec" x="180.09125" y="43.397564" style="fill-opacity: 0; stroke: #0c5da5; stroke-width: 1.5; stroke-linejoin: miter"/>
     <use xlink:href="#mbc894b2bec" x="190.94125" y="44.674957" style="fill-opacity: 0; stroke: #0c5da5; stroke-width: 1.5; stroke-linejoin: miter"/>
     <use xlink:href="#mbc894b2bec" x="201.79125" y="49.995054" style="fill-opacity: 0; stroke: #0c5da5; stroke-width: 1.5; stroke-linejoin: miter"/>
     <use xlink:href="#mbc894b2bec" x="212.64125" y="51.415403" style="fill-opacity: 0; stroke: #0c5da5; stroke-width: 1.5; stroke-linejoin: miter"/>
     <use xlink:href="#mbc894b2bec" x="223.49125" y="51.096618" style="fill-opacity: 0; stroke: #0c5da5; stroke-width: 1.5; stroke-linejoin: miter"/>
     <use xlink:href="#mbc894b2bec" x="234.34125" y="51.816785" style="fill-opacity: 0; stroke: #0c5da5; stroke-width: 1.5; stroke-linejoin: miter"/>
    </g>
   </g>
   <g id="line2d_70">
    <path d="M 39.04125 130.222235 
L 49.89125 74.381719 
L 60.74125 61.567145 
L 71.59125 39.909939 
L 82.44125 35.162162 
L 93.29125 30.329003 
L 104.14125 25.444775 
L 114.99125 30.898698 
L 125.84125 30.034798 
L 136.69125 31.235667 
L 147.54125 33.243032 
L 158.39125 35.798168 
L 169.24125 35.307933 
L 180.09125 37.442552 
L 190.94125 37.164919 
L 201.79125 40.195016 
L 212.64125 42.126841 
L 223.49125 42.776916 
L 234.34125 44.764034 
" clip-path="url(#p6736a0ce07)" style="fill: none; stroke-dasharray: 1.2,1.98; stroke-dashoffset: 0; stroke: #ff9500; stroke-width: 1.2"/>
    <defs>
     <path id="m2e6c64cfe1" d="M 0 2 
C 0.530406 2 1.03916 1.789267 1.414214 1.414214 
C 1.789267 1.03916 2 0.530406 2 0 
C 2 -0.530406 1.789267 -1.03916 1.414214 -1.414214 
C 1.03916 -1.789267 0.530406 -2 0 -2 
C -0.530406 -2 -1.03916 -1.789267 -1.414214 -1.414214 
C -1.789267 -1.03916 -2 -0.530406 -2 0 
C -2 0.530406 -1.789267 1.03916 -1.414214 1.414214 
C -1.03916 1.789267 -0.530406 2 0 2 
z
" style="stroke: #ff9500; stroke-width: 1.5"/>
    </defs>
    <g clip-path="url(#p6736a0ce07)">
     <use xlink:href="#m2e6c64cfe1" x="39.04125" y="130.222235" style="fill-opacity: 0; stroke: #ff9500; stroke-width: 1.5"/>
     <use xlink:href="#m2e6c64cfe1" x="49.89125" y="74.381719" style="fill-opacity: 0; stroke: #ff9500; stroke-width: 1.5"/>
     <use xlink:href="#m2e6c64cfe1" x="60.74125" y="61.567145" style="fill-opacity: 0; stroke: #ff9500; stroke-width: 1.5"/>
     <use xlink:href="#m2e6c64cfe1" x="71.59125" y="39.909939" style="fill-opacity: 0; stroke: #ff9500; stroke-width: 1.5"/>
     <use xlink:href="#m2e6c64cfe1" x="82.44125" y="35.162162" style="fill-opacity: 0; stroke: #ff9500; stroke-width: 1.5"/>
     <use xlink:href="#m2e6c64cfe1" x="93.29125" y="30.329003" style="fill-opacity: 0; stroke: #ff9500; stroke-width: 1.5"/>
     <use xlink:href="#m2e6c64cfe1" x="104.14125" y="25.444775" style="fill-opacity: 0; stroke: #ff9500; stroke-width: 1.5"/>
     <use xlink:href="#m2e6c64cfe1" x="114.99125" y="30.898698" style="fill-opacity: 0; stroke: #ff9500; stroke-width: 1.5"/>
     <use xlink:href="#m2e6c64cfe1" x="125.84125" y="30.034798" style="fill-opacity: 0; stroke: #ff9500; stroke-width: 1.5"/>
     <use xlink:href="#m2e6c64cfe1" x="136.69125" y="31.235667" style="fill-opacity: 0; stroke: #ff9500; stroke-width: 1.5"/>
     <use xlink:href="#m2e6c64cfe1" x="147.54125" y="33.243032" style="fill-opacity: 0; stroke: #ff9500; stroke-width: 1.5"/>
     <use xlink:href="#m2e6c64cfe1" x="158.39125" y="35.798168" style="fill-opacity: 0; stroke: #ff9500; stroke-width: 1.5"/>
     <use xlink:href="#m2e6c64cfe1" x="169.24125" y="35.307933" style="fill-opacity: 0; stroke: #ff9500; stroke-width: 1.5"/>
     <use xlink:href="#m2e6c64cfe1" x="180.09125" y="37.442552" style="fill-opacity: 0; stroke: #ff9500; stroke-width: 1.5"/>
     <use xlink:href="#m2e6c64cfe1" x="190.94125" y="37.164919" style="fill-opacity: 0; stroke: #ff9500; stroke-width: 1.5"/>
     <use xlink:href="#m2e6c64cfe1" x="201.79125" y="40.195016" style="fill-opacity: 0; stroke: #ff9500; stroke-width: 1.5"/>
     <use xlink:href="#m2e6c64cfe1" x="212.64125" y="42.126841" style="fill-opacity: 0; stroke: #ff9500; stroke-width: 1.5"/>
     <use xlink:href="#m2e6c64cfe1" x="223.49125" y="42.776916" style="fill-opacity: 0; stroke: #ff9500; stroke-width: 1.5"/>
     <use xlink:href="#m2e6c64cfe1" x="234.34125" y="44.764034" style="fill-opacity: 0; stroke: #ff9500; stroke-width: 1.5"/>
    </g>
   </g>
   <g id="line2d_71">
    <path d="M 39.04125 133.713966 
L 49.89125 72.310802 
L 60.74125 46.255906 
L 71.59125 32.796568 
L 82.44125 20.182429 
L 93.29125 19.151645 
L 104.14125 14.394718 
L 114.99125 18.952054 
L 125.84125 18.406447 
L 136.69125 18.899581 
L 147.54125 20.370905 
L 158.39125 21.620582 
L 169.24125 24.887644 
L 180.09125 24.624345 
L 190.94125 27.910543 
L 201.79125 30.613308 
L 212.64125 32.321042 
L 223.49125 32.036794 
L 234.34125 33.103187 
" clip-path="url(#p6736a0ce07)" style="fill: none; stroke-dasharray: 4.44,1.92; stroke-dashoffset: 0; stroke: #00b945; stroke-width: 1.2"/>
    <defs>
     <path id="me2c58fe25a" d="M 0 -2 
L -2 2 
L 2 2 
z
" style="stroke: #00b945; stroke-width: 1.5; stroke-linejoin: miter"/>
    </defs>
    <g clip-path="url(#p6736a0ce07)">
     <use xlink:href="#me2c58fe25a" x="39.04125" y="133.713966" style="fill-opacity: 0; stroke: #00b945; stroke-width: 1.5; stroke-linejoin: miter"/>
     <use xlink:href="#me2c58fe25a" x="49.89125" y="72.310802" style="fill-opacity: 0; stroke: #00b945; stroke-width: 1.5; stroke-linejoin: miter"/>
     <use xlink:href="#me2c58fe25a" x="60.74125" y="46.255906" style="fill-opacity: 0; stroke: #00b945; stroke-width: 1.5; stroke-linejoin: miter"/>
     <use xlink:href="#me2c58fe25a" x="71.59125" y="32.796568" style="fill-opacity: 0; stroke: #00b945; stroke-width: 1.5; stroke-linejoin: miter"/>
     <use xlink:href="#me2c58fe25a" x="82.44125" y="20.182429" style="fill-opacity: 0; stroke: #00b945; stroke-width: 1.5; stroke-linejoin: miter"/>
     <use xlink:href="#me2c58fe25a" x="93.29125" y="19.151645" style="fill-opacity: 0; stroke: #00b945; stroke-width: 1.5; stroke-linejoin: miter"/>
     <use xlink:href="#me2c58fe25a" x="104.14125" y="14.394718" style="fill-opacity: 0; stroke: #00b945; stroke-width: 1.5; stroke-linejoin: miter"/>
     <use xlink:href="#me2c58fe25a" x="114.99125" y="18.952054" style="fill-opacity: 0; stroke: #00b945; stroke-width: 1.5; stroke-linejoin: miter"/>
     <use xlink:href="#me2c58fe25a" x="125.84125" y="18.406447" style="fill-opacity: 0; stroke: #00b945; stroke-width: 1.5; stroke-linejoin: miter"/>
     <use xlink:href="#me2c58fe25a" x="136.69125" y="18.899581" style="fill-opacity: 0; stroke: #00b945; stroke-width: 1.5; stroke-linejoin: miter"/>
     <use xlink:href="#me2c58fe25a" x="147.54125" y="20.370905" style="fill-opacity: 0; stroke: #00b945; stroke-width: 1.5; stroke-linejoin: miter"/>
     <use xlink:href="#me2c58fe25a" x="158.39125" y="21.620582" style="fill-opacity: 0; stroke: #00b945; stroke-width: 1.5; stroke-linejoin: miter"/>
     <use xlink:href="#me2c58fe25a" x="169.24125" y="24.887644" style="fill-opacity: 0; stroke: #00b945; stroke-width: 1.5; stroke-linejoin: miter"/>
     <use xlink:href="#me2c58fe25a" x="180.09125" y="24.624345" style="fill-opacity: 0; stroke: #00b945; stroke-width: 1.5; stroke-linejoin: miter"/>
     <use xlink:href="#me2c58fe25a" x="190.94125" y="27.910543" style="fill-opacity: 0; stroke: #00b945; stroke-width: 1.5; stroke-linejoin: miter"/>
     <use xlink:href="#me2c58fe25a" x="201.79125" y="30.613308" style="fill-opacity: 0; stroke: #00b945; stroke-width: 1.5; stroke-linejoin: miter"/>
     <use xlink:href="#me2c58fe25a" x="212.64125" y="32.321042" style="fill-opacity: 0; stroke: #00b945; stroke-width: 1.5; stroke-linejoin: miter"/>
     <use xlink:href="#me2c58fe25a" x="223.49125" y="32.036794" style="fill-opacity: 0; stroke: #00b945; stroke-width: 1.5; stroke-linejoin: miter"/>
     <use xlink:href="#me2c58fe25a" x="234.34125" y="33.103187" style="fill-opacity: 0; stroke: #00b945; stroke-width: 1.5; stroke-linejoin: miter"/>
    </g>
   </g>
   <g id="patch_3">
    <path d="M 39.04125 146.295 
L 39.04125 3.6 
" style="fill: none; stroke: #000000; stroke-width: 0.5; stroke-linejoin: miter; stroke-linecap: square"/>
   </g>
   <g id="patch_4">
    <path d="M 234.34125 146.295 
L 234.34125 3.6 
" style="fill: none; stroke: #000000; stroke-width: 0.5; stroke-linejoin: miter; stroke-linecap: square"/>
   </g>
   <g id="patch_5">
    <path d="M 39.04125 146.295 
L 234.34125 146.295 
" style="fill: none; stroke: #000000; stroke-width: 0.5; stroke-linejoin: miter; stroke-linecap: square"/>
   </g>
   <g id="patch_6">
    <path d="M 39.04125 3.6 
L 234.34125 3.6 
" style="fill: none; stroke: #000000; stroke-width: 0.5; stroke-linejoin: miter; stroke-linecap: square"/>
   </g>
   <g id="legend_1">
    <g id="line2d_72">
     <path d="M 175.26375 94.96125 
L 187.26375 94.96125 
L 199.26375 94.96125 
" style="fill: none; stroke: #0c5da5; stroke-width: 1.2; stroke-linecap: square"/>
     <g>
      <use xlink:href="#mbc894b2bec" x="187.26375" y="94.96125" style="fill-opacity: 0; stroke: #0c5da5; stroke-width: 1.5; stroke-linejoin: miter"/>
     </g>
    </g>
    <g id="text_10">
     <!-- Eu -->
     <g transform="translate(208.86375 99.16125)scale(0.12 -0.12)">
      <defs>
       <path id="ArialMT-45" d="M 506 0 
L 506 4581 
L 3819 4581 
L 3819 4041 
L 1113 4041 
L 1113 2638 
L 3647 2638 
L 3647 2100 
L 1113 2100 
L 1113 541 
L 3925 541 
L 3925 0 
L 506 0 
z
" transform="scale(0.015625)"/>
       <path id="ArialMT-75" d="M 2597 0 
L 2597 488 
Q 2209 -75 1544 -75 
Q 1250 -75 995 37 
Q 741 150 617 320 
Q 494 491 444 738 
Q 409 903 409 1263 
L 409 3319 
L 972 3319 
L 972 1478 
Q 972 1038 1006 884 
Q 1059 663 1231 536 
Q 1403 409 1656 409 
Q 1909 409 2131 539 
Q 2353 669 2445 892 
Q 2538 1116 2538 1541 
L 2538 3319 
L 3100 3319 
L 3100 0 
L 2597 0 
z
" transform="scale(0.015625)"/>
      </defs>
      <use xlink:href="#ArialMT-45"/>
      <use xlink:href="#ArialMT-75" x="66.699219"/>
     </g>
    </g>
    <g id="line2d_73">
     <path d="M 175.26375 111.935625 
L 187.26375 111.935625 
L 199.26375 111.935625 
" style="fill: none; stroke-dasharray: 1.2,1.98; stroke-dashoffset: 0; stroke: #ff9500; stroke-width: 1.2"/>
     <g>
      <use xlink:href="#m2e6c64cfe1" x="187.26375" y="111.935625" style="fill-opacity: 0; stroke: #ff9500; stroke-width: 1.5"/>
     </g>
    </g>
    <g id="text_11">
     <!-- KL -->
     <g transform="translate(208.86375 116.135625)scale(0.12 -0.12)">
      <defs>
       <path id="ArialMT-4b" d="M 469 0 
L 469 4581 
L 1075 4581 
L 1075 2309 
L 3350 4581 
L 4172 4581 
L 2250 2725 
L 4256 0 
L 3456 0 
L 1825 2319 
L 1075 1588 
L 1075 0 
L 469 0 
z
" transform="scale(0.015625)"/>
       <path id="ArialMT-4c" d="M 469 0 
L 469 4581 
L 1075 4581 
L 1075 541 
L 3331 541 
L 3331 0 
L 469 0 
z
" transform="scale(0.015625)"/>
      </defs>
      <use xlink:href="#ArialMT-4b"/>
      <use xlink:href="#ArialMT-4c" x="66.699219"/>
     </g>
    </g>
    <g id="line2d_74">
     <path d="M 175.26375 128.91 
L 187.26375 128.91 
L 199.26375 128.91 
" style="fill: none; stroke-dasharray: 4.44,1.92; stroke-dashoffset: 0; stroke: #00b945; stroke-width: 1.2"/>
     <g>
      <use xlink:href="#me2c58fe25a" x="187.26375" y="128.91" style="fill-opacity: 0; stroke: #00b945; stroke-width: 1.5; stroke-linejoin: miter"/>
     </g>
    </g>
    <g id="text_12">
     <!-- IS -->
     <g transform="translate(208.86375 133.11)scale(0.12 -0.12)">
      <defs>
       <path id="ArialMT-49" d="M 597 0 
L 597 4581 
L 1203 4581 
L 1203 0 
L 597 0 
z
" transform="scale(0.015625)"/>
       <path id="ArialMT-53" d="M 288 1472 
L 859 1522 
Q 900 1178 1048 958 
Q 1197 738 1509 602 
Q 1822 466 2213 466 
Q 2559 466 2825 569 
Q 3091 672 3220 851 
Q 3350 1031 3350 1244 
Q 3350 1459 3225 1620 
Q 3100 1781 2813 1891 
Q 2628 1963 1997 2114 
Q 1366 2266 1113 2400 
Q 784 2572 623 2826 
Q 463 3081 463 3397 
Q 463 3744 659 4045 
Q 856 4347 1234 4503 
Q 1613 4659 2075 4659 
Q 2584 4659 2973 4495 
Q 3363 4331 3572 4012 
Q 3781 3694 3797 3291 
L 3216 3247 
Q 3169 3681 2898 3903 
Q 2628 4125 2100 4125 
Q 1550 4125 1298 3923 
Q 1047 3722 1047 3438 
Q 1047 3191 1225 3031 
Q 1400 2872 2139 2705 
Q 2878 2538 3153 2413 
Q 3553 2228 3743 1945 
Q 3934 1663 3934 1294 
Q 3934 928 3725 604 
Q 3516 281 3123 101 
Q 2731 -78 2241 -78 
Q 1619 -78 1198 103 
Q 778 284 539 648 
Q 300 1013 288 1472 
z
" transform="scale(0.015625)"/>
      </defs>
      <use xlink:href="#ArialMT-49"/>
      <use xlink:href="#ArialMT-53" x="27.783203"/>
     </g>
    </g>
   </g>
  </g>
 </g>
 <defs>
  <clipPath id="p6736a0ce07">
   <rect x="39.04125" y="3.6" width="195.3" height="142.695"/>
  </clipPath>
 </defs>
</svg>
