<?xml version="1.0" encoding="utf-8" standalone="no"?>
<!DOCTYPE svg PUBLIC "-//W3C//DTD SVG 1.1//EN"
  "http://www.w3.org/Graphics/SVG/1.1/DTD/svg11.dtd">
<svg xmlns:xlink="http://www.w3.org/1999/xlink" width="248.3325pt" height="180.6225pt" viewBox="0 0 248.3325 180.6225" xmlns="http://www.w3.org/2000/svg" version="1.1">
 <metadata>
  <rdf:RDF xmlns:dc="http://purl.org/dc/elements/1.1/" xmlns:cc="http://creativecommons.org/ns#" xmlns:rdf="http://www.w3.org/1999/02/22-rdf-syntax-ns#">
   <cc:Work>
    <dc:type rdf:resource="http://purl.org/dc/dcmitype/StillImage"/>
    <dc:date>2023-09-25T09:35:43.837170</dc:date>
    <dc:format>image/svg+xml</dc:format>
    <dc:creator>
     <cc:Agent>
      <dc:title>Matplotlib v3.5.1, https://matplotlib.org/</dc:title>
     </cc:Agent>
    </dc:creator>
   </cc:Work>
  </rdf:RDF>
 </metadata>
 <defs>
  <style type="text/css">*{stroke-linejoin: round; stroke-linecap: butt}</style>
 </defs>
 <g id="figure_1">
  <g id="patch_1">
   <path d="M 0 180.6225 
L 248.3325 180.6225 
L 248.3325 0 
L 0 0 
L 0 180.6225 
z
" style="fill: none"/>
  </g>
  <g id="axes_1">
   <g id="patch_2">
    <path d="M 41.7975 146.295 
L 237.0975 146.295 
L 237.0975 3.6 
L 41.7975 3.6 
z
" style="fill: #ffffff"/>
   </g>
   <g id="PolyCollection_1">
    <path d="M 41.7975 99.885727 
L 41.7975 110.924779 
L 52.6475 68.745681 
L 63.4975 45.142192 
L 74.3475 38.080862 
L 85.1975 39.033266 
L 96.0475 39.220895 
L 106.8975 39.45241 
L 117.7475 39.493326 
L 128.5975 38.366651 
L 139.4475 48.815185 
L 150.2975 47.685397 
L 161.1475 44.688563 
L 171.9975 45.91757 
L 182.8475 48.724786 
L 193.6975 53.017192 
L 204.5475 58.893345 
L 215.3975 57.133063 
L 226.2475 54.69824 
L 237.0975 57.810206 
L 237.0975 39.159332 
L 237.0975 39.159332 
L 226.2475 41.408781 
L 215.3975 39.250772 
L 204.5475 37.41627 
L 193.6975 31.135053 
L 182.8475 32.936946 
L 171.9975 31.622687 
L 161.1475 28.672783 
L 150.2975 28.756902 
L 139.4475 31.462935 
L 128.5975 27.476542 
L 117.7475 28.465587 
L 106.8975 27.801014 
L 96.0475 26.189019 
L 85.1975 31.585103 
L 74.3475 31.79494 
L 63.4975 37.484318 
L 52.6475 61.98613 
L 41.7975 99.885727 
z
" clip-path="url(#pa413678387)" style="fill: #0c5da5; fill-opacity: 0.15"/>
   </g>
   <g id="PolyCollection_2">
    <path d="M 41.7975 127.601101 
L 41.7975 134.622722 
L 52.6475 75.531639 
L 63.4975 62.694324 
L 74.3475 43.288082 
L 85.1975 43.900692 
L 96.0475 29.730689 
L 106.8975 25.97464 
L 117.7475 32.993831 
L 128.5975 31.726676 
L 139.4475 32.198905 
L 150.2975 35.553981 
L 161.1475 35.706199 
L 171.9975 36.793328 
L 182.8475 38.94479 
L 193.6975 38.347003 
L 204.5475 39.840376 
L 215.3975 44.32234 
L 226.2475 43.076944 
L 237.0975 45.256485 
L 237.0975 41.780825 
L 237.0975 41.780825 
L 226.2475 39.520241 
L 215.3975 34.647051 
L 204.5475 34.133412 
L 193.6975 31.156049 
L 182.8475 29.524727 
L 171.9975 29.795728 
L 161.1475 32.204377 
L 150.2975 27.059467 
L 139.4475 27.524197 
L 128.5975 23.435067 
L 117.7475 25.193404 
L 106.8975 19.331118 
L 96.0475 22.901855 
L 85.1975 25.211507 
L 74.3475 35.290153 
L 63.4975 60.473092 
L 52.6475 69.756434 
L 41.7975 127.601101 
z
" clip-path="url(#pa413678387)" style="fill: #ff9500; fill-opacity: 0.15"/>
   </g>
   <g id="PolyCollection_3">
    <path d="M 41.7975 131.176946 
L 41.7975 139.808864 
L 52.6475 77.178278 
L 63.4975 47.879538 
L 74.3475 34.51411 
L 85.1975 24.985407 
L 96.0475 23.383491 
L 106.8975 21.269672 
L 117.7475 21.959036 
L 128.5975 22.486412 
L 139.4475 20.712214 
L 150.2975 24.92085 
L 161.1475 29.201259 
L 171.9975 30.963476 
L 182.8475 28.789435 
L 193.6975 36.52859 
L 204.5475 37.327152 
L 215.3975 36.482602 
L 226.2475 35.25617 
L 237.0975 39.43128 
L 237.0975 26.18479 
L 237.0975 26.18479 
L 226.2475 28.502255 
L 215.3975 25.165974 
L 204.5475 24.631213 
L 193.6975 17.271023 
L 182.8475 18.714299 
L 171.9975 18.364585 
L 161.1475 16.110956 
L 150.2975 14.202951 
L 139.4475 12.508531 
L 128.5975 12.935314 
L 117.7475 16.711217 
L 106.8975 10.086136 
L 96.0475 14.229302 
L 85.1975 18.590926 
L 74.3475 30.30103 
L 63.4975 41.262672 
L 52.6475 64.133347 
L 41.7975 131.176946 
z
" clip-path="url(#pa413678387)" style="fill: #00b945; fill-opacity: 0.15"/>
   </g>
   <g id="matplotlib.axis_1">
    <g id="xtick_1">
     <g id="line2d_1">
      <defs>
       <path id="m1faead8e56" d="M 0 0 
L 0 -3 
" style="stroke: #000000; stroke-width: 0.5"/>
      </defs>
      <g>
       <use xlink:href="#m1faead8e56" x="74.3475" y="146.295" style="stroke: #000000; stroke-width: 0.5"/>
      </g>
     </g>
     <g id="line2d_2">
      <defs>
       <path id="m2a12bbd836" d="M 0 0 
L 0 3 
" style="stroke: #000000; stroke-width: 0.5"/>
      </defs>
      <g>
       <use xlink:href="#m2a12bbd836" x="74.3475" y="3.6" style="stroke: #000000; stroke-width: 0.5"/>
      </g>
     </g>
     <g id="text_1">
      <!-- 5 -->
      <g transform="translate(70.53 158.913125)scale(0.12 -0.12)">
       <defs>
        <path id="DejaVuSans-35" d="M 691 4666 
L 3169 4666 
L 3169 4134 
L 1269 4134 
L 1269 2991 
Q 1406 3038 1543 3061 
Q 1681 3084 1819 3084 
Q 2600 3084 3056 2656 
Q 3513 2228 3513 1497 
Q 3513 744 3044 326 
Q 2575 -91 1722 -91 
Q 1428 -91 1123 -41 
Q 819 9 494 109 
L 494 744 
Q 775 591 1075 516 
Q 1375 441 1709 441 
Q 2250 441 2565 725 
Q 2881 1009 2881 1497 
Q 2881 1984 2565 2268 
Q 2250 2553 1709 2553 
Q 1456 2553 1204 2497 
Q 953 2441 691 2322 
L 691 4666 
z
" transform="scale(0.015625)"/>
       </defs>
       <use xlink:href="#DejaVuSans-35"/>
      </g>
     </g>
    </g>
    <g id="xtick_2">
     <g id="line2d_3">
      <g>
       <use xlink:href="#m1faead8e56" x="128.5975" y="146.295" style="stroke: #000000; stroke-width: 0.5"/>
      </g>
     </g>
     <g id="line2d_4">
      <g>
       <use xlink:href="#m2a12bbd836" x="128.5975" y="3.6" style="stroke: #000000; stroke-width: 0.5"/>
      </g>
     </g>
     <g id="text_2">
      <!-- 10 -->
      <g transform="translate(120.9625 158.913125)scale(0.12 -0.12)">
       <defs>
        <path id="DejaVuSans-31" d="M 794 531 
L 1825 531 
L 1825 4091 
L 703 3866 
L 703 4441 
L 1819 4666 
L 2450 4666 
L 2450 531 
L 3481 531 
L 3481 0 
L 794 0 
L 794 531 
z
" transform="scale(0.015625)"/>
        <path id="DejaVuSans-30" d="M 2034 4250 
Q 1547 4250 1301 3770 
Q 1056 3291 1056 2328 
Q 1056 1369 1301 889 
Q 1547 409 2034 409 
Q 2525 409 2770 889 
Q 3016 1369 3016 2328 
Q 3016 3291 2770 3770 
Q 2525 4250 2034 4250 
z
M 2034 4750 
Q 2819 4750 3233 4129 
Q 3647 3509 3647 2328 
Q 3647 1150 3233 529 
Q 2819 -91 2034 -91 
Q 1250 -91 836 529 
Q 422 1150 422 2328 
Q 422 3509 836 4129 
Q 1250 4750 2034 4750 
z
" transform="scale(0.015625)"/>
       </defs>
       <use xlink:href="#DejaVuSans-31"/>
       <use xlink:href="#DejaVuSans-30" x="63.623047"/>
      </g>
     </g>
    </g>
    <g id="xtick_3">
     <g id="line2d_5">
      <g>
       <use xlink:href="#m1faead8e56" x="182.8475" y="146.295" style="stroke: #000000; stroke-width: 0.5"/>
      </g>
     </g>
     <g id="line2d_6">
      <g>
       <use xlink:href="#m2a12bbd836" x="182.8475" y="3.6" style="stroke: #000000; stroke-width: 0.5"/>
      </g>
     </g>
     <g id="text_3">
      <!-- 15 -->
      <g transform="translate(175.2125 158.913125)scale(0.12 -0.12)">
       <use xlink:href="#DejaVuSans-31"/>
       <use xlink:href="#DejaVuSans-35" x="63.623047"/>
      </g>
     </g>
    </g>
    <g id="xtick_4">
     <g id="line2d_7">
      <g>
       <use xlink:href="#m1faead8e56" x="237.0975" y="146.295" style="stroke: #000000; stroke-width: 0.5"/>
      </g>
     </g>
     <g id="line2d_8">
      <g>
       <use xlink:href="#m2a12bbd836" x="237.0975" y="3.6" style="stroke: #000000; stroke-width: 0.5"/>
      </g>
     </g>
     <g id="text_4">
      <!-- 20 -->
      <g transform="translate(229.4625 158.913125)scale(0.12 -0.12)">
       <defs>
        <path id="DejaVuSans-32" d="M 1228 531 
L 3431 531 
L 3431 0 
L 469 0 
L 469 531 
Q 828 903 1448 1529 
Q 2069 2156 2228 2338 
Q 2531 2678 2651 2914 
Q 2772 3150 2772 3378 
Q 2772 3750 2511 3984 
Q 2250 4219 1831 4219 
Q 1534 4219 1204 4116 
Q 875 4013 500 3803 
L 500 4441 
Q 881 4594 1212 4672 
Q 1544 4750 1819 4750 
Q 2544 4750 2975 4387 
Q 3406 4025 3406 3419 
Q 3406 3131 3298 2873 
Q 3191 2616 2906 2266 
Q 2828 2175 2409 1742 
Q 1991 1309 1228 531 
z
" transform="scale(0.015625)"/>
       </defs>
       <use xlink:href="#DejaVuSans-32"/>
       <use xlink:href="#DejaVuSans-30" x="63.623047"/>
      </g>
     </g>
    </g>
    <g id="xtick_5">
     <g id="line2d_9">
      <defs>
       <path id="m751e55bf73" d="M 0 0 
L 0 -1.5 
" style="stroke: #000000; stroke-width: 0.5"/>
      </defs>
      <g>
       <use xlink:href="#m751e55bf73" x="52.6475" y="146.295" style="stroke: #000000; stroke-width: 0.5"/>
      </g>
     </g>
     <g id="line2d_10">
      <defs>
       <path id="mf385c59564" d="M 0 0 
L 0 1.5 
" style="stroke: #000000; stroke-width: 0.5"/>
      </defs>
      <g>
       <use xlink:href="#mf385c59564" x="52.6475" y="3.6" style="stroke: #000000; stroke-width: 0.5"/>
      </g>
     </g>
    </g>
    <g id="xtick_6">
     <g id="line2d_11">
      <g>
       <use xlink:href="#m751e55bf73" x="63.4975" y="146.295" style="stroke: #000000; stroke-width: 0.5"/>
      </g>
     </g>
     <g id="line2d_12">
      <g>
       <use xlink:href="#mf385c59564" x="63.4975" y="3.6" style="stroke: #000000; stroke-width: 0.5"/>
      </g>
     </g>
    </g>
    <g id="xtick_7">
     <g id="line2d_13">
      <g>
       <use xlink:href="#m751e55bf73" x="85.1975" y="146.295" style="stroke: #000000; stroke-width: 0.5"/>
      </g>
     </g>
     <g id="line2d_14">
      <g>
       <use xlink:href="#mf385c59564" x="85.1975" y="3.6" style="stroke: #000000; stroke-width: 0.5"/>
      </g>
     </g>
    </g>
    <g id="xtick_8">
     <g id="line2d_15">
      <g>
       <use xlink:href="#m751e55bf73" x="96.0475" y="146.295" style="stroke: #000000; stroke-width: 0.5"/>
      </g>
     </g>
     <g id="line2d_16">
      <g>
       <use xlink:href="#mf385c59564" x="96.0475" y="3.6" style="stroke: #000000; stroke-width: 0.5"/>
      </g>
     </g>
    </g>
    <g id="xtick_9">
     <g id="line2d_17">
      <g>
       <use xlink:href="#m751e55bf73" x="106.8975" y="146.295" style="stroke: #000000; stroke-width: 0.5"/>
      </g>
     </g>
     <g id="line2d_18">
      <g>
       <use xlink:href="#mf385c59564" x="106.8975" y="3.6" style="stroke: #000000; stroke-width: 0.5"/>
      </g>
     </g>
    </g>
    <g id="xtick_10">
     <g id="line2d_19">
      <g>
       <use xlink:href="#m751e55bf73" x="117.7475" y="146.295" style="stroke: #000000; stroke-width: 0.5"/>
      </g>
     </g>
     <g id="line2d_20">
      <g>
       <use xlink:href="#mf385c59564" x="117.7475" y="3.6" style="stroke: #000000; stroke-width: 0.5"/>
      </g>
     </g>
    </g>
    <g id="xtick_11">
     <g id="line2d_21">
      <g>
       <use xlink:href="#m751e55bf73" x="139.4475" y="146.295" style="stroke: #000000; stroke-width: 0.5"/>
      </g>
     </g>
     <g id="line2d_22">
      <g>
       <use xlink:href="#mf385c59564" x="139.4475" y="3.6" style="stroke: #000000; stroke-width: 0.5"/>
      </g>
     </g>
    </g>
    <g id="xtick_12">
     <g id="line2d_23">
      <g>
       <use xlink:href="#m751e55bf73" x="150.2975" y="146.295" style="stroke: #000000; stroke-width: 0.5"/>
      </g>
     </g>
     <g id="line2d_24">
      <g>
       <use xlink:href="#mf385c59564" x="150.2975" y="3.6" style="stroke: #000000; stroke-width: 0.5"/>
      </g>
     </g>
    </g>
    <g id="xtick_13">
     <g id="line2d_25">
      <g>
       <use xlink:href="#m751e55bf73" x="161.1475" y="146.295" style="stroke: #000000; stroke-width: 0.5"/>
      </g>
     </g>
     <g id="line2d_26">
      <g>
       <use xlink:href="#mf385c59564" x="161.1475" y="3.6" style="stroke: #000000; stroke-width: 0.5"/>
      </g>
     </g>
    </g>
    <g id="xtick_14">
     <g id="line2d_27">
      <g>
       <use xlink:href="#m751e55bf73" x="171.9975" y="146.295" style="stroke: #000000; stroke-width: 0.5"/>
      </g>
     </g>
     <g id="line2d_28">
      <g>
       <use xlink:href="#mf385c59564" x="171.9975" y="3.6" style="stroke: #000000; stroke-width: 0.5"/>
      </g>
     </g>
    </g>
    <g id="xtick_15">
     <g id="line2d_29">
      <g>
       <use xlink:href="#m751e55bf73" x="193.6975" y="146.295" style="stroke: #000000; stroke-width: 0.5"/>
      </g>
     </g>
     <g id="line2d_30">
      <g>
       <use xlink:href="#mf385c59564" x="193.6975" y="3.6" style="stroke: #000000; stroke-width: 0.5"/>
      </g>
     </g>
    </g>
    <g id="xtick_16">
     <g id="line2d_31">
      <g>
       <use xlink:href="#m751e55bf73" x="204.5475" y="146.295" style="stroke: #000000; stroke-width: 0.5"/>
      </g>
     </g>
     <g id="line2d_32">
      <g>
       <use xlink:href="#mf385c59564" x="204.5475" y="3.6" style="stroke: #000000; stroke-width: 0.5"/>
      </g>
     </g>
    </g>
    <g id="xtick_17">
     <g id="line2d_33">
      <g>
       <use xlink:href="#m751e55bf73" x="215.3975" y="146.295" style="stroke: #000000; stroke-width: 0.5"/>
      </g>
     </g>
     <g id="line2d_34">
      <g>
       <use xlink:href="#mf385c59564" x="215.3975" y="3.6" style="stroke: #000000; stroke-width: 0.5"/>
      </g>
     </g>
    </g>
    <g id="xtick_18">
     <g id="line2d_35">
      <g>
       <use xlink:href="#m751e55bf73" x="226.2475" y="146.295" style="stroke: #000000; stroke-width: 0.5"/>
      </g>
     </g>
     <g id="line2d_36">
      <g>
       <use xlink:href="#mf385c59564" x="226.2475" y="3.6" style="stroke: #000000; stroke-width: 0.5"/>
      </g>
     </g>
    </g>
    <g id="text_5">
     <!-- # Components $K$ -->
     <g transform="translate(88.6875 174.5025)scale(0.12 -0.12)">
      <defs>
       <path id="DejaVuSans-23" d="M 3272 2816 
L 2363 2816 
L 2100 1772 
L 3016 1772 
L 3272 2816 
z
M 2803 4594 
L 2478 3297 
L 3391 3297 
L 3719 4594 
L 4219 4594 
L 3897 3297 
L 4872 3297 
L 4872 2816 
L 3775 2816 
L 3519 1772 
L 4513 1772 
L 4513 1294 
L 3397 1294 
L 3072 0 
L 2572 0 
L 2894 1294 
L 1978 1294 
L 1656 0 
L 1153 0 
L 1478 1294 
L 494 1294 
L 494 1772 
L 1594 1772 
L 1856 2816 
L 850 2816 
L 850 3297 
L 1978 3297 
L 2297 4594 
L 2803 4594 
z
" transform="scale(0.015625)"/>
       <path id="DejaVuSans-20" transform="scale(0.015625)"/>
       <path id="DejaVuSans-43" d="M 4122 4306 
L 4122 3641 
Q 3803 3938 3442 4084 
Q 3081 4231 2675 4231 
Q 1875 4231 1450 3742 
Q 1025 3253 1025 2328 
Q 1025 1406 1450 917 
Q 1875 428 2675 428 
Q 3081 428 3442 575 
Q 3803 722 4122 1019 
L 4122 359 
Q 3791 134 3420 21 
Q 3050 -91 2638 -91 
Q 1578 -91 968 557 
Q 359 1206 359 2328 
Q 359 3453 968 4101 
Q 1578 4750 2638 4750 
Q 3056 4750 3426 4639 
Q 3797 4528 4122 4306 
z
" transform="scale(0.015625)"/>
       <path id="DejaVuSans-6f" d="M 1959 3097 
Q 1497 3097 1228 2736 
Q 959 2375 959 1747 
Q 959 1119 1226 758 
Q 1494 397 1959 397 
Q 2419 397 2687 759 
Q 2956 1122 2956 1747 
Q 2956 2369 2687 2733 
Q 2419 3097 1959 3097 
z
M 1959 3584 
Q 2709 3584 3137 3096 
Q 3566 2609 3566 1747 
Q 3566 888 3137 398 
Q 2709 -91 1959 -91 
Q 1206 -91 779 398 
Q 353 888 353 1747 
Q 353 2609 779 3096 
Q 1206 3584 1959 3584 
z
" transform="scale(0.015625)"/>
       <path id="DejaVuSans-6d" d="M 3328 2828 
Q 3544 3216 3844 3400 
Q 4144 3584 4550 3584 
Q 5097 3584 5394 3201 
Q 5691 2819 5691 2113 
L 5691 0 
L 5113 0 
L 5113 2094 
Q 5113 2597 4934 2840 
Q 4756 3084 4391 3084 
Q 3944 3084 3684 2787 
Q 3425 2491 3425 1978 
L 3425 0 
L 2847 0 
L 2847 2094 
Q 2847 2600 2669 2842 
Q 2491 3084 2119 3084 
Q 1678 3084 1418 2786 
Q 1159 2488 1159 1978 
L 1159 0 
L 581 0 
L 581 3500 
L 1159 3500 
L 1159 2956 
Q 1356 3278 1631 3431 
Q 1906 3584 2284 3584 
Q 2666 3584 2933 3390 
Q 3200 3197 3328 2828 
z
" transform="scale(0.015625)"/>
       <path id="DejaVuSans-70" d="M 1159 525 
L 1159 -1331 
L 581 -1331 
L 581 3500 
L 1159 3500 
L 1159 2969 
Q 1341 3281 1617 3432 
Q 1894 3584 2278 3584 
Q 2916 3584 3314 3078 
Q 3713 2572 3713 1747 
Q 3713 922 3314 415 
Q 2916 -91 2278 -91 
Q 1894 -91 1617 61 
Q 1341 213 1159 525 
z
M 3116 1747 
Q 3116 2381 2855 2742 
Q 2594 3103 2138 3103 
Q 1681 3103 1420 2742 
Q 1159 2381 1159 1747 
Q 1159 1113 1420 752 
Q 1681 391 2138 391 
Q 2594 391 2855 752 
Q 3116 1113 3116 1747 
z
" transform="scale(0.015625)"/>
       <path id="DejaVuSans-6e" d="M 3513 2113 
L 3513 0 
L 2938 0 
L 2938 2094 
Q 2938 2591 2744 2837 
Q 2550 3084 2163 3084 
Q 1697 3084 1428 2787 
Q 1159 2491 1159 1978 
L 1159 0 
L 581 0 
L 581 3500 
L 1159 3500 
L 1159 2956 
Q 1366 3272 1645 3428 
Q 1925 3584 2291 3584 
Q 2894 3584 3203 3211 
Q 3513 2838 3513 2113 
z
" transform="scale(0.015625)"/>
       <path id="DejaVuSans-65" d="M 3597 1894 
L 3597 1613 
L 953 1613 
Q 991 1019 1311 708 
Q 1631 397 2203 397 
Q 2534 397 2845 478 
Q 3156 559 3463 722 
L 3463 178 
Q 3153 47 2828 -22 
Q 2503 -91 2169 -91 
Q 1331 -91 842 396 
Q 353 884 353 1716 
Q 353 2575 817 3079 
Q 1281 3584 2069 3584 
Q 2775 3584 3186 3129 
Q 3597 2675 3597 1894 
z
M 3022 2063 
Q 3016 2534 2758 2815 
Q 2500 3097 2075 3097 
Q 1594 3097 1305 2825 
Q 1016 2553 972 2059 
L 3022 2063 
z
" transform="scale(0.015625)"/>
       <path id="DejaVuSans-74" d="M 1172 4494 
L 1172 3500 
L 2356 3500 
L 2356 3053 
L 1172 3053 
L 1172 1153 
Q 1172 725 1289 603 
Q 1406 481 1766 481 
L 2356 481 
L 2356 0 
L 1766 0 
Q 1100 0 847 248 
Q 594 497 594 1153 
L 594 3053 
L 172 3053 
L 172 3500 
L 594 3500 
L 594 4494 
L 1172 4494 
z
" transform="scale(0.015625)"/>
       <path id="DejaVuSans-73" d="M 2834 3397 
L 2834 2853 
Q 2591 2978 2328 3040 
Q 2066 3103 1784 3103 
Q 1356 3103 1142 2972 
Q 928 2841 928 2578 
Q 928 2378 1081 2264 
Q 1234 2150 1697 2047 
L 1894 2003 
Q 2506 1872 2764 1633 
Q 3022 1394 3022 966 
Q 3022 478 2636 193 
Q 2250 -91 1575 -91 
Q 1294 -91 989 -36 
Q 684 19 347 128 
L 347 722 
Q 666 556 975 473 
Q 1284 391 1588 391 
Q 1994 391 2212 530 
Q 2431 669 2431 922 
Q 2431 1156 2273 1281 
Q 2116 1406 1581 1522 
L 1381 1569 
Q 847 1681 609 1914 
Q 372 2147 372 2553 
Q 372 3047 722 3315 
Q 1072 3584 1716 3584 
Q 2034 3584 2315 3537 
Q 2597 3491 2834 3397 
z
" transform="scale(0.015625)"/>
       <path id="DejaVuSans-Oblique-4b" d="M 1081 4666 
L 1716 4666 
L 1331 2700 
L 3781 4666 
L 4622 4666 
L 1850 2438 
L 3878 0 
L 3109 0 
L 1247 2272 
L 806 0 
L 172 0 
L 1081 4666 
z
" transform="scale(0.015625)"/>
      </defs>
      <use xlink:href="#DejaVuSans-23" transform="translate(0 0.78125)"/>
      <use xlink:href="#DejaVuSans-20" transform="translate(83.789062 0.78125)"/>
      <use xlink:href="#DejaVuSans-43" transform="translate(115.576172 0.78125)"/>
      <use xlink:href="#DejaVuSans-6f" transform="translate(185.400391 0.78125)"/>
      <use xlink:href="#DejaVuSans-6d" transform="translate(246.582031 0.78125)"/>
      <use xlink:href="#DejaVuSans-70" transform="translate(343.994141 0.78125)"/>
      <use xlink:href="#DejaVuSans-6f" transform="translate(407.470703 0.78125)"/>
      <use xlink:href="#DejaVuSans-6e" transform="translate(468.652344 0.78125)"/>
      <use xlink:href="#DejaVuSans-65" transform="translate(532.03125 0.78125)"/>
      <use xlink:href="#DejaVuSans-6e" transform="translate(593.554688 0.78125)"/>
      <use xlink:href="#DejaVuSans-74" transform="translate(656.933594 0.78125)"/>
      <use xlink:href="#DejaVuSans-73" transform="translate(696.142578 0.78125)"/>
      <use xlink:href="#DejaVuSans-20" transform="translate(748.242188 0.78125)"/>
      <use xlink:href="#DejaVuSans-Oblique-4b" transform="translate(780.029297 0.78125)"/>
     </g>
    </g>
   </g>
   <g id="matplotlib.axis_2">
    <g id="ytick_1">
     <g id="line2d_37">
      <defs>
       <path id="m17949ae564" d="M 0 0 
L 3 0 
" style="stroke: #000000; stroke-width: 0.5"/>
      </defs>
      <g>
       <use xlink:href="#m17949ae564" x="41.7975" y="105.072827" style="stroke: #000000; stroke-width: 0.5"/>
      </g>
     </g>
     <g id="line2d_38">
      <defs>
       <path id="m9626875885" d="M 0 0 
L -3 0 
" style="stroke: #000000; stroke-width: 0.5"/>
      </defs>
      <g>
       <use xlink:href="#m9626875885" x="237.0975" y="105.072827" style="stroke: #000000; stroke-width: 0.5"/>
      </g>
     </g>
     <g id="text_6">
      <!-- 0.4 -->
      <g transform="translate(19.21375 109.63189)scale(0.12 -0.12)">
       <defs>
        <path id="DejaVuSans-2e" d="M 684 794 
L 1344 794 
L 1344 0 
L 684 0 
L 684 794 
z
" transform="scale(0.015625)"/>
        <path id="DejaVuSans-34" d="M 2419 4116 
L 825 1625 
L 2419 1625 
L 2419 4116 
z
M 2253 4666 
L 3047 4666 
L 3047 1625 
L 3713 1625 
L 3713 1100 
L 3047 1100 
L 3047 0 
L 2419 0 
L 2419 1100 
L 313 1100 
L 313 1709 
L 2253 4666 
z
" transform="scale(0.015625)"/>
       </defs>
       <use xlink:href="#DejaVuSans-30"/>
       <use xlink:href="#DejaVuSans-2e" x="63.623047"/>
       <use xlink:href="#DejaVuSans-34" x="95.410156"/>
      </g>
     </g>
    </g>
    <g id="ytick_2">
     <g id="line2d_39">
      <g>
       <use xlink:href="#m17949ae564" x="41.7975" y="59.897515" style="stroke: #000000; stroke-width: 0.5"/>
      </g>
     </g>
     <g id="line2d_40">
      <g>
       <use xlink:href="#m9626875885" x="237.0975" y="59.897515" style="stroke: #000000; stroke-width: 0.5"/>
      </g>
     </g>
     <g id="text_7">
      <!-- 0.5 -->
      <g transform="translate(19.21375 64.456578)scale(0.12 -0.12)">
       <use xlink:href="#DejaVuSans-30"/>
       <use xlink:href="#DejaVuSans-2e" x="63.623047"/>
       <use xlink:href="#DejaVuSans-35" x="95.410156"/>
      </g>
     </g>
    </g>
    <g id="ytick_3">
     <g id="line2d_41">
      <g>
       <use xlink:href="#m17949ae564" x="41.7975" y="14.722203" style="stroke: #000000; stroke-width: 0.5"/>
      </g>
     </g>
     <g id="line2d_42">
      <g>
       <use xlink:href="#m9626875885" x="237.0975" y="14.722203" style="stroke: #000000; stroke-width: 0.5"/>
      </g>
     </g>
     <g id="text_8">
      <!-- 0.6 -->
      <g transform="translate(19.21375 19.281265)scale(0.12 -0.12)">
       <defs>
        <path id="DejaVuSans-36" d="M 2113 2584 
Q 1688 2584 1439 2293 
Q 1191 2003 1191 1497 
Q 1191 994 1439 701 
Q 1688 409 2113 409 
Q 2538 409 2786 701 
Q 3034 994 3034 1497 
Q 3034 2003 2786 2293 
Q 2538 2584 2113 2584 
z
M 3366 4563 
L 3366 3988 
Q 3128 4100 2886 4159 
Q 2644 4219 2406 4219 
Q 1781 4219 1451 3797 
Q 1122 3375 1075 2522 
Q 1259 2794 1537 2939 
Q 1816 3084 2150 3084 
Q 2853 3084 3261 2657 
Q 3669 2231 3669 1497 
Q 3669 778 3244 343 
Q 2819 -91 2113 -91 
Q 1303 -91 875 529 
Q 447 1150 447 2328 
Q 447 3434 972 4092 
Q 1497 4750 2381 4750 
Q 2619 4750 2861 4703 
Q 3103 4656 3366 4563 
z
" transform="scale(0.015625)"/>
       </defs>
       <use xlink:href="#DejaVuSans-30"/>
       <use xlink:href="#DejaVuSans-2e" x="63.623047"/>
       <use xlink:href="#DejaVuSans-36" x="95.410156"/>
      </g>
     </g>
    </g>
    <g id="ytick_4">
     <g id="line2d_43">
      <defs>
       <path id="m48eae392b1" d="M 0 0 
L 1.5 0 
" style="stroke: #000000; stroke-width: 0.5"/>
      </defs>
      <g>
       <use xlink:href="#m48eae392b1" x="41.7975" y="141.213077" style="stroke: #000000; stroke-width: 0.5"/>
      </g>
     </g>
     <g id="line2d_44">
      <defs>
       <path id="m111a546dc5" d="M 0 0 
L -1.5 0 
" style="stroke: #000000; stroke-width: 0.5"/>
      </defs>
      <g>
       <use xlink:href="#m111a546dc5" x="237.0975" y="141.213077" style="stroke: #000000; stroke-width: 0.5"/>
      </g>
     </g>
    </g>
    <g id="ytick_5">
     <g id="line2d_45">
      <g>
       <use xlink:href="#m48eae392b1" x="41.7975" y="132.178015" style="stroke: #000000; stroke-width: 0.5"/>
      </g>
     </g>
     <g id="line2d_46">
      <g>
       <use xlink:href="#m111a546dc5" x="237.0975" y="132.178015" style="stroke: #000000; stroke-width: 0.5"/>
      </g>
     </g>
    </g>
    <g id="ytick_6">
     <g id="line2d_47">
      <g>
       <use xlink:href="#m48eae392b1" x="41.7975" y="123.142952" style="stroke: #000000; stroke-width: 0.5"/>
      </g>
     </g>
     <g id="line2d_48">
      <g>
       <use xlink:href="#m111a546dc5" x="237.0975" y="123.142952" style="stroke: #000000; stroke-width: 0.5"/>
      </g>
     </g>
    </g>
    <g id="ytick_7">
     <g id="line2d_49">
      <g>
       <use xlink:href="#m48eae392b1" x="41.7975" y="114.10789" style="stroke: #000000; stroke-width: 0.5"/>
      </g>
     </g>
     <g id="line2d_50">
      <g>
       <use xlink:href="#m111a546dc5" x="237.0975" y="114.10789" style="stroke: #000000; stroke-width: 0.5"/>
      </g>
     </g>
    </g>
    <g id="ytick_8">
     <g id="line2d_51">
      <g>
       <use xlink:href="#m48eae392b1" x="41.7975" y="96.037765" style="stroke: #000000; stroke-width: 0.5"/>
      </g>
     </g>
     <g id="line2d_52">
      <g>
       <use xlink:href="#m111a546dc5" x="237.0975" y="96.037765" style="stroke: #000000; stroke-width: 0.5"/>
      </g>
     </g>
    </g>
    <g id="ytick_9">
     <g id="line2d_53">
      <g>
       <use xlink:href="#m48eae392b1" x="41.7975" y="87.002703" style="stroke: #000000; stroke-width: 0.5"/>
      </g>
     </g>
     <g id="line2d_54">
      <g>
       <use xlink:href="#m111a546dc5" x="237.0975" y="87.002703" style="stroke: #000000; stroke-width: 0.5"/>
      </g>
     </g>
    </g>
    <g id="ytick_10">
     <g id="line2d_55">
      <g>
       <use xlink:href="#m48eae392b1" x="41.7975" y="77.96764" style="stroke: #000000; stroke-width: 0.5"/>
      </g>
     </g>
     <g id="line2d_56">
      <g>
       <use xlink:href="#m111a546dc5" x="237.0975" y="77.96764" style="stroke: #000000; stroke-width: 0.5"/>
      </g>
     </g>
    </g>
    <g id="ytick_11">
     <g id="line2d_57">
      <g>
       <use xlink:href="#m48eae392b1" x="41.7975" y="68.932578" style="stroke: #000000; stroke-width: 0.5"/>
      </g>
     </g>
     <g id="line2d_58">
      <g>
       <use xlink:href="#m111a546dc5" x="237.0975" y="68.932578" style="stroke: #000000; stroke-width: 0.5"/>
      </g>
     </g>
    </g>
    <g id="ytick_12">
     <g id="line2d_59">
      <g>
       <use xlink:href="#m48eae392b1" x="41.7975" y="50.862453" style="stroke: #000000; stroke-width: 0.5"/>
      </g>
     </g>
     <g id="line2d_60">
      <g>
       <use xlink:href="#m111a546dc5" x="237.0975" y="50.862453" style="stroke: #000000; stroke-width: 0.5"/>
      </g>
     </g>
    </g>
    <g id="ytick_13">
     <g id="line2d_61">
      <g>
       <use xlink:href="#m48eae392b1" x="41.7975" y="41.82739" style="stroke: #000000; stroke-width: 0.5"/>
      </g>
     </g>
     <g id="line2d_62">
      <g>
       <use xlink:href="#m111a546dc5" x="237.0975" y="41.82739" style="stroke: #000000; stroke-width: 0.5"/>
      </g>
     </g>
    </g>
    <g id="ytick_14">
     <g id="line2d_63">
      <g>
       <use xlink:href="#m48eae392b1" x="41.7975" y="32.792328" style="stroke: #000000; stroke-width: 0.5"/>
      </g>
     </g>
     <g id="line2d_64">
      <g>
       <use xlink:href="#m111a546dc5" x="237.0975" y="32.792328" style="stroke: #000000; stroke-width: 0.5"/>
      </g>
     </g>
    </g>
    <g id="ytick_15">
     <g id="line2d_65">
      <g>
       <use xlink:href="#m48eae392b1" x="41.7975" y="23.757265" style="stroke: #000000; stroke-width: 0.5"/>
      </g>
     </g>
     <g id="line2d_66">
      <g>
       <use xlink:href="#m111a546dc5" x="237.0975" y="23.757265" style="stroke: #000000; stroke-width: 0.5"/>
      </g>
     </g>
    </g>
    <g id="ytick_16">
     <g id="line2d_67">
      <g>
       <use xlink:href="#m48eae392b1" x="41.7975" y="5.68714" style="stroke: #000000; stroke-width: 0.5"/>
      </g>
     </g>
     <g id="line2d_68">
      <g>
       <use xlink:href="#m111a546dc5" x="237.0975" y="5.68714" style="stroke: #000000; stroke-width: 0.5"/>
      </g>
     </g>
    </g>
    <g id="text_9">
     <!-- Chebyshev distance -->
     <g transform="translate(12.718125 135.494062)rotate(-90)scale(0.12 -0.12)">
      <defs>
       <path id="DejaVuSans-68" d="M 3513 2113 
L 3513 0 
L 2938 0 
L 2938 2094 
Q 2938 2591 2744 2837 
Q 2550 3084 2163 3084 
Q 1697 3084 1428 2787 
Q 1159 2491 1159 1978 
L 1159 0 
L 581 0 
L 581 4863 
L 1159 4863 
L 1159 2956 
Q 1366 3272 1645 3428 
Q 1925 3584 2291 3584 
Q 2894 3584 3203 3211 
Q 3513 2838 3513 2113 
z
" transform="scale(0.015625)"/>
       <path id="DejaVuSans-62" d="M 3116 1747 
Q 3116 2381 2855 2742 
Q 2594 3103 2138 3103 
Q 1681 3103 1420 2742 
Q 1159 2381 1159 1747 
Q 1159 1113 1420 752 
Q 1681 391 2138 391 
Q 2594 391 2855 752 
Q 3116 1113 3116 1747 
z
M 1159 2969 
Q 1341 3281 1617 3432 
Q 1894 3584 2278 3584 
Q 2916 3584 3314 3078 
Q 3713 2572 3713 1747 
Q 3713 922 3314 415 
Q 2916 -91 2278 -91 
Q 1894 -91 1617 61 
Q 1341 213 1159 525 
L 1159 0 
L 581 0 
L 581 4863 
L 1159 4863 
L 1159 2969 
z
" transform="scale(0.015625)"/>
       <path id="DejaVuSans-79" d="M 2059 -325 
Q 1816 -950 1584 -1140 
Q 1353 -1331 966 -1331 
L 506 -1331 
L 506 -850 
L 844 -850 
Q 1081 -850 1212 -737 
Q 1344 -625 1503 -206 
L 1606 56 
L 191 3500 
L 800 3500 
L 1894 763 
L 2988 3500 
L 3597 3500 
L 2059 -325 
z
" transform="scale(0.015625)"/>
       <path id="DejaVuSans-76" d="M 191 3500 
L 800 3500 
L 1894 563 
L 2988 3500 
L 3597 3500 
L 2284 0 
L 1503 0 
L 191 3500 
z
" transform="scale(0.015625)"/>
       <path id="DejaVuSans-64" d="M 2906 2969 
L 2906 4863 
L 3481 4863 
L 3481 0 
L 2906 0 
L 2906 525 
Q 2725 213 2448 61 
Q 2172 -91 1784 -91 
Q 1150 -91 751 415 
Q 353 922 353 1747 
Q 353 2572 751 3078 
Q 1150 3584 1784 3584 
Q 2172 3584 2448 3432 
Q 2725 3281 2906 2969 
z
M 947 1747 
Q 947 1113 1208 752 
Q 1469 391 1925 391 
Q 2381 391 2643 752 
Q 2906 1113 2906 1747 
Q 2906 2381 2643 2742 
Q 2381 3103 1925 3103 
Q 1469 3103 1208 2742 
Q 947 2381 947 1747 
z
" transform="scale(0.015625)"/>
       <path id="DejaVuSans-69" d="M 603 3500 
L 1178 3500 
L 1178 0 
L 603 0 
L 603 3500 
z
M 603 4863 
L 1178 4863 
L 1178 4134 
L 603 4134 
L 603 4863 
z
" transform="scale(0.015625)"/>
       <path id="DejaVuSans-61" d="M 2194 1759 
Q 1497 1759 1228 1600 
Q 959 1441 959 1056 
Q 959 750 1161 570 
Q 1363 391 1709 391 
Q 2188 391 2477 730 
Q 2766 1069 2766 1631 
L 2766 1759 
L 2194 1759 
z
M 3341 1997 
L 3341 0 
L 2766 0 
L 2766 531 
Q 2569 213 2275 61 
Q 1981 -91 1556 -91 
Q 1019 -91 701 211 
Q 384 513 384 1019 
Q 384 1609 779 1909 
Q 1175 2209 1959 2209 
L 2766 2209 
L 2766 2266 
Q 2766 2663 2505 2880 
Q 2244 3097 1772 3097 
Q 1472 3097 1187 3025 
Q 903 2953 641 2809 
L 641 3341 
Q 956 3463 1253 3523 
Q 1550 3584 1831 3584 
Q 2591 3584 2966 3190 
Q 3341 2797 3341 1997 
z
" transform="scale(0.015625)"/>
       <path id="DejaVuSans-63" d="M 3122 3366 
L 3122 2828 
Q 2878 2963 2633 3030 
Q 2388 3097 2138 3097 
Q 1578 3097 1268 2742 
Q 959 2388 959 1747 
Q 959 1106 1268 751 
Q 1578 397 2138 397 
Q 2388 397 2633 464 
Q 2878 531 3122 666 
L 3122 134 
Q 2881 22 2623 -34 
Q 2366 -91 2075 -91 
Q 1284 -91 818 406 
Q 353 903 353 1747 
Q 353 2603 823 3093 
Q 1294 3584 2113 3584 
Q 2378 3584 2631 3529 
Q 2884 3475 3122 3366 
z
" transform="scale(0.015625)"/>
      </defs>
      <use xlink:href="#DejaVuSans-43"/>
      <use xlink:href="#DejaVuSans-68" x="69.824219"/>
      <use xlink:href="#DejaVuSans-65" x="133.203125"/>
      <use xlink:href="#DejaVuSans-62" x="194.726562"/>
      <use xlink:href="#DejaVuSans-79" x="258.203125"/>
      <use xlink:href="#DejaVuSans-73" x="317.382812"/>
      <use xlink:href="#DejaVuSans-68" x="369.482422"/>
      <use xlink:href="#DejaVuSans-65" x="432.861328"/>
      <use xlink:href="#DejaVuSans-76" x="494.384766"/>
      <use xlink:href="#DejaVuSans-20" x="553.564453"/>
      <use xlink:href="#DejaVuSans-64" x="585.351562"/>
      <use xlink:href="#DejaVuSans-69" x="648.828125"/>
      <use xlink:href="#DejaVuSans-73" x="676.611328"/>
      <use xlink:href="#DejaVuSans-74" x="728.710938"/>
      <use xlink:href="#DejaVuSans-61" x="767.919922"/>
      <use xlink:href="#DejaVuSans-6e" x="829.199219"/>
      <use xlink:href="#DejaVuSans-63" x="892.578125"/>
      <use xlink:href="#DejaVuSans-65" x="947.558594"/>
     </g>
    </g>
   </g>
   <g id="line2d_69">
    <path d="M 41.7975 107.538791 
L 52.6475 66.680142 
L 63.4975 44.693774 
L 74.3475 38.191796 
L 85.1975 36.182823 
L 96.0475 36.326096 
L 106.8975 36.154104 
L 117.7475 34.499309 
L 128.5975 33.668491 
L 139.4475 40.574952 
L 150.2975 39.393318 
L 161.1475 38.223969 
L 171.9975 41.791284 
L 182.8475 43.397564 
L 193.6975 44.674957 
L 204.5475 49.995054 
L 215.3975 51.415403 
L 226.2475 51.096618 
L 237.0975 51.816785 
" clip-path="url(#pa413678387)" style="fill: none; stroke: #0c5da5; stroke-width: 1.2; stroke-linecap: square"/>
    <defs>
     <path id="mae8daddf90" d="M -2 2 
L 2 2 
L 2 -2 
L -2 -2 
z
" style="stroke: #0c5da5; stroke-width: 1.5; stroke-linejoin: miter"/>
    </defs>
    <g clip-path="url(#pa413678387)">
     <use xlink:href="#mae8daddf90" x="41.7975" y="107.538791" style="fill-opacity: 0; stroke: #0c5da5; stroke-width: 1.5; stroke-linejoin: miter"/>
     <use xlink:href="#mae8daddf90" x="52.6475" y="66.680142" style="fill-opacity: 0; stroke: #0c5da5; stroke-width: 1.5; stroke-linejoin: miter"/>
     <use xlink:href="#mae8daddf90" x="63.4975" y="44.693774" style="fill-opacity: 0; stroke: #0c5da5; stroke-width: 1.5; stroke-linejoin: miter"/>
     <use xlink:href="#mae8daddf90" x="74.3475" y="38.191796" style="fill-opacity: 0; stroke: #0c5da5; stroke-width: 1.5; stroke-linejoin: miter"/>
     <use xlink:href="#mae8daddf90" x="85.1975" y="36.182823" style="fill-opacity: 0; stroke: #0c5da5; stroke-width: 1.5; stroke-linejoin: miter"/>
     <use xlink:href="#mae8daddf90" x="96.0475" y="36.326096" style="fill-opacity: 0; stroke: #0c5da5; stroke-width: 1.5; stroke-linejoin: miter"/>
     <use xlink:href="#mae8daddf90" x="106.8975" y="36.154104" style="fill-opacity: 0; stroke: #0c5da5; stroke-width: 1.5; stroke-linejoin: miter"/>
     <use xlink:href="#mae8daddf90" x="117.7475" y="34.499309" style="fill-opacity: 0; stroke: #0c5da5; stroke-width: 1.5; stroke-linejoin: miter"/>
     <use xlink:href="#mae8daddf90" x="128.5975" y="33.668491" style="fill-opacity: 0; stroke: #0c5da5; stroke-width: 1.5; stroke-linejoin: miter"/>
     <use xlink:href="#mae8daddf90" x="139.4475" y="40.574952" style="fill-opacity: 0; stroke: #0c5da5; stroke-width: 1.5; stroke-linejoin: miter"/>
     <use xlink:href="#mae8daddf90" x="150.2975" y="39.393318" style="fill-opacity: 0; stroke: #0c5da5; stroke-width: 1.5; stroke-linejoin: miter"/>
     <use xlink:href="#mae8daddf90" x="161.1475" y="38.223969" style="fill-opacity: 0; stroke: #0c5da5; stroke-width: 1.5; stroke-linejoin: miter"/>
     <use xlink:href="#mae8daddf90" x="171.9975" y="41.791284" style="fill-opacity: 0; stroke: #0c5da5; stroke-width: 1.5; stroke-linejoin: miter"/>
     <use xlink:href="#mae8daddf90" x="182.8475" y="43.397564" style="fill-opacity: 0; stroke: #0c5da5; stroke-width: 1.5; stroke-linejoin: miter"/>
     <use xlink:href="#mae8daddf90" x="193.6975" y="44.674957" style="fill-opacity: 0; stroke: #0c5da5; stroke-width: 1.5; stroke-linejoin: miter"/>
     <use xlink:href="#mae8daddf90" x="204.5475" y="49.995054" style="fill-opacity: 0; stroke: #0c5da5; stroke-width: 1.5; stroke-linejoin: miter"/>
     <use xlink:href="#mae8daddf90" x="215.3975" y="51.415403" style="fill-opacity: 0; stroke: #0c5da5; stroke-width: 1.5; stroke-linejoin: miter"/>
     <use xlink:href="#mae8daddf90" x="226.2475" y="51.096618" style="fill-opacity: 0; stroke: #0c5da5; stroke-width: 1.5; stroke-linejoin: miter"/>
     <use xlink:href="#mae8daddf90" x="237.0975" y="51.816785" style="fill-opacity: 0; stroke: #0c5da5; stroke-width: 1.5; stroke-linejoin: miter"/>
    </g>
   </g>
   <g id="line2d_70">
    <path d="M 41.7975 130.222235 
L 52.6475 74.381719 
L 63.4975 61.567145 
L 74.3475 39.909939 
L 85.1975 35.162162 
L 96.0475 30.329003 
L 106.8975 25.444775 
L 117.7475 30.898698 
L 128.5975 30.034798 
L 139.4475 31.235667 
L 150.2975 33.243032 
L 161.1475 35.798168 
L 171.9975 35.307933 
L 182.8475 37.442552 
L 193.6975 37.164919 
L 204.5475 40.195016 
L 215.3975 42.126841 
L 226.2475 42.776916 
L 237.0975 44.764034 
" clip-path="url(#pa413678387)" style="fill: none; stroke-dasharray: 1.2,1.98; stroke-dashoffset: 0; stroke: #ff9500; stroke-width: 1.2"/>
    <defs>
     <path id="m056666832a" d="M 0 2 
C 0.530406 2 1.03916 1.789267 1.414214 1.414214 
C 1.789267 1.03916 2 0.530406 2 0 
C 2 -0.530406 1.789267 -1.03916 1.414214 -1.414214 
C 1.03916 -1.789267 0.530406 -2 0 -2 
C -0.530406 -2 -1.03916 -1.789267 -1.414214 -1.414214 
C -1.789267 -1.03916 -2 -0.530406 -2 0 
C -2 0.530406 -1.789267 1.03916 -1.414214 1.414214 
C -1.03916 1.789267 -0.530406 2 0 2 
z
" style="stroke: #ff9500; stroke-width: 1.5"/>
    </defs>
    <g clip-path="url(#pa413678387)">
     <use xlink:href="#m056666832a" x="41.7975" y="130.222235" style="fill-opacity: 0; stroke: #ff9500; stroke-width: 1.5"/>
     <use xlink:href="#m056666832a" x="52.6475" y="74.381719" style="fill-opacity: 0; stroke: #ff9500; stroke-width: 1.5"/>
     <use xlink:href="#m056666832a" x="63.4975" y="61.567145" style="fill-opacity: 0; stroke: #ff9500; stroke-width: 1.5"/>
     <use xlink:href="#m056666832a" x="74.3475" y="39.909939" style="fill-opacity: 0; stroke: #ff9500; stroke-width: 1.5"/>
     <use xlink:href="#m056666832a" x="85.1975" y="35.162162" style="fill-opacity: 0; stroke: #ff9500; stroke-width: 1.5"/>
     <use xlink:href="#m056666832a" x="96.0475" y="30.329003" style="fill-opacity: 0; stroke: #ff9500; stroke-width: 1.5"/>
     <use xlink:href="#m056666832a" x="106.8975" y="25.444775" style="fill-opacity: 0; stroke: #ff9500; stroke-width: 1.5"/>
     <use xlink:href="#m056666832a" x="117.7475" y="30.898698" style="fill-opacity: 0; stroke: #ff9500; stroke-width: 1.5"/>
     <use xlink:href="#m056666832a" x="128.5975" y="30.034798" style="fill-opacity: 0; stroke: #ff9500; stroke-width: 1.5"/>
     <use xlink:href="#m056666832a" x="139.4475" y="31.235667" style="fill-opacity: 0; stroke: #ff9500; stroke-width: 1.5"/>
     <use xlink:href="#m056666832a" x="150.2975" y="33.243032" style="fill-opacity: 0; stroke: #ff9500; stroke-width: 1.5"/>
     <use xlink:href="#m056666832a" x="161.1475" y="35.798168" style="fill-opacity: 0; stroke: #ff9500; stroke-width: 1.5"/>
     <use xlink:href="#m056666832a" x="171.9975" y="35.307933" style="fill-opacity: 0; stroke: #ff9500; stroke-width: 1.5"/>
     <use xlink:href="#m056666832a" x="182.8475" y="37.442552" style="fill-opacity: 0; stroke: #ff9500; stroke-width: 1.5"/>
     <use xlink:href="#m056666832a" x="193.6975" y="37.164919" style="fill-opacity: 0; stroke: #ff9500; stroke-width: 1.5"/>
     <use xlink:href="#m056666832a" x="204.5475" y="40.195016" style="fill-opacity: 0; stroke: #ff9500; stroke-width: 1.5"/>
     <use xlink:href="#m056666832a" x="215.3975" y="42.126841" style="fill-opacity: 0; stroke: #ff9500; stroke-width: 1.5"/>
     <use xlink:href="#m056666832a" x="226.2475" y="42.776916" style="fill-opacity: 0; stroke: #ff9500; stroke-width: 1.5"/>
     <use xlink:href="#m056666832a" x="237.0975" y="44.764034" style="fill-opacity: 0; stroke: #ff9500; stroke-width: 1.5"/>
    </g>
   </g>
   <g id="line2d_71">
    <path d="M 41.7975 133.713966 
L 52.6475 72.310802 
L 63.4975 46.255906 
L 74.3475 32.796568 
L 85.1975 20.182429 
L 96.0475 19.151645 
L 106.8975 14.394718 
L 117.7475 18.952054 
L 128.5975 18.406447 
L 139.4475 18.899581 
L 150.2975 20.370905 
L 161.1475 21.620582 
L 171.9975 24.887644 
L 182.8475 24.624345 
L 193.6975 27.910543 
L 204.5475 30.613308 
L 215.3975 32.321042 
L 226.2475 32.036794 
L 237.0975 33.103187 
" clip-path="url(#pa413678387)" style="fill: none; stroke-dasharray: 4.44,1.92; stroke-dashoffset: 0; stroke: #00b945; stroke-width: 1.2"/>
    <defs>
     <path id="mb6da38213a" d="M 0 -2 
L -2 2 
L 2 2 
z
" style="stroke: #00b945; stroke-width: 1.5; stroke-linejoin: miter"/>
    </defs>
    <g clip-path="url(#pa413678387)">
     <use xlink:href="#mb6da38213a" x="41.7975" y="133.713966" style="fill-opacity: 0; stroke: #00b945; stroke-width: 1.5; stroke-linejoin: miter"/>
     <use xlink:href="#mb6da38213a" x="52.6475" y="72.310802" style="fill-opacity: 0; stroke: #00b945; stroke-width: 1.5; stroke-linejoin: miter"/>
     <use xlink:href="#mb6da38213a" x="63.4975" y="46.255906" style="fill-opacity: 0; stroke: #00b945; stroke-width: 1.5; stroke-linejoin: miter"/>
     <use xlink:href="#mb6da38213a" x="74.3475" y="32.796568" style="fill-opacity: 0; stroke: #00b945; stroke-width: 1.5; stroke-linejoin: miter"/>
     <use xlink:href="#mb6da38213a" x="85.1975" y="20.182429" style="fill-opacity: 0; stroke: #00b945; stroke-width: 1.5; stroke-linejoin: miter"/>
     <use xlink:href="#mb6da38213a" x="96.0475" y="19.151645" style="fill-opacity: 0; stroke: #00b945; stroke-width: 1.5; stroke-linejoin: miter"/>
     <use xlink:href="#mb6da38213a" x="106.8975" y="14.394718" style="fill-opacity: 0; stroke: #00b945; stroke-width: 1.5; stroke-linejoin: miter"/>
     <use xlink:href="#mb6da38213a" x="117.7475" y="18.952054" style="fill-opacity: 0; stroke: #00b945; stroke-width: 1.5; stroke-linejoin: miter"/>
     <use xlink:href="#mb6da38213a" x="128.5975" y="18.406447" style="fill-opacity: 0; stroke: #00b945; stroke-width: 1.5; stroke-linejoin: miter"/>
     <use xlink:href="#mb6da38213a" x="139.4475" y="18.899581" style="fill-opacity: 0; stroke: #00b945; stroke-width: 1.5; stroke-linejoin: miter"/>
     <use xlink:href="#mb6da38213a" x="150.2975" y="20.370905" style="fill-opacity: 0; stroke: #00b945; stroke-width: 1.5; stroke-linejoin: miter"/>
     <use xlink:href="#mb6da38213a" x="161.1475" y="21.620582" style="fill-opacity: 0; stroke: #00b945; stroke-width: 1.5; stroke-linejoin: miter"/>
     <use xlink:href="#mb6da38213a" x="171.9975" y="24.887644" style="fill-opacity: 0; stroke: #00b945; stroke-width: 1.5; stroke-linejoin: miter"/>
     <use xlink:href="#mb6da38213a" x="182.8475" y="24.624345" style="fill-opacity: 0; stroke: #00b945; stroke-width: 1.5; stroke-linejoin: miter"/>
     <use xlink:href="#mb6da38213a" x="193.6975" y="27.910543" style="fill-opacity: 0; stroke: #00b945; stroke-width: 1.5; stroke-linejoin: miter"/>
     <use xlink:href="#mb6da38213a" x="204.5475" y="30.613308" style="fill-opacity: 0; stroke: #00b945; stroke-width: 1.5; stroke-linejoin: miter"/>
     <use xlink:href="#mb6da38213a" x="215.3975" y="32.321042" style="fill-opacity: 0; stroke: #00b945; stroke-width: 1.5; stroke-linejoin: miter"/>
     <use xlink:href="#mb6da38213a" x="226.2475" y="32.036794" style="fill-opacity: 0; stroke: #00b945; stroke-width: 1.5; stroke-linejoin: miter"/>
     <use xlink:href="#mb6da38213a" x="237.0975" y="33.103187" style="fill-opacity: 0; stroke: #00b945; stroke-width: 1.5; stroke-linejoin: miter"/>
    </g>
   </g>
   <g id="patch_3">
    <path d="M 41.7975 146.295 
L 41.7975 3.6 
" style="fill: none; stroke: #000000; stroke-width: 0.5; stroke-linejoin: miter; stroke-linecap: square"/>
   </g>
   <g id="patch_4">
    <path d="M 237.0975 146.295 
L 237.0975 3.6 
" style="fill: none; stroke: #000000; stroke-width: 0.5; stroke-linejoin: miter; stroke-linecap: square"/>
   </g>
   <g id="patch_5">
    <path d="M 41.7975 146.295 
L 237.0975 146.295 
" style="fill: none; stroke: #000000; stroke-width: 0.5; stroke-linejoin: miter; stroke-linecap: square"/>
   </g>
   <g id="patch_6">
    <path d="M 41.7975 3.6 
L 237.0975 3.6 
" style="fill: none; stroke: #000000; stroke-width: 0.5; stroke-linejoin: miter; stroke-linecap: square"/>
   </g>
   <g id="legend_1">
    <g id="line2d_72">
     <path d="M 177.51 93.571875 
L 189.51 93.571875 
L 201.51 93.571875 
" style="fill: none; stroke: #0c5da5; stroke-width: 1.2; stroke-linecap: square"/>
     <g>
      <use xlink:href="#mae8daddf90" x="189.51" y="93.571875" style="fill-opacity: 0; stroke: #0c5da5; stroke-width: 1.5; stroke-linejoin: miter"/>
     </g>
    </g>
    <g id="text_10">
     <!-- Eu -->
     <g transform="translate(211.11 97.771875)scale(0.12 -0.12)">
      <defs>
       <path id="DejaVuSans-45" d="M 628 4666 
L 3578 4666 
L 3578 4134 
L 1259 4134 
L 1259 2753 
L 3481 2753 
L 3481 2222 
L 1259 2222 
L 1259 531 
L 3634 531 
L 3634 0 
L 628 0 
L 628 4666 
z
" transform="scale(0.015625)"/>
       <path id="DejaVuSans-75" d="M 544 1381 
L 544 3500 
L 1119 3500 
L 1119 1403 
Q 1119 906 1312 657 
Q 1506 409 1894 409 
Q 2359 409 2629 706 
Q 2900 1003 2900 1516 
L 2900 3500 
L 3475 3500 
L 3475 0 
L 2900 0 
L 2900 538 
Q 2691 219 2414 64 
Q 2138 -91 1772 -91 
Q 1169 -91 856 284 
Q 544 659 544 1381 
z
M 1991 3584 
L 1991 3584 
z
" transform="scale(0.015625)"/>
      </defs>
      <use xlink:href="#DejaVuSans-45"/>
      <use xlink:href="#DejaVuSans-75" x="63.183594"/>
     </g>
    </g>
    <g id="line2d_73">
     <path d="M 177.51 111.185625 
L 189.51 111.185625 
L 201.51 111.185625 
" style="fill: none; stroke-dasharray: 1.2,1.98; stroke-dashoffset: 0; stroke: #ff9500; stroke-width: 1.2"/>
     <g>
      <use xlink:href="#m056666832a" x="189.51" y="111.185625" style="fill-opacity: 0; stroke: #ff9500; stroke-width: 1.5"/>
     </g>
    </g>
    <g id="text_11">
     <!-- KL -->
     <g transform="translate(211.11 115.385625)scale(0.12 -0.12)">
      <defs>
       <path id="DejaVuSans-4b" d="M 628 4666 
L 1259 4666 
L 1259 2694 
L 3353 4666 
L 4166 4666 
L 1850 2491 
L 4331 0 
L 3500 0 
L 1259 2247 
L 1259 0 
L 628 0 
L 628 4666 
z
" transform="scale(0.015625)"/>
       <path id="DejaVuSans-4c" d="M 628 4666 
L 1259 4666 
L 1259 531 
L 3531 531 
L 3531 0 
L 628 0 
L 628 4666 
z
" transform="scale(0.015625)"/>
      </defs>
      <use xlink:href="#DejaVuSans-4b"/>
      <use xlink:href="#DejaVuSans-4c" x="65.576172"/>
     </g>
    </g>
    <g id="line2d_74">
     <path d="M 177.51 128.799375 
L 189.51 128.799375 
L 201.51 128.799375 
" style="fill: none; stroke-dasharray: 4.44,1.92; stroke-dashoffset: 0; stroke: #00b945; stroke-width: 1.2"/>
     <g>
      <use xlink:href="#mb6da38213a" x="189.51" y="128.799375" style="fill-opacity: 0; stroke: #00b945; stroke-width: 1.5; stroke-linejoin: miter"/>
     </g>
    </g>
    <g id="text_12">
     <!-- IS -->
     <g transform="translate(211.11 132.999375)scale(0.12 -0.12)">
      <defs>
       <path id="DejaVuSans-49" d="M 628 4666 
L 1259 4666 
L 1259 0 
L 628 0 
L 628 4666 
z
" transform="scale(0.015625)"/>
       <path id="DejaVuSans-53" d="M 3425 4513 
L 3425 3897 
Q 3066 4069 2747 4153 
Q 2428 4238 2131 4238 
Q 1616 4238 1336 4038 
Q 1056 3838 1056 3469 
Q 1056 3159 1242 3001 
Q 1428 2844 1947 2747 
L 2328 2669 
Q 3034 2534 3370 2195 
Q 3706 1856 3706 1288 
Q 3706 609 3251 259 
Q 2797 -91 1919 -91 
Q 1588 -91 1214 -16 
Q 841 59 441 206 
L 441 856 
Q 825 641 1194 531 
Q 1563 422 1919 422 
Q 2459 422 2753 634 
Q 3047 847 3047 1241 
Q 3047 1584 2836 1778 
Q 2625 1972 2144 2069 
L 1759 2144 
Q 1053 2284 737 2584 
Q 422 2884 422 3419 
Q 422 4038 858 4394 
Q 1294 4750 2059 4750 
Q 2388 4750 2728 4690 
Q 3069 4631 3425 4513 
z
" transform="scale(0.015625)"/>
      </defs>
      <use xlink:href="#DejaVuSans-49"/>
      <use xlink:href="#DejaVuSans-53" x="29.492188"/>
     </g>
    </g>
   </g>
  </g>
 </g>
 <defs>
  <clipPath id="pa413678387">
   <rect x="41.7975" y="3.6" width="195.3" height="142.695"/>
  </clipPath>
 </defs>
</svg>
